<?xml version="1.0" encoding="UTF-8"?>
<svg id="Capa_1" data-name="Capa 1" xmlns="http://www.w3.org/2000/svg" viewBox="0 0 170.08 113.39">
  <defs>
    <style>
      .cls-1 {
        fill: none;
        stroke: #1f2aa5;
        stroke-linecap: round;
        stroke-linejoin: round;
        stroke-width: .36px;
      }

      .cls-2 {
        fill: #fff;
      }

      .cls-3 {
        fill: #e8e5f5;
      }

      .cls-4 {
        fill: #b1b0b1;
      }

      .cls-5 {
        fill: #1f2aa5;
      }
    </style>
  </defs>
  <path class="cls-5" d="M91.89,15.29s.11,1.2,.6,1.77,.75,.39,2.08,.13,4.8-1.38,4.8-1.38v.66l-2.13,.8-4.12,1.19-1.49,.49,.25-3.66Z"/>
  <path class="cls-5" d="M83.11,41.53s2.3-.2,5.03-.75,5.05-1.24,5.05-1.24l.56,1.38-10.64,.61Z"/>
  <path class="cls-5" d="M63.77,9.84l-1.76,1.1-.53,.69,1.51,.34,4.89,.13h2.08l3.49-2.76,3.26-1.77s-4.64,.49-7.09,.79c-2.08,.26-4.8,.64-6,1.1-.18,.07,.15,.38,.15,.38Z"/>
  <path class="cls-5" d="M54.83,18.17l2.52,.21,5.93,.15,5.54-.18,6.62-.63,5.48-.86,2.69-.39,.6,.39v.92l-.48,2.19-.45,1.43-2.34,1.39s-10.42,3.67-12.72,4.23c-2.31,.55-7.42,1.39-7.42,1.39h-8.29l-1.77-.4,4.09-9.84Z"/>
  <polygon class="cls-2" points="70.53 25.99 72 27.62 78.34 24 78.67 23.68 78.67 19.31 78.67 18.01 76.09 17.96 75.97 23.17 70.53 25.99"/>
  <g>
    <path class="cls-4" d="M85.57,71.41c-1.2-.58-2.49-1.09-3.58-1.75-.99-.6-2.08-.52-3.2-.53-.08,0-.17,.01-.25,.03-.04,.01-.07,.05-.11,.08,1.41,.72,2.81,1.44,4.22,2.16h-21.3c-1.4-1.04-2.91-2.02-4.18-3.12-1.13-.99-2.19-2.05-2.97-3.19-2.04-2.97-1.26-6.49,2.46-8.82,1.74-1.09,3.58-2.01,5.66-2.71,.8-.27,1.6-.52,2.42-.74,5.89-1.65,13.45-1.26,10.27,.12-.25,.11-.49,.22-.73,.33-1.99,.97-2.51,2.21-1.71,3.49,.64,1.02,1.73,1.84,2.86,2.63,.56,.39,2.83,1.42,3.62,1.74,1.25,.51,2.47,1.06,3.75,1.53,3.45,1.27,6.94,2.47,10.58,3.47,3.36,.92,6.72,1.83,10.11,2.69,3.57,.9,7.18,1.72,10.78,2.58-9.56,0-19.13,0-28.69,0Zm-11.1-5.75c-.77-.51-1.58-.63-2.63-.5,.09,.1,.14,.21,.24,.27,1.61,.99,3.15,2.04,4.87,2.93,.6,.31,1.62,.23,2.47,.19-.88-.6-1.76-1.2-2.64-1.81,.14-.03-1.63-.63-2.31-1.08Zm-4.63-12.22h.03c-.08,.01-.17,.04-.25,.06,.7-.32,1.35-.73,2.12-.93,.67-.17,1.35-.35,2.02-.52,1.41-.36-2.78,.12-4.7,.9-1.09,.44-1.98,.92-2.59,1.42,.62,.16,1.13,.16,1.64-.14,.38-.23,.8-.42,1.2-.63,.06,0,.13-.01,.19-.02h.08s.03-.05,.03-.05c.06,.01,.11,.03,.17,.04,.06,0,.13,0,.19,0l-.02,.02s-.07-.1-.1-.14Zm.34,10.7c.68,.52,1.39,.46,2.39,.41-.73-.54-1.38-.96-1.95-1.44-.96-.8-1.91-1.61-2.78-2.45-.68-.65-.62-.68-1.95-.57,1.13,1.52,2.67,2.8,4.29,4.05Zm-3.17-8.97c-1.07-.27-1.34-.2-1.77,.5-.73,1.17-.56,2.35,.13,3.48,.13,.21,.82,.27,1.25,.4,.06-.05,.11-.11,.17-.16-.67-1.43-1.05-2.85,.22-4.21Z"/>
    <path class="cls-4" d="M54.48,71.41c-2.14-1.68-4.03-3.47-5.19-5.58-1.93-3.53-.8-6.84,3.21-9.4,2.53-1.61,5.48-2.71,8.62-3.56,.61-.17-3.88-.77-6.75-.24-1.81,.33-3.59,.72-5.35,1.2-4.22,1.14-8.11,2.64-11.29,4.91-2.48,1.77-4.18,3.82-4.82,6.26-.1,.36-.17,.73-.26,1.09,0,.39-.09,.79,0,1.18,.03,.11,.87,2.93,1.72,4.14,6.7,0,13.4,0,20.1,0Z"/>
    <path class="cls-4" d="M137.45,71.41c-3.48-.66-6.97-1.32-10.45-1.99-11.34-2.16-22.66-4.37-33.69-7.22-4.44-1.15-8.86-2.35-12.79-4.22-.93-.44-1.79-1-2.48-1.61-1.05-.92-.78-1.84,.58-2.56,1.96-1.05,4.27-1.61,6.62-2.01,3.95-.67,7.95-1.2,11.93-1.8,.07-.01,.14-.03,.19-.14-1.38,.13-2.76,.25-4.13,.39-3.78,.38-7.55,.81-11.16,1.68-1.6,.39-3.19,.88-4.62,1.5-2.39,1.04-2.64,2.48-.86,3.99,1.61,1.37,3.7,2.33,5.86,3.23,5.83,2.41,12.05,4.25,18.43,5.81,7.04,1.71,14.17,3.23,21.27,4.83,.08,.02,.13,.07,.2,.1h15.12Z"/>
  </g>
  <path class="cls-2" d="M93.24,64.65l.06-.03c-.14-.05-.1-.07-.06,.03Z"/>
  <g>
    <path class="cls-4" d="M47.91,100.67h-1.1v-.62h2.9v.62h-1.1v5.43h-.69v-5.43Z"/>
    <path class="cls-4" d="M49.83,102.88c0-.37-.03-.8-.04-1.12h.62l.04,.68h.02c.14-.41,.51-.75,.92-.75,.05,0,.1,0,.14,0v.71s-.09,0-.14,0c-.44,0-.76,.4-.83,.91-.02,.12-.03,.25-.03,.4v2.41h-.69v-3.22Z"/>
    <path class="cls-4" d="M53.73,106.1l-.04-.46h-.03c-.19,.33-.49,.53-.86,.53-.58,0-1.03-.49-1.03-1.24,0-1.09,.87-1.57,1.85-1.58v-.13c0-.58-.14-.99-.69-.99-.27,0-.51,.09-.72,.22l-.15-.48c.18-.13,.58-.29,1.01-.29,.87,0,1.25,.57,1.25,1.55v1.88c0,.33,0,.71,.04,.99h-.63Zm-.1-2.24c-.36,0-1.19,.06-1.19,1.01,0,.57,.29,.77,.53,.77,.31,0,.57-.22,.65-.65,.02-.08,.02-.17,.02-.24v-.88Z"/>
    <path class="cls-4" d="M55.28,102.88c0-.51-.03-.77-.04-1.12h.6l.04,.52h.02c.19-.35,.54-.59,1-.59,.6,0,1.05,.45,1.05,1.5v2.92h-.69v-2.8c0-.51-.1-1.03-.6-1.03-.29,0-.57,.24-.66,.71-.02,.11-.03,.24-.03,.39v2.74h-.69v-3.22Z"/>
    <path class="cls-4" d="M58.8,105.39c.15,.1,.42,.22,.7,.22,.39,0,.64-.24,.64-.63,0-.33-.12-.56-.56-.85-.57-.37-.87-.74-.87-1.24,0-.7,.52-1.2,1.19-1.2,.34,0,.6,.12,.78,.22l-.19,.52c-.16-.11-.35-.19-.57-.19-.38,0-.57,.27-.57,.55,0,.3,.11,.46,.54,.75,.5,.32,.9,.72,.9,1.32,0,.87-.59,1.29-1.3,1.29-.32,0-.67-.1-.86-.25l.17-.52Z"/>
    <path class="cls-4" d="M61.5,103.12c0-.66-.03-1.05-.04-1.36h.62l.04,.56h.02c.23-.47,.57-.63,.92-.63,.75,0,1.26,.81,1.26,2.23,0,1.61-.66,2.25-1.35,2.25-.4,0-.64-.26-.75-.5h-.02v2.15h-.69v-4.71Zm.69,1.39c0,.13,0,.26,.03,.36,.13,.62,.45,.74,.64,.74,.57,0,.75-.79,.75-1.67s-.22-1.65-.76-1.65c-.31,0-.59,.39-.64,.79-.02,.11-.02,.22-.02,.33v1.1Z"/>
    <path class="cls-4" d="M67.76,103.93c0,1.68-.78,2.24-1.45,2.24-.78,0-1.41-.71-1.41-2.23s.71-2.25,1.45-2.25,1.4,.73,1.4,2.24Zm-2.16,0c0,.72,.13,1.7,.75,1.7,.59,0,.71-1.02,.71-1.7s-.12-1.69-.73-1.69-.74,1.02-.74,1.69Z"/>
    <path class="cls-4" d="M68.52,102.88c0-.37-.03-.8-.04-1.12h.62l.04,.68h.02c.14-.41,.51-.75,.92-.75,.05,0,.1,0,.14,0v.71s-.09,0-.14,0c-.44,0-.76,.4-.83,.91-.02,.12-.03,.25-.03,.4v2.41h-.69v-3.22Z"/>
    <path class="cls-4" d="M71.81,100.61v1.15h.83v.53h-.83v2.58c0,.57,.21,.72,.46,.72,.11,0,.2,0,.28-.03l.03,.53c-.13,.04-.29,.07-.51,.07-.27,0-.51-.07-.68-.26-.17-.2-.26-.49-.26-1.1v-2.51h-.53v-.53h.53v-.95l.69-.2Z"/>
    <path class="cls-4" d="M73.67,104c0,1.33,.53,1.62,1.03,1.62,.3,0,.55-.07,.72-.17l.11,.51c-.24,.13-.61,.21-.95,.21-1.04,0-1.58-.85-1.58-2.18,0-1.41,.59-2.29,1.46-2.29s1.24,.93,1.24,1.92c0,.16,0,.28,0,.39h-2.02Zm1.36-.51c.02-.87-.31-1.26-.65-1.26-.45,0-.68,.66-.71,1.26h1.36Z"/>
    <path class="cls-4" d="M77.77,105.31c.21,.13,.57,.24,.87,.24,.63,0,1.01-.41,1.01-1.02,0-.56-.32-.9-.8-1.26-.48-.33-1.14-.9-1.14-1.68,0-.92,.64-1.59,1.6-1.59,.38,0,.71,.12,.85,.22l-.17,.59c-.15-.11-.4-.21-.72-.21-.59,0-.87,.45-.87,.86,0,.6,.31,.83,.89,1.25,.73,.51,1.05,1.07,1.05,1.74,0,1.04-.74,1.7-1.7,1.7-.41,0-.85-.13-1.02-.26l.15-.59Z"/>
    <path class="cls-4" d="M81.64,104c0,1.33,.53,1.62,1.03,1.62,.3,0,.55-.07,.72-.17l.11,.51c-.24,.13-.61,.21-.95,.21-1.04,0-1.58-.85-1.58-2.18,0-1.41,.59-2.29,1.46-2.29s1.24,.93,1.24,1.92c0,.16,0,.28,0,.39h-2.02Zm1.36-.51c.02-.87-.31-1.26-.65-1.26-.45,0-.68,.66-.71,1.26h1.36Z"/>
    <path class="cls-4" d="M87.07,101.76c0,.31-.04,.69-.04,1.36v2.43c0,1.14-.14,1.57-.43,1.89-.26,.3-.67,.47-1.16,.47-.37,0-.73-.09-.95-.22l.16-.54c.17,.09,.46,.19,.81,.19,.55,0,.89-.34,.89-1.33v-.44h-.02c-.15,.34-.47,.53-.83,.53-.77,0-1.27-.87-1.27-2.15,0-1.6,.73-2.26,1.36-2.26,.47,0,.68,.3,.81,.57h.02l.04-.49h.62Zm-.72,1.5c0-.11,0-.22-.04-.31-.08-.3-.23-.66-.63-.66-.5,0-.77,.67-.77,1.63,0,1.11,.35,1.62,.77,1.62,.21,0,.48-.1,.62-.62,.04-.13,.04-.27,.04-.39v-1.26Z"/>
    <path class="cls-4" d="M90.6,104.92c0,.48,.03,.86,.04,1.18h-.6l-.04-.46h-.02c-.13,.22-.47,.53-.93,.53-.76,0-1.06-.59-1.06-1.67v-2.75h.69v2.65c0,.68,.11,1.18,.58,1.18,.4,0,.58-.38,.62-.57,.03-.12,.04-.25,.04-.39v-2.86h.69v3.16Z"/>
    <path class="cls-4" d="M91.56,102.88c0-.37-.03-.8-.04-1.12h.62l.04,.68h.02c.14-.41,.51-.75,.92-.75,.05,0,.1,0,.14,0v.71s-.09,0-.14,0c-.44,0-.76,.4-.83,.91-.02,.12-.03,.25-.03,.4v2.41h-.69v-3.22Z"/>
    <path class="cls-4" d="M96.33,103.93c0,1.68-.78,2.24-1.45,2.24-.78,0-1.41-.71-1.41-2.23s.71-2.25,1.45-2.25,1.4,.73,1.4,2.24Zm-2.16,0c0,.72,.13,1.7,.75,1.7,.59,0,.71-1.02,.71-1.7s-.12-1.69-.73-1.69-.74,1.02-.74,1.69Z"/>
    <path class="cls-4" d="M98.87,101.76l.57,2.5c.08,.34,.13,.63,.18,.9h.02c.04-.24,.12-.57,.19-.89l.51-2.5h.68l-.71,2.79c-.27,1.09-.57,2.14-1.08,2.8-.31,.39-.63,.59-.78,.66l-.25-.59c.2-.11,.41-.3,.61-.55,.18-.22,.32-.52,.39-.73,.04-.11,.04-.15,.04-.22,0-.05,0-.11-.02-.16l-1.1-4.01h.73Z"/>
    <path class="cls-4" d="M105.29,103.23h-1.52v2.27h1.72v.6h-2.41v-6.05h2.31v.6h-1.62v1.99h1.52v.58Z"/>
    <path class="cls-4" d="M106.26,106.1v-3.81h-.55v-.53h.55v-.29c0-.77,.38-1.65,1.58-1.65,.37,0,.69,.11,.85,.21l-.15,.54c-.15-.07-.41-.17-.72-.17-.7,0-.87,.48-.87,1.15v.22h1.95v4.34h-.69v-3.81h-1.26v3.81h-.69Z"/>
    <path class="cls-4" d="M111.98,106c-.15,.09-.41,.16-.72,.16-.95,0-1.59-.76-1.59-2.2,0-1.25,.63-2.26,1.71-2.26,.23,0,.48,.06,.61,.13l-.13,.57c-.09-.04-.27-.12-.49-.12-.69,0-1.01,.83-1.01,1.68,0,1.01,.39,1.62,1.02,1.62,.19,0,.34-.04,.5-.12l.09,.53Z"/>
    <path class="cls-4" d="M113.32,100.64c0,.27-.16,.45-.42,.45-.22,0-.39-.18-.39-.45s.18-.45,.4-.45c.25,0,.41,.18,.41,.45Zm-.75,5.47v-4.34h.69v4.34h-.69Z"/>
    <path class="cls-4" d="M114.71,104c0,1.33,.53,1.62,1.03,1.62,.3,0,.55-.07,.72-.17l.11,.51c-.24,.13-.61,.21-.95,.21-1.04,0-1.58-.85-1.58-2.18,0-1.41,.59-2.29,1.46-2.29s1.24,.93,1.24,1.92c0,.16,0,.28,0,.39h-2.02Zm1.36-.51c.02-.87-.31-1.26-.65-1.26-.45,0-.68,.66-.71,1.26h1.36Z"/>
    <path class="cls-4" d="M117.48,102.88c0-.51-.03-.77-.04-1.12h.6l.04,.52h.02c.19-.35,.54-.59,1-.59,.6,0,1.05,.45,1.05,1.5v2.92h-.69v-2.8c0-.51-.1-1.03-.6-1.03-.29,0-.57,.24-.66,.71-.02,.11-.03,.24-.03,.39v2.74h-.69v-3.22Z"/>
    <path class="cls-4" d="M121.91,100.61v1.15h.83v.53h-.83v2.58c0,.57,.21,.72,.46,.72,.11,0,.2,0,.28-.03l.03,.53c-.13,.04-.29,.07-.51,.07-.27,0-.51-.07-.68-.26-.17-.2-.26-.49-.26-1.1v-2.51h-.53v-.53h.53v-.95l.69-.2Z"/>
    <path class="cls-4" d="M123.77,104c0,1.33,.53,1.62,1.03,1.62,.3,0,.55-.07,.72-.17l.11,.51c-.24,.13-.61,.21-.95,.21-1.04,0-1.58-.85-1.58-2.18,0-1.41,.59-2.29,1.46-2.29s1.24,.93,1.24,1.92c0,.16,0,.28,0,.39h-2.02Zm1.36-.51c.02-.87-.31-1.26-.65-1.26-.45,0-.68,.66-.71,1.26h1.36Z"/>
  </g>
  <g>
    <path class="cls-5" d="M33.87,90.28l16.3-16.35h5.75v24.22h-6.64v-3.13h-10.46l5.94-5.9h4.53v-6.42l-15.41,15.45v-7.88Z"/>
    <path class="cls-5" d="M57.73,80.58l6.64-6.65v24.19h-6.64v-17.54Zm7.89,11.57v6.01h3.1c3.24,0,5.97-1.15,8.17-3.46,2.2-2.31,3.3-5.11,3.3-8.39s-1.28-6.29-3.85-8.72c-2.57-2.43-5.64-3.65-9.2-3.65h-2.73l-.04,6.3,3.24-.07c1.7,0,3.15,.6,4.37,1.81,1.22,1.21,1.82,2.64,1.82,4.31,0,1.57-.52,2.94-1.57,4.11-1.04,1.17-2.34,1.75-3.89,1.75h-2.73Z"/>
    <path class="cls-5" d="M81.84,80.58l6.64-6.66v24.23h-6.64v-17.57Zm4.42,2.57h10.88v5.94h-8.66l-2.21-5.94Zm.37,8.92h10.51v6.08h-8.66l-1.84-6.08Zm.18-11.88l1.66-6.27h14.86l-6.27,6.27h-10.25Z"/>
    <path class="cls-5" d="M108.24,83.19c2.29,0,4.17,.7,5.64,2.09,1.48,1.39,2.21,3.14,2.21,5.23s-.73,3.83-2.18,5.36c-1.45,1.53-3.2,2.29-5.24,2.29h-9.51v-6.08l8.85,.07c.42,0,.76-.16,1.03-.47,.27-.31,.41-.68,.41-1.1,0-.92-.58-1.38-1.73-1.38-2.38,0-4.35-.76-5.9-2.29-1.55-1.53-2.32-3.44-2.32-5.73,0-2.04,.77-3.76,2.3-5.16,1.54-1.39,3.35-2.09,5.44-2.09h14.93l-6.3,6.27h-8.85c-.39,0-.72,.08-.98,.24-.26,.16-.41,.44-.46,.84,0,.72,.26,1.22,.77,1.49,.52,.27,1.14,.41,1.88,.41Z"/>
    <path class="cls-5" d="M137.18,89.05c0,2.61-.97,4.83-2.91,6.67-1.94,1.84-4.24,2.76-6.89,2.76s-4.9-.92-6.8-2.75c-1.91-1.83-2.86-4.07-2.86-6.7v-8.46l6.64-6.65v15.18c0,.81,.31,1.51,.94,2.09,.63,.58,1.37,.87,2.23,.87,.81,0,1.53-.28,2.16-.85s.94-1.27,.94-2.1v-15.19h6.56v15.12Z"/>
  </g>
  <g>
    <g>
      <path class="cls-5" d="M119.55,43.61c-.03,1.9-.83,3.44-1.78,3.42s-1.7-1.57-1.66-3.48c.03-1.9,.83-3.44,1.78-3.42s1.7,1.57,1.66,3.48h0Zm.91,.01c.05-2.91-1.09-5.3-2.55-5.32s-2.67,2.32-2.72,5.23c-.05,2.91,1.09,5.3,2.55,5.32s2.67-2.32,2.72-5.23h0Z"/>
      <path class="cls-5" d="M118.87,44.1s-.04-.04-.04-.08v-.83s.03-.08,.06-.08h.05s.04,.04,.04,.09v.83s-.03,.08-.06,.08h-.05Z"/>
      <path class="cls-5" d="M118.37,45.57s-.01-.09,0-.12l.3-.58s.04-.03,.06,0l.03,.07s.01,.09,0,.12l-.3,.58s-.04,.03-.06,0l-.03-.07Z"/>
      <path class="cls-5" d="M117.52,45.76s.02-.08,.04-.08h.41s.04,.05,.04,.09v.1s-.02,.08-.04,.08h-.41s-.04-.05-.04-.09v-.1Z"/>
      <path class="cls-5" d="M116.83,44.84s.04-.03,.06,0l.28,.59s.01,.09,0,.12l-.04,.07s-.04,.03-.06,0l-.28-.59s-.01-.09,0-.12l.04-.07Z"/>
      <path class="cls-5" d="M118.43,41.66s-.02,.09,0,.12l.28,.59s.04,.03,.06,0l.04-.07s.02-.09,0-.12l-.28-.59s-.04-.03-.06,0l-.04,.07Z"/>
      <path class="cls-5" d="M117.59,41.36s.02,.08,.04,.08h.41s.04-.03,.04-.08v-.1s-.02-.08-.04-.08h-.41s-.04,.03-.04,.08v.1Z"/>
      <path class="cls-5" d="M116.87,42.26s.04,.03,.06,0l.3-.58s.02-.09,0-.12l-.03-.07s-.04-.03-.06,0l-.3,.58s-.02,.09,0,.12l.03,.07Z"/>
      <path class="cls-5" d="M116.72,44.07s-.04-.04-.04-.08v-.83s.03-.08,.06-.08h.05s.04,.04,.04,.09v.83s-.03,.08-.06,.08h-.05Z"/>
      <path class="cls-3" d="M117.8,45.06c-.39,0-.7-.65-.69-1.43s.34-1.41,.73-1.41,.7,.65,.69,1.43-.34,1.41-.73,1.41Z"/>
      <path class="cls-5" d="M117.98,44.25c-.33,.31-.64-.38-.43-1.03,.02-.07,.06-.13,.11-.18,.33-.31,.64,.38,.43,1.03-.02,.07-.06,.13-.11,.18Z"/>
      <path class="cls-5" d="M118.41,43.87c-.12,.13-.24-.13-.17-.37,0-.02,.02-.05,.04-.07,.12-.13,.24,.13,.17,.37,0,.02-.02,.05-.04,.07Z"/>
      <path class="cls-5" d="M117.48,44.64c-.12,.13-.24-.13-.17-.37,0-.02,.02-.05,.04-.07,.12-.13,.24,.13,.17,.37,0,.02-.02,.05-.04,.07Z"/>
      <path class="cls-5" d="M118.03,44.84c-.12,.13-.24-.13-.17-.37,0-.02,.02-.05,.04-.07,.12-.13,.24,.13,.17,.37,0,.02-.02,.05-.04,.07Z"/>
      <path class="cls-5" d="M118.07,42.78c-.12,.13-.24-.13-.17-.37,0-.02,.02-.05,.04-.07,.12-.13,.24,.13,.17,.37,0,.02-.02,.05-.04,.07Z"/>
      <path class="cls-5" d="M117.48,43.17c-.12,.13-.24-.13-.17-.37,0-.02,.02-.05,.04-.07,.12-.13,.24,.13,.17,.37,0,.02-.02,.05-.04,.07Z"/>
    </g>
    <g>
      <path class="cls-5" d="M114.19,44.15c-.03,1.9-.83,3.44-1.78,3.42s-1.7-1.57-1.66-3.48,.83-3.44,1.78-3.42,1.7,1.57,1.66,3.48h0Zm.91,.01c.05-2.91-1.09-5.3-2.55-5.32s-2.67,2.32-2.72,5.23c-.05,2.91,1.09,5.3,2.55,5.32s2.67-2.32,2.72-5.23h0Z"/>
      <path class="cls-5" d="M113.52,44.64s-.04-.04-.04-.08v-.83s.03-.08,.06-.08h.05s.04,.04,.04,.09v.83s-.03,.08-.06,.08h-.05Z"/>
      <path class="cls-5" d="M113.01,46.11s-.01-.09,0-.12l.3-.58s.04-.03,.06,0l.03,.07s.01,.09,0,.12l-.3,.58s-.04,.03-.06,0l-.03-.07Z"/>
      <path class="cls-5" d="M112.16,46.3s.02-.08,.04-.08h.41s.04,.05,.04,.09v.1s-.02,.08-.04,.08h-.41s-.04-.05-.04-.09v-.1Z"/>
      <path class="cls-5" d="M111.48,45.38s.04-.03,.06,0l.28,.59s.01,.09,0,.12l-.04,.07s-.04,.03-.06,0l-.28-.59s-.01-.09,0-.12l.04-.07Z"/>
      <path class="cls-5" d="M113.07,42.2s-.02,.09,0,.12l.28,.59s.04,.03,.06,0l.04-.07s.02-.09,0-.12l-.28-.59s-.04-.03-.06,0l-.04,.07Z"/>
      <path class="cls-5" d="M112.23,41.9s.02,.08,.04,.08h.41s.04-.03,.04-.08v-.1s-.02-.08-.04-.08h-.41s-.04,.03-.04,.08v.1Z"/>
      <path class="cls-5" d="M111.52,42.8s.04,.03,.06,0l.3-.58s.02-.09,0-.12l-.03-.07s-.04-.03-.06,0l-.3,.58s-.02,.09,0,.12l.03,.07Z"/>
      <path class="cls-5" d="M111.36,44.6s-.04-.04-.04-.08v-.83s.03-.08,.06-.08h.05s.04,.04,.04,.09v.83s-.03,.08-.06,.08h-.05Z"/>
      <path class="cls-3" d="M112.45,45.6c-.39,0-.7-.65-.69-1.43s.34-1.41,.73-1.41,.7,.65,.69,1.43-.34,1.41-.73,1.41Z"/>
      <path class="cls-5" d="M112.63,44.79c-.33,.31-.64-.38-.43-1.03,.02-.07,.06-.13,.11-.18,.33-.31,.64,.38,.43,1.03-.02,.07-.06,.13-.11,.18Z"/>
      <path class="cls-5" d="M113.05,44.41c-.12,.13-.24-.13-.17-.37,0-.02,.02-.05,.04-.07,.12-.13,.24,.13,.17,.37,0,.02-.02,.05-.04,.07Z"/>
      <path class="cls-5" d="M112.12,45.18c-.12,.13-.24-.13-.17-.37,0-.02,.02-.05,.04-.07,.12-.13,.24,.13,.17,.37,0,.02-.02,.05-.04,.07Z"/>
      <path class="cls-5" d="M112.68,45.38c-.12,.13-.24-.13-.17-.37,0-.02,.02-.05,.04-.07,.12-.13,.24,.13,.17,.37,0,.02-.02,.05-.04,.07Z"/>
      <path class="cls-5" d="M112.71,43.32c-.12,.13-.24-.13-.17-.37,0-.02,.02-.05,.04-.07,.12-.13,.24,.13,.17,.37,0,.02-.02,.05-.04,.07Z"/>
      <path class="cls-5" d="M112.12,43.7c-.12,.13-.24-.13-.17-.37,0-.02,.02-.05,.04-.07,.12-.13,.24,.13,.17,.37,0,.02-.02,.05-.04,.07Z"/>
    </g>
    <g>
      <path class="cls-5" d="M78.78,47.86c-.04,2.43-1.24,4.38-2.68,4.36s-2.57-2.02-2.53-4.44,1.24-4.38,2.68-4.36,2.57,2.02,2.53,4.44h0Zm1.38,.02c.06-3.72-1.68-6.76-3.88-6.8s-4.03,2.95-4.1,6.67c-.06,3.72,1.68,6.76,3.88,6.8s4.03-2.95,4.1-6.67h0Z"/>
      <path class="cls-5" d="M77.76,48.48s-.06-.05-.06-.11l.02-1.05c0-.06,.03-.11,.07-.11h.07s.06,.05,.06,.11l-.02,1.05c0,.06-.03,.11-.07,.11h-.07Z"/>
      <path class="cls-5" d="M77,50.35s-.02-.11,0-.15l.45-.74s.07-.04,.09,0l.05,.09s.02,.11,0,.15l-.45,.74s-.07,.04-.09,0l-.05-.09Z"/>
      <path class="cls-5" d="M75.72,50.59c0-.06,.03-.11,.07-.11h.62s.06,.06,.06,.12v.13c0,.06-.03,.11-.07,.11h-.62s-.06-.06-.06-.12v-.13Z"/>
      <path class="cls-5" d="M74.67,49.42s.07-.04,.09,0l.43,.75s.02,.11,0,.15l-.05,.09s-.07,.04-.09,0l-.43-.75s-.02-.11,0-.15l.05-.09Z"/>
      <path class="cls-5" d="M77.08,45.35s-.03,.11,0,.15l.43,.75s.06,.04,.09,0l.05-.09s.03-.11,0-.15l-.43-.75s-.06-.04-.09,0l-.05,.09Z"/>
      <path class="cls-5" d="M75.81,44.98c0,.06,.03,.11,.06,.11h.62s.06-.04,.07-.1v-.13c0-.06-.02-.11-.06-.11h-.62s-.06,.04-.07,.1v.13Z"/>
      <path class="cls-5" d="M74.73,46.12s.06,.04,.09,0l.45-.74s.03-.11,0-.15l-.05-.09s-.06-.04-.09,0l-.45,.74s-.03,.11,0,.15l.05,.09Z"/>
      <path class="cls-5" d="M74.49,48.42s-.06-.05-.06-.11l.02-1.05c0-.06,.03-.11,.07-.11h.07s.06,.05,.06,.11l-.02,1.05c0,.06-.03,.11-.07,.11h-.07Z"/>
      <path class="cls-3" d="M76.14,49.69c-.59,0-1.06-.83-1.04-1.83s.51-1.8,1.1-1.79,1.06,.83,1.04,1.83-.51,1.8-1.1,1.79Z"/>
      <path class="cls-5" d="M76.4,48.67c-.48,.36-.93-.45-.67-1.25,.04-.13,.11-.25,.21-.33,.48-.36,.93,.45,.67,1.25-.04,.13-.11,.25-.21,.33Z"/>
      <path class="cls-5" d="M77.05,48.18c-.19,.16-.37-.16-.26-.47,.01-.04,.03-.07,.06-.09,.19-.16,.37,.16,.26,.47-.01,.04-.03,.07-.06,.09Z"/>
      <path class="cls-5" d="M75.65,49.16c-.19,.16-.37-.16-.26-.47,.01-.04,.03-.07,.06-.09,.19-.16,.37,.16,.26,.47-.01,.04-.03,.07-.06,.09Z"/>
      <path class="cls-5" d="M76.49,49.42c-.19,.16-.37-.16-.26-.47,.01-.04,.03-.07,.06-.09,.19-.16,.37,.16,.26,.47-.01,.04-.03,.07-.06,.09Z"/>
      <path class="cls-5" d="M76.54,46.79c-.19,.16-.37-.16-.26-.47,.01-.04,.03-.07,.06-.09,.19-.16,.37,.16,.26,.47-.01,.04-.03,.07-.06,.09Z"/>
      <path class="cls-5" d="M75.65,47.28c-.19,.16-.37-.16-.26-.47,.01-.04,.03-.07,.06-.09,.19-.16,.37,.16,.26,.47-.01,.04-.03,.07-.06,.09Z"/>
    </g>
    <path class="cls-5" d="M48.34,36.22c2.94,.2,5.93,.56,8.88,.36l-.35-.47c-1.33,3.72-3.32,7.27-3.39,11.31,0,.48,.73,.49,.74,.01,.07-3.97,2.06-7.46,3.36-11.11,.08-.21-.12-.49-.35-.47-2.95,.2-5.94-.17-8.88-.36-.48-.03-.49,.71-.01,.74h0Z"/>
    <path class="cls-5" d="M48.42,39.07c2.39,.31,4.79,.45,7.2,.41,.48,0,.49-.75,.01-.74-2.41,.03-4.81-.11-7.2-.41-.47-.06-.48,.68-.01,.74h0Z"/>
    <path class="cls-5" d="M48.28,41.84c2.1,.28,4.19,.39,6.31,.34,.47-.01,.49-.75,.01-.74-2.11,.05-4.21-.06-6.31-.34-.47-.06-.48,.68-.01,.74h0Z"/>
    <path class="cls-5" d="M48.21,44.8c1.85,.37,3.7,.52,5.59,.45,.47-.02,.49-.76,.01-.74-1.82,.07-3.61-.06-5.39-.42-.46-.09-.68,.62-.21,.71h0Z"/>
    <path class="cls-5" d="M48.31,47.76c1.86,.39,3.72,.44,5.6,.17,.47-.07,.28-.78-.19-.72-1.75,.25-3.48,.2-5.21-.16-.46-.1-.67,.61-.21,.71h0Z"/>
    <path class="cls-5" d="M58.66,41.89c1.66,.12,3.29-.07,4.92-.31,.94-.14,1.94-.38,2.89-.39,.33,.02,.29,.17,.23,.24-.1,.33-.2,.43-.37,.74-.22,.41-.5,.79-.72,1.21-1,1.88-1.23,3.69-3.74,3.92-1.86,.18-3.74,.16-5.6,.06-.48-.02-.49,.72-.01,.74,1.24,.06,2.49,.09,3.74,.04,1.05-.04,2.26,0,3.27-.34,2-.68,2.51-3.22,3.46-4.85,.56-.96,1.57-2.65-.24-2.5-2.62,.21-5.17,.9-7.82,.7-.48-.04-.49,.7-.01,.74h0Z"/>
    <path class="cls-5" d="M63.49,9.51c-1.05,.61-1.98,1.26-2.65,2.3-.15,.24,.04,.55,.31,.56,1.6,.05,3.2,.1,4.8,.14,1.2,.04,2.92,.42,4.04-.1,.48-.22,.84-.65,1.25-.96,.58-.44,1.19-.9,1.79-1.32,1.18-.81,2.52-1.35,3.84-1.89,.44-.18,.07-.83-.36-.64-2.28,.94-4.3,2.07-6.2,3.66-1.17,.98-3.13,.55-4.59,.5s-3.04-.09-4.56-.14l.31,.56c.59-.93,1.45-1.49,2.38-2.03,.41-.24,.05-.89-.36-.64h0Z"/>
    <path class="cls-5" d="M91.18,15.37l-.08,3.84c0,.3,.3,.44,.55,.33,2.05-.88,4.19-1.49,6.31-2.17,.47-.15,1.47-.29,1.78-.76s-.05-1.58-.11-2.1c-.05-.47-.79-.48-.74-.01,.04,.36,.15,.62,.19,1.12,.08,.38,.08,.49-.22,.64-.2,.12-2.23,.75-3.02,.99-1.54,.48-3.06,1-4.54,1.64l.55,.33c.03-1.28,.05-2.56,.08-3.84,.01-.48-.73-.49-.74-.01h0Z"/>
    <path class="cls-5" d="M84.2,6.5c4.64-.12,9.3-.42,13.94-.37,2.21,.03,1.97,2.46,1.98,4.12,.01,1.03,.01,2.06,.01,3.09,0,5.76-.05,11.52-.11,17.27-.02,2.36-.05,4.73-.08,7.09,0,.48,.73,.49,.74,.01,.07-5.41,.12-10.81,.16-16.22,.02-2.96,.04-5.91,.03-8.87,0-1.04,0-2.07-.02-3.11-.02-1.21,.05-2.86-.99-3.71-.73-.6-1.8-.42-2.67-.4l-4.33,.11-8.65,.23c-.47,.01-.49,.75-.01,.74h0Z"/>
    <path class="cls-5" d="M101.27,7.97c1.76,.05,.53,1.41,1.18,2.19,.44,.52,1.35,.12,1.92,.26,.54,.14,.76,.05,.91,.77,.02,.08-.01,.18,0,.27,.03,.33,0,.69-.01,1.02-.03,2.28-.07,4.56-.1,6.85-.07,4.4-.13,8.81-.21,13.21,0,.48,.73,.49,.74,.01,.07-3.58,.12-7.16,.18-10.74,.06-3.56,.3-7.18,.16-10.74-.02-.45-.06-.92-.46-1.2-.61-.42-1.57,.13-2.14-.2-.76-.45-.06-1.43-.52-2.04-.32-.42-1.16-.38-1.62-.39s-.49,.73-.01,.74h0Z"/>
    <path class="cls-5" d="M103.49,14.69c0-.19-.01-.39,0-.58,0-.11,.01-.22,.03-.32,0-.06,.06-.28,.04-.27-.03,.03,.16-.01,.19-.02,.11-.02,.23-.04,.34-.06,.23-.04,.45-.08,.68-.12,.47-.08,.28-.8-.19-.72-.32,.06-.63,.11-.95,.17-.25,.05-.52,.07-.68,.3-.13,.19-.14,.48-.17,.7-.04,.3-.04,.6-.03,.9,.02,.47,.76,.49,.74,.01h0Z"/>
    <path class="cls-5" d="M103.22,19.85c0-.25,0-.5,0-.75,0-.15,.03-.3,.02-.45v-.15c-.06,.09-.05,.12,.04,.08,.16,.05,.56-.12,.72-.17,.24-.08,.48-.17,.72-.27,.44-.19,.07-.83-.36-.64-.34,.14-.68,.25-1.04,.33-.24,.05-.5,.06-.67,.25s-.15,.48-.16,.71c-.02,.35-.02,.7-.02,1.05,0,.48,.75,.49,.74,.01h0Z"/>
    <path class="cls-5" d="M103.25,24.73c.03-.26,.06-.52,.09-.78s.12-.3,.37-.35c.39-.08,.77-.08,1.15-.24,.44-.18,.07-.83-.36-.64-.5,.21-1.06,.07-1.52,.4s-.41,1.08-.47,1.6c-.05,.47,.69,.48,.74,.01h0Z"/>
    <path class="cls-5" d="M102.93,30.01l.07-.74c.02-.17-.02-.6,.07-.74-.08,.13,.07,.02,.12,0,.12-.04,.23-.09,.35-.13,.27-.08,.55-.14,.83-.16,.47-.04,.49-.79,.01-.74-.55,.05-1.45,.15-1.87,.56-.19,.19-.19,.44-.21,.69l-.11,1.23c-.04,.47,.7,.48,.74,.01h0Z"/>
    <path class="cls-5" d="M102.92,34.73l.05-.47,.03-.24s.04-.25,.01-.22c.01-.02,.27-.07,.35-.09,.16-.04,.31-.07,.47-.1,.47-.08,.28-.8-.19-.72-.36,.06-1,.12-1.24,.43-.12,.16-.12,.38-.14,.57l-.09,.83c-.05,.47,.69,.48,.74,.01h0Z"/>
    <path class="cls-5" d="M90.48,27.33c1.76,0,3.52,.04,5.28,.13,.48,.02,.49-.72,.01-.74-1.76-.09-3.52-.13-5.28-.13-.48,0-.49,.74-.01,.74h0Z"/>
    <path class="cls-5" d="M50.67,28.47c1.41,.43,2.7,.35,4.15,.42,1.64,.08,3.28,.1,4.92,0,3.29-.2,7.97-1.28,11.1-2.31,.45-.15,.27-.87-.19-.72-3.07,1.01-7.67,2.08-10.9,2.28-1.42,.09-2.85,.08-4.27,.02-1.58-.06-3.08,.05-4.61-.41-.46-.14-.88,.5-.43,.64l.22,.07Z"/>
    <path class="cls-5" d="M71.26,23.74c.6-1.85,1.57-3.52,2.56-5.18,.24-.41-.39-.79-.63-.38-1.02,1.72-2.01,3.45-2.63,5.36-.15,.45,.56,.66,.71,.21h0Z"/>
    <path class="cls-5" d="M66.98,37.5l10.23-2.8c.46-.13,.28-.84-.19-.72-3.41,.93-6.82,1.86-10.23,2.8-.46,.13-.28,.84,.19,.72h0Z"/>
    <path class="cls-5" d="M64.82,49.29c1.98-.12,3.96-.19,5.94-.19,.48,0,.49-.74,.01-.74-1.98,0-3.96,.07-5.94,.19-.47,.03-.49,.77-.01,.74h0Z"/>
    <path class="cls-5" d="M98.04,41.67c-.52,1.66-.77,3.7-2.71,4.17-1.54,.37-3.18,.48-4.75,.7-.47,.07-.28,.78,.19,.72,1.8-.25,4.22-.2,5.84-1.1,1.42-.79,1.7-2.87,2.14-4.28,.14-.46-.57-.66-.71-.21h0Z"/>
    <path class="cls-5" d="M83.15,42.07c3.47-.04,6.92-.27,10.36-.68,.47-.06,.28-.77-.19-.72-3.38,.4-6.77,.62-10.17,.66-.48,0-.49,.75-.01,.74h0Z"/>
    <path class="cls-5" d="M116.5,36.27c1.03,.04,2.34-.13,3.19,.57,.8,.65,1.07,1.49,1.23,2.46,.32,1.93,.27,3.89,.25,5.83,0,.48,.74,.49,.74,.01,.02-2.32,.31-5.22-.62-7.42s-2.74-2.11-4.77-2.19c-.48-.02-.49,.72-.01,.74h0Z"/>
    <path class="cls-5" d="M106.06,36.29l6.56,.14c.48,.01,.49-.73,.01-.74l-6.56-.14c-.48-.01-.49,.73-.01,.74h0Z"/>
    <path class="cls-5" d="M60.97,53.26c-2.08-.03-4.13-.08-5.29-.11-2.31-.07-8.88-.84-9.16-.87-.03,0-.05,0-.08-.02l-1.59-.55c-.56-.19-1.25-.79-1.31-2.53-.03-.84,.1-1.61,.14-1.81-.02-.28-.1-1.68-.07-2.81,.03-1.31,.55-3.84,1.06-5.2,.45-1.19,1.63-1.63,2.16-1.78,.28-1.5,1.1-4.01,1.77-5.73,.26-.67,.79-1.85,1.47-3.36,1.11-2.47,2.63-5.85,3.74-8.74,1.86-4.84,5.78-8.92,7.96-10.49,2.31-1.66,13.42-3.14,13.9-3.2,.21-.03,.39,.12,.42,.32,.03,.2-.12,.39-.32,.42-.11,.02-11.4,1.52-13.56,3.07-2.03,1.45-5.91,5.49-7.7,10.15-1.12,2.91-2.64,6.3-3.76,8.78-.67,1.49-1.2,2.68-1.46,3.32-.69,1.77-1.55,4.42-1.77,5.82-.03,.16-.15,.28-.31,.31-.01,0-1.43,.26-1.85,1.37-.48,1.28-.99,3.73-1.01,4.95-.03,1.21,.07,2.78,.07,2.8,0,.03,0,.06,0,.1-.16,.81-.37,3.19,.67,3.55l1.55,.53c.56,.07,6.87,.79,9.06,.86,2.3,.07,8.2,.17,10.7,.17,2.68,0,4.44-.12,4.5-1.98,.04-1.35,.25-5.89,1.24-7.85,.63-1.26,1.81-3.6,4.17-3.36,1.77,.18,2.8,.82,3.54,2.21,.73,1.37,1.22,2.27,1.42,5.43l.21,4.09,9.81-1.07,10.43-1.36,6.97-1.03s.02,0,.03,0c.07-.11,.23-.5,.27-1.72,.03-.94,.22-5.7,1.24-7.05,.82-1.08,1.43-1.38,3.12-1.52,1.57-.13,5.4,.01,5.56,.02,.21,0,.37,.18,.36,.39s-.18,.36-.39,.36c-.04,0-3.94-.15-5.47-.02-1.47,.12-1.9,.32-2.58,1.22-.64,.84-1.01,4.02-1.09,6.62-.05,1.78-.37,2.2-.65,2.37-.12,.07-.25,.09-.36,.08l-6.91,1.02-10.44,1.37-10.21,1.11c-.1,.01-.2-.02-.28-.09-.08-.07-.13-.16-.13-.26l-.23-4.48c-.19-2.99-.62-3.79-1.33-5.12-.62-1.16-1.45-1.67-2.96-1.82-1.71-.17-2.67,1.44-3.43,2.96-.73,1.45-1.08,4.84-1.16,7.54-.08,2.72-2.94,2.71-5.24,2.7-1.25,0-3.35-.03-5.43-.06Z"/>
    <path class="cls-5" d="M79.22,23.85c-.18,0-.33-.13-.36-.32-.03-.2,.11-.39,.31-.42,.01,0,.47-.08,1.93-.61,1.25-.45,1.88-1.27,2.01-1.46,.11-.45,.75-3.15,.85-4.13-.35-.22-2.19,.13-3.54,.38-.91,.17-1.84,.35-2.76,.47l-.16,.02c-3.09,.41-7.32,.98-12.02,1.12-4.72,.14-10.26-.17-10.31-.17-.21-.01-.36-.19-.35-.39s.19-.36,.39-.35c.05,0,5.56,.31,10.24,.17,4.66-.14,8.87-.7,11.94-1.11l.16-.02c.89-.12,1.82-.29,2.72-.46,2.4-.45,3.68-.67,4.21-.18,.16,.15,.24,.36,.22,.6-.11,1.1-.85,4.18-.89,4.31,0,.04-.02,.07-.04,.11-.03,.05-.76,1.22-2.43,1.82-1.55,.56-2.02,.64-2.07,.65-.02,0-.04,0-.06,0Z"/>
    <path class="cls-5" d="M65.04,36.01s-.03,0-.05,0c-.2-.03-.34-.22-.32-.42,.02-.17,.65-4.2,4.96-5.87,4.11-1.59,15.37-5.86,15.48-5.9,.02,0,.03-.01,.05-.02,.4-.09,.78-.3,.8-.4h0s0-.03-.06-.1c-.28-.34-.52-.72-.47-1.15,.06-.45,.42-.8,.94-1.2,.66-.49,1.54-3.64,1.96-5.14,.12-.44,.25-.82,.31-1.08,.29-1.23,.39-2.16,.39-2.17,0-.1,.05-.2,.13-.27,0,0,4.34-3.73,5.71-5.06,.17-.17,1.25-.11,2.58-.33,1.42-.23,2.85,.04,2.91,.05,.2,.04,.33,.23,.3,.44-.04,.2-.23,.34-.44,.3-.01,0-1.37-.26-2.65-.04-1.1,.18-2.06,.02-2.31,.24-1.6,1.42-4.06,3.65-5.49,4.87-.27,.23-.11,.99-.4,2.11-.06,.24-.21,.71-.33,1.15-.72,2.58-1.44,4.94-2.23,5.54-.27,.2-.62,.49-.65,.69-.02,.12,.08,.31,.31,.59,.27,.33,.25,.63,.18,.82-.2,.58-1.08,.82-1.31,.88-.59,.22-11.44,4.34-15.45,5.89-3.9,1.51-4.47,5.12-4.49,5.28-.03,.19-.19,.32-.37,.32Z"/>
    <path class="cls-5" d="M51.07,27.05c-.12,0-.24-.07-.31-.18-.01-.02-1.01-1.68-1.27-2.09-.19-.3-.15-.54-.08-.67,.04-.07,.09-.13,.14-.18-.14-.41-.39-1.11-.5-1.37-.08-.21-.07-.41,.03-.58,.09-.15,.23-.24,.37-.29l.06-3.94c0-.19,.16-.35,.35-.37h0s.22-.02,.52-.15c.48-.21,1.15-.02,1.22,0,.16,.05,.27,.2,.27,.36l-.1,6.11,.31,.52c.11,.18,.05,.41-.13,.51-.18,.11-.41,.05-.51-.13l-.36-.61c-.04-.06-.05-.13-.05-.2l.1-5.91c-.17-.02-.34-.02-.45,.02-.16,.07-.3,.11-.42,.14l-.06,3.92c0,.19-.15,.35-.34,.37-.02,0-.05,0-.08,.02,.18,.47,.57,1.6,.59,1.65,.04,.11,.02,.23-.04,.33-.04,.06-.09,.11-.16,.13,.32,.52,1.18,1.95,1.22,2.01,.11,.18,.05,.41-.13,.51-.06,.04-.13,.05-.2,.05Z"/>
    <path class="cls-5" d="M71.99,28.01c-.13,0-.25-.07-.32-.19-.1-.18-.04-.41,.14-.51l6.47-3.66,.04-5.3-1.71,.15-.17,4.65c0,.13-.08,.25-.19,.31l-5.27,3.03c-.18,.1-.49,0-.59-.18s-.04-.41,.14-.51l5.16-2.89,.17-4.77c0-.19,.15-.34,.34-.36l2.45-.21c.1,0,.21,.03,.29,.1s.12,.17,.12,.28l-.04,5.93c0,.13-.07,.26-.19,.32l-6.66,3.76c-.06,.03-.13,.05-.19,.05Z"/>
    <path class="cls-5" d="M47.1,47.69s-.09,0-.13-.03c0,0-2.25-.88-2.9-1.14-.19-.08-.28-.29-.21-.48,.08-.19,.29-.28,.48-.21,.43,.17,1.57,.62,2.29,.9-.08-.55-.18-1.39-.24-2.4-.08-1.4-.06-2.7-.05-3.14l-1.41-1.43c-.14-.15-.14-.38,0-.53s.38-.14,.53,0l1.52,1.55c.07,.07,.11,.17,.11,.28,0,.02-.06,1.54,.04,3.23,.1,1.68,.33,2.94,.34,2.96,.02,.13-.02,.27-.13,.36-.07,.06-.16,.09-.24,.09Z"/>
    <path class="cls-5" d="M60.87,43.82c-1.79-.03-2.89-.16-2.94-.17-.2-.02-.35-.21-.32-.42,.03-.2,.21-.35,.42-.32,.01,0,1.11,.13,2.86,.16s5.44-.7,5.48-.71c.2-.04,.4,.09,.44,.29,.04,.2-.09,.4-.29,.44-.16,.03-3.82,.75-5.63,.72Z"/>
  </g>
  <path class="cls-5" d="M56.02,47.45s1.88,.08,4.49-.5,3.66-1.43,4.09-1.98,1.09-1.72,1.09-1.72v.67l-.52,1.46-1.06,1.62-3.09,.79-4.19-.09-.81-.24Z"/>
  <path class="cls-1" d="M49.98,29.59s3.25,.43,5.29,.36,3.86,.06,5.13-.08c.25-.03,1.13-.08,.56,.85-.71,1.18-1.74,3.99-2.2,4.88s-2.79,7.13-2.79,7.13"/>
</svg>