<?xml version="1.0" encoding="UTF-8"?>
<svg id="Capa_1" data-name="Capa 1" xmlns="http://www.w3.org/2000/svg" viewBox="0 0 170.08 113.39">
  <defs>
    <style>
      .cls-1 {
        fill: #004384;
      }

      .cls-2 {
        fill: #003380;
      }

      .cls-3 {
        fill: #fff;
      }

      .cls-4 {
        fill: #e6b54a;
      }

      .cls-5 {
        fill: #72a83d;
      }

      .cls-6 {
        fill: #c01918;
      }
    </style>
  </defs>
  <g>
    <path class="cls-1" d="M45.7,26.45l-.67,1.13h-.01c-.11,.16-.25,.32-.41,.47-.5,.42-1.07,.61-1.72,.56-.65-.05-1.19-.31-1.62-.8-.43-.49-.62-1.06-.57-1.71,.03-.43,.16-.82,.39-1.15h-.01s8.05-13.62,8.05-13.62h.01c.11-.16,.25-.32,.42-.45,.49-.43,1.06-.62,1.71-.58,.65,.05,1.19,.32,1.62,.81,.14,.16,.25,.33,.34,.51h.01s6.06,14.61,6.06,14.61h-.01c.18,.37,.25,.77,.22,1.2-.05,.65-.31,1.19-.8,1.62-.49,.43-1.06,.62-1.71,.57-.65-.05-1.19-.31-1.61-.8-.15-.17-.26-.34-.35-.52h-.01s-.51-1.22-.51-1.22l-8.82-.62Zm6.8-4.25l-1.77-4.26-2.35,3.97,4.12,.29Z"/>
    <path class="cls-1" d="M70.44,23.47l-3.53-.25-.33,4.7c-.05,.65-.32,1.19-.81,1.62-.49,.43-1.06,.62-1.71,.57-.65-.05-1.19-.31-1.62-.8-.43-.49-.62-1.06-.57-1.71l1-14.11c.05-.65,.31-1.19,.8-1.62,.49-.43,1.06-.62,1.71-.57l5.88,.42c1.62,.11,2.97,.79,4.04,2.02,1.07,1.23,1.54,2.66,1.43,4.28s-.79,2.97-2.02,4.04c-1.23,1.07-2.66,1.54-4.28,1.43Zm.5-7.06l-3.53-.25-.17,2.35,3.53,.25c.32,.02,.61-.07,.85-.29,.25-.22,.38-.48,.4-.8,.02-.32-.07-.61-.29-.85-.22-.25-.48-.38-.8-.41Z"/>
    <path class="cls-1" d="M88.41,20.01c.65,.05,1.19,.31,1.61,.81,.43,.49,.62,1.06,.57,1.71-.05,.65-.31,1.19-.81,1.62-.49,.43-1.06,.62-1.71,.57l-4.7-.33-.17,2.35,7.06,.5c.65,.05,1.19,.31,1.62,.81,.43,.49,.62,1.06,.57,1.71-.05,.65-.31,1.19-.8,1.62-.49,.43-1.06,.62-1.71,.57l-9.41-.66c-.65-.05-1.19-.31-1.62-.8-.43-.49-.62-1.06-.57-1.71l1-14.11c.05-.65,.31-1.19,.8-1.62,.49-.43,1.06-.62,1.71-.57l9.41,.66c.65,.05,1.19,.31,1.62,.81,.43,.49,.62,1.06,.57,1.71-.05,.65-.31,1.19-.8,1.62-.49,.43-1.06,.62-1.71,.57l-7.06-.5-.17,2.35,4.7,.33Z"/>
    <path class="cls-1" d="M99.84,25.55l-.33,4.7c-.05,.65-.32,1.19-.81,1.62-.49,.43-1.06,.62-1.71,.57-.65-.05-1.19-.31-1.62-.81-.43-.49-.62-1.06-.57-1.71l1-14.11c.05-.65,.31-1.19,.8-1.62,.49-.43,1.06-.62,1.71-.57,.65,.05,1.19,.31,1.62,.81,.43,.49,.62,1.06,.57,1.71l-.33,4.7,4.7,.33,.33-4.7c.05-.65,.31-1.19,.8-1.62,.49-.43,1.06-.62,1.71-.57,.65,.05,1.19,.31,1.62,.81,.43,.49,.62,1.06,.57,1.71l-1,14.11c-.05,.65-.31,1.19-.8,1.62-.49,.43-1.06,.62-1.71,.57-.65-.05-1.19-.31-1.62-.8s-.62-1.06-.57-1.71l.33-4.7-4.7-.33Z"/>
    <path class="cls-1" d="M115.97,31.42c-.05,.65-.31,1.19-.81,1.62-.49,.43-1.06,.62-1.71,.57-.65-.05-1.19-.31-1.62-.8-.43-.49-.62-1.06-.57-1.71l1-14.11c.05-.65,.31-1.19,.8-1.62,.49-.43,1.06-.62,1.71-.57,.65,.05,1.19,.31,1.62,.81,.43,.49,.62,1.06,.57,1.71l-1,14.11Z"/>
    <path class="cls-1" d="M123.86,20.15l-2.35-.17c-.65-.05-1.19-.31-1.62-.81-.43-.49-.62-1.06-.57-1.71,.05-.65,.31-1.19,.81-1.62,.49-.43,1.06-.62,1.71-.57l9.41,.66c.65,.05,1.19,.31,1.62,.81,.43,.49,.62,1.06,.57,1.71-.05,.65-.31,1.19-.81,1.62-.49,.43-1.06,.62-1.71,.57l-2.35-.17-.83,11.76c-.05,.65-.31,1.19-.81,1.62-.49,.43-1.06,.62-1.71,.57-.65-.05-1.19-.31-1.61-.8-.43-.49-.62-1.06-.57-1.71l.83-11.76Z"/>
  </g>
  <path class="cls-1" d="M94.11,89.23c-26.05,4.32-50.68-13.3-55-39.35-.83-5.01-.85-9.97-.15-14.74-.34,1.04-.7,2.12-.96,3.18-1.53,6.14-1.79,12.67-.69,19.31,4.32,26.05,28.94,43.67,55,39.35,21.04-3.49,36.58-20.23,39.5-40.26-5.32,16.48-19.44,29.48-37.7,32.51Z"/>
  <g>
    <path class="cls-2" d="M42.23,77.58l-.94,.27-.18-.32,3.14-.87,.2,.36-2.41,2.17-.18-.33,.72-.65-.35-.64Zm.58,.45l.62-.54c.17-.15,.38-.32,.57-.47v-.02c-.24,.08-.5,.17-.71,.23l-.79,.24,.3,.55Z"/>
    <path class="cls-2" d="M42.59,79.37c0,.1,.02,.26,.1,.39,.11,.18,.29,.23,.46,.13,.15-.09,.22-.21,.22-.49,0-.36,.08-.61,.31-.74,.31-.19,.69-.08,.88,.23,.1,.16,.12,.31,.12,.43l-.29,.05c0-.1-.01-.21-.08-.32-.11-.18-.28-.19-.41-.12-.13,.08-.17,.17-.18,.46,0,.32-.07,.61-.34,.78-.39,.24-.74,.08-.95-.26-.09-.15-.15-.34-.13-.47l.28-.06Z"/>
    <path class="cls-2" d="M44.83,81.48c-.73,.48-1.22,.29-1.41-.01-.24-.36-.11-.85,.55-1.29,.69-.46,1.2-.33,1.42,.01,.23,.35,.1,.85-.56,1.29Zm-.65-.99c-.31,.21-.7,.55-.51,.83,.18,.27,.66,.03,.95-.16,.29-.19,.7-.54,.52-.82-.19-.28-.67-.04-.96,.15Z"/>
    <path class="cls-2" d="M44.89,83.43c-.09-.04-.2-.13-.3-.27-.3-.42-.18-.94,.43-1.37,.53-.38,1.16-.41,1.51,.08,.07,.1,.13,.23,.14,.31l-.28,.11c0-.05-.04-.15-.11-.26-.22-.31-.67-.2-1.03,.06-.43,.31-.57,.67-.37,.95,.06,.09,.13,.14,.21,.19l-.2,.2Z"/>
    <path class="cls-2" d="M45.08,83.78l1.81-1.37,.23,.3-1.81,1.37-.23-.3Zm2.53-1.4c-.11,.09-.24,.07-.33-.04-.07-.1-.06-.23,.06-.31,.11-.09,.25-.06,.32,.03,.08,.11,.06,.24-.05,.32Z"/>
    <path class="cls-2" d="M46.85,85.19c-.14,.11-.29,.23-.39,.34l-.22-.27,.17-.17h0c-.2,.02-.39-.05-.51-.2-.2-.25-.15-.6,.15-.84,.44-.36,.94-.15,1.28,.27l.06-.04c.24-.19,.35-.39,.17-.62-.09-.11-.21-.19-.34-.23l.15-.22c.12,.03,.32,.15,.46,.34,.3,.37,.19,.72-.21,1.04l-.77,.62Zm.28-.7c-.12-.15-.43-.49-.82-.18-.23,.19-.22,.38-.13,.48,.1,.13,.29,.17,.49,.06,.04-.02,.08-.05,.11-.07l.36-.29Z"/>
    <path class="cls-2" d="M47.64,86.82c-.09-.03-.21-.11-.32-.24-.34-.39-.27-.92,.3-1.41,.49-.43,1.12-.52,1.51-.07,.08,.1,.15,.22,.16,.3l-.27,.14c-.01-.05-.05-.15-.13-.24-.25-.29-.69-.13-1.02,.16-.4,.35-.51,.72-.28,.98,.07,.08,.14,.13,.23,.17l-.18,.22Z"/>
    <path class="cls-2" d="M47.86,87.14l1.68-1.53,.25,.28-1.68,1.53-.25-.28Zm2.39-1.63c-.1,.1-.23,.09-.33-.01-.08-.09-.08-.22,.03-.32,.1-.09,.24-.09,.32,0,.09,.1,.08,.23-.02,.32Z"/>
    <path class="cls-2" d="M50.34,88.11c-.63,.61-1.14,.51-1.39,.25-.3-.31-.27-.81,.3-1.37,.6-.58,1.12-.54,1.4-.25,.29,.3,.26,.81-.31,1.37Zm-.82-.85c-.27,.26-.59,.67-.35,.91,.23,.23,.65-.09,.91-.34,.25-.24,.59-.66,.36-.9-.24-.24-.66,.08-.91,.33Zm2.17-.74l-.81,.07-.17-.18,.72-.17,.27,.28Z"/>
    <path class="cls-2" d="M51.04,88.03c.18-.19,.27-.3,.39-.44l.24,.23-.17,.21h0c.2-.06,.43-.02,.61,.16,.24,.23,.26,.56-.12,.96l-1.05,1.11-.27-.26,1.01-1.06c.18-.19,.33-.43,.13-.62-.11-.11-.31-.12-.52,.02-.05,.03-.1,.08-.15,.14l-.98,1.04-.28-.26,1.16-1.22Z"/>
    <path class="cls-2" d="M55.2,89.62l-1.74,2.08c-.1,.12-.25,.33-.34,.43l-.25-.21,.17-.24h-.01c-.17,.07-.4,.08-.59-.08-.31-.26-.26-.76,.22-1.34,.52-.62,1.03-.69,1.31-.45,.13,.11,.21,.28,.16,.49h0s.78-.92,.78-.92l.29,.24Zm-1.47,1.17s.06-.08,.09-.12c.13-.2,.15-.45,.01-.57-.24-.2-.59,.05-.89,.4-.31,.37-.46,.75-.25,.92,.09,.08,.25,.13,.53-.07,.03-.03,.07-.06,.11-.11l.39-.46Z"/>
    <path class="cls-2" d="M54.48,91.79c-.42,.55-.28,.85-.07,1.01,.13,.1,.26,.15,.37,.17l-.12,.25c-.15-.02-.33-.12-.48-.23-.45-.35-.41-.88,0-1.43,.45-.59,.98-.75,1.36-.46,.38,.29,.24,.8-.08,1.21-.05,.07-.09,.12-.13,.16l-.88-.67Zm.75,.24c.28-.36,.26-.63,.12-.74-.19-.15-.51,.05-.71,.29l.59,.45Z"/>
    <path class="cls-2" d="M57.51,91.53c.15,.05,.31,.14,.49,.26,.25,.17,.42,.37,.47,.6,.05,.21-.01,.45-.16,.68-.16,.24-.34,.36-.53,.42-.28,.09-.6,.02-.84-.15-.05-.04-.09-.06-.14-.1l-.73,1.07-.31-.21,1.76-2.58Zm-.54,1.47s.06,.06,.11,.09c.31,.21,.65,.16,.9-.21,.18-.27,.23-.59-.12-.82-.07-.05-.14-.08-.19-.1l-.71,1.04Z"/>
    <path class="cls-2" d="M58.13,94.37c-.37,.59-.2,.87,.03,1.02,.14,.09,.27,.13,.38,.13l-.09,.26c-.15-.01-.34-.08-.5-.18-.48-.3-.49-.84-.13-1.43,.39-.63,.91-.84,1.32-.59,.41,.26,.31,.77,.04,1.21-.05,.07-.08,.12-.11,.17l-.94-.59Zm.77,.17c.25-.38,.2-.65,.05-.74-.21-.13-.5,.1-.68,.35l.63,.39Z"/>
    <path class="cls-2" d="M61.76,94.03l-1.34,2.35c-.08,.13-.19,.37-.25,.48l-.28-.16,.12-.26h-.01c-.15,.1-.37,.15-.59,.03-.35-.2-.39-.71-.02-1.35,.4-.7,.89-.85,1.21-.67,.15,.09,.25,.24,.24,.45h0s.6-1.05,.6-1.05l.32,.18Zm-1.24,1.41s.05-.09,.07-.13c.1-.22,.07-.47-.09-.56-.27-.16-.57,.15-.8,.55-.24,.42-.32,.81-.08,.95,.1,.06,.27,.09,.51-.16,.03-.03,.06-.07,.09-.12l.3-.53Z"/>
    <path class="cls-2" d="M60.69,97.14l1.07-2.01,.33,.18-1.07,2.01-.33-.18Zm1.7-2.34c-.06,.13-.19,.17-.31,.1-.11-.06-.15-.18-.08-.31,.07-.12,.2-.16,.3-.1,.12,.06,.15,.19,.09,.31Z"/>
    <path class="cls-2" d="M62.89,97.68c-.08,.16-.17,.33-.21,.47l-.31-.15,.08-.23h-.01c-.17,.1-.36,.12-.54,.03-.29-.14-.39-.48-.22-.83,.25-.51,.79-.53,1.27-.29l.03-.06c.14-.27,.16-.5-.11-.63-.13-.07-.27-.08-.4-.07l.04-.26c.12-.02,.35,0,.56,.11,.43,.21,.48,.57,.25,1.03l-.43,.88Zm-.04-.76c-.18-.09-.6-.26-.82,.18-.13,.27-.04,.43,.08,.49,.15,.07,.33,.03,.47-.15,.03-.03,.05-.08,.06-.11l.2-.41Z"/>
    <path class="cls-2" d="M64.75,96.02l-.22,.48,.41,.19-.12,.25-.41-.19-.56,1.23c-.12,.27-.05,.39,.07,.45,.05,.02,.1,.04,.14,.05l-.1,.26c-.07,0-.16-.03-.27-.08-.13-.06-.24-.15-.28-.28-.04-.13-.02-.29,.11-.58l.55-1.2-.26-.12,.11-.25,.26,.12,.16-.35,.4,.02Z"/>
    <path class="cls-2" d="M65.01,97.36c.08-.18,.15-.39,.21-.55l.31,.13-.12,.34h0c.16-.16,.41-.25,.62-.16,.03,.01,.05,.02,.07,.03l-.15,.34s-.04-.02-.07-.04c-.22-.09-.47,.03-.61,.26-.03,.05-.06,.11-.09,.18l-.49,1.16-.35-.15,.66-1.55Z"/>
    <path class="cls-2" d="M66.86,99.37c-.06,.16-.13,.35-.16,.49l-.32-.12,.06-.23h-.01c-.16,.12-.35,.16-.54,.08-.3-.12-.43-.44-.29-.81,.21-.53,.74-.59,1.24-.41l.03-.07c.11-.28,.11-.51-.16-.62-.14-.05-.28-.06-.41-.03v-.27c.13-.03,.37-.03,.59,.06,.44,.17,.53,.53,.34,1l-.36,.92Zm-.11-.75c-.18-.07-.62-.21-.8,.25-.11,.28,0,.43,.12,.48,.15,.06,.33,0,.45-.19,.02-.04,.04-.08,.05-.11l.17-.43Z"/>
    <path class="cls-2" d="M67.31,99.69c.06,.08,.18,.19,.32,.24,.2,.07,.37,0,.44-.19,.06-.16,.04-.3-.14-.52-.23-.28-.32-.52-.23-.77,.12-.35,.48-.5,.82-.38,.18,.06,.29,.17,.36,.25l-.19,.22c-.06-.08-.15-.16-.26-.2-.19-.07-.34,.03-.39,.17-.05,.15-.02,.25,.15,.47,.2,.25,.34,.52,.23,.81-.15,.43-.53,.53-.89,.4-.17-.06-.33-.17-.4-.28l.18-.23Z"/>
    <path class="cls-2" d="M71.03,99.7l-.79-.24-.34,1.14,.9,.27-.09,.3-1.26-.38,.9-3.04,1.21,.36-.09,.3-.85-.25-.3,1,.79,.24-.09,.29Z"/>
    <path class="cls-2" d="M71.19,100.91c.07,.07,.19,.17,.34,.21,.21,.05,.37-.04,.42-.23,.04-.17,.01-.3-.18-.51-.25-.26-.36-.49-.3-.75,.09-.36,.43-.54,.79-.44,.18,.05,.3,.14,.38,.22l-.17,.24c-.07-.08-.16-.14-.28-.17-.2-.05-.33,.06-.37,.2-.04,.15,0,.25,.19,.46,.22,.23,.38,.49,.3,.79-.11,.44-.48,.57-.86,.48-.17-.04-.34-.14-.42-.25l.16-.24Z"/>
    <path class="cls-2" d="M72.94,100.14c.08-.34,.11-.54,.14-.7l.33,.07-.04,.29h0c.18-.21,.38-.25,.56-.21,.4,.09,.58,.56,.42,1.29-.18,.82-.61,1.07-.98,.99-.22-.05-.31-.21-.35-.35h0s-.25,1.1-.25,1.1l-.37-.08,.54-2.41Zm.21,.79c-.02,.07-.03,.13-.03,.19,0,.33,.16,.43,.26,.45,.31,.07,.49-.31,.59-.76,.1-.46,.07-.87-.22-.93-.17-.04-.36,.13-.43,.33-.02,.05-.03,.11-.05,.17l-.13,.56Z"/>
    <path class="cls-2" d="M75.04,101.06c-.12,.68,.13,.88,.4,.93,.16,.03,.3,.02,.4-.02v.27c-.13,.05-.34,.05-.52,.01-.56-.1-.77-.59-.64-1.28,.13-.72,.54-1.12,1-1.03,.48,.09,.58,.6,.48,1.11-.02,.08-.03,.14-.04,.2l-1.09-.2Zm.78-.13c.09-.45-.05-.68-.23-.71-.24-.04-.43,.27-.5,.58l.73,.13Z"/>
    <path class="cls-2" d="M77.55,102.54c-.09,.03-.24,.05-.4,.03-.51-.08-.8-.52-.69-1.27,.1-.65,.52-1.12,1.1-1.03,.13,.02,.26,.07,.32,.12l-.12,.28s-.14-.08-.26-.1c-.37-.06-.61,.35-.68,.79-.08,.53,.08,.87,.43,.92,.1,.02,.19,0,.28-.02v.28Z"/>
    <path class="cls-2" d="M77.92,102.64l.28-2.25,.37,.05-.28,2.26-.37-.05Zm.76-2.79c-.01,.14-.12,.22-.26,.2-.12-.02-.2-.12-.18-.26,.02-.14,.13-.22,.25-.21,.14,.02,.21,.12,.19,.26Z"/>
    <path class="cls-2" d="M80.17,102.36c-.02,.17-.04,.37-.03,.52l-.34-.03v-.24s-.02,0-.02,0c-.12,.16-.3,.25-.5,.23-.32-.03-.54-.31-.5-.7,.06-.57,.55-.77,1.09-.72v-.07c.04-.3-.02-.52-.32-.55-.15-.02-.28,.02-.4,.08l-.06-.26c.1-.06,.33-.12,.57-.1,.47,.05,.65,.37,.6,.88l-.1,.98Zm-.31-.69c-.2-.02-.65-.03-.7,.46-.03,.29,.12,.42,.25,.43,.17,.02,.32-.09,.38-.31,.01-.04,.02-.09,.02-.13l.05-.46Z"/>
    <path class="cls-2" d="M80.94,99.68l.38,.03-.23,3.24-.38-.03,.23-3.24Z"/>
    <path class="cls-2" d="M81.69,102.98l.11-2.27,.38,.02-.11,2.27-.38-.02Zm.55-2.84c0,.14-.1,.23-.24,.22-.12,0-.21-.1-.2-.25s.11-.23,.23-.22c.14,0,.22,.1,.21,.25Z"/>
    <path class="cls-2" d="M82.58,102.65c.08,.05,.23,.12,.38,.13,.22,0,.35-.12,.36-.32,0-.17-.06-.29-.29-.45-.3-.2-.47-.4-.46-.66,.01-.37,.3-.62,.67-.61,.19,0,.33,.07,.42,.13l-.11,.27c-.09-.06-.19-.1-.31-.11-.21,0-.31,.13-.32,.28,0,.15,.05,.24,.28,.4,.27,.18,.48,.39,.47,.7-.01,.46-.34,.67-.73,.66-.18,0-.37-.06-.47-.14l.1-.27Z"/>
    <path class="cls-2" d="M84.59,100.26v.53s.45,0,.45,0v.28s-.46,0-.46,0v1.35c0,.3,.11,.38,.25,.38,.06,0,.11,0,.15-.01l.02,.28c-.07,.02-.16,.04-.28,.04-.15,0-.28-.04-.37-.14-.09-.1-.14-.26-.14-.57v-1.31s-.29,0-.29,0v-.28s.29,0,.29,0v-.38s.38-.15,.38-.15Z"/>
    <path class="cls-2" d="M86.67,102.5c0,.17,.01,.37,.04,.51h-.34s-.03-.23-.03-.23h-.01c-.1,.18-.26,.29-.46,.29-.32,.01-.57-.24-.58-.63-.02-.57,.45-.84,.99-.86v-.07c-.01-.31-.1-.51-.4-.5-.15,0-.28,.06-.39,.13l-.09-.25c.1-.07,.31-.16,.55-.17,.48-.01,.69,.28,.71,.79l.03,.98Zm-.39-.65c-.2,0-.65,.05-.64,.55,0,.3,.17,.4,.3,.39,.17,0,.3-.13,.34-.35,0-.04,0-.09,0-.13v-.46Z"/>
    <path class="cls-2" d="M87.19,102.62c.09,.05,.24,.1,.39,.09,.22-.01,.34-.15,.33-.35-.01-.17-.08-.29-.33-.43-.32-.17-.5-.36-.51-.62-.02-.37,.25-.65,.61-.67,.19-.01,.33,.04,.43,.09l-.09,.28c-.09-.05-.2-.09-.32-.08-.21,.01-.3,.16-.29,.31,0,.15,.07,.24,.32,.38,.28,.15,.51,.34,.53,.66,.03,.45-.28,.7-.67,.72-.18,.01-.37-.03-.48-.1l.08-.28Z"/>
    <path class="cls-2" d="M90.62,99.43l.3,2.69c.02,.15,.06,.41,.08,.54l-.32,.04-.06-.28h-.01c-.06,.17-.21,.35-.46,.38-.4,.05-.73-.34-.82-1.08-.09-.8,.21-1.22,.58-1.26,.17-.02,.35,.04,.46,.22h0s-.13-1.21-.13-1.21l.37-.04Zm-.16,1.87s-.01-.1-.02-.15c-.05-.23-.22-.42-.4-.4-.31,.03-.37,.46-.32,.92,.05,.48,.22,.85,.5,.82,.12-.01,.27-.09,.32-.43,0-.04,0-.1,0-.15l-.07-.6Z"/>
    <path class="cls-2" d="M91.7,101.45c.11,.69,.41,.79,.68,.75,.16-.02,.29-.08,.37-.15l.1,.26c-.12,.09-.31,.16-.5,.18-.56,.08-.92-.31-1.02-1-.11-.73,.14-1.23,.61-1.3,.48-.07,.74,.38,.82,.89,.01,.08,.02,.14,.03,.2l-1.09,.16Zm.7-.38c-.06-.45-.27-.62-.45-.6-.24,.04-.32,.4-.28,.71l.73-.11Z"/>
    <path class="cls-2" d="M92.85,99.09l.37-.07,.57,3.2-.37,.07-.57-3.2Z"/>
    <path class="cls-2" d="M94.89,98.79l.3,1.32,.9-.2-.3-1.32,.37-.08,.7,3.09-.37,.08-.33-1.44-.9,.2,.33,1.44-.37,.08-.7-3.08,.37-.08Z"/>
    <path class="cls-2" d="M98.57,99.95c.23,.85-.1,1.25-.45,1.34-.41,.11-.84-.16-1.05-.93-.22-.8,.06-1.24,.46-1.35,.41-.11,.84,.17,1.05,.93Zm-1.14,.31c.1,.36,.3,.84,.63,.75,.31-.08,.23-.62,.14-.96-.09-.34-.29-.84-.61-.75-.33,.09-.25,.62-.16,.96Z"/>
    <path class="cls-2" d="M99.16,100.57c.09,.02,.25,.05,.4,0,.21-.06,.3-.22,.24-.42-.05-.17-.15-.26-.42-.34-.35-.09-.57-.23-.64-.48-.11-.35,.09-.68,.44-.79,.18-.05,.33-.04,.44-.01l-.02,.29c-.1-.03-.21-.04-.33,0-.2,.06-.25,.22-.21,.36,.05,.15,.13,.21,.4,.29,.31,.08,.58,.22,.67,.52,.13,.44-.11,.74-.48,.85-.17,.05-.37,.06-.49,.01v-.29Z"/>
    <path class="cls-2" d="M100.26,98.98c-.11-.33-.19-.52-.25-.67l.32-.11,.11,.27h0c.04-.28,.19-.42,.37-.48,.39-.13,.79,.18,1.03,.89,.27,.8,.04,1.23-.31,1.35-.21,.07-.37-.02-.48-.12h0s.37,1.07,.37,1.07l-.36,.12-.8-2.33Zm.59,.57c.02,.07,.04,.13,.07,.17,.17,.28,.36,.29,.45,.25,.3-.1,.26-.52,.11-.96-.15-.44-.39-.78-.67-.68-.16,.06-.24,.3-.2,.5,0,.06,.03,.11,.05,.17l.19,.55Z"/>
    <path class="cls-2" d="M102.05,96.97c.05,.13,0,.25-.13,.3-.11,.04-.23-.01-.28-.14-.05-.13,0-.25,.12-.3,.13-.05,.24,0,.29,.14Zm.62,2.82l-.79-2.13,.35-.13,.79,2.13-.35,.13Z"/>
    <path class="cls-2" d="M102.93,96.69l.2,.49,.42-.17,.1,.26-.42,.17,.5,1.25c.11,.27,.24,.31,.37,.26,.05-.02,.1-.04,.14-.07l.12,.25c-.05,.05-.13,.09-.25,.14-.14,.05-.27,.07-.4,.01-.12-.06-.23-.19-.34-.48l-.49-1.22-.27,.11-.1-.26,.27-.11-.14-.36,.3-.27Z"/>
    <path class="cls-2" d="M105.72,97.99c.07,.16,.15,.34,.23,.46l-.32,.14-.12-.21h-.01c-.03,.21-.14,.37-.32,.45-.29,.13-.62-.01-.78-.37-.23-.52,.11-.94,.6-1.16l-.03-.06c-.12-.28-.28-.44-.55-.32-.14,.06-.24,.15-.31,.26l-.18-.2c.06-.1,.23-.26,.45-.36,.44-.19,.75,0,.95,.47l.39,.9Zm-.6-.46c-.18,.08-.59,.29-.39,.74,.12,.27,.31,.31,.43,.26,.15-.07,.24-.23,.19-.45,0-.04-.03-.09-.04-.12l-.18-.42Z"/>
    <path class="cls-2" d="M105.08,95.28l.34-.16,1.37,2.95-.34,.16-1.37-2.95Z"/>
    <path class="cls-2" d="M107,94.44l1.4,2.84-.34,.17-1.4-2.84,.34-.17Z"/>
    <path class="cls-2" d="M108.16,95.51c-.13-.23-.21-.35-.3-.51l.29-.16,.15,.23h0c0-.21,.11-.42,.33-.54,.29-.16,.62-.07,.88,.42l.73,1.34-.33,.18-.7-1.29c-.13-.24-.3-.45-.55-.32-.14,.08-.21,.26-.14,.5,.02,.05,.05,.12,.08,.18l.68,1.26-.33,.18-.8-1.48Z"/>
    <path class="cls-2" d="M110.83,95.96l-1-1.73-.26,.15-.14-.24,.26-.15-.07-.12c-.12-.21-.22-.45-.16-.7,.05-.19,.19-.33,.31-.41,.11-.06,.21-.09,.28-.1l.09,.28s-.11,.02-.2,.07c-.23,.14-.15,.41,0,.66l.07,.12,.37-.22,.14,.24-.37,.22,1,1.73-.33,.19Z"/>
    <path class="cls-2" d="M112.57,94.31c.09,.15,.2,.32,.29,.43l-.29,.18-.15-.19h-.01c0,.21-.08,.39-.25,.49-.27,.17-.62,.08-.82-.25-.3-.48-.03-.95,.42-1.23l-.04-.06c-.16-.26-.34-.4-.59-.24-.12,.08-.21,.19-.27,.31l-.2-.17c.05-.11,.19-.3,.39-.42,.4-.25,.74-.1,1.01,.33l.52,.83Zm-.66-.36c-.17,.1-.54,.37-.28,.79,.16,.25,.35,.26,.46,.19,.14-.09,.2-.26,.12-.48-.01-.04-.04-.08-.06-.11l-.24-.39Z"/>
    <path class="cls-2" d="M112.41,93.02c-.15-.22-.24-.33-.34-.48l.27-.18,.17,.22h0c-.02-.22,.07-.43,.28-.57,.27-.18,.61-.13,.91,.33l.85,1.27-.31,.21-.82-1.22c-.15-.22-.35-.42-.57-.26-.13,.09-.19,.28-.09,.51,.02,.05,.06,.11,.1,.18l.8,1.19-.31,.21-.94-1.4Z"/>
    <path class="cls-2" d="M113.77,90.73l.31,.43,.37-.27,.16,.22-.37,.27,.79,1.1c.17,.24,.31,.24,.42,.16,.05-.04,.08-.07,.12-.1l.17,.22c-.04,.06-.11,.12-.2,.19-.12,.09-.25,.13-.38,.11-.14-.03-.27-.13-.45-.38l-.77-1.07-.24,.17-.16-.23,.24-.17-.23-.31,.22-.34Z"/>
    <path class="cls-2" d="M114.68,89.99c.09,.11,.07,.24-.04,.33-.1,.07-.23,.05-.31-.06-.09-.11-.06-.25,.03-.32,.11-.08,.24-.06,.32,.05Zm1.39,2.53l-1.37-1.82,.3-.23,1.37,1.82-.3,.23Z"/>
    <path class="cls-2" d="M114.83,89.38l.3-.23,2,2.56-.3,.23-2-2.57Z"/>
    <path class="cls-2" d="M117.21,87.42l1.76,2.06c.1,.12,.28,.31,.37,.4l-.25,.21-.2-.2h-.01c.05,.19,.02,.41-.17,.58-.31,.26-.8,.13-1.28-.44-.53-.61-.51-1.13-.23-1.37,.13-.11,.31-.16,.51-.07h0s-.79-.93-.79-.93l.28-.24Zm.91,1.64s-.06-.08-.1-.11c-.17-.16-.42-.22-.56-.11-.24,.2-.05,.59,.25,.94,.31,.36,.66,.58,.87,.4,.09-.08,.17-.23,.02-.53-.02-.04-.05-.08-.09-.12l-.39-.46Z"/>
    <path class="cls-2" d="M119.23,88.5c.47,.51,.78,.43,.99,.24,.12-.11,.19-.23,.23-.33l.22,.16c-.05,.14-.17,.3-.31,.43-.42,.39-.94,.26-1.41-.26-.5-.54-.57-1.1-.22-1.42,.36-.33,.83-.1,1.18,.28,.06,.06,.1,.11,.13,.15l-.81,.75Zm.37-.7c-.3-.34-.57-.37-.7-.25-.18,.17-.04,.51,.16,.75l.54-.5Z"/>
    <path class="cls-2" d="M119.87,85.49l-.42,.43-.23-.23,1.11-1.12,.23,.23-.42,.43,2.02,2-.27,.27-2.02-2Z"/>
    <path class="cls-2" d="M120.42,84.33l.26-.27,2.37,2.23-.26,.27-2.37-2.23Z"/>
    <path class="cls-2" d="M123.91,84.56c.13,.12,.28,.25,.4,.33l-.23,.26-.19-.14h-.01c.06,.2,.03,.4-.11,.55-.21,.24-.57,.25-.86-.01-.42-.38-.3-.9,.06-1.3l-.05-.05c-.23-.2-.44-.29-.64-.06-.1,.11-.15,.24-.17,.37l-.24-.11c.01-.12,.1-.34,.26-.51,.32-.36,.68-.31,1.06,.03l.73,.65Zm-.74-.16c-.13,.15-.41,.51-.04,.84,.22,.2,.41,.15,.49,.05,.11-.12,.12-.31-.02-.49-.02-.04-.06-.07-.09-.09l-.34-.31Z"/>
    <path class="cls-2" d="M123.08,82.83l.52,.14c.14,.04,.27,.09,.41,.13h0c-.08-.14-.14-.27-.21-.38l-.24-.48,.25-.3,.5,1.15,1.24,.31-.26,.32-.54-.15c-.13-.04-.25-.08-.4-.13h0c.07,.13,.13,.25,.2,.38l.25,.5-.24,.29-.52-1.16-1.22-.3,.26-.31Z"/>
    <path class="cls-2" d="M126.43,82.2c-.01,.09-.07,.23-.17,.36-.32,.41-.85,.44-1.44-.02-.52-.4-.72-1-.36-1.47,.08-.1,.19-.19,.26-.22l.19,.24s-.14,.08-.21,.18c-.23,.3,0,.7,.36,.97,.42,.33,.8,.36,1.01,.08,.06-.08,.1-.16,.12-.25l.25,.13Z"/>
    <path class="cls-2" d="M127.03,80.6c.14,.1,.3,.22,.43,.28l-.2,.28-.21-.12h0c.08,.2,.06,.39-.05,.56-.19,.26-.54,.3-.86,.07-.46-.34-.39-.87-.07-1.3l-.06-.04c-.25-.18-.46-.24-.64,0-.09,.12-.13,.25-.14,.39l-.25-.08c0-.12,.07-.35,.2-.54,.28-.38,.65-.37,1.06-.07l.79,.58Zm-.75-.09c-.12,.16-.36,.55,.04,.84,.24,.17,.42,.11,.5,0,.1-.14,.09-.32-.07-.49-.03-.03-.07-.06-.1-.08l-.37-.27Z"/>
    <path class="cls-2" d="M125.11,78.58l.21-.31,2.68,1.84-.21,.31-2.68-1.84Z"/>
    <path class="cls-2" d="M128.59,78.27c.15,.09,.31,.2,.45,.26l-.19,.29-.21-.11h0c.09,.19,.09,.39-.02,.56-.17,.27-.52,.33-.85,.12-.48-.31-.43-.85-.14-1.3l-.06-.04c-.26-.17-.48-.21-.64,.04-.08,.12-.11,.26-.12,.39l-.26-.07c0-.12,.05-.35,.18-.55,.26-.4,.62-.41,1.05-.13l.82,.53Zm-.76-.04c-.11,.16-.33,.56,.09,.83,.25,.16,.42,.09,.5-.02,.09-.14,.07-.32-.1-.48-.03-.03-.07-.06-.1-.08l-.39-.25Z"/>
    <path class="cls-2" d="M129.16,76.5l.71,.66-.18,.32-2.37-2.22,.21-.36,3.11,.93-.19,.32-.93-.28-.36,.63Zm.09-.74l-.78-.25c-.22-.07-.47-.16-.69-.24v.02c.18,.15,.39,.33,.55,.47l.61,.55,.31-.54Z"/>
    <path class="cls-2" d="M130.99,75.24c-.06,.12-.21,.17-.36,.09-.14-.08-.19-.23-.13-.35,.07-.13,.22-.17,.36-.09,.15,.08,.2,.21,.12,.35h0Z"/>
    <path class="cls-2" d="M131.92,73.18c0,.11-.04,.27-.13,.46-.29,.58-.94,.77-1.9,.3-1.12-.55-1.19-1.31-.96-1.78,.09-.18,.19-.29,.25-.33l.24,.21c-.06,.06-.13,.12-.21,.27-.16,.32-.05,.83,.82,1.26,.87,.43,1.32,.24,1.5-.13,.06-.13,.09-.26,.09-.34l.3,.08Z"/>
    <path class="cls-2" d="M132.27,72.64c-.06,.12-.2,.18-.35,.11-.15-.07-.2-.22-.15-.34,.06-.14,.21-.18,.36-.11,.15,.07,.21,.2,.14,.34h0Z"/>
  </g>
  <g>
    <path class="cls-6" d="M73.34,45.57c-2.33,1.73-4.81,3.29-6.99,5.2-3.7,3.24-4.22,7.91-1.16,11.76,1.42,1.78,3.53,3,5.25,4.56,.76,.69,2.45,1.46,1.99,2.39-.43,.88-1.97,.06-2.93-.1-3.43-.56-5.61-3.22-8.3-5.04-.41-.28-.73-.67-1.13-.96-2.23-1.63-3.45-1.57-5.32,.43-.92,.99-1.63,2.17-2.46,3.24-.37,.49-.72,1.1-1.23,1.35-.46,.22-1.22,.19-1.65-.07-.26-.15-.34-1.03-.17-1.43,1.15-2.59,2.39-5.13,3.6-7.69,1.49-3.17,1.54-6.42,.53-9.73-1.27-4.17-4-7.46-6.45-10.93-.37-.52-.94-1.56-.43-2.03,.49-.45,1.44,.18,1.88,.57,2.39,2.14,4.69,4.39,7.03,6.58,3.79,3.56,7.99,3.99,12.61,1.7,1.49-.74,3.08-1.3,4.66-1.82,.75-.24,1.84-.87,2.39-.28,.38,.41-1.04,1.77-1.74,2.29Z"/>
    <path class="cls-6" d="M62.32,35.01c2.53-.01,4.69,2.22,4.65,4.79-.05,2.61-2.72,5.47-5.15,5.5-1.99,.03-4.27-2.32-4.27-4.39,0-3.97,1.54-5.88,4.77-5.9Z"/>
  </g>
  <g>
    <path class="cls-5" d="M71.25,55.05c2.33,1.73,4.81,3.29,6.99,5.2,3.7,3.24,4.22,7.91,1.16,11.76-1.42,1.78-3.53,3-5.25,4.56-.76,.69-2.45,1.46-1.99,2.39,.43,.88,1.96,.24,2.93-.1,3.06-1.06,5.61-3.22,8.3-5.04,.41-.28,.73-.67,1.13-.96,2.23-1.63,3.45-1.57,5.32,.43,.92,.99,1.63,2.17,2.46,3.24,.37,.49,.72,1.1,1.23,1.35,.46,.22,1.22,.19,1.65-.07,.26-.15,.34-1.03,.17-1.43-1.15-2.59-2.39-5.13-3.6-7.69-1.49-3.17-1.54-6.42-.53-9.73,1.27-4.17,4-7.46,6.45-10.93,.37-.52,.94-1.56,.43-2.03-.49-.45-1.44,.18-1.88,.57-2.39,2.14-4.69,4.39-7.03,6.58-3.79,3.56-7.99,3.99-12.61,1.7-1.49-.74-3.08-1.3-4.66-1.82-.75-.24-1.95-.95-2.39-.28-.41,.64,1.04,1.77,1.74,2.29Z"/>
    <path class="cls-5" d="M82.27,44.5c-2.53-.01-4.69,2.22-4.65,4.79,.05,2.61,2.72,5.47,5.15,5.5,1.99,.03,4.27-2.32,4.27-4.39,0-3.97-1.54-5.88-4.77-5.9Z"/>
  </g>
  <g>
    <path class="cls-4" d="M123.24,46.2c-2.33,1.73-4.81,3.29-6.99,5.2-3.7,3.24-4.22,7.91-1.16,11.76,1.42,1.78,3.53,3,5.25,4.56,.76,.69,2.45,1.46,1.99,2.39-.43,.88-1.8,.35-2.93-.1-3.23-1.28-5.61-3.22-8.3-5.04-.41-.28-.73-.67-1.13-.96-2.23-1.63-3.45-1.57-5.32,.43-.92,.99-1.63,2.17-2.46,3.24-.37,.49-.72,1.1-1.23,1.35-.46,.22-1.22,.19-1.65-.07-.26-.15-.34-1.03-.17-1.43,1.15-2.59,2.39-5.13,3.6-7.69,1.49-3.17,1.54-6.42,.53-9.73-1.27-4.17-4-7.46-6.45-10.93-.37-.52-.94-1.56-.43-2.03,.49-.45,1.44,.18,1.88,.57,2.39,2.14,4.69,4.39,7.03,6.58,3.79,3.56,7.99,3.99,12.61,1.7,1.49-.74,3.08-1.3,4.66-1.82,.75-.24,1.94-.95,2.39-.28s-1.04,1.77-1.74,2.29Z"/>
    <path class="cls-4" d="M112.22,35.65c2.53-.01,4.69,2.22,4.65,4.79-.05,2.61-2.72,5.47-5.15,5.5-1.99,.03-4.27-2.32-4.27-4.39,0-3.97,1.54-5.88,4.77-5.9Z"/>
  </g>
  <path class="cls-3" d="M57.89,55.32v1.88c0,.26-.09,.48-.27,.66-.18,.18-.4,.27-.66,.27s-.48-.09-.66-.27c-.18-.18-.27-.4-.27-.66v-5.63c0-.26,.09-.48,.27-.66,.18-.18,.4-.27,.66-.27s.48,.09,.66,.27c.18,.18,.27,.4,.27,.66v1.88h1.88v-1.88c0-.26,.09-.48,.27-.66,.18-.18,.4-.27,.66-.27s.48,.09,.66,.27c.18,.18,.27,.4,.27,.66v5.63c0,.26-.09,.48-.27,.66-.18,.18-.4,.27-.66,.27s-.48-.09-.66-.27c-.18-.18-.27-.4-.27-.66v-1.88h-1.88Z"/>
  <path class="cls-3" d="M86.74,64.77c0,.26-.09,.48-.27,.66-.18,.18-.4,.27-.66,.27s-.48-.09-.66-.27c-.18-.18-.27-.4-.27-.66v-5.63c0-.26,.09-.48,.27-.66,.18-.18,.4-.27,.66-.27s.48,.09,.66,.27c.18,.18,.27,.4,.27,.66v5.63Z"/>
  <path class="cls-3" d="M107.83,52.63h-.94c-.26,0-.48-.09-.66-.27-.18-.18-.27-.4-.27-.66s.09-.48,.27-.66c.18-.18,.4-.27,.66-.27h3.75c.26,0,.48,.09,.66,.27,.18,.18,.27,.4,.27,.66s-.09,.48-.27,.66c-.18,.18-.4,.27-.66,.27h-.94v4.69c0,.26-.09,.48-.27,.66-.18,.18-.4,.27-.66,.27s-.48-.09-.66-.27c-.18-.18-.27-.4-.27-.66v-4.69Z"/>
</svg>