<?xml version="1.0" encoding="UTF-8"?>
<svg id="Capa_1" data-name="Capa 1" xmlns="http://www.w3.org/2000/svg" viewBox="0 0 170.08 113.39">
  <defs>
    <style>
      .cls-1 {
        fill: #0056b4;
      }

      .cls-2 {
        fill: #969494;
      }

      .cls-3 {
        fill: #08226e;
      }
    </style>
  </defs>
  <g>
    <path class="cls-1" d="M52.69,98.02c.41,.84,1.03,1.19,1.57,1.19h.15v.2h-4.18v-.2h.16c.46,0,.99-.44,.72-1.22l-1.11-2.71h-5.15l-1.12,2.65c-.31,.81,.22,1.28,.7,1.28h.16v.2h-3.88v-.2h.16c.54,0,1.18-.35,1.59-1.17l4.21-9.02s.74-1.56,.78-2.1h.19l5.02,11.1Zm-2.94-3.35l-2.29-5.57-2.35,5.57h4.64Z"/>
    <path class="cls-3" d="M60.53,87.21c2.56,0,4.14,1.24,4.14,3.29,0,1.73-1.34,3.17-3.16,3.35,.44,.2,1.13,.98,1.57,1.59,0,0,.94,1.27,1.78,2.22,.83,.93,1.4,1.54,2.53,1.55v.2h-.64c-2.25,0-3.14-1.02-3.78-1.79-.23-.28-1.83-2.59-1.99-2.79-.55-.69-1.26-1.37-2.06-1.37v-.19s.5,0,1.17,0c1.12-.03,2.41-.04,2.99-1.75,.1-.29,.15-.71,.14-1.16-.04-1.52-1.07-2.42-2.71-2.5-1.14-.06-2.15,0-2.34-.02v10.27c.01,.61,.5,1.1,1.16,1.1h.28v.2s-4.16,0-4.16,0v-.2h.28c.64,0,1.13-.48,1.16-1.08v-9.66c-.02-.6-.51-1.06-1.16-1.06h-.27v-.2s5.09,0,5.09,0Z"/>
    <path class="cls-3" d="M75.75,87.18c.81,0,1.92-.18,2.27-.32v2.29h-.22v-.32c0-.57-.4-1.03-1.02-1.05h-3.68v10.33c.03,.6,.55,1.08,1.19,1.08h.24v.2s-4.19,0-4.19,0v-.2h.24c.65,0,1.18-.49,1.19-1.1v-10.31h-3.68c-.62,.01-1.02,.47-1.02,1.05v.31h-.22s0-2.29,0-2.29c.35,.14,1.46,.32,2.26,.32h6.62Z"/>
    <path class="cls-3" d="M87.69,99.41h-8.26v-.2h.28c.66,0,1.15-.48,1.17-1.08v-9.65c0-.61-.51-1.07-1.17-1.07h-.28v-.2s5.94,0,5.94,0c.82,0,1.92-.18,2.27-.32v2.3h-.22v-.32c0-.57-.4-1.03-1.02-1.05h-4.22v5.17h3.47c.56-.01,.82-.39,.82-.86v-.26h.22s0,2.85,0,2.85h-.22v-.26c0-.46-.25-.83-.78-.86h-3.52v5.17h3.18c1.95-.03,2.65-.98,3.23-2.3h.22l-1.12,2.92Z"/>
    <path class="cls-3" d="M101.28,98.02c.41,.84,1.03,1.19,1.57,1.19h.15v.2h-4.18v-.2h.16c.46,0,.99-.44,.72-1.22l-1.11-2.71h-5.15l-1.12,2.65c-.31,.81,.22,1.28,.7,1.28h.16v.2h-3.88v-.2h.16c.54,0,1.18-.35,1.59-1.17l4.21-9.02s.74-1.56,.78-2.1h.19l5.02,11.1Zm-2.94-3.35l-2.29-5.57-2.35,5.57h4.64Z"/>
    <path class="cls-3" d="M116.08,97.07c-.95,1.2-2.93,2.62-5.79,2.62-4.02-.02-6.67-2.44-6.67-6.39s2.66-6.39,6.67-6.39c1.87,0,3.38,.39,4.75,1.23l.45,2.87h-.18c-.59-2.38-2.19-3.49-5.04-3.49-3.11,0-5.18,2.2-5.18,5.78s2.08,5.78,5.2,5.78c1.69,0,3.2-.52,4.47-1.76l.03-2.7c0-.51-.35-.8-.95-.8h-.29v-.2h3.73v.2h-.28c-.59,0-.93,.29-.93,.81v2.45Z"/>
    <path class="cls-3" d="M129.55,98.02c.41,.84,1.03,1.19,1.57,1.19h.15v.2h-4.18v-.2h.16c.46,0,.99-.44,.72-1.22l-1.11-2.71h-5.15l-1.12,2.65c-.31,.81,.22,1.28,.7,1.28h.16v.2h-3.88v-.2h.16c.54,0,1.18-.35,1.59-1.17l4.21-9.02s.74-1.56,.78-2.1h.19l5.02,11.1Zm-2.94-3.35l-2.29-5.57-2.35,5.57h4.64Z"/>
  </g>
  <g>
    <path class="cls-2" d="M54.91,108.29c-.2,.1-.51,.17-.9,.17-1.24,0-2.12-.99-2.12-3.14,0-2.5,1.24-3.29,2.23-3.29,.38,0,.66,.08,.79,.16l-.16,.61c-.15-.07-.31-.13-.64-.13-.68,0-1.46,.66-1.46,2.59s.71,2.57,1.48,2.57c.27,0,.52-.07,.67-.14l.11,.61Z"/>
    <path class="cls-2" d="M55.93,106.2c0,1.39,.55,1.69,1.08,1.69,.31,0,.57-.07,.75-.18l.11,.53c-.25,.14-.64,.22-.99,.22-1.09,0-1.65-.89-1.65-2.28,0-1.47,.62-2.39,1.53-2.39s1.29,.98,1.29,2.01c0,.17,0,.29,0,.4h-2.11Zm1.43-.54c.02-.91-.33-1.31-.68-1.31-.47,0-.71,.69-.74,1.31h1.42Z"/>
    <path class="cls-2" d="M58.83,105.04c0-.53-.03-.81-.04-1.17h.63l.04,.54h.02c.2-.37,.56-.62,1.04-.62,.63,0,1.1,.47,1.1,1.57v3.05h-.72v-2.93c0-.53-.1-1.08-.63-1.08-.3,0-.59,.25-.68,.74-.02,.11-.03,.25-.03,.4v2.86h-.72v-3.37Z"/>
    <path class="cls-2" d="M63.45,102.8v1.06h.87v.55h-.87v2.69c0,.59,.22,.75,.48,.75,.11,0,.21,0,.29-.03l.03,.55c-.13,.05-.3,.08-.53,.08-.28,0-.53-.08-.71-.27-.18-.21-.27-.52-.27-1.14v-2.63h-.55v-.55h.55v-.77l.72-.29Z"/>
    <path class="cls-2" d="M64.95,105.04c0-.38-.03-.83-.04-1.17h.65l.04,.71h.02c.15-.43,.53-.79,.96-.79,.06,0,.1,0,.15,0v.74s-.09,0-.15,0c-.46,0-.8,.42-.87,.95-.02,.12-.03,.26-.03,.41v2.51h-.72v-3.37Z"/>
    <path class="cls-2" d="M69.94,106.13c0,1.75-.82,2.34-1.51,2.34-.82,0-1.47-.74-1.47-2.34s.74-2.35,1.52-2.35,1.46,.76,1.46,2.34Zm-2.26,0c0,.75,.13,1.77,.79,1.77,.62,0,.74-1.07,.74-1.77s-.12-1.76-.76-1.76-.77,1.07-.77,1.76Z"/>
    <path class="cls-2" d="M74.95,101.91v5.4c0,.31,.03,.83,.04,1.09h-.62l-.05-.57h-.03c-.15,.33-.47,.65-.95,.65-.77,0-1.32-.83-1.32-2.33,0-1.61,.67-2.36,1.37-2.36,.33,0,.65,.16,.83,.54h.02v-2.42h.71Zm-.71,3.68c0-.09,0-.2,0-.3-.05-.47-.33-.88-.68-.88-.6,0-.81,.83-.81,1.74,0,.96,.24,1.73,.77,1.73,.23,0,.53-.12,.69-.78,.02-.08,.03-.19,.03-.3v-1.21Z"/>
    <path class="cls-2" d="M76.47,106.2c0,1.39,.55,1.69,1.08,1.69,.31,0,.57-.07,.75-.18l.11,.53c-.25,.14-.64,.22-.99,.22-1.09,0-1.65-.89-1.65-2.28,0-1.47,.62-2.39,1.53-2.39s1.29,.98,1.29,2.01c0,.17,0,.29,0,.4h-2.11Zm1.43-.54c.02-.91-.33-1.31-.68-1.31-.47,0-.71,.69-.74,1.31h1.42Z"/>
    <path class="cls-2" d="M83.21,105.4h-1.59v2.37h1.8v.63h-2.52v-6.32h2.41v.63h-1.69v2.08h1.59v.61Z"/>
    <path class="cls-2" d="M86.05,107.94h-.03c-.15,.31-.46,.54-.87,.54-.73,0-1.31-.8-1.31-2.29,0-1.6,.68-2.4,1.43-2.4,.29,0,.63,.13,.84,.6h.02s.04-.53,.04-.53h.65c-.02,.32-.04,.72-.04,1.42v4.92h-.72v-2.27Zm0-2.37c0-.09,0-.22-.02-.3-.06-.48-.34-.85-.66-.85-.59,0-.82,.79-.82,1.74s.24,1.73,.8,1.73c.23,0,.51-.13,.66-.76,.04-.11,.04-.26,.04-.38v-1.17Z"/>
    <path class="cls-2" d="M90.5,107.17c0,.51,.03,.9,.04,1.24h-.63l-.05-.48h-.02c-.14,.23-.49,.55-.98,.55-.8,0-1.11-.62-1.11-1.74v-2.87h.72v2.77c0,.71,.11,1.24,.61,1.24,.42,0,.61-.39,.65-.6,.03-.12,.04-.26,.04-.41v-2.99h.72v3.3Z"/>
    <path class="cls-2" d="M92.29,102.69c0,.28-.17,.47-.44,.47-.23,0-.41-.19-.41-.47s.19-.47,.42-.47c.26,0,.43,.19,.43,.47Zm-.78,5.71v-4.54h.72v4.54h-.72Z"/>
    <path class="cls-2" d="M93.24,105.04c0-.53-.03-.81-.04-1.17h.63l.04,.54h.02c.2-.37,.56-.62,1.04-.62,.63,0,1.1,.47,1.1,1.57v3.05h-.72v-2.93c0-.53-.1-1.08-.63-1.08-.3,0-.59,.25-.68,.74-.02,.11-.03,.25-.03,.4v2.86h-.72v-3.37Z"/>
    <path class="cls-2" d="M99.82,106.13c0,1.75-.82,2.34-1.51,2.34-.82,0-1.47-.74-1.47-2.34s.74-2.35,1.52-2.35,1.46,.76,1.46,2.34Zm-2.26,0c0,.75,.13,1.77,.79,1.77,.62,0,.74-1.07,.74-1.77s-.12-1.76-.76-1.76-.77,1.07-.77,1.76Z"/>
    <path class="cls-2" d="M101.51,102.8v1.06h.87v.55h-.87v2.69c0,.59,.22,.75,.48,.75,.11,0,.21,0,.29-.03l.03,.55c-.13,.05-.3,.08-.53,.08-.28,0-.53-.08-.71-.27-.18-.21-.27-.52-.27-1.14v-2.63h-.55v-.55h.55v-.77l.72-.29Z"/>
    <path class="cls-2" d="M103.45,106.2c0,1.39,.55,1.69,1.08,1.69,.31,0,.57-.07,.75-.18l.11,.53c-.25,.14-.64,.22-.99,.22-1.09,0-1.65-.89-1.65-2.28,0-1.47,.62-2.39,1.53-2.39s1.29,.98,1.29,2.01c0,.17,0,.29,0,.4h-2.11Zm1.43-.54c.02-.91-.33-1.31-.68-1.31-.47,0-.71,.69-.74,1.31h1.42Z"/>
    <path class="cls-2" d="M106.34,105.04c0-.38-.03-.83-.04-1.17h.65l.04,.71h.02c.15-.43,.53-.79,.96-.79,.06,0,.1,0,.15,0v.74s-.09,0-.15,0c-.46,0-.8,.42-.87,.95-.02,.12-.03,.26-.03,.41v2.51h-.72v-3.37Z"/>
    <path class="cls-2" d="M111.02,107.37c0,.35,0,.74,.05,1.03h-.66l-.05-.48h-.03c-.2,.35-.52,.55-.9,.55-.61,0-1.08-.52-1.08-1.29,0-1.13,.91-1.64,1.93-1.65v-.14c0-.61-.15-1.03-.72-1.03-.28,0-.53,.09-.75,.23l-.16-.51c.19-.14,.61-.3,1.06-.3,.91,0,1.3,.6,1.3,1.62v1.96Zm-.71-1.31c-.38,0-1.25,.07-1.25,1.05,0,.59,.3,.81,.55,.81,.32,0,.59-.23,.68-.69,.02-.08,.02-.18,.02-.25v-.92Z"/>
    <path class="cls-2" d="M112.02,105.28c0-.69-.03-1.1-.04-1.42h.65l.04,.58h.02c.24-.49,.6-.66,.96-.66,.79,0,1.31,.84,1.31,2.34,0,1.68-.69,2.35-1.41,2.35-.42,0-.67-.27-.79-.52h-.02v2.25h-.72v-4.92Zm.72,1.45c0,.14,0,.27,.03,.38,.14,.65,.47,.77,.67,.77,.6,0,.79-.83,.79-1.74s-.23-1.73-.8-1.73c-.33,0-.62,.41-.67,.83-.02,.11-.02,.23-.02,.35v1.15Z"/>
    <path class="cls-2" d="M116.55,102.69c0,.28-.17,.47-.44,.47-.23,0-.41-.19-.41-.47s.19-.47,.42-.47c.26,0,.43,.19,.43,.47Zm-.78,5.71v-4.54h.72v4.54h-.72Z"/>
    <path class="cls-2" d="M119.9,107.37c0,.35,0,.74,.05,1.03h-.66l-.05-.48h-.03c-.2,.35-.52,.55-.9,.55-.61,0-1.08-.52-1.08-1.29,0-1.13,.91-1.64,1.93-1.65v-.14c0-.61-.15-1.03-.72-1.03-.28,0-.53,.09-.75,.23l-.16-.51c.19-.14,.61-.3,1.06-.3,.91,0,1.3,.6,1.3,1.62v1.96Zm-.71-1.31c-.38,0-1.25,.07-1.25,1.05,0,.59,.3,.81,.55,.81,.32,0,.59-.23,.68-.69,.02-.08,.02-.18,.02-.25v-.92Z"/>
  </g>
  <g>
    <g>
      <path class="cls-3" d="M91.53,19.97s3.02-12.79-11.18-16.79c0,0-.98,13.01,8.81,17.87,0,0-5.47-5.06-6.69-12.81,0,0,6.99-.57,9.06,11.73Z"/>
      <path class="cls-3" d="M95.77,23.17s6.23,9.54,2.94,18.66c0,0,8.15,16.84,5.46,19.45-2.69,2.61-2.12,5.39-7.34,5.88-5.22,.49-5.32-6.83-5.32-6.83,0,0-1.46,10.85,8.74,6.87,1.96-.77,2.86-3.62,4-4.25,2.26-1.25,1.95-2.8,1.83-4.27-.17-2.04-2.93-9.16-4.84-17.9-.62-2.82,.41-11.45-5.49-17.6Z"/>
      <path class="cls-3" d="M90.06,51.57s-.51-.11-1.38-.33c-.44-.11-.97-.25-1.57-.42-.3-.08-.62-.18-.95-.28-.33-.1-.69-.2-1.05-.33-.36-.12-.74-.24-1.13-.39-.39-.14-.79-.27-1.19-.44-.41-.16-.82-.32-1.23-.51-.41-.19-.84-.36-1.26-.58-.21-.1-.42-.21-.64-.31-.21-.11-.42-.23-.63-.34-.21-.12-.42-.24-.63-.35-.2-.13-.41-.26-.61-.39-.2-.13-.41-.26-.61-.4l-.58-.44c-.19-.15-.4-.28-.58-.45l-.54-.49-.27-.24-.07-.06h0s.02,0,0,0l-.02-.02-.03-.03-.13-.14-.27-.28c-.08-.09-.15-.18-.23-.27-.15-.17-.29-.36-.44-.55-.15-.18-.27-.39-.41-.58-.52-.79-.93-1.64-1.25-2.5-.32-.86-.56-1.73-.73-2.57-.17-.84-.29-1.66-.4-2.42-.2-1.52-.36-2.83-.66-3.72-.14-.45-.34-.77-.5-.96-.07-.1-.15-.16-.2-.2-.05-.04-.07-.06-.07-.06,0,0,.09,.1,.2,.31,.11,.21,.21,.54,.26,.98,.05,.44,.06,.98,.06,1.6,0,.62-.03,1.33-.02,2.11,0,.78,.03,1.64,.13,2.54,.1,.91,.26,1.87,.56,2.84,.3,.97,.7,1.96,1.28,2.88,.15,.23,.29,.46,.45,.68,.16,.22,.32,.44,.51,.66,.09,.11,.18,.22,.27,.32l.26,.28,.13,.14,.03,.04,.02,.02,.03,.03h0s.08,.08,.08,.08l.3,.28,.61,.54c.2,.18,.43,.33,.64,.49,.22,.16,.44,.32,.65,.47,.22,.15,.45,.28,.68,.42,.23,.14,.45,.28,.68,.4,.23,.12,.46,.23,.69,.35,.23,.11,.46,.23,.69,.34,.23,.1,.46,.19,.69,.29,.46,.2,.91,.36,1.37,.51,.45,.16,.9,.29,1.33,.41,.43,.13,.86,.24,1.27,.33,.41,.1,.81,.18,1.2,.25,.38,.08,.75,.14,1.11,.19,.35,.05,.69,.09,1,.13,.63,.08,1.18,.11,1.64,.13,.45,.03,.81,.02,1.06,.02,.24,0,.37,0,.37,0Z"/>
      <path class="cls-3" d="M90.36,65.01s0-.27-.05-.74c-.02-.23-.04-.52-.08-.84-.04-.32-.07-.69-.14-1.09-.06-.4-.12-.83-.21-1.28-.09-.45-.17-.93-.29-1.43-.12-.49-.23-1-.38-1.51-.08-.26-.16-.51-.24-.77-.08-.26-.15-.52-.27-.78-.11-.26-.22-.52-.33-.77l-.02-.05v-.02s-.01,0-.01,0c0-.02,.02,.03-.02-.04h0s-.05-.1-.05-.1l-.11-.17-.11-.17c-.04-.06-.09-.12-.14-.18l-.29-.35c-.1-.1-.2-.19-.3-.29-.19-.2-.41-.35-.61-.52-.41-.32-.83-.59-1.24-.82-.41-.24-.8-.43-1.17-.6-.74-.34-1.38-.56-1.83-.71-.45-.14-.72-.2-.72-.2,0,0,.23,.14,.64,.38,.2,.12,.44,.27,.72,.44,.28,.17,.58,.37,.92,.58,.33,.22,.68,.46,1.05,.72,.36,.26,.73,.56,1.09,.87,.17,.17,.36,.32,.51,.5l.24,.27,.2,.26s.07,.08,.1,.13l.1,.17,.1,.17,.05,.09h0s0,0-.01-.01h0s0,.03,0,.03l.02,.04c.1,.23,.19,.47,.29,.7,.11,.22,.18,.48,.27,.73,.08,.25,.17,.49,.25,.74,.15,.5,.3,.99,.45,1.46,.13,.48,.28,.94,.41,1.38,.13,.44,.25,.85,.37,1.24,.23,.77,.43,1.4,.58,1.85,.15,.45,.24,.7,.24,.7Z"/>
      <path class="cls-3" d="M77.72,22.09s3.02-12.79-11.18-16.79c0,0-.98,13.01,8.81,17.87,0,0-5.47-5.06-6.69-12.81,0,0,6.99-.57,9.06,11.73Z"/>
      <path class="cls-3" d="M67.77,10.47s.88,2.45-.06,2.69c-8.55,2.15-22.29,7.92-28.18,22.11-8.35,20.1-1.94,40.43-1.94,40.43,0,0-21.67-53.59,30.18-65.23Z"/>
      <path class="cls-1" d="M64.11,16.64s-15.52,7.12-20.33,25.91c-1.59,6.22-1.26,12.44-.76,17.94,1.17,12.81,5.39,22.16,5.39,22.16,0,0-27.52-46.37,15.71-66.01Z"/>
      <path class="cls-3" d="M84.92,35.3s6.72,2.72,5.44,4.43c-1.28,1.71-2.78,.06-3.3-1.53-.39-1.19-3.25-2.5-2.14-2.9Z"/>
      <path class="cls-3" d="M101.5,61.52s.41-4.19-2.53-3.4l.24,1.05s1.47-.88,2.29,2.35Z"/>
      <path class="cls-3" d="M78.36,11.45s8.83-3.06,11.87,7.59c3.54,12.42-4.92,16.44-3.07,24.48,0,0-2.28-2.23-1.2-10.2,1.09-7.97,2.96-16.76-7.6-21.87Z"/>
      <path class="cls-3" d="M72.25,9.47s9.22-3.17,12.72,5.26c4.16,10.03-4.13,13.81-2.58,20.57,0,0-1.92-1.87-1.01-8.57,.91-6.7,.01-14.52-9.13-17.26Z"/>
      <path class="cls-3" d="M62.3,21.08s-.13,.05-.37,.16c-.24,.11-.61,.29-1.06,.54-.45,.26-1.01,.59-1.64,1.02-.63,.43-1.34,.94-2.08,1.58-1.49,1.27-3.2,2.97-4.81,5.22-1.62,2.23-3.12,5.01-4.27,8.23-.58,1.61-1.06,3.33-1.42,5.13l-.07,.34-.07,.34-.06,.33-.06,.36c-.08,.48-.15,.94-.2,1.42-.11,.95-.19,1.92-.23,2.91-.09,1.97-.02,4,.22,6.06,.24,2.06,.64,4.16,1.25,6.24,1.2,4.17,3.25,8.32,6.26,11.87,1.5,1.77,3.23,3.38,5.15,4.76,1.92,1.37,4,2.51,6.18,3.41,4.35,1.79,9.04,2.55,13.51,2.71,2.25,.08,4.49,.05,6.69-.14,2.2-.18,4.36-.5,6.45-.92,2.09-.43,4.11-.95,6.06-1.53,1.95-.58,3.82-1.21,5.62-1.83,1.8-.63,3.54-1.25,5.22-1.82,1.68-.58,3.3-1.1,4.87-1.54,1.57-.45,3.08-.83,4.54-1.12,1.45-.3,2.85-.52,4.16-.67,2.64-.3,4.97-.34,6.89-.27,1.92,.08,3.43,.22,4.46,.35,.52,.06,.91,.12,1.18,.15,.27,.04,.4,.05,.4,.05,0,0-.13-.04-.39-.11-.26-.07-.64-.19-1.15-.32-1.01-.26-2.5-.63-4.43-.91-.97-.14-2.04-.28-3.22-.37-1.18-.09-2.46-.13-3.84-.11-1.37,.02-2.83,.13-4.37,.3-1.53,.18-3.13,.45-4.79,.79-1.65,.35-3.35,.77-5.1,1.24-1.74,.48-3.52,1-5.34,1.52-1.82,.53-3.68,1.06-5.58,1.53-1.9,.48-3.85,.91-5.84,1.24-3.97,.68-8.12,.94-12.32,.71-.26-.01-.52-.03-.78-.05-.26-.02-.51-.03-.79-.06l-.82-.07-.77-.08c-1.04-.12-2.08-.27-3.1-.47-2.05-.39-4.06-1-5.99-1.76-3.84-1.56-7.29-3.96-9.97-7.03-1.34-1.53-2.51-3.2-3.48-4.96-.97-1.76-1.76-3.61-2.38-5.48-.62-1.88-1.07-3.78-1.38-5.67-.3-1.89-.46-3.77-.49-5.6-.01-.92,0-1.82,.07-2.71,.03-.44,.06-.89,.1-1.31l.03-.32,.04-.34,.04-.32,.05-.32c.23-1.72,.59-3.36,1.02-4.91,.86-3.1,2.06-5.84,3.41-8.1,1.35-2.26,2.8-4.09,4.12-5.47,1.33-1.38,2.5-2.35,3.33-2.96,.83-.61,1.32-.88,1.32-.88Z"/>
    </g>
    <path class="cls-3" d="M121.5,70.79c.13,.37,.32,.74,.4,1.14,.12,.58,.36,.92,.95,.97,.2,.02,.49-.1,.62-.26,.56-.67,.91-2.17,.11-3.02-.13-.14-.11-.44-.13-.66-.06-.88,.17-1.78-.27-2.63-.22-.43-.44-.71-.98-.73-.62-.01-1.1-.26-1.54-.79-.37-.43-.33-.67-.17-1.11,.11-.31-.05-.72,.02-1.06,.1-.51,.3-1.01,.49-1.6,.61,.69,1.15,1.27,1.66,1.88,.13,.15,.3,.4,.26,.55-.18,.67,.34,.96,.69,1.29,.38,.35,.67,.8,1.25,.97,.2,.06,.33,.33,.67,.19,.18-.07,.58,.08,.61,.01,.15-.35,.46-.09,.64-.23,.21-.16,.43-.32,.58-.54,.16-.24,.24-.54,.37-.8,.02-.04,.11-.04,.26-.07,0-.05,.06-.2,.07-.35,.08-1.05,.35-2.07,.2-3.14-.14-.96-.26-1.92-.34-2.88-.09-1.17-.06-2.36-.19-3.52-.13-1.12-.37-2.24-.61-3.34-.05-.24-.28-.45-.45-.64-.45-.5-.38-.83,.24-.98,.08-.02,.19,.07,.28,.12,.23,.11,.45,.28,.69,.32,.29,.04,.61,0,.9-.06,.34-.07,.47-.56,.21-.95-.75-1.1-.77-2.37-.98-3.61-.13-.79-.34-1.58-.39-2.38-.07-1.06-.16-2.12,.17-3.17,.1-.31,.08-.66,.11-1,.04-.39,.11-.7,.38-1.07,.38-.52,.93-.82,1.32-1.3,.03-.04,.11-.08,.16-.07,.33,.01,.39-.2,.35-.45-.08-.47-.13-.96-.3-1.4-.17-.45-.09-.74,.2-1.11,.33-.42,.6-.93,.78-1.44,.35-.99,1.22-1.6,1.73-2.45,.3-.5,.73-.82,1.14-1.2,.33-.32,.54-.76,.84-1.13,.33-.41,.73-.77,1.01-1.21,.37-.56,.66-1.17,.97-1.77,.15-.28,.26-.58,.39-.87,.17-.41,.06-.88-.25-1.02-.35-.16-.83-.43-1.24-.07-.13,.11-.17,.31-.26,.5-.03-.13-.06-.22-.08-.31-.69,.55-.82,1.27-.77,2.09,.06,.9-.63,1.38-1.22,1.91-.75,.68-1.6,1.26-2.12,2.16-.1,.17-.26,.29-.39,.44-.59,.67-1.16,1.37-1.78,2.02-.44,.45-.52,1.16-1.23,1.45-.33,.13-.48,.69-.73,1.05-.16,.24-.34,.46-.51,.69l-.21-.14c.13-.25,.26-.5,.39-.74-.19-.34-.39-.68-.5-.87,.24-.23,.39-.37,.54-.52-.02-.03-.04-.07-.07-.1-.09,.05-.17,.1-.27,.15-.32-.48-.3-.91,.09-1.36,.34-.39,.06-.94-.5-1.25-.26-.14-.51-.4-.62-.67-.22-.51-.63-.73-1.18-.51-.31,.13-.61,.27-.93,.38-.35,.12-.61-.02-.81-.32-.08-.13-.22-.21-.44-.26,.03,.12,.05,.24,.08,.36-.03,.03-.06,.05-.09,.08-.1-.09-.2-.18-.3-.27-.11-.09-.21-.18-.32-.27,.03,.13,.06,.26,.08,.39,.02,.1,.03,.21,.05,.4-.25-.03-.47-.05-.67-.07-.01,.06-.02,.13-.04,.2-.09-.07-.18-.14-.28-.22-.06,.16-.12,.35-.2,.56-.2-.11-.42-.23-.73-.41,.09,.34,.14,.54,.2,.75-.03,.01-.06,.02-.09,.03-.05-.08-.09-.16-.12-.21-.27,.26-.53,.51-.85,.81-.15-.32-.24-.53-.34-.75-.04,.67-.44,1.09-.94,1.42,.16,0,.42-.06,.46,.01,.08,.13,.02,.34,.03,.52,.03,.44-.17,.78-.4,1.14-.13,.2-.09,.58,0,.83,.22,.58,.15,1.17,.22,1.75,.07,.59,.44,1.14,.72,1.82-.3,.04-.69,.19-1.02,.12-.39-.09-.37,.81-.84,.27-.12,.27-.24,.54-.37,.82-.37-.1-.7-.18-1.05-.27,.08-.03,.16-.06,.23-.09-.31-.03-.64-.2-.98,.03-.52,.06-1.12,.12-1.71,.19-.83,.11-1.65,.33-2.47,.31-1-.03-1.96,.19-2.95,.24-.75,.04-1.5-.06-2.25-.14-.12-.01-.23-.26-.33-.41-.24-.34-.52-.34-.8,0-.02,.03-.15-.05-.24-.06-.24-.03-.53-.13-.71-.04-.12,.06-.47,.33-.14,.66,.11,.11,.07,.37,.15,.53,.06,.13,.2,.29,.32,.31,.77,.14,1.54,.27,2.32,.36,1.37,.16,2.73,.3,4.1,.42,.44,.04,.89-.05,1.34-.06,.3,0,.6,.05,.89,.07,.08,.59,.16,.4,.7,.62,.53,.23,1.32-.04,1.64,.7,.03,.06,.26,.07,.39,.05,.31-.06,.52-.05,.63,.33,.05,.17,.26,.35,.44,.42,.68,.28,.6,.9,.68,1.44,.17,1.12,.03,2.29,.66,3.34,.37,.62,.59,1.33,.83,2.02,.07,.19,.03,.53-.1,.66-.55,.53-.47,1.25-.7,1.89,.48-.07,.78,.08,.71,.57-.1,.67-.23,1.33-.4,1.98-.28,1.04-.65,2.06-.92,3.11-.31,1.21-.56,2.43-.84,3.64-.25,1.09-.42,2.19-.2,3.32,.06,.33,.08,.67,.07,1-.05,.98,.7,1.54,1.13,2.27,.32,.54,.41,1.21,.67,1.79,.3,.67,.25,1.55,1.17,1.89,.27,.1,.44,.47,.68,.69,.67,.62,1.56,.51,2.05-.23,.15-.23,.3-.47,.49-.76Z"/>
    <path class="cls-3" d="M121.93,26.25c.11,0,.88,0,.94,0,.51,.15,1.04,.26,1.53,.46,1.25,.5,2.05,1.44,2.45,2.72,.2,.65,.23,1.32,.21,1.99,0,.18,0,.37-.02,.55-.05,.45-.3,.8-.6,1.11-.26,.27-.49,.58-.8,.77-.74,.45-1.53,.82-2.28,1.26-.53,.31-1.03,.68-1.53,1.03-.06,.04-.08,.14-.13,.23-.28,.09-.59,.19-.9,.29-.22,.07-.44,.1-.66-.02-.28-.15-.57-.27-.85-.42-.05-.03-.1-.12-.09-.18,.02-.19,.04-.39,.1-.57,.1-.29,.08-.56,0-.84-.03-.1-.06-.2-.07-.29-.05-.8-.37-1.51-.63-2.19-1.03-.1-2.02-.2-3.01-.31-.08,0-.15-.08-.22-.13,.07-.06,.12-.14,.2-.17,.24-.08,.49-.13,.73-.21,.33-.11,.58-.3,.63-.68,.09-.6,.24-1.18,.51-1.74,.33-.71,.71-1.43,1.41-1.76,1.62-.76,3.09-.92,3.09-.92Z"/>
  </g>
</svg>