<?xml version="1.0" encoding="UTF-8"?>
<svg id="Capa_1" data-name="Capa 1" xmlns="http://www.w3.org/2000/svg" viewBox="0 0 170.08 113.39">
  <defs>
    <style>
      .cls-1 {
        stroke: #0082be;
      }

      .cls-1, .cls-2 {
        stroke-miterlimit: 10;
        stroke-width: .15px;
      }

      .cls-1, .cls-3 {
        fill: #0082be;
      }

      .cls-2 {
        stroke: #8dba38;
      }

      .cls-2, .cls-4 {
        fill: #8dba38;
      }

      .cls-5 {
        fill: #fff;
      }
    </style>
  </defs>
  <g>
    <path class="cls-2" d="M23.25,106.67c-.02,.09-.04,.18-.05,.26-.33,.17-.75,.25-1.26,.25-.36,0-.68-.05-.96-.15-.28-.1-.52-.24-.71-.43-.2-.18-.34-.4-.45-.65s-.15-.52-.15-.81c0-.43,.07-.79,.2-1.09,.13-.3,.31-.54,.54-.73,.22-.19,.48-.32,.78-.41s.61-.13,.93-.13c.11,0,.22,0,.34,.02,.12,.02,.23,.04,.35,.06,.11,.03,.22,.06,.32,.1,.1,.04,.19,.08,.26,.12-.04,.1-.07,.21-.1,.31-.02,.1-.04,.21-.05,.32h-.09c-.16-.2-.32-.34-.48-.42-.16-.08-.36-.13-.58-.13-.16,0-.33,.04-.5,.11-.17,.07-.32,.19-.45,.34-.14,.15-.25,.35-.33,.58s-.13,.52-.13,.85,.04,.59,.13,.81,.2,.41,.34,.55c.14,.14,.29,.25,.47,.31,.18,.07,.35,.1,.53,.1,.1,0,.2-.01,.3-.03s.2-.05,.3-.09,.19-.09,.28-.14,.16-.12,.23-.19l.08,.05c-.03,.09-.06,.17-.09,.26Z"/>
    <path class="cls-1" d="M24.76,104.54c.24-.29,.59-.43,1.05-.43,.22,0,.41,.03,.56,.1,.16,.07,.29,.16,.4,.27,.11,.11,.19,.25,.24,.4s.08,.31,.08,.49c0,.04,0,.08,0,.12s0,.08,0,.12c-.22,0-.44,0-.66-.01-.22,0-.44,0-.66,0-.14,0-.27,0-.4,0-.13,0-.27,0-.4,.01,0,.02,0,.05,0,.09v.08c0,.16,.02,.31,.07,.45,.05,.14,.12,.26,.21,.36,.09,.1,.2,.18,.33,.24,.13,.06,.28,.09,.46,.09,.08,0,.17-.01,.25-.03,.09-.02,.17-.05,.25-.09,.08-.04,.16-.09,.23-.14,.07-.05,.13-.11,.19-.17l.03,.02-.04,.3c-.12,.1-.28,.18-.46,.25s-.37,.1-.57,.1c-.22,0-.42-.03-.61-.1s-.34-.17-.47-.3-.24-.28-.31-.46-.11-.37-.11-.57c0-.51,.12-.9,.36-1.19Zm.68-.13c-.1,.07-.19,.16-.26,.26s-.12,.22-.15,.34c-.03,.13-.06,.24-.06,.35,.13,0,.26,0,.4,.01,.14,0,.27,0,.4,0s.27,0,.41,0c.14,0,.27,0,.41-.01,0-.11,0-.23-.03-.35-.02-.12-.05-.24-.11-.34s-.13-.2-.23-.27c-.1-.07-.23-.1-.39-.1-.15,0-.28,.04-.39,.1Z"/>
    <path class="cls-1" d="M30.18,104.67c-.12-.16-.28-.24-.49-.24-.29,0-.5,.09-.63,.27s-.2,.43-.2,.75v.52c0,.18,0,.38,0,.58,0,.2,.02,.39,.04,.55-.09,0-.19-.01-.28-.01s-.18,0-.28,.01c.02-.16,.03-.35,.04-.55,0-.2,0-.4,0-.58v-.64c0-.18,0-.38,0-.58,0-.2-.02-.39-.04-.57,.11,.02,.21,.03,.28,.03,.03,0,.07,0,.11,0,.04,0,.08-.01,.14-.02-.01,.16-.02,.33-.02,.49h.01c.11-.18,.25-.31,.41-.41,.16-.1,.35-.14,.57-.14,.11,0,.23,.02,.35,.05,.12,.03,.22,.09,.32,.17,.09,.08,.17,.19,.23,.33,.06,.14,.09,.31,.09,.53,0,.18,0,.36-.01,.55s-.01,.39-.01,.59v.4c0,.07,0,.13,0,.19,0,.06,0,.12,0,.18-.08,0-.17-.01-.26-.01s-.17,0-.26,.01c0-.21,.02-.43,.03-.66s.02-.46,.02-.7v-.38c0-.31-.06-.54-.18-.7Z"/>
    <path class="cls-1" d="M32.95,103.35c-.01,.16-.02,.31-.03,.46,0,.15-.01,.3-.02,.45,.05,0,.13,0,.25,0,.12,0,.26,0,.4-.02,0,.01,0,.04,0,.07v.13s0,.05,0,.06c-.05,0-.11,0-.17,0s-.12,0-.18,0h-.3s0,.08-.02,.2-.01,.25-.02,.41c0,.16,0,.32,0,.5,0,.17,0,.33,0,.46,0,.11,0,.23,0,.34,0,.11,.03,.21,.06,.3,.03,.09,.08,.16,.15,.21,.07,.05,.16,.08,.28,.08,.03,0,.08,0,.13-.01,.05,0,.1-.02,.14-.03v.15c-.07,.01-.15,.03-.23,.05s-.17,.03-.24,.03c-.26,0-.45-.06-.57-.19-.12-.13-.19-.31-.19-.56,0-.11,0-.23,0-.36,0-.13,0-.27,.02-.43s.01-.32,.02-.51c0-.19,0-.4,0-.63h-.2s-.07,0-.1,0c-.04,0-.08,0-.12,0,0-.02,0-.05,0-.07,0-.02,0-.05,0-.07,0-.02,0-.04,0-.06,0-.02,0-.04,0-.06,.19,.01,.32,.02,.41,.02,0-.08,0-.18,0-.31,0-.12,0-.25-.02-.38l.51-.22h.03Z"/>
    <path class="cls-1" d="M36.01,104.61c-.06-.02-.12-.03-.18-.03-.1,0-.19,.02-.27,.07-.08,.05-.14,.11-.2,.18s-.09,.17-.12,.27c-.03,.1-.04,.22-.04,.34v.68c0,.27,0,.49,0,.63,0,.15,0,.26,.02,.35-.08,0-.16-.01-.25-.01-.09,0-.18,0-.26,.01,.01-.14,.02-.33,.02-.57,0-.24,0-.53,0-.88v-.2c0-.16,0-.34,0-.55,0-.21,0-.45-.02-.72,.04,0,.09,.02,.13,.02,.04,0,.08,0,.13,0,.04,0,.08,0,.12,0,.04,0,.08-.01,.13-.02-.02,.15-.03,.27-.03,.35,0,.09,0,.17,0,.25h.01c.24-.44,.51-.66,.81-.66,.04,0,.07,0,.1,0,.03,0,.06,.01,.1,.03-.02,.05-.03,.12-.04,.22s0,.19,0,.27l-.04,.03s-.06-.05-.12-.07Z"/>
    <path class="cls-1" d="M37.26,104.93c.09-.2,.2-.35,.35-.47,.14-.12,.3-.21,.48-.27,.18-.06,.36-.08,.53-.08s.36,.03,.54,.08c.18,.06,.34,.14,.48,.27,.14,.12,.26,.28,.35,.47s.13,.43,.13,.71-.04,.52-.13,.71-.2,.35-.35,.47c-.14,.12-.3,.21-.48,.26s-.36,.07-.54,.07-.35-.02-.53-.07c-.18-.05-.34-.13-.48-.26-.14-.12-.26-.28-.35-.47s-.13-.43-.13-.71,.04-.52,.13-.71Zm.46,1.21c.03,.16,.08,.3,.16,.43,.07,.13,.17,.22,.3,.3,.12,.07,.28,.11,.46,.11s.33-.04,.46-.11c.12-.07,.22-.17,.3-.3,.07-.13,.13-.27,.16-.43,.03-.16,.05-.33,.05-.5s-.02-.34-.05-.5c-.03-.16-.08-.3-.16-.43-.07-.13-.17-.22-.3-.3-.12-.07-.28-.11-.46-.11s-.33,.04-.46,.11c-.12,.07-.22,.17-.3,.3-.07,.13-.13,.27-.16,.43-.03,.16-.05,.33-.05,.5s.02,.34,.05,.5Z"/>
    <path class="cls-1" d="M45.84,106.51c-.03,.07-.08,.14-.13,.21-.06,.08-.13,.15-.21,.21-.08,.07-.18,.12-.3,.16-.11,.04-.25,.06-.4,.06s-.31-.03-.46-.08c-.15-.05-.28-.14-.4-.26-.12-.12-.21-.28-.28-.47-.07-.19-.11-.42-.11-.69s.04-.49,.12-.68,.18-.35,.31-.48c.13-.13,.27-.23,.42-.29,.16-.06,.32-.1,.48-.1,.46,0,.77,.21,.95,.62h.01v-.6c0-.16,0-.31,0-.47,0-.16,0-.31,0-.45,0-.14,0-.28,0-.41s0-.24,0-.34c.05,0,.1,.02,.14,.02,.05,0,.09,0,.14,0s.09,0,.13,0,.09-.01,.14-.02c-.01,.13-.02,.32-.03,.57,0,.25-.02,.52-.02,.82,0,.3-.01,.61-.02,.92,0,.32,0,.61,0,.87,0,.28,0,.54,0,.76,0,.23,0,.46,.01,.7-.08,0-.16-.01-.24-.01-.07,0-.15,0-.23,.01l.02-.59h-.01Zm-1.67-.2c.05,.16,.12,.29,.2,.39,.08,.1,.17,.16,.27,.2,.1,.04,.2,.06,.3,.06,.16,0,.3-.04,.41-.12s.21-.18,.29-.31c.08-.13,.13-.28,.17-.44,.03-.16,.05-.33,.05-.49,0-.39-.08-.69-.23-.9-.15-.21-.38-.31-.67-.31-.15,0-.28,.03-.39,.1s-.2,.16-.27,.28c-.07,.12-.13,.26-.16,.43-.04,.16-.05,.34-.05,.52,0,.25,.02,.45,.08,.61Z"/>
    <path class="cls-1" d="M47.9,104.54c.24-.29,.59-.43,1.05-.43,.22,0,.41,.03,.56,.1,.16,.07,.29,.16,.4,.27,.11,.11,.19,.25,.24,.4s.08,.31,.08,.49c0,.04,0,.08,0,.12s0,.08,0,.12c-.22,0-.44,0-.66-.01-.22,0-.44,0-.66,0-.14,0-.27,0-.4,0-.13,0-.27,0-.4,.01,0,.02,0,.05,0,.09v.08c0,.16,.02,.31,.07,.45,.05,.14,.12,.26,.21,.36,.09,.1,.2,.18,.33,.24,.13,.06,.28,.09,.46,.09,.08,0,.17-.01,.25-.03,.09-.02,.17-.05,.25-.09,.08-.04,.16-.09,.23-.14,.07-.05,.13-.11,.19-.17l.03,.02-.04,.3c-.12,.1-.28,.18-.46,.25s-.37,.1-.57,.1c-.22,0-.42-.03-.61-.1s-.34-.17-.47-.3-.24-.28-.31-.46-.11-.37-.11-.57c0-.51,.12-.9,.36-1.19Zm.68-.13c-.1,.07-.19,.16-.26,.26s-.12,.22-.15,.34c-.03,.13-.06,.24-.06,.35,.13,0,.26,0,.4,.01,.14,0,.27,0,.4,0s.27,0,.41,0c.14,0,.27,0,.41-.01,0-.11,0-.23-.03-.35-.02-.12-.05-.24-.11-.34s-.13-.2-.23-.27c-.1-.07-.23-.1-.39-.1-.15,0-.28,.04-.39,.1Z"/>
    <path class="cls-2" d="M57.37,107.1c-.1,0-.19-.01-.28-.01h-.52c-.09,0-.18,0-.26,.01-.07-.2-.13-.41-.2-.62-.07-.21-.14-.42-.22-.63-.13,0-.26,0-.39,0s-.26,0-.39,0c-.11,0-.21,0-.32,0-.11,0-.21,0-.32,0-.08,.21-.16,.42-.23,.63-.07,.21-.13,.42-.19,.62-.05,0-.1-.01-.14-.01h-.29s-.1,0-.16,.01c.05-.11,.11-.25,.2-.44,.08-.19,.17-.4,.27-.64s.2-.49,.32-.77c.11-.27,.23-.55,.34-.83s.22-.55,.33-.83,.21-.52,.3-.76c.04,0,.08,.02,.12,.02,.04,0,.08,0,.12,0s.08,0,.12,0c.04,0,.08-.01,.12-.02,.13,.35,.27,.72,.42,1.12,.15,.4,.3,.79,.45,1.17,.15,.38,.3,.75,.44,1.09s.28,.64,.39,.88Zm-2.18-3.07c-.11,.25-.21,.49-.3,.73-.09,.24-.19,.49-.28,.74h1.13c-.09-.25-.18-.5-.27-.74-.09-.24-.18-.48-.28-.73Z"/>
    <path class="cls-1" d="M59.11,103.35c-.01,.16-.02,.31-.03,.46,0,.15-.01,.3-.02,.45,.05,0,.13,0,.25,0,.12,0,.26,0,.4-.02,0,.01,0,.04,0,.07v.13s0,.05,0,.06c-.05,0-.11,0-.17,0s-.12,0-.18,0h-.3s0,.08-.02,.2-.01,.25-.02,.41c0,.16,0,.32,0,.5,0,.17,0,.33,0,.46,0,.11,0,.23,0,.34,0,.11,.03,.21,.06,.3,.03,.09,.08,.16,.15,.21,.07,.05,.16,.08,.28,.08,.03,0,.08,0,.13-.01,.05,0,.1-.02,.14-.03v.15c-.07,.01-.15,.03-.23,.05s-.17,.03-.24,.03c-.26,0-.45-.06-.57-.19-.12-.13-.19-.31-.19-.56,0-.11,0-.23,0-.36,0-.13,0-.27,.02-.43s.01-.32,.02-.51c0-.19,0-.4,0-.63h-.2s-.07,0-.1,0c-.04,0-.08,0-.12,0,0-.02,0-.05,0-.07,0-.02,0-.05,0-.07,0-.02,0-.04,0-.06,0-.02,0-.04,0-.06,.19,.01,.32,.02,.41,.02,0-.08,0-.18,0-.31,0-.12,0-.25-.02-.38l.51-.22h.03Z"/>
    <path class="cls-1" d="M60.98,104.54c.24-.29,.59-.43,1.05-.43,.22,0,.41,.03,.56,.1,.16,.07,.29,.16,.4,.27,.11,.11,.19,.25,.24,.4s.08,.31,.08,.49c0,.04,0,.08,0,.12s0,.08,0,.12c-.22,0-.44,0-.66-.01-.22,0-.44,0-.66,0-.14,0-.27,0-.4,0-.13,0-.27,0-.4,.01,0,.02,0,.05,0,.09v.08c0,.16,.02,.31,.07,.45,.05,.14,.12,.26,.21,.36,.09,.1,.2,.18,.33,.24,.13,.06,.28,.09,.46,.09,.08,0,.17-.01,.25-.03,.09-.02,.17-.05,.25-.09,.08-.04,.16-.09,.23-.14,.07-.05,.13-.11,.19-.17l.03,.02-.04,.3c-.12,.1-.28,.18-.46,.25s-.37,.1-.57,.1c-.22,0-.42-.03-.61-.1s-.34-.17-.47-.3-.24-.28-.31-.46-.11-.37-.11-.57c0-.51,.12-.9,.36-1.19Zm.68-.13c-.1,.07-.19,.16-.26,.26s-.12,.22-.15,.34c-.03,.13-.06,.24-.06,.35,.13,0,.26,0,.4,.01,.14,0,.27,0,.4,0s.27,0,.41,0c.14,0,.27,0,.41-.01,0-.11,0-.23-.03-.35-.02-.12-.05-.24-.11-.34s-.13-.2-.23-.27c-.1-.07-.23-.1-.39-.1-.15,0-.28,.04-.39,.1Z"/>
    <path class="cls-1" d="M66.4,104.67c-.12-.16-.28-.24-.49-.24-.29,0-.5,.09-.63,.27s-.2,.43-.2,.75v.52c0,.18,0,.38,0,.58,0,.2,.02,.39,.04,.55-.09,0-.19-.01-.28-.01s-.18,0-.28,.01c.02-.16,.03-.35,.04-.55,0-.2,0-.4,0-.58v-.64c0-.18,0-.38,0-.58,0-.2-.02-.39-.04-.57,.11,.02,.21,.03,.28,.03,.03,0,.07,0,.11,0,.04,0,.08-.01,.14-.02-.01,.16-.02,.33-.02,.49h.01c.11-.18,.25-.31,.41-.41,.16-.1,.35-.14,.57-.14,.11,0,.23,.02,.35,.05,.12,.03,.22,.09,.32,.17,.09,.08,.17,.19,.23,.33,.06,.14,.09,.31,.09,.53,0,.18,0,.36-.01,.55s-.01,.39-.01,.59v.4c0,.07,0,.13,0,.19,0,.06,0,.12,0,.18-.08,0-.17-.01-.26-.01s-.17,0-.26,.01c0-.21,.02-.43,.03-.66s.02-.46,.02-.7v-.38c0-.31-.06-.54-.18-.7Z"/>
    <path class="cls-1" d="M68.54,104.96c.09-.19,.21-.35,.35-.48,.14-.13,.31-.22,.5-.28s.38-.09,.58-.09c.23,0,.43,.03,.61,.08,.18,.06,.31,.12,.39,.19-.03,.06-.05,.13-.08,.19-.02,.07-.04,.14-.06,.21h-.05c-.03-.05-.07-.11-.12-.16-.05-.06-.11-.11-.18-.15s-.14-.09-.23-.12c-.08-.03-.17-.05-.27-.05-.19,0-.34,.03-.48,.1-.13,.07-.24,.16-.33,.28s-.15,.26-.18,.42c-.04,.16-.06,.34-.06,.53,0,.42,.09,.74,.27,.96,.18,.22,.45,.32,.79,.32,.08,0,.17-.01,.25-.03,.09-.02,.17-.05,.25-.09s.16-.09,.23-.14c.07-.05,.13-.11,.19-.17l.03,.02c-.02,.1-.03,.2-.04,.3-.12,.1-.28,.18-.46,.25s-.37,.1-.57,.1c-.18,0-.35-.03-.53-.08-.18-.05-.34-.14-.48-.26-.14-.12-.26-.28-.35-.47s-.13-.43-.13-.71,.04-.5,.14-.69Z"/>
    <path class="cls-1" d="M72.47,102.88c.06-.06,.14-.09,.22-.09s.16,.03,.22,.09c.06,.06,.09,.14,.09,.22s-.03,.16-.09,.22-.14,.09-.22,.09-.16-.03-.22-.09-.09-.14-.09-.22,.03-.16,.09-.22Zm-.02,1.86c0-.2-.02-.39-.04-.57,.11,.02,.21,.03,.28,.03s.16-.01,.28-.03c-.02,.18-.03,.37-.04,.57s0,.4,0,.58v.64c0,.18,0,.38,0,.58s.02,.39,.04,.55c-.09,0-.19-.01-.28-.01s-.18,0-.28,.01c.02-.16,.03-.35,.04-.55s0-.4,0-.58v-.64c0-.18,0-.38,0-.58Z"/>
    <path class="cls-1" d="M74.52,104.93c.09-.2,.2-.35,.35-.47,.14-.12,.3-.21,.48-.27,.18-.06,.36-.08,.53-.08s.36,.03,.54,.08c.18,.06,.34,.14,.48,.27,.14,.12,.26,.28,.35,.47s.13,.43,.13,.71-.04,.52-.13,.71-.2,.35-.35,.47c-.14,.12-.3,.21-.48,.26s-.36,.07-.54,.07-.35-.02-.53-.07c-.18-.05-.34-.13-.48-.26-.14-.12-.26-.28-.35-.47s-.13-.43-.13-.71,.04-.52,.13-.71Zm.46,1.21c.03,.16,.08,.3,.16,.43,.07,.13,.17,.22,.3,.3,.12,.07,.28,.11,.46,.11s.33-.04,.46-.11c.12-.07,.22-.17,.3-.3,.07-.13,.13-.27,.16-.43,.03-.16,.05-.33,.05-.5s-.02-.34-.05-.5c-.03-.16-.08-.3-.16-.43-.07-.13-.17-.22-.3-.3-.12-.07-.28-.11-.46-.11s-.33,.04-.46,.11c-.12,.07-.22,.17-.3,.3-.07,.13-.13,.27-.16,.43-.03,.16-.05,.33-.05,.5s.02,.34,.05,.5Zm1.67-3.57s.08,.02,.13,.05,.07,.08,.07,.15c0,.07-.02,.13-.07,.18-.05,.04-.1,.08-.15,.11l-.91,.58h-.26l.91-.92c.1-.1,.19-.15,.28-.15Z"/>
    <path class="cls-1" d="M80.51,104.67c-.12-.16-.28-.24-.49-.24-.29,0-.5,.09-.63,.27s-.2,.43-.2,.75v.52c0,.18,0,.38,0,.58,0,.2,.02,.39,.04,.55-.09,0-.19-.01-.28-.01s-.18,0-.28,.01c.02-.16,.03-.35,.04-.55,0-.2,0-.4,0-.58v-.64c0-.18,0-.38,0-.58,0-.2-.02-.39-.04-.57,.11,.02,.21,.03,.28,.03,.03,0,.07,0,.11,0,.04,0,.08-.01,.14-.02-.01,.16-.02,.33-.02,.49h.01c.11-.18,.25-.31,.41-.41,.16-.1,.35-.14,.57-.14,.11,0,.23,.02,.35,.05,.12,.03,.22,.09,.32,.17,.09,.08,.17,.19,.23,.33,.06,.14,.09,.31,.09,.53,0,.18,0,.36-.01,.55s-.01,.39-.01,.59v.4c0,.07,0,.13,0,.19,0,.06,0,.12,0,.18-.08,0-.17-.01-.26-.01s-.17,0-.26,.01c0-.21,.02-.43,.03-.66s.02-.46,.02-.7v-.38c0-.31-.06-.54-.18-.7Z"/>
    <path class="cls-2" d="M85.17,103.38c0-.19-.01-.36-.02-.51,.11,.02,.21,.03,.28,.03s.16-.01,.28-.03c.45,.5,.89,.99,1.33,1.47,.44,.48,.89,.97,1.35,1.47v-1.13c0-.2,0-.4,0-.59,0-.2,0-.37,0-.54,0-.16,0-.31-.01-.43,0-.12-.01-.2-.02-.24,.11,.02,.21,.03,.28,.03s.16-.01,.28-.03c-.02,.37-.04,.71-.05,1.01-.01,.3-.02,.59-.03,.85,0,.27-.01,.53-.02,.79,0,.26,0,.54,0,.83v.74c-.08,0-.17-.01-.25-.01-.09,0-.17,0-.24,.01-.85-.99-1.74-1.98-2.69-2.98,0,.12,0,.24,0,.36,0,.12,0,.24,0,.36v.71c0,.25,0,.46,0,.63,0,.17,0,.32,0,.44,0,.12,0,.22,.01,.29,0,.08,0,.14,.01,.18-.05,0-.1-.01-.15-.01h-.14c-.1,0-.19,0-.28,.01,0-.03,.02-.15,.03-.35s.03-.45,.04-.74c.01-.29,.03-.6,.04-.94s.02-.66,.02-.98c0-.28,0-.52-.01-.71Z"/>
    <path class="cls-1" d="M90.57,104.54c.24-.29,.59-.43,1.05-.43,.22,0,.41,.03,.56,.1,.16,.07,.29,.16,.4,.27,.11,.11,.19,.25,.24,.4s.08,.31,.08,.49c0,.04,0,.08,0,.12s0,.08,0,.12c-.22,0-.44,0-.66-.01-.22,0-.44,0-.66,0-.14,0-.27,0-.4,0-.13,0-.27,0-.4,.01,0,.02,0,.05,0,.09v.08c0,.16,.02,.31,.07,.45,.05,.14,.12,.26,.21,.36,.09,.1,.2,.18,.33,.24,.13,.06,.28,.09,.46,.09,.08,0,.17-.01,.25-.03,.09-.02,.17-.05,.25-.09,.08-.04,.16-.09,.23-.14,.07-.05,.13-.11,.19-.17l.03,.02-.04,.3c-.12,.1-.28,.18-.46,.25s-.37,.1-.57,.1c-.22,0-.42-.03-.61-.1s-.34-.17-.47-.3-.24-.28-.31-.46-.11-.37-.11-.57c0-.51,.12-.9,.36-1.19Zm.68-.13c-.1,.07-.19,.16-.26,.26s-.12,.22-.15,.34c-.03,.13-.06,.24-.06,.35,.13,0,.26,0,.4,.01,.14,0,.27,0,.4,0s.27,0,.41,0c.14,0,.27,0,.41-.01,0-.11,0-.23-.03-.35-.02-.12-.05-.24-.11-.34s-.13-.2-.23-.27c-.1-.07-.23-.1-.39-.1-.15,0-.28,.04-.39,.1Z"/>
    <path class="cls-1" d="M94.16,105.61c0-.15,0-.31,0-.46,0-.14,0-.3,0-.47,0-.17,0-.34,0-.51,.1,.02,.19,.03,.26,.03,.07,0,.15-.01,.25-.03-.02,.25-.04,.52-.05,.81s-.02,.59-.02,.9c0,.21,.02,.38,.06,.49,.04,.11,.08,.2,.14,.26,.06,.07,.13,.12,.22,.16,.09,.04,.19,.06,.31,.06,.17,0,.32-.04,.43-.11s.2-.17,.25-.28c.03-.07,.05-.13,.07-.18,.02-.05,.03-.11,.04-.2,.01-.08,.02-.19,.02-.33,0-.14,0-.33,0-.57v-.52c0-.09,0-.18,0-.26,0-.08,0-.16,0-.23,.05,0,.09,.02,.13,.02,.04,0,.08,0,.13,0s.09,0,.13,0c.04,0,.08-.01,.12-.02-.02,.32-.03,.63-.04,.93s0,.61,0,.95c0,.18,0,.37,0,.54,0,.18,.01,.35,.02,.51-.08,0-.16-.01-.24-.01s-.16,0-.24,.01c0-.04,0-.08,0-.12,0-.04,0-.08,0-.13v-.26h-.01c-.11,.2-.24,.34-.41,.43-.17,.09-.35,.14-.55,.14-.32,0-.57-.08-.75-.26-.18-.17-.27-.42-.27-.74,0-.22,0-.4,0-.56Z"/>
    <path class="cls-1" d="M99.49,104.61c-.06-.02-.12-.03-.18-.03-.1,0-.19,.02-.27,.07-.08,.05-.14,.11-.2,.18s-.09,.17-.12,.27c-.03,.1-.04,.22-.04,.34v.68c0,.27,0,.49,0,.63,0,.15,0,.26,.02,.35-.08,0-.16-.01-.25-.01-.09,0-.18,0-.26,.01,.01-.14,.02-.33,.02-.57,0-.24,0-.53,0-.88v-.2c0-.16,0-.34,0-.55,0-.21,0-.45-.02-.72,.04,0,.09,.02,.13,.02,.04,0,.08,0,.13,0,.04,0,.08,0,.12,0,.04,0,.08-.01,.13-.02-.02,.15-.03,.27-.03,.35,0,.09,0,.17,0,.25h.01c.24-.44,.51-.66,.81-.66,.04,0,.07,0,.1,0,.03,0,.06,.01,.1,.03-.02,.05-.03,.12-.04,.22s0,.19,0,.27l-.04,.03s-.06-.05-.12-.07Z"/>
    <path class="cls-1" d="M100.74,104.93c.09-.2,.2-.35,.35-.47,.14-.12,.3-.21,.48-.27,.18-.06,.36-.08,.53-.08s.36,.03,.54,.08c.18,.06,.34,.14,.48,.27,.14,.12,.26,.28,.35,.47s.13,.43,.13,.71-.04,.52-.13,.71-.2,.35-.35,.47c-.14,.12-.3,.21-.48,.26s-.36,.07-.54,.07-.35-.02-.53-.07c-.18-.05-.34-.13-.48-.26-.14-.12-.26-.28-.35-.47s-.13-.43-.13-.71,.04-.52,.13-.71Zm.46,1.21c.03,.16,.08,.3,.16,.43,.07,.13,.17,.22,.3,.3,.12,.07,.28,.11,.46,.11s.33-.04,.46-.11c.12-.07,.22-.17,.3-.3,.07-.13,.13-.27,.16-.43,.03-.16,.05-.33,.05-.5s-.02-.34-.05-.5c-.03-.16-.08-.3-.16-.43-.07-.13-.17-.22-.3-.3-.12-.07-.28-.11-.46-.11s-.33,.04-.46,.11c-.12,.07-.22,.17-.3,.3-.07,.13-.13,.27-.16,.43-.03,.16-.05,.33-.05,.5s.02,.34,.05,.5Z"/>
    <path class="cls-1" d="M105.06,103.77c0-.16,0-.33,0-.49,0-.16,0-.31-.02-.46s-.01-.27-.02-.37c.11,.02,.21,.03,.28,.03s.16-.01,.28-.03c0,.1-.02,.23-.02,.37s-.01,.3-.02,.46c0,.16,0,.32,0,.49,0,.16,0,.32,0,.46v1.12c0,.14,0,.29,0,.46,0,.16,0,.33,0,.49,0,.16,0,.31,.02,.46s.01,.26,.02,.36c-.09,0-.19-.01-.28-.01s-.18,0-.28,.01c0-.09,.02-.21,.02-.36s.01-.3,.02-.46c0-.16,0-.32,0-.49,0-.16,0-.32,0-.46v-1.12c0-.14,0-.29,0-.46Z"/>
    <path class="cls-1" d="M107.11,104.93c.09-.2,.2-.35,.35-.47,.14-.12,.3-.21,.48-.27,.18-.06,.36-.08,.53-.08s.36,.03,.54,.08c.18,.06,.34,.14,.48,.27,.14,.12,.26,.28,.35,.47s.13,.43,.13,.71-.04,.52-.13,.71-.2,.35-.35,.47c-.14,.12-.3,.21-.48,.26s-.36,.07-.54,.07-.35-.02-.53-.07c-.18-.05-.34-.13-.48-.26-.14-.12-.26-.28-.35-.47s-.13-.43-.13-.71,.04-.52,.13-.71Zm.46,1.21c.03,.16,.08,.3,.16,.43,.07,.13,.17,.22,.3,.3,.12,.07,.28,.11,.46,.11s.33-.04,.46-.11c.12-.07,.22-.17,.3-.3,.07-.13,.13-.27,.16-.43,.03-.16,.05-.33,.05-.5s-.02-.34-.05-.5c-.03-.16-.08-.3-.16-.43-.07-.13-.17-.22-.3-.3-.12-.07-.28-.11-.46-.11s-.33,.04-.46,.11c-.12,.07-.22,.17-.3,.3-.07,.13-.13,.27-.16,.43-.03,.16-.05,.33-.05,.5s.02,.34,.05,.5Zm1.67-3.57s.08,.02,.13,.05,.07,.08,.07,.15c0,.07-.02,.13-.07,.18-.05,.04-.1,.08-.15,.11l-.91,.58h-.26l.91-.92c.1-.1,.19-.15,.28-.15Z"/>
    <path class="cls-1" d="M111.21,104.67c.06-.13,.15-.23,.26-.31,.11-.08,.23-.14,.38-.18,.14-.04,.29-.06,.45-.06,.08,0,.15,0,.22,0s.16,.01,.27,.02c.1,0,.18,.01,.25,.02,.07,0,.13,0,.18,0,.23,0,.4,0,.5-.03,0,.02,0,.04,0,.06,0,.02,0,.04,0,.06s0,.04,0,.06c0,.02,0,.04,0,.06-.12,0-.24-.02-.35-.03s-.22-.02-.34-.02h-.01c.13,.08,.23,.19,.31,.34s.12,.3,.12,.45c0,.31-.1,.55-.31,.72s-.49,.26-.83,.26c-.06,0-.11,0-.17,0-.06,0-.11,0-.17,0-.07,0-.14,.03-.21,.08-.06,.05-.1,.12-.1,.2,0,.11,.03,.18,.08,.23s.15,.08,.29,.08c.11,0,.23,0,.34,0s.22,0,.34,0c.19,0,.35,.03,.48,.07,.13,.04,.24,.1,.33,.17s.15,.15,.19,.24c.04,.09,.06,.19,.06,.3,0,.14-.03,.29-.08,.44-.06,.15-.14,.28-.26,.4-.12,.12-.27,.22-.45,.3-.19,.08-.41,.12-.67,.12-.4,0-.71-.08-.94-.24-.23-.16-.34-.37-.34-.65,0-.11,.02-.21,.06-.3,.04-.09,.09-.17,.15-.24,.06-.07,.13-.13,.21-.17,.08-.04,.16-.07,.24-.09h0c-.13-.05-.22-.11-.29-.2-.07-.09-.1-.19-.1-.31,0-.07,.01-.13,.04-.19,.03-.06,.06-.11,.1-.15,.04-.05,.09-.08,.14-.11,.05-.03,.1-.05,.15-.06h0c-.19-.09-.34-.21-.44-.36-.11-.15-.16-.34-.16-.56,0-.17,.03-.32,.09-.45Zm1.88,2.57c-.14-.1-.38-.15-.71-.15-.31,0-.55,.05-.71,.15-.17,.1-.25,.28-.25,.55,0,.14,.02,.26,.07,.36s.11,.18,.19,.24c.08,.06,.18,.11,.29,.14s.23,.04,.36,.04,.24-.02,.36-.05c.12-.03,.22-.08,.32-.15s.17-.15,.22-.25c.06-.1,.09-.22,.09-.36,0-.25-.07-.42-.22-.52Zm-.3-2.74c-.12-.14-.29-.2-.49-.2-.22,0-.39,.08-.52,.22-.12,.15-.19,.35-.19,.6s.06,.46,.17,.61c.11,.15,.29,.22,.53,.22,.12,0,.22-.02,.3-.07s.15-.11,.21-.19c.06-.08,.1-.17,.12-.28,.03-.1,.04-.21,.04-.33,0-.26-.06-.46-.19-.59Z"/>
    <path class="cls-1" d="M115.14,102.88c.06-.06,.14-.09,.22-.09s.16,.03,.22,.09c.06,.06,.09,.14,.09,.22s-.03,.16-.09,.22-.14,.09-.22,.09-.16-.03-.22-.09-.09-.14-.09-.22,.03-.16,.09-.22Zm-.02,1.86c0-.2-.02-.39-.04-.57,.11,.02,.21,.03,.28,.03s.16-.01,.28-.03c-.02,.18-.03,.37-.04,.57s0,.4,0,.58v.64c0,.18,0,.38,0,.58s.02,.39,.04,.55c-.09,0-.19-.01-.28-.01s-.18,0-.28,.01c.02-.16,.03-.35,.04-.55s0-.4,0-.58v-.64c0-.18,0-.38,0-.58Z"/>
    <path class="cls-1" d="M117.23,104.96c.09-.19,.21-.35,.35-.48,.14-.13,.31-.22,.5-.28s.38-.09,.58-.09c.23,0,.43,.03,.61,.08,.18,.06,.31,.12,.39,.19-.03,.06-.05,.13-.08,.19-.02,.07-.04,.14-.06,.21h-.05c-.03-.05-.07-.11-.12-.16-.05-.06-.11-.11-.18-.15s-.14-.09-.23-.12c-.08-.03-.17-.05-.27-.05-.19,0-.34,.03-.48,.1-.13,.07-.24,.16-.33,.28s-.15,.26-.18,.42c-.04,.16-.06,.34-.06,.53,0,.42,.09,.74,.27,.96,.18,.22,.45,.32,.79,.32,.08,0,.17-.01,.25-.03,.09-.02,.17-.05,.25-.09s.16-.09,.23-.14c.07-.05,.13-.11,.19-.17l.03,.02c-.02,.1-.03,.2-.04,.3-.12,.1-.28,.18-.46,.25s-.37,.1-.57,.1c-.18,0-.35-.03-.53-.08-.18-.05-.34-.14-.48-.26-.14-.12-.26-.28-.35-.47s-.13-.43-.13-.71,.04-.5,.14-.69Z"/>
    <path class="cls-1" d="M121.56,104.19c.16-.05,.32-.07,.48-.07,.15,0,.28,.02,.41,.06,.12,.04,.23,.1,.32,.18s.16,.18,.21,.29c.05,.11,.07,.24,.07,.37,0,.23,0,.47-.01,.7,0,.23-.01,.48-.01,.74,0,.05,0,.1,0,.16,0,.06,.01,.1,.03,.15,.02,.04,.04,.08,.07,.11s.08,.04,.14,.04c.02,0,.04,0,.06,0s.04,0,.06-.02v.14s-.1,.04-.17,.05c-.07,.01-.14,.02-.22,.02-.13,0-.24-.03-.31-.1-.07-.07-.11-.15-.13-.26-.15,.15-.29,.26-.44,.33s-.32,.1-.53,.1c-.1,0-.2-.01-.3-.04-.1-.03-.19-.08-.26-.14-.08-.07-.14-.14-.18-.24-.05-.09-.07-.2-.07-.32,0-.25,.08-.44,.23-.57s.37-.23,.64-.27c.22-.04,.39-.07,.52-.1,.13-.03,.22-.05,.28-.08,.06-.03,.09-.06,.11-.1,.01-.04,.02-.09,.02-.15,0-.1-.01-.2-.04-.3s-.06-.18-.12-.25c-.05-.07-.12-.13-.21-.17s-.19-.06-.31-.06c-.16,0-.32,.04-.46,.11-.14,.07-.25,.18-.32,.31h-.07v-.32c.19-.14,.36-.23,.51-.28Zm.77,1.44c-.09,.02-.19,.03-.28,.05-.09,.02-.19,.04-.28,.07-.09,.03-.17,.07-.25,.12-.07,.05-.13,.11-.17,.18s-.06,.17-.06,.28c0,.19,.05,.34,.16,.44,.11,.1,.23,.15,.37,.15,.16,0,.3-.04,.43-.13,.13-.09,.23-.19,.3-.3l.02-.92c-.07,.02-.15,.05-.24,.06Z"/>
    <path class="cls-2" d="M127.11,103.67c0-.26-.02-.53-.04-.8,.07,0,.15,.02,.23,.02,.08,0,.18,0,.28,0s.2,0,.28,0c.08,0,.16-.01,.23-.02-.02,.27-.03,.53-.04,.8,0,.27-.01,.57-.01,.91v.84c0,.34,0,.64,.01,.91,0,.26,.02,.52,.04,.78-.07,0-.15-.01-.23-.01h-.56c-.08,0-.16,0-.23,.01,.02-.25,.03-.51,.04-.78,0-.27,.01-.57,.01-.91v-.84c0-.34,0-.64-.01-.91Z"/>
    <path class="cls-1" d="M131.52,104.67c-.12-.16-.28-.24-.49-.24-.29,0-.5,.09-.63,.27s-.2,.43-.2,.75v.52c0,.18,0,.38,0,.58,0,.2,.02,.39,.04,.55-.09,0-.19-.01-.28-.01s-.18,0-.28,.01c.02-.16,.03-.35,.04-.55,0-.2,0-.4,0-.58v-.64c0-.18,0-.38,0-.58,0-.2-.02-.39-.04-.57,.11,.02,.21,.03,.28,.03,.03,0,.07,0,.11,0,.04,0,.08-.01,.14-.02-.01,.16-.02,.33-.02,.49h.01c.11-.18,.25-.31,.41-.41,.16-.1,.35-.14,.57-.14,.11,0,.23,.02,.35,.05,.12,.03,.22,.09,.32,.17,.09,.08,.17,.19,.23,.33,.06,.14,.09,.31,.09,.53,0,.18,0,.36-.01,.55s-.01,.39-.01,.59v.4c0,.07,0,.13,0,.19,0,.06,0,.12,0,.18-.08,0-.17-.01-.26-.01s-.17,0-.26,.01c0-.21,.02-.43,.03-.66s.02-.46,.02-.7v-.38c0-.31-.06-.54-.18-.7Z"/>
    <path class="cls-1" d="M134.29,103.35c-.01,.16-.02,.31-.03,.46,0,.15-.01,.3-.02,.45,.05,0,.13,0,.25,0,.12,0,.26,0,.4-.02,0,.01,0,.04,0,.07v.13s0,.05,0,.06c-.05,0-.11,0-.17,0s-.12,0-.18,0h-.3s0,.08-.02,.2-.01,.25-.02,.41c0,.16,0,.32,0,.5,0,.17,0,.33,0,.46,0,.11,0,.23,0,.34,0,.11,.03,.21,.06,.3,.03,.09,.08,.16,.15,.21,.07,.05,.16,.08,.28,.08,.03,0,.08,0,.13-.01,.05,0,.1-.02,.14-.03v.15c-.07,.01-.15,.03-.23,.05s-.17,.03-.24,.03c-.26,0-.45-.06-.57-.19-.12-.13-.19-.31-.19-.56,0-.11,0-.23,0-.36,0-.13,0-.27,.02-.43s.01-.32,.02-.51c0-.19,0-.4,0-.63h-.2s-.07,0-.1,0c-.04,0-.08,0-.12,0,0-.02,0-.05,0-.07,0-.02,0-.05,0-.07,0-.02,0-.04,0-.06,0-.02,0-.04,0-.06,.19,.01,.32,.02,.41,.02,0-.08,0-.18,0-.31,0-.12,0-.25-.02-.38l.51-.22h.03Z"/>
    <path class="cls-1" d="M136.17,104.54c.24-.29,.59-.43,1.05-.43,.22,0,.41,.03,.56,.1,.16,.07,.29,.16,.4,.27,.11,.11,.19,.25,.24,.4s.08,.31,.08,.49c0,.04,0,.08,0,.12s0,.08,0,.12c-.22,0-.44,0-.66-.01-.22,0-.44,0-.66,0-.14,0-.27,0-.4,0-.13,0-.27,0-.4,.01,0,.02,0,.05,0,.09v.08c0,.16,.02,.31,.07,.45,.05,.14,.12,.26,.21,.36,.09,.1,.2,.18,.33,.24,.13,.06,.28,.09,.46,.09,.08,0,.17-.01,.25-.03,.09-.02,.17-.05,.25-.09,.08-.04,.16-.09,.23-.14,.07-.05,.13-.11,.19-.17l.03,.02-.04,.3c-.12,.1-.28,.18-.46,.25s-.37,.1-.57,.1c-.22,0-.42-.03-.61-.1s-.34-.17-.47-.3-.24-.28-.31-.46-.11-.37-.11-.57c0-.51,.12-.9,.36-1.19Zm.68-.13c-.1,.07-.19,.16-.26,.26s-.12,.22-.15,.34c-.03,.13-.06,.24-.06,.35,.13,0,.26,0,.4,.01,.14,0,.27,0,.4,0s.27,0,.41,0c.14,0,.27,0,.41-.01,0-.11,0-.23-.03-.35-.02-.12-.05-.24-.11-.34s-.13-.2-.23-.27c-.1-.07-.23-.1-.39-.1-.15,0-.28,.04-.39,.1Z"/>
    <path class="cls-1" d="M139.69,104.67c.06-.13,.15-.23,.26-.31,.11-.08,.23-.14,.38-.18,.14-.04,.29-.06,.45-.06,.08,0,.15,0,.22,0s.16,.01,.27,.02c.1,0,.18,.01,.25,.02,.07,0,.13,0,.18,0,.23,0,.4,0,.5-.03,0,.02,0,.04,0,.06,0,.02,0,.04,0,.06s0,.04,0,.06c0,.02,0,.04,0,.06-.12,0-.24-.02-.35-.03s-.22-.02-.34-.02h-.01c.13,.08,.23,.19,.31,.34s.12,.3,.12,.45c0,.31-.1,.55-.31,.72s-.49,.26-.83,.26c-.06,0-.11,0-.17,0-.06,0-.11,0-.17,0-.07,0-.14,.03-.21,.08-.06,.05-.1,.12-.1,.2,0,.11,.03,.18,.08,.23s.15,.08,.29,.08c.11,0,.23,0,.34,0s.22,0,.34,0c.19,0,.35,.03,.48,.07,.13,.04,.24,.1,.33,.17s.15,.15,.19,.24c.04,.09,.06,.19,.06,.3,0,.14-.03,.29-.08,.44-.06,.15-.14,.28-.26,.4-.12,.12-.27,.22-.45,.3-.19,.08-.41,.12-.67,.12-.4,0-.71-.08-.94-.24-.23-.16-.34-.37-.34-.65,0-.11,.02-.21,.06-.3,.04-.09,.09-.17,.15-.24,.06-.07,.13-.13,.21-.17,.08-.04,.16-.07,.24-.09h0c-.13-.05-.22-.11-.29-.2-.07-.09-.1-.19-.1-.31,0-.07,.01-.13,.04-.19,.03-.06,.06-.11,.1-.15,.04-.05,.09-.08,.14-.11,.05-.03,.1-.05,.15-.06h0c-.19-.09-.34-.21-.44-.36-.11-.15-.16-.34-.16-.56,0-.17,.03-.32,.09-.45Zm1.88,2.57c-.14-.1-.38-.15-.71-.15-.31,0-.55,.05-.71,.15-.17,.1-.25,.28-.25,.55,0,.14,.02,.26,.07,.36s.11,.18,.19,.24c.08,.06,.18,.11,.29,.14s.23,.04,.36,.04,.24-.02,.36-.05c.12-.03,.22-.08,.32-.15s.17-.15,.22-.25c.06-.1,.09-.22,.09-.36,0-.25-.07-.42-.22-.52Zm-.3-2.74c-.12-.14-.29-.2-.49-.2-.22,0-.39,.08-.52,.22-.12,.15-.19,.35-.19,.6s.06,.46,.17,.61c.11,.15,.29,.22,.53,.22,.12,0,.22-.02,.3-.07s.15-.11,.21-.19c.06-.08,.1-.17,.12-.28,.03-.1,.04-.21,.04-.33,0-.26-.06-.46-.19-.59Z"/>
    <path class="cls-1" d="M144.74,104.61c-.06-.02-.12-.03-.18-.03-.1,0-.19,.02-.27,.07-.08,.05-.14,.11-.2,.18s-.09,.17-.12,.27c-.03,.1-.04,.22-.04,.34v.68c0,.27,0,.49,0,.63,0,.15,0,.26,.02,.35-.08,0-.16-.01-.25-.01-.09,0-.18,0-.26,.01,.01-.14,.02-.33,.02-.57,0-.24,0-.53,0-.88v-.2c0-.16,0-.34,0-.55,0-.21,0-.45-.02-.72,.04,0,.09,.02,.13,.02,.04,0,.08,0,.13,0,.04,0,.08,0,.12,0,.04,0,.08-.01,.13-.02-.02,.15-.03,.27-.03,.35,0,.09,0,.17,0,.25h.01c.24-.44,.51-.66,.81-.66,.04,0,.07,0,.1,0,.03,0,.06,.01,.1,.03-.02,.05-.03,.12-.04,.22s0,.19,0,.27l-.04,.03s-.06-.05-.12-.07Z"/>
    <path class="cls-1" d="M146.61,104.19c.16-.05,.32-.07,.48-.07,.15,0,.28,.02,.41,.06,.12,.04,.23,.1,.32,.18s.16,.18,.21,.29c.05,.11,.07,.24,.07,.37,0,.23,0,.47-.01,.7,0,.23-.01,.48-.01,.74,0,.05,0,.1,0,.16,0,.06,.01,.1,.03,.15,.02,.04,.04,.08,.07,.11s.08,.04,.14,.04c.02,0,.04,0,.06,0s.04,0,.06-.02v.14s-.1,.04-.17,.05c-.07,.01-.14,.02-.22,.02-.13,0-.24-.03-.31-.1-.07-.07-.11-.15-.13-.26-.15,.15-.29,.26-.44,.33s-.32,.1-.53,.1c-.1,0-.2-.01-.3-.04-.1-.03-.19-.08-.26-.14-.08-.07-.14-.14-.18-.24-.05-.09-.07-.2-.07-.32,0-.25,.08-.44,.23-.57s.37-.23,.64-.27c.22-.04,.39-.07,.52-.1,.13-.03,.22-.05,.28-.08,.06-.03,.09-.06,.11-.1,.01-.04,.02-.09,.02-.15,0-.1-.01-.2-.04-.3s-.06-.18-.12-.25c-.05-.07-.12-.13-.21-.17s-.19-.06-.31-.06c-.16,0-.32,.04-.46,.11-.14,.07-.25,.18-.32,.31h-.07v-.32c.19-.14,.36-.23,.51-.28Zm.77,1.44c-.09,.02-.19,.03-.28,.05-.09,.02-.19,.04-.28,.07-.09,.03-.17,.07-.25,.12-.07,.05-.13,.11-.17,.18s-.06,.17-.06,.28c0,.19,.05,.34,.16,.44,.11,.1,.23,.15,.37,.15,.16,0,.3-.04,.43-.13,.13-.09,.23-.19,.3-.3l.02-.92c-.07,.02-.15,.05-.24,.06Z"/>
    <path class="cls-1" d="M149.9,103.77c0-.16,0-.33,0-.49,0-.16,0-.31-.02-.46s-.01-.27-.02-.37c.11,.02,.21,.03,.28,.03s.16-.01,.28-.03c0,.1-.02,.23-.02,.37s-.01,.3-.02,.46c0,.16,0,.32,0,.49,0,.16,0,.32,0,.46v1.12c0,.14,0,.29,0,.46,0,.16,0,.33,0,.49,0,.16,0,.31,.02,.46s.01,.26,.02,.36c-.09,0-.19-.01-.28-.01s-.18,0-.28,.01c0-.09,.02-.21,.02-.36s.01-.3,.02-.46c0-.16,0-.32,0-.49,0-.16,0-.32,0-.46v-1.12c0-.14,0-.29,0-.46Z"/>
  </g>
  <g>
    <path class="cls-3" d="M102.17,31.11c-.75-1.54-2.09-1.59-3.61-1.45,.83-.47,1.36-1.06,1.4-1.96,.04-.92-.56-1.5-1.19-2.06,.64,.21,1.29,.44,1.96,.17,.71-.28,.92-.92,1.07-1.72,.47,1.42,1.4,1.98,2.8,1.83-.54,.36-.93,.81-1.09,1.44-.15,.57,.09,1.16,.71,1.6-.62,.03-1.17,.12-1.57,.57-.39,.44-.49,.98-.47,1.57Z"/>
    <path class="cls-3" d="M99.76,40.07c1.5,.83,2.62,.09,3.78-.9-.41,.86-.5,1.66-.01,2.41,.5,.78,1.32,.9,2.16,1-.65,.2-1.31,.38-1.7,.99-.42,.64-.22,1.28,.12,2.02-1.2-.89-2.29-.81-3.34,.12,.23-.61,.29-1.2,.06-1.81-.21-.56-.74-.9-1.5-.9,.49-.38,.89-.77,.95-1.37,.06-.59-.16-1.09-.52-1.56Z"/>
    <path class="cls-3" d="M95.23,61.01c.48-1.65-.5-2.58-1.72-3.49,.93,.21,1.73,.12,2.36-.52,.65-.66,.59-1.49,.49-2.33,.34,.59,.66,1.19,1.34,1.44,.72,.27,1.3-.07,1.94-.56-.6,1.37-.28,2.41,.86,3.23-.64-.09-1.24-.02-1.78,.34-.49,.33-.71,.92-.55,1.67-.48-.39-.95-.69-1.55-.62-.59,.07-1.02,.4-1.4,.85Z"/>
    <path class="cls-3" d="M92.49,41.38c1.5,.83,2.62,.09,3.78-.9-.41,.86-.5,1.66-.01,2.41,.5,.78,1.32,.9,2.16,1-.65,.2-1.31,.38-1.7,.99-.42,.64-.22,1.28,.12,2.02-1.2-.89-2.29-.81-3.34,.12,.23-.61,.29-1.2,.06-1.81-.21-.56-.74-.9-1.5-.9,.49-.38,.89-.77,.95-1.37,.06-.59-.16-1.09-.52-1.56Z"/>
    <path class="cls-3" d="M105.92,30.68c.33-1.23-.4-1.91-1.32-2.57,.69,.14,1.28,.07,1.74-.42,.47-.5,.41-1.11,.33-1.73,.26,.43,.51,.87,1.02,1.05,.54,.19,.96-.07,1.44-.44-.43,1.03-.18,1.79,.68,2.39-.48-.06-.92,0-1.31,.27-.36,.25-.51,.69-.38,1.24-.36-.28-.71-.5-1.16-.44-.43,.06-.75,.31-1.03,.65Z"/>
    <path class="cls-3" d="M93.73,17.19c.17-2-1.16-2.85-2.77-3.61,1.12,.03,2.01-.26,2.59-1.14,.59-.9,.33-1.84,.03-2.79,.52,.6,1.03,1.21,1.87,1.35,.89,.14,1.48-.38,2.1-1.1-.37,1.71,.23,2.83,1.73,3.51-.76,.04-1.42,.26-1.96,.8-.49,.49-.6,1.22-.24,2.04-.64-.34-1.25-.58-1.92-.36-.66,.21-1.08,.69-1.42,1.3Z"/>
    <path class="cls-3" d="M90.74,26.12c-.23-1.22-1.16-1.5-2.24-1.69,.67-.17,1.15-.49,1.35-1.11,.2-.63-.11-1.15-.44-1.66,.41,.27,.81,.55,1.34,.49,.55-.06,.82-.47,1.07-1,.06,1.08,.61,1.65,1.61,1.81-.45,.15-.8,.39-1.04,.8-.21,.37-.16,.83,.19,1.25-.43-.1-.84-.14-1.2,.1-.36,.24-.53,.59-.63,1.01Z"/>
    <path class="cls-3" d="M76.99,76.48c-3.48,0-6.65-1.92-8.27-5.01-.16-.31-.44-.53-.78-.62-4.07-1.1-6.92-4.8-6.92-9.02,0-.63,.06-1.26,.19-1.88,.12-.57-.18-1.14-.71-1.38-2.9-1.29-4.77-4.17-4.77-7.33,0-1.44,.37-2.81,1.09-4.03,1.85,1.63,4.28,2.63,6.94,2.63,.69,0,1.24-.56,1.24-1.24s-.56-1.24-1.24-1.24c-4.43,0-8.03-3.6-8.03-8.03,0-2.38,1.05-4.63,2.88-6.16,.41-.35,.56-.92,.35-1.42-.39-.97-.59-1.98-.59-3.01,0-4.43,3.6-8.03,8.03-8.03s8.02,3.6,8.02,8.03c0,.69,.56,1.24,1.24,1.24s1.24-.56,1.24-1.24c0-5.57-4.35-10.13-9.83-10.48-.5-.83-.76-1.77-.76-2.75,0-2.21,1.34-4.12,3.26-4.94,.07-.02,.15-.05,.22-.09,.59-.23,1.23-.35,1.91-.35,2.08,0,3.93,1.16,4.84,3.03,.3,.62,1.04,.87,1.66,.57,.62-.3,.87-1.04,.57-1.66-1.04-2.14-3-3.67-5.26-4.21,3.17-1.93,6.29-3.03,8.77-3.03,2.24,0,4.05,1.82,4.05,4.05V24.94c-1.12-.88-2.52-1.42-4.05-1.42-.69,0-1.24,.56-1.24,1.24s.56,1.24,1.24,1.24c2.24,0,4.05,1.82,4.05,4.05v29.83c-1.54-1.99-3.72-3.49-6.28-4.18-.66-.18-1.34,.21-1.52,.88-.18,.66,.21,1.34,.88,1.52,4.07,1.1,6.92,4.8,6.92,9.02,0,5.16-4.19,9.35-9.35,9.35h0Z"/>
    <path class="cls-5" d="M81.83,61.12m-6.01-9.54c.09-.34,.15-.68,.19-1.04,.06-.51-.31-.97-.82-1.03s-.97,.31-1.03,.82c-.38,3.29-3.37,5.66-6.66,5.28-.51-.06-.97,.31-1.03,.82s.31,.97,.82,1.03c3.27,.38,6.32-1.32,7.81-4.05m6.73,7.73"/>
    <path class="cls-5" d="M54.03,35.41m10.89,2.94c.17,.31,.35,.61,.56,.9,.3,.42,.88,.51,1.3,.2s.51-.88,.2-1.3c-1.95-2.68-1.36-6.44,1.32-8.39,.41-.3,.51-.88,.2-1.3s-.88-.51-1.3-.2c-2.66,1.94-3.75,5.25-3,8.27m-10.18-1.12"/>
    <path class="cls-5" d="M83.58,58.08m-10.58,3.91c-.31-.15-.64-.29-.98-.4-.49-.16-1.01,.1-1.18,.59s.1,1.01,.59,1.18c3.14,1.05,4.84,4.46,3.79,7.6-.16,.49,.1,1.01,.59,1.18s1.01-.1,1.18-.59c1.05-3.12,.01-6.45-2.35-8.47m8.95-4.99"/>
    <path class="cls-5" d="M89.08,34.02m-10.58,3.91c-.31-.15-.64-.29-.98-.4-.49-.16-1.01,.1-1.18,.59-.16,.49,.1,1.01,.59,1.18,3.14,1.05,4.84,4.46,3.79,7.6-.16,.49,.1,1.01,.59,1.18s1.01-.1,1.18-.59c1.05-3.12,.01-6.45-2.35-8.47m8.95-4.99"/>
    <path class="cls-5" d="M89.01,22.77m-4.95-7.86c.07-.28,.13-.56,.16-.86,.05-.42-.25-.8-.67-.85s-.8,.25-.85,.67c-.31,2.71-2.77,4.66-5.48,4.35-.42-.05-.8,.25-.85,.67s.25,.8,.67,.85c2.7,.31,5.2-1.09,6.43-3.34m5.54,6.37"/>
    <g>
      <path class="cls-3" d="M113.27,29.54h-.49v-1.17c0-4.47-3.63-8.1-8.1-8.1h-5.92v-.49h5.92c4.73,0,8.58,3.85,8.58,8.58v1.17Z"/>
      <path class="cls-3" d="M113.64,29.9h-1.22v-1.54c0-4.26-3.47-7.73-7.73-7.73h-6.29v-1.22h6.29c4.94,0,8.95,4.02,8.95,8.95v1.54Z"/>
    </g>
    <g>
      <path class="cls-3" d="M105.06,58.55h-8.22v-.49h8.22c1.87,0,3.4-1.52,3.4-3.4s-1.52-3.4-3.4-3.4h-.84v-.49h.84c2.14,0,3.88,1.74,3.88,3.88s-1.74,3.88-3.88,3.88Z"/>
      <path class="cls-3" d="M105.06,58.92h-8.59v-1.22h8.59c1.67,0,3.03-1.36,3.03-3.03s-1.36-3.03-3.03-3.03h-1.21v-1.22h1.21c2.34,0,4.25,1.91,4.25,4.25s-1.91,4.25-4.25,4.25Z"/>
    </g>
    <g>
      <path class="cls-3" d="M91.26,24.14h-.49c0-2.77,1.98-4.36,5.44-4.36h9.52c1.04,0,3.2-.78,3.2-3.2,0-1.27-1.12-3.15-3.52-3.15h-9.88v-.49h9.88c2.73,0,4.01,2.17,4.01,3.63s-1.14,3.68-3.68,3.68h-9.52c-3.2,0-4.96,1.37-4.96,3.87Z"/>
      <path class="cls-3" d="M91.63,24.5h-1.22v-.37c0-2.96,2.17-4.72,5.81-4.72h9.52c.92,0,2.83-.69,2.83-2.83,0-1.12-1-2.78-3.16-2.78h-10.25v-1.22h10.25c2.99,0,4.38,2.39,4.38,4s-1.26,4.05-4.05,4.05h-9.52c-2.1,0-4.59,.61-4.59,3.5v.37Z"/>
    </g>
    <g>
      <path class="cls-3" d="M101.64,35.33h-6.81v-.49h6.81c1.87,0,3.4-1.52,3.4-3.4s-1.52-3.4-3.4-3.4v-.49c2.14,0,3.88,1.74,3.88,3.88s-1.74,3.88-3.88,3.88Z"/>
      <path class="cls-3" d="M101.65,35.69h-7.18v-1.22h7.18c1.67,0,3.03-1.36,3.03-3.03s-1.36-3.03-3.03-3.03h-.37v-1.22h.37c2.34,0,4.25,1.91,4.25,4.25s-1.91,4.25-4.25,4.25Z"/>
    </g>
    <g>
      <path class="cls-3" d="M103.06,51.27h-8.23c-2.14,0-3.88-1.74-3.88-3.88s1.74-3.88,3.88-3.88v.49c-1.87,0-3.4,1.52-3.4,3.4s1.52,3.4,3.4,3.4h8.23v.49Z"/>
      <path class="cls-3" d="M103.43,51.64h-8.6c-2.34,0-4.25-1.91-4.25-4.25s1.91-4.25,4.25-4.25h.37v1.22h-.37c-1.67,0-3.03,1.36-3.03,3.03s1.36,3.03,3.03,3.03h8.6v1.22Z"/>
    </g>
    <g>
      <path class="cls-3" d="M104.23,70.54c1.87,0,3.4,1.52,3.4,3.4v-.52s.49,0,.49,0v.52c0-2.14-1.74-3.88-3.88-3.88"/>
      <path class="cls-3" d="M102.92,71.21c.4-.19,.84-.3,1.31-.3,1.67,0,3.03,1.36,3.03,3.03v1.82s1.22,0,1.22,0v-1.82c0-2.34-1.91-4.25-4.25-4.25-.39,0-.76,.05-1.12,.15"/>
    </g>
    <g>
      <path class="cls-3" d="M87.98,55.31h-.49V13.17c0-4.5,3.66-8.16,8.16-8.16s8.16,3.66,8.16,8.16h-.49c0-4.23-3.44-7.67-7.67-7.67s-7.67,3.44-7.67,7.67V55.31Z"/>
      <path class="cls-3" d="M88.34,55.68h-1.22V13.17c0-4.7,3.82-8.52,8.52-8.52s8.52,3.82,8.52,8.52v.37h-1.22v-.37c0-4.03-3.28-7.31-7.31-7.31s-7.31,3.28-7.31,7.31V55.68Z"/>
    </g>
    <g>
      <path class="cls-3" d="M87.98,25.81h-.49s0,42.14,0,42.14c0,4.5,3.66,8.16,8.16,8.16,4.5,0,8.16-3.66,8.16-8.16h-.49c0,4.23-3.44,7.67-7.67,7.67s-7.67-3.44-7.67-7.67V25.81Z"/>
      <path class="cls-3" d="M88.34,25.45h-1.22s0,42.51,0,42.51c0,4.7,3.82,8.52,8.52,8.52,4.7,0,8.52-3.82,8.52-8.52,0,0-.05-1.76,0-2.35,.09-.99,.73-3.89,.73-3.89h-1.22s-.63,2.9-.73,3.89c-.05,.58,0,2.35,0,2.35,0,4.03-3.28,7.31-7.31,7.31-4.03,0-7.31-3.28-7.31-7.31V25.45Z"/>
    </g>
    <g>
      <path class="cls-3" d="M104.22,51.27h-9.57v-.49h9.57c5.36,0,9.72-4.36,9.72-9.72h.49c0,5.63-4.58,10.2-10.2,10.2Z"/>
      <path class="cls-3" d="M104.22,51.64h-9.94v-1.22h9.94c5.16,0,9.35-4.2,9.35-9.35v-.37h1.22v.37c0,5.83-4.74,10.57-10.57,10.57Z"/>
    </g>
    <g>
      <path class="cls-3" d="M87.98,39.17h-.49c0-2.39,1.94-4.33,4.33-4.33h7.69v.49h-7.69c-2.12,0-3.84,1.72-3.84,3.84Z"/>
      <path class="cls-3" d="M88.34,39.54h-1.22v-.37c0-2.59,2.11-4.69,4.69-4.69h8.05v1.22h-8.05c-1.92,0-3.48,1.56-3.48,3.48v.37Z"/>
    </g>
    <g>
      <path class="cls-3" d="M97.09,65.61h-5.66v-.49h5.66c1.81,0,3.28-1.47,3.28-3.28s-1.47-3.28-3.28-3.28v-.49c2.08,0,3.77,1.69,3.77,3.77s-1.69,3.77-3.77,3.77Z"/>
      <path class="cls-3" d="M97.09,65.97h-6.03v-1.22h6.03c1.61,0,2.92-1.31,2.92-2.92s-1.31-2.92-2.92-2.92h-.37v-1.22h.37c2.28,0,4.14,1.86,4.14,4.14s-1.86,4.14-4.14,4.14Z"/>
    </g>
    <g>
      <path class="cls-3" d="M109.37,42.86h-7.42v-.49h7.42c3.76,0,6.81-3.05,6.81-6.81s-3.06-6.81-6.81-6.81h-2.24v-.49h2.24c4.02,0,7.3,3.27,7.3,7.3s-3.27,7.3-7.3,7.3Z"/>
      <path class="cls-3" d="M109.37,43.23h-7.79v-1.22h7.79c3.55,0,6.44-2.89,6.44-6.44s-2.89-6.44-6.44-6.44h-2.61v-1.22h2.61c4.23,0,7.66,3.44,7.66,7.66s-3.44,7.66-7.66,7.66Z"/>
    </g>
    <g>
      <path class="cls-5" d="M95.46,43.75c0-.36-.29-.65-.65-.65s-.65,.29-.65,.65,.29,.65,.65,.65,.65-.29,.65-.65Z"/>
      <path class="cls-5" d="M94.81,44.69c-.52,0-.94-.42-.94-.94s.42-.94,.94-.94,.94,.42,.94,.94-.42,.94-.94,.94Zm0-1.3c-.2,0-.37,.16-.37,.37s.16,.37,.37,.37,.37-.16,.37-.37-.16-.37-.37-.37Z"/>
    </g>
    <g>
      <path class="cls-5" d="M107.78,28.44c0-.25-.2-.45-.45-.45s-.45,.2-.45,.45,.2,.45,.45,.45,.45-.2,.45-.45Z"/>
      <path class="cls-5" d="M107.33,29.08c-.36,0-.65-.29-.65-.65s.29-.65,.65-.65,.65,.29,.65,.65-.29,.65-.65,.65Zm0-.9c-.14,0-.25,.11-.25,.25s.11,.25,.25,.25,.25-.11,.25-.25-.11-.25-.25-.25Z"/>
    </g>
    <g>
      <path class="cls-5" d="M102.32,27.8c0-.35-.29-.64-.64-.64s-.64,.29-.64,.64,.29,.64,.64,.64,.64-.29,.64-.64Z"/>
      <path class="cls-5" d="M101.68,28.72c-.51,0-.92-.41-.92-.92s.41-.92,.92-.92,.92,.41,.92,.92-.41,.92-.92,.92Zm0-1.28c-.2,0-.36,.16-.36,.36s.16,.36,.36,.36,.36-.16,.36-.36-.16-.36-.36-.36Z"/>
    </g>
    <g>
      <path class="cls-5" d="M102.81,42.62c0-.32-.26-.59-.59-.59s-.59,.26-.59,.59,.26,.59,.59,.59,.59-.26,.59-.59Z"/>
      <path class="cls-5" d="M102.23,43.46c-.46,0-.84-.38-.84-.84s.38-.84,.84-.84,.84,.38,.84,.84-.38,.84-.84,.84Zm0-1.17c-.18,0-.33,.15-.33,.33s.15,.33,.33,.33,.33-.15,.33-.33-.15-.33-.33-.33Z"/>
    </g>
    <g>
      <path class="cls-5" d="M91.35,23.61c0-.27-.22-.5-.5-.5s-.5,.22-.5,.5,.22,.5,.5,.5,.5-.22,.5-.5Z"/>
      <path class="cls-5" d="M90.86,24.32c-.39,0-.71-.32-.71-.71s.32-.71,.71-.71,.71,.32,.71,.71-.32,.71-.71,.71Zm0-.99c-.15,0-.28,.12-.28,.28s.12,.28,.28,.28,.28-.12,.28-.28-.12-.28-.28-.28Z"/>
    </g>
    <g>
      <path class="cls-5" d="M95.84,13.2c0-.37-.3-.66-.66-.66s-.66,.3-.66,.66,.3,.66,.66,.66,.66-.3,.66-.66Z"/>
      <path class="cls-5" d="M95.18,14.15c-.53,0-.96-.43-.96-.96s.43-.96,.96-.96,.96,.43,.96,.96-.43,.96-.96,.96Zm0-1.33c-.21,0-.37,.17-.37,.37s.17,.37,.37,.37,.37-.17,.37-.37-.17-.37-.37-.37Z"/>
    </g>
    <g>
      <path class="cls-5" d="M97.77,58.31c0-.35-.29-.64-.64-.64s-.64,.29-.64,.64,.29,.64,.64,.64,.64-.29,.64-.64Z"/>
      <path class="cls-5" d="M97.13,59.23c-.51,0-.92-.41-.92-.92s.41-.92,.92-.92,.92,.41,.92,.92-.41,.92-.92,.92Zm0-1.28c-.2,0-.36,.16-.36,.36s.16,.36,.36,.36,.36-.16,.36-.36-.16-.36-.36-.36Z"/>
    </g>
    <g>
      <rect class="cls-3" x="113.94" y="40.78" width=".49" height=".29"/>
      <rect class="cls-3" x="113.57" y="40.41" width="1.22" height="1.03"/>
    </g>
    <path class="cls-3" d="M108.99,74.48c.32,.32,.48,.7,.48,1.15s-.16,.83-.48,1.15-.7,.48-1.15,.48-.83-.16-1.15-.48c-.32-.32-.48-.7-.48-1.15s.16-.83,.48-1.15c.32-.32,.7-.48,1.15-.48s.83,.16,1.15,.48Z"/>
    <path class="cls-3" d="M101.53,62.28c0-.17,.08-.33,.24-.41,.22-.12,.5-.04,.62,.19,.41,.77,1,1.46,1.68,2,.2,.15,.23,.44,.08,.64-.16,.2-.44,.23-.64,.08-.79-.61-1.45-1.4-1.93-2.28-.03-.07-.05-.13-.05-.2Z"/>
    <path class="cls-3" d="M91.03,62.98c0-.17,.08-.33,.24-.41,.22-.12,.5-.04,.62,.19,.41,.77,1,1.46,1.68,2,.2,.15,.23,.44,.08,.64-.16,.2-.44,.23-.64,.08-.79-.61-1.45-1.4-1.93-2.28-.03-.07-.05-.13-.05-.2Z"/>
    <path class="cls-3" d="M102.1,59.73c.03-.16,.14-.31,.31-.37,.24-.08,.5,.05,.57,.29,.27,.83,.72,1.61,1.3,2.27,.17,.19,.15,.48-.04,.64-.19,.17-.48,.15-.64-.04-.66-.75-1.18-1.64-1.49-2.59-.02-.07-.03-.14-.02-.21Z"/>
    <path class="cls-3" d="M104.3,62.95c-.17,.01-.33-.06-.43-.22-.13-.21-.06-.5,.15-.63,.74-.46,1.4-1.08,1.9-1.8,.14-.21,.43-.26,.64-.12,.21,.14,.26,.43,.12,.64-.57,.82-1.32,1.53-2.17,2.05-.06,.04-.13,.06-.2,.07Z"/>
    <path class="cls-3" d="M89.3,67.98c-.17,.01-.33-.06-.43-.22-.13-.21-.06-.5,.15-.63,.74-.46,1.4-1.08,1.9-1.8,.14-.21,.43-.26,.64-.12,.21,.14,.26,.43,.12,.64-.57,.82-1.32,1.53-2.17,2.05-.06,.04-.13,.06-.2,.07Z"/>
    <path class="cls-3" d="M103.42,66.4c-.17,.01-.33-.06-.43-.22-.13-.21-.06-.5,.15-.63,.74-.46,1.4-1.08,1.9-1.8,.14-.21,.43-.26,.64-.12,.21,.14,.26,.43,.12,.64-.57,.82-1.32,1.53-2.17,2.05-.06,.04-.13,.06-.2,.07Z"/>
    <path class="cls-3" d="M95.87,65.03c.02,.17-.05,.34-.2,.44-.21,.14-.49,.08-.63-.13-.49-.73-1.13-1.36-1.87-1.82-.21-.14-.28-.42-.14-.63,.14-.21,.42-.28,.63-.14,.84,.54,1.58,1.26,2.14,2.09,.04,.06,.06,.13,.07,.2Z"/>
    <path class="cls-3" d="M92.1,67.98c-.17,.01-.33-.06-.43-.22-.13-.21-.06-.5,.15-.63,.74-.46,1.4-1.08,1.9-1.8,.14-.21,.43-.26,.64-.12,.21,.14,.26,.43,.12,.64-.57,.82-1.32,1.53-2.17,2.05-.06,.04-.13,.06-.2,.07Z"/>
    <path class="cls-3" d="M104.69,62.71c-.11,.13-.28,.19-.46,.15-.24-.06-.39-.31-.33-.55,.21-.85,.24-1.75,.1-2.61-.04-.25,.12-.48,.37-.53,.25-.04,.48,.12,.53,.37,.17,.98,.13,2.02-.11,2.98-.02,.07-.05,.13-.1,.19Z"/>
    <path class="cls-3" d="M92.31,65.14c.09,.14,.11,.32,.02,.48-.12,.22-.4,.3-.62,.18-.76-.43-1.62-.7-2.49-.78-.25-.02-.43-.25-.41-.5,.02-.25,.25-.43,.5-.41,.99,.09,1.98,.4,2.85,.89,.06,.04,.12,.09,.16,.14Z"/>
  </g>
  <g>
    <path class="cls-4" d="M69.24,82.34c-1.03,0-1.91,.37-2.63,1.1-.72,.73-1.08,1.61-1.08,2.65s.36,1.91,1.08,2.63c.72,.72,1.6,1.08,2.63,1.08,.62,0,1.12,.2,1.52,.59,.39,.39,.59,.9,.59,1.52s-.2,1.12-.59,1.5-.9,.57-1.52,.57c-2.21,0-4.07-.76-5.6-2.29-1.53-1.53-2.29-3.39-2.29-5.6s.76-4.1,2.27-5.63c1.52-1.53,3.39-2.29,5.62-2.29,.62,0,1.12,.2,1.52,.59s.59,.9,.59,1.52-.2,1.12-.59,1.5c-.39,.38-.9,.57-1.52,.57Z"/>
    <path class="cls-4" d="M80.9,94.04c-2.23,0-4.1-.76-5.62-2.29-1.52-1.53-2.27-3.4-2.27-5.63s.76-4.1,2.27-5.62,3.39-2.27,5.62-2.27,4.1,.76,5.63,2.27c1.53,1.52,2.29,3.39,2.29,5.62v5.79c0,.62-.2,1.12-.59,1.5-.39,.38-.9,.57-1.52,.57s-1.12-.19-1.5-.57c-.38-.38-.57-.88-.57-1.5v-5.79c0-1.03-.37-1.91-1.1-2.63s-1.61-1.08-2.65-1.08-1.91,.36-2.63,1.08c-.72,.72-1.08,1.6-1.08,2.63s.36,1.91,1.08,2.65c.72,.73,1.6,1.1,2.63,1.1,.62,0,1.12,.19,1.52,.57,.39,.38,.59,.88,.59,1.5s-.2,1.12-.59,1.52-.9,.59-1.52,.59Z"/>
    <path class="cls-4" d="M106.49,100.79h-.12c-1.9,0-3.49-.64-4.76-1.92s-1.92-2.87-1.92-4.77v-1.45l-.03-7.77c0-.68-.24-1.26-.73-1.75-.49-.48-1.07-.73-1.75-.73s-1.29,.24-1.78,.71c-.48,.47-.73,1.06-.73,1.76v7.02c0,.62-.2,1.12-.59,1.5s-.9,.57-1.52,.57-1.12-.19-1.5-.57c-.38-.38-.57-.88-.57-1.5v-7.02c0-1.88,.64-3.46,1.93-4.73,1.29-1.28,2.87-1.92,4.75-1.92s3.46,.64,4.75,1.92c1.29,1.28,1.93,2.86,1.93,4.73v9.22c0,.7,.24,1.29,.73,1.78s1.08,.73,1.78,.73h.12c.62,0,1.12,.2,1.52,.59,.39,.39,.59,.9,.59,1.52s-.2,1.12-.59,1.5c-.39,.38-.9,.57-1.52,.57Z"/>
    <path class="cls-4" d="M109.71,80.3c0-1.38-.7-2.07-2.1-2.07-.62,0-1.12,.19-1.5,.57s-.57,.88-.57,1.5v11.6c0,.62,.19,1.12,.57,1.5,.38,.38,.88,.57,1.5,.57s1.12-.19,1.52-.57,.59-.88,.59-1.5v-11.6Z"/>
  </g>
</svg>