<?xml version="1.0" encoding="UTF-8"?>
<svg id="Capa_1" data-name="Capa 1" xmlns="http://www.w3.org/2000/svg" xmlns:xlink="http://www.w3.org/1999/xlink" viewBox="0 0 170.08 113.39">
  <defs>
    <style>
      .cls-1, .cls-2, .cls-3, .cls-4, .cls-5, .cls-6, .cls-7 {
        fill: none;
      }

      .cls-8 {
        clip-path: url(#clippath);
      }

      .cls-9, .cls-10, .cls-11, .cls-2, .cls-4, .cls-12, .cls-13, .cls-14, .cls-15, .cls-7 {
        stroke: #191c17;
      }

      .cls-9, .cls-10, .cls-4, .cls-5, .cls-6, .cls-12, .cls-14, .cls-16 {
        stroke-miterlimit: 10;
      }

      .cls-9, .cls-12, .cls-13, .cls-14, .cls-16, .cls-7 {
        stroke-width: .28px;
      }

      .cls-17 {
        fill: #6a7286;
      }

      .cls-18 {
        fill: #0082be;
      }

      .cls-19 {
        fill: #687185;
      }

      .cls-20 {
        fill: #676f84;
      }

      .cls-21 {
        fill: #677084;
      }

      .cls-22 {
        fill: #677182;
      }

      .cls-23, .cls-24, .cls-25, .cls-26, .cls-12, .cls-13 {
        fill: #fff;
      }

      .cls-27 {
        fill: #6b7387;
      }

      .cls-28 {
        fill: #656d82;
      }

      .cls-29 {
        fill: #6c7488;
      }

      .cls-30, .cls-16 {
        fill: #9c9b99;
      }

      .cls-31 {
        fill: #848484;
      }

      .cls-32 {
        fill: #c27d7a;
      }

      .cls-33 {
        fill: #b8d1da;
      }

      .cls-34, .cls-35 {
        fill: #8dba38;
      }

      .cls-36 {
        fill: #666;
      }

      .cls-37 {
        fill: #666e83;
      }

      .cls-38 {
        fill: #737b8e;
      }

      .cls-39 {
        fill: #b1b1b1;
      }

      .cls-40 {
        fill: #a84d3f;
      }

      .cls-41 {
        fill: #acd3f0;
      }

      .cls-42 {
        fill: #bbb;
      }

      .cls-43 {
        fill: #dbe2ef;
      }

      .cls-44 {
        fill: #dfe1e0;
      }

      .cls-45 {
        fill: #424e66;
      }

      .cls-46 {
        fill: #434f67;
      }

      .cls-47 {
        fill: #434f66;
      }

      .cls-48 {
        fill: #404c64;
      }

      .cls-49 {
        fill: #414d65;
      }

      .cls-50 {
        fill: #36455e;
      }

      .cls-51 {
        fill: #355293;
      }

      .cls-52 {
        fill: #445068;
      }

      .cls-53 {
        fill: #445067;
      }

      .cls-54, .cls-14 {
        fill: #191c17;
      }

      .cls-55 {
        fill: #3e4b63;
      }

      .cls-56 {
        fill: #3e4a62;
      }

      .cls-57 {
        fill: #3f4b63;
      }

      .cls-58 {
        fill: #3d4a62;
      }

      .cls-59 {
        fill: #1a1d17;
      }

      .cls-60 {
        fill: #6e7689;
      }

      .cls-61 {
        fill: #70788c;
      }

      .cls-62 {
        fill: #717a8d;
      }

      .cls-63 {
        fill: #71798c;
      }

      .cls-64 {
        fill: #6f778b;
      }

      .cls-65 {
        fill: #465168;
      }

      .cls-66 {
        fill: #545d74;
      }

      .cls-67 {
        fill: #46526a;
      }

      .cls-68, .cls-11, .cls-15 {
        fill: #5380bc;
      }

      .cls-69 {
        fill: #6d7589;
      }

      .cls-70 {
        fill: #555e74;
      }

      .cls-71 {
        fill: #636b80;
      }

      .cls-72 {
        fill: #646c81;
      }

      .cls-73 {
        fill: #5b6477;
      }

      .cls-74 {
        fill: #5b647a;
      }

      .cls-75 {
        fill: #5a6379;
      }

      .cls-76, .cls-77 {
        fill: #295d8b;
      }

      .cls-78 {
        fill: #565f75;
      }

      .cls-79 {
        fill: #566076;
      }

      .cls-80 {
        fill: #565f73;
      }

      .cls-81 {
        fill: #636c7e;
      }

      .cls-82 {
        fill: #5c6578;
      }

      .cls-83 {
        fill: #5c657b;
      }

      .cls-84 {
        fill: #5c6679;
      }

      .cls-85 {
        fill: #4a556b;
      }

      .cls-86 {
        fill: #4a546a;
      }

      .cls-87 {
        fill: #485369;
      }

      .cls-88 {
        fill: #48536a;
      }

      .cls-89 {
        fill: #484946;
      }

      .cls-90 {
        fill: #475269;
      }

      .cls-91 {
        fill: #5a6477;
      }

      .cls-92 {
        fill: #35445d;
      }

      .cls-93 {
        fill: #3b4861;
      }

      .cls-94 {
        fill: #3a4760;
      }

      .cls-95 {
        fill: #34435c;
      }

      .cls-96 {
        fill: #596377;
      }

      .cls-97 {
        fill: #39475f;
      }

      .cls-98 {
        fill: #586278;
      }

      .cls-99 {
        fill: #586275;
      }

      .cls-100 {
        fill: #586175;
      }

      .cls-101 {
        fill: #3d4962;
      }

      .cls-102 {
        fill: #576177;
      }

      .cls-103 {
        fill: #576074;
      }

      .cls-104 {
        fill: #3c4961;
      }

      .cls-105 {
        fill: #626b7f;
      }

      .cls-106 {
        fill: #626b7d;
      }

      .cls-107 {
        fill: #616a7c;
      }

      .cls-108 {
        fill: #616a7e;
      }

      .cls-109 {
        fill: #616260;
      }

      .cls-110 {
        fill: #60697c;
      }

      .cls-111 {
        fill: #60697e;
      }

      .cls-112 {
        fill: #5f687b;
      }

      .cls-113 {
        fill: #5f687c;
      }

      .cls-114 {
        fill: #535d72;
      }

      .cls-115 {
        fill: #535c72;
      }

      .cls-116 {
        fill: #5d667c;
      }

      .cls-117 {
        fill: #545e73;
      }

      .cls-118 {
        fill: #747c8f;
      }

      .cls-119 {
        fill: #757e91;
      }

      .cls-120 {
        fill: #767e91;
      }

      .cls-121 {
        fill: #4b556c;
      }

      .cls-122 {
        fill: #5e677a;
      }

      .cls-123 {
        fill: #5e677b;
      }

      .cls-124 {
        fill: #4c566e;
      }

      .cls-125 {
        fill: #727b8d;
      }

      .cls-126 {
        fill: #4c566c;
      }

      .cls-127 {
        fill: #525c71;
      }

      .cls-128 {
        fill: #505a6f;
      }

      .cls-129 {
        fill: #505a71;
      }

      .cls-130 {
        fill: #4f596f;
      }

      .cls-131 {
        fill: #4f5971;
      }

      .cls-132 {
        fill: #4e241e;
      }

      .cls-133 {
        fill: #4d576e;
      }

      .cls-134 {
        fill: #4d576d;
      }

      .cls-135 {
        fill: #515b73;
      }

      .cls-136 {
        fill: #515b70;
      }

      .cls-137 {
        fill: #4e586f;
      }

      .cls-138 {
        fill: #4e586e;
      }

      .cls-139 {
        fill: #455169;
      }

      .cls-10 {
        fill: #ecf4f3;
      }

      .cls-10, .cls-11, .cls-24, .cls-2, .cls-3, .cls-4, .cls-5, .cls-6 {
        stroke-width: .4px;
      }

      .cls-11, .cls-24, .cls-2, .cls-3, .cls-13, .cls-15, .cls-7 {
        stroke-linecap: round;
        stroke-linejoin: round;
      }

      .cls-24 {
        stroke: #787978;
      }

      .cls-140 {
        clip-path: url(#clippath-1);
      }

      .cls-3, .cls-5 {
        stroke: #848484;
      }

      .cls-6 {
        stroke: #000;
      }

      .cls-25 {
        opacity: .5;
      }

      .cls-25, .cls-141, .cls-35, .cls-26 {
        fill-rule: evenodd;
      }

      .cls-142 {
        fill: url(#Degradado_sin_nombre_57);
      }

      .cls-141 {
        fill: #24526b;
      }

      .cls-16 {
        stroke: #9c9b99;
      }

      .cls-143 {
        fill: url(#Degradado_sin_nombre_57-2);
      }

      .cls-15 {
        stroke-width: .71px;
      }

      .cls-77 {
        opacity: .25;
      }
    </style>
    <clipPath id="clippath">
      <path class="cls-1" d="M93.16,60.02c.14-.04,.29-.08,.44-.1,1.4-.19,2.69,.79,2.88,2.19,.17,1.25-.59,2.41-1.75,2.78-.14,.04-.29,.08-.44,.1-1.4,.19-2.69-.79-2.88-2.19-.17-1.25,.59-2.41,1.75-2.78m-.03-.11l.03,.11-.03-.11h0c-1.23,.39-2,1.61-1.83,2.9,.2,1.46,1.54,2.48,3,2.28,.15-.02,.31-.06,.46-.1,1.23-.39,2-1.61,1.83-2.9-.1-.71-.46-1.33-1.03-1.76-.57-.43-1.27-.62-1.97-.52-.15,.02-.31,.06-.45,.1h0Z"/>
    </clipPath>
    <linearGradient id="Degradado_sin_nombre_57" data-name="Degradado sin nombre 57" x1="234.68" y1="-953.39" x2="234.68" y2="-948.23" gradientTransform="translate(280.9 1023.78) rotate(-24.87)" gradientUnits="userSpaceOnUse">
      <stop offset="0" stop-color="#d4dce7"/>
      <stop offset=".11" stop-color="#d1d9e5" stop-opacity=".98"/>
      <stop offset=".24" stop-color="#cbd3df" stop-opacity=".92"/>
      <stop offset=".38" stop-color="#c0c8d6" stop-opacity=".81"/>
      <stop offset=".53" stop-color="#b1bac9" stop-opacity=".67"/>
      <stop offset=".69" stop-color="#9da6b8" stop-opacity=".48"/>
      <stop offset=".84" stop-color="#8590a4" stop-opacity=".26"/>
      <stop offset="1" stop-color="#6b768e" stop-opacity="0"/>
    </linearGradient>
    <linearGradient id="Degradado_sin_nombre_57-2" data-name="Degradado sin nombre 57" x1="234.68" y1="-952.68" x2="234.68" y2="-948.94" xlink:href="#Degradado_sin_nombre_57"/>
    <clipPath id="clippath-1">
      <path class="cls-1" d="M93.56,61.25c.24-.08,.51-.08,.77,0,.66,.21,1.03,.92,.82,1.59-.13,.41-.44,.7-.82,.82-.24,.08-.51,.08-.77,0-.66-.21-1.03-.92-.82-1.59,.13-.41,.44-.7,.82-.82m-.04-.13h0c-.43,.14-.77,.48-.91,.91-.11,.36-.08,.74,.09,1.07,.17,.33,.46,.58,.82,.69,.28,.09,.57,.09,.85,0,.43-.14,.77-.48,.91-.91,.23-.74-.17-1.53-.91-1.76-.28-.09-.57-.09-.85,0h0Z"/>
    </clipPath>
  </defs>
  <path class="cls-15" d="M82.36,95.19c-.28-2.73-1.29-4.9-2.43-7.29s-2.92-5.92-4.08-7.64c-1.17-1.72-3.07-4.63-4.36-6.57-1.29-1.93-2.21-3.56-3.47-5.77-1.26-2.21-3.62-7.4-3.62-7.4,0,0-2.54-.81-4.75-2.74-2.21-1.93-4.22-3.73-6-6.49-1.78-2.76-3.56-6.31-3.78-8.68-.21-2.36,0-5.05,1.6-4.65s3.78,2.27,5.19,3.47c1.41,1.2,5.09,4.08,5.09,4.08,0,0,.05-6.7,1.2-12.68,1.89-9.84,6.14-12.95,6.14-12.95,0,0-.58-3.1-1.35-4.91-.77-1.81-2.49-4.54-2.92-6.17-.43-1.63-.52-3.81,1.26-3.71s5.19,1.07,6.81,1.87c1.63,.8,3.31,1.9,4.45,2.64s3.47,2.73,3.47,2.73c0,0,8.27-1.81,13.14,.15,1.75,.7,10.2,3.35,11.91,13.23,.3,1.72,.46,5.74,.46,5.74,0,0,2.81,1.4,3.68,2.55,.76,1.01,1.07,2.52,.86,3.44s-1.22,2.51-2.61,3.16c-1.46,.69-4.02,1.17-4.02,1.17,0,0-1.6,4.79-1.62,6.48-.01,1.03,.52,3.04,.55,4.02,.03,.98,.03,1.9-.8,2.61s-2.49,1.2-2.49,1.2c0,0-2.16,6.91-2.56,11.36-.2,2.24-.41,4.23-1.56,9.78-1.7,8.17-.38,11.45-1.64,18.36-.74,4.08-4.17,10.17-10.12,11.87-3.18,.91-4.85,.86-8.43,0-5.47-1.31-9.2-4.58-9.2-4.58,0,0-2.76,3.68-8.17,3.86-4.79,.16-7.82-.38-9.48-2.3-.47-.54-1.3-2.45,.34-2.82,3.97-.91,3.67-2.86,7.5-3.78,1.93-.46,5.68-.66,6.33-1.33,.94-.96,.3-3.37,1.42-4.84,1.58-2.07,3.03-2.63,3.14-4.85,.05-1.11,.98-2.74,1.87-1.41,1.22,1.81,2.83,3.15,3.16,6.39,.21,2.01,1.09,4.71-1.08,7.12-1.9,2.11-2.56,2.11-2.56,2.11,0,0,2.72,.94,4.22,.94,8.81,0,9.58-3.89,9.29-6.75Z"/>
  <path class="cls-10" d="M104.24,41.77s6.39-.57,6.69-5.07c.21-3.16-4.61-5.24-4.61-5.24,0,0-2.11-.51-4.3-.32s-4.76,1.34-7.02,1.56c-2.27,.22-4.16-.3-6.54-2.15-2.38-1.86-4.38-2.7-5.85-2.68-2.55,.04-6.94,1.14-9.01,2.94-8.13,7.13-5.72,18.7-5.72,18.7,0,0-1,1.16-.22,4.14,.3,1.16-15.69-14.61-17.03-14.7-1.13-.08-1.39,4.15,.2,7.56,2.03,4.33,5.51,8.85,8.68,11.15,6.23,4.51,9.88,3.05,10.01,3.49,.78,2.51,1.6,4.8,2.33,6.13,2.33,4.27,1.29,7.57,3.28,11.4s3.62,1.61,4.99,6.38c.46,1.62,3.7-3.46,5.51,9.08,.35,2.4,1.45,7.93-5.04,10.95-4.37,2.04-12.73-1.28-12.57-1.02,.36,.61,2.23,3.24,11.62,4.21,.79,.08,3.18-.04,5.63-1.2,3.73-1.76,7.91-5.62,9.33-12.58,.75-3.68,.32-8.48-.43-11.81-2.14-9.45-1.35-2.01-.38-7.58,.82-4.72,3.87-8.69,4.44-11.58,1.13-5.74,1-7.23,1-7.23,0,0,2.95-.74,3.67-2.05,.81-1.47-.03-4.66-.04-6.09,0-1.03,.61-3.76,.61-3.76l.78-2.62Z"/>
  <path class="cls-33" d="M102.55,48.74s.93,4.12-1.05,5.11-2.92,.82-4.97,.46c-1.84-.32-2.35-.71-2.92-1.88s-1.65-3.16-3.34-3.42c-1.69-.26-4.79-.08-7.55-.66-2.76-.59-4.62-1.82-6.18-2.5s.11,1.27,1.93,2.61c1.79,1.32,4.36,2.67,5.87,2.89,1.51,.21,5.09,.6,6.1,1.84,1.02,1.25,1.4,2.54,2.73,3.36,1.33,.82,5.28,1.08,5.28,1.08l.69-1.61s1.97-.36,2.68-1,1.37-1.35,1.28-3.25c-.07-1.5-.55-3.02-.55-3.02Z"/>
  <path class="cls-54" d="M86.37,18.91s2.16-1.72,3.09-2.04,1.95-.75,2.32-.39,.63,.98,.38,1.03-1.7,.03-2.38,.23-1.49,.33-2.16,.63-1.25,.54-1.25,.54Z"/>
  <path class="cls-12" d="M88.62,30.32s2.44-2.65,2.69-4.77c.25-2.12,.11-4.15-.55-4.79s-2.59-1.17-3.85-.03c-1.26,1.14-2.61,2.74-2.81,5.43-.06,.8,0,1.85,0,1.85l1.38,.56,1.03,.58,1.37,.94,.58,.44,.15-.22Z"/>
  <path class="cls-51" d="M85.14,28.22s-.64-1.69-.22-3.2c.45-1.62,1.24-2.55,1.93-2.87s1.88-.47,2.3,.21c.41,.68,.64,1.72,.47,2.56s-.35,1.52-.86,2.36c-.46,.75-.81,1.05-1.36,1.38l-.67,.4s-.67-.38-.9-.49c-.17-.09-.68-.33-.68-.33Z"/>
  <path class="cls-11" d="M116.9,58.75c.02-.11,.03-.21,.04-.32,0-.03,0-.05,0-.08,.01-.31,.02-.62,.04-.93-.09,.41-.11,.87-.09,1.32Z"/>
  <path class="cls-11" d="M116.53,58.61c0-.48,.03-1.07,.19-1.59-1.9-.39-5.06-.07-8.38,.15-4.08,.28-8.43-.52-8.43-.52,0,0-.53,1.55-.99,3.47-.46,1.93-1.31,6.67-1.31,6.67,0,0,.74,.31,1.64,.49,.9,.18,3.19,.42,6.83-.13,2.45-.37,4.62-.89,7.16-2.05,1.25-.57,2.27-1.03,3.32-1.81,.01-.77,.04-1.54,.1-2.32-.08-.79-.15-1.57-.13-2.37Z"/>
  <path class="cls-10" d="M116.83,60.49c.11-.71-.33-1.64-.24-2.34-2.95-.26-7.53,.8-8.9,.89-1.95,.13-8.24,.12-8.24,.12l-1.85,7.71s1.89,.62,5.5,.6c2.34-.01,5.74-.68,8.34-1.63,1.39-.51,3.2-1.57,4.88-2.85,.02-.82,.36-1.7,.49-2.5Z"/>
  <path class="cls-43" d="M112.98,57.17s-3.67,.78-6.24,.88c-2.57,.1-4.11,.15-5.47,0s-1.45-.21-1.45-.21l.29-.84s1.05,.26,3.85,.49,9.01-.32,9.01-.32Z"/>
  <path class="cls-43" d="M73.35,54.28s2.11,.84,1.07,.69-3.44-.74-5.37-1.93-3.84-2.66-4.94-3.46c-1.1-.8-3.41-2.84-3.95-3.3s-.84-1.13,.16-.38,3.74,2.73,4.73,3.48,3.41,2.49,4.22,2.93,4.08,1.97,4.08,1.97Z"/>
  <path class="cls-43" d="M79.99,12.55c-.62-.64-2.39-1.97-3.94-2.98-1.59-1.04-4-2.27-5.24-2.72-1.12-.4-1.63-.53-2.2-.69-.21-.06-1.88-.33,.69,.5,2.6,.83,3.8,1.54,5.32,2.43,1.43,.84,4.75,3.24,5.06,3.59,.26,.29,.78,.36,.3-.13Z"/>
  <path class="cls-54" d="M102.78,21.46s-1.13-1.21-1.99-1.64-1.43-.71-1.43-.71c0,0-.5-.2-.27-.5s.86-.6,1.24-.26,.87,.92,1.28,1.36,1.18,1.75,1.18,1.75Z"/>
  <path class="cls-13" d="M104.89,30.99s.29-2.84-.07-4.16c-.36-1.32-1.08-2.51-1.73-2.99-.58-.43-1.48-.66-2.2-.22-.64,.39-1.12,1.09-1.27,1.92s-.05,2.99,.17,4.02c.08,.37,.43,1.69,.43,1.69l2.56-.14,2.04,.27,.07-.37Z"/>
  <path class="cls-51" d="M103.47,30.87s.6-2.27,.36-3.49-.91-2.24-1.42-2.54-.96-.31-1.29-.11-.73,.64-.87,1.01-.26,.72-.3,.98c-.09,.64-.13,1.78,.02,2.58,.07,.41,.41,1.75,.41,1.75l3.05-.06,.05-.11Z"/>
  <ellipse class="cls-54" cx="101.87" cy="28.4" rx="1.34" ry="2.4"/>
  <ellipse class="cls-54" cx="87.16" cy="25.55" rx="2.49" ry="1.51" transform="translate(27.46 94.01) rotate(-65.24)"/>
  <circle class="cls-23" cx="102.06" cy="26.37" r=".75"/>
  <circle class="cls-23" cx="87.67" cy="23.4" r=".75"/>
  <ellipse class="cls-23" cx="101.33" cy="30.69" rx=".45" ry=".51"/>
  <ellipse class="cls-23" cx="86.62" cy="27.84" rx=".45" ry=".51"/>
  <path class="cls-76" d="M65.52,5.69c.8,1.19,1.82,2.41,3.3,3.67,1.47,1.26,3.81,3.58,4.65,4.95,.35,.57,.5,.97,.5,.97,0,0-1.5,.76-2.53,1.8-1.41,1.41-1.77,2.91-1.77,2.91,0,0-.23-1.29-.32-1.59-.64-2.25-.84-3.11-1.22-3.93-.62-1.34-1.35-2.58-1.81-3.53-.56-1.18-1.05-2.02-1.16-3.28-.08-.81-.04-1.23,.12-1.59,.15-.34,.28-.32,.28-.32,0,0-.08-.12-.04-.05Z"/>
  <path class="cls-76" d="M69.46,20.27s-4,6.86-5.2,12.31c-1.21,5.49-.77,13.89-.77,13.89l-1.5-1.01s.3-9.31,1.56-13.71c1.43-5.01,2.51-6.87,3.29-8.21,1.32-2.27,2.63-3.26,2.63-3.26Z"/>
  <path class="cls-42" d="M116.64,61.24c-.38,.29-.78,.57-1.18,.8-1.63,.93-4.02,2.13-7.03,2.81-3.12,.71-4.6,.78-6.83,.66-2.24-.12-3.3-.24-3.3-.24l-.38,1.39s5.32,1.23,10.21-.15c1.05-.3,2.95-.73,4.76-1.54,1.42-.63,2.74-1.54,3.69-2.31,.01-.47,.03-.95,.06-1.42Z"/>
  <path class="cls-11" d="M75.38,56.02c-.95,1.42-3.21,.09-6.8-1.62-3.74-1.78-8.19-5.49-9.77-7.3-2.57-2.97-4.2-4.58-5.23-5.54s-3.54-2.16-3.54-2.16c0,0,.31-1.75,1.28-1.43,4.29,1.4,10.18,8.63,15.6,11.01,2.05,.9,4.95,2.41,7.77,4.47,.43,.31,1.14,1.89,.68,2.58Z"/>
  <path class="cls-2" d="M74.46,58.07s1.66-2.37,.73-3.92c-.78-1.29-5.89-3.8-9.56-5.91-2.32-1.33-3.94-2.79-3.94-2.79"/>
  <path class="cls-2" d="M71.26,60.48s-1.75,.86-2.95,.86c-1.92,0-4.23-.96-4.23-.96"/>
  <path class="cls-7" d="M83.74,33.24s-1.29,.03-1.95,1.13c-.48,.79-.3,1.93-.3,1.93"/>
  <path class="cls-4" d="M99.8,41.82s.61,2.11,1.05,3.08,2.07,3.96,2.07,3.96"/>
  <path class="cls-2" d="M99.23,56.28s-1.82,.22-3.26-.11c-1.62-.37-3.25-1.21-3.47-2.79-.29-2.11-1.66-3.24-1.66-3.24"/>
  <path class="cls-2" d="M92.5,53.38s-.87-.87-2.15-1.43c-1.6-.71-5.14-1.2-7.45-2.15-3.32-1.36-6.72-3.82-6.72-3.82"/>
  <path class="cls-43" d="M94.41,13.58c.1,.04,1.64,.78,0,.43-3.79-.83-6.92-1.16-11.4-.52-2.77,.4-5.89,1.83-7.96,2.94-2.08,1.11-2.56,1.52-3.44,2.01-.21,.12-2.55,1.38,.43-.76,2.98-2.14,7.79-4.33,11.62-4.83,2.48-.32,4.3-.51,6.45-.21s3.23,.58,4.29,.95Z"/>
  <path class="cls-132" d="M98.59,41.86l1.22,3.92,1.37,3.73v1.37s-.61,.88-.61,.88l-.89,.23-.42-.23-.18-2.52s-.73-3.16-.77-3.27-1.34-3.41-1.34-3.41l-.37-.9,1.25-.02,.74,.21Z"/>
  <polygon class="cls-32" points="96.32 41.47 93.63 40.89 89.9 39.94 87.7 39.09 89.03 40.74 91.06 43.5 93.01 46.27 94.99 49.13 96.01 50.54 98.1 51.76 99.1 52 99.1 50.85 98.59 47.18 97.84 44.79 96.32 41.47"/>
  <path class="cls-2" d="M96.59,41.51s1.7,4.26,2.06,5.52c.73,2.52,.58,4.96,.58,4.96"/>
  <path class="cls-2" d="M98.55,41.71s.72,2.78,1.34,4.27c.61,1.49,1.4,3.43,1.4,4.32,0,1.07-.49,1.51-1.37,1.65-1.45,.23-3.55-.72-4.36-1.97-.84-1.3-3.86-5.59-4.73-6.82-.88-1.25-2.34-3.16-2.9-3.81l-.56-.65"/>
  <path class="cls-10" d="M104.55,41.73s-2.92,.21-5.7,0c-2.78-.21-7.44-.77-10.72-2.63-3.28-1.86-6.08-4.87-6.08-4.87"/>
  <path class="cls-40" d="M94.29,42.95c-.89-1.4-1.36-1.78-1.36-1.78l.37,.09s.58,.7,1.1,1.63,.92,1.99,1.14,2.49"/>
  <path class="cls-6" d="M78.54,83.33s1.18,.57,3.45,.28c1.37-.18,2.55-1.18,2.55-1.18l-1.2-8.06s-1.31,.68-3.03,.83c-1.59,.14-3.76-.23-3.76-.23l1.99,8.35Z"/>
  <path class="cls-24" d="M52,49.92c-.02,1.85,1.76,3.47,4.02,6.23,2.66,3.25,8.75,7.41,8.75,7.41-.06-.22,.98,.68,2.89,6.11,1.76,5,3.66,6.08,5.37,11.22,.99,2.97,.11,8.08,2.17,9.27,2.48,1.43,10.8-3.82,10.8-3.82,0,0-1.07-17.39-1.47-24.96-.14-2.71-2.28-8.1-4.21-10.02-2.42-2.4-8.01-4.4-11.33-7.57-3.32-3.17-6.37-9.03-6.37-9.03,0,0-.94,1.78-1.51,3.93-.65,2.46,0,5.62,0,5.62,0,0-1.69-2.29-2.53-2.23-2.55,.19-6.57,5.27-6.59,7.83Z"/>
  <path class="cls-24" d="M110.55,67.47c-.66,.83-1.54,.72-4.14,.93-2.6,.21-7.92-.07-7.92-.07,0,0-.91,2.75-.88,5.7,.03,2.95,.31,3.96,.31,8.1,0,2.17,0,3.95-.98,4.62-1.86,1.28-9.05,.13-9.05,.13,0,0-.81-18.14-.97-25.49-.03-1.48,1.6-4.26,2.64-5.31,.63-.64,2.94-1.5,2.94-1.5,0,0,1.13,1.41,2.4,1.9s3.22,.38,4.53,.14,2.77,.34,5.11,.21c2.34-.14,4.74-1.51,5.84-.54,2.1,1.84,1.9,8.99,.16,11.18Z"/>
  <path class="cls-24" d="M84.64,66s-2.44-3.85-5.15-7.24c-2.71-3.39-2.95-3.43-2.95-3.43l2.32-.97s-7.05-4.9-11.2-8.66c-3.59-3.26-6.28-7.87-6.28-7.87"/>
  <polyline class="cls-3" points="94.83 56.52 91.22 58.42 93.36 59.41 87.08 66.46"/>
  <path class="cls-24" d="M75.85,83.9s1.18,.57,3.45,.28c1.37-.18,2.55-1.18,2.55-1.18l-1.2-8.06s-1.31,.68-3.03,.83c-1.59,.14-3.76-.23-3.76-.23l1.99,8.35Z"/>
  <path class="cls-5" d="M52.12,50.79s1.85-2.93,3.17-4.62c1.91-2.46,4.53-3.34,4.53-3.34"/>
  <path class="cls-24" d="M74.2,76.81s2.4,.34,3.66,.19c1.18-.14,2.77-.87,2.77-.87"/>
  <g>
    <path class="cls-35" d="M114.6,43.43l3.3,.22,3.36,.62c.46,.08,.77,.51,.71,.98l-.02,.14c-.06,.47-.47,.8-.94,.77l-3.38-.27-3.26-.57c-.46-.08-.78-.51-.72-.98l.02-.15c.06-.46,.47-.8,.93-.77Z"/>
    <g>
      <rect class="cls-31" x="112.48" y="50.02" width="9.25" height=".56" transform="translate(52.49 160.15) rotate(-82.78)"/>
      <path class="cls-141" d="M115.15,66.47h-.08c-.57-.08-1.41-.66-1.3-1.22l1.14-5.8h0l.53-4.19c.04-.29,.31-.5,.6-.46l.94,.12c.35,.04,.59,.36,.55,.71l-.52,4.09-.43,5.93c-.04,.55-.89,.9-1.44,.83Z"/>
      <path class="cls-26" d="M117.48,46.08s.04-.06,.07-.06,.06,.04,.06,.07l-1.04,8.21s-.04,.06-.07,.06-.06-.04-.06-.07l1.04-8.21Z"/>
      <path class="cls-25" d="M118.82,43.82c-.87,.86-2.11,1.32-3.42,1.15-.65-.08-1.25-.31-1.76-.65l.02-.13c.06-.46,.47-.8,.93-.77l3.3,.22,.93,.17Z"/>
    </g>
  </g>
  <g>
    <g>
      <path class="cls-18" d="M74.78,59.26c-.08-.17-.22-.17-.39-.16,.09-.05,.15-.11,.15-.21,0-.1-.06-.16-.13-.22,.07,.02,.14,.05,.21,.02,.08-.03,.1-.1,.11-.18,.05,.15,.15,.21,.3,.2-.06,.04-.1,.09-.12,.15-.02,.06,0,.12,.08,.17-.07,0-.13,.01-.17,.06-.04,.05-.05,.1-.05,.17Z"/>
      <path class="cls-18" d="M74.52,60.22c.16,.09,.28,0,.41-.1-.04,.09-.05,.18,0,.26,.05,.08,.14,.1,.23,.11-.07,.02-.14,.04-.18,.11-.04,.07-.02,.14,.01,.22-.13-.1-.25-.09-.36,.01,.02-.06,.03-.13,0-.19-.02-.06-.08-.1-.16-.1,.05-.04,.09-.08,.1-.15,0-.06-.02-.12-.06-.17Z"/>
      <path class="cls-18" d="M74.03,62.46c.05-.18-.05-.28-.18-.37,.1,.02,.18,.01,.25-.06,.07-.07,.06-.16,.05-.25,.04,.06,.07,.13,.14,.15,.08,.03,.14,0,.21-.06-.06,.15-.03,.26,.09,.35-.07,0-.13,0-.19,.04-.05,.04-.08,.1-.06,.18-.05-.04-.1-.07-.17-.07-.06,0-.11,.04-.15,.09Z"/>
      <path class="cls-18" d="M73.74,60.36c.16,.09,.28,0,.41-.1-.04,.09-.05,.18,0,.26,.05,.08,.14,.1,.23,.11-.07,.02-.14,.04-.18,.11-.04,.07-.02,.14,.01,.22-.13-.1-.25-.09-.36,.01,.02-.06,.03-.13,0-.19-.02-.06-.08-.1-.16-.1,.05-.04,.09-.08,.1-.15,0-.06-.02-.12-.06-.17Z"/>
      <path class="cls-18" d="M75.18,59.21c.04-.13-.04-.2-.14-.28,.07,.02,.14,0,.19-.04,.05-.05,.04-.12,.04-.19,.03,.05,.05,.09,.11,.11,.06,.02,.1,0,.15-.05-.05,.11-.02,.19,.07,.26-.05,0-.1,0-.14,.03-.04,.03-.06,.07-.04,.13-.04-.03-.08-.05-.12-.05-.05,0-.08,.03-.11,.07Z"/>
      <path class="cls-18" d="M73.87,57.77c.02-.21-.12-.31-.3-.39,.12,0,.22-.03,.28-.12,.06-.1,.04-.2,0-.3,.06,.06,.11,.13,.2,.14,.1,.01,.16-.04,.23-.12-.04,.18,.03,.3,.19,.38-.08,0-.15,.03-.21,.09-.05,.05-.06,.13-.03,.22-.07-.04-.13-.06-.21-.04-.07,.02-.12,.07-.15,.14Z"/>
      <path class="cls-18" d="M73.55,58.72c-.02-.13-.12-.16-.24-.18,.07-.02,.12-.05,.14-.12,.02-.07-.01-.12-.05-.18,.04,.03,.09,.06,.14,.05,.06,0,.09-.05,.11-.11,0,.12,.06,.18,.17,.19-.05,.02-.09,.04-.11,.09-.02,.04-.02,.09,.02,.13-.05-.01-.09-.01-.13,.01-.04,.03-.06,.06-.07,.11Z"/>
      <path class="cls-18" d="M72.08,64.12c-.37,0-.71-.21-.89-.54-.02-.03-.05-.06-.08-.07-.44-.12-.74-.51-.74-.97,0-.07,0-.14,.02-.2,.01-.06-.02-.12-.08-.15-.31-.14-.51-.45-.51-.79,0-.15,.04-.3,.12-.43,.2,.17,.46,.28,.74,.28,.07,0,.13-.06,.13-.13s-.06-.13-.13-.13c-.47,0-.86-.39-.86-.86,0-.26,.11-.5,.31-.66,.04-.04,.06-.1,.04-.15-.04-.1-.06-.21-.06-.32,0-.47,.39-.86,.86-.86s.86,.39,.86,.86c0,.07,.06,.13,.13,.13s.13-.06,.13-.13c0-.6-.47-1.09-1.05-1.12-.05-.09-.08-.19-.08-.3,0-.24,.14-.44,.35-.53,0,0,.02,0,.02,0,.06-.02,.13-.04,.2-.04,.22,0,.42,.12,.52,.32,.03,.07,.11,.09,.18,.06,.07-.03,.09-.11,.06-.18-.11-.23-.32-.39-.56-.45,.34-.21,.67-.32,.94-.32,.24,0,.43,.19,.43,.43v1.72c-.12-.09-.27-.15-.43-.15-.07,0-.13,.06-.13,.13s.06,.13,.13,.13c.24,0,.43,.19,.43,.43v3.2c-.17-.21-.4-.37-.67-.45-.07-.02-.14,.02-.16,.09-.02,.07,.02,.14,.09,.16,.44,.12,.74,.51,.74,.97,0,.55-.45,1-1,1h0Z"/>
      <path class="cls-23" d="M72.6,62.48m-.64-1.02s.02-.07,.02-.11c0-.05-.03-.1-.09-.11s-.1,.03-.11,.09c-.04,.35-.36,.61-.71,.57-.05,0-.1,.03-.11,.09s.03,.1,.09,.11c.35,.04,.68-.14,.84-.43m.72,.83"/>
      <path class="cls-23" d="M69.62,59.72m1.17,.32s.04,.07,.06,.1c.03,.04,.09,.05,.14,.02s.05-.09,.02-.14c-.21-.29-.15-.69,.14-.9,.04-.03,.05-.09,.02-.14s-.09-.05-.14-.02c-.29,.21-.4,.56-.32,.89m-1.09-.12"/>
      <path class="cls-23" d="M72.78,62.15m-1.13,.42s-.07-.03-.1-.04c-.05-.02-.11,.01-.13,.06s.01,.11,.06,.13c.34,.11,.52,.48,.41,.81-.02,.05,.01,.11,.06,.13s.11-.01,.13-.06c.11-.33,0-.69-.25-.91m.96-.53"/>
      <path class="cls-23" d="M73.37,59.57m-1.13,.42s-.07-.03-.1-.04c-.05-.02-.11,.01-.13,.06s.01,.11,.06,.13c.34,.11,.52,.48,.41,.81-.02,.05,.01,.11,.06,.13s.11-.01,.13-.06c.11-.33,0-.69-.25-.91m.96-.53"/>
      <path class="cls-23" d="M73.37,58.37m-.53-.84s.01-.06,.02-.09c0-.05-.03-.09-.07-.09s-.09,.03-.09,.07c-.03,.29-.3,.5-.59,.47-.04,0-.09,.03-.09,.07s.03,.09,.07,.09c.29,.03,.56-.12,.69-.36m.59,.68"/>
      <g>
        <path class="cls-18" d="M75.97,59.09h-.05v-.13c0-.48-.39-.87-.87-.87h-.63v-.05h.63c.51,0,.92,.41,.92,.92v.13Z"/>
        <path class="cls-18" d="M76,59.13h-.13v-.16c0-.46-.37-.83-.83-.83h-.67v-.13h.67c.53,0,.96,.43,.96,.96v.16Z"/>
      </g>
      <g>
        <path class="cls-18" d="M75.09,62.2h-.88v-.05h.88c.2,0,.36-.16,.36-.36s-.16-.36-.36-.36h-.09v-.05h.09c.23,0,.42,.19,.42,.42s-.19,.42-.42,.42Z"/>
        <path class="cls-18" d="M75.09,62.24h-.92v-.13h.92c.18,0,.32-.15,.32-.32s-.15-.32-.32-.32h-.13v-.13h.13c.25,0,.46,.2,.46,.46s-.2,.46-.46,.46Z"/>
      </g>
      <g>
        <path class="cls-18" d="M73.61,58.51h-.05c0-.3,.21-.47,.58-.47h1.02c.11,0,.34-.08,.34-.34,0-.14-.12-.34-.38-.34h-1.06v-.05h1.06c.29,0,.43,.23,.43,.39s-.12,.39-.39,.39h-1.02c-.34,0-.53,.15-.53,.41Z"/>
        <path class="cls-18" d="M73.65,58.55h-.13v-.04c0-.32,.23-.51,.62-.51h1.02c.1,0,.3-.07,.3-.3,0-.12-.11-.3-.34-.3h-1.1v-.13h1.1c.32,0,.47,.26,.47,.43s-.13,.43-.43,.43h-1.02c-.22,0-.49,.07-.49,.38v.04Z"/>
      </g>
      <g>
        <path class="cls-18" d="M74.72,59.71h-.73v-.05h.73c.2,0,.36-.16,.36-.36s-.16-.36-.36-.36v-.05c.23,0,.42,.19,.42,.42s-.19,.42-.42,.42Z"/>
        <path class="cls-18" d="M74.72,59.75h-.77v-.13h.77c.18,0,.32-.15,.32-.32s-.15-.32-.32-.32h-.04v-.13h.04c.25,0,.46,.2,.46,.46s-.2,.46-.46,.46Z"/>
      </g>
      <g>
        <path class="cls-18" d="M74.87,61.42h-.88c-.23,0-.42-.19-.42-.42s.19-.42,.42-.42v.05c-.2,0-.36,.16-.36,.36s.16,.36,.36,.36h.88v.05Z"/>
        <path class="cls-18" d="M74.91,61.46h-.92c-.25,0-.46-.2-.46-.46s.2-.46,.46-.46h.04v.13h-.04c-.18,0-.32,.15-.32,.32s.15,.32,.32,.32h.92v.13Z"/>
      </g>
      <g>
        <path class="cls-18" d="M75,63.48c.2,0,.36,.16,.36,.36v-.06s.05,0,.05,0v.06c0-.23-.19-.42-.42-.42"/>
        <path class="cls-18" d="M74.86,63.56s.09-.03,.14-.03c.18,0,.32,.15,.32,.32v.2s.13,0,.13,0v-.2c0-.25-.2-.46-.46-.46-.04,0-.08,0-.12,.02"/>
      </g>
      <g>
        <path class="cls-18" d="M73.25,61.85h-.05v-4.52c0-.48,.39-.87,.87-.87s.87,.39,.87,.87h-.05c0-.45-.37-.82-.82-.82s-.82,.37-.82,.82v4.52Z"/>
        <path class="cls-18" d="M73.29,61.89h-.13v-4.56c0-.5,.41-.91,.91-.91s.91,.41,.91,.91v.04h-.13v-.04c0-.43-.35-.78-.78-.78s-.78,.35-.78,.78v4.56Z"/>
      </g>
      <g>
        <path class="cls-18" d="M73.25,58.69h-.05s0,4.52,0,4.52c0,.48,.39,.87,.87,.87s.87-.39,.87-.87h-.05c0,.45-.37,.82-.82,.82s-.82-.37-.82-.82v-4.52Z"/>
        <path class="cls-18" d="M73.29,58.65h-.13s0,4.56,0,4.56c0,.5,.41,.91,.91,.91s.91-.41,.91-.91c0,0,0-.19,0-.25,0-.11,.08-.42,.08-.42h-.13s-.07,.31-.08,.42c0,.06,0,.25,0,.25,0,.43-.35,.78-.78,.78s-.78-.35-.78-.78v-4.56Z"/>
      </g>
      <g>
        <path class="cls-18" d="M75,61.42h-1.03v-.05h1.03c.57,0,1.04-.47,1.04-1.04h.05c0,.6-.49,1.09-1.09,1.09Z"/>
        <path class="cls-18" d="M75,61.46h-1.07v-.13h1.07c.55,0,1-.45,1-1v-.04h.13v.04c0,.62-.51,1.13-1.13,1.13Z"/>
      </g>
      <g>
        <path class="cls-18" d="M73.25,60.12h-.05c0-.26,.21-.46,.46-.46h.82v.05h-.82c-.23,0-.41,.18-.41,.41Z"/>
        <path class="cls-18" d="M73.29,60.16h-.13v-.04c0-.28,.23-.5,.5-.5h.86v.13h-.86c-.21,0-.37,.17-.37,.37v.04Z"/>
      </g>
      <g>
        <path class="cls-18" d="M74.23,62.96h-.61v-.05h.61c.19,0,.35-.16,.35-.35s-.16-.35-.35-.35v-.05c.22,0,.4,.18,.4,.4s-.18,.4-.4,.4Z"/>
        <path class="cls-18" d="M74.23,63h-.65v-.13h.65c.17,0,.31-.14,.31-.31s-.14-.31-.31-.31h-.04v-.13h.04c.24,0,.44,.2,.44,.44s-.2,.44-.44,.44Z"/>
      </g>
      <g>
        <path class="cls-18" d="M75.55,60.52h-.8v-.05h.8c.4,0,.73-.33,.73-.73s-.33-.73-.73-.73h-.24v-.05h.24c.43,0,.78,.35,.78,.78s-.35,.78-.78,.78Z"/>
        <path class="cls-18" d="M75.55,60.56h-.83v-.13h.83c.38,0,.69-.31,.69-.69s-.31-.69-.69-.69h-.28v-.13h.28c.45,0,.82,.37,.82,.82s-.37,.82-.82,.82Z"/>
      </g>
      <g>
        <path class="cls-23" d="M74.06,60.61s-.03-.07-.07-.07-.07,.03-.07,.07,.03,.07,.07,.07,.07-.03,.07-.07Z"/>
        <path class="cls-23" d="M73.99,60.71c-.06,0-.1-.05-.1-.1s.05-.1,.1-.1,.1,.05,.1,.1-.05,.1-.1,.1Zm0-.14s-.04,.02-.04,.04,.02,.04,.04,.04,.04-.02,.04-.04-.02-.04-.04-.04Z"/>
      </g>
      <g>
        <path class="cls-23" d="M75.38,58.97s-.02-.05-.05-.05-.05,.02-.05,.05,.02,.05,.05,.05,.05-.02,.05-.05Z"/>
        <path class="cls-23" d="M75.33,59.04s-.07-.03-.07-.07,.03-.07,.07-.07,.07,.03,.07,.07-.03,.07-.07,.07Zm0-.1s-.03,.01-.03,.03,.01,.03,.03,.03,.03-.01,.03-.03-.01-.03-.03-.03Z"/>
      </g>
      <g>
        <path class="cls-23" d="M74.79,58.91s-.03-.07-.07-.07-.07,.03-.07,.07,.03,.07,.07,.07,.07-.03,.07-.07Z"/>
        <path class="cls-23" d="M74.72,59c-.05,0-.1-.04-.1-.1s.04-.1,.1-.1,.1,.04,.1,.1-.04,.1-.1,.1Zm0-.14s-.04,.02-.04,.04,.02,.04,.04,.04,.04-.02,.04-.04-.02-.04-.04-.04Z"/>
      </g>
      <g>
        <path class="cls-23" d="M74.84,60.49s-.03-.06-.06-.06-.06,.03-.06,.06,.03,.06,.06,.06,.06-.03,.06-.06Z"/>
        <path class="cls-23" d="M74.78,60.58s-.09-.04-.09-.09,.04-.09,.09-.09,.09,.04,.09,.09-.04,.09-.09,.09Zm0-.13s-.04,.02-.04,.04,.02,.04,.04,.04,.04-.02,.04-.04-.02-.04-.04-.04Z"/>
      </g>
      <g>
        <path class="cls-23" d="M73.62,58.46s-.02-.05-.05-.05-.05,.02-.05,.05,.02,.05,.05,.05,.05-.02,.05-.05Z"/>
        <path class="cls-23" d="M73.56,58.53s-.08-.03-.08-.08,.03-.08,.08-.08,.08,.03,.08,.08-.03,.08-.08,.08Zm0-.11s-.03,.01-.03,.03,.01,.03,.03,.03,.03-.01,.03-.03-.01-.03-.03-.03Z"/>
      </g>
      <g>
        <path class="cls-23" d="M74.1,57.34s-.03-.07-.07-.07-.07,.03-.07,.07,.03,.07,.07,.07,.07-.03,.07-.07Z"/>
        <path class="cls-23" d="M74.03,57.44c-.06,0-.1-.05-.1-.1s.05-.1,.1-.1,.1,.05,.1,.1-.05,.1-.1,.1Zm0-.14s-.04,.02-.04,.04,.02,.04,.04,.04,.04-.02,.04-.04-.02-.04-.04-.04Z"/>
      </g>
      <g>
        <path class="cls-23" d="M74.3,62.17s-.03-.07-.07-.07-.07,.03-.07,.07,.03,.07,.07,.07,.07-.03,.07-.07Z"/>
        <path class="cls-23" d="M74.24,62.27c-.05,0-.1-.04-.1-.1s.04-.1,.1-.1,.1,.04,.1,.1-.04,.1-.1,.1Zm0-.14s-.04,.02-.04,.04,.02,.04,.04,.04,.04-.02,.04-.04-.02-.04-.04-.04Z"/>
      </g>
      <g>
        <rect class="cls-18" x="76.04" y="60.3" width=".05" height=".03"/>
        <rect class="cls-18" x="76" y="60.26" width=".13" height=".11"/>
      </g>
      <path class="cls-18" d="M75.51,63.91s.05,.08,.05,.12-.02,.09-.05,.12-.08,.05-.12,.05-.09-.02-.12-.05c-.03-.03-.05-.08-.05-.12s.02-.09,.05-.12c.03-.03,.08-.05,.12-.05s.09,.02,.12,.05Z"/>
      <path class="cls-18" d="M74.71,62.6s0-.04,.03-.04c.02-.01,.05,0,.07,.02,.04,.08,.11,.16,.18,.21,.02,.02,.03,.05,0,.07-.02,.02-.05,.03-.07,0-.08-.07-.16-.15-.21-.24,0,0,0-.01,0-.02Z"/>
      <path class="cls-18" d="M73.58,62.67s0-.04,.03-.04c.02-.01,.05,0,.07,.02,.04,.08,.11,.16,.18,.21,.02,.02,.03,.05,0,.07-.02,.02-.05,.03-.07,0-.08-.07-.16-.15-.21-.24,0,0,0-.01,0-.02Z"/>
      <path class="cls-18" d="M74.77,62.33s.02-.03,.03-.04c.03,0,.05,0,.06,.03,.03,.09,.08,.17,.14,.24,.02,.02,.02,.05,0,.07-.02,.02-.05,.02-.07,0-.07-.08-.13-.18-.16-.28,0,0,0-.02,0-.02Z"/>
      <path class="cls-18" d="M75,62.67s-.04,0-.05-.02c-.01-.02,0-.05,.02-.07,.08-.05,.15-.12,.2-.19,.02-.02,.05-.03,.07-.01,.02,.02,.03,.05,.01,.07-.06,.09-.14,.16-.23,.22,0,0-.01,0-.02,0Z"/>
      <path class="cls-18" d="M73.4,63.21s-.04,0-.05-.02c-.01-.02,0-.05,.02-.07,.08-.05,.15-.12,.2-.19,.02-.02,.05-.03,.07-.01,.02,.02,.03,.05,.01,.07-.06,.09-.14,.16-.23,.22,0,0-.01,0-.02,0Z"/>
      <path class="cls-18" d="M74.91,63.04s-.04,0-.05-.02c-.01-.02,0-.05,.02-.07,.08-.05,.15-.12,.2-.19,.02-.02,.05-.03,.07-.01,.02,.02,.03,.05,.01,.07-.06,.09-.14,.16-.23,.22,0,0-.01,0-.02,0Z"/>
      <path class="cls-18" d="M74.1,62.89s0,.04-.02,.05c-.02,.02-.05,0-.07-.01-.05-.08-.12-.15-.2-.2-.02-.01-.03-.04-.02-.07,.01-.02,.04-.03,.07-.02,.09,.06,.17,.13,.23,.22,0,0,0,.01,0,.02Z"/>
      <path class="cls-18" d="M73.7,63.21s-.04,0-.05-.02c-.01-.02,0-.05,.02-.07,.08-.05,.15-.12,.2-.19,.02-.02,.05-.03,.07-.01,.02,.02,.03,.05,.01,.07-.06,.09-.14,.16-.23,.22,0,0-.01,0-.02,0Z"/>
      <path class="cls-18" d="M75.05,62.65s-.03,.02-.05,.02c-.03,0-.04-.03-.04-.06,.02-.09,.03-.19,.01-.28,0-.03,.01-.05,.04-.06,.03,0,.05,.01,.06,.04,.02,.11,.01,.22-.01,.32,0,0,0,.01-.01,.02Z"/>
      <path class="cls-18" d="M73.72,62.91s.01,.03,0,.05c-.01,.02-.04,.03-.07,.02-.08-.05-.17-.07-.27-.08-.03,0-.05-.03-.04-.05,0-.03,.03-.05,.05-.04,.11,.01,.21,.04,.31,.1,0,0,.01,0,.02,.02Z"/>
    </g>
    <g>
      <path class="cls-34" d="M71.25,64.75c-.11,0-.2,.04-.28,.12-.08,.08-.12,.17-.12,.28s.04,.2,.12,.28c.08,.08,.17,.12,.28,.12,.07,0,.12,.02,.16,.06,.04,.04,.06,.1,.06,.16s-.02,.12-.06,.16-.1,.06-.16,.06c-.24,0-.44-.08-.6-.25-.16-.16-.25-.36-.25-.6s.08-.44,.24-.6c.16-.16,.36-.25,.6-.25,.07,0,.12,.02,.16,.06s.06,.1,.06,.16-.02,.12-.06,.16c-.04,.04-.1,.06-.16,.06Z"/>
      <path class="cls-34" d="M72.5,66c-.24,0-.44-.08-.6-.25s-.24-.36-.24-.6,.08-.44,.24-.6,.36-.24,.6-.24,.44,.08,.6,.24c.16,.16,.25,.36,.25,.6v.62c0,.07-.02,.12-.06,.16-.04,.04-.1,.06-.16,.06s-.12-.02-.16-.06c-.04-.04-.06-.09-.06-.16v-.62c0-.11-.04-.2-.12-.28s-.17-.12-.28-.12-.2,.04-.28,.12c-.08,.08-.12,.17-.12,.28s.04,.21,.12,.28c.08,.08,.17,.12,.28,.12,.07,0,.12,.02,.16,.06,.04,.04,.06,.09,.06,.16s-.02,.12-.06,.16-.1,.06-.16,.06Z"/>
      <path class="cls-34" d="M75.24,66.73h-.01c-.2,0-.37-.07-.51-.21s-.21-.31-.21-.51v-.99c0-.07-.03-.14-.08-.19-.05-.05-.11-.08-.19-.08s-.14,.03-.19,.08c-.05,.05-.08,.11-.08,.19v.75c0,.07-.02,.12-.06,.16s-.1,.06-.16,.06-.12-.02-.16-.06c-.04-.04-.06-.09-.06-.16v-.75c0-.2,.07-.37,.21-.51,.14-.14,.31-.21,.51-.21s.37,.07,.51,.21c.14,.14,.21,.31,.21,.51v.99c0,.08,.03,.14,.08,.19s.12,.08,.19,.08h.01c.07,0,.12,.02,.16,.06,.04,.04,.06,.1,.06,.16s-.02,.12-.06,.16c-.04,.04-.1,.06-.16,.06Z"/>
      <path class="cls-34" d="M75.58,64.53c0-.15-.08-.22-.23-.22-.07,0-.12,.02-.16,.06s-.06,.09-.06,.16v1.24c0,.07,.02,.12,.06,.16,.04,.04,.09,.06,.16,.06s.12-.02,.16-.06,.06-.09,.06-.16v-1.24Z"/>
    </g>
  </g>
  <polygon class="cls-68" points="113.28 60.63 115.73 63.19 116.73 63.63 117.04 59.49 117.33 57.31 116.13 57.35 114.47 58.02 113.23 58.83 113.02 59.77 113.28 60.63"/>
  <path class="cls-59" d="M116.7,64.16c-.69-.43-3.96-2.55-4.1-4.23-.21-2.63,4.77-3.25,4.8-3.24l-.1,.84c-.09-.06-1.03,.14-2.13,.54-.75,.28-2,.88-1.93,1.83,.06,.77,1.69,2.24,3.52,3.38l-.06,.89Z"/>
  <path class="cls-41" d="M113.41,60.07s.31-1.03,1.54-1.62c.62-.3,1.98-.67,1.98-.67,0,0-1.34,.17-2.1,.54-1.54,.75-1.42,1.75-1.42,1.75Z"/>
  <path class="cls-77" d="M52.45,50.84s3.89,4.32,7.21,7.47c2.05,1.95,7.08,4.2,7.08,4.2,0,0,1.69,5.84,2.48,7.33,1.17,2.21,3.56,9.57,3.56,9.57,0,0-1.23-2.5-3.09-5.69-1.29-2.22-1.68-4.29-2.67-6.64-1.34-3.19-1.96-3.7-1.96-3.7,0,0-4.51-3.15-6.36-4.94-5.87-5.64-6.26-7.61-6.26-7.61Z"/>
  <path class="cls-77" d="M98.5,68.02s5.5-.82,5.75-.85c3.33-.46,7.17-3.01,7.17-3.01,0,0-.38,2.46-1.14,3.2-.88,.85-2.14,.81-4.81,.85-2.94,.05-6.97-.18-6.97-.18Z"/>
  <path class="cls-5" d="M109.71,55.98c.77,2.34,1.15,3.34,1.13,5.81-.02,2.1-1.37,6.28-1.37,6.28"/>
  <path class="cls-77" d="M87.37,66.5v4.06s3.04-6.59,3.47-7.16c1.26-1.69,2.69-3.77,2.69-3.77l-6.16,6.88Z"/>
  <path class="cls-77" d="M84.74,70.01l-8.3-14.42s3.05,3.29,5.03,6.26c1.52,2.28,3.05,4.42,3.05,4.42l.22,3.73Z"/>
  <path class="cls-77" d="M61.38,38.57s3.71,4.95,5,6.28c1.95,2,8.18,6.81,8.18,6.81l3.77,2.66-1.33,.53s-8.12-6.47-10.59-8.73c-1.64-1.5-5.03-7.55-5.03-7.55Z"/>
  <path class="cls-77" d="M74.91,89.59s.65,1.46,5.19-.46c2.09-.88,5.65-2.9,5.65-2.9l-.2-3.72s-1.27,2.11-4.34,4.01c-1.93,1.19-6.29,3.06-6.29,3.06Z"/>
  <path class="cls-77" d="M88.15,86.69l-.36-9.05s1.01,6.79,3.14,7.58c1.61,.6,5.88,1.31,5.88,1.31,0,0-.36,.5-3.02,.65-2.09,.12-5.64-.5-5.64-.5Z"/>
  <path class="cls-77" d="M76.06,83.68s1.01,.37,2.69,.27c1.59-.09,2.77-1.06,2.77-1.06l-.41-2.83s-.26,1.59-1.83,2.45c-1.22,.68-3.22,1.16-3.22,1.16Z"/>
  <g>
    <path class="cls-36" d="M88.6,69.14c-.35,0-.63,.28-.63,.63s.28,.63,.63,.63,.63-.28,.63-.63-.28-.63-.63-.63h0Zm.29,.74s-.04,0-.06-.02c-.05,.01-.11,.02-.17,.03,0,.03,0,.06,.01,.09,.03,.02,.05,.05,.05,.09,0,.06-.05,.11-.11,.11s-.11-.05-.11-.11c0-.03,0-.05,.02-.07,0-.04-.01-.08-.01-.11h0c-.06,0-.11-.02-.15-.03-.02,.01-.04,.02-.06,.02-.06,0-.11-.05-.11-.11s.05-.11,.11-.11c.04,0,.08,.02,.1,.06,.03,0,.06,.01,.1,.02,0-.08,0-.14,0-.19-.02-.02-.03-.05-.03-.08,0-.06,.05-.11,.11-.11s.11,.05,.11,.11c0,.03-.02,.06-.04,.08,0,.04,0,.11,0,.19h0c.05,0,.1,0,.14-.02,.02-.03,.06-.06,.1-.06,.06,0,.11,.05,.11,.11s-.05,.11-.11,.11h0Zm0,0"/>
    <path class="cls-36" d="M88.87,69.72c-.25,.11-.56,0-.56,0-.03,0-.06,0-.06,.03,0,.03,0,.06,.03,.06,0,0,.15,.05,.32,.05,.1,0,.21-.01,.31-.06,.03-.01,.04-.04,.03-.07-.01-.03-.04-.04-.07-.03h0Zm0,0"/>
    <path class="cls-36" d="M88.62,69.74c0-.15,0-.25,0-.25,0-.03-.02-.05-.05-.06-.03,0-.05,.02-.06,.05,0,0,0,.11,0,.26,.03,0,.07,0,.1,0h0Zm0,0"/>
    <path class="cls-36" d="M88.64,69.89s-.02,0-.03,0c-.02,0-.05,0-.07,0,0,.06,.02,.13,.03,.19,0,.02,.03,.04,.05,.04,0,0,0,0,0,0,.03,0,.05-.03,.04-.06-.01-.06-.02-.12-.02-.17h0Zm0,0"/>
    <path class="cls-36" d="M88.6,68.97c-.44,0-.79,.35-.79,.79s.35,.79,.79,.79,.79-.35,.79-.79-.35-.79-.79-.79h0Zm0,1.48c-.38,0-.69-.31-.69-.69s.31-.69,.69-.69,.69,.31,.69,.69-.31,.69-.69,.69h0Zm0,0"/>
  </g>
  <g>
    <path class="cls-36" d="M88.58,72.5c-.35,0-.63,.28-.63,.63s.28,.63,.63,.63,.63-.28,.63-.63-.28-.63-.63-.63h0Zm.29,.74s-.04,0-.06-.02c-.05,.01-.11,.02-.17,.03,0,.03,0,.06,.01,.09,.03,.02,.05,.05,.05,.09,0,.06-.05,.11-.11,.11s-.11-.05-.11-.11c0-.03,0-.05,.02-.07,0-.04-.01-.08-.01-.11h0c-.06,0-.11-.02-.15-.03-.02,.01-.04,.02-.06,.02-.06,0-.11-.05-.11-.11s.05-.11,.11-.11c.04,0,.08,.02,.1,.06,.03,0,.06,.01,.1,.02,0-.08,0-.14,0-.19-.02-.02-.03-.05-.03-.08,0-.06,.05-.11,.11-.11s.11,.05,.11,.11c0,.03-.02,.06-.04,.08,0,.04,0,.11,0,.19h0c.05,0,.1,0,.14-.02,.02-.03,.06-.06,.1-.06,.06,0,.11,.05,.11,.11s-.05,.11-.11,.11h0Zm0,0"/>
    <path class="cls-36" d="M88.86,73.08c-.25,.11-.56,0-.56,0-.03,0-.06,0-.06,.03,0,.03,0,.06,.03,.06,0,0,.15,.05,.32,.05,.1,0,.21-.01,.31-.06,.03-.01,.04-.04,.03-.07-.01-.03-.04-.04-.07-.03h0Zm0,0"/>
    <path class="cls-36" d="M88.61,73.1c0-.15,0-.25,0-.25,0-.03-.02-.05-.05-.06-.03,0-.05,.02-.06,.05,0,0,0,.11,0,.26,.03,0,.07,0,.1,0h0Zm0,0"/>
    <path class="cls-36" d="M88.62,73.25s-.02,0-.03,0c-.02,0-.05,0-.07,0,0,.06,.02,.13,.03,.19,0,.02,.03,.04,.05,.04,0,0,0,0,0,0,.03,0,.05-.03,.04-.06-.01-.06-.02-.12-.02-.17h0Zm0,0"/>
    <path class="cls-36" d="M88.58,72.34c-.44,0-.79,.35-.79,.79s.35,.79,.79,.79,.79-.35,.79-.79-.35-.79-.79-.79h0Zm0,1.48c-.38,0-.69-.31-.69-.69s.31-.69,.69-.69,.69,.31,.69,.69-.31,.69-.69,.69h0Zm0,0"/>
  </g>
  <rect class="cls-36" x="82.35" y="69.98" width="1.84" height=".28" rx=".12" ry=".12" transform="translate(-12.17 17.76) rotate(-11.35)"/>
  <rect class="cls-36" x="82.63" y="73.23" width="1.84" height=".28" rx=".12" ry=".12" transform="translate(-12.8 17.88) rotate(-11.35)"/>
  <path class="cls-76" d="M81.21,89.34l.97-.51s1.37,3.14,1.63,6.17c.2,2.36-.55,4.66-1.45,5.39-3.58,2.9-7.58,2.48-9.46,2.36-2.53-.16-4.03-1.18-4.03-1.18l2.35,.67c1.21,.34,2.86,.24,5.15,0,1.57-.16,2.57-.58,3.44-1.03s1.78-1.05,2.39-2.16c.73-1.31,.84-2.66,.67-3.73-.64-4-1.68-5.98-1.68-5.98Z"/>
  <path class="cls-76" d="M48.9,102.18s2.26-.66,2.77-1c1.51-1,3.22-2.5,4.18-2.69,1.97-.41,5.14-.71,5.94-.97,.45-.14,1.13-.21,1.49-.62,.69-.8,.65-1.26,.82-2.71,.26-2.25,.93-2.8,1.93-3.75s2.02-2.71,2.01-3.54c-.01-.92,.33-1.88,.76-1.36,.71,.85,.5,.52,.09,1.39-.4,.87-1.04,3.13-2.02,4.66-.97,1.54-2.03,6.29-2.67,6.69-.93,.57-1.47,.49-3.63,.95-3.93,.84-4.46,1.05-6.58,2.13s-2.69,1.62-3.74,1.49-1.59-.34-1.59-.34l.26-.33Z"/>
  <g>
    <path class="cls-9" d="M62.18,35.27s1.08,3.73,2.54,5.36c.85,.95,1.88,1.74,2.88,2.5,.75,.57,1.54,1.17,2.24,1.84,1.37,1.29,2.21,2.65,2.5,4.04l-.6,.13c-.26-1.26-1.05-2.51-2.32-3.72-.68-.65-1.45-1.23-2.19-1.79-1.03-.78-2.09-1.59-2.97-2.58-1.16-1.31-2.08-3.09-2.48-4.59,.11-.26,.16-.45,.21-.62,.08-.24,.14-.29,.19-.57Z"/>
    <path class="cls-9" d="M74.85,49.29c-.53-.41-1.24-.59-1.93-.42l-1.94,.45c-1.03,.24-1.75,1.14-1.77,2.2l-.07,5.13h.62s.07-5.12,.07-5.12c.01-.77,.54-1.43,1.29-1.6l1.94-.45c.78-.18,1.59,.22,1.91,.95l2.08,4.71,.57-.25-2.08-4.71c-.16-.36-.4-.65-.69-.88Z"/>
    <path class="cls-16" d="M69.78,56h-.64s-.03,3.37-.03,3.37c-.01,1.12,.74,2.12,1.82,2.43l.74,.21,.17-.61-.74-.21c-.81-.23-1.36-.97-1.35-1.81l.03-3.38Z"/>
    <path class="cls-16" d="M77.41,54.36l-.59,.25,1.32,3.11c.33,.77,.1,1.67-.56,2.19l-.61,.48,.4,.5,.61-.48c.88-.7,1.19-1.9,.76-2.94l-1.32-3.11Z"/>
    <ellipse class="cls-89" cx="72.17" cy="61.77" rx=".59" ry=".77" transform="translate(.74 124.4) rotate(-81.8)"/>
    <ellipse class="cls-89" cx="76.73" cy="60.86" rx=".77" ry=".59" transform="translate(-20.33 47.75) rotate(-30.72)"/>
  </g>
  <g>
    <path class="cls-14" d="M94.93,58.43c.19-.65,.4-1.29,.6-1.92,.04-.12,.01-.04,.05-.16q.12,.03,.26,.07c.11,.03,.2,.02,.29,.05-.19,.6-.48,1.51-.66,2.13h0s-.51,1.54-.51,1.54l-.54-.18,.51-1.53Z"/>
    <g>
      <circle class="cls-109" cx="93.94" cy="62.45" r="2.55"/>
      <g class="cls-8">
        <polygon class="cls-81" points="90.82 60.65 91.85 65.37 90.39 60.79 90.82 60.65"/>
        <polygon class="cls-81" points="90.95 60.61 92.06 65.69 91.96 65.71 91.85 65.37 90.82 60.65 90.95 60.61"/>
        <polygon class="cls-106" points="91.08 60.57 92.19 65.66 92.06 65.69 90.95 60.61 91.08 60.57"/>
        <polygon class="cls-107" points="91.2 60.53 92.32 65.63 92.19 65.66 91.08 60.57 91.2 60.53"/>
        <polygon class="cls-110" points="91.33 60.49 92.45 65.6 92.32 65.63 91.2 60.53 91.33 60.49"/>
        <polygon class="cls-112" points="91.46 60.45 92.58 65.58 92.45 65.6 91.33 60.49 91.46 60.45"/>
        <polygon class="cls-122" points="91.59 60.4 92.71 65.55 92.58 65.58 91.46 60.45 91.59 60.4"/>
        <polygon class="cls-84" points="91.71 60.36 92.84 65.52 92.71 65.55 91.59 60.4 91.71 60.36"/>
        <polygon class="cls-82" points="91.84 60.32 92.97 65.49 92.84 65.52 91.71 60.36 91.84 60.32"/>
        <polygon class="cls-73" points="91.97 60.28 93.1 65.46 92.97 65.49 91.84 60.32 91.97 60.28"/>
        <polygon class="cls-91" points="92.1 60.24 93.23 65.43 93.1 65.46 91.97 60.28 92.1 60.24"/>
        <polygon class="cls-96" points="92.22 60.2 93.36 65.41 93.23 65.43 92.1 60.24 92.22 60.2"/>
        <polygon class="cls-99" points="92.35 60.16 93.49 65.38 93.36 65.41 92.22 60.2 92.35 60.16"/>
        <polygon class="cls-100" points="92.48 60.12 93.62 65.35 93.49 65.38 92.35 60.16 92.48 60.12"/>
        <polygon class="cls-103" points="92.61 60.08 93.75 65.31 93.64 65.34 93.62 65.35 92.48 60.12 92.61 60.08"/>
        <polygon class="cls-80" points="92.73 60.04 93.88 65.27 93.75 65.31 92.61 60.08 92.73 60.04"/>
        <polygon class="cls-117" points="92.86 60 94.01 65.23 93.88 65.27 92.73 60.04 92.86 60"/>
        <polygon class="cls-114" points="92.99 59.96 94.13 65.19 94.01 65.23 92.86 60 92.99 59.96"/>
        <polygon class="cls-127" points="93.12 59.91 94.26 65.15 94.13 65.19 92.99 59.96 93.12 59.91"/>
        <polygon class="cls-136" points="93.24 59.87 94.39 65.11 94.26 65.15 93.12 59.91 93.24 59.87"/>
        <polygon class="cls-128" points="93.37 59.83 94.52 65.06 94.39 65.11 93.24 59.87 93.37 59.83"/>
        <polygon class="cls-130" points="93.5 59.79 94.64 65.02 94.52 65.06 93.37 59.83 93.5 59.79"/>
        <polygon class="cls-138" points="93.63 59.75 94.77 64.98 94.64 65.02 93.5 59.79 93.63 59.75"/>
        <polygon class="cls-134" points="93.75 59.71 94.9 64.94 94.77 64.98 93.63 59.75 93.75 59.71"/>
        <polygon class="cls-126" points="93.88 59.67 95.03 64.9 94.9 64.94 93.75 59.71 93.88 59.67"/>
        <polygon class="cls-121" points="94.01 59.63 95.15 64.86 95.03 64.9 93.88 59.67 94.01 59.63"/>
        <polygon class="cls-86" points="94.14 59.59 95.28 64.82 95.15 64.86 94.01 59.63 94.14 59.59"/>
        <polygon class="cls-88" points="94.25 59.55 94.26 59.55 95.41 64.78 95.28 64.82 94.14 59.59 94.25 59.55"/>
        <polygon class="cls-87" points="94.26 59.55 94.39 59.52 95.54 64.74 95.41 64.78 94.26 59.55"/>
        <polygon class="cls-90" points="94.39 59.52 94.52 59.49 95.66 64.7 95.54 64.74 94.39 59.52"/>
        <polygon class="cls-65" points="94.52 59.49 94.65 59.46 95.79 64.66 95.66 64.7 94.52 59.49"/>
        <polygon class="cls-53" points="94.65 59.46 94.78 59.44 95.92 64.62 95.79 64.66 94.65 59.46"/>
        <polygon class="cls-47" points="94.78 59.44 94.91 59.41 96.05 64.57 95.92 64.62 94.78 59.44"/>
        <polygon class="cls-45" points="94.91 59.41 95.05 59.38 96.17 64.53 96.05 64.57 94.91 59.41"/>
        <polygon class="cls-49" points="95.05 59.38 95.18 59.35 96.3 64.49 96.17 64.53 95.05 59.38"/>
        <polygon class="cls-48" points="95.18 59.35 95.31 59.32 96.43 64.45 96.3 64.49 95.18 59.35"/>
        <polygon class="cls-57" points="95.31 59.32 95.44 59.29 96.56 64.41 96.43 64.45 95.31 59.32"/>
        <polygon class="cls-56" points="95.44 59.29 95.57 59.26 96.68 64.37 96.56 64.41 95.44 59.29"/>
        <polygon class="cls-101" points="95.57 59.26 95.7 59.24 96.81 64.33 96.68 64.37 95.57 59.26"/>
        <polygon class="cls-93" points="95.7 59.24 95.79 59.21 95.9 59.55 96.94 64.29 96.81 64.33 95.7 59.24"/>
        <polygon class="cls-94" points="96.33 60.9 97.07 64.25 96.94 64.29 95.9 59.55 96.33 60.9"/>
        <polygon class="cls-94" points="97.07 64.25 96.33 60.9 97.37 64.15 97.07 64.25"/>
        <polygon class="cls-81" points="90.85 60.76 91.58 64.13 90.54 60.86 90.85 60.76"/>
        <polygon class="cls-81" points="90.97 60.72 92.01 65.48 91.58 64.13 90.85 60.76 90.97 60.72"/>
        <polygon class="cls-106" points="91.1 60.68 92.17 65.55 92.05 65.58 92.01 65.48 90.97 60.72 91.1 60.68"/>
        <polygon class="cls-107" points="91.23 60.64 92.3 65.52 92.17 65.55 91.1 60.68 91.23 60.64"/>
        <polygon class="cls-110" points="91.36 60.59 92.43 65.5 92.3 65.52 91.23 60.64 91.36 60.59"/>
        <polygon class="cls-112" points="91.48 60.55 92.56 65.47 92.43 65.5 91.36 60.59 91.48 60.55"/>
        <polygon class="cls-122" points="91.61 60.51 92.69 65.44 92.56 65.47 91.48 60.55 91.61 60.51"/>
        <polygon class="cls-84" points="91.74 60.47 92.82 65.41 92.69 65.44 91.61 60.51 91.74 60.47"/>
        <polygon class="cls-82" points="91.87 60.43 92.95 65.38 92.82 65.41 91.74 60.47 91.87 60.43"/>
        <polygon class="cls-73" points="91.99 60.39 93.08 65.35 92.95 65.38 91.87 60.43 91.99 60.39"/>
        <polygon class="cls-91" points="92.12 60.35 93.21 65.33 93.08 65.35 91.99 60.39 92.12 60.35"/>
        <polygon class="cls-96" points="92.25 60.31 93.34 65.3 93.21 65.33 92.12 60.35 92.25 60.31"/>
        <polygon class="cls-99" points="92.38 60.27 93.47 65.27 93.34 65.3 92.25 60.31 92.38 60.27"/>
        <polygon class="cls-100" points="92.5 60.23 93.6 65.24 93.47 65.27 92.38 60.27 92.5 60.23"/>
        <polygon class="cls-103" points="92.63 60.19 93.73 65.2 93.61 65.24 93.6 65.24 92.5 60.23 92.63 60.19"/>
        <polygon class="cls-80" points="92.76 60.15 93.86 65.16 93.73 65.2 92.63 60.19 92.76 60.15"/>
        <polygon class="cls-117" points="92.89 60.11 93.98 65.12 93.86 65.16 92.76 60.15 92.89 60.11"/>
        <polygon class="cls-114" points="93.01 60.06 94.11 65.08 93.98 65.12 92.89 60.11 93.01 60.06"/>
        <polygon class="cls-127" points="93.14 60.02 94.24 65.04 94.11 65.08 93.01 60.06 93.14 60.02"/>
        <polygon class="cls-136" points="93.27 59.98 94.36 65 94.24 65.04 93.14 60.02 93.27 59.98"/>
        <polygon class="cls-128" points="93.4 59.94 94.49 64.96 94.36 65 93.27 59.98 93.4 59.94"/>
        <polygon class="cls-130" points="93.52 59.9 94.62 64.91 94.49 64.96 93.4 59.94 93.52 59.9"/>
        <polygon class="cls-138" points="93.65 59.86 94.75 64.87 94.62 64.91 93.52 59.9 93.65 59.86"/>
        <polygon class="cls-134" points="93.78 59.82 94.87 64.83 94.75 64.87 93.65 59.86 93.78 59.82"/>
        <polygon class="cls-126" points="93.91 59.78 95 64.79 94.87 64.83 93.78 59.82 93.91 59.78"/>
        <polygon class="cls-121" points="94.03 59.74 95.13 64.75 95 64.79 93.91 59.78 94.03 59.74"/>
        <polygon class="cls-86" points="94.16 59.7 95.26 64.71 95.13 64.75 94.03 59.74 94.16 59.7"/>
        <polygon class="cls-88" points="94.28 59.66 94.29 59.66 95.38 64.67 95.26 64.71 94.16 59.7 94.28 59.66"/>
        <polygon class="cls-87" points="94.29 59.66 94.42 59.63 95.51 64.63 95.38 64.67 94.29 59.66"/>
        <polygon class="cls-90" points="94.42 59.63 94.55 59.6 95.64 64.59 95.51 64.63 94.42 59.63"/>
        <polygon class="cls-65" points="94.55 59.6 94.68 59.57 95.77 64.55 95.64 64.59 94.55 59.6"/>
        <polygon class="cls-53" points="94.68 59.57 94.81 59.54 95.89 64.51 95.77 64.55 94.68 59.57"/>
        <polygon class="cls-47" points="94.81 59.54 94.94 59.52 96.02 64.47 95.89 64.51 94.81 59.54"/>
        <polygon class="cls-45" points="94.94 59.52 95.07 59.49 96.15 64.43 96.02 64.47 94.94 59.52"/>
        <polygon class="cls-49" points="95.07 59.49 95.2 59.46 96.28 64.38 96.15 64.43 95.07 59.49"/>
        <polygon class="cls-48" points="95.2 59.46 95.33 59.43 96.4 64.34 96.28 64.38 95.2 59.46"/>
        <polygon class="cls-57" points="95.33 59.43 95.46 59.4 96.53 64.3 96.4 64.34 95.33 59.43"/>
        <polygon class="cls-56" points="95.46 59.4 95.59 59.37 96.66 64.26 96.53 64.3 95.46 59.4"/>
        <polygon class="cls-101" points="95.59 59.37 95.72 59.34 96.79 64.22 96.66 64.26 95.59 59.37"/>
        <polygon class="cls-93" points="95.72 59.34 95.84 59.32 95.87 59.42 96.91 64.18 96.79 64.22 95.72 59.34"/>
        <polygon class="cls-94" points="96.31 60.77 97.04 64.14 96.91 64.18 95.87 59.42 96.31 60.77"/>
        <polygon class="cls-94" points="97.04 64.14 96.31 60.77 97.35 64.04 97.04 64.14"/>
      </g>
    </g>
    <path class="cls-142" d="M94.73,64.91c-.51,.16-1.05,.16-1.57,0-1.36-.43-2.11-1.89-1.68-3.24,.25-.8,.88-1.42,1.68-1.68,.51-.16,1.05-.16,1.57,0,.66,.21,1.19,.66,1.51,1.27,.32,.61,.38,1.31,.17,1.97-.25,.8-.88,1.42-1.68,1.68Zm-1.55-4.87c-.78,.25-1.39,.86-1.64,1.64-.42,1.33,.31,2.75,1.64,3.17,.5,.16,1.03,.16,1.53,0,.78-.25,1.39-.86,1.64-1.64,.2-.64,.15-1.33-.16-1.93-.31-.6-.84-1.04-1.48-1.25-.5-.16-1.03-.16-1.53,0Z"/>
    <rect class="cls-30" x="93.89" y="59.33" width="1.8" height=".9" transform="translate(9.08 131.98) rotate(-72.35)"/>
    <g>
      <path class="cls-39" d="M94.52,64.26c-.38,.12-.77,.12-1.15,0-1-.32-1.55-1.39-1.23-2.38,.19-.58,.65-1.05,1.23-1.23,.38-.12,.77-.12,1.15,0,1,.32,1.55,1.39,1.23,2.38-.19,.58-.65,1.05-1.23,1.23Z"/>
      <path class="cls-22" d="M93.39,60.71c.35-.11,.73-.12,1.11,0,.96,.31,1.49,1.33,1.19,2.3-.19,.59-.64,1.01-1.19,1.19-.35,.11-.73,.12-1.11,0-.96-.31-1.49-1.33-1.19-2.3,.19-.59,.64-1.01,1.19-1.19m-.04-.13h0c-.61,.19-1.08,.67-1.28,1.28-.16,.5-.11,1.03,.13,1.5,.24,.47,.65,.81,1.15,.97,.39,.12,.8,.12,1.19,0,.61-.19,1.08-.67,1.28-1.28,.33-1.03-.24-2.14-1.28-2.47-.39-.12-.8-.12-1.19,0h0Z"/>
    </g>
    <path class="cls-143" d="M94.51,64.23c-.37,.12-.76,.12-1.14,0-.98-.31-1.53-1.37-1.21-2.35,.18-.58,.64-1.03,1.21-1.21,.37-.12,.76-.12,1.14,0,.98,.31,1.53,1.37,1.21,2.35-.18,.58-.64,1.03-1.21,1.21Zm-1.11-3.48c-.55,.18-.98,.61-1.16,1.16-.3,.94,.22,1.95,1.16,2.24,.36,.11,.73,.11,1.08,0,.55-.18,.98-.61,1.16-1.16,.3-.94-.22-1.95-1.16-2.24-.36-.11-.73-.11-1.08,0Z"/>
    <g>
      <circle class="cls-44" cx="93.94" cy="62.45" r="1.26"/>
      <g class="cls-140">
        <polygon class="cls-120" points="95.06 63.56 95.51 62.14 95.89 63.3 95.06 63.56"/>
        <polygon class="cls-120" points="95.01 63.58 95.49 62.06 95.51 62.14 95.06 63.56 95.01 63.58"/>
        <polygon class="cls-119" points="94.96 63.6 95.47 61.99 95.49 62.06 95.01 63.58 94.96 63.6"/>
        <polygon class="cls-118" points="94.9 63.61 95.44 61.92 95.47 61.99 94.96 63.6 94.9 63.61"/>
        <polygon class="cls-38" points="94.85 63.63 95.42 61.84 95.44 61.92 94.9 63.61 94.85 63.63"/>
        <polygon class="cls-125" points="94.8 63.65 95.4 61.77 95.42 61.84 94.85 63.63 94.8 63.65"/>
        <polygon class="cls-62" points="94.75 63.66 95.37 61.7 95.4 61.77 94.8 63.65 94.75 63.66"/>
        <polygon class="cls-63" points="94.7 63.68 95.35 61.63 95.37 61.7 94.75 63.66 94.7 63.68"/>
        <polygon class="cls-61" points="94.64 63.7 95.33 61.55 95.35 61.63 94.7 63.68 94.64 63.7"/>
        <polygon class="cls-64" points="94.59 63.71 95.3 61.48 95.33 61.55 94.64 63.7 94.59 63.71"/>
        <polygon class="cls-60" points="94.54 63.73 95.28 61.41 95.3 61.48 94.59 63.71 94.54 63.73"/>
        <polygon class="cls-69" points="94.49 63.75 95.26 61.33 95.28 61.41 94.54 63.73 94.49 63.75"/>
        <polygon class="cls-29" points="94.44 63.76 95.22 61.29 95.24 61.29 95.26 61.33 94.49 63.75 94.44 63.76"/>
        <polygon class="cls-27" points="94.38 63.78 95.18 61.27 95.22 61.29 94.44 63.76 94.38 63.78"/>
        <polygon class="cls-17" points="94.33 63.8 95.14 61.26 95.18 61.27 94.38 63.78 94.33 63.8"/>
        <polygon class="cls-19" points="94.28 63.81 95.1 61.25 95.14 61.26 94.33 63.8 94.28 63.81"/>
        <polygon class="cls-21" points="94.23 63.83 95.05 61.23 95.1 61.25 94.28 63.81 94.23 63.83"/>
        <polygon class="cls-20" points="94.18 63.85 95.01 61.22 95.05 61.23 94.23 63.83 94.18 63.85"/>
        <polygon class="cls-37" points="94.12 63.86 94.97 61.21 95.01 61.22 94.18 63.85 94.12 63.86"/>
        <polygon class="cls-28" points="94.07 63.88 94.93 61.19 94.97 61.21 94.12 63.86 94.07 63.88"/>
        <polygon class="cls-72" points="94.02 63.9 94.89 61.18 94.93 61.19 94.07 63.88 94.02 63.9"/>
        <polygon class="cls-71" points="93.97 63.91 94.84 61.16 94.89 61.18 94.02 63.9 93.97 63.91"/>
        <polygon class="cls-105" points="93.92 63.93 94.8 61.15 94.84 61.16 93.97 63.91 93.92 63.93"/>
        <polygon class="cls-108" points="93.86 63.95 94.76 61.14 94.8 61.15 93.92 63.93 93.86 63.95"/>
        <polygon class="cls-111" points="93.81 63.96 94.72 61.12 94.76 61.14 93.86 63.95 93.81 63.96"/>
        <polygon class="cls-113" points="93.79 63.97 93.77 63.96 94.67 61.11 94.72 61.12 93.81 63.96 93.79 63.97"/>
        <rect class="cls-123" x="92.7" y="62.51" width="2.99" height=".04" transform="translate(6.05 133.33) rotate(-72.35)"/>
        <rect class="cls-116" x="92.66" y="62.49" width="2.99" height=".04" transform="translate(6.03 133.28) rotate(-72.35)"/>
        <rect class="cls-83" x="92.62" y="62.48" width="2.99" height=".04" transform="translate(6.01 133.23) rotate(-72.35)"/>
        <rect class="cls-74" x="92.57" y="62.47" width="2.99" height=".04" transform="translate(6 133.18) rotate(-72.35)"/>
        <rect class="cls-75" x="92.53" y="62.45" width="2.99" height=".04" transform="translate(5.98 133.13) rotate(-72.35)"/>
        <rect class="cls-98" x="92.49" y="62.44" width="2.99" height=".04" transform="translate(5.96 133.08) rotate(-72.35)"/>
        <rect class="cls-102" x="92.45" y="62.43" width="2.99" height=".04" transform="translate(5.95 133.03) rotate(-72.35)"/>
        <rect class="cls-79" x="92.41" y="62.41" width="2.99" height=".04" transform="translate(5.93 132.98) rotate(-72.35)"/>
        <rect class="cls-78" x="92.36" y="62.4" width="2.99" height=".04" transform="translate(5.91 132.93) rotate(-72.35)"/>
        <rect class="cls-70" x="92.32" y="62.39" width="2.99" height=".04" transform="translate(5.9 132.88) rotate(-72.35)"/>
        <rect class="cls-66" x="92.28" y="62.37" width="2.99" height=".04" transform="translate(5.88 132.83) rotate(-72.35)"/>
        <rect class="cls-115" x="92.24" y="62.36" width="2.99" height=".04" transform="translate(5.86 132.78) rotate(-72.35)"/>
        <rect class="cls-135" x="92.19" y="62.35" width="2.99" height=".04" transform="translate(5.85 132.73) rotate(-72.35)"/>
        <polygon class="cls-129" points="93.21 63.79 93.17 63.77 94.08 60.94 94.1 60.93 94.12 60.94 93.21 63.79"/>
        <polygon class="cls-131" points="93.17 63.77 93.13 63.76 94.02 60.95 94.08 60.94 93.17 63.77"/>
        <polygon class="cls-137" points="93.13 63.76 93.09 63.75 93.97 60.97 94.02 60.95 93.13 63.76"/>
        <polygon class="cls-133" points="93.09 63.75 93.04 63.73 93.92 60.98 93.97 60.97 93.09 63.75"/>
        <polygon class="cls-124" points="93.04 63.73 93 63.72 93.87 61 93.92 60.98 93.04 63.73"/>
        <polygon class="cls-121" points="93 63.72 92.96 63.71 93.82 61.02 93.87 61 93 63.72"/>
        <polygon class="cls-85" points="92.96 63.71 92.92 63.69 93.76 61.03 93.82 61.02 92.96 63.71"/>
        <polygon class="cls-88" points="92.92 63.69 92.88 63.68 93.71 61.05 93.76 61.03 92.92 63.69"/>
        <polygon class="cls-87" points="92.88 63.68 92.83 63.67 93.66 61.07 93.71 61.05 92.88 63.68"/>
        <polygon class="cls-67" points="92.83 63.67 92.81 63.66 92.8 63.62 93.61 61.08 93.66 61.07 92.83 63.67"/>
        <polygon class="cls-139" points="92.78 63.54 93.56 61.1 93.61 61.08 92.8 63.62 92.78 63.54"/>
        <polygon class="cls-52" points="92.75 63.47 93.5 61.12 93.56 61.1 92.78 63.54 92.75 63.47"/>
        <polygon class="cls-46" points="92.73 63.4 93.45 61.13 93.5 61.12 92.75 63.47 92.73 63.4"/>
        <polygon class="cls-45" points="92.71 63.33 93.4 61.15 93.45 61.13 92.73 63.4 92.71 63.33"/>
        <polygon class="cls-49" points="92.68 63.25 93.35 61.17 93.4 61.15 92.71 63.33 92.68 63.25"/>
        <polygon class="cls-48" points="92.66 63.18 93.3 61.18 93.35 61.17 92.68 63.25 92.66 63.18"/>
        <polygon class="cls-55" points="92.64 63.11 93.24 61.2 93.3 61.18 92.66 63.18 92.64 63.11"/>
        <polygon class="cls-58" points="92.61 63.03 93.19 61.22 93.24 61.2 92.64 63.11 92.61 63.03"/>
        <polygon class="cls-104" points="92.59 62.96 93.14 61.23 93.19 61.22 92.61 63.03 92.59 62.96"/>
        <polygon class="cls-93" points="92.57 62.89 93.09 61.25 93.14 61.23 92.59 62.96 92.57 62.89"/>
        <polygon class="cls-94" points="92.54 62.81 93.04 61.27 93.09 61.25 92.57 62.89 92.54 62.81"/>
        <polygon class="cls-97" points="92.52 62.74 92.98 61.28 93.04 61.27 92.54 62.81 92.52 62.74"/>
        <polygon class="cls-50" points="92.5 62.67 92.93 61.3 92.98 61.28 92.52 62.74 92.5 62.67"/>
        <polygon class="cls-92" points="92.47 62.59 92.88 61.32 92.93 61.3 92.5 62.67 92.47 62.59"/>
        <polygon class="cls-95" points="92.45 62.52 92.83 61.33 92.88 61.32 92.47 62.59 92.45 62.52"/>
        <polygon class="cls-95" points="92.83 61.33 92.45 62.52 92.14 61.55 92.83 61.33"/>
        <polygon class="cls-120" points="95.11 63.4 95.43 62.4 95.69 63.21 95.11 63.4"/>
        <polygon class="cls-120" points="95.06 63.42 95.41 62.32 95.43 62.4 95.11 63.4 95.06 63.42"/>
        <polygon class="cls-119" points="95.01 63.43 95.38 62.25 95.41 62.32 95.06 63.42 95.01 63.43"/>
        <polygon class="cls-118" points="94.96 63.45 95.36 62.18 95.38 62.25 95.01 63.43 94.96 63.45"/>
        <polygon class="cls-38" points="94.9 63.47 95.34 62.1 95.36 62.18 94.96 63.45 94.9 63.47"/>
        <polygon class="cls-125" points="94.85 63.48 95.31 62.03 95.34 62.1 94.9 63.47 94.85 63.48"/>
        <polygon class="cls-62" points="94.8 63.5 95.29 61.96 95.31 62.03 94.85 63.48 94.8 63.5"/>
        <polygon class="cls-63" points="94.75 63.52 95.27 61.88 95.29 61.96 94.8 63.5 94.75 63.52"/>
        <polygon class="cls-61" points="94.7 63.53 95.24 61.81 95.27 61.88 94.75 63.52 94.7 63.53"/>
        <polygon class="cls-64" points="94.64 63.55 95.22 61.74 95.24 61.81 94.7 63.53 94.64 63.55"/>
        <polygon class="cls-60" points="94.59 63.57 95.2 61.66 95.22 61.74 94.64 63.55 94.59 63.57"/>
        <polygon class="cls-69" points="94.54 63.58 95.17 61.59 95.2 61.66 94.59 63.57 94.54 63.58"/>
        <polygon class="cls-29" points="94.49 63.6 95.15 61.52 95.17 61.59 94.54 63.58 94.49 63.6"/>
        <polygon class="cls-27" points="94.44 63.62 95.13 61.44 95.15 61.52 94.49 63.6 94.44 63.62"/>
        <polygon class="cls-17" points="94.38 63.63 95.1 61.39 95.11 61.4 95.13 61.44 94.44 63.62 94.38 63.63"/>
        <polygon class="cls-19" points="94.33 63.65 95.05 61.38 95.1 61.39 94.38 63.63 94.33 63.65"/>
        <polygon class="cls-21" points="94.28 63.67 95.01 61.36 95.05 61.38 94.33 63.65 94.28 63.67"/>
        <polygon class="cls-20" points="94.23 63.68 94.97 61.35 95.01 61.36 94.28 63.67 94.23 63.68"/>
        <polygon class="cls-37" points="94.18 63.7 94.93 61.34 94.97 61.35 94.23 63.68 94.18 63.7"/>
        <polygon class="cls-28" points="94.12 63.72 94.89 61.32 94.93 61.34 94.18 63.7 94.12 63.72"/>
        <polygon class="cls-72" points="94.07 63.73 94.84 61.31 94.89 61.32 94.12 63.72 94.07 63.73"/>
        <polygon class="cls-71" points="94.02 63.75 94.8 61.3 94.84 61.31 94.07 63.73 94.02 63.75"/>
        <polygon class="cls-105" points="93.97 63.77 94.76 61.28 94.8 61.3 94.02 63.75 93.97 63.77"/>
        <polygon class="cls-108" points="93.92 63.78 94.72 61.27 94.76 61.28 93.97 63.77 93.92 63.78"/>
        <polygon class="cls-111" points="93.86 63.8 94.67 61.26 94.72 61.27 93.92 63.78 93.86 63.8"/>
        <polygon class="cls-113" points="93.81 63.82 94.63 61.24 94.67 61.26 93.86 63.8 93.81 63.82"/>
        <polygon class="cls-123" points="93.79 63.82 93.77 63.82 94.59 61.23 94.63 61.24 93.81 63.82 93.79 63.82"/>
        <rect class="cls-116" x="92.8" y="62.49" width="2.72" height=".04" transform="translate(6.03 133.28) rotate(-72.35)"/>
        <rect class="cls-83" x="92.76" y="62.48" width="2.72" height=".04" transform="translate(6.01 133.23) rotate(-72.35)"/>
        <rect class="cls-74" x="92.71" y="62.47" width="2.72" height=".04" transform="translate(6 133.18) rotate(-72.35)"/>
        <rect class="cls-75" x="92.67" y="62.45" width="2.72" height=".04" transform="translate(5.98 133.13) rotate(-72.35)"/>
        <rect class="cls-98" x="92.63" y="62.44" width="2.72" height=".04" transform="translate(5.96 133.08) rotate(-72.35)"/>
        <rect class="cls-102" x="92.59" y="62.43" width="2.72" height=".04" transform="translate(5.95 133.03) rotate(-72.35)"/>
        <rect class="cls-79" x="92.54" y="62.41" width="2.72" height=".04" transform="translate(5.93 132.98) rotate(-72.35)"/>
        <rect class="cls-78" x="92.5" y="62.4" width="2.72" height=".04" transform="translate(5.91 132.93) rotate(-72.35)"/>
        <rect class="cls-70" x="92.46" y="62.39" width="2.72" height=".04" transform="translate(5.9 132.88) rotate(-72.35)"/>
        <rect class="cls-66" x="92.42" y="62.37" width="2.72" height=".04" transform="translate(5.88 132.83) rotate(-72.35)"/>
        <rect class="cls-115" x="92.37" y="62.36" width="2.72" height=".04" transform="translate(5.86 132.78) rotate(-72.35)"/>
        <polygon class="cls-135" points="93.3 63.67 93.26 63.65 94.08 61.08 94.1 61.07 94.12 61.08 93.3 63.67"/>
        <polygon class="cls-129" points="93.26 63.65 93.21 63.64 94.02 61.1 94.08 61.08 93.26 63.65"/>
        <polygon class="cls-131" points="93.21 63.64 93.17 63.63 93.97 61.11 94.02 61.1 93.21 63.64"/>
        <polygon class="cls-137" points="93.17 63.63 93.13 63.61 93.92 61.13 93.97 61.11 93.17 63.63"/>
        <polygon class="cls-133" points="93.13 63.61 93.09 63.6 93.87 61.15 93.92 61.13 93.13 63.61"/>
        <polygon class="cls-124" points="93.09 63.6 93.04 63.59 93.82 61.16 93.87 61.15 93.09 63.6"/>
        <polygon class="cls-121" points="93.04 63.59 93 63.57 93.76 61.18 93.82 61.16 93.04 63.59"/>
        <polygon class="cls-85" points="93 63.57 92.96 63.56 93.71 61.2 93.76 61.18 93 63.57"/>
        <polygon class="cls-88" points="92.96 63.56 92.92 63.55 93.66 61.21 93.71 61.2 92.96 63.56"/>
        <polygon class="cls-87" points="92.92 63.55 92.87 63.53 93.61 61.23 93.66 61.21 92.92 63.55"/>
        <polygon class="cls-67" points="92.87 63.53 92.83 63.52 93.56 61.25 93.61 61.23 92.87 63.53"/>
        <polygon class="cls-139" points="92.83 63.52 92.79 63.51 93.5 61.26 93.56 61.25 92.83 63.52"/>
        <polygon class="cls-52" points="92.79 63.51 92.78 63.5 92.76 63.45 93.45 61.28 93.5 61.26 92.79 63.51"/>
        <polygon class="cls-46" points="92.74 63.38 93.4 61.3 93.45 61.28 92.76 63.45 92.74 63.38"/>
        <polygon class="cls-45" points="92.71 63.31 93.35 61.31 93.4 61.3 92.74 63.38 92.71 63.31"/>
        <polygon class="cls-49" points="92.69 63.23 93.3 61.33 93.35 61.31 92.71 63.31 92.69 63.23"/>
        <polygon class="cls-48" points="92.67 63.16 93.24 61.35 93.3 61.33 92.69 63.23 92.67 63.16"/>
        <polygon class="cls-55" points="92.64 63.09 93.19 61.36 93.24 61.35 92.67 63.16 92.64 63.09"/>
        <polygon class="cls-58" points="92.62 63.01 93.14 61.38 93.19 61.36 92.64 63.09 92.62 63.01"/>
        <polygon class="cls-104" points="92.6 62.94 93.09 61.4 93.14 61.38 92.62 63.01 92.6 62.94"/>
        <polygon class="cls-93" points="92.57 62.87 93.04 61.41 93.09 61.4 92.6 62.94 92.57 62.87"/>
        <polygon class="cls-94" points="92.55 62.79 92.98 61.43 93.04 61.41 92.57 62.87 92.55 62.79"/>
        <polygon class="cls-97" points="92.53 62.72 92.93 61.45 92.98 61.43 92.55 62.79 92.53 62.72"/>
        <polygon class="cls-50" points="92.5 62.65 92.88 61.46 92.93 61.45 92.53 62.72 92.5 62.65"/>
        <polygon class="cls-92" points="92.48 62.58 92.83 61.48 92.88 61.46 92.5 62.65 92.48 62.58"/>
        <polygon class="cls-95" points="92.46 62.5 92.78 61.5 92.83 61.48 92.48 62.58 92.46 62.5"/>
        <polygon class="cls-95" points="92.78 61.5 92.46 62.5 92.19 61.68 92.78 61.5"/>
      </g>
    </g>
  </g>
  <path d="M106.96,24.93c-.34-.5-.95-1.16-1.36-1.55-.11-.1-.18-.2-.29-.3,0,0,.01,0,.01,0h0c-.81-.68-1.81-1.13-2.93-1.26-1.52-.17-2.95,.3-4.05,1.18-.53,.4-1,.84-1.48,1.27-.61,.55-.9,.22-1.44,.16s-.9,.2-1.37-.47c-.37-.53-.73-1.07-1.16-1.57-.88-1.1-2.42-1.86-3.93-2.03-1.12-.12-2.44,.1-3.38,.59h0s.23,0,.23,0c-.13,.07-.14,.14-.27,.22-.49,.29-1.36,.78-1.81,1.19-.66,.61-15.1-2.79-15.1-2.79l-.14,1.4s13.95,3.34,14.17,3.67c.13,.19,.24,1.05,.41,1.95,.04,.32,.15,1.01,.25,1.31,.09,.3,.21,.25,.35,1.19h0c.82,1.4,2.39,2.39,4.3,2.6,2.22,.25,4.28-1.05,5.35-2.85,0,0,0-.1,0-.1,0,0,.01-.06,.02-.07,.47-.62,1.06-2.43,1.28-2.7,.21-.27,.67-.26,.67-.26,0,0,.45,.07,.6,.38,.15,.31,.34,2.18,.66,2.89,0,0,0,.01,.01,.02,0,0,0,0,0,0,.65,1.99,2.21,3.54,4.43,3.79,1.91,.21,4.18-.55,4.64-1.94h0c0-.22,.55-.46,.71-.73,.16-.27,.4-.57,.51-.87,.35-.84,.49-1.68,.65-1.84,.28-.27,.22-.17,.4-.28,.3-.18,.39-1.12,.18-1.4-.28-.37-.61-.05-1.12-.79Zm-18.9,5.63c-2.61-.29-4.5-2.64-4.21-5.25s2.64-4.5,5.25-4.21c2.61,.29,4.5,2.64,4.21,5.25-.29,2.61-2.64,4.5-5.25,4.21Zm13.21,1.46c-2.61-.29-4.5-2.64-4.21-5.25s2.64-4.5,5.25-4.21,4.5,2.64,4.21,5.25c-.29,2.61-2.64,4.5-5.25,4.21Z"/>
</svg>