<?xml version="1.0" encoding="UTF-8"?>
<svg id="Capa_1" data-name="Capa 1" xmlns="http://www.w3.org/2000/svg" viewBox="0 0 170.08 113.39">
  <defs>
    <style>
      .cls-1 {
        fill: #211915;
      }
    </style>
  </defs>
  <g>
    <path class="cls-1" d="M55.52,19.44c-.11-.23-.23-.45-.34-.66-.11-.21-.24-.43-.37-.66l-.41-.58c-.07-.1-.14-.2-.22-.29s-.15-.19-.22-.29c-.64-.72-1.36-1.3-2.18-1.72-.43-.23-.87-.41-1.33-.54-.45-.13-.92-.23-1.4-.3-.48-.05-.96-.07-1.46-.07-.5,0-1.01,.05-1.53,.14-.98,.13-2,.4-3.06,.8-.52,.18-1.03,.4-1.51,.63-.49,.24-.98,.49-1.48,.76-.48,.27-.95,.55-1.41,.85-.47,.3-.93,.62-1.38,.95-.91,.67-1.78,1.38-2.62,2.15-.43,.37-.85,.76-1.24,1.15-.4,.39-.79,.81-1.17,1.24-.39,.44-.76,.87-1.12,1.3-.36,.43-.72,.88-1.05,1.33-.7,.89-1.36,1.8-1.96,2.75-.6,.95-1.16,1.93-1.68,2.95-.25,.51-.49,1.01-.73,1.52-.24,.51-.47,1.02-.7,1.55-.23,.53-.43,1.04-.61,1.55-.18,.51-.36,1.03-.54,1.58-.16,.54-.3,1.07-.43,1.59-.13,.52-.24,1.05-.36,1.58-.2,1.09-.34,2.15-.41,3.19-.02,1.08,.01,2.14,.1,3.16,.14,1.06,.37,2.05,.72,2.97,.34,.94,.78,1.84,1.33,2.68,.54,.8,1.2,1.53,1.97,2.19,.77,.66,1.59,1.21,2.45,1.65,.45,.23,.92,.43,1.39,.62,.48,.18,.96,.34,1.46,.47,.98,.27,1.98,.47,3.03,.59,1.07,.12,2.13,.18,3.2,.16,.52,0,1.06-.02,1.6-.05,.54-.03,1.09-.07,1.63-.13,.52-.05,1.06-.12,1.6-.2s1.09-.18,1.63-.28c.54-.12,1.09-.24,1.63-.34,.54-.11,1.08-.23,1.6-.37,.54-.14,1.09-.29,1.63-.45,.54-.15,1.08-.31,1.6-.47,.52-.19,1.05-.37,1.6-.54,.54-.18,1.08-.36,1.6-.54l1.57-.59,1.6-.63c.52-.23,1.04-.45,1.57-.67,.52-.22,1.04-.45,1.57-.71,.52-.23,1.03-.46,1.53-.7,.5-.24,1.01-.48,1.53-.74,.23-.12,.41-.07,.54,.16,.05,.11,.04,.21-.02,.31-.06,.1-.14,.18-.26,.24-.52,.25-1.04,.49-1.57,.72-.52,.23-1.04,.46-1.57,.69-.52,.25-1.05,.48-1.58,.69-.53,.21-1.06,.43-1.58,.66-.27,.11-.54,.21-.8,.31-.26,.1-.53,.2-.8,.28-.25,.1-.51,.21-.78,.31-.27,.11-.54,.2-.82,.28-.52,.18-1.05,.37-1.6,.54-.54,.18-1.09,.36-1.63,.55-2.13,.66-4.31,1.19-6.53,1.61-.54,.12-1.09,.22-1.65,.3s-1.11,.14-1.65,.2c-.54,.08-1.09,.13-1.65,.16-.56,.03-1.11,.05-1.65,.06-1.09,.02-2.18-.04-3.27-.16-1.09-.1-2.13-.29-3.13-.58-1.07-.26-2.05-.63-2.96-1.11-.48-.23-.94-.48-1.38-.77-.44-.29-.87-.59-1.28-.92-.77-.66-1.47-1.42-2.11-2.27-.29-.43-.57-.88-.82-1.35-.25-.47-.47-.95-.65-1.45-.18-.49-.34-1-.48-1.54-.14-.53-.25-1.06-.34-1.59-.07-.55-.12-1.1-.15-1.65-.03-.55-.04-1.1-.02-1.67,.02-.56,.06-1.12,.1-1.67,.04-.55,.12-1.11,.24-1.69,.09-.55,.2-1.11,.32-1.66,.12-.56,.27-1.11,.43-1.65,.36-1.15,.74-2.24,1.12-3.26,.2-.55,.43-1.08,.66-1.61,.24-.53,.49-1.06,.77-1.59,1.02-2.1,2.23-4.11,3.64-6.04,.36-.5,.73-.98,1.11-1.44,.37-.46,.75-.9,1.14-1.34,.41-.44,.82-.87,1.23-1.3,.41-.43,.84-.85,1.29-1.28,.89-.82,1.8-1.59,2.76-2.31s1.95-1.37,3-1.97c1.11-.6,2.19-1.11,3.23-1.53,.57-.21,1.13-.39,1.7-.54,.57-.15,1.15-.27,1.74-.38,1.18-.21,2.34-.23,3.47-.08,.61,.09,1.17,.23,1.67,.41,.54,.17,1.05,.41,1.53,.7,.48,.27,.91,.61,1.29,1,.39,.35,.74,.78,1.06,1.27,.61,.93,1.03,1.92,1.26,2.96,.05,.26-.07,.45-.34,.55-.2,.07-.35,.02-.44-.18Z"/>
    <path class="cls-1" d="M49.12,32.84l-.07,.04s-.06,.04-.1,.05l-.17,.13-.34,.25c-.11,.08-.22,.17-.32,.26-.1,.09-.21,.19-.32,.3-.41,.39-.81,.87-1.19,1.41l-.54,.75-.48,.77c-.18,.27-.34,.55-.48,.83-.14,.28-.28,.55-.44,.82-.14,.27-.27,.54-.41,.83s-.26,.58-.37,.86c-.11,.29-.23,.57-.34,.86-.11,.29-.23,.57-.34,.86l-.31,.89-.27,.88c-.18,.63-.32,1.21-.41,1.74-.05,.16-.07,.31-.09,.45-.01,.14-.03,.29-.05,.45-.02,.14-.04,.28-.05,.43-.01,.15-.02,.29-.02,.42,0,.18,.01,.31,.03,.4,0,.11,.02,.23,.07,.36,.07,.13,.13,.21,.17,.25,.02,.02,.06,.03,.1,.02,0,.02,.03,.03,.1,.02l.14-.02s.05-.04,.07-.04c.02,0,.06-.02,.1-.05l.31-.24c.11-.11,.22-.22,.31-.33,.09-.11,.18-.23,.27-.36l.51-.78c.09-.12,.18-.25,.26-.39,.08-.13,.15-.27,.22-.42l.44-.84,.41-.83,.37-.86,.37-.86c.11-.29,.22-.57,.32-.85,.1-.28,.21-.58,.32-.89,.04-.14,.1-.28,.15-.43,.06-.14,.11-.28,.15-.43l.17-.46c.04-.19,.09-.33,.14-.42v-.03c.16-.38,.42-.52,.78-.41,.27,.08,.39,.26,.34,.56l-.1,.82-.1,.86c-.05,.28-.08,.55-.1,.82-.02,.27-.05,.56-.07,.85-.02,.27-.04,.55-.05,.82-.01,.27-.02,.54-.02,.81v.51l.14-.29c.11-.22,.23-.44,.34-.65,.11-.22,.23-.44,.34-.65,.23-.44,.45-.87,.68-1.31,.23-.44,.46-.87,.72-1.31l1.46-2.56,1.5-2.57c.04-.1,.12-.16,.22-.18,.1-.03,.2-.02,.29,.01,.09,.03,.14,.1,.15,.2,.01,.1,0,.2-.05,.29-.25,.42-.49,.84-.73,1.27-.24,.43-.48,.86-.73,1.3-.25,.42-.49,.84-.73,1.27-.24,.43-.48,.86-.73,1.3-.25,.42-.48,.84-.7,1.28-.22,.43-.44,.87-.66,1.31-.11,.22-.23,.44-.34,.65-.11,.22-.23,.44-.34,.65l-.61,1.3c-.05,.12-.11,.2-.2,.25-.09,.05-.19,.06-.31,.03-.07-.01-.11-.05-.14-.12-.05-.04-.08-.08-.1-.12-.02-.04-.05-.08-.07-.13-.05-.13-.07-.2-.07-.23-.05-.08-.07-.16-.07-.24s-.01-.15-.03-.21c-.05-.15-.07-.29-.07-.43s-.01-.28-.03-.43c-.02-.29-.03-.57-.03-.86v-.86c0-.07,0-.14,.02-.21,.01-.07,.02-.14,.02-.2l-.31,.62c-.07,.14-.14,.29-.2,.43-.07,.14-.15,.28-.24,.4l-.41,.87-.44,.84-.48,.84c-.18,.3-.36,.58-.53,.85-.17,.27-.36,.54-.56,.82-.11,.13-.22,.26-.32,.38-.1,.13-.22,.26-.36,.39-.09,.1-.23,.21-.41,.33l-.27,.14s-.1,.05-.17,.06l-.14,.02c-.16,.02-.27,.03-.34,.01l-.27-.16c-.11-.05-.18-.12-.2-.21-.04-.04-.07-.07-.09-.11-.01-.03-.03-.07-.05-.11-.07-.15-.1-.31-.1-.49l-.07-.5c0-.16,0-.31,.02-.46,.01-.15,.03-.3,.05-.46,.02-.16,.04-.31,.05-.46,.01-.15,.04-.3,.09-.47,.11-.62,.25-1.23,.41-1.83,.16-.6,.33-1.2,.51-1.81,.2-.61,.43-1.21,.66-1.8,.24-.58,.48-1.17,.73-1.77,.14-.29,.28-.58,.43-.87,.15-.29,.3-.57,.46-.84,.07-.14,.14-.29,.22-.44,.08-.15,.16-.29,.26-.44,.07-.12,.15-.26,.24-.4,.09-.15,.18-.28,.27-.41,.09-.15,.18-.29,.27-.43,.09-.14,.19-.27,.31-.4,.23-.32,.44-.59,.65-.8,.23-.3,.46-.56,.71-.77,.18-.16,.32-.27,.41-.33,.04-.05,.08-.08,.12-.1,.03-.02,.07-.04,.12-.07,.04-.05,.08-.08,.1-.08l.1-.08c.18-.11,.36-.16,.53-.12,.17,.03,.31,.12,.43,.26,.09,.17,.11,.34,.05,.52-.06,.18-.18,.32-.36,.44,0,.02-.02,.04-.07,.04Z"/>
    <path class="cls-1" d="M53.3,35.06l4.02-7.34v-.03l.07-.11c.09-.17,.22-.29,.39-.36,.17-.07,.33-.07,.49,0,.11,.07,.2,.18,.26,.3,.06,.13,.06,.26,.02,.4l-.03,.07-.85,2.35-.89,2.38-1.63,4.78c-.25,.8-.5,1.6-.75,2.4-.25,.8-.49,1.6-.71,2.39-.11,.4-.23,.8-.34,1.21-.11,.41-.22,.81-.31,1.21v.07c.18-.34,.36-.67,.53-.98s.36-.65,.56-.99c.43-.69,.87-1.36,1.31-2.02,.44-.66,.9-1.31,1.38-1.96,.5-.65,1-1.29,1.5-1.91,.5-.62,1.01-1.23,1.53-1.82l1.63-1.78,.85-.89,.41-.43,.24-.2,.1-.11,.14-.12c.14-.13,.29-.2,.48-.2,.18,0,.33,.06,.44,.18,.11,.1,.17,.21,.17,.35s-.02,.26-.07,.38l-.03,.04s-.04,.06-.05,.09c-.01,.04-.04,.08-.08,.13l-.1,.22-.27,.48-.48,.91c-.16,.34-.31,.66-.46,.96-.15,.3-.29,.62-.43,.95l-.34,.96c-.05,.19-.09,.36-.14,.51-.05,.15-.09,.31-.14,.47-.02,.09-.04,.17-.05,.24-.01,.07-.02,.15-.02,.24-.05,.16-.05,.3,0,.4,0,.07,.01,.13,.03,.18,.02,.05,.04,.1,.07,.14,.04,.04,.08,.06,.1,.05,.02,.02,.07,.02,.14,.01,.04,.02,.11,.02,.2,0,.04-.03,.11-.05,.2-.06,.09-.03,.23-.11,.41-.22,.29-.2,.57-.42,.82-.65,.25-.24,.48-.49,.68-.77,.23-.26,.44-.53,.65-.83,.41-.57,.79-1.17,1.16-1.78l.51-.95c.09-.12,.17-.28,.24-.47l.14-.22,.1-.25c.09-.22,.24-.29,.44-.23,.09,.03,.15,.09,.19,.18,.03,.09,.03,.18-.02,.27v.03c-.14,.2-.23,.36-.27,.48l-.31,.45-.54,.95c-.2,.3-.4,.6-.6,.91-.19,.31-.4,.6-.63,.88-.23,.3-.45,.59-.68,.87-.23,.28-.47,.56-.71,.84-.25,.26-.54,.5-.88,.73-.14,.11-.32,.21-.54,.31-.05,0-.09,.02-.14,.04-.05,.02-.09,.03-.14,.04-.07,.03-.17,.06-.31,.08-.07-.01-.13-.02-.19,0-.06,0-.12,0-.19-.04-.14-.07-.23-.14-.27-.2-.09-.05-.16-.15-.2-.28-.05-.13-.07-.23-.07-.29-.07-.15-.08-.34-.03-.57v-.25c0-.08,.01-.18,.03-.29l.2-1.04,.31-1.02c.07-.23,.14-.46,.2-.69,.07-.22,.15-.45,.24-.69-.23,.21-.45,.43-.66,.65s-.42,.45-.63,.68c-.54,.57-1.07,1.15-1.58,1.74-.51,.59-1.02,1.2-1.51,1.83-.5,.61-.98,1.23-1.45,1.85-.47,.63-.91,1.27-1.34,1.94-.86,1.33-1.63,2.68-2.31,4.03-.09,.22-.23,.29-.41,.23-.14-.05-.2-.15-.2-.31h.03v-.11c.09-.78,.23-1.57,.41-2.38,.09-.4,.18-.8,.27-1.22,.09-.42,.19-.82,.31-1.22,.2-.82,.41-1.63,.63-2.43,.22-.81,.45-1.61,.7-2.41,.25-.82,.5-1.63,.75-2.43,.25-.8,.5-1.61,.75-2.43,0-.04,.01-.08,.03-.11l-1.87,2.96c-.11,.17-.27,.22-.48,.13-.16-.09-.19-.23-.1-.42Z"/>
    <path class="cls-1" d="M71.24,37.67c.2,.24,.4,.41,.58,.49l.37,.05c.18-.02,.32-.05,.41-.09,.25-.06,.53-.21,.85-.46,.23-.14,.48-.37,.75-.68,.25-.24,.49-.49,.72-.77,.23-.28,.44-.57,.65-.87,.43-.64,.81-1.25,1.12-1.81,.18-.34,.35-.66,.51-.97,.16-.3,.32-.62,.48-.96,.11-.2,.28-.28,.51-.24,.2,.08,.25,.25,.14,.49l-1.05,1.93c-.36,.59-.76,1.21-1.19,1.85-.18,.3-.41,.6-.68,.9-.11,.15-.23,.3-.36,.45-.13,.15-.24,.29-.36,.42-.07,.05-.14,.12-.2,.2-.07,.08-.15,.14-.24,.2-.14,.15-.28,.29-.44,.4-.07,.05-.14,.11-.22,.17-.08,.06-.17,.11-.26,.17-.2,.12-.4,.2-.58,.25-.09,.04-.19,.07-.29,.09-.1,.03-.21,.04-.32,.03-.23,.03-.43,.02-.61-.05-.2-.08-.39-.17-.54-.26-.09-.06-.2-.16-.34-.32l-.34,.82c-.25,.62-.53,1.21-.85,1.77-.3,.54-.66,1.08-1.09,1.64-.11,.13-.23,.26-.34,.38-.11,.13-.24,.26-.37,.39-.2,.21-.49,.42-.85,.62-.11,.06-.28,.13-.51,.21-.04,.03-.14,.05-.27,.07l-.27,.04c-.18,.03-.35,.02-.51-.03-.18-.04-.35-.11-.51-.2l-.37-.39-.2-.48c-.09-.26-.14-.57-.14-.93-.02-.18-.03-.34-.02-.49,.01-.15,.03-.3,.05-.46,.02-.18,.04-.35,.05-.5,.01-.15,.04-.3,.09-.47,.07-.32,.14-.63,.2-.92,.07-.29,.16-.59,.27-.9,.11-.33,.22-.64,.32-.94,.1-.3,.21-.59,.32-.87,.23-.57,.5-1.16,.82-1.77,.07-.14,.14-.29,.2-.43s.15-.29,.24-.44l.51-.85c.18-.29,.37-.57,.58-.84,.2-.26,.43-.54,.68-.82,.25-.28,.54-.53,.88-.73,.2-.12,.4-.2,.58-.25,.09-.04,.22-.06,.37-.09,.07,0,.12,0,.17,0h.1s.07,0,.07,0c.18,.02,.32,.1,.41,.23,.09,.13,.11,.29,.07,.48l-.1,.25,.14,.05c.16,.18,.27,.35,.34,.49,.11,.19,.18,.36,.2,.51,.07,.37,.1,.72,.1,1.03v.47c0,.16-.01,.32-.03,.48-.02,.18-.05,.35-.07,.5-.02,.15-.06,.31-.1,.47l-.2,.94c-.05,.16-.09,.31-.14,.44-.05,.13-.09,.27-.14,.41,.07,.15,.16,.29,.27,.43Zm-1.57-5.82c-.23,.1-.44,.25-.65,.46-.11,.08-.22,.18-.31,.28-.09,.1-.19,.22-.31,.35-.09,.13-.18,.24-.27,.36-.09,.11-.18,.23-.27,.36l-.51,.78c-.09,.13-.18,.26-.26,.39-.08,.13-.15,.27-.22,.42-.16,.27-.31,.54-.44,.82-.14,.28-.27,.56-.41,.85-.11,.26-.23,.54-.34,.82-.11,.29-.23,.58-.34,.89-.09,.28-.18,.57-.27,.86-.09,.29-.16,.59-.2,.89-.14,.56-.2,1.13-.2,1.72,0,.27,.03,.53,.1,.8,.11,.25,.24,.43,.37,.52,.2,.13,.42,.18,.65,.15l.17-.02c.09-.01,.15-.03,.17-.06,.14-.02,.26-.07,.37-.15,.27-.15,.5-.32,.68-.5,.23-.19,.43-.42,.61-.69,.11-.13,.21-.25,.29-.38,.08-.12,.16-.25,.26-.37,.07-.12,.14-.25,.22-.38,.08-.13,.15-.27,.22-.42,.29-.51,.54-1.07,.75-1.66,.11-.26,.21-.52,.29-.78,.08-.26,.15-.52,.22-.77v-.07c-.07-.17-.12-.34-.15-.52-.03-.17-.07-.35-.12-.52-.05-.17-.07-.35-.08-.53-.01-.18-.03-.36-.05-.53,0-.18,0-.35-.02-.52-.01-.17,0-.34,.02-.53,0-.38,.02-.75,.07-1.11,.05-.36,.09-.72,.14-1.08l.03-.07s0-.05,.02-.07c.01-.02,.02-.05,.02-.07-.02,0-.1,.04-.24,.1Z"/>
    <path class="cls-1" d="M77.67,31.89l.37-.93,.44-.87c.14-.29,.28-.58,.43-.87,.15-.29,.3-.58,.46-.87l.95-1.72,.99-1.69c.52-.88,1.04-1.76,1.57-2.63,.52-.87,1.04-1.74,1.57-2.6,.07-.23,.14-.46,.22-.67,.08-.21,.16-.44,.26-.68,.2-.61,.41-1.22,.63-1.83,.22-.6,.44-1.21,.66-1.83l.75-1.82,.44-.9,.44-.9,.27-.44c.04-.07,.1-.15,.15-.24,.06-.09,.12-.17,.19-.25l.2-.23,.27-.27c.14-.11,.28-.19,.44-.23,.02-.03,.08-.05,.17-.06l.17-.02s.1,0,.24,.03c.04,0,.09,0,.12,.02,.03,.02,.07,.04,.12,.05,.14,.07,.23,.14,.27,.2l.17,.21,.07,.26c.04,.13,.04,.25,0,.37,0,.16-.01,.27-.03,.34-.05,.23-.09,.42-.14,.56l-.2,.5c-.11,.33-.24,.64-.39,.93-.15,.29-.31,.58-.49,.88l-.95,1.72c-.34,.57-.68,1.12-1.02,1.68-.34,.55-.69,1.11-1.05,1.68l-.68,1.11-.82,2.37-1.19,3.64-.58,1.8-.54,1.83-2.25,7.3-1.09,3.66-.82,2.75,.07-.08,.75-.81,1.46-1.62c.48-.56,.95-1.12,1.41-1.68,.46-.56,.92-1.13,1.38-1.71,.45-.58,.9-1.16,1.33-1.75s.85-1.18,1.26-1.78c.41-.62,.81-1.23,1.19-1.84,.39-.6,.76-1.22,1.12-1.86,.07-.17,.19-.22,.37-.15,.16,.09,.19,.21,.1,.36-.39,.64-.77,1.27-1.16,1.9-.39,.63-.78,1.24-1.19,1.84-.41,.62-.83,1.23-1.28,1.83-.44,.6-.89,1.19-1.34,1.77-.45,.58-.91,1.15-1.38,1.71-.47,.56-.94,1.12-1.41,1.68l-1.5,1.66-.75,.81c-.09,.1-.23,.23-.41,.39l-.37,.39c-.16,.13-.29,.14-.41,.02-.05-.04-.07-.11-.07-.23l.92-3.7c.16-.61,.31-1.22,.46-1.84,.15-.62,.31-1.23,.49-1.84,.32-1.24,.64-2.46,.97-3.68,.33-1.21,.67-2.44,1.04-3.69l.51-1.83c.11-.31,.21-.61,.29-.92,.08-.3,.16-.61,.26-.91,.09-.3,.18-.6,.27-.9,.09-.29,.18-.6,.27-.93l-.95,1.52c-.36,.57-.71,1.12-1.06,1.66-.34,.54-.68,1.1-1.02,1.66-.18,.27-.35,.55-.51,.83-.16,.28-.32,.56-.48,.83-.09,.15-.18,.29-.26,.42-.08,.13-.15,.27-.22,.42-.09,.15-.17,.29-.24,.44s-.14,.29-.2,.43c-.07,.17-.19,.22-.37,.15-.18-.06-.23-.17-.14-.32Zm10.62-18.71l.44-.84,.37-.83v-.03l-.1,.15c-.14,.27-.27,.54-.41,.82-.14,.28-.27,.56-.41,.85-.05,.1-.09,.22-.14,.36,.04-.07,.09-.15,.12-.24,.03-.08,.07-.16,.12-.24Z"/>
    <path class="cls-1" d="M89.58,30.31l-.27,.85-.27,.85c-.09,.28-.18,.56-.26,.85-.08,.28-.15,.57-.22,.87l-.48,1.72-.41,1.71c-.07,.28-.13,.56-.19,.85-.06,.29-.11,.57-.15,.85-.05,.3-.09,.59-.14,.88-.05,.29-.08,.57-.1,.84-.02,.14-.03,.27-.03,.41v.4c0,.18,.01,.31,.03,.4,.02,.04,.03,.09,.03,.15s.01,.11,.03,.15l.03,.03,.1-.12c.09-.13,.18-.24,.27-.36,.09-.11,.18-.23,.27-.36l1.09-1.47,1.02-1.52,1.06-1.53,1.02-1.52c.66-1.04,1.32-2.07,1.97-3.09,.66-1.02,1.32-2.07,1.97-3.13,.14-.2,.31-.26,.51-.17,.18,.11,.22,.27,.1,.49h-.03s-4.05,6.17-4.05,6.17l-1.02,1.52-1.02,1.56-1.05,1.53-1.06,1.53-.27,.38-.31,.38-.17,.19s-.04,.04-.07,.04l-.07,.08-.03,.04h-.07v.04l-.2,.03c-.09,.01-.16,.01-.2,0-.09-.03-.15-.07-.17-.11-.07-.04-.11-.07-.14-.12-.02-.04-.06-.08-.1-.12l-.1-.26-.07-.23c-.02-.11-.03-.27-.03-.47-.02-.15-.03-.31-.02-.45,.01-.15,.02-.3,.02-.46,.05-.59,.11-1.17,.19-1.75,.08-.57,.18-1.16,.29-1.76l.31-1.76,.37-1.74,.37-1.74,.2-.87,.2-.87c.05-.19,.15-.34,.31-.46,.16-.12,.33-.17,.51-.15,.18,.02,.32,.1,.43,.24,.1,.14,.13,.31,.09,.49-.02,.03-.03,.05-.03,.07Zm.95-9.48l.41-1.91c.04-.19,.14-.35,.29-.48,.15-.13,.31-.19,.49-.17,.43,.05,.61,.3,.54,.73l-.03,.07-.61,1.91c-.05,.14-.14,.26-.29,.34-.15,.09-.29,.12-.43,.09-.32-.07-.44-.26-.37-.59Z"/>
    <path class="cls-1" d="M97.85,26.73l-2.59,6.67-1.94,5.03-.34,.82,.82-1.16c.18-.27,.36-.53,.53-.76,.17-.24,.35-.48,.53-.73l2.18-2.97c.39-.48,.77-.96,1.14-1.44,.37-.48,.75-.96,1.14-1.44,.2-.25,.4-.49,.6-.72,.19-.23,.4-.46,.63-.69l.68-.7c.04-.05,.1-.1,.17-.16l.2-.16,.27-.17s.04-.04,.07-.04h.03s.02-.04,.07-.05h.07s.07-.05,.14-.06h.07s.07,.01,.07,.01h.07c.09,.02,.18,.07,.27,.12,.07,.04,.12,.08,.17,.15,.07,.06,.12,.15,.17,.28l.14,.49c.02,.18,.04,.34,.05,.48,.01,.15,.02,.28,.02,.42,.02,.31,.03,.61,.02,.89-.01,.28-.03,.57-.05,.87-.05,.59-.08,1.16-.12,1.72-.03,.56-.06,1.13-.09,1.72,0,.13,0,.27-.02,.41-.01,.14,0,.27,.02,.4v.4c0,.13,.02,.27,.07,.4,0,.07,.01,.12,.03,.16,0,.04,0,.07,.02,.08,.01,.01,.02,.03,.02,.05v.03h.03s.1-.12,.1-.12l.31-.28,.54-.72,.48-.71c.18-.27,.35-.53,.49-.78,.15-.24,.3-.5,.46-.77l.92-1.58c.27-.46,.56-.99,.85-1.57,.29-.54,.58-1.06,.85-1.59,.27-.52,.54-1.06,.82-1.61,.11-.24,.28-.32,.51-.24,.2,.08,.26,.25,.17,.48l-1.74,3.21c-.3,.54-.59,1.07-.89,1.59-.3,.52-.6,1.06-.92,1.59-.16,.27-.31,.53-.46,.77-.15,.25-.31,.5-.49,.78l-.51,.78c-.18,.27-.37,.52-.58,.76-.05,.07-.1,.14-.17,.21-.07,.07-.12,.12-.17,.18l-.24,.17c-.05,.05-.09,.08-.14,.09-.09,.06-.16,.09-.2,.1-.11,.02-.2,.02-.27,0-.09-.03-.16-.07-.2-.11-.09-.08-.16-.16-.2-.24-.05-.04-.07-.08-.07-.13s-.01-.09-.03-.13l-.07-.23c-.05-.15-.07-.3-.07-.45s-.01-.3-.03-.45c0-.13,0-.27-.02-.42-.01-.14-.02-.3-.02-.45v-1.69c0-.29,0-.58,.02-.86,.01-.28,.02-.57,.02-.86v-1.25c0-.13-.01-.27-.03-.4,0-.18-.01-.31-.03-.4,0-.07,0-.13-.02-.2-.01-.07-.02-.12-.02-.17-.02-.04-.03-.07-.03-.1s-.01-.04-.03-.06l-.17,.16-.61,.62-.61,.66-.58,.69c-.79,.94-1.57,1.88-2.31,2.82-.77,.96-1.53,1.92-2.26,2.88-.74,.96-1.47,1.92-2.2,2.9-.18,.27-.36,.53-.53,.76-.17,.24-.35,.48-.53,.73l-.48,.71-.24,.44-.1,.22c-.05,.05-.09,.12-.14,.22-.02,.07-.07,.12-.14,.15,0,.02,0,.03-.02,.04-.01,0-.02,.01-.02,.04h-.03s-.03,.04-.03,.04c-.02,0-.04,.01-.05,.02-.01,.01-.03,.02-.05,.02-.02,0-.08,.02-.17,.04-.09,.02-.18-.01-.27-.11-.05-.11-.06-.18-.05-.21,.01-.04,.02-.06,.02-.09v-.07s.01-.04,.03-.04v-.07l.07-.08s0-.04,.02-.05c.01-.01,.02-.03,.02-.05l.27-.41,.14-.22,.2-.43c.11-.26,.22-.54,.32-.82,.1-.28,.21-.56,.32-.82l.65-1.68,.61-1.67c.2-.57,.41-1.13,.61-1.69,.2-.56,.4-1.12,.58-1.68,.39-1.13,.77-2.26,1.14-3.38,.37-1.12,.74-2.25,1.11-3.38,.04-.19,.15-.33,.32-.43s.35-.14,.53-.12c.41,.1,.56,.37,.44,.82,0,.02-.01,.04-.03,.04Z"/>
    <path class="cls-1" d="M113.27,23.96l-.07,.04s-.06,.04-.1,.05l-.17,.13-.34,.25c-.11,.08-.22,.17-.32,.26-.1,.09-.21,.19-.32,.3-.41,.39-.81,.87-1.19,1.41l-.54,.75-.48,.77c-.18,.27-.34,.55-.48,.83-.14,.28-.28,.55-.44,.82-.14,.27-.27,.54-.41,.83s-.26,.58-.37,.86-.23,.57-.34,.86c-.11,.29-.23,.57-.34,.86l-.31,.89-.27,.88c-.18,.63-.32,1.21-.41,1.74-.05,.16-.07,.31-.09,.45-.01,.14-.03,.29-.05,.45-.02,.14-.04,.28-.05,.43-.01,.15-.02,.29-.02,.42,0,.18,.01,.31,.03,.4,0,.11,.02,.23,.07,.36,.07,.13,.13,.21,.17,.25,.02,.02,.06,.03,.1,.02,0,.02,.03,.03,.1,.02l.14-.02s.05-.04,.07-.04c.02,0,.06-.02,.1-.05l.31-.25c.11-.11,.22-.22,.31-.33,.09-.11,.18-.23,.27-.36l.51-.78c.09-.12,.18-.25,.26-.39,.08-.13,.15-.27,.22-.42l.44-.84,.41-.83,.37-.86,.37-.86c.11-.28,.22-.57,.32-.85,.1-.28,.21-.58,.32-.89,.04-.14,.1-.28,.15-.43,.06-.14,.11-.28,.15-.43l.17-.46c.04-.19,.09-.33,.14-.42v-.03c.16-.38,.42-.52,.78-.41,.27,.08,.39,.26,.34,.56l-.1,.82-.1,.86c-.05,.28-.08,.55-.1,.82s-.05,.56-.07,.85c-.02,.27-.04,.55-.05,.82s-.02,.54-.02,.81v.51l.14-.29c.11-.22,.23-.44,.34-.65,.11-.22,.23-.44,.34-.65,.23-.44,.45-.87,.68-1.31,.23-.44,.46-.87,.72-1.31l1.46-2.56,1.5-2.57c.04-.1,.12-.16,.22-.18,.1-.03,.2-.02,.29,.01,.09,.03,.14,.1,.15,.2,.01,.1,0,.2-.05,.29-.25,.42-.49,.84-.73,1.27s-.48,.86-.73,1.3c-.25,.42-.49,.84-.73,1.27s-.48,.86-.73,1.3c-.25,.42-.48,.84-.7,1.28-.22,.43-.44,.87-.66,1.31-.11,.22-.23,.44-.34,.65-.11,.22-.23,.44-.34,.65l-.61,1.3c-.05,.12-.11,.2-.2,.25-.09,.05-.19,.06-.31,.03-.07-.01-.11-.05-.14-.12-.05-.04-.08-.08-.1-.12-.02-.04-.05-.08-.07-.13-.05-.13-.07-.2-.07-.23-.05-.08-.07-.16-.07-.24s-.01-.15-.03-.21c-.05-.15-.07-.29-.07-.43s-.01-.28-.03-.43c-.02-.29-.03-.57-.03-.86v-.86c0-.07,0-.14,.02-.2,.01-.07,.02-.14,.02-.2l-.31,.62c-.07,.14-.14,.29-.2,.43-.07,.14-.15,.28-.24,.4l-.41,.87-.44,.84-.48,.84c-.18,.29-.36,.58-.53,.85-.17,.27-.36,.54-.56,.82-.11,.13-.22,.26-.32,.38-.1,.13-.22,.26-.36,.39-.09,.1-.23,.21-.41,.33l-.27,.14s-.1,.05-.17,.06l-.14,.02c-.16,.02-.27,.03-.34,.01l-.27-.16c-.11-.05-.18-.12-.2-.21-.04-.04-.07-.07-.09-.11-.01-.03-.03-.07-.05-.11-.07-.15-.1-.31-.1-.49l-.07-.5c0-.16,0-.31,.02-.46,.01-.15,.03-.3,.05-.46,.02-.16,.04-.31,.05-.46,.01-.15,.04-.3,.09-.47,.11-.62,.25-1.23,.41-1.83,.16-.6,.33-1.2,.51-1.81,.2-.61,.43-1.21,.66-1.8,.24-.58,.48-1.17,.73-1.77,.14-.29,.28-.58,.43-.87,.15-.29,.3-.57,.46-.84,.07-.14,.14-.29,.22-.44s.16-.29,.26-.44c.07-.12,.15-.26,.24-.4,.09-.15,.18-.28,.27-.41,.09-.15,.18-.29,.27-.43,.09-.14,.19-.27,.31-.4,.23-.32,.44-.59,.65-.8,.23-.3,.47-.56,.72-.77,.18-.16,.32-.27,.41-.33,.04-.05,.08-.08,.12-.1,.03-.02,.07-.04,.12-.07,.04-.05,.08-.08,.1-.08l.1-.08c.18-.11,.36-.16,.53-.12s.31,.12,.43,.26c.09,.17,.11,.34,.05,.52-.06,.18-.18,.32-.36,.44,0,.02-.02,.04-.07,.04Z"/>
  </g>
  <g>
    <path class="cls-1" d="M45.38,88.42l17.53-2.33c.73-1.45,1.43-2.9,2.13-4.36,.69-1.46,1.39-2.93,2.09-4.42,.95-2,1.89-3.98,2.81-5.94,.92-1.96,1.83-3.95,2.74-5.96,.93-2,1.84-3.98,2.74-5.96,.9-1.98,1.79-3.98,2.67-5.99,.45-1.01,.89-2.01,1.31-3,.42-.99,.85-1.99,1.28-2.99,.43-1,.86-2.01,1.28-3.01,.42-1,.83-2,1.24-3.01,.09-.24,.24-.42,.46-.54,.22-.12,.44-.14,.66-.06,.18,.04,.31,.14,.39,.28,.08,.15,.12,.31,.12,.49l-.71,7.76-.71,7.76c-.25,2.62-.5,5.22-.77,7.78-.26,2.57-.53,5.16-.8,7.79l-1.16,11.03,18.72-2.46c.23-.03,.43,.01,.6,.14,.17,.12,.26,.31,.26,.56s-.08,.46-.24,.64c-.16,.18-.36,.29-.61,.32l-18.89,2.25-.31,3.04c-.27,2.6-.54,5.19-.82,7.77-.27,2.58-.56,5.17-.85,7.78,0,.09-.03,.16-.1,.22-.07,.05-.14,.07-.2,.06-.18,.03-.27-.06-.27-.27,.25-2.6,.49-5.19,.72-7.76,.23-2.57,.45-5.16,.68-7.75l.24-3-16.54,1.99c-.18,.34-.36,.69-.54,1.04-.18,.35-.36,.71-.54,1.07-.09,.19-.23,.25-.41,.16-.16-.04-.19-.16-.1-.36,.14-.31,.28-.62,.43-.92,.15-.3,.3-.61,.46-.92l-16.98,2.05c-.14,.02-.25-.02-.34-.1-.09-.09-.14-.19-.14-.3,.04-.32,.22-.5,.51-.54Zm35.33-15.69l1.26-15.49,.61-7.78,.2-3.1-.68,1.54c-.45,1.01-.91,2.01-1.36,2.99-.45,.99-.92,1.98-1.4,2.99-1.84,3.99-3.72,7.95-5.65,11.88-.95,2-1.91,3.98-2.88,5.93-.96,1.96-1.93,3.92-2.91,5.9-.73,1.41-1.44,2.8-2.13,4.19-.69,1.39-1.39,2.79-2.09,4.19l16.03-2.12,.99-11.14Z"/>
    <path class="cls-1" d="M87.99,68.88l4.02-7.34v-.03l.07-.11c.09-.17,.22-.29,.39-.36,.17-.07,.33-.07,.49,0,.11,.07,.2,.18,.26,.3,.06,.13,.06,.26,.02,.4l-.03,.07-.85,2.35-.89,2.38-1.63,4.78c-.25,.8-.5,1.6-.75,2.4-.25,.8-.49,1.6-.71,2.39-.11,.4-.23,.8-.34,1.21-.11,.41-.22,.81-.31,1.21v.07c.18-.34,.36-.67,.53-.98s.36-.65,.56-.99c.43-.69,.87-1.36,1.31-2.02,.44-.66,.9-1.31,1.38-1.96,.5-.65,1-1.29,1.5-1.91,.5-.62,1.01-1.22,1.53-1.82l1.63-1.78,.85-.89,.41-.43,.24-.2,.1-.11,.14-.12c.14-.13,.29-.2,.48-.2,.18,0,.33,.06,.44,.18,.11,.1,.17,.21,.17,.35s-.02,.26-.07,.38l-.03,.04s-.04,.06-.05,.09c-.01,.04-.04,.08-.08,.13l-.1,.22-.27,.48-.48,.91c-.16,.34-.31,.66-.46,.96-.15,.3-.29,.62-.43,.95l-.34,.96c-.05,.19-.09,.36-.14,.51-.05,.15-.09,.31-.14,.47-.02,.09-.04,.17-.05,.24-.01,.07-.02,.15-.02,.24-.05,.16-.05,.3,0,.4,0,.07,.01,.13,.03,.18,.02,.05,.04,.1,.07,.14,.04,.04,.08,.06,.1,.05,.02,.02,.07,.02,.14,.01,.04,.02,.11,.02,.2,0,.04-.03,.11-.05,.2-.06,.09-.03,.23-.11,.41-.22,.29-.2,.57-.42,.82-.65,.25-.24,.48-.49,.68-.77,.23-.26,.44-.53,.65-.83,.41-.57,.79-1.17,1.16-1.78l.51-.95c.09-.12,.17-.28,.24-.47l.14-.22,.1-.25c.09-.21,.24-.29,.44-.23,.09,.03,.15,.09,.19,.18,.03,.09,.03,.18-.02,.27v.03c-.14,.2-.23,.36-.27,.48l-.31,.45-.54,.95c-.2,.3-.4,.6-.6,.91-.19,.31-.4,.6-.63,.88-.23,.3-.45,.59-.68,.87-.23,.28-.47,.56-.71,.84-.25,.26-.54,.5-.88,.73-.14,.11-.32,.21-.54,.31-.05,0-.09,.02-.14,.04-.05,.02-.09,.03-.14,.04-.07,.03-.17,.06-.31,.08-.07-.01-.13-.02-.19,0-.06,0-.12,0-.19-.04-.14-.07-.23-.14-.27-.2-.09-.05-.16-.15-.2-.28-.05-.13-.07-.23-.07-.29-.07-.15-.08-.34-.03-.57v-.25c0-.08,.01-.18,.03-.29l.2-1.04,.31-1.02c.07-.23,.14-.46,.2-.69,.07-.22,.15-.45,.24-.69-.23,.21-.45,.43-.66,.65s-.42,.45-.63,.68c-.54,.57-1.07,1.15-1.58,1.74-.51,.59-1.02,1.2-1.51,1.83-.5,.61-.98,1.23-1.45,1.85-.47,.63-.91,1.27-1.34,1.94-.86,1.33-1.63,2.68-2.31,4.03-.09,.22-.23,.29-.41,.23-.14-.05-.2-.15-.2-.31h.03v-.11c.09-.78,.23-1.57,.41-2.39,.09-.39,.18-.8,.27-1.22,.09-.42,.19-.82,.31-1.22,.2-.82,.41-1.63,.63-2.43,.22-.81,.45-1.61,.7-2.41,.25-.82,.5-1.63,.75-2.43,.25-.8,.5-1.61,.75-2.43,0-.04,.01-.08,.03-.11l-1.87,2.96c-.11,.17-.27,.22-.48,.13-.16-.09-.19-.23-.1-.42Z"/>
    <path class="cls-1" d="M103,67.04l-2.76,13.14,.41-.53c.32-.38,.64-.75,.95-1.11,.32-.36,.63-.72,.95-1.08,.34-.36,.68-.71,1.02-1.04,.34-.33,.68-.66,1.02-1,.36-.34,.71-.68,1.05-1.01,.34-.33,.69-.65,1.06-.97,.7-.66,1.4-1.31,2.09-1.96,.69-.65,1.38-1.31,2.06-1.99,.32-.34,.64-.67,.97-1,.33-.33,.65-.67,.97-1.03,.16-.2,.31-.39,.46-.55,.15-.17,.29-.35,.43-.55,.14-.2,.27-.39,.39-.58s.24-.38,.36-.57c.14-.2,.28-.25,.44-.16,.16,.07,.2,.21,.14,.42-.11,.22-.24,.43-.39,.63-.15,.2-.29,.4-.43,.6-.32,.43-.62,.81-.92,1.14-.32,.36-.65,.71-.99,1.06-.34,.35-.68,.7-1.02,1.04-.68,.68-1.37,1.35-2.06,2.01-.69,.66-1.39,1.32-2.09,1.98l-2.08,1.97c-.34,.32-.68,.65-1,.98-.33,.34-.65,.68-.97,1.01-.32,.36-.64,.71-.95,1.06-.32,.35-.62,.71-.92,1.09-.14,.2-.27,.39-.41,.56-.14,.18-.26,.36-.37,.56-.11,.2-.23,.39-.34,.59-.11,.2-.22,.39-.31,.58-.07,.23-.23,.32-.48,.27-.18-.07-.25-.19-.2-.38l2.59-15.27c.05-.19,.14-.35,.29-.48,.15-.13,.31-.19,.49-.17,.18,.02,.33,.1,.44,.23,.11,.13,.15,.29,.1,.48v.03Z"/>
    <path class="cls-1" d="M115.69,65.32l-.27,.85-.27,.85c-.09,.28-.18,.56-.26,.85-.08,.28-.15,.57-.22,.87l-.48,1.72-.41,1.71c-.07,.28-.13,.56-.19,.85-.06,.29-.11,.57-.15,.85-.05,.3-.09,.59-.14,.88s-.08,.57-.1,.84c-.02,.14-.03,.27-.03,.41v.4c0,.18,.01,.31,.03,.4,.02,.04,.03,.09,.03,.15s.01,.11,.03,.15l.03,.03,.1-.11c.09-.13,.18-.24,.27-.36,.09-.11,.18-.23,.27-.36l1.09-1.47,1.02-1.52,1.06-1.53,1.02-1.52c.66-1.04,1.32-2.07,1.97-3.09,.66-1.02,1.32-2.07,1.97-3.13,.14-.2,.31-.26,.51-.17,.18,.11,.22,.27,.1,.49h-.03s-4.05,6.17-4.05,6.17l-1.02,1.52-1.02,1.56-1.05,1.53-1.06,1.53-.27,.38-.31,.38-.17,.19s-.04,.04-.07,.04l-.07,.08-.03,.04h-.07v.04l-.2,.03c-.09,.01-.16,.01-.2,0-.09-.03-.15-.07-.17-.11-.07-.04-.11-.07-.14-.12-.02-.04-.06-.08-.1-.12l-.1-.26-.07-.23c-.02-.11-.03-.27-.03-.47-.02-.15-.03-.31-.02-.45,.01-.15,.02-.3,.02-.46,.05-.59,.11-1.17,.19-1.75,.08-.57,.18-1.16,.29-1.76l.31-1.76,.37-1.74,.37-1.74,.2-.87,.2-.87c.05-.19,.15-.34,.31-.46,.16-.12,.33-.17,.51-.15,.18,.02,.32,.1,.43,.24,.1,.14,.13,.31,.09,.49-.02,.03-.03,.05-.03,.07Zm.95-9.48l.41-1.91c.04-.19,.14-.35,.29-.48,.15-.13,.31-.19,.49-.17,.43,.05,.61,.3,.54,.73l-.03,.07-.61,1.91c-.05,.14-.14,.26-.29,.34s-.29,.12-.43,.09c-.32-.07-.44-.26-.37-.59Z"/>
    <path class="cls-1" d="M122.36,63.82l8.1-3.72c.18-.07,.36-.08,.53-.02,.17,.06,.28,.17,.32,.34,.07,.22,.03,.42-.1,.62l-.03,.04-4.39,5.4-4.32,5.46c-1.38,1.77-2.79,3.59-4.22,5.48-.36,.48-.71,.94-1.06,1.39-.34,.45-.67,.91-.99,1.39-.07,.12-.14,.23-.22,.33-.08,.1-.16,.21-.26,.34l1.43-1.21c1.18-1.02,2.38-1.93,3.61-2.73,.64-.43,1.28-.82,1.94-1.18,.32-.2,.65-.38,.99-.54,.34-.16,.69-.32,1.05-.48,.34-.14,.69-.26,1.04-.38s.71-.22,1.07-.32c.18-.05,.36-.08,.54-.11,.18-.03,.36-.05,.54-.08,.11-.02,.21-.03,.29-.04,.08-.01,.18-.01,.29,0,.05,0,.09,0,.14,0,.04,0,.09,0,.14,0,0,.02,.01,.03,.03,.03l6.23-11.59c.11-.22,.27-.28,.48-.2,.18,.09,.23,.24,.14,.45l-6.36,11.81c-.11,.15-.25,.23-.41,.23h-.03s-.03-.02-.03-.02h-.03c-.07,.01-.11,0-.14-.01-.09,.01-.17,.01-.24,0-.07,0-.14,.01-.22,.01-.08,0-.17,0-.26,.02-.18,.03-.35,.05-.51,.07-.16,.02-.33,.06-.51,.1-.63,.18-1.3,.41-2.01,.68-.32,.16-.64,.31-.97,.47-.33,.16-.65,.31-.97,.47-.59,.33-1.21,.72-1.87,1.17-.61,.4-1.21,.83-1.8,1.28-.59,.45-1.18,.91-1.77,1.38-1.13,.97-2.23,1.97-3.3,3.02-.16,.18-.32,.19-.48,.03-.11-.1-.12-.23-.03-.4,.07-.12,.14-.25,.2-.38,.07-.13,.15-.26,.24-.39l.44-.74c.16-.27,.32-.52,.48-.76,.16-.24,.32-.47,.48-.69,.34-.5,.68-.98,1-1.45,.33-.47,.66-.95,1-1.42l4.12-5.6c.7-.93,1.4-1.85,2.09-2.77,.69-.92,1.4-1.84,2.13-2.77,.45-.6,.92-1.21,1.4-1.83,.48-.62,.96-1.24,1.46-1.87l-6.19,2.34c-.25,.08-.4,0-.44-.21-.05-.2,.03-.34,.24-.44Z"/>
    <path class="cls-1" d="M135.87,63.3l-.31,.85-.54,1.66c-.18,.57-.35,1.13-.51,1.69-.16,.56-.31,1.12-.44,1.68l-.2,.84c-.04,.14-.08,.28-.1,.42-.02,.14-.05,.28-.07,.41-.14,.56-.24,1.12-.31,1.7-.02,.14-.04,.28-.05,.41-.01,.14-.02,.27-.02,.41-.02,.14-.03,.27-.03,.41v.4l.07,.36c0,.09,.02,.2,.07,.33l.14,.18s.07,0,.07,.02l.14-.02c.07,0,.17-.05,.31-.11,.07-.03,.17-.1,.31-.21,.23-.12,.43-.31,.61-.56,.2-.21,.4-.43,.58-.65l.51-.71,.92-1.51,.82-1.6c.5-1.04,.98-2.11,1.43-3.24,.11-.26,.22-.53,.32-.8,.1-.27,.21-.55,.32-.84l.31-.82,.14-.42,.07-.18,.07-.21c.04-.19,.15-.33,.32-.43,.17-.1,.35-.14,.53-.12,.14,.03,.25,.09,.34,.21,.09,.11,.12,.25,.1,.41v.1s-.02,.14-.07,.28c0,.05,0,.1-.02,.15-.01,.06-.02,.11-.02,.15l-.1,.62c-.05,.21-.08,.42-.1,.64-.02,.22-.05,.43-.07,.63-.11,.83-.18,1.64-.2,2.46v.61c0,.2,.01,.4,.03,.6l.07,.6c.02,.09,.04,.17,.05,.26,.01,.09,.04,.16,.09,.22l.1,.19,.03,.03h.03s0,.03,0,.03h.03s.03-.04,.03-.04h.1s.2-.14,.2-.14c.16-.11,.31-.24,.44-.4l.44-.47,.78-1.05c.11-.2,.23-.38,.34-.55,.11-.17,.23-.36,.34-.55l.68-1.14,.61-1.16c.2-.39,.41-.78,.61-1.16,.2-.39,.4-.79,.58-1.19l.54-1.19,.51-1.18c.07-.23,.23-.32,.48-.27,.2,.08,.26,.23,.17,.45v.03l-.58,1.16-.61,1.2c-.18,.41-.37,.81-.58,1.19-.2,.39-.42,.78-.65,1.17-.2,.41-.41,.8-.61,1.18-.2,.38-.43,.76-.68,1.16-.11,.2-.23,.39-.34,.57-.11,.18-.24,.38-.37,.57-.11,.2-.24,.38-.37,.56-.14,.18-.27,.36-.41,.56l-.44,.53-.54,.48c-.11,.11-.24,.18-.37,.22-.05,.03-.11,.05-.2,.06l-.03,.04-.14,.02s-.07,0-.07-.02c-.11,.02-.2,0-.27-.06l-.2-.11c-.11-.12-.18-.23-.2-.34-.09-.17-.16-.37-.2-.61-.05-.17-.09-.39-.14-.66,0-.11,0-.22-.02-.32-.01-.1-.02-.21-.02-.32l-.07-.6c-.02-.31-.03-.63-.03-.96v-1l-.14,.29c-.25,.55-.51,1.09-.78,1.63-.27,.53-.56,1.07-.85,1.6-.59,1.12-1.23,2.17-1.91,3.17-.18,.25-.36,.5-.54,.75-.18,.25-.39,.49-.61,.73-.23,.21-.48,.43-.75,.64-.07,.05-.14,.1-.22,.15-.08,.04-.15,.08-.22,.12-.18,.09-.35,.15-.51,.17l-.34,.05c-.07-.01-.17-.06-.31-.13-.11-.05-.18-.12-.2-.21l-.17-.21c-.05-.08-.07-.16-.09-.24-.01-.08-.03-.15-.05-.21,0-.09,0-.17-.02-.23-.01-.07-.02-.14-.02-.23-.05-.31-.05-.6,0-.88,0-.16,0-.3,.02-.44,.01-.14,.03-.29,.05-.45,.07-.59,.15-1.17,.26-1.74,.1-.57,.21-1.14,.32-1.72,.14-.58,.27-1.15,.39-1.71,.13-.56,.27-1.13,.43-1.71l.41-1.71c.05-.14,.09-.28,.12-.42,.03-.14,.07-.28,.12-.42l.2-.87c.05-.19,.15-.33,.31-.45,.16-.11,.33-.16,.51-.14,.18,.02,.32,.1,.41,.25,.09,.15,.11,.31,.07,.5l-.03,.07-.31,.82Z"/>
  </g>
  <path class="cls-1" d="M146.6,71.95c0,.84-.66,1.5-1.5,1.5s-1.5-.66-1.5-1.5,.67-1.49,1.5-1.49,1.5,.66,1.5,1.49Zm-2.63,0c0,.67,.49,1.19,1.13,1.19s1.13-.52,1.13-1.19-.48-1.18-1.13-1.18-1.13,.53-1.13,1.18Zm.9,.77h-.31v-1.48c.12-.03,.3-.06,.53-.06,.27,0,.39,.05,.5,.12,.09,.06,.15,.17,.15,.31,0,.17-.14,.3-.31,.35v.02c.15,.05,.22,.16,.27,.36,.05,.22,.08,.31,.11,.36h-.33c-.05-.06-.08-.18-.11-.36-.03-.15-.12-.23-.31-.23h-.16v.59Zm0-.84h.16c.19,0,.34-.06,.34-.21,0-.14-.09-.23-.31-.23-.1,0-.15,0-.19,.02v.42Z"/>
</svg>