<?xml version="1.0" encoding="UTF-8"?>
<svg id="Capa_1" data-name="Capa 1" xmlns="http://www.w3.org/2000/svg" viewBox="0 0 170.08 113.39">
  <defs>
    <style>
      .cls-1 {
        font-family: Montserrat-SemiBold, Montserrat;
        font-size: 11.24px;
        font-weight: 600;
      }

      .cls-1, .cls-2 {
        fill: #00369c;
      }

      .cls-3 {
        letter-spacing: 0em;
      }

      .cls-4 {
        fill: #fff;
      }

      .cls-5 {
        fill: #80a9e1;
      }

      .cls-6 {
        fill: #2670ca;
      }

      .cls-7 {
        letter-spacing: 0em;
      }

      .cls-8 {
        letter-spacing: 0em;
      }

      .cls-9 {
        letter-spacing: 0em;
      }
    </style>
  </defs>
  <text class="cls-1" transform="translate(10.91 104.47)"><tspan x="0" y="0">D</tspan><tspan class="cls-7" x="9.28" y="0">r</tspan><tspan x="13.91" y="0">a. A</tspan><tspan class="cls-8" x="35" y="0">k</tspan><tspan class="cls-9" x="42.03" y="0">a</tspan><tspan x="48.91" y="0">eena Domí</tspan><tspan class="cls-9" x="112.13" y="0">n</tspan><tspan x="119.89" y="0">gu</tspan><tspan class="cls-3" x="135.34" y="0">e</tspan><tspan x="142.28" y="0">z</tspan></text>
  <path class="cls-6" d="M89.5,17.1V6.64h-20.46L10.91,64.98v27.87l54.86-54.64v22.21h-15.68l-21.39,21.61,37.07-.06v10.89h10.89v-12.69c-.69-.3-1.18-.99-1.18-1.79v-6.44h-6.44c-1.08,0-1.96-.88-1.96-1.96v-.92c0-1.08,.88-1.96,1.96-1.96h6.44v-6.44c0-.8,.49-1.49,1.18-1.79V29.93l12.84-12.83Z"/>
  <g>
    <path class="cls-2" d="M127.42,90.56s.09-.05,.09-.11c0-.02,0-.1-.09-.1,0,0,0,0,0,0-.04,0-.1,.06-.11,.11,0,.05,.07,.11,.11,.11h0Z"/>
    <path class="cls-2" d="M110.62,90.9c-.06-1.58-.07-3.31-.02-5.28,0-.11,0-.21,0-.31-.11,.44-.24,.87-.41,1.29-.6,1.53-1.18,3.06-1.75,4.6l-.28,.75c-.14,.36-.34,.66-.57,.92,.43,.06,1.92,.25,4.11,.36-.08-.07-.16-.14-.23-.22-.5-.57-.82-1.38-.85-2.1Z"/>
    <path class="cls-2" d="M114.19,76.46c.1,1.43,.39,2.64,.88,3.77,.25,.56,.44,1.14,.6,1.73,.12-.57,.32-1.13,.55-1.69,.23-.57,.49-1.12,.76-1.66,.21-.44,.43-.88,.62-1.33-.26,0-.52,0-.78-.01-.96-.03-1.85-.31-2.63-.8Z"/>
    <path class="cls-2" d="M121.6,77.35c-.29,.94-.72,1.79-1.14,2.61-.62,1.22-1.17,2.31-1.24,3.52h6.28v-6.93h-2.82c-.28,.26-.63,.45-1.01,.58l-.07,.22Z"/>
    <path class="cls-2" d="M125.56,87.69v-.4h-6.33v2.46c0,.69,0,1.38,0,2.07,0,.69-.25,1.12-.49,1.38,1.9-.11,3.96-.32,6.1-.66-.49-.59-.79-1.33-.77-2.13,.02-1.16,.59-2.14,1.48-2.72Z"/>
    <path class="cls-2" d="M115.66,92.6c-.19,.28-.44,.51-.74,.71,.39,0,.79,0,1.2-.01-.2-.19-.36-.42-.47-.7Z"/>
    <path class="cls-2" d="M159.17,49.74C159.17-3.05,102.11,6.64,102.11,6.64l-23.28,23.51v28.61c.85,.21,1.48,.98,1.48,1.89v6.44h6.44c1.08,0,1.96,.88,1.96,1.96v.92c0,1.08-.88,1.96-1.96,1.96h-6.44v6.44c0,.91-.64,1.68-1.48,1.89v12.59s23.51,0,23.51,0V28.84s33.75-5.23,33.75,20.9c0,16.67-11.28,20.73-19.68,21.45,.19,.27,.37,.55,.56,.83,.07,.03,.2,.07,.32,.07,.77,.04,1.53,.03,2.3,.03,.39,0,.78,0,1.17,0,.74,0,1.41,.26,1.91,.7h.52c.33,0,.66,0,1,0,.8,0,1.63-.02,2.46,.02,1.53,.08,2.6,1.32,2.61,3.03,0,1.91,0,3.82,0,5.74v6.07c.9,.59,1.47,1.6,1.46,2.81,0,.28-.05,.55-.11,.81,13.76-3.78,28.55-14.2,28.55-41.55Z"/>
    <path class="cls-4" d="M121.65,75.92h.39l-.38,1.21c.39-.12,.73-.32,1.01-.58h-.59v-1.02c-.12,.16-.26,.28-.44,.39Z"/>
    <path class="cls-4" d="M128.41,90.41c-.02-.55-.45-.96-1.01-.95-.56,0-.99,.44-.99,.98,0,.54,.45,.99,.99,.99,.58,0,1.02-.44,1.01-1.03Zm-1.1,.03s.06-.1,.11-.11c0,0,0,0,0,0,.09,0,.09,.08,.09,.1,0,.06-.06,.11-.09,.11h0s-.11-.06-.11-.11Z"/>
    <path class="cls-5" d="M120.75,73.21c-1.17,0-2.35,.04-3.52-.02-.38-.02-.91-.18-1.11-.46-1.14-1.67-2.25-3.36-3.29-5.1-.41-.7-.89-1.18-1.47-1.46-.32-.15-.68-.25-1.08-.27-.19-.01-.39-.01-.6,0-1.14,.1-1.97,.74-2.64,1.6-1.55,1.99-2.25,4.33-2.75,6.75-.43,2.08-.23,4.07,.77,5.97,.4,.75,.65,1.59,1.03,2.35,.36,.73,.33,1.41,.05,2.14-.72,1.84-1.41,3.7-2.11,5.55-.22,.58-.25,1.15,.11,1.68,.37,.55,.9,.83,1.56,.76,.7-.08,1.2-.47,1.45-1.15,.67-1.79,1.34-3.58,2.04-5.36,.62-1.57,.74-3.19,.58-4.85-.02-.23-.04-.47-.06-.7,.42,.45,.68,.98,1.03,1.43,.8,1.07,1.02,2.26,.98,3.57-.04,1.74-.05,3.48,.02,5.21,.02,.49,.26,1.05,.58,1.43,.44,.51,1.11,.57,1.75,.28,.72-.33,1.01-.93,1.01-1.69,0-1.47-.04-2.94,.01-4.4,.08-2.01-.2-3.94-1.01-5.8-.92-2.1-1.11-4.33-.99-6.7,.38,.38,.69,.68,.99,.99,.77,.78,1.71,1.17,2.78,1.21,.53,.02,1.06,.02,1.59,.02,.78,0,1.56,0,2.34-.01,.34,0,.62-.11,.87-.26,.18-.1,.32-.23,.44-.39,.18-.24,.3-.51,.31-.83,0-.35-.11-.66-.31-.91-.29-.35-.76-.57-1.34-.58Z"/>
    <path class="cls-5" d="M128.16,75.87c0-1.1-.61-1.89-1.57-1.94-1.15-.06-2.3-.01-3.41-.01v1.53h3.41v9.12h-8.42c-.47-2.92,1.57-5.01,2.36-7.55-.31,0-.6,.04-.89,0-.57-.09-.83,.16-1.04,.67-.42,1.02-.97,1.98-1.38,3-.28,.7-.57,1.46-.59,2.2-.07,2.98-.03,5.96-.03,8.94,0,.52,.27,.85,.76,.85,.5,0,.75-.33,.75-.85,0-.97,0-1.94,0-2.91,0-.89,0-1.79,0-2.72h8.52v1.32h1.51v-.29c0-.92,0-1.83,0-2.75,0-2.87,0-5.73,0-8.6Z"/>
    <path class="cls-5" d="M112.01,65.13c2.14,.01,3.81-1.65,3.82-3.79,0-2.12-1.69-3.83-3.8-3.82-2.1,0-3.81,1.73-3.8,3.84,0,2.08,1.69,3.76,3.78,3.77Z"/>
    <path class="cls-5" d="M129.63,90.47c0-1.27-.93-2.23-2.19-2.24-1.25,0-2.25,.96-2.27,2.19-.02,1.19,1.01,2.25,2.22,2.27,1.22,.02,2.23-.98,2.24-2.22Zm-3.22-.03c0-.54,.43-.98,.99-.98,.55,0,.99,.4,1.01,.95,.02,.59-.42,1.03-1.01,1.03-.54,0-.99-.46-.99-.99Z"/>
  </g>
</svg>