<?xml version="1.0" encoding="UTF-8"?>
<svg id="Capa_1" data-name="Capa 1" xmlns="http://www.w3.org/2000/svg" viewBox="0 0 170.08 113.39">
  <defs>
    <style>
      .cls-1 {
        fill: #7e9d33;
      }

      .cls-2 {
        fill: #9dba43;
      }

      .cls-3 {
        fill: #d88e14;
      }

      .cls-4 {
        fill: #cb6323;
      }

      .cls-5 {
        fill: #d4810d;
      }

      .cls-6 {
        fill: #e2aa32;
      }
    </style>
  </defs>
  <g>
    <path class="cls-2" d="M151.26,49.35s-.04-.68,.12-.73c.69-.56,1.73-.02,2.27-1.06,.27-.78,1.11-.87,1.6-1.55,.11-.21,.32-.62,.54-1.04,.16-.05,.58-.36,.74-.41,.91-.98,.88-2.71,.95-3.6,.62-2.98,4.71-6.52,.88-8.78-.05-.02-.08-.06-.1-.11-.03,.16,.04,.36,.16,.48,.17,.18,.4,.27,.6,.4,1.06,.72,.9,2.36,.29,3.49-.91,1.7-2.55,3.14-2.64,5.06-.03,.7,.15,1.47-.21,2.08-.13,.22-.32,.4-.51,.57-.9,.83-1.8,1.65-2.7,2.48-.41,.38-.84,.77-1.37,.95-.76,.26-1.59,.04-2.38-.08s-1.71-.13-2.28,.43c.6,1.45,1.91,2.39,3.15,3.39,.07-.66,.3-1.33,.91-1.98Z"/>
    <path class="cls-1" d="M159.01,31.9c-.22-.1-.5-.16-.67,0-.05,.05-.07,.11-.09,.17,.02,.04,.05,.08,.1,.11,3.84,2.26-.25,5.81-.88,8.78-.07,.89-.04,2.62-.95,3.6-.16,.05-.58,.36-.74,.41-.22,.42-.43,.83-.54,1.04-.48,.67-1.32,.76-1.6,1.55-.54,1.04-1.58,.5-2.27,1.06-.16,.05-.12,.73-.12,.73-.61,.65-.84,1.32-.91,1.98,.92,.73,1.8,1.49,2.35,2.5,.43-.04,.77-.42,.84-.85,.05-.33-.05-.66-.13-.98-.15-.61-.25-1.25-.16-1.87,.18-1.21,1.03-2.19,1.85-3.09,.88-.97,1.75-1.95,2.63-2.92,.09-.1,.18-.2,.23-.32,.08-.2,.04-.43,0-.65-.22-1.37,.04-2.82,.72-4.03,.41-.73,.96-1.38,1.36-2.11,.47-.85,.73-1.84,.58-2.81s-.73-1.88-1.61-2.3Z"/>
    <path class="cls-3" d="M155.04,60.78c.48-.67,.13-1.78,.31-2.88,.18-.85-.32-1.55-.93-2.25,0,.58-.15,1.15-.31,1.71-.63,2.18-1.44,4.49-3.27,5.84-1.03,.76-2.31,1.16-3.2,2.09-.42,.44-.73,.97-1.09,1.46-1.07,1.42-2.67,2.44-4.41,2.8-.62,.13-1.25,.17-1.85,.36-.56,.17-1.07,.47-1.6,.72-.12,.06-.24,.11-.36,.16,2.48,.27,5.01-.16,7.07-1.52,.85-.57,1.64-1.29,2.52-1.78,1.12-1.19,2.44-2.23,4.13-2.99,1.21-.56,1.87-2.33,2.99-3.72Z"/>
    <path class="cls-5" d="M154.06,54.18c.15,.39,.29,.78,.34,1.19,.01,.1,.01,.19,.01,.29,.61,.69,1.12,1.4,.93,2.25-.17,1.1,.17,2.2-.31,2.88-1.12,1.4-1.78,3.17-2.99,3.72-1.69,.76-3.01,1.79-4.13,2.99,.36-.2,.74-.36,1.14-.45,.86-.2,1.83-.1,2.57-.59,.86-.58,1.08-1.73,1.65-2.6,.66-1,1.82-1.61,2.42-2.65,.43-.75,.53-1.63,.58-2.49,0-.06,0-.13,0-.19,.03-.7,.04-1.42-.17-2.08-.33-1.01-1.11-1.71-2.04-2.25Z"/>
    <path class="cls-5" d="M129.03,55.44c-.31,.57-.52,1.2-.66,1.84-.25,1.15-.29,2.35-.12,3.51,.08,.53,.26,1.11,.6,1.48,0-.02,0-.04,.01-.07,.08-.5,0-1.02,.04-1.53,.07-.82,.44-1.58,.82-2.31,.58-1.12,1.17-2.25,2-3.2,.94-1.09,2.17-1.93,3.2-2.93-2.03,1.27-3.76,2.82-5.77,4.08-.09-.3-.13-.59-.13-.88Z"/>
    <path class="cls-3" d="M143.4,45.49c-1.03-.03-2.04,.2-3.04,.45-1.43,.36-2.92,.83-3.9,1.92-.65,.73-1.01,1.68-1.6,2.47-1.47,1.95-4.2,2.67-5.58,4.69-.09,.13-.17,.27-.25,.42,0,.29,.03,.59,.13,.88,2-1.26,3.73-2.81,5.77-4.08,.54-.53,1.03-1.09,1.38-1.76,.26-.48,.44-1,.72-1.46,.9-1.48,2.64-2.2,4.3-2.7,1.17-.35,2.39-.64,3.61-.52,.05,0,.1,.01,.15,.02-.53-.21-1.12-.31-1.69-.33Z"/>
    <path class="cls-3" d="M128.15,69.66c1.56,.55,2.98,.1,4.21-.98,1.43-.97,3.02,.78,4.34,.54,2.21-.7,4.77-.29,6.57-1.73,1.75-1.6,2.63-3.78,5.2-4.42,.52,0,.96-.82,1.27-.92,1.5-.18,2.51-.89,3.3-1.84,.44-.94,.76-1.96,1.05-2.95,.19-.65,.37-1.32,.3-2-.04-.41-.18-.81-.34-1.19,0-.02-.02-.04-.03-.07-.93-2.31-2.43-4.63-4.79-5.43-.26-.09-.53-.16-.73-.33-.24-.2-.36-.5-.51-.77-.59-1.02-1.74-1.6-2.91-1.76-.05,0-.1-.01-.15-.02-1.22-.12-2.44,.17-3.61,.52-1.66,.5-3.41,1.22-4.3,2.7-.28,.46-.46,.98-.72,1.46-1.04,1.94-3.14,3.04-4.58,4.7-.83,.95-1.43,2.08-2,3.2-.38,.73-.75,1.49-.82,2.31-.04,.51,.04,1.02-.04,1.53,0,.02,0,.04-.01,.07-.29,1.57-2.04,2.72-1.94,4.32,.03,.4,.17,.79,.21,1.19,.03,.38-.04,.75-.17,1.11,.36,.27,.72,.58,1.2,.77Z"/>
    <path class="cls-5" d="M149.74,62.16c-.32,.1-.75,.93-1.27,.92-2.58,.64-3.45,2.82-5.2,4.42-1.8,1.44-4.36,1.03-6.57,1.73-1.31,.24-2.91-1.51-4.34-.54-1.22,1.08-2.64,1.53-4.21,.98-.48-.19-.84-.5-1.2-.77-.26,.75-.74,1.46-.97,2.24-.07,.22-.11,.45-.05,.67,.14,.49,.76,.69,1.26,.58,.5-.11,.92-.42,1.38-.65,2.33-1.18,5.16,0,7.75-.36,.69-.1,1.37-.31,2.01-.58,.12-.05,.24-.11,.36-.16,.53-.25,1.04-.54,1.6-.72,.6-.19,1.23-.24,1.85-.36,1.74-.36,3.34-1.37,4.41-2.8,.36-.49,.67-1.02,1.09-1.46,.88-.92,2.17-1.33,3.2-2.09,1-.74,1.69-1.76,2.22-2.89-.8,.95-1.81,1.67-3.3,1.84Z"/>
    <path class="cls-6" d="M144.4,48.2c-.73,.07-1.49,.15-2.12,.52-.64,.37-1.12,1.1-.97,1.82,.11,.52,.52,.97,.47,1.49-.02,.24-.15,.47-.23,.7-.33,.95,.06,1.98,.44,2.9,.04,.11,.09,.22,.18,.3,.1,.08,.22,.1,.35,.11,.57,.05,1.16-.19,1.54-.62,.24-1.18,.65-2.32,1.24-3.38,.22-.4,.47-.79,.56-1.24,.14-.66-.08-1.33-.29-1.97-.05-.16-.11-.33-.23-.45-.23-.23-.6-.22-.93-.19Z"/>
    <path class="cls-6" d="M138.79,49.84c.32-.84,1.17-1.36,2.03-1.6,.86-.24,1.77-.25,2.66-.38,.38-.06,.78-.15,1.06-.42,.28-.27,.37-.76,.09-1.03-1,.19-2,.38-3,.57-1.32,.25-2.77,.58-3.58,1.65-.39,.52-.58,1.15-.87,1.73-.78,1.58-2.22,2.7-3.53,3.86s-2.6,2.55-2.89,4.28c.4-.33,.81-.66,1.21-.99,.34,1.65-1.96,3.1-1.41,4.7,1.85-1.67,3.51-3.56,4.94-5.6,.56-.81,1.11-1.71,1.05-2.69-.23-.1-.46-.19-.68-.29,.49-.85,1.14-1.61,1.91-2.23,.26-.21,.54-.41,.71-.7,.15-.26,.2-.57,.31-.86Z"/>
    <path class="cls-6" d="M144.85,58.8c2.27,.3,4.52-.84,6.23-2.37,.22,.47-.09,1.04-.49,1.37-.41,.33-.91,.53-1.29,.9-.29,.28-.48,.64-.78,.92-.83,.78-2.13,.62-3.26,.74-.5,.05-1.01,.16-1.49,.02-.48-.14-.91-.65-.73-1.12,.12-.32,.46-.5,.8-.54,.34-.04,.68,.04,1.01,.08Z"/>
    <path class="cls-6" d="M148.72,52.71c-.37,.39-.76,.81-.86,1.33-.02,.1-.03,.2,.01,.29,.07,.17,.3,.24,.48,.19,.18-.05,.33-.18,.45-.32,.17-.19,.32-.39,.45-.6,.13-.21,.24-.45,.2-.69s-.3-.46-.53-.37c-.08,.03-.15,.1-.21,.17Z"/>
    <path class="cls-6" d="M150.61,54.67c.17-.05,.34-.1,.48-.2,.34-.24,.42-.77,.19-1.11-.05-.08-.13-.15-.23-.16-.06,0-.12,.02-.18,.05-.36,.19-.64,.53-.76,.92-.05,.17-.06,.39,.09,.49,.12,.08,.27,.05,.41,0Z"/>
    <path class="cls-5" d="M143.79,64.35c.93-.82,2.15-1.18,3.29-1.66,.57-.24,1.24-.76,1-1.33-.75,.65-1.7,1.07-2.68,1.2-.92,.12-1.94,.02-2.67,.59-.49,.39-.75,1.03-1.29,1.34-1.25,.73-3.11-.7-4.2,.26-.28,.25-.45,.63-.78,.81-.38,.2-.84,.08-1.26-.04-1.56-.48-3.36-.91-4.74-.04-.41-.3-.64-.83-.57-1.33-.72,.04-1.38,.6-1.54,1.31-.21,.95,.43,1.88,1.12,2.57,.13,.13,.27,.26,.44,.31,.24,.08,.51,.02,.75-.07,1.2-.43,2.31-1.39,3.56-1.18,.66,.11,1.26,.55,1.94,.52,.97-.04,1.77-1.04,2.73-.89,.33,.05,.62,.24,.94,.32,.81,.22,1.66-.24,2.27-.82s1.05-1.32,1.69-1.88Z"/>
    <path class="cls-6" d="M134.39,62.91c.02-.09,.1-.17,.17-.23,.97-.85,2.46-.59,3.71-.89,.87-.21,1.64-.71,2.42-1.15,.24-.14,.5-.27,.77-.25,.27,.02,.54,.28,.47,.54-.05,.18-.23,.29-.39,.39-1.67,.93-3.44,1.68-5.27,2.21-.33,.1-.66,.18-1,.16-.34-.03-.68-.2-.83-.5-.04-.08-.07-.18-.04-.27Z"/>
  </g>
  <g>
    <path class="cls-4" d="M51.91,76.09c.4,.38,.62,.82,.66,1.31h-.76c-.08-.37-.25-.67-.51-.88-.25-.22-.61-.33-1.07-.33-.56,0-1.01,.2-1.35,.6-.34,.4-.51,1.01-.51,1.84,0,.68,.15,1.22,.46,1.64s.77,.63,1.39,.63c.57,0,1-.22,1.29-.66,.16-.23,.27-.54,.35-.92h.76c-.07,.61-.29,1.12-.67,1.53-.45,.49-1.06,.74-1.83,.74-.66,0-1.22-.2-1.67-.61-.59-.54-.89-1.36-.89-2.49,0-.85,.22-1.55,.67-2.09,.48-.59,1.14-.89,1.99-.89,.72,0,1.28,.19,1.68,.58Z"/>
    <path class="cls-4" d="M58.19,77.65c.37,.36,.56,.89,.56,1.59s-.16,1.24-.49,1.68c-.33,.44-.83,.66-1.52,.66-.57,0-1.03-.2-1.37-.59-.34-.39-.51-.92-.51-1.57,0-.71,.18-1.27,.53-1.69s.83-.63,1.43-.63c.54,0,.99,.18,1.36,.54Zm-.44,2.79c.17-.35,.26-.75,.26-1.18,0-.39-.06-.71-.19-.96-.2-.39-.54-.58-1.02-.58-.43,0-.74,.16-.93,.49-.19,.33-.29,.73-.29,1.19s.1,.82,.29,1.12c.19,.3,.5,.45,.92,.45,.46,0,.78-.18,.95-.53Z"/>
    <path class="cls-4" d="M64,77.45c.3,.23,.48,.63,.54,1.19h-.69c-.04-.26-.14-.47-.29-.65-.15-.17-.39-.26-.72-.26-.45,0-.77,.22-.97,.66-.13,.28-.19,.64-.19,1.05s.09,.77,.27,1.06c.18,.29,.46,.43,.84,.43,.29,0,.52-.09,.7-.27,.17-.18,.29-.42,.36-.73h.69c-.08,.56-.27,.96-.59,1.22-.31,.26-.72,.39-1.2,.39-.55,0-.99-.2-1.31-.6-.33-.4-.49-.9-.49-1.5,0-.74,.18-1.31,.54-1.72,.36-.41,.81-.62,1.37-.62,.47,0,.86,.11,1.16,.35Z"/>
    <path class="cls-4" d="M66.85,75.65h.71v2.15c.17-.21,.32-.36,.45-.45,.23-.15,.51-.22,.85-.22,.61,0,1.02,.21,1.24,.64,.12,.23,.18,.56,.18,.97v2.7h-.73v-2.65c0-.31-.04-.53-.12-.68-.13-.23-.37-.35-.72-.35-.29,0-.56,.1-.8,.3-.24,.2-.36,.58-.36,1.14v2.23h-.71v-5.78Z"/>
    <path class="cls-4" d="M72.92,75.67h.72v.8h-.72v-.8Zm0,1.58h.72v4.18h-.72v-4.18Z"/>
    <path class="cls-4" d="M76.32,77.23h.67v.6c.2-.25,.41-.42,.63-.53,.22-.11,.47-.16,.74-.16,.6,0,1,.21,1.21,.62,.12,.23,.17,.55,.17,.98v2.7h-.72v-2.65c0-.26-.04-.46-.11-.62-.13-.26-.35-.39-.68-.39-.17,0-.3,.02-.41,.05-.19,.06-.36,.17-.51,.35-.12,.14-.19,.28-.23,.43s-.05,.36-.05,.63v2.2h-.71v-4.2Z"/>
    <path class="cls-4" d="M82.39,75.67h.72v.8h-.72v-.8Zm0,1.58h.72v4.18h-.72v-4.18Z"/>
    <path class="cls-4" d="M85.92,76.06h.71v1.17h.67v.58h-.67v2.74c0,.15,.05,.24,.15,.29,.06,.03,.15,.04,.27,.04,.03,0,.07,0,.11,0s.08,0,.14-.01v.56c-.08,.02-.17,.04-.25,.05s-.18,.02-.28,.02c-.33,0-.55-.08-.67-.25s-.18-.39-.18-.66v-2.78h-.57v-.58h.57v-1.17Z"/>
    <path class="cls-4" d="M91.87,78.89c.16-.02,.27-.09,.33-.2,.03-.06,.05-.15,.05-.27,0-.24-.09-.42-.26-.53-.17-.11-.42-.16-.73-.16-.37,0-.63,.1-.78,.3-.09,.11-.14,.27-.17,.49h-.66c.01-.52,.18-.88,.5-1.08,.32-.2,.7-.3,1.12-.3,.49,0,.89,.09,1.2,.28,.31,.19,.46,.48,.46,.88v2.42c0,.07,.01,.13,.05,.18,.03,.04,.09,.07,.19,.07,.03,0,.07,0,.11,0,.04,0,.08,0,.13-.02v.52c-.11,.03-.19,.05-.25,.06-.06,0-.14,.01-.24,.01-.24,0-.42-.09-.53-.26-.06-.09-.1-.22-.12-.39-.14,.19-.35,.35-.62,.49-.27,.14-.57,.21-.89,.21-.39,0-.71-.12-.96-.35-.25-.24-.37-.53-.37-.89,0-.39,.12-.69,.36-.91,.24-.21,.56-.35,.96-.4l1.13-.14Zm-1.49,1.91c.15,.12,.33,.18,.53,.18,.25,0,.49-.06,.72-.17,.39-.19,.59-.5,.59-.94v-.57c-.09,.06-.2,.1-.33,.14-.14,.04-.27,.06-.4,.08l-.43,.05c-.26,.03-.45,.09-.58,.16-.22,.12-.33,.32-.33,.59,0,.2,.07,.36,.22,.48Z"/>
    <path class="cls-4" d="M99.71,75.67h2.58c.51,0,.92,.14,1.23,.43,.31,.29,.47,.69,.47,1.22,0,.45-.14,.84-.42,1.18s-.71,.5-1.28,.5h-1.8v2.44h-.78v-5.76Zm3.03,.79c-.17-.08-.41-.12-.7-.12h-1.54v2h1.54c.35,0,.63-.07,.85-.22,.22-.15,.33-.41,.33-.79,0-.42-.16-.71-.47-.86Z"/>
    <path class="cls-4" d="M106.5,75.67h.72v.8h-.72v-.8Zm0,1.58h.72v4.18h-.72v-4.18Z"/>
    <path class="cls-4" d="M109.84,75.65h.69v2.09c.15-.2,.34-.36,.56-.46,.22-.11,.45-.16,.7-.16,.52,0,.95,.18,1.28,.54,.33,.36,.49,.89,.49,1.59s-.16,1.22-.48,1.66c-.32,.44-.77,.66-1.34,.66-.32,0-.59-.08-.81-.23-.13-.09-.27-.24-.42-.44v.54h-.65v-5.78Zm2.7,4.84c.19-.3,.29-.7,.29-1.2,0-.44-.1-.81-.29-1.1-.19-.29-.47-.44-.84-.44-.32,0-.61,.12-.85,.36-.24,.24-.36,.63-.36,1.18,0,.39,.05,.72,.15,.96,.19,.46,.53,.69,1.04,.69,.38,0,.67-.15,.86-.46Z"/>
    <path class="cls-4" d="M115.97,75.67h.72v.8h-.72v-.8Zm0,1.58h.72v4.18h-.72v-4.18Z"/>
    <path class="cls-4" d="M119.38,75.67h.71v5.76h-.71v-5.76Z"/>
  </g>
  <g>
    <path class="cls-4" d="M11.29,70.58l-.34-.37v-.34l-.34-.93-.19-.71-.03-.62-.31-2.29-.25-3.32v-.12l-.12-3.23-.06-.31v-6.82l-.22-.19v-.31l.31-.4,.12-.37,.71-.4,2.33-.31h2.14l.22,.06,1.67,.16,.25,.12,.65,.09-.12,.31-.47,.5-.59,.09-.28,.19-1.52,.06-1.43-.22-.22,.09v.37l.06,.16v.87l.06,.68v1.52l.12,.87,.74-.06,.19-.06h1.67l.28,.12h.43l.31,.12,.16,.19-.06,.62-.19,.28-.5,.22h-.25l-.25,.09h-.16l-.31,.06h-.81l-.34-.06h-.12l-.34-.09h-.4l-.06,.28-.06,.12,.06,.84v1.09l.09,1.12,.19,.9,.06,1.12,.06,.25,.12,1.64v.68l.03,.34v.59l.06,.4v.19l.12,.74v.81l.06,.65v.31l.4-.12,.5-.06,.93-.31,1.64-.34h.81l.93,.15,.19,.22v.22l.03,.12v.62l-.19,.19-.43,.25-.31,.03-.22,.25-.59,.06-.43,.12h-.16l-1.3,.28h-.22l-.19,.06-1.3,.09h-1.4l-.31-.09-1.36-.09Z"/>
    <path class="cls-4" d="M23.04,71.85l-.15-.09h-.19l-.4-.09-.31,.19h-.22l-.28-.31-.06-.09-.19-.37-.28-1.18-.22-1.36-.09-.34-.03-.47-.37-1.71-.03-.34-.06-.22-.22-3.04v-.56l-.22-3.72,.4-5.43v-.4l.09-.34,.09-1.61,.34-.34,.34-.19,.4,.09,.4,.22,.47,.5,.12,.31,.25,.34,.16,.31,.03,.22,.5,.74,.09,.47,.31,3.38,.16,.34v.22l.06,.53,.03,1.02,.06,.28,.06,1.49,.06,.28-.03,.5v2.17l-.03,.43,.19,2.02,.53,3.01-.06,1.02,.12,.34-.03,.5-.12,.15-.03,.56-.25,.19-1.27,.4h-.12Z"/>
    <path class="cls-4" d="M35.66,71.92l-.34-.06-.28-.19-.74-.03-.31-.78-.28-3.72,.03-.28-.19-5.18,.12-5.49-.03-.81,.09-2.76,.25-1.98-.03-.25,.25-.31,.31-.09h.19l.22-.09,.25-.03,.16-.06h.15l.56-.16,.19,.09h.31l.34,.19,.56,.59,.12,.5-.09,3.44-.15,.93-.12,6.14h.34l.68-.06,.12-.06,.78-.06,.15-.06,.68,.03,.22-.12,.62-8.37-.06-.37,.4-2.29v-.09l.12-.15,.06-.22,.68-.31,.93,.03,.74,.4,.4,.47,.22,1.12,.06,.81,.06,.31,.06,1.33-.03,.4,.06,.56-.03,.43,.28,1.43-.34,4.22,.06,.81-.06,1.49-.09,.22-.06,1.92-.06,.4-.09,2.85,.03,.4-.03,.87-.22,1.3-.12,.34-.22-.12-.12,.03-.25-.09-.4-.03-.16-.09-.12,.09-.06,.19-.25,.06-.47-.22-.65-.03-.43,.25h-.19l-.59-.62-.22-.71-.15-1.36,.25-4.28-.22-.22-.12-.53-.12-.12-.22-.43h-1.95l.16,2.6,.09,.19,.09,1.09,.06,.22,.03,.87,.09,.47-.06,2.17-.15,.43-.03,.4-.15,.25-1.24,.25-.31-.25Z"/>
    <path class="cls-4" d="M54.18,71.61l-.4-.15-.22,.12-.4-.19-.19-.19-.03-.12-.28-.37-.16-.4v-.22l-.03-.09-.09-.4-.78,.19-.81,.06h-1.71l-.87-.19-.9-.09-.37-.22-.06-.03-.34-.22-.31-.53-.25-.65v-.99l.09-.31,.62-1.15,1.12-1.21,1.24-.78,1.15-.81,.62-.25,.09-.06,.53-.12v-1.02l-.12-1.52-.19-.65-.31,.37-.06,.12-.87,.81-.56,.34-.16,.03-.09,.06-.34,.06-.12,.06-1.21,.16-.31,.31-.47-.12-.16-.09v-.5l.37-.81,.93-1.3,.71-.71,.96-.78,2.39-1.02h1.46l.62,.22,.15,.09,.06,.06,.47,.28,.5,.62,.4,.99v.25l.12,.93,.28,1.36v.5l.09,.4,.12,.28v.68l.12,.78v.25l.06,.28,.22,2.51v.4l.06,.28v1.55l.06,.37v.78l.06,.5v.09l.03,.25v.4l-.03,.06-.06,.25h-.22v-.16l.12-.19-.09-.09-.19,.06-.31-.06-.43,.31v.12l-.03,.15-.28-.22-.12,.16v.12h-.59l-.16-.06h-.19Zm-5.15-3.01h.74l.31-.09,.25-.03,.87-.25,.81-.4-.19-.96-.25-2.73-.37,.19-.22,.25-.43,.28-.31,.37-.47,.37-.87,1.15-.25,.74v.53l.12,.43,.25,.16Zm7.38,1.83v-.06h-.06v.03l.06,.03Z"/>
    <path class="cls-4" d="M60.57,71.27l-.22-.09h-.28l-.19,.09h-.68l-.22-.31-.06-.09-.34-.56-.25-1.02-.12-.31,.03-.47-.31-1.71-.12-1.61-.06-.19-.47-6.14v-2.98l.06-.74v-.56l.03-.43v-.81l.19-1.36,.16-.43,.56-.31,.06-.03h.16l.15-.09,.34,.19,.34,.25,.25,.31,.31,.28,.19,.4,.22,.31,.28,1.74,.06,.09,.34,1.95v.19l.09,.31v.34l.12,.81,.09,.12,.78,.12,.47,.03h.09l1.71,.71,.06,.06,.28,.09,.37,.31,.96,.93,.43,.65,.34,.93,.09,.09v.47l.09,.25,.12,.12,.09,.31,.15,.22,.09,.28,.19-.19v.43l.19,.22v.9l-.03,.5-.06,.25v.34l-.09,.5v.28l-.25,.71-.09,.4-.37,.65-.37,.53-.28,.16-.34,.37-.87,.4-.12,.03-.22,.12-.78,.19-.16,.06-.68,.06-.4,.12-1.46,.03-.25,.25-.25-.09-.15,.06Zm-2.23-3.94l.12-.31-.12-.74-.12-.43-.12-.99-.06-.12v.34l.12,.71v.59h.06v.56l.12,.4Zm.06,.78h.09l-.09-.62-.09,.06,.09,.56Zm.12,.71v-.31l-.09-.09v.31l.09,.09Zm.06,.25v-.12l-.06,.06,.06,.06Zm.15,.74v-.15l-.09,.15h.09Zm3.57,0h.22l.65-.15,.22-.19,.34-.96,.25-1.27,.12-.34v-.28l.06-.12,.09-.56-.19-1.61-.34-1.18-1.24-1.89-.53-.5-.53-.4,.4,.53,.4,7.54,.16,.59-.22,.22v.53l.12,.06Zm5.15-6.33h.09l-.06,.16-.09-.09,.06-.06Z"/>
    <path class="cls-4" d="M77.22,71.61l-.4-.15-.22,.12-.4-.19-.19-.19-.03-.12-.28-.37-.16-.4v-.22l-.03-.09-.09-.4-.78,.19-.81,.06h-1.71l-.87-.19-.9-.09-.37-.22-.06-.03-.34-.22-.31-.53-.25-.65v-.99l.09-.31,.62-1.15,1.12-1.21,1.24-.78,1.15-.81,.62-.25,.09-.06,.53-.12v-1.02l-.12-1.52-.19-.65-.31,.37-.06,.12-.87,.81-.56,.34-.16,.03-.09,.06-.34,.06-.12,.06-1.21,.16-.31,.31-.47-.12-.16-.09v-.5l.37-.81,.93-1.3,.71-.71,.96-.78,2.39-1.02h1.46l.62,.22,.16,.09,.06,.06,.47,.28,.5,.62,.4,.99v.25l.12,.93,.28,1.36v.5l.09,.4,.12,.28v.68l.12,.78v.25l.06,.28,.22,2.51v.4l.06,.28v1.55l.06,.37v.78l.06,.5v.09l.03,.25v.4l-.03,.06-.06,.25h-.22v-.16l.12-.19-.09-.09-.19,.06-.31-.06-.43,.31v.12l-.03,.15-.28-.22-.12,.16v.12h-.59l-.15-.06h-.19Zm-5.15-3.01h.74l.31-.09,.25-.03,.87-.25,.81-.4-.19-.96-.25-2.73-.37,.19-.22,.25-.43,.28-.31,.37-.47,.37-.87,1.15-.25,.74v.53l.12,.43,.25,.16Zm7.38,1.83v-.06h-.06v.03l.06,.03Z"/>
    <path class="cls-4" d="M82.43,71.02l-.31,.16-.25-.16-.16-.31-.19-1.12v-.16l-.12-.84,.03-.74-.31-5.37,.03-.59-.09-.31-.03-3.6,.12-.28,.37-.15,.4-.25,.87-.09,.43,.16,.22,.22,.12,.5,.31,.31,.03,.4,.16,.31,.28,2.61,.56-1.55,.43-.93,.59-.81,.68-.65,.81-.19h.12l.31-.12,.19,.03,.59-.12,.96-.09,.59,.09,.34,.22,.31,.34,.03,.12,.12,.16,.19,.78,.12,1.15v.81l.31,2.57,.12,.34,.03,1.27v.06l.12,.87-.12,3.85-.06,.06-.03,.43,.06,.12-.53,.19v-.19h-.12l-.09,.06-.06-.03-.06,.25h-.37l-.09,.06-.03-.19h-.03l-.09,.25-.22-.03-.09,.19h-.34l-.81-.34-.47,.06-.4-.15-.28-.28-.28-.74,.06-1.12-.43-6.39-.09-.53-.9,3.16-.5,2.42-.15,.06-.78,2.57-.12,.78-.16,.43-.03,.06-.19,.22-.5-.12-.12,.22-.28-.19-.74-.19Z"/>
    <path class="cls-4" d="M95.34,70.3l-.03-.06-.12-.06-.5-.53-.53-.9-.31-.74-.71-3.04v-2.26l.53-2.48,.68-1.8,.87-1.18,.84-.31,.43-.09,1.15-.09,.4-.16,1.49-.16,.5,.09,.47,.16,.84,1.05,.03,.12,.25,.34,.4,.87,.22,1.43-.12,.22-.09,.9-.09,.34,.06,.43,.16,.28h.99l.5,.06-.19,.4-1.15,.53-.15,.03-.22,.09-1.09,.19h-.5l-.87,.16h-.47l-.78,.06h-1.05v.62l.15,.62,.09,.12,.5,1.74,.28,.62,.71-.96,.62-1.09,.09-.37,.22-.19,.19-.34,.59,.06,.34-.12,.34,.34h.22l.12,.25,.34,.03,.19,.16-.06,.65v.25l-.15,.74-.12,.22-.47,1.18-.19,.19-.06,.22-.47,.65-.78,.53-.53,.22h-.03l-.47,.12h-1.43l-.43-.09-.4,.12h-.19l-.62-.12-.43-.25Zm1.67-7.57h2.23v-1.61l-.4-1.36-.12-.28-.22-.65v-.28l-.12-.19-.03-.12-.31-.22-.31,.37-.31,.71-.25,.84-.06,.59-.09,.19-.12,.87v1.09l.12,.06Z"/>
    <path class="cls-4" d="M106.19,70.71l-.12-.06-.16,.12-.37-.62-.22-.84-.03-.4-.68-2.95v-.28l-.71-5.12,.03-1.52,.37-1.77,.16-.19,.5-.12,.5,.03,.12,.06h.16l.71,.19,.68,.4,.71,.65,.25,.47,.12,.5h.09l1.3-1.55,.56-.28,1.02-.25,1.18-.03,.56,.03,.99,.22,.34,.31,.15,1.43-.31,1.02-.28,.56-.22,.56-.9,1.36-.19,.53-.22,.25-.06,.15-.31,.47-.06,.06h-.09l-.12,.09-.31-.22h-.12l-.09,.12-.03-.06-.06-.12-.22,.09-.16-.12-.5-.19-.68-.06-.31-.37v-.47l.19-.47,.19-.22,.16-.43,.5-1.09,.56-1.02,.43-1.33v-.25l-.47,.5-1.21,1.58-.19,.53-.06,.62-.25,1.24v.53l.03,.22v.53l.09,.43-.03,2.36,.06,.16,.09,.65,.03,.09,.09,.78,.06,.25v.34l.03,.16v.19l.12,.12-.43,.99-1.58,.56-.81,.16h-.62l-.06-.06,.09-.19Z"/>
    <path class="cls-4" d="M118.32,70.99l-.62,.06-.56-.19-.62-.43-.09-.03-.74-.81-.5-.84-.59-1.77-.25-1.58,.03-2.02,.34-1.52,.25-.78,.19-.43,.19-.78,.37-.59,.68-.9,.4-.16,.62-.09,.34-.19,.12-.12,.06-.47,.25-.5,.84-.03,.19-.19,.19,.03,.9-.28h.37l.22,.09,1.18-.06,.31,.09,.53,.62,.03,.09,.34,.56,.06,.03,.12,.34-.09,.09,.09,.19v.28l.09,.03v.22l.19,.31,.09,.5,.12,.22,.06,.37,.09,.25,.19,1.24-.03,.9,.03,1.09,.03,.09,.03,.59,.03-.25v-.06h.12l-.09,.78-.06,.25v.31l-.06,.31,.12,.06-.09,.19-.22,.74-.16,.37-.12,.59-.25,.5-.09,.34-.22,.4-.19,.43-.31,.56-.43,.5-.74,.5-.53,.03-.56-.03-.37,.06-1.05,.09-.78-.22Zm1.18-2.61l.22-.47,.43-1.12,.16-4.19-.03-.84,.09-.25-.09-.06v-.4l.09-.09-.12-1.18-.34-.59-.12-.31-.19-.34-.12,.09-.12,.28,.09,.22-.03,.37-.25,.25-.22,.34-.16,.47-.12,.16-.25,.74-.19,.78-.12,2.7,.09,.81,.15,.31,.12,.4,.31,.78,.47,.74,.25,.4Zm5.09-4.65v.12h-.12v-.12h.12Z"/>
  </g>
</svg>