<?xml version="1.0" encoding="UTF-8"?>
<svg id="Capa_1" data-name="Capa 1" xmlns="http://www.w3.org/2000/svg" viewBox="0 0 170.08 113.39">
  <defs>
    <style>
      .cls-1, .cls-2 {
        fill: #191c17;
      }

      .cls-3 {
        font-family: ArturoTrial-Bold, 'Arturo Trial';
        font-size: 5.23px;
        font-weight: 700;
      }

      .cls-2 {
        font-family: ArturoTrial-HeavyItalic, 'Arturo Trial';
        font-size: 12.11px;
        font-style: italic;
        font-weight: 800;
      }
    </style>
  </defs>
  <text class="cls-3" transform="translate(53.5 83.18) rotate(56.99)"><tspan x="0" y="0">t</tspan></text>
  <text class="cls-3" transform="translate(54.99 85.5) rotate(51.92)"><tspan x="0" y="0">a</tspan></text>
  <text class="cls-3" transform="translate(57.37 88.5) rotate(46.28)"><tspan x="0" y="0">c</tspan></text>
  <text class="cls-3" transform="translate(59.74 90.98) rotate(40.73)"><tspan x="0" y="0">o</tspan></text>
  <text class="cls-3" transform="translate(62.59 93.41) rotate(35.2)"><tspan x="0" y="0">s</tspan></text>
  <text class="cls-3" transform="translate(65.3 95.28) rotate(31.5)"><tspan x="0" y="0"> </tspan></text>
  <text class="cls-3" transform="translate(66.55 96.09) rotate(27.38)"><tspan x="0" y="0">d</tspan></text>
  <text class="cls-3" transform="translate(69.97 97.83) rotate(21.74)"><tspan x="0" y="0">e</tspan></text>
  <text class="cls-3" transform="translate(73.05 99.02) rotate(17.99)"><tspan x="0" y="0"> </tspan></text>
  <text class="cls-3" transform="translate(74.43 99.5) rotate(14.25)"><tspan x="0" y="0">s</tspan></text>
  <text class="cls-3" transform="translate(77.66 100.29) rotate(10.17)"><tspan x="0" y="0">i</tspan></text>
  <text class="cls-3" transform="translate(79.52 100.65) rotate(5.94)"><tspan x="0" y="0">r</tspan></text>
  <text class="cls-3" transform="translate(83.02 100.98) rotate(1.77)"><tspan x="0" y="0">l</tspan></text>
  <text class="cls-3" transform="translate(84.89 101.06) rotate(-2.49)"><tspan x="0" y="0">o</tspan></text>
  <text class="cls-3" transform="translate(88.6 100.86) rotate(-6.84)"><tspan x="0" y="0">i</tspan></text>
  <text class="cls-3" transform="translate(90.48 100.67) rotate(-11.48)"><tspan x="0" y="0">n</tspan></text>
  <text class="cls-3" transform="translate(94.42 99.82) rotate(-15.81)"><tspan x="0" y="0"> </tspan></text>
  <text class="cls-3" transform="translate(95.87 99.44) rotate(-19.93)"><tspan x="0" y="0">a</tspan></text>
  <text class="cls-3" transform="translate(99.39 98.12) rotate(-24.07)"><tspan x="0" y="0"> </tspan></text>
  <text class="cls-3" transform="translate(100.69 97.54) rotate(-26.6)"><tspan x="0" y="0">l</tspan></text>
  <text class="cls-3" transform="translate(102.4 96.72) rotate(-31.02)"><tspan x="0" y="0">a</tspan></text>
  <text class="cls-3" transform="translate(105.58 94.75) rotate(-35.07)"><tspan x="0" y="0"> </tspan></text>
  <text class="cls-3" transform="translate(106.75 93.93) rotate(-37.61)"><tspan x="0" y="0">l</tspan></text>
  <text class="cls-3" transform="translate(108.25 92.8) rotate(-41.63)"><tspan x="0" y="0">e</tspan></text>
  <text class="cls-3" transform="translate(110.79 90.56) rotate(-47.43)"><tspan x="0" y="0">ñ</tspan></text>
  <text class="cls-3" transform="translate(113.54 87.54) rotate(-53.55)"><tspan x="0" y="0">a</tspan></text>
  <path class="cls-1" d="M134.68,57.04h-3.2c-.09,5.15-.97,10.17-2.74,15.07,.96,.56,1.92,1.13,2.88,1.7-5.61,16.83-22.12,31.76-44.1,32.75-22.8,1.03-41.94-13.26-48.68-32.76,.95-.5,1.91-1.01,2.9-1.53-1.8-4.91-2.79-9.97-2.89-15.21h-3.48c-.09-5.16,.72-10.19,2.25-15.11,3.02-9.7,8.58-17.69,16.42-24.08,16.32-13.28,38.88-14.54,56.29-4.24,18.27,10.8,24.84,29.45,24.34,43.42Zm-1.52-1.93c-.03-13.83-6.89-31.03-24.2-40.82-15.59-8.82-35.91-8.41-51.14,2.42-13.16,9.36-19.62,22.38-20.31,38.45,4.53,.42,8.94,.84,13.35,1.25,0,.05,0,.09,0,.14h-2.64c-.15,.75-.29,1.44-.43,2.12-.18-.35-.28-.7-.38-1.05q-.21-.76-1.07-.59c-.1,1.16-.2,2.33-.3,3.51-.03,0-.06,0-.09,0-.23-1.19-.46-2.37-.69-3.55h-.72v6.9s-.05,.02-.08,.02c-.39-2.3-.79-4.59-1.19-6.91h-.63c-.12,3.47,.13,6.9,.81,10.29-1.11-3.34-1.73-6.77-1.99-10.31h-1.07c.1,5.06,.97,9.9,2.68,14.63,1.98-.94,3.92-1.85,5.86-2.77,.01,.02,.03,.05,.04,.07-2.74,1.94-5.49,3.88-8.22,5.81,7.39,16.92,25.79,31.15,49.34,28.91,9.88-.94,18.62-4.73,26.25-11.07,5.94-4.93,10.38-11.01,13.57-18-2.53-1.74-5.05-3.46-7.57-5.18,.02-.03,.04-.06,.05-.09,1.71,.69,3.42,1.39,5.15,2.09,1.66-4.69,2.53-9.46,2.58-14.4h-1.06c-.24,3.55-.9,6.99-2,10.35,.7-3.43,.95-6.88,.81-10.38-.15,0-.26-.02-.38-.02-.11,0-.21,.02-.33,.03-.22,2.35-.61,4.65-1.23,6.9-.02-.21,.02-.41,.03-.62,.03-1.9,.07-3.79,.09-5.69,0-.73-.02-.74-.78-.62-.23,1.19-.46,2.39-.69,3.58-.03,0-.06,0-.08-.01-.1-1.2-.21-2.4-.31-3.61h-.86c-.18,.61-.35,1.2-.52,1.78-.03,0-.05-.02-.08-.02-.13-.59-.27-1.18-.4-1.77-1.26-.1-2.48-.19-3.7-.29,0-.03,0-.07,0-.1,4.83-.47,9.67-.94,14.53-1.42Z"/>
  <path d="M97.74,84.4c-.29-.07-.57-.13-.92-.21v1.79c-1.01,.21-1.75,.1-2.39-.33-.95,.86-1.97,1.58-3.36,1.68-1.27,.09-2.52,.67-3.65,.02-.44,.12-.8,.22-1.15,.32-.17,.05-.35,.06-.51,.13-.5,.24-.98,.19-1.52,.08-1.39-.27-2.79-.49-4.19-.65-.46-.05-.79-.18-1.06-.53-.11-.14-.19-.29-.28-.44-.05,.04-.1,.07-.15,.11-.03,.13-.06,.27-.08,.33-.4,.12-.76,.23-1.16,.34-.04-.03-.16-.14-.3-.23-.12-.09-.25-.17-.32-.21-.36-.06-.7-.06-1-.17-.92-.32-1.82-.69-2.61-.99-.33,.05-.54,.08-.75,.11-.05,0-.1,0-.14,0-.94-.02-1.7-.3-2.04-1.29-.22-.65-.66-.97-1.38-.85-.15,.03-.32-.03-.49-.05-.02-.17-.04-.32-.07-.51h-.68c-.06-.16-.13-.29-.15-.42-.1-.69-.43-1.11-1.2-1.06-.13,0-.36-.11-.38-.2-.18-1.01-1.09-1.37-1.72-1.97-.05-.04-.12-.07-.15-.12-.35-.69-1.03-.75-1.67-.84-.33-.05-.43-.19-.37-.47,.12-.53-.16-.82-.6-.99-.34-.13-.42-.35-.41-.7,.02-.93-.83-2.13-1.71-2.47-.35-.14-.71-.28-1.1-.44,.17-.38,0-.68-.12-1.03-.26-.76-.35-1.59-.52-2.38-.07-.33-.2-.64-.3-.96,.05,.02,.11,.05,.16,.07,.2-.22,.52-.43,.56-.67,.05-.35-.15-.69-.54-.86-.5-.22-.99-.45-1.46-.72-.16-.09-.31-.32-.33-.5-.09-1.18-.1-2.38-.24-3.55-.05-.46-.37-.9-.59-1.39,.15-.1,.37-.24,.66-.43-.48-.17-.89-.3-1.27-.47-.13-.06-.27-.22-.3-.35-.5-2.05-.3-4.15-.34-6.23-.02-.9,.21-1.74,.56-2.57,.45-1.06,.76-2.19,1.14-3.28,.57-1.66,1.17-3.31,1.73-4.98,.14-.41,.27-.87,.25-1.29-.03-.53,.18-.73,.64-.85,.44-.12,.87-.29,1.34-.44-.26-.43-.49-.82-.69-1.15,.55-.73,1.03-1.43,1.58-2.07,.36-.42,.82-.74,1.23-1.11,.09-.09,.19-.18,.24-.3,.76-1.57,2.12-2.6,3.33-3.76,.4-.38,.91-.65,1.38-.96,.9-.59,1.8-1.17,2.69-1.77,.21-.14,.34-.12,.54,.02,.5,.34,1.03,.64,1.6,.98,.11-.26,.25-.53,.36-.81,.22-.59,1.23-1.29,1.86-1.27,.46,.01,.65-.39,.78-.67,.58-1.21,1.83-1.48,2.83-2.1,.13-.08,.42,.05,.62,.13,.28,.11,.5,.16,.71-.14,.2-.29,.5-.28,.77-.1,.25,.17,.46,.15,.69-.02,.45-.3,.88-.45,1.41-.09,.2,.14,.56,.09,.84,.07,1.55-.12,3.1-.25,4.65-.39,.54-.05,1.08-.13,1.61-.25,.3-.07,.44,.01,.55,.28,.11,.27,.25,.52,.4,.77,.05,.08,.17,.16,.26,.15,.08,0,.17-.12,.21-.2,.11-.26,.19-.54,.3-.87,.67,.39,1.29,.75,1.92,1.11,.11,.06,.23,.13,.35,.14,.83,.12,1.67,.21,2.51,.34,.19,.03,.39,.15,.55,.28,.43,.32,.9,.46,1.43,.47,.2,0,.4,.08,.59,.14,.15,.05,.3,.19,.44,.18,.68-.09,1.07,.27,1.32,.88,.14-.1,.24-.17,.38-.27,.43,.44,.85,.88,1.29,1.29,.12,.11,.33,.17,.49,.15,.31-.03,.62-.13,.96-.21,.17,.4,.4,.77,.47,1.16,.08,.42,.26,.67,.65,.77,.44,.12,.52,.52,.59,.86,.1,.48,.37,.71,.81,.8,.52,.1,.84,.38,1.1,.86,.23,.42,.65,.74,1,1.09,.05,.05,.19,.07,.24,.04,.54-.34,1-.03,1.42,.23,.44,.28,.84,.64,.9,1.19,.16,.06,.34,.08,.44,.18,.6,.62,1.19,1.25,1.75,1.9,.55,.64,.59,1.48,.74,2.24,.13,.68,.32,1.28,.87,1.67,.49,.36,.57,.77,.4,1.29-.22,.7-.18,1.29,.29,1.96,.35,.5,.43,1.23,.48,1.87,.06,.83,.06,1.65,.48,2.39,.18,.32,.44,.62,.7,.88,.26,.27,.4,.55,.4,.93,0,.25,.14,.51,.19,.77,.05,.29,.1,.58,.11,.87,.04,.82,.05,1.64,.12,2.45,.05,.72,.16,1.43,.25,2.15,.02,.17,.1,.33,.13,.5,.03,.2,.1,.42,.05,.61-.3,1.15-.61,2.31-.94,3.45-.22,.76-.44,1.53-.78,2.25-.12,.25-.57,.35-.93,.56,.25,.64-.42,1.13-.56,1.73,.38,.56,.76,1.11,1.14,1.65,.35,.49,.27,.75-.27,1-.2,.1-.38,.3-.49,.5-.16,.29-.26,.62-.37,.94-.18,.53-.48,.93-1.02,1.13-.28,.1-.43,.26-.43,.6,0,.21-.14,.47-.3,.62-1.23,1.17-.7,1.13-2.38,.73-.09-.02-.18,0-.32,0,.24,.52,.48,1.01,.67,1.51,.07,.18,.07,.44-.01,.61-.49,1.11-1.12,2.11-2.05,2.92-.3,.26-.42,.71-.67,1.04-.14,.18-.35,.35-.57,.42-.36,.12-.77,.1-1.12,.24-.31,.13-.55,.41-.84,.6-.17,.11-.39,.27-.57,.25-.7-.09-1.19,.26-1.65,.71-.48,.47-.97,.94-1.44,1.42-.26,.27-.52,.33-.89,.17-.42-.18-.88-.27-1.32-.38-.36-.09-.56,.08-.64,.44-.03,.15-.12,.29-.2,.45Zm13.72-29.57s.06,.01,.09,.02c.04-.24,.13-.48,.11-.72-.04-.65-.12-1.3-.2-1.94-.05-.36-.17-.71-.21-1.07-.02-.21-.02-.46,.08-.64,.51-.89,1.09-1.74,1.59-2.63,.47-.84,.2-1.57-.66-1.98-1.07-.51-2.14-1.01-3.2-1.52-.15-.07-.35-.16-.42-.3-.34-.69-.64-1.41-1.21-1.96-.04-.04-.04-.12-.07-.18-.15-.26-.27-.55-.47-.77-.56-.65-1.09-1.33-1.59-2-.95-1.27-2.18-2.2-3.33-3.22-.8-.71-1.75-1.26-2.64-1.87-.34-.23-.7-.45-1.08-.58-1.48-.49-2.98-.95-4.49-1.43,0,.01-.06,.06-.08,.11-1.27,2.88-2.55,5.76-3.81,8.65-.07,.15-.05,.37,0,.54,.18,.61,.13,1.22-.1,1.77-.6,1.44-1.27,2.86-1.92,4.29-.24,.54-.25,.54-.72,.22,.29-1.69,.55-3.36,.86-5.03,.07-.38,.06-.7-.25-.95-.33-.28-.26-.54-.07-.87,.45-.76,.88-1.52,1.28-2.31,.15-.3,.18-.66,.24-1,.05-.3,.04-.61,.12-.89,.19-.68,.41-1.34,.62-2.01,.4-1.29,.79-2.58,1.21-3.96-.93-.16-1.8-.35-2.68-.46-.92-.11-1.84-.13-2.76-.21-.32-.03-.67-.01-.94-.15-.3-.16-.45-.04-.69,.08-.21,.11-.47,.15-.71,.18-.12,.02-.25-.06-.37-.04-.87,.15-1.75,.29-2.62,.47-1.03,.21-2.09,.37-3.07,.72-1.66,.59-3.27,1.33-4.9,2-.06,.02-.12,.07-.15,.12-.29,.45-.76,.61-1.23,.79-.19,.08-.38,.18-.54,.3-.76,.58-1.52,1.15-2.25,1.76-.41,.33-.76,.73-1.15,1.09-.49,.46-.99,.92-1.49,1.38,.5,.62,.94,1.15,1.37,1.69,.32,.41,.29,.77-.09,1.12-.19,.18-.35,.37-.54,.55-.29,.29-.6,.44-1.01,.2-.57-.34-1.16-.65-1.84-1.03-.58,.98-1.12,1.93-1.69,2.87-.08,.14-.23,.25-.38,.32-1.05,.51-2.1,1.01-3.16,1.51-.91,.43-1.17,1.17-.68,2.05,.4,.73,.83,1.44,1.3,2.14,.24,.35,.36,.68,.31,1.11-.09,.87-.11,1.73-.72,2.48-.26,.32-.4,.83-.38,1.25,.03,.92,.2,1.84,.31,2.78,.43-.09,.77-.18,1.11-.24,1.31-.24,2.59-.74,3.96-.53,.36,.06,.74,.09,1.1,.09,.36,0,.63,.08,.9,.34,.48,.47,1.04,.86,1.76,.52,.29-.14,.52-.39,.82-.63,.01,.24,.03,.45,.04,.67-.1,.03-.16,.06-.22,.07-1.37,.17-2.74,.32-4.1,.51-.49,.07-1.05,.14-1.44,.41-1.03,.73-1.99,1.57-2.98,2.35-.23,.18-.32,.39-.24,.67,.3,.98,.53,1.98,.91,2.92,.38,.94,.51,1.95,1.03,2.85,.63,1.1,1.04,2.32,1.89,3.3,.09,.1,.1,.27,.18,.39,.47,.68,.9,1.4,1.43,2.03,.63,.75,1.34,1.44,2.05,2.12,.72,.69,1.45,1.38,2.24,1.98,.42,.32,.82,.59,.97,1.13,.08,.3,.26,.48,.6,.38,.56-.16,1.03,.03,1.47,.38,.16,.13,.35,.21,.61,.36,.09-.13,.18-.27,.29-.39,1.69-1.76,3.38-3.53,5.1-5.26,.39-.39,.59-.78,.49-1.31-.14-.79,.11-1.37,.64-2.01,1.07-1.27,1.96-2.69,2.94-4.04,.93-1.28,1.82-2.6,3.23-3.59-.34,.74-.66,1.4-.95,2.06-1,2.26-2.26,4.42-2.9,6.83-.09,.36-.13,.76-.07,1.12,.13,.74,.09,1.39-.36,2.04-.5,.74-.91,1.55-1.31,2.35-.64,1.25-1.25,2.52-1.88,3.79-.2,.39-.18,.71,.31,.84,.52,.14,1.05,.27,1.58,.4,.29,.07,.59,.12,.88,.17,.26,.04,.53,.08,.79,.12,.82,.12,1.64,.32,2.46,.34,.97,.03,1.95-.09,2.93-.14,.83-.04,1.66-.05,2.48-.13,.29-.03,.56-.23,.84-.33,.21-.07,.46-.18,.64-.12,.38,.13,.68-.02,1.01-.13,.3-.1,.62-.15,.92-.24,.31-.09,.61-.21,.96-.32-.09-.18-.14-.28-.19-.37-.75-1.23-1.51-2.45-2.25-3.69-.13-.22-.22-.5-.24-.76-.09-1.22-.16-2.44-.22-3.65-.04-.7-.18-1.35-.65-1.91-.18-.22-.31-.49-.46-.73-.59-.9-1.18-1.81-1.77-2.71,1.25,.91,2.46,1.84,3.66,2.79,.15,.12,.25,.32,.31,.51,.49,1.6,.95,3.22,1.44,4.82,.05,.17,.16,.35,.3,.46,1.11,.93,2.22,1.84,3.35,2.74,.13,.1,.32,.16,.48,.17,.72,.06,1.17-.43,1.67-.83,.2-.16,.4-.36,.63-.41,1.33-.31,2.3-1.23,3.37-1.97,.61-.42,1.09-1.01,1.64-1.51,.91-.84,1.7-1.77,2.28-2.87,.57-1.1,1.13-2.2,1.71-3.34-.41-.09-.8-.2-1.19-.25-.66-.1-1.18-.33-1.56-.94-.3-.48-.67-.96-1.12-1.29-.92-.66-1.92-1.22-2.88-1.82-.42-.26-.91-.47-1.23-.83-.88-.99-1.69-2.04-2.53-3.08,.17-.16,.32-.31,.49-.47,.65,.58,1.28,1.15,1.92,1.71,.48,.41,.91,.88,1.56,1.08,1.42,.44,2.81,.95,4.23,1.41,.44,.14,.84,.33,1.1,.72,.61,.92,1.4,1.26,2.46,.8,.07-.03,.17-.03,.23-.07,.14-.1,.33-.2,.37-.34,.28-.9,.55-1.8,.76-2.71,.15-.64,.26-1.31,.31-1.97,.06-.9,.4-1.78,.19-2.69,0-.04,.02-.1,.02-.14-.02-.87-.05-1.75-.08-2.62,0-.01-.05-.02-.14-.05,0,.17,0,.32,0,.48-.03,1.06,.01,2.12-.12,3.16-.3,2.21-.9,4.34-1.78,6.4-.12,.28-.28,.4-.6,.34,.88-2.01,1.57-4.05,1.88-6.2,.17-1.15,.53-2.29,.33-3.47-.18-1.09-.43-2.17-.63-3.25-.03-.19,.05-.4,.08-.6,.06,0,.12,.01,.18,.02,.22,.99,.44,1.99,.66,2.98Z"/>
  <path d="M121.13,77.92c-.01,.83-.71,1.52-1.54,1.53-.84,0-1.56-.73-1.54-1.57,.02-.88,.69-1.52,1.58-1.51,.83,.01,1.51,.71,1.5,1.55Z"/>
  <path d="M52.45,77.88c0,.87-.69,1.58-1.53,1.57-.82-.01-1.54-.73-1.55-1.54,0-.84,.7-1.54,1.56-1.54,.87,0,1.52,.64,1.52,1.51Z"/>
  <path d="M123.23,47.05c.86,0,1.56,.7,1.55,1.55-.01,.82-.73,1.53-1.55,1.53-.85,0-1.53-.7-1.53-1.57,0-.87,.65-1.51,1.52-1.51Z"/>
  <path d="M48.79,48.58c0,.83-.69,1.54-1.51,1.55-.84,0-1.55-.71-1.57-1.56-.01-.82,.69-1.52,1.54-1.52,.91,0,1.54,.62,1.54,1.53Z"/>
  <path class="cls-1" d="M72.9,47.92c.68-.51,1.37-1,2.02-1.53,1.17-.95,2.33-1.92,3.55-2.93,.58,.71,1.15,1.43,1.75,2.13,.54,.63,.81,1.39,1.13,2.14,.34,.81,.88,1.55,1.39,2.28,.79,1.11,1.63,2.17,2.5,3.32,.66-.85,1.27-1.65,1.88-2.44,.29-.38,.58-.77,.88-1.15,.6-.76,1.02-1.59,1.37-2.51,.32-.83,.92-1.56,1.44-2.3,.37-.52,.81-.98,1.22-1.46,1.65,1.36,3.25,2.68,4.87,4,.19,.16,.43,.26,.65,.38,.04,.05,.09,.11,.13,.16-.62,.71-1.23,1.42-1.87,2.11-2.33,2.52-4.68,5.03-7.04,7.57,1.49,1.55,2.93,3.07,4.39,4.56,1.84,1.89,3.49,3.94,5.13,6,1.3,1.63,2.72,3.16,4.08,4.74,.08,.1,.17,.19,.25,.29,.57,.72,.61,.86-.06,1.52-1.98,1.96-5.22,2.42-6.95-.61-.5-.88-.97-1.77-1.42-2.67-.89-1.78-2.02-3.4-3.39-4.83-1.79-1.86-3.63-3.68-5.48-5.55-.91,.85-1.77,1.59-2.57,2.4-1.72,1.73-3.52,3.4-4.89,5.44-.84,1.25-1.5,2.61-2.25,3.91-.39,.68-.73,1.41-1.21,2.01-1.36,1.68-3.48,1.95-5.43,.7-.52-.34-.92-.86-1.38-1.3-.26-.25-.15-.48,.05-.7,.62-.68,1.26-1.33,1.85-2.03,1.32-1.59,2.58-3.23,3.93-4.8,1.57-1.83,3.18-3.61,4.81-5.39,1.13-1.23,2.3-2.42,3.48-3.65-1.18-1.31-2.33-2.61-3.51-3.87-1.67-1.8-3.37-3.58-5.05-5.37-.13-.14-.23-.31-.34-.46,.03-.03,.07-.07,.1-.1Z"/>
  <path class="cls-1" d="M97.69,48.01c-.04-.05-.09-.11-.13-.16-.8-.69-1.59-1.4-2.4-2.08-1.3-1.09-2.61-2.17-3.93-3.26,1.62-2.08,3.22-4.14,4.78-6.15,2.34,2.1,4.66,4.19,7,6.29-.84,1.68-1.68,3.34-2.52,5.01,.02,.02,.05,.03,.07,.05,1.18-1.4,2.35-2.81,3.55-4.24,1.97,.93,3.95,1.87,5.92,2.8-1.44,3.1-4.31,6.51-7.39,8.49-.58-.95-1.15-1.91-1.73-2.86-.45-.74-.83-1.54-1.37-2.2-.53-.64-1.23-1.13-1.85-1.69Z"/>
  <path class="cls-1" d="M72.9,47.92s-.07,.07-.1,.1c-.63,.58-1.38,1.07-1.86,1.75-1.01,1.46-1.87,3.02-2.8,4.54-.09,.15-.19,.29-.28,.44-2.79-1.74-5.84-5.13-7.39-8.48,1.96-.93,3.92-1.85,5.92-2.8,1.18,1.41,2.36,2.82,3.54,4.23,.03-.01,.05-.03,.08-.04-.84-1.67-1.67-3.33-2.51-5,2.34-2.1,4.66-4.19,7-6.3,1.56,2.02,3.16,4.07,4.78,6.16-1.3,1.08-2.61,2.14-3.89,3.22-.84,.71-1.66,1.45-2.48,2.18Z"/>
  <path class="cls-1" d="M58.67,47.13c.33-.16,.6-.29,.87-.41,.05-.03,.12-.04,.2-.06,1.84,3.56,4.36,6.52,7.7,8.8-.23,.4-.45,.76-.71,1.2-3.21-2.74-6.03-5.75-8.07-9.52Z"/>
  <path class="cls-1" d="M110.77,46.63c.36,.16,.67,.31,1.06,.49-2,3.75-4.86,6.74-8.05,9.53-.14-.23-.26-.41-.37-.6-.11-.19-.22-.38-.35-.61,3.35-2.24,5.84-5.22,7.71-8.81Z"/>
  <path d="M66.64,39.38c-.26-.15-.22-.37-.02-.56,.7-.65,1.36-1.36,2.13-1.93,1.78-1.31,3.55-2.63,5.43-3.78,1.87-1.14,3.89-1.99,6.1-2.29,.9-.12,1.78-.37,2.68-.45,1.43-.13,2.87-.15,4.28,.13,1,.2,2,.43,2.99,.65,.24,.05,.45,.14,.21,.48-.63-.16-1.28-.34-1.93-.49-4.43-.98-8.67-.4-12.74,1.58-2.13,1.04-4.05,2.38-5.92,3.82-.7,.54-1.39,1.08-2.06,1.66-.42,.36-.78,.79-1.17,1.19Z"/>
  <path d="M106.94,43.14c-.23-.22-.49-.42-.69-.67-.95-1.21-1.88-2.43-2.84-3.63-.22-.27-.52-.48-.79-.69-.89-.7-1.76-1.45-2.7-2.08-.79-.53-1.66-.92-2.51-1.36-1.2-.63-2.41-1.25-3.65-1.89,.03-.08,.08-.19,.18-.41,1.55,.84,3.12,1.6,4.6,2.51,1.59,.98,3.15,2.03,4.64,3.15,.7,.53,1.26,1.27,1.81,1.97,.75,.96,1.42,1.97,2.12,2.95-.06,.05-.11,.1-.17,.15Z"/>
  <path class="cls-1" d="M68.62,41.36c-.33-.74-.15-1.32,.44-1.84,.78-.67,1.52-1.37,2.28-2.06,.61-.56,1.26-.85,2.13-.44-1.61,1.44-3.22,2.88-4.85,4.34Z"/>
  <path class="cls-1" d="M97.02,37.01c.78-.3,1.42-.21,1.99,.33,.85,.78,1.73,1.53,2.55,2.33,.59,.58,.6,.83,.32,1.69-1.61-1.44-3.22-2.88-4.86-4.35Z"/>
  <path d="M74.99,34.71c.14-.07,.28-.17,.43-.2,.98-.16,1.76-.72,2.58-1.22,.77-.47,1.58-.7,2.5-.65,.51,.03,1.03-.28,1.55-.4,.73-.17,1.48-.51,2.19-.43,1.87,.19,3.72,.56,5.58,.87,.31,.05,.3,.09,.23,.34-1.5-.19-2.98-.37-4.47-.57-.36-.05-.72-.24-1.07-.23-.61,.02-1.23,.12-1.83,.25-.43,.09-.84,.32-1.27,.43-.37,.1-.77,.18-1.15,.16-.8-.06-1.47,.23-2.12,.63-.78,.47-1.51,1.03-2.45,1.16-.22,.03-.46,0-.68,0,0-.04,0-.09-.01-.13Z"/>
  <path d="M78.5,80.48c1.74,.66,3.48,1.14,5.3,1.41,2.93,.43,5.78,.13,8.55-.89,.28-.1,.42-.06,.52,.34-1.21,.3-2.41,.69-3.64,.9-3.64,.61-7.14,.02-10.55-1.31-.32-.12-.32-.13-.18-.46Z"/>
  <path d="M60.21,61.01q2.13,5.96,6,11.84c-.07,.09-.14,.19-.24,.32-.09-.12-.17-.22-.24-.32-2.01-2.62-3.67-5.43-4.81-8.54-.33-.91-.63-1.84-.97-2.75-.11-.3-.01-.45,.25-.55Z"/>
  <path d="M76.38,36.11c.95-.51,1.88-1.08,2.88-1.51,.48-.21,1.08-.14,1.62-.22,.6-.09,1.19-.22,1.79-.29,1.05-.11,2.1-.21,3.15-.25,.47-.02,.95,.12,1.42,.21,.77,.14,1.53,.29,2.33,.44,.05,.27-.14,.34-.39,.3-.65-.1-1.31-.16-1.93-.33-1.13-.31-2.24-.28-3.38-.09-.93,.15-1.88,.47-2.79,.37-1.47-.16-2.49,.63-3.62,1.26-.21,.12-.42,.24-.64,.32-.13,.04-.29-.02-.44-.03,0-.06,0-.11,0-.17Z"/>
  <path d="M66.89,71.88c-.35-.48-.73-.93-1.03-1.43-.86-1.47-1.8-2.92-2.51-4.47-.79-1.74-1.36-3.57-2-5.37-.16-.43-.11-.45,.14-.63,.67,1.83,1.33,3.69,2.06,5.52,.3,.75,.76,1.44,1.16,2.15,.45,.81,.9,1.61,1.39,2.4,.28,.46,.63,.88,.93,1.33,.07,.11,.07,.27,.1,.41-.08,.03-.16,.05-.24,.08Z"/>
  <path d="M91.59,79.16c-.49,.24-.91,.49-1.37,.66-.41,.15-.85,.29-1.29,.31-1.2,.05-2.39,.07-3.54,.54-.35,.15-.85-.01-1.27-.08-1.21-.2-2.42-.41-3.62-.64-.51-.1-1.01-.27-1.56-.53,.12-.07,.26-.23,.36-.21,1,.16,2.01,.34,3,.54,.84,.17,1.68,.37,2.52,.55,.15,.03,.34,.06,.47,0,1.08-.49,2.23-.57,3.38-.53,.83,.03,1.49-.39,2.2-.71,.24-.11,.53-.34,.72,.09,0,.01,0,.03,0,.02Z"/>
  <path d="M63.13,58.93c.89,4.2,2.86,7.89,5.38,11.36-.06,.06-.15,.14-.33,.31-.66-1.03-1.3-2-1.9-2.99-1.13-1.86-2.2-3.75-2.74-5.88-.21-.83-.49-1.65-.74-2.47-.09-.29,.02-.39,.33-.32Z"/>
  <path d="M107.87,64.73c-.27-.11-.3-.26-.2-.53,.84-2.16,1.5-4.38,1.75-6.7,.12-1.14,.16-2.3-.12-3.45-.06-.22,.03-.48,.13-.72,.45,1.26,.5,2.53,.39,3.83-.2,2.53-.93,4.92-1.82,7.27-.04,.1-.1,.19-.15,.29Z"/>
  <path d="M77.34,37.66c3.82-2.19,7.7-2.83,11.85-1.79-.05,.13-.09,.23-.09,.24-1.03-.09-2.01-.12-2.98-.26-2.64-.39-5.01,.45-7.35,1.51-.28,.13-.55,.26-.84,.34-.14,.04-.31-.01-.58-.03Z"/>
  <path d="M64.84,58.7c.61,3.86,2.46,7.12,4.85,10.19,0,0-.03,.06-.06,.1-.04,.05-.08,.1-.14,.19-.25-.29-.48-.53-.68-.8-1.84-2.49-3.3-5.17-4.07-8.2-.09-.37-.17-.75-.2-1.13-.01-.14,.11-.29,.17-.44,.05,.03,.09,.06,.14,.09Z"/>
  <path d="M90.97,78.23c-.31,.06-.61,.13-.92,.16-1.24,.11-2.49,.2-3.73,.3-.03,0-.07,0-.1,0-1.27,.56-2.51,.08-3.76-.12-.89-.14-1.77-.35-2.67-.53,.06-.36,.12-.43,.42-.36,1.58,.33,3.16,.64,4.75,.88,.41,.06,.86-.21,1.3-.25,.88-.09,1.76-.13,2.64-.2,.53-.04,1.05-.13,1.57-.17,.17-.01,.34,.07,.51,.11,0,.06,0,.12-.01,.18Z"/>
  <path d="M70.85,67.46c-.07,.08-.14,.15-.25,.26-.1-.12-.19-.23-.28-.34-2.03-2.44-3.35-5.25-4.13-8.31-.02-.09-.06-.19-.05-.28,.02-.12,.08-.23,.12-.34,.08,.1,.21,.18,.23,.29,.72,3.05,2,5.83,4,8.26,.12,.15,.23,.3,.34,.46Z"/>
  <path d="M80.62,76.43c.08-.36,.27-.36,.55-.29,.99,.25,1.98,.52,2.98,.71,1.54,.29,3.06,.1,4.55-.33,.57-.16,1.14-.33,1.72-.49,.1,.25,.05,.38-.24,.47-1.69,.52-3.39,1.03-5.18,.83-1.15-.13-2.28-.45-3.42-.68-.31-.06-.62-.14-.96-.21Z"/>
  <path d="M72.77,64.9c-2.75-2.64-4.36-8.28-2.93-10.28-.04,.77-.1,1.52-.12,2.27-.06,2.27,.77,4.25,2,6.1,.35,.52,.75,1,1.11,1.51,.07,.1,.07,.24,.11,.36-.06,.01-.12,.02-.17,.04Z"/>
  <path d="M90.39,74.31c-.06,.12-.1,.31-.19,.35-1.41,.55-2.79,1.3-4.37,1.11-1.14-.14-2.25-.44-3.38-.68-.31-.07-.62-.15-.94-.23,.02-.33,.21-.36,.49-.29,.89,.23,1.79,.45,2.69,.67,1.46,.35,2.85,.14,4.21-.46,.45-.2,.92-.37,1.38-.55,.04,.02,.07,.05,.11,.07Z"/>
  <path d="M106.22,63.78c.45-1.7,.94-3.22,1.24-4.78,.22-1.12,.17-2.3,.26-3.45,.01-.19,.11-.37,.22-.54,.23,2.42-.02,4.77-.83,7.05-.17,.48-.32,.97-.51,1.44-.04,.11-.22,.17-.38,.28Z"/>
  <path d="M81.61,72.87c2.89,1.16,5.74,.8,8.58-.22,.03,.04,.07,.09,.1,.13-.08,.1-.13,.27-.23,.3-1.66,.54-3.36,.99-5.12,.85-1.06-.08-2.1-.38-3.14-.61-.11-.02-.18-.21-.27-.32,.03-.05,.06-.09,.08-.14Z"/>
  <path d="M68.03,58.2c.08,.11,.2,.21,.22,.33,.33,2.19,1.1,4.19,2.46,5.96,.37,.48,.69,1,1.01,1.51,.06,.1,0,.26-.06,.4-1.9-2.42-3.53-4.94-3.78-8.09,.05-.04,.1-.08,.14-.11Z"/>
  <path d="M97.96,50.32c1.54,2.54,1.82,5.29,1.38,8.16-.05,.02-.11,.04-.16,.05-.04-.15-.13-.3-.13-.44,.02-.99,.11-1.98,.08-2.97-.05-1.52-.5-2.95-1.25-4.28-.08-.14-.09-.33-.13-.5,.07,0,.14-.02,.22-.03Z"/>
  <path d="M71.15,58.05c-.31-2.72,.16-5.29,1.49-7.69,.05,0,.09,0,.14,0,0,.15,.05,.33,0,.45-.67,1.32-1.16,2.7-1.28,4.18-.08,.91-.03,1.82-.05,2.74,0,.13-.07,.26-.11,.39-.06-.02-.12-.04-.19-.06Z"/>
  <path d="M89.56,71.49c-1.11,.19-2.23,.35-3.34,.56-1.36,.25-2.71,.15-4.06-.11-.14-.03-.25-.16-.38-.25,.15-.03,.31-.09,.45-.07,1.33,.24,2.67,.33,4.01,.07,.99-.19,1.98-.36,2.97-.53,.12-.02,.25,.06,.37,.09,0,.08-.02,.16-.03,.24Z"/>
  <path d="M106.24,56.68c.26,2.26-.44,4.31-1.31,6.33-.03,.07-.08,.15-.13,.17-.06,.02-.15-.02-.3-.04,.2-.55,.35-1.1,.59-1.61,.6-1.27,.79-2.62,.81-4,0-.32-.09-.69,.34-.84Z"/>
  <path d="M88.98,37.74c-1.13-.05-2.13-.13-3.13-.12-.88,0-1.76,.12-2.64,.16-.19,0-.38-.06-.57-.09,0-.06,.01-.13,.02-.19,.34-.05,.69-.12,1.03-.13,1.61-.06,3.23-.33,4.83,.06,.16,.04,.29,.2,.46,.33Z"/>
  <path d="M104.68,73.34c-.31-.27-.3-.41-.14-.64,.91-1.28,1.79-2.58,2.69-3.86,.09-.12,.29-.16,.44-.23,.05,.06,.09,.11,.14,.17-1.04,1.51-2.08,3.02-3.13,4.56Z"/>
  <path d="M59.15,57.22c-.25-1.53-.07-2.97,.59-5.46,.23,.19,.31,.36,.24,.68-.33,1.46-.67,2.93-.59,4.45,0,.1-.16,.22-.24,.33Z"/>
  <path d="M74.03,51.67c0,.14,.05,.3,0,.41-.78,1.57-.94,3.24-.87,4.96,0,.06,.03,.13,.01,.19-.04,.15-.09,.29-.14,.44-.07-.15-.2-.29-.21-.44-.03-.53-.04-1.06,0-1.59,.09-1.38,.38-2.72,1.06-3.94,.05,0,.11-.01,.16-.02Z"/>
  <path d="M71.3,58.2c.08,.09,.22,.18,.24,.29,.34,1.84,1.05,3.51,2.08,5.06,.07,.11,.03,.29-.01,.45-1.27-1.71-2.1-3.59-2.42-5.68,.04-.04,.07-.08,.11-.12Z"/>
  <path d="M100.11,60.89c0-.17-.05-.36,0-.52,.45-1.29,.8-2.59,.75-3.97-.02-.56-.12-1.11-.18-1.69,.59,.5,.5,1.17,.52,1.78,.05,1.54-.35,2.99-.92,4.4-.06,0-.11,0-.17,0Z"/>
  <path d="M97.45,57.97c-.04-.13-.13-.26-.12-.38,.21-1.93-.02-3.79-.73-5.6-.05-.14-.02-.31,.04-.47,1.08,2.02,1.15,4.18,1,6.38-.07,.02-.13,.05-.2,.07Z"/>
  <path d="M88.19,39.31c-.18,.03-.37,.11-.54,.1-.54-.04-1.08-.17-1.62-.16-.83,.03-1.65,.15-2.48,.23-.11,.01-.23,.06-.33,.04-.1-.02-.19-.09-.29-.14,.08-.07,.16-.2,.25-.21,.46-.08,.92-.13,1.38-.2,1.22-.19,2.42-.08,3.61,.19,0,.05,.01,.1,.02,.16Z"/>
  <path d="M82.66,69.28c.12-.06,.24-.17,.35-.16,1.61,.06,3.22,.24,4.83-.05,.12-.02,.26,.1,.36,.23-1.84,.32-3.67,.27-5.49,.12l-.06-.15Z"/>
  <path d="M102.12,70.5c-.02-.13-.1-.3-.04-.37,.85-1.25,1.72-2.49,2.66-3.83,.01,.21,.08,.39,.02,.51-.35,.63-.7,1.26-1.1,1.85-.43,.63-.91,1.23-1.38,1.84-.05,0-.11,0-.16,0Z"/>
  <path d="M105.96,67.92c0,.17,.07,.38-.01,.5-.52,.82-1.08,1.61-1.62,2.42-.24,.36-.44,.73-.68,1.12-.3-.14-.3-.29-.15-.53,.77-1.17,1.53-2.34,2.29-3.52h.17Z"/>
  <path d="M103.06,62.68c-.03-.13-.1-.28-.07-.4,.35-1.31,.71-2.61,1.08-3.91,.03-.12,.2-.2,.3-.31,.06,.03,.13,.07,.19,.1-.42,1.49-.84,2.99-1.26,4.48-.08,0-.16,.02-.24,.03Z"/>
  <path d="M100.9,69.11c.01-.14-.02-.32,.05-.43,.71-.99,1.42-1.97,2.16-2.94,.07-.1,.26-.1,.4-.15,.03,.05,.06,.1,.08,.15-.83,1.13-1.65,2.27-2.48,3.4-.07-.01-.14-.02-.21-.03Z"/>
  <path d="M74.65,62.7c-.78-1.32-1.44-2.7-1.66-4.25-.01-.09,.07-.19,.11-.28,.06,.08,.16,.14,.17,.23,.27,1.4,.81,2.69,1.52,3.91,.05,.09,.02,.24,.02,.37-.06,0-.11,.01-.17,.02Z"/>
  <path d="M102.65,57.71c.07,.15,.21,.31,.2,.45-.15,1.38-.54,2.68-1.3,3.94-.03-.14-.12-.31-.07-.41,.59-1.25,.94-2.56,1.18-3.98Z"/>
  <path d="M97.46,58.14c.03,.14,.11,.28,.09,.41-.24,1.52-.85,2.89-1.82,4.19-.01-.13-.09-.3-.03-.39,.8-1.23,1.34-2.56,1.56-4.02,0-.06,.05-.11,.08-.17,.04,0,.08-.01,.13-.02Z"/>
  <path d="M78.27,38.87c1.4-.83,2.8-1.11,4.21-1.37l.1,.14c-.12,.09-.22,.22-.35,.27-1.13,.37-2.27,.72-3.41,1.06-.12,.04-.28-.04-.54-.1Z"/>
  <path d="M95.39,52.84c.78,1.47,.8,3.02,.73,4.58-.05,.02-.09,.04-.14,.07-.06-.13-.17-.27-.16-.4,.02-1.31,0-2.62-.48-3.87-.04-.1,.04-.25,.06-.37Z"/>
  <path d="M83.03,41.04c.13-.17,.2-.33,.28-.34,1.32-.2,2.63-.13,3.95,.03l.04,.17c-.15,.05-.31,.14-.46,.14-1.21,.01-2.42,0-3.81,0Z"/>
  <path d="M102.17,64.87c-.75,.96-1.49,1.9-2.25,2.87-.12-.13-.19-.2-.25-.27,.74-.95,1.47-1.88,2.22-2.82,.1,.08,.18,.14,.29,.23Z"/>
  <path d="M74.55,57.23c-.08-1.46-.06-2.9,.7-4.27,.02,.14,.08,.3,.04,.42-.42,1.12-.51,2.27-.46,3.45,0,.16-.06,.32-.09,.47-.06-.02-.13-.04-.19-.07Z"/>
  <path d="M60.66,56.76c.12-1.1,.25-2.2,.37-3.29,.07,0,.14-.02,.21-.03,.05,.2,.15,.4,.14,.59-.06,.8-.16,1.59-.26,2.38-.02,.15-.14,.28-.21,.42-.08-.03-.17-.05-.25-.08Z"/>
  <path d="M83.52,43.3c1.23,0,2.46,0,3.69,0,.11,0,.22,.12,.33,.18-.13,.06-.25,.17-.38,.17-1.15-.01-2.3-.04-3.45-.07-.09,0-.18-.11-.27-.16,.03-.04,.05-.08,.08-.12Z"/>
  <path d="M94.61,61.63c-.05-.23-.13-.37-.09-.43,.66-1.05,1.05-2.2,1.37-3.45,.05,.1,.16,.21,.15,.29-.2,1.25-.65,2.41-1.42,3.59Z"/>
  <path d="M79.54,40.1c1-.3,1.99-.6,2.99-.89,.04,.04,.08,.09,.13,.13-.07,.1-.13,.26-.22,.29-.86,.28-1.72,.54-2.59,.79-.09,.02-.21-.08-.32-.12,0-.06,.01-.13,.02-.19Z"/>
  <path d="M74.79,58.1c.07,.12,.17,.22,.22,.35,.32,.88,.63,1.76,.93,2.64,.04,.12,.03,.26-.03,.4-.73-.99-1.06-2.12-1.28-3.28l.16-.11Z"/>
  <path d="M98.68,66.29c.03-.14,.02-.3,.1-.4,.55-.7,1.12-1.39,1.7-2.11,.07,.04,.17,.1,.3,.19-.65,.81-1.27,1.59-1.89,2.37-.07-.01-.14-.03-.21-.04Z"/>
  <path d="M83.67,45.23c.08-.07,.16-.2,.24-.2,1.02-.01,2.05,0,3.07,0,.09,0,.18,.12,.27,.19-.11,.06-.22,.16-.33,.16-1.05,.01-2.1,0-3.15,0-.03-.06-.06-.11-.09-.17Z"/>
  <path d="M96.85,63.98c.03-.14,.04-.3,.1-.43,.43-.82,.88-1.63,1.33-2.47,.04,.1,.17,.27,.13,.36-.43,.89-.88,1.76-1.33,2.63-.08-.03-.16-.06-.24-.09Z"/>
  <path d="M99.34,62.3c0,.14,.04,.32-.03,.42-.52,.74-1.05,1.47-1.58,2.2-.06-.02-.12-.04-.18-.07,.02-.14,0-.3,.07-.4,.53-.72,1.07-1.42,1.61-2.13,.04,0,.08-.01,.11-.02Z"/>
  <path d="M93.32,60.24c0-.13,0-.27,.03-.4,.26-.83,.53-1.66,.82-2.55,.05,.13,.15,.27,.13,.4-.12,.9-.37,1.77-.82,2.56-.05,0-.11,0-.16-.01Z"/>
  <path d="M84,46.77c.85,0,1.69,0,2.54,.01,.12,0,.23,.14,.35,.22-.12,.04-.23,.11-.35,.11-.75,0-1.5,0-2.25-.03-.12,0-.23-.1-.34-.16,.02-.05,.04-.1,.06-.15Z"/>
  <path d="M95.25,34.94c-.14,.04-.3,.14-.4,.1-.59-.22-1.17-.48-1.76-.72,.03-.21,.1-.35,.4-.23,.59,.24,1.19,.44,1.79,.66,0,.06-.02,.12-.02,.19Z"/>
  <path d="M86.81,48.74c-.14,.04-.29,.12-.43,.12-.62,0-1.25-.03-1.87-.06-.1,0-.21-.08-.31-.12,.09-.06,.18-.17,.27-.17,.77-.01,1.53,0,2.3,0,.02,.08,.03,.16,.05,.24Z"/>
  <path d="M82.68,41.01c-.49,.45-1.2,.49-1.75,.82-.07,.04-.22-.06-.34-.09v-.16c.66-.26,1.31-.52,1.97-.78l.12,.2Z"/>
  <path d="M76.55,54.37c.03,.15,.09,.3,.07,.44-.07,.7-.16,1.4-.24,2.09-.08-.01-.17-.02-.25-.03,.06-.83,.13-1.66,.19-2.49l.23-.02Z"/>
  <path d="M98.74,78.11c-.62,.26-.98,1.06-1.82,.83,.6-.3,.97-1.05,1.82-.83Z"/>
  <path d="M94.2,54.32c.06,.83,.11,1.67,.17,2.5-.04,.02-.08,.04-.12,.06-.08-.07-.21-.14-.22-.22-.02-.78,0-1.56,0-2.34,.06,0,.12,0,.18,0Z"/>
  <path d="M85.85,67.76h-2.38c-.06-.07-.11-.13-.17-.2,.13-.05,.25-.11,.38-.14,.4-.08,2,.13,2.17,.33Z"/>
  <path d="M94.18,36.09c-.09,.13-.17,.22-.25,.33-.26-.13-.5-.25-.75-.36-.23-.1-.46-.2-.7-.3,0-.05-.02-.1-.03-.15,.13-.04,.29-.14,.39-.1,.44,.17,.87,.38,1.33,.59Z"/>
  <path d="M77.02,60.31c-.27-.78-.5-1.48-.78-2.29,.48,.22,1.05,1.95,.78,2.29Z"/>
  <path d="M82.81,43.34c-.1,.21-.15,.41-.2,.41-.57,0-1.12,.41-1.71,.21,0-.06-.01-.11-.02-.17,.6-.14,1.2-.28,1.93-.44Z"/>
  <path d="M92.48,56.92c.33,.13,.25,.97-.29,2.14-.06-.18-.15-.31-.13-.41,.12-.58,.28-1.16,.42-1.73Z"/>
  <path d="M87.79,65.99c-.54,.05-1.08,.11-1.62,.14-.09,0-.19-.12-.25-.25,.65-.04,1.27-.25,1.89-.09,0,.06,0,.13-.01,.19Z"/>
  <path d="M62.62,55.06c.58,.4,.07,.95,.27,1.38-.51,.08-.54-.12-.27-1.38Z"/>
  <path d="M93.25,37.42c-.61,.4-.97-.18-1.45-.12,.19-.45,.37-.43,1.45,.12Z"/>
  <path d="M89.21,67.34c-.5,.1-1.01,.48-1.51,.02,.5,0,1-.36,1.51-.02Z"/>
  <path d="M95.2,76.32c-.74,.54-.84,.56-1.31,.13,.5,.13,.78-.59,1.31-.13Z"/>
  <path d="M95.57,77.85q.82-.53,1.13-.33c-.61,.59-.74,.63-1.13,.33Z"/>
  <path d="M99,59.73c-.09-.03-.18-.05-.31-.09,.07-.25,.12-.53,.22-.78,.03-.09,.15-.15,.23-.22,.03,.11,.1,.22,.08,.32-.05,.26-.14,.51-.22,.77Z"/>
  <path d="M93.92,74.54c.08,.1,.13,.18,.22,.3-.27,.17-.54,.33-.8,.49q-.18-.33,.58-.79Z"/>
  <path d="M73.52,77.94c-.44,.68-.67,0-1.01,.01,.01-.06,.02-.12,.03-.18,.32,.06,.65,.11,.97,.17Z"/>
  <path d="M64.84,42.25c-.37,.28-.65,.48-.92,.68-.03-.03-.05-.06-.08-.09,.17-.26,.33-.52,.52-.81,.11,.05,.22,.1,.49,.22Z"/>
  <path d="M92.12,38.78c-.41,.53-.68,.05-.97,0,.3-.48,.59,.01,.97,0Z"/>
  <path d="M87.17,67.67q-.93,.13-1.04-.22c.36,0,.73-.22,1.04,.22Z"/>
  <path d="M89.49,68.76c.31-.01,.61-.49,.98-.01-.35,.1-.64,.41-.98,.01Z"/>
  <path d="M84.18,66.12c.3-.4,.82-.39,1.04,0h-1.04Z"/>
  <path d="M78.26,58.92c-.1-.28-.19-.56-.29-.85,.05-.03,.09-.06,.14-.09,.08,.09,.19,.17,.22,.27,.06,.2,.08,.41,.12,.62-.06,.01-.13,.03-.19,.04Z"/>
  <path d="M77.31,73.21c.19,.1,.39,.2,.58,.3-.12,.35-.34,.28-.54,.13-.1-.08-.14-.23-.2-.35l.16-.09Z"/>
  <path d="M82.86,45.31c-.07,.09-.13,.24-.22,.25-.18,.03-.37,0-.56-.02,0-.06,0-.11,0-.17,.23-.06,.46-.12,.69-.18,.03,.04,.07,.07,.1,.11Z"/>
  <text class="cls-2" transform="translate(50.41 43.11) rotate(-57.12)"><tspan x="0" y="0">E</tspan></text>
  <text class="cls-2" transform="translate(54.93 36.11) rotate(-45.34)"><tspan x="0" y="0">L</tspan></text>
  <text class="cls-2" transform="translate(60.43 30.76) rotate(-37.6)"><tspan x="0" y="0"> </tspan></text>
  <text class="cls-2" transform="translate(62.49 28.93) rotate(-29.86)"><tspan x="0" y="0">L</tspan></text>
  <text class="cls-2" transform="translate(68.99 25.1) rotate(-17.99)"><tspan x="0" y="0">E</tspan></text>
  <text class="cls-2" transform="translate(76.82 22.38) rotate(-4.17)"><tspan x="0" y="0">Ñ</tspan></text>
  <text class="cls-2" transform="translate(87.02 21.6) rotate(10.49)"><tspan x="0" y="0">A</tspan></text>
  <text class="cls-2" transform="translate(96.55 23.29) rotate(25.07)"><tspan x="0" y="0">D</tspan></text>
  <text class="cls-2" transform="translate(105.47 27.4) rotate(39.62)"><tspan x="0" y="0">O</tspan></text>
  <text class="cls-2" transform="translate(113.04 33.61) rotate(53.81)"><tspan x="0" y="0">R</tspan></text>
</svg>