<?xml version="1.0" encoding="UTF-8"?>
<svg id="Capa_1" data-name="Capa 1" xmlns="http://www.w3.org/2000/svg" viewBox="0 0 170.08 113.39">
  <defs>
    <style>
      .cls-1 {
        fill: #0a169a;
      }
    </style>
  </defs>
  <g>
    <path class="cls-1" d="M44.94,83.46c.04,.12,0,.2-.14,.23-.13,.03-.29,.03-.48,0-.18-.03-.38-.09-.58-.17-.2-.08-.35-.17-.43-.28-.31-.45-.45-.99-.43-1.61,.02-.62,.13-1.25,.34-1.89,.2-.63,.46-1.22,.78-1.76,.32-.54,.63-.97,.94-1.27,1.1-1.17,2.32-2.13,3.64-2.88s2.71-1.39,4.19-1.9c.86-1.8,1.76-3.56,2.71-5.28,.95-1.72,1.84-3.38,2.65-5-1.66,.29-3.27,.62-4.85,1.01-.7,.18-1.5,.46-2.42,.83-.92,.37-1.83,.81-2.73,1.33-.9,.52-1.71,1.1-2.44,1.75-.73,.64-1.24,1.33-1.53,2.07-.3,.74-.31,1.5-.03,2.3,.28,.8,.97,1.61,2.07,2.42,.02,.12-.12,.21-.41,.28s-.66,.07-1.09,.03c-.43-.04-.87-.14-1.33-.31s-.84-.41-1.15-.74c-.18-.33-.34-.65-.48-.97-.13-.32-.22-.65-.26-1-.04-.35-.04-.74,.02-1.17,.05-.43,.16-.94,.32-1.53,.39-1.39,1.12-2.61,2.19-3.67,1.07-1.05,2.37-1.96,3.88-2.73,1.51-.77,3.19-1.41,5.02-1.93s3.69-.96,5.58-1.3c1.89-.35,3.76-.63,5.6-.86s3.53-.41,5.08-.57c1.54-.15,2.88-.3,4-.43,1.12-.13,1.92-.28,2.39-.45,.08,.27,.1,.61,.06,1.04-.04,.43-.12,.85-.25,1.26s-.27,.77-.43,1.09c-.16,.32-.32,.49-.46,.51-2.68,.25-5.33,.47-7.95,.67-2.62,.2-5.24,.52-7.85,.95,.2,.1,.43,.27,.67,.49,.25,.23,.48,.46,.69,.69,.21,.24,.39,.47,.52,.69,.13,.22,.18,.39,.14,.49-.49,1.23-1.04,2.39-1.66,3.5s-1.25,2.2-1.9,3.28c1.92-.41,3.85-.75,5.78-1.03,1.93-.28,3.83-.59,5.69-.94,.12,.04,.14,.21,.06,.52s-.21,.63-.4,.98c-.18,.35-.39,.67-.61,.97-.23,.3-.41,.46-.55,.48-.76,.06-1.58,.12-2.47,.18-.89,.06-1.81,.14-2.78,.23s-1.96,.21-2.99,.35c-1.03,.14-2.06,.33-3.08,.55-.92,1.6-1.74,3.24-2.47,4.94-.73,1.7-1.18,3.54-1.37,5.52-.08,.76,.09,1.33,.52,1.72,.43,.39,1.01,.64,1.75,.75,.74,.11,1.57,.12,2.52,.01,.94-.1,1.88-.27,2.82-.51,.94-.24,1.83-.51,2.67-.81,.84-.31,1.53-.61,2.09-.92,.2-.12,.35-.04,.43,.26,.08,.3,.12,.66,.11,1.09-.01,.43-.08,.85-.21,1.27-.13,.42-.31,.69-.54,.81-.72,.35-1.58,.65-2.58,.92-1,.27-2.05,.45-3.14,.55-1.09,.1-2.18,.11-3.25,.03-1.07-.08-2.04-.3-2.9-.66-.86-.36-1.55-.86-2.07-1.52s-.78-1.49-.78-2.51c.02-1.66,.25-3.3,.69-4.92,.44-1.63,1-3.25,1.67-4.86-1.15,.43-2.22,.94-3.24,1.53-1.01,.59-1.93,1.31-2.75,2.15-.22,.25-.47,.59-.74,1.04-.27,.45-.48,.94-.63,1.47-.15,.53-.2,1.07-.15,1.63,.05,.55,.28,1.04,.69,1.47Z"/>
    <path class="cls-1" d="M75.4,69.81c-.14,.29-.41,.81-.8,1.58-.39,.77-.82,1.64-1.3,2.62-.48,.98-.96,2.01-1.43,3.1-.47,1.08-.85,2.08-1.15,2.98-.3,.9-.47,1.65-.51,2.24-.04,.59,.13,.9,.52,.92h.37c.69-.2,1.34-.57,1.95-1.1,.6-.53,1.16-1.14,1.67-1.81,.51-.67,.99-1.38,1.43-2.12,.44-.74,.85-1.41,1.24-2.02,.06-.1,.15-.16,.26-.17,.11-.01,.21,.01,.31,.08,.09,.06,.16,.14,.2,.25,.04,.1,.02,.22-.06,.37-.41,.63-.81,1.28-1.2,1.93-.39,.65-.79,1.29-1.21,1.9s-.87,1.21-1.35,1.78c-.48,.57-1.01,1.09-1.58,1.56-.14,.12-.33,.27-.55,.43-.23,.16-.48,.31-.75,.44-.28,.13-.57,.25-.89,.34-.32,.09-.66,.14-1.03,.14-.43-.02-.79-.14-1.09-.35-.3-.21-.52-.51-.67-.87-.15-.37-.25-.79-.28-1.27-.03-.48,0-.99,.11-1.52,.16-1.12,.43-2.22,.8-3.3,.37-1.07,.79-2.14,1.27-3.19,.48-1.05,.99-2.1,1.53-3.14,.54-1.04,1.08-2.1,1.61-3.16,.35-.72,.68-1.44,1.01-2.16,.33-.73,.64-1.44,.94-2.13s.56-1.36,.78-1.99c.22-.63,.41-1.22,.55-1.75,.2-.1,.48-.09,.83,.05,.35,.13,.67,.33,.98,.58,.31,.26,.55,.56,.74,.9,.18,.35,.21,.69,.09,1.01-.08,.25-.24,.62-.48,1.12-.24,.5-.51,1.07-.81,1.7-.31,.63-.64,1.3-1.01,2.01s-.72,1.39-1.04,2.04Z"/>
    <path class="cls-1" d="M87.7,73.89c-.92,1.66-2.13,3.03-3.62,4.13-1.49,1.09-3.14,1.89-4.94,2.38-.02,.35,0,.7,.06,1.04s.16,.67,.31,.98c.14,.31,.34,.57,.58,.8,.25,.22,.55,.38,.92,.46,.45,.1,.97,.09,1.55-.05,.58-.13,1.2-.4,1.84-.8,.64-.4,1.3-.93,1.98-1.58,.67-.65,1.34-1.45,1.99-2.39,.33-.47,.62-.93,.89-1.38,.27-.45,.51-.88,.74-1.29,.08-.1,.18-.16,.29-.17s.21,.01,.31,.08c.09,.06,.16,.14,.2,.25,.04,.1,.02,.22-.06,.37-.29,.45-.59,.94-.92,1.47-.33,.53-.69,1.09-1.09,1.67-.4,.58-.84,1.17-1.32,1.75-.48,.58-1.02,1.14-1.61,1.67-.59,.53-1.17,.94-1.72,1.21-.55,.28-1.07,.47-1.56,.58-.49,.11-.93,.17-1.32,.18-.39,.01-.71,.02-.95,.02-1.39,0-2.47-.37-3.25-1.1-.78-.74-1.2-1.74-1.26-3.01-.04-1.17,.17-2.33,.63-3.48s1.2-2.41,2.22-3.76c.33-.43,.77-.89,1.32-1.4,.55-.5,1.17-.97,1.84-1.4,.67-.43,1.39-.78,2.15-1.04s1.51-.39,2.27-.37c.49,0,.91,.11,1.27,.34,.36,.23,.62,.53,.78,.9,.16,.38,.21,.82,.14,1.32-.07,.5-.29,1.04-.66,1.61Zm-8.4,5.4s-.03,.08-.03,.12c1.66-.47,3.15-1.22,4.48-2.25,1.33-1.03,2.4-2.33,3.22-3.88,.29-.59,.36-1.1,.21-1.52-.14-.42-.5-.58-1.07-.48-.86,.16-1.67,.55-2.42,1.17-.76,.61-1.43,1.32-2.02,2.12-.59,.8-1.09,1.62-1.5,2.47-.41,.85-.7,1.6-.86,2.25Z"/>
    <path class="cls-1" d="M95.83,89.13c.94,.47,1.88,.97,2.82,1.5,.94,.53,2.05,1.02,3.31,1.47,.14,.04,.12,.2-.06,.49-.18,.29-.46,.55-.81,.81-.36,.25-.77,.44-1.24,.57-.47,.12-.93,.04-1.38-.24-.78-.47-1.49-.92-2.15-1.35-.65-.43-1.28-.82-1.87-1.16-.59,.84-1.2,1.6-1.83,2.31-.62,.7-1.31,1.31-2.06,1.83-.75,.52-1.56,.93-2.45,1.22s-1.88,.45-2.96,.47c-.59,0-1.18-.05-1.76-.15-.58-.1-1.11-.29-1.6-.57-.48-.28-.88-.65-1.2-1.12-.32-.47-.5-1.06-.54-1.77-.04-.9,.15-1.73,.58-2.49,.43-.77,1.02-1.43,1.76-1.99,.75-.56,1.61-1,2.59-1.32,.98-.32,1.99-.47,3.04-.47,.63,0,1.2,.02,1.7,.06,.5,.04,.97,.11,1.41,.2,.44,.09,.86,.2,1.26,.32,.4,.12,.81,.25,1.24,.4,.45-.92,.87-1.84,1.26-2.76,.39-.92,.79-1.81,1.2-2.67-.67,.7-1.38,1.28-2.12,1.75-.74,.47-1.46,.69-2.18,.64-.88-.04-1.56-.25-2.04-.63-.48-.38-.83-.82-1.06-1.33-.23-.51-.35-1.04-.38-1.6-.03-.55-.02-1.01,.05-1.38,.1-.72,.33-1.5,.67-2.36,.35-.86,.8-1.71,1.35-2.56,.55-.85,1.19-1.66,1.92-2.42,.73-.77,1.5-1.41,2.33-1.93,.83-.52,1.69-.89,2.59-1.1,.9-.21,1.82-.2,2.76,.05,.41,.12,.74,.32,1,.6,.26,.28,.45,.6,.6,.98,.14,.38,.23,.79,.28,1.23,.04,.44,.05,.87,.03,1.3,0,.14-.05,.26-.15,.34-.1,.08-.21,.13-.32,.14-.11,.01-.21-.03-.29-.11-.08-.08-.12-.2-.12-.37-.04-.2-.08-.46-.11-.78-.03-.32-.1-.62-.21-.92-.11-.3-.29-.56-.54-.78-.25-.22-.6-.35-1.07-.37-.57-.02-1.13,.09-1.67,.34-.54,.25-1.06,.58-1.55,1.01-.49,.43-.95,.93-1.38,1.49-.43,.56-.82,1.15-1.17,1.75-.35,.6-.65,1.21-.9,1.81-.26,.6-.46,1.16-.6,1.67-.1,.35-.18,.77-.25,1.26s-.04,.95,.06,1.36c.1,.42,.32,.74,.64,.97,.33,.22,.84,.26,1.53,.09,.29-.06,.62-.25,1.01-.55,.39-.31,.79-.67,1.2-1.09,.41-.42,.81-.87,1.21-1.36,.4-.49,.75-.95,1.06-1.38,.33-.72,.63-1.43,.92-2.13,.29-.71,.45-1.32,.49-1.86,.2-.1,.5-.08,.87,.06,.38,.14,.74,.35,1.09,.63,.35,.28,.63,.59,.84,.95,.21,.36,.26,.7,.14,1.03l-6.81,11.99Zm-8.96,6.66c1.29-.47,2.39-1.2,3.3-2.18,.91-.98,1.72-2.12,2.44-3.4-.72-.33-1.43-.58-2.15-.75s-1.5-.27-2.36-.29c-.74-.02-1.52,.05-2.36,.21-.84,.16-1.61,.42-2.3,.77-.7,.35-1.27,.79-1.72,1.32-.45,.53-.66,1.15-.64,1.87s.24,1.28,.64,1.7c.41,.42,.9,.72,1.49,.89,.58,.17,1.21,.24,1.87,.2,.66-.04,1.26-.15,1.79-.34Z"/>
    <path class="cls-1" d="M117.12,73.92c0,.14-.05,.26-.15,.34-.1,.08-.21,.13-.32,.14-.11,.01-.21-.03-.29-.11-.08-.08-.12-.2-.12-.37-.04-.2-.08-.46-.11-.78-.03-.32-.1-.62-.21-.92-.11-.3-.29-.56-.54-.78-.25-.22-.6-.35-1.07-.37-.57-.02-1.13,.09-1.67,.34-.54,.25-1.06,.58-1.55,1.01-.49,.43-.95,.93-1.38,1.49-.43,.56-.82,1.15-1.17,1.75-.35,.6-.65,1.21-.9,1.81-.26,.6-.46,1.16-.6,1.67-.1,.35-.18,.77-.25,1.26-.06,.49-.04,.95,.06,1.37,.1,.42,.32,.74,.64,.97,.33,.23,.84,.26,1.53,.09,.33-.08,.73-.32,1.2-.71,.47-.39,.95-.84,1.43-1.36,.48-.52,.94-1.07,1.36-1.64,.43-.57,.78-1.07,1.04-1.5,.22-.59,.41-1.17,.57-1.72,.15-.55,.25-1.03,.29-1.44,.2-.1,.48-.08,.83,.06,.35,.14,.67,.35,.98,.61,.31,.27,.55,.57,.74,.92,.18,.35,.22,.69,.12,1.01-.12,.31-.27,.67-.44,1.1-.17,.43-.35,.87-.52,1.32-.17,.45-.34,.9-.49,1.33-.15,.44-.26,.84-.31,1.2-.05,.36-.05,.65,0,.87,.05,.22,.19,.35,.41,.37h.37c.7-.2,1.34-.57,1.95-1.1,.6-.53,1.17-1.14,1.69-1.81,.52-.67,1-1.38,1.44-2.12,.44-.74,.84-1.41,1.21-2.02,.06-.1,.15-.16,.28-.17s.23,.01,.32,.08c.09,.06,.16,.14,.2,.25,.04,.1,.02,.22-.06,.37-.41,.63-.81,1.28-1.2,1.93-.39,.65-.8,1.29-1.23,1.9-.43,.61-.88,1.21-1.36,1.78-.48,.57-1.01,1.09-1.58,1.56-.14,.12-.32,.27-.54,.43-.21,.16-.46,.32-.74,.46-.28,.14-.57,.26-.89,.35-.32,.09-.66,.13-1.03,.11-.57-.04-1.04-.18-1.4-.43-.36-.25-.63-.56-.81-.95-.18-.39-.28-.83-.29-1.32-.01-.49,.06-.99,.2-1.5-.41,.51-.84,1.01-1.3,1.5s-.94,.93-1.43,1.32c-.49,.39-.99,.7-1.5,.94s-1.01,.33-1.5,.29c-.88-.04-1.56-.25-2.04-.63-.48-.38-.83-.82-1.06-1.33-.23-.51-.35-1.04-.38-1.6-.03-.55-.02-1.01,.05-1.38,.1-.72,.33-1.5,.67-2.36,.35-.86,.8-1.71,1.35-2.56,.55-.85,1.19-1.66,1.92-2.42,.73-.77,1.5-1.41,2.33-1.93,.83-.52,1.69-.89,2.59-1.1,.9-.21,1.82-.2,2.76,.05,.41,.12,.74,.32,1,.6,.26,.28,.45,.6,.6,.98,.14,.38,.23,.79,.28,1.23,.04,.44,.05,.87,.03,1.3Z"/>
    <path class="cls-1" d="M136.47,81.06c-.49,.66-1.03,1.3-1.61,1.92-.58,.61-1.2,1.14-1.86,1.58-.65,.44-1.29,.66-1.9,.66-.35,0-.69-.06-1.03-.18-.34-.12-.63-.31-.87-.55-.25-.25-.44-.56-.58-.95-.14-.39-.2-.85-.18-1.38,.02-.53,.09-1.06,.21-1.58s.28-1.07,.48-1.66c.19-.58,.43-1.22,.72-1.9,.29-.69,.6-1.45,.95-2.29,.22-.53,.4-1.02,.52-1.46,.12-.44,.14-.76,.06-.97-.08-.2-.3-.24-.64-.11-.35,.13-.88,.51-1.6,1.12-.8,.72-1.5,1.4-2.12,2.06-.61,.65-1.25,1.38-1.9,2.18-.51,1.19-.94,2.39-1.29,3.6-.35,1.22-.57,2.5-.67,3.85,0,.14-.11,.18-.34,.12s-.48-.17-.75-.32c-.28-.15-.53-.33-.75-.54-.22-.2-.35-.39-.37-.55,.06-1.21,.25-2.39,.57-3.54,.32-1.16,.68-2.31,1.09-3.47,.41-1.15,.84-2.31,1.29-3.45,.45-1.15,.85-2.3,1.2-3.47,.2-.1,.48-.09,.81,.05,.34,.13,.66,.33,.97,.6,.31,.27,.55,.57,.74,.92,.18,.35,.22,.69,.12,1.01-.06,.23-.14,.44-.25,.64-.1,.2-.21,.42-.34,.64,.43-.47,.89-.93,1.38-1.38s.99-.85,1.5-1.21,1.03-.65,1.56-.87c.53-.22,1.07-.36,1.63-.4,.22,0,.46,.09,.72,.26,.26,.17,.48,.39,.67,.64,.19,.26,.34,.53,.44,.81,.1,.29,.11,.54,.03,.77-.51,1.39-.98,2.56-1.41,3.51-.43,.95-.81,1.8-1.14,2.55-.33,.75-.59,1.46-.8,2.15-.2,.69-.34,1.46-.4,2.32,0,.06,.01,.13,.03,.21,.02,.08,.07,.15,.14,.21,.07,.06,.18,.09,.32,.09s.33-.05,.55-.15c.59-.29,1.3-.79,2.13-1.5,.83-.72,1.64-1.67,2.44-2.85,.31-.45,.59-.89,.84-1.33,.26-.44,.51-.86,.75-1.27,.06-.1,.15-.16,.26-.17s.21,.01,.31,.08c.09,.06,.15,.14,.18,.25,.03,.1,0,.22-.08,.37l-1.6,2.67c-.29,.45-.67,1.01-1.17,1.67Z"/>
    <path class="cls-1" d="M151.9,76.72c-.29,.45-.59,.94-.92,1.47-.33,.53-.69,1.09-1.09,1.67-.4,.58-.84,1.17-1.32,1.75-.48,.58-1.02,1.14-1.61,1.67-.59,.53-1.17,.94-1.72,1.21-.55,.28-1.07,.47-1.56,.58-.49,.11-.93,.17-1.32,.18-.39,.01-.71,.02-.95,.02-1.39,0-2.47-.37-3.25-1.1-.78-.74-1.2-1.74-1.26-3.01-.04-1.17,.17-2.33,.63-3.48s1.2-2.41,2.22-3.76c.33-.43,.77-.89,1.32-1.4,.55-.5,1.17-.97,1.84-1.4,.67-.43,1.39-.78,2.15-1.04s1.51-.39,2.27-.37c.49,0,.9,.11,1.24,.34,.34,.23,.58,.52,.74,.89,.15,.37,.2,.8,.14,1.29s-.26,.99-.58,1.5c-.16,.2-.35,.25-.55,.14-.2-.11-.28-.3-.21-.57,.31-.61,.39-1.13,.26-1.55-.13-.42-.5-.58-1.09-.48-.86,.16-1.67,.55-2.42,1.17-.76,.61-1.43,1.32-2.02,2.12-.59,.8-1.09,1.62-1.5,2.47-.41,.85-.7,1.6-.86,2.25-.1,.37-.15,.78-.15,1.24s.06,.91,.18,1.33c.12,.43,.32,.81,.58,1.14,.27,.33,.63,.55,1.1,.67,.45,.1,.97,.09,1.55-.05,.58-.13,1.2-.4,1.84-.8,.64-.4,1.3-.93,1.98-1.58,.67-.65,1.34-1.45,1.99-2.39,.33-.47,.62-.93,.89-1.38,.27-.45,.51-.88,.74-1.29,.08-.1,.18-.16,.29-.17s.21,.01,.31,.08c.09,.06,.16,.14,.2,.25,.04,.1,.02,.22-.06,.37Z"/>
    <path class="cls-1" d="M161.53,73.89c-.92,1.66-2.13,3.03-3.62,4.13-1.49,1.09-3.14,1.89-4.94,2.38-.02,.35,0,.7,.06,1.04s.16,.67,.31,.98c.14,.31,.34,.57,.58,.8,.25,.22,.55,.38,.92,.46,.45,.1,.97,.09,1.55-.05,.58-.13,1.2-.4,1.84-.8,.64-.4,1.3-.93,1.98-1.58,.67-.65,1.34-1.45,1.99-2.39,.33-.47,.62-.93,.89-1.38,.27-.45,.51-.88,.74-1.29,.08-.1,.18-.16,.29-.17s.21,.01,.31,.08c.09,.06,.16,.14,.2,.25,.04,.1,.02,.22-.06,.37-.29,.45-.59,.94-.92,1.47-.33,.53-.69,1.09-1.09,1.67-.4,.58-.84,1.17-1.32,1.75-.48,.58-1.02,1.14-1.61,1.67-.59,.53-1.17,.94-1.72,1.21-.55,.28-1.07,.47-1.56,.58-.49,.11-.93,.17-1.32,.18-.39,.01-.71,.02-.95,.02-1.39,0-2.47-.37-3.25-1.1-.78-.74-1.2-1.74-1.26-3.01-.04-1.17,.17-2.33,.63-3.48s1.2-2.41,2.22-3.76c.33-.43,.77-.89,1.32-1.4,.55-.5,1.17-.97,1.84-1.4,.67-.43,1.39-.78,2.15-1.04s1.51-.39,2.27-.37c.49,0,.91,.11,1.27,.34,.36,.23,.62,.53,.78,.9,.16,.38,.21,.82,.14,1.32-.07,.5-.29,1.04-.66,1.61Zm-8.4,5.4s-.03,.08-.03,.12c1.66-.47,3.15-1.22,4.48-2.25,1.33-1.03,2.4-2.33,3.22-3.88,.29-.59,.36-1.1,.21-1.52-.14-.42-.5-.58-1.07-.48-.86,.16-1.67,.55-2.42,1.17-.76,.61-1.43,1.32-2.02,2.12-.59,.8-1.09,1.62-1.5,2.47-.41,.85-.7,1.6-.86,2.25Z"/>
  </g>
  <g>
    <path class="cls-1" d="M33.86,55.97s-.04,.06-.12,.05c-.08,0-.17-.03-.26-.06-.1-.03-.19-.07-.28-.12-.09-.05-.15-.09-.17-.13,0-.48,.05-.9,.17-1.27s.28-.7,.49-.98,.43-.53,.7-.73,.54-.38,.82-.52c.28-.14,.56-.26,.84-.35s.53-.17,.77-.24c.53-.15,1.07-.24,1.62-.28,.56-.04,1.11-.05,1.66-.03,.55,.02,1.1,.05,1.63,.09,.54,.04,1.05,.08,1.53,.1,.48,.02,.93,.01,1.35-.02,.41-.03,.78-.12,1.1-.27,.05-.02,.07,.01,.07,.1s-.02,.19-.05,.3c-.03,.11-.07,.22-.12,.32s-.1,.16-.15,.18c-.37,.14-.77,.22-1.2,.25-.43,.03-.88,.03-1.35,0-.47-.03-.95-.07-1.45-.13-.5-.06-1-.11-1.51-.15-.51-.04-1.02-.07-1.53-.06-.51,0-1.01,.05-1.5,.14-.38,.08-.75,.19-1.11,.36-.36,.16-.68,.39-.96,.69-.28,.3-.51,.67-.69,1.12s-.28,1-.31,1.64Zm5-3.57s.1-.05,.2,0,.22,.12,.33,.22c.11,.1,.2,.22,.28,.35,.07,.13,.09,.25,.05,.37-.51,.63-1.01,1.33-1.5,2.09-.49,.77-.93,1.54-1.33,2.32-.4,.78-.73,1.53-.99,2.25s-.43,1.35-.49,1.88c0,.05-.04,.04-.1-.02s-.13-.14-.2-.24-.13-.21-.19-.32c-.05-.11-.08-.19-.06-.25,0-.36,.08-.78,.21-1.24,.13-.47,.31-.96,.52-1.48,.21-.52,.45-1.06,.73-1.6,.27-.55,.56-1.08,.85-1.6,.3-.52,.59-1.02,.89-1.48,.29-.47,.57-.88,.82-1.25Z"/>
    <path class="cls-1" d="M43.37,59.48c-.16,.22-.34,.44-.54,.64s-.4,.38-.62,.53c-.22,.15-.43,.22-.63,.22-.12,0-.23-.02-.34-.06-.11-.04-.21-.1-.29-.18s-.15-.19-.19-.32c-.05-.13-.07-.28-.06-.46,0-.18,.03-.35,.07-.53s.09-.36,.16-.55c.06-.19,.14-.41,.24-.63,.1-.23,.2-.48,.32-.76,.08-.18,.13-.34,.17-.49,.04-.15,.05-.25,.02-.32s-.1-.08-.21-.04-.29,.17-.53,.37c-.26,.24-.49,.46-.7,.68-.2,.21-.41,.45-.62,.72-.18,.4-.33,.8-.45,1.21-.12,.41-.2,.84-.23,1.29,0,.05-.04,.06-.11,.04-.08-.02-.16-.06-.25-.11s-.18-.11-.25-.18c-.07-.07-.12-.13-.12-.18,.02-.42,.09-.84,.21-1.26s.27-.85,.45-1.28c.18-.43,.38-.86,.59-1.28s.42-.85,.62-1.27c.12-.24,.23-.48,.34-.72,.11-.24,.21-.48,.31-.71,.1-.23,.19-.45,.26-.67,.07-.21,.14-.41,.18-.58,.07-.03,.16-.03,.28,.02,.12,.04,.22,.11,.33,.19,.1,.09,.18,.19,.25,.3,.06,.12,.07,.23,.03,.34-.03,.08-.08,.21-.16,.37-.08,.17-.17,.36-.27,.57s-.21,.44-.34,.67c-.12,.24-.24,.46-.35,.68l-.72,1.34c.14-.16,.3-.32,.46-.48,.16-.16,.33-.3,.51-.42,.18-.13,.36-.23,.54-.31,.18-.08,.37-.12,.56-.14,.07,0,.15,.03,.24,.09s.16,.13,.22,.21,.11,.18,.15,.27c.03,.1,.04,.18,.01,.26-.17,.46-.33,.85-.47,1.17-.14,.32-.27,.6-.38,.85-.11,.25-.2,.49-.27,.72-.07,.23-.11,.49-.13,.77,0,.02,0,.04,.01,.07,0,.03,.02,.05,.05,.07,.02,.02,.06,.03,.11,.03s.11-.02,.18-.05c.2-.1,.43-.26,.71-.5,.28-.24,.55-.56,.81-.95,.1-.15,.2-.3,.28-.45,.08-.15,.17-.29,.25-.42,.02-.03,.05-.05,.09-.06s.07,0,.1,.03c.03,.02,.05,.05,.06,.08,.01,.03,0,.07-.03,.12l-.53,.89c-.1,.15-.22,.34-.39,.56Z"/>
    <path class="cls-1" d="M47.51,57.09c-.31,.55-.71,1.01-1.21,1.38-.5,.37-1.05,.63-1.65,.79,0,.12,0,.23,.02,.35,.02,.12,.05,.22,.1,.33s.11,.19,.19,.27c.08,.08,.18,.13,.31,.15,.15,.03,.32,.03,.52-.01s.4-.13,.61-.27c.21-.13,.44-.31,.66-.53s.45-.48,.67-.8c.11-.16,.21-.31,.3-.46s.17-.29,.25-.43c.03-.03,.06-.05,.1-.06s.07,0,.1,.03c.03,.02,.05,.05,.07,.08,.01,.03,0,.07-.02,.12-.1,.15-.2,.31-.31,.49-.11,.18-.23,.36-.36,.56-.13,.19-.28,.39-.44,.58-.16,.19-.34,.38-.54,.56s-.39,.31-.57,.4c-.18,.09-.36,.16-.52,.19-.16,.04-.31,.06-.44,.06-.13,0-.24,0-.32,0-.46,0-.83-.12-1.08-.37-.26-.25-.4-.58-.42-1-.01-.39,.06-.78,.21-1.16,.15-.39,.4-.8,.74-1.25,.11-.14,.26-.3,.44-.47,.18-.17,.39-.32,.61-.47,.23-.14,.46-.26,.72-.35,.25-.09,.51-.13,.76-.12,.16,0,.31,.04,.42,.11,.12,.08,.21,.18,.26,.3,.05,.13,.07,.27,.05,.44-.02,.17-.1,.35-.22,.54Zm-2.8,1.8s-.01,.03-.01,.04c.55-.16,1.05-.41,1.49-.75,.44-.34,.8-.78,1.07-1.29,.1-.2,.12-.37,.07-.51s-.17-.19-.36-.16c-.29,.06-.56,.18-.81,.39-.25,.2-.48,.44-.68,.71-.2,.27-.37,.54-.5,.82-.14,.28-.23,.53-.29,.75Z"/>
  </g>
  <g>
    <path class="cls-1" d="M105.06,91.37c0-1.48,.73-2.35,1.76-2.35s1.76,.87,1.76,2.35-.73,2.39-1.76,2.39-1.76-.89-1.76-2.39Zm2.91,0c0-1.15-.46-1.84-1.15-1.84s-1.15,.68-1.15,1.84,.46,1.88,1.15,1.88,1.15-.7,1.15-1.88Z"/>
    <path class="cls-1" d="M109.84,89.1h2.81v.5h-2.23v1.54h1.88v.5h-1.88v2.04h-.59v-4.58Z"/>
    <path class="cls-1" d="M119.08,89.6h-1.51v-.5h3.61v.5h-1.51v4.08h-.59v-4.08Z"/>
    <path class="cls-1" d="M122.02,89.1h.59v1.91h1.9v-1.91h.59v4.58h-.59v-2.15h-1.9v2.15h-.59v-4.58Z"/>
    <path class="cls-1" d="M126.45,89.1h2.83v.5h-2.25v1.43h1.9v.5h-1.9v1.66h2.32v.5h-2.9v-4.58Z"/>
    <path class="cls-1" d="M134.74,89.1h1.38c1.01,0,1.7,.34,1.7,1.35s-.69,1.42-1.7,1.42h-.8v1.81h-.59v-4.58Zm1.31,2.29c.8,0,1.18-.29,1.18-.94s-.39-.87-1.18-.87h-.73v1.81h.73Z"/>
    <path class="cls-1" d="M138.91,89.1h1.43c.93,0,1.6,.33,1.6,1.29s-.68,1.35-1.6,1.35h-.84v1.93h-.59v-4.58Zm1.35,2.17c.71,0,1.1-.29,1.1-.88s-.39-.82-1.1-.82h-.75v1.7h.75Zm.43,0l1.4,2.4h-.66l-1.19-2.09,.46-.31Z"/>
    <path class="cls-1" d="M142.74,91.37c0-1.48,.73-2.35,1.76-2.35s1.76,.87,1.76,2.35-.73,2.39-1.76,2.39-1.76-.89-1.76-2.39Zm2.91,0c0-1.15-.46-1.84-1.15-1.84s-1.15,.68-1.15,1.84,.46,1.88,1.15,1.88,1.15-.7,1.15-1.88Z"/>
    <path class="cls-1" d="M147.19,89.1h1.13c1.37,0,2.12,.82,2.12,2.27s-.75,2.31-2.09,2.31h-1.16v-4.58Zm1.09,4.1c1.04,0,1.56-.67,1.56-1.83s-.52-1.79-1.56-1.79h-.5v3.61h.5Z"/>
    <path class="cls-1" d="M151.33,91.95v-2.85h.59v2.86c0,.94,.41,1.28,.96,1.28s.97-.34,.97-1.28v-2.86h.57v2.85c0,1.31-.64,1.81-1.54,1.81s-1.55-.5-1.55-1.81Z"/>
    <path class="cls-1" d="M155.41,91.39c0-1.47,.86-2.37,2.05-2.37,.55,0,.98,.27,1.26,.56l-.34,.37c-.24-.25-.54-.41-.92-.41-.87,0-1.44,.7-1.44,1.84s.57,1.87,1.44,1.87c.42,0,.74-.18,1.03-.5l.34,.36c-.36,.42-.81,.66-1.42,.66-1.13,0-2-.88-2-2.37Z"/>
    <path class="cls-1" d="M160.95,89.6h-1.51v-.5h3.61v.5h-1.51v4.08h-.59v-4.08Z"/>
    <path class="cls-1" d="M163.8,93.09l.35-.4c.35,.34,.82,.57,1.34,.57,.63,0,.99-.3,.99-.72,0-.49-.36-.63-.82-.82l-.66-.29c-.45-.18-.98-.5-.98-1.18s.63-1.21,1.5-1.21c.57,0,1.07,.23,1.41,.57l-.31,.38c-.3-.27-.65-.43-1.12-.43-.53,0-.89,.25-.89,.66,0,.44,.43,.6,.82,.75l.64,.29c.56,.22,1.01,.54,1.01,1.22,0,.73-.61,1.3-1.62,1.3-.67,0-1.25-.27-1.66-.68Z"/>
  </g>
  <path class="cls-1" d="M26.94,63.3c-.78,1.21-1.51,2.44-2.25,3.67-.13,.22-.26,.45-.34,.69-.1,.3,.07,.42,.35,.34,.15-.04,.28-.15,.4-.24,2.66-2.13,5.32-4.26,7.98-6.4,.51-.41,.49-.7-.04-1.07-4.52-3.14-9.04-6.28-13.55-9.42-.12-.08-.31-.11-.29-.39,.27,0,.54,0,.81-.02,3.23-.07,6.46-.14,9.69-.21,.92-.02,1.84-.04,2.75-.05,.01-.16-.04-.29-.11-.43,.07,.13,.12,.27,.11,.43,.81-.01,1.63-.02,2.44-.04q2.03-.04,2.46-2.07c.5-1.39,.91-2.81,1.31-4.23,.25-.77,.51-1.54,.74-2.32,.71-2.36,1.4-4.71,2.11-7.07,.16-.44,.32-.88,.51-1.4,.11,.28,.2,.47,.27,.68,1.82,5.24,3.65,10.48,5.45,15.73,.18,.53,.45,.72,.97,.52,1.48-.55,3-.99,4.46-1.61,.1-.01,.2,0,.29-.03,2.55-.81,5.1-1.62,7.65-2.42,.06,0,.12,0,.18-.02,5.76-1.68,11.59-3.08,17.49-4.21,.32-.06,.91,0,.87-.39-.04-.36-.61-.23-.95-.21-6.31,.39-12.58,1.2-18.84,2.13-2.48,.34-4.97,.68-7.45,1.04-.77,.11-.86,.08-1.12-.69-.73-2.12-1.47-4.24-2.19-6.37-.88-2.6-1.75-5.21-2.63-7.81-.56-1.64-1.13-3.27-1.69-4.91-.88-2.56-1.77-5.11-2.66-7.67-.08-.22-.12-.5-.43-.51-.23,0-.34,.2-.39,.4-.55,1.88-1.08,3.76-1.62,5.64-.67,1.96-1.27,3.94-1.82,5.93-.55,1.77-1.11,3.54-1.65,5.32-.39,1.31-.85,2.59-1.15,3.93,.12,.15,.23,.31,.33,.47-.1-.16-.21-.32-.33-.47-.48,1.35-.89,2.72-1.24,4.11-.26,.83-.55,1.65-.78,2.48-.12,.43-.31,.61-.78,.6-.77-.02-1.54,.04-2.32,.06-.88,.02-1.76,.03-2.63,.05-.24,0-.48-.02-.72-.01-6.94,.13-13.89,.27-20.83,.4-.74,.01-1.48,.03-2.21,.04-.22,0-.46,.01-.55,.27-.08,.24,.08,.42,.25,.57,.23,.19,.46,.38,.71,.55,3.79,2.61,7.59,5.22,11.37,7.84,3.8,2.63,7.6,5.27,11.41,7.89,.4,.28,.45,.47,.19,.89Zm9.02-24.31c-.1-.19-.2-.38-.31-.57,.11,.19,.21,.38,.31,.57Z"/>
  <path class="cls-1" d="M50.87,54.63c.14,.31,.48,.05,.69-.01,2.02-.65,4.38-1.52,6.43-2.09,3.85-1.06,7.75-1.82,11.7-2.34,2.31-.31,4.64-.43,6.96-.64,2.19-.06,4.37-.09,6.56-.03,2.78,.07,5.56,.19,8.33,.5,.12,.01,.24,0,.35,0,2.5,.33,4.99,.65,7.49,.98-.09-.3-.13-.6-.15-.9,.03,.3,.07,.61,.15,.9,1.71,.3,3.42,.6,5.12,.9,1.15,.28,2.3,.52,3.47,.7,0,0,0,0,0,0,3,.72,6.01,1.37,8.99,2.17,.63,.17,1.27,.32,1.91,.48,1.26,.36,2.52,.71,3.78,1.08,4.71,1.38,9.38,2.89,14,4.54,.08,.03,.15,.06,.23,.08,.17,.04,.37,.14,.48-.06,.1-.19-.06-.34-.19-.46-.82-.78-1.65-1.56-2.48-2.33-3.82-3.53-7.64-7.06-11.37-10.68-.23-.22-.46-.44-.79-.51-1.52-.33-3.03-.7-4.57-.91-2.65-.54-5.33-.85-8-1.16-.81-.09-1.62-.15-2.43-.22h0c-1.17-.17-2.35-.25-3.53-.28-1.78-.19-3.56-.24-5.34-.23-2.39-.12-4.77-.09-7.16,.06-1.44-.05-2.86,.1-4.29,.2-3.48,.25-6.94,.7-10.37,1.28-.19,.03-.38,.1-.58,.15-1.82,.22-3.59,.68-5.37,1.1-3.86,.91-7.64,2.07-11.33,3.51-1.93,.75-4.18,1.73-6.03,2.65-.73,.36-1.47,.7-2.19,1.09-.2,.11-.62,.17-.47,.49Zm57.16-3.33s-.01-.1-.02-.15c0,.05,.01,.1,.02,.15Z"/>
</svg>