<?xml version="1.0" encoding="UTF-8"?>
<svg id="Capa_1" data-name="Capa 1" xmlns="http://www.w3.org/2000/svg" viewBox="0 0 170.08 113.39">
  <defs>
    <style>
      .cls-1 {
        fill: #001d85;
      }

      .cls-2 {
        fill: #516ba5;
      }

      .cls-3 {
        letter-spacing: .07em;
      }

      .cls-4 {
        letter-spacing: .07em;
      }

      .cls-5 {
        fill: #87868a;
        font-family: MyriadPro-Cond, 'Myriad Pro';
        font-size: 7.43px;
      }
    </style>
  </defs>
  <text class="cls-5" transform="translate(137.16 96.11)"><tspan class="cls-3" x="0" y="0">Pl</tspan><tspan class="cls-4" x="5.5" y="0">a</tspan><tspan class="cls-3" x="8.69" y="0">ta 925</tspan></text>
  <g>
    <path class="cls-1" d="M97.07,66.65v19.21h-5.03v-9.63c0-.74-.14-1.44-.42-2.08-.28-.64-.67-1.21-1.17-1.69s-1.08-.87-1.73-1.14c-.65-.27-1.34-.4-2.06-.4s-1.43,.14-2.07,.42c-.64,.28-1.21,.66-1.71,1.14-.5,.48-.89,1.04-1.17,1.7-.28,.66-.42,1.36-.42,2.1s.14,1.4,.42,2.04c.28,.64,.67,1.21,1.17,1.7,.5,.49,1.07,.87,1.71,1.16s1.33,.42,2.07,.42c.79,0,1.47-.14,2.04-.42h.04v.08l1.92,3.42-.04,.04c-1.25,.97-2.8,1.46-4.65,1.46-1.36,0-2.64-.26-3.84-.77-1.2-.51-2.25-1.22-3.15-2.11-.9-.9-1.61-1.95-2.13-3.15-.53-1.2-.79-2.48-.79-3.84s.26-2.68,.79-3.88c.52-1.2,1.23-2.25,2.13-3.15,.9-.9,1.95-1.61,3.15-2.13,1.2-.52,2.48-.79,3.84-.79s2.5,.25,3.5,.74c1,.5,1.86,1.21,2.57,2.15v-2.59h5.03Z"/>
    <path class="cls-1" d="M115.44,67.42l-.46,.77-1.96,3.5-.04-.04c-.85-.49-1.75-.73-2.73-.73-.67,0-1.29,.11-1.88,.33-.59,.22-1.11,.53-1.58,.92-.46,.4-.85,.86-1.17,1.4-.32,.54-.53,1.11-.63,1.73v10.56h-5.23v-19.21h5.23v2.5c1.36-1.87,3.34-2.8,5.95-2.8,1.54,0,3.02,.36,4.46,1.08h.04Z"/>
    <path class="cls-1" d="M127.85,78.53l4.15,2.73-.04,.04c-.9,1.54-2.11,2.74-3.63,3.61-1.52,.87-3.17,1.31-4.94,1.31-1.38,0-2.68-.26-3.88-.79-1.2-.52-2.25-1.24-3.15-2.13-.9-.9-1.61-1.95-2.13-3.15-.52-1.2-.79-2.48-.79-3.84s.26-2.64,.79-3.84c.52-1.2,1.24-2.25,2.13-3.15,.9-.9,1.95-1.61,3.15-2.13,1.2-.52,2.5-.79,3.88-.79,1.77,0,3.41,.44,4.94,1.31,1.52,.87,2.73,2.07,3.63,3.61l.04,.04-4.19,2.73-.04-.04c-.41-.95-1.01-1.72-1.79-2.31-.78-.59-1.65-.88-2.59-.88-.69,0-1.34,.15-1.94,.44-.6,.29-1.12,.69-1.56,1.19-.44,.5-.78,1.08-1.04,1.73-.26,.65-.38,1.35-.38,2.09s.13,1.43,.38,2.07c.26,.64,.6,1.2,1.04,1.67,.44,.47,.95,.85,1.56,1.11s1.25,.4,1.94,.4c.95,0,1.81-.26,2.59-.79,.78-.52,1.38-1.26,1.79-2.21l.04-.08,.04,.04Z"/>
    <path class="cls-1" d="M133.53,85.86v-19.21h5.11v19.21h-5.11Zm7.26-25.78l-2.77,4.42h-4.23l1.88-4.42h5.11Z"/>
    <path class="cls-1" d="M161.37,66.65v19.21h-5.03v-9.63c0-.74-.14-1.44-.42-2.08-.28-.64-.67-1.21-1.17-1.69-.5-.49-1.08-.87-1.73-1.14-.65-.27-1.34-.4-2.06-.4s-1.43,.14-2.07,.42c-.64,.28-1.21,.66-1.71,1.14-.5,.48-.89,1.04-1.17,1.7-.28,.66-.42,1.36-.42,2.1s.14,1.4,.42,2.04c.28,.64,.67,1.21,1.17,1.7,.5,.49,1.07,.87,1.71,1.16,.64,.28,1.33,.42,2.07,.42,.79,0,1.47-.14,2.04-.42h.04v.08l1.92,3.42-.04,.04c-1.26,.97-2.8,1.46-4.65,1.46-1.36,0-2.64-.26-3.84-.77-1.2-.51-2.25-1.22-3.15-2.11-.9-.9-1.61-1.95-2.13-3.15-.52-1.2-.79-2.48-.79-3.84s.26-2.68,.79-3.88c.52-1.2,1.24-2.25,2.13-3.15,.9-.9,1.95-1.61,3.15-2.13,1.2-.52,2.48-.79,3.84-.79s2.5,.25,3.5,.74c1,.5,1.86,1.21,2.57,2.15v-2.59h5.03Z"/>
  </g>
  <path class="cls-1" d="M21.5,44.54c0,2.37,.28,4.66,.82,6.85,0-.15-.02-.29-.02-.44,0-12.1,8.66-20.67,20.27-20.67,7.78,0,13.98,3.55,16.83,8.07l11.64-6.68h0c-4.11-8.64-13.15-13.93-22.66-13.93-15.9,0-26.88,11.93-26.88,26.79Z"/>
  <path class="cls-2" d="M48.72,75.74c-18.76,0-31.81-13.92-31.81-31.2,0-13.32,7.76-24.63,19.74-29.12C19.35,18.21,6.54,32.9,6.54,50.85c0,19.78,15.55,35.73,37.2,35.73,19.29,0,33.95-12.79,33.95-33.86v-.18c-1.67,12.96-12.42,23.21-28.98,23.21Z"/>
  <path class="cls-1" d="M45.58,71.18c1.03,.1,2.07,.16,3.14,.16,14.69,0,23.59-9.07,24.54-20.4h-30.11v9.66h18.41c-2.31,6.19-7.75,10.13-15.98,10.58Z"/>
</svg>