<?xml version="1.0" encoding="UTF-8"?>
<svg id="Capa_1" data-name="Capa 1" xmlns="http://www.w3.org/2000/svg" viewBox="0 0 170.08 113.39">
  <defs>
    <style>
      .cls-1 {
        fill: #0b3d5c;
      }

      .cls-2 {
        fill: #798490;
      }

      .cls-3 {
        fill: none;
        stroke: #0b3d5c;
        stroke-miterlimit: 10;
        stroke-width: .1px;
      }
    </style>
  </defs>
  <path class="cls-1" d="M46.57,100.45c-.3,.1-.67,.2-1.11,.28-.44,.08-.95,.13-1.54,.13-1.46,0-2.55-.44-3.28-1.31-.73-.87-1.1-2.12-1.1-3.73,0-.75,.06-1.41,.19-1.97,.13-.57,.34-1.05,.66-1.43,.31-.38,.74-.67,1.27-.87,.53-.2,1.2-.29,2.01-.29,.56,0,1.06,.04,1.51,.12,.44,.08,.84,.17,1.18,.26l.15,2.65h-.29l-.08-.43c-.04-.21-.11-.43-.2-.66-.1-.24-.25-.46-.45-.67-.2-.21-.46-.37-.78-.51-.32-.14-.72-.2-1.2-.2-.61,0-1.08,.12-1.43,.36-.34,.24-.6,.55-.77,.93-.17,.38-.27,.79-.32,1.25-.04,.45-.06,.88-.06,1.29,0,.29,.01,.61,.04,.95,.03,.35,.08,.69,.16,1.02,.08,.34,.19,.66,.34,.98,.14,.32,.34,.6,.58,.84,.24,.24,.54,.44,.9,.58,.35,.14,.77,.22,1.26,.22,.29,0,.51-.01,.68-.04,.16-.02,.31-.05,.44-.08v-2.71c0-.27-.03-.48-.09-.63-.06-.15-.15-.26-.26-.34s-.24-.13-.39-.15c-.15-.02-.31-.03-.48-.03v-.28h2.46v4.48Z"/>
  <path class="cls-1" d="M49.48,92.82c0-.26-.03-.47-.08-.62-.06-.15-.13-.27-.24-.34-.1-.07-.23-.12-.38-.15-.15-.02-.32-.03-.52-.03v-.28h3.71c.38,0,.76,.03,1.13,.09,.37,.06,.71,.17,1,.33,.29,.16,.53,.37,.72,.65s.28,.63,.28,1.07-.08,.82-.24,1.11c-.16,.29-.37,.53-.61,.71-.24,.18-.51,.31-.79,.38-.28,.08-.55,.13-.81,.15l1.85,3.14c.11,.19,.23,.38,.34,.58,.12,.2,.23,.38,.33,.55,.11,.2,.22,.38,.34,.56h-1.41l-2.8-4.73h-.57v4.73h-1.25v-7.9Zm1.25,2.62c.41,0,.8-.02,1.17-.05,.37-.03,.69-.11,.97-.24,.28-.13,.5-.32,.67-.57,.17-.25,.25-.6,.25-1.04,0-.3-.06-.55-.18-.75-.12-.2-.28-.36-.48-.49-.2-.13-.43-.22-.69-.27-.26-.06-.53-.08-.81-.08-.21,0-.37,.01-.49,.04-.12,.02-.22,.07-.28,.14-.07,.07-.11,.17-.12,.29s-.02,.28-.02,.46v2.58Z"/>
  <path class="cls-1" d="M64.19,97.48c0,.48-.03,.92-.09,1.34-.06,.41-.2,.77-.41,1.07-.22,.3-.53,.53-.96,.71-.43,.17-1,.26-1.73,.26s-1.31-.08-1.75-.25c-.44-.17-.78-.4-1.01-.7-.24-.3-.39-.65-.47-1.06-.08-.41-.11-.86-.11-1.36v-4.66c0-.26-.03-.47-.08-.62-.06-.15-.13-.27-.24-.34-.1-.07-.23-.12-.38-.15-.15-.02-.32-.03-.52-.03v-.28h2.46v6.09c0,.35,.03,.7,.08,1.04,.06,.34,.16,.64,.31,.91,.15,.27,.37,.48,.65,.64,.28,.16,.65,.24,1.1,.24,.51,0,.91-.07,1.22-.21,.31-.14,.54-.33,.71-.58,.16-.25,.27-.54,.33-.89,.06-.34,.08-.73,.08-1.15v-6.09h.8v6.09Z"/>
  <path class="cls-1" d="M66.87,92.82c0-.26-.03-.47-.08-.62-.06-.15-.13-.27-.24-.34-.1-.07-.23-.12-.38-.15-.15-.02-.32-.03-.52-.03v-.28h3.65c.46,0,.89,.03,1.29,.08,.4,.06,.75,.17,1.06,.34,.3,.17,.54,.41,.71,.73,.17,.32,.26,.74,.26,1.28,0,.6-.12,1.06-.37,1.39-.25,.33-.56,.57-.93,.72-.37,.15-.78,.24-1.22,.26-.44,.02-.85,.03-1.23,.03h-.76v4.49h-1.25v-7.9Zm1.25,2.86h.76c.36,0,.7-.02,.99-.07,.3-.05,.56-.13,.77-.27,.21-.13,.38-.32,.5-.56,.12-.24,.18-.56,.18-.97,0-.69-.18-1.18-.53-1.46-.36-.28-.85-.42-1.47-.42-.28,0-.5,.01-.66,.03s-.28,.07-.36,.14c-.08,.07-.13,.19-.15,.34-.02,.15-.03,.37-.03,.64v2.59Z"/>
  <path class="cls-1" d="M77.16,100.85c-.7,0-1.28-.12-1.74-.37-.46-.25-.83-.59-1.11-1.01-.28-.43-.47-.94-.59-1.52-.12-.58-.18-1.22-.18-1.9s.06-1.32,.18-1.9c.12-.59,.31-1.1,.59-1.53,.28-.43,.64-.76,1.11-1.01,.46-.24,1.04-.36,1.74-.36s1.28,.12,1.74,.36c.46,.24,.83,.58,1.11,1.01,.27,.43,.47,.94,.59,1.53,.12,.59,.18,1.22,.18,1.9s-.06,1.31-.18,1.9c-.12,.58-.31,1.09-.59,1.52-.28,.43-.64,.77-1.11,1.01-.46,.25-1.04,.37-1.74,.37m-2.23-4.8c0,.54,.02,1.07,.06,1.58,.04,.51,.14,.96,.29,1.36,.15,.4,.38,.72,.67,.96,.29,.24,.69,.36,1.2,.36s.9-.12,1.2-.36c.29-.24,.52-.56,.67-.96,.15-.4,.25-.85,.29-1.36,.04-.51,.06-1.03,.06-1.58s-.02-1.07-.06-1.57c-.04-.51-.14-.96-.29-1.36-.15-.4-.37-.72-.66-.96-.29-.24-.69-.36-1.19-.36s-.9,.12-1.2,.36c-.29,.24-.52,.56-.68,.96-.16,.4-.26,.85-.31,1.36-.05,.51-.07,1.03-.07,1.57"/>
  <path class="cls-1" d="M86.89,92.82c0-.26-.03-.47-.08-.62-.06-.16-.14-.27-.24-.34-.1-.07-.23-.12-.38-.15-.15-.02-.32-.03-.51-.03v-.28h2.46v7.89c0,.2,.01,.35,.03,.47,.02,.12,.06,.21,.13,.26s.16,.1,.29,.12c.13,.02,.3,.03,.51,.03h.94c.3,0,.54-.03,.73-.08,.19-.06,.35-.14,.47-.26,.12-.12,.22-.27,.29-.45,.07-.19,.13-.41,.19-.67l.11-.59h.18l-.11,2.6h-5v-7.9Z"/>
  <path class="cls-1" d="M96.59,100.85c-.7,0-1.28-.12-1.74-.37-.46-.25-.83-.59-1.11-1.01-.28-.43-.47-.94-.59-1.52-.12-.58-.17-1.22-.17-1.9s.06-1.32,.17-1.9c.12-.59,.31-1.1,.59-1.53,.28-.43,.64-.76,1.11-1.01s1.04-.36,1.74-.36,1.28,.12,1.74,.36,.83,.58,1.11,1.01c.28,.43,.47,.94,.59,1.53,.12,.59,.18,1.22,.18,1.9s-.06,1.31-.18,1.9c-.12,.58-.31,1.09-.59,1.52-.28,.43-.64,.77-1.11,1.01-.46,.25-1.04,.37-1.74,.37m-2.23-4.8c0,.54,.02,1.07,.06,1.58,.04,.51,.14,.96,.29,1.36,.15,.4,.38,.72,.67,.96,.29,.24,.69,.36,1.2,.36s.9-.12,1.2-.36c.29-.24,.52-.56,.67-.96,.15-.4,.25-.85,.29-1.36,.04-.51,.06-1.03,.06-1.58s-.02-1.07-.06-1.57c-.04-.51-.14-.96-.29-1.36-.15-.4-.37-.72-.66-.96-.29-.24-.69-.36-1.19-.36s-.9,.12-1.2,.36c-.29,.24-.52,.56-.68,.96-.16,.4-.26,.85-.31,1.36-.05,.51-.07,1.03-.07,1.57"/>
  <path class="cls-1" d="M102.16,92.82c0-.26-.03-.47-.08-.62-.06-.16-.14-.27-.24-.34-.1-.07-.23-.12-.38-.15-.15-.02-.32-.03-.52-.03v-.28h2.46v9.32h-1.25v-7.9Z"/>
  <path class="cls-1" d="M106.36,92.82c0-.26-.03-.47-.08-.62-.06-.16-.14-.27-.24-.34-.1-.07-.23-.12-.38-.15-.15-.02-.32-.03-.51-.03v-.28h2.55l4.31,7.52h.03v-7.52h.8v9.32h-1.04l-4.61-8.04h-.03v8.04h-.8v-7.9Z"/>
  <path class="cls-1" d="M118.9,91.25c.41,1.07,.77,2.03,1.09,2.88,.31,.85,.59,1.59,.83,2.23,.24,.65,.45,1.2,.63,1.66,.18,.46,.33,.86,.45,1.18,.29,.76,.48,1.25,.56,1.5h-1.32c-.12-.31-.22-.57-.31-.8-.08-.22-.18-.47-.27-.74-.1-.27-.19-.52-.27-.74-.08-.22-.18-.49-.29-.8h-3.51c-.74,2.04-1.11,3.07-1.11,3.09h-.85c.06-.13,.12-.3,.2-.5,.07-.2,.18-.49,.33-.87,.14-.38,.34-.89,.59-1.53,.25-.64,.55-1.43,.9-2.37,.35-.94,.78-2.07,1.29-3.39,0-.02,0-.03,.01-.04,.05-.16,0-.28-.14-.36-.14-.08-.39-.12-.76-.12v-.28h1.96Zm-2.23,5.82h3.12l-1.55-4.27-1.57,4.27Z"/>
  <path class="cls-1" d="M123.9,100.11l5.05-8.18h-2.23c-.39,0-.72,.02-.97,.06-.26,.04-.47,.1-.63,.2-.16,.1-.29,.23-.39,.4-.1,.17-.18,.38-.24,.64l-.15,.78h-.15l.1-2.63h6.28v.59l-5.07,8.19h2.62c.4,0,.74-.03,1.01-.08,.27-.05,.49-.14,.66-.25,.17-.12,.31-.27,.4-.46,.09-.19,.16-.42,.21-.69l.07-.6h.22l-.1,2.63h-6.69v-.6Z"/>
  <polygon class="cls-1" points="120.1 82 118.11 82 118.11 17.64 104.58 7.36 94.06 17.59 94.05 14.82 104.42 4.75 120.1 16.66 120.1 82"/>
  <polygon class="cls-1" points="90.89 78.65 88.91 78.65 88.91 40.18 78.39 32.78 70.82 40.19 70.81 37.39 78.17 30.2 90.89 39.15 90.89 78.65"/>
  <polygon class="cls-2" points="94.06 78.17 94.06 19.89 104.56 9.53 104.56 79.3 94.06 78.17"/>
  <polygon class="cls-2" points="70.82 79.44 70.82 41.95 78.28 34.57 78.28 79.16 70.82 79.44"/>
  <polygon class="cls-1" points="67.66 80.14 65.67 80.14 65.67 58.61 58.45 52.43 51.97 58.64 51.97 55.89 58.38 49.75 67.66 57.7 67.66 80.14"/>
  <polygon class="cls-2" points="51.97 82 51.97 59.74 58.36 53.68 58.36 81.87 51.97 82"/>
  <path class="cls-1" d="M139.06,88.85s-20.59-11.82-51.76-11.61c-31.16,.21-56.28,11.61-56.28,11.61,0,0,25.2-8.88,56.44-8.72,31.01,.16,51.6,8.72,51.6,8.72"/>
  <path class="cls-1" d="M70.49,105.26h.9c.67,0,1.09,.25,1.09,.81,0,.35-.2,.62-.59,.73v.02c.49,.07,.8,.34,.8,.8,0,.64-.48,.97-1.23,.97h-.96v-3.32Zm.8,1.46c.68,0,.96-.22,.96-.66s-.32-.61-.93-.61h-.6v1.27h.57Zm.1,1.67c.66,0,1.06-.24,1.06-.78,0-.47-.39-.7-1.06-.7h-.67v1.48h.67Z"/>
  <path class="cls-3" d="M70.49,105.26h.9c.67,0,1.09,.25,1.09,.81,0,.35-.2,.62-.59,.73v.02c.49,.07,.8,.34,.8,.8,0,.64-.48,.97-1.23,.97h-.96v-3.32Zm.8,1.46c.68,0,.96-.22,.96-.66s-.32-.61-.93-.61h-.6v1.27h.57Zm.1,1.67c.66,0,1.06-.24,1.06-.78,0-.47-.39-.7-1.06-.7h-.67v1.48h.67Z"/>
  <path class="cls-1" d="M73.27,105.38c0-.13,.09-.2,.2-.2s.2,.07,.2,.2c0,.12-.09,.2-.2,.2s-.2-.08-.2-.2m.09,.78h.22v2.42h-.22v-2.42Z"/>
  <path class="cls-3" d="M73.27,105.38c0-.13,.09-.2,.2-.2s.2,.07,.2,.2c0,.12-.09,.2-.2,.2s-.2-.08-.2-.2Zm.09,.78h.22v2.42h-.22v-2.42Z"/>
  <path class="cls-1" d="M75.36,106.1c.57,0,.93,.41,.93,1.12,0,.06,0,.12-.01,.18h-1.74c0,.61,.37,1.05,.91,1.05,.26,0,.47-.09,.65-.22l.09,.17c-.19,.12-.41,.24-.76,.24-.62,0-1.12-.47-1.12-1.26s.51-1.28,1.05-1.28m.72,1.13c0-.62-.28-.94-.71-.94s-.78,.36-.83,.94h1.54Z"/>
  <path class="cls-3" d="M75.36,106.1c.57,0,.93,.41,.93,1.12,0,.06,0,.12-.01,.18h-1.74c0,.61,.37,1.05,.91,1.05,.26,0,.47-.09,.65-.22l.09,.17c-.19,.12-.41,.24-.76,.24-.62,0-1.12-.47-1.12-1.26s.51-1.28,1.05-1.28Zm.72,1.13c0-.62-.28-.94-.71-.94s-.78,.36-.83,.94h1.54Z"/>
  <path class="cls-1" d="M76.95,106.16h.19l.02,.37h.01c.25-.25,.5-.43,.83-.43,.5,0,.73,.3,.73,.93v1.55h-.22v-1.52c0-.51-.16-.76-.55-.76-.29,0-.49,.15-.79,.45v1.82h-.22v-2.42Z"/>
  <path class="cls-3" d="M76.95,106.16h.19l.02,.37h.01c.25-.25,.5-.43,.83-.43,.5,0,.73,.3,.73,.93v1.55h-.22v-1.52c0-.51-.16-.76-.55-.76-.29,0-.49,.15-.79,.45v1.82h-.22v-2.42Z"/>
  <path class="cls-1" d="M80.48,106.1c.57,0,.93,.41,.93,1.12,0,.06,0,.12-.01,.18h-1.74c0,.61,.37,1.05,.91,1.05,.26,0,.47-.09,.65-.22l.09,.17c-.19,.12-.41,.24-.76,.24-.62,0-1.12-.47-1.12-1.26s.51-1.28,1.05-1.28m.72,1.13c0-.62-.28-.94-.71-.94s-.78,.36-.83,.94h1.54Z"/>
  <path class="cls-3" d="M80.48,106.1c.57,0,.93,.41,.93,1.12,0,.06,0,.12-.01,.18h-1.74c0,.61,.37,1.05,.91,1.05,.26,0,.47-.09,.65-.22l.09,.17c-.19,.12-.41,.24-.76,.24-.62,0-1.12-.47-1.12-1.26s.51-1.28,1.05-1.28Zm.72,1.13c0-.62-.28-.94-.71-.94s-.78,.36-.83,.94h1.54Z"/>
  <path class="cls-1" d="M81.89,108.14c.21,.17,.42,.31,.77,.31,.38,0,.57-.22,.57-.48,0-.3-.31-.43-.59-.53-.37-.13-.77-.28-.77-.69,0-.35,.28-.65,.78-.65,.26,0,.51,.11,.69,.25l-.12,.16c-.16-.12-.33-.22-.58-.22-.37,0-.54,.22-.54,.44,0,.27,.28,.38,.57,.49,.38,.14,.79,.27,.79,.74,0,.36-.29,.68-.82,.68-.36,0-.67-.15-.89-.33l.13-.17Z"/>
  <path class="cls-3" d="M81.89,108.14c.21,.17,.42,.31,.77,.31,.38,0,.57-.22,.57-.48,0-.3-.31-.43-.59-.53-.37-.13-.77-.28-.77-.69,0-.35,.28-.65,.78-.65,.26,0,.51,.11,.69,.25l-.12,.16c-.16-.12-.33-.22-.58-.22-.37,0-.54,.22-.54,.44,0,.27,.28,.38,.57,.49,.38,.14,.79,.27,.79,.74,0,.36-.29,.68-.82,.68-.36,0-.67-.15-.89-.33l.13-.17Z"/>
  <path class="cls-1" d="M86.95,108.58l-.9-1.53h-.71v1.53h-.23v-3.32h.95c.66,0,1.09,.24,1.09,.88,0,.53-.33,.83-.85,.9l.91,1.54h-.27Zm-.95-1.72c.59,0,.91-.24,.91-.73s-.32-.68-.91-.68h-.66v1.41h.66Z"/>
  <path class="cls-3" d="M86.95,108.58l-.9-1.53h-.71v1.53h-.23v-3.32h.95c.66,0,1.09,.24,1.09,.88,0,.53-.33,.83-.85,.9l.91,1.54h-.27Zm-.95-1.72c.59,0,.91-.24,.91-.73s-.32-.68-.91-.68h-.66v1.41h.66Z"/>
  <path class="cls-1" d="M89.27,107.06c.01-.37-.1-.77-.57-.77-.33,0-.61,.16-.77,.28l-.1-.17c.17-.12,.5-.31,.9-.31,.57,0,.77,.41,.77,.93v1.55h-.19l-.03-.31h-.01c-.25,.2-.54,.37-.86,.37-.38,0-.71-.21-.71-.66,0-.53,.49-.79,1.56-.91m-.82,1.39c.28,0,.52-.14,.82-.39v-.82c-.99,.12-1.33,.35-1.33,.73,0,.35,.23,.48,.51,.48"/>
  <path class="cls-3" d="M89.27,107.06c.01-.37-.1-.77-.57-.77-.33,0-.61,.16-.77,.28l-.1-.17c.17-.12,.5-.31,.9-.31,.57,0,.77,.41,.77,.93v1.55h-.19l-.03-.31h-.01c-.25,.2-.54,.37-.86,.37-.38,0-.71-.21-.71-.66,0-.53,.49-.79,1.56-.91Zm-.82,1.39c.28,0,.52-.14,.82-.39v-.82c-.99,.12-1.33,.35-1.33,.73,0,.35,.23,.48,.51,.48Z"/>
  <path class="cls-1" d="M90.27,105.38c0-.13,.09-.2,.2-.2s.2,.07,.2,.2c0,.12-.09,.2-.2,.2s-.2-.08-.2-.2m.09,.78h.22v2.42h-.22v-2.42Z"/>
  <path class="cls-3" d="M90.27,105.38c0-.13,.09-.2,.2-.2s.2,.07,.2,.2c0,.12-.09,.2-.2,.2s-.2-.08-.2-.2Zm.09,.78h.22v2.42h-.22v-2.42Z"/>
  <path class="cls-1" d="M92.41,106.1c.33,0,.55,.15,.71,.3l-.13,.16c-.16-.15-.34-.26-.57-.26-.49,0-.88,.44-.88,1.08s.35,1.07,.88,1.07c.26,0,.48-.13,.65-.28l.12,.15c-.21,.19-.46,.32-.77,.32-.62,0-1.1-.46-1.1-1.26s.51-1.28,1.1-1.28"/>
  <path class="cls-3" d="M92.41,106.1c.33,0,.55,.15,.71,.3l-.13,.16c-.16-.15-.34-.26-.57-.26-.49,0-.88,.44-.88,1.08s.35,1.07,.88,1.07c.26,0,.48-.13,.65-.28l.12,.15c-.21,.19-.46,.32-.77,.32-.62,0-1.1-.46-1.1-1.26s.51-1.28,1.1-1.28Z"/>
  <path class="cls-1" d="M94.54,106.1c.57,0,.93,.41,.93,1.12,0,.06,0,.12-.01,.18h-1.74c0,.61,.37,1.05,.91,1.05,.26,0,.47-.09,.65-.22l.09,.17c-.19,.12-.41,.24-.76,.24-.62,0-1.12-.47-1.12-1.26s.51-1.28,1.05-1.28m.72,1.13c0-.62-.28-.94-.71-.94s-.78,.36-.83,.94h1.54Z"/>
  <path class="cls-3" d="M94.54,106.1c.57,0,.93,.41,.93,1.12,0,.06,0,.12-.01,.18h-1.74c0,.61,.37,1.05,.91,1.05,.26,0,.47-.09,.65-.22l.09,.17c-.19,.12-.41,.24-.76,.24-.62,0-1.12-.47-1.12-1.26s.51-1.28,1.05-1.28Zm.72,1.13c0-.62-.28-.94-.71-.94s-.78,.36-.83,.94h1.54Z"/>
  <path class="cls-1" d="M95.95,108.14c.21,.17,.42,.31,.77,.31,.38,0,.57-.22,.57-.48,0-.3-.31-.43-.59-.53-.37-.13-.77-.28-.77-.69,0-.35,.28-.65,.78-.65,.26,0,.51,.11,.69,.25l-.12,.16c-.16-.12-.33-.22-.58-.22-.37,0-.54,.22-.54,.44,0,.27,.28,.38,.57,.49,.38,.14,.79,.27,.79,.74,0,.36-.29,.68-.82,.68-.36,0-.67-.15-.89-.33l.13-.17Z"/>
  <path class="cls-3" d="M95.95,108.14c.21,.17,.42,.31,.77,.31,.38,0,.57-.22,.57-.48,0-.3-.31-.43-.59-.53-.37-.13-.77-.28-.77-.69,0-.35,.28-.65,.78-.65,.26,0,.51,.11,.69,.25l-.12,.16c-.16-.12-.33-.22-.58-.22-.37,0-.54,.22-.54,.44,0,.27,.28,.38,.57,.49,.38,.14,.79,.27,.79,.74,0,.36-.29,.68-.82,.68-.36,0-.67-.15-.89-.33l.13-.17Z"/>
</svg>