<?xml version="1.0" encoding="UTF-8"?>
<svg id="Capa_1" data-name="Capa 1" xmlns="http://www.w3.org/2000/svg" viewBox="0 0 170.08 113.39">
  <defs>
    <style>
      .cls-1, .cls-2 {
        fill: #ca7a0b;
      }

      .cls-3 {
        fill: #560b1a;
      }

      .cls-2 {
        fill-rule: evenodd;
      }
    </style>
  </defs>
  <polygon class="cls-2" points="52.59 50.98 51.83 50 51.15 51.35 51.46 51.53 50.89 51.89 51.16 52.49 50.47 52.27 50.42 52.96 50.75 53.51 50.8 54.17 49.81 53.75 50.31 54.72 48.69 54.41 49.26 55.05 49.79 55.73 49.84 56.01 48.77 55.79 48.99 56.45 48.14 56.39 48.63 57.11 49.37 57.6 49.4 58.12 47.78 57.44 47.92 58.21 48.36 59.06 48.72 59.66 48.99 60.16 48.85 60.51 47.06 60.07 47.78 60.71 48.03 61.37 46.68 61.18 46.13 61.28 46.57 61.72 47.09 62.08 47.94 62.3 48.33 62.52 48.28 62.88 46.74 62.69 47.01 63.1 46.54 63.46 47.01 63.68 47.61 64.01 48.08 64.36 45.64 64.39 46.3 65.05 46.68 65.68 47.67 65.79 47.97 65.85 48.22 66.29 46.35 66.12 46.93 66.7 45.44 66.7 46.1 67.41 46.85 67.69 47.29 67.99 45.25 68.13 45.44 68.87 45.8 69.53 46.27 69.8 45.06 69.97 45.39 70.57 46.13 70.99 46.65 71.76 47.26 72.06 48.63 72.33 49.57 72.47 50.75 72.28 51.08 72.17 49.1 70.99 48.8 70.66 48.66 69.23 48.14 68.27 48.99 67.74 50.01 67.5 49.76 66.56 49.92 66.07 50.86 65.63 49.84 64.36 49.24 63.7 50.64 63.32 50.36 62.47 50.36 61.83 50.97 61.56 50.06 60.9 50.36 60.24 51.27 59.39 52.37 58.89 51.46 57.82 51.3 57.33 52.26 56.8 52.26 56.09 51.82 55.26 52.04 54.63 52.78 54.44 53.3 53.29 53.63 52.71 52.89 51.86 52.59 50.98"/>
  <polygon class="cls-2" points="54.78 57.64 54.75 57.13 53.62 57.99 53.62 58.58 53.71 59.08 53.53 59.85 53.17 60.43 52.67 60.89 53.17 61.25 53.35 61.84 53.03 62.43 53.03 62.93 53.35 63.65 52.08 63.61 52.03 64.24 52.94 64.88 53.89 65.47 53.17 65.78 51.81 66.37 52.44 66.96 52.99 67.41 51.22 67.78 50.73 68.27 51.36 68.92 51.51 69.26 51.67 70.35 52.17 71.03 52.82 71.71 53.78 72.39 54.02 72.39 55.03 72.34 56.18 71.81 57.36 70.95 58.19 70.25 58.04 69.49 56.99 69.1 58.12 68.55 56.78 68.08 57.88 67.48 58.53 66.49 56.84 66.57 57.65 66.18 56.92 65.66 58.43 64.66 58.17 64.3 56.37 64.38 55.95 63.65 56.76 62.81 57.7 62.13 55.35 61.84 55.09 61.43 56.16 61.14 56.78 60.49 56.18 60.28 56.03 60.36 55.56 60.36 56.05 59.71 54.75 59.65 55.74 58.9 56.16 58.27 55.48 58.45 54.44 58.48 54.78 57.64"/>
  <polygon class="cls-2" points="52.87 74.95 52.79 72.2 51.08 72.17 51.08 74.95 52.87 74.95"/>
  <polygon class="cls-2" points="117.54 51.54 116.8 50.59 116.14 51.91 116.44 52.08 115.88 52.43 116.15 53.02 115.48 52.8 115.42 53.47 115.74 54.01 115.8 54.66 114.83 54.25 115.32 55.19 113.73 54.9 114.3 55.51 114.81 56.19 114.86 56.45 113.81 56.24 114.03 56.88 113.2 56.83 113.68 57.53 114.4 58.01 114.43 58.52 112.85 57.85 112.98 58.6 113.41 59.43 113.76 60.02 114.03 60.51 113.89 60.85 112.15 60.43 112.85 61.04 113.09 61.69 111.77 61.5 111.24 61.61 111.67 62.04 112.18 62.38 113.01 62.6 113.38 62.81 113.33 63.16 111.83 62.98 112.1 63.38 111.64 63.73 112.1 63.94 112.69 64.26 113.14 64.61 110.75 64.64 111.4 65.28 111.77 65.9 112.74 66.01 113.03 66.06 113.28 66.49 111.45 66.33 112.01 66.89 110.57 66.89 111.21 67.59 111.93 67.86 112.36 68.15 110.38 68.29 110.57 69.01 110.91 69.66 111.37 69.93 110.19 70.09 110.51 70.68 111.24 71.08 111.75 71.83 112.34 72.13 113.68 72.39 114.59 72.53 115.74 72.34 116.07 72.23 114.14 71.08 113.84 70.76 113.71 69.36 113.2 68.42 114.03 67.91 115.02 67.67 114.78 66.76 114.94 66.28 115.85 65.85 114.86 64.61 114.27 63.97 115.64 63.59 115.37 62.76 115.37 62.14 115.96 61.87 115.07 61.23 115.37 60.59 116.26 59.75 117.33 59.27 116.44 58.22 116.28 57.74 117.22 57.23 117.22 56.53 116.79 55.73 117.01 55.11 117.73 54.92 118.24 53.8 118.56 53.23 117.84 52.4 117.54 51.54"/>
  <polygon class="cls-2" points="119.68 58.05 119.65 57.55 118.55 58.39 118.55 58.96 118.64 59.45 118.46 60.2 118.11 60.78 117.62 61.22 118.11 61.57 118.28 62.15 117.97 62.72 117.97 63.21 118.28 63.92 117.04 63.87 117 64.49 117.89 65.11 118.81 65.69 118.11 66 116.78 66.57 117.4 67.15 117.93 67.59 116.2 67.95 115.73 68.42 116.34 69.06 116.49 69.39 116.64 70.46 117.13 71.12 117.77 71.78 118.71 72.45 118.94 72.45 119.93 72.4 121.05 71.89 122.2 71.05 123.02 70.36 122.86 69.62 121.84 69.24 122.94 68.7 121.64 68.24 122.71 67.66 123.35 66.69 121.69 66.77 122.48 66.38 121.77 65.87 123.24 64.91 122.99 64.55 121.23 64.63 120.82 63.91 121.61 63.1 122.53 62.43 120.24 62.15 119.98 61.75 121.03 61.47 121.64 60.83 121.05 60.63 120.9 60.7 120.44 60.7 120.93 60.07 119.65 60.01 120.62 59.27 121.03 58.66 120.36 58.84 119.34 58.87 119.68 58.05"/>
  <polygon class="cls-2" points="117.81 74.94 117.73 72.27 116.07 72.23 116.07 74.95 117.81 74.94"/>
  <polygon class="cls-2" points="87.28 7.99 85.24 5.36 83.43 8.99 84.26 9.46 82.7 10.42 83.44 12.04 81.6 11.45 81.45 13.3 82.34 14.78 82.48 16.55 79.83 15.44 81.16 18.02 76.8 17.21 78.35 18.91 79.75 20.75 79.9 21.49 77.02 20.9 77.61 22.67 75.33 22.53 76.65 24.44 78.65 25.77 78.72 27.17 74.37 25.33 74.73 27.39 75.92 29.68 76.88 31.31 77.61 32.64 77.24 33.59 72.45 32.41 74.37 34.11 75.03 35.88 71.41 35.37 69.94 35.66 71.12 36.84 72.52 37.8 74.81 38.39 75.84 38.98 75.69 39.94 71.56 39.43 72.3 40.53 71.04 41.49 72.3 42.08 73.92 42.97 75.18 43.93 68.61 44 70.38 45.77 71.41 47.47 74.07 47.76 74.88 47.91 75.55 49.09 70.53 48.65 72.08 50.2 68.09 50.2 69.86 52.12 71.86 52.86 73.04 53.67 67.58 54.04 68.09 56.03 69.05 57.8 70.31 58.54 67.06 58.98 67.94 60.61 69.94 61.71 71.34 63.78 72.96 64.59 76.65 65.33 79.16 65.7 82.34 65.18 83.22 64.89 77.91 61.71 77.1 60.83 76.73 56.99 75.33 54.41 77.61 53 80.34 52.34 79.68 49.83 80.12 48.5 82.63 47.32 79.9 43.93 78.28 42.16 82.04 41.12 81.3 38.84 81.3 37.14 82.93 36.4 80.49 34.63 81.3 32.86 83.74 30.57 86.69 29.24 84.26 26.36 83.81 25.03 86.4 23.63 86.4 21.71 85.21 19.5 85.8 17.8 87.8 17.28 89.2 14.18 90.09 12.64 88.09 10.35 87.28 7.99"/>
  <polygon class="cls-2" points="93.15 25.89 93.09 24.5 90.05 26.81 90.05 28.39 90.29 29.73 89.8 31.8 88.83 33.38 87.49 34.6 88.83 35.57 89.32 37.15 88.47 38.73 88.47 40.07 89.32 42.02 85.91 41.9 85.79 43.6 88.22 45.31 90.78 46.89 88.83 47.74 85.18 49.32 86.88 50.9 88.34 52.12 83.6 53.09 82.29 54.41 83.97 56.16 84.39 57.07 84.81 60.01 86.14 61.83 87.89 63.66 90.49 65.48 91.12 65.48 93.85 65.34 96.93 63.94 100.09 61.62 102.33 59.73 101.91 57.7 99.1 56.65 102.12 55.18 98.54 53.91 101.49 52.3 103.24 49.64 98.68 49.85 100.86 48.8 98.89 47.4 102.96 44.73 102.26 43.75 97.42 43.96 96.3 42 98.47 39.76 101 37.94 94.69 37.17 93.99 36.05 96.86 35.27 98.54 33.52 96.93 32.96 96.51 33.17 95.25 33.17 96.58 31.42 93.08 31.28 95.74 29.25 96.86 27.57 95.04 28.06 92.24 28.13 93.15 25.89"/>
  <polygon class="cls-2" points="88.03 73.34 87.81 64.99 83.22 64.89 83.22 73.34 88.03 73.34"/>
  <path class="cls-2" d="M139.14,78.63c-28.55-9.91-78.82-9.73-108.2,0,40.87-6.09,65.84-6.05,108.2,0"/>
  <g>
    <path class="cls-3" d="M41.21,102l2.15,5.92h-.35l-.95-2.6h-2.05l-.96,2.6h-.36l2.17-5.92h.34Zm.73,2.98l-.9-2.48-.9,2.48h1.8Z"/>
    <path class="cls-3" d="M44.16,102v5.92h-.33v-5.92h.33Z"/>
    <path class="cls-3" d="M45.04,104.29h.33v.09c.21-.2,.45-.3,.74-.3s.55,.1,.76,.31c.06,.06,.1,.12,.15,.18,.04-.06,.1-.13,.15-.18,.21-.21,.46-.31,.76-.31s.55,.1,.76,.31c.2,.2,.3,.45,.31,.73v2.8h-.33v-2.8h0c0-.19-.08-.36-.22-.49-.15-.15-.32-.22-.53-.22s-.38,.07-.53,.22c-.15,.15-.22,.33-.22,.54v2.75h-.33v-2.8h0c-.01-.19-.08-.36-.22-.49-.15-.15-.32-.22-.53-.22s-.38,.07-.52,.22c-.13,.13-.2,.28-.22,.46v2.83h-.33v-3.63Z"/>
    <path class="cls-3" d="M51.29,107.97c-.45,0-.82-.13-1.08-.4s-.41-.61-.41-1.02v-2.27h.33v2.24c0,.31,.11,.57,.33,.79,.22,.22,.49,.33,.82,.33,.31,0,.57-.11,.79-.33,.22-.22,.33-.48,.33-.79v-2.24h.33v2.27c0,.41-.15,.75-.41,1.02s-.62,.4-1.04,.4Z"/>
    <path class="cls-3" d="M53.69,105.81c0,.06-.01,.12-.01,.19,0,.46,.16,.86,.49,1.18,.33,.33,.72,.49,1.19,.49s.86-.16,1.19-.49c.06-.06,.11-.11,.16-.18l.35,.13c-.04,.07-.13,.17-.26,.3-.4,.4-.88,.6-1.44,.6s-1.04-.2-1.43-.6c-.4-.4-.6-.88-.6-1.43s.2-1.04,.6-1.44c.4-.4,.88-.59,1.43-.59s1.04,.2,1.44,.59c.35,.35,.52,.77,.52,1.25h-3.63Zm.06-.34h3.19c-.08-.25-.21-.47-.4-.66-.33-.33-.72-.49-1.19-.49s-.86,.16-1.19,.49c-.2,.2-.33,.42-.41,.66Z"/>
    <path class="cls-3" d="M59.17,104.58c-.24,.04-.47,.19-.7,.45-.23,.26-.34,.53-.34,.8v2.08h-.33v-3.63h.33v.79c.14-.37,.43-.64,.86-.82l.18,.32Z"/>
    <path class="cls-3" d="M61.3,104.67h-1.88v-.33h2.45l-1.88,3.24h2.02v.33h-2.59l1.88-3.25Z"/>
    <path class="cls-3" d="M64.61,103.96c.56,0,1.04,.2,1.44,.59,.4,.4,.59,.88,.59,1.44s-.2,1.03-.59,1.43c-.39,.4-.87,.6-1.44,.6s-1.04-.2-1.43-.6c-.4-.4-.6-.88-.6-1.43s.2-1.04,.6-1.44c.4-.4,.88-.59,1.43-.59Zm-1.19,.84c-.33,.33-.49,.73-.49,1.19s.16,.86,.49,1.18c.33,.33,.72,.49,1.19,.49s.86-.16,1.19-.49c.33-.33,.49-.72,.49-1.18s-.16-.86-.49-1.19c-.33-.33-.72-.49-1.19-.49s-.86,.16-1.19,.49Z"/>
    <path class="cls-3" d="M68.29,105.97c-.28-.15-.48-.28-.58-.39-.17-.17-.26-.38-.26-.62s.08-.45,.26-.62c.17-.17,.38-.26,.62-.26s.44,.08,.6,.24c.15,.15,.23,.33,.23,.53v.02l-.29,.12c-.02-.19-.08-.33-.18-.42-.09-.09-.21-.14-.36-.14s-.27,.05-.38,.16-.16,.23-.16,.38,.05,.27,.16,.38c.06,.06,.19,.16,.39,.28,.32,.17,.54,.32,.67,.46,.21,.21,.31,.46,.31,.76s-.1,.56-.31,.77c-.21,.21-.46,.32-.76,.32s-.55-.11-.76-.32c-.21-.21-.31-.44-.31-.69l.33-.08c0,.22,.07,.4,.22,.54s.32,.22,.52,.22,.38-.07,.53-.22c.15-.15,.22-.32,.22-.53s-.07-.38-.22-.52c-.08-.08-.24-.19-.48-.35Z"/>
    <path class="cls-3" d="M75.17,106.7s-.06-.03-.09-.05c-.12-.07-.26-.19-.44-.38-.12-.11-.2-.18-.25-.21-.05-.03-.11-.04-.16-.04-.03,0-.06,0-.09,0-.09,.03-.16,.08-.2,.16-.03,.06-.05,.11-.05,.16,0,.03,0,.06,.01,.09,.02,.09,.07,.15,.15,.19,.05,.03,.11,.04,.19,.04,.04,0,.09,0,.15-.01l-.03,.3c-.06,.02-.12,.03-.18,.03-.1,0-.19-.03-.29-.08-.15-.08-.25-.21-.29-.39-.02-.06-.02-.12-.02-.18,0-.11,.03-.21,.09-.32,.09-.16,.23-.26,.4-.3,.06-.02,.12-.03,.18-.03,.11,0,.21,.03,.31,.09,.1,.05,.23,.16,.39,.33,.14,.13,.25,.21,.31,.25,.07,.04,.15,.06,.23,.06,.04,0,.09,0,.13-.02,.13-.03,.23-.11,.29-.23,.04-.07,.06-.15,.06-.23,0-.04,0-.08-.02-.13-.03-.13-.11-.22-.22-.29-.07-.04-.15-.06-.23-.06-.06,0-.13,0-.2,.03v-.33c.07-.02,.13-.03,.2-.03,.13,0,.26,.04,.39,.11,.19,.11,.32,.27,.38,.48,.02,.07,.03,.15,.03,.22,0,.13-.03,.26-.1,.39-.11,.19-.27,.32-.49,.38-.06,.02-.13,.03-.18,.03-.08,.26-.23,.5-.44,.72-.34,.35-.76,.52-1.24,.52s-.9-.17-1.24-.51-.51-.76-.51-1.24,.17-.9,.51-1.26c.23-.25,.53-.43,.9-.56-.18-.07-.36-.21-.55-.41-.19-.2-.28-.47-.28-.82s.12-.63,.37-.88c.24-.25,.54-.37,.89-.37s.64,.12,.89,.37c.14,.13,.23,.28,.28,.44l-.3,.12c-.04-.12-.12-.23-.22-.33-.18-.18-.4-.27-.65-.27s-.47,.09-.65,.27c-.18,.18-.27,.4-.27,.65s.09,.47,.26,.66c.17,.19,.33,.31,.48,.36,.15,.06,.33,.08,.55,.09v.31h-.26c-.54,.11-.95,.31-1.22,.6-.27,.3-.41,.64-.41,1.03s.14,.73,.42,1.01,.61,.42,1.01,.42,.73-.14,1-.42c.16-.16,.28-.34,.35-.54Z"/>
    <path class="cls-3" d="M82.19,102v.33h-2.62v2.46h2.62v.33h-2.62v2.46h2.62v.33h-2.96v-5.92h2.96Z"/>
    <path class="cls-3" d="M86.07,104.29l-1.62,3.63h-.18l-1.61-3.63h.39l1.3,3.03,1.32-3.03h.39Z"/>
    <path class="cls-3" d="M86.65,105.81c0,.06-.01,.12-.01,.19,0,.46,.16,.86,.49,1.18,.33,.33,.72,.49,1.19,.49s.86-.16,1.19-.49c.06-.06,.11-.11,.16-.18l.35,.13c-.04,.07-.13,.17-.26,.3-.4,.4-.88,.6-1.44,.6s-1.04-.2-1.43-.6c-.4-.4-.6-.88-.6-1.43s.2-1.04,.6-1.44c.4-.4,.88-.59,1.43-.59s1.04,.2,1.44,.59c.35,.35,.52,.77,.52,1.25h-3.63Zm.06-.34h3.19c-.08-.25-.21-.47-.4-.66-.33-.33-.72-.49-1.19-.49s-.86,.16-1.19,.49c-.2,.2-.33,.42-.41,.66Z"/>
    <path class="cls-3" d="M91.17,105.1v2.82h-.33v-3.63h.33v.23c.3-.3,.65-.45,1.05-.45,.43,0,.78,.13,1.05,.4,.27,.27,.41,.61,.41,1.01v2.43h-.33v-2.4c0-.31-.11-.57-.33-.79s-.49-.33-.8-.33-.57,.11-.79,.32c-.12,.12-.21,.24-.26,.37Z"/>
    <path class="cls-3" d="M94.98,104.29v-1.54h.33v1.54h.74v.33h-.74v3.3h-.33v-3.3h-.74v-.33h.74Z"/>
    <path class="cls-3" d="M98.51,103.96c.56,0,1.04,.2,1.44,.59,.4,.4,.59,.88,.59,1.44s-.2,1.03-.59,1.43c-.39,.4-.87,.6-1.44,.6s-1.04-.2-1.43-.6c-.4-.4-.6-.88-.6-1.43s.2-1.04,.6-1.44c.4-.4,.88-.59,1.43-.59Zm-1.19,.84c-.33,.33-.49,.73-.49,1.19s.16,.86,.49,1.18c.33,.33,.72,.49,1.19,.49s.86-.16,1.19-.49c.33-.33,.49-.72,.49-1.18s-.16-.86-.49-1.19c-.33-.33-.72-.49-1.19-.49s-.86,.16-1.19,.49Z"/>
    <path class="cls-3" d="M102.2,105.97c-.28-.15-.48-.28-.58-.39-.17-.17-.26-.38-.26-.62s.08-.45,.26-.62c.17-.17,.38-.26,.62-.26s.44,.08,.6,.24c.15,.15,.23,.33,.23,.53v.02l-.29,.12c-.02-.19-.08-.33-.18-.42-.09-.09-.21-.14-.36-.14s-.27,.05-.38,.16-.16,.23-.16,.38,.05,.27,.16,.38c.06,.06,.19,.16,.39,.28,.32,.17,.54,.32,.67,.46,.21,.21,.31,.46,.31,.76s-.1,.56-.31,.77c-.21,.21-.46,.32-.76,.32s-.55-.11-.76-.32c-.21-.21-.31-.44-.31-.69l.33-.08c0,.22,.07,.4,.22,.54s.32,.22,.52,.22,.38-.07,.53-.22c.15-.15,.22-.32,.22-.53s-.07-.38-.22-.52c-.08-.08-.24-.19-.48-.35Z"/>
    <path class="cls-3" d="M107.73,104.64c-.42-.14-.75-.33-1-.57-.24-.24-.37-.54-.37-.89s.12-.63,.37-.88c.24-.25,.54-.37,.89-.37s.64,.12,.89,.37c.13,.13,.23,.28,.28,.44l-.3,.12c-.04-.12-.12-.23-.22-.33-.18-.18-.4-.27-.65-.27s-.47,.09-.65,.27c-.18,.18-.27,.4-.27,.65s.09,.47,.27,.65c.17,.16,.4,.31,.69,.45,.47,.15,.87,.39,1.2,.72,.34,.34,.51,.75,.51,1.23s-.17,.9-.51,1.24c-.34,.34-.75,.51-1.24,.51s-.9-.17-1.24-.52c-.28-.27-.44-.59-.49-.95l.31-.11c.03,.32,.17,.6,.41,.84,.28,.28,.62,.42,1.01,.42s.73-.14,1.01-.42,.42-.62,.42-1.01-.14-.72-.42-1c-.25-.25-.54-.44-.9-.59Z"/>
    <path class="cls-3" d="M111.93,103.96c.56,0,1.04,.2,1.44,.59,.4,.4,.59,.88,.59,1.44s-.2,1.03-.59,1.43c-.39,.4-.87,.6-1.44,.6s-1.04-.2-1.43-.6c-.4-.4-.6-.88-.6-1.43s.2-1.04,.6-1.44c.4-.4,.88-.59,1.43-.59Zm-1.19,.84c-.33,.33-.49,.73-.49,1.19s.16,.86,.49,1.18c.33,.33,.72,.49,1.19,.49s.86-.16,1.19-.49c.33-.33,.49-.72,.49-1.18s-.16-.86-.49-1.19c-.33-.33-.72-.49-1.19-.49s-.86,.16-1.19,.49Z"/>
    <path class="cls-3" d="M117.82,107.05l.35,.13c-.06,.09-.14,.17-.22,.25-.4,.4-.88,.6-1.44,.6s-1.04-.2-1.43-.6c-.4-.4-.6-.88-.6-1.44s.2-1.04,.6-1.44c.4-.4,.88-.59,1.43-.59s1.04,.2,1.44,.59c.08,.08,.15,.17,.22,.25l-.35,.13s-.07-.09-.12-.13c-.33-.33-.72-.49-1.19-.49s-.85,.16-1.18,.49c-.33,.33-.49,.72-.49,1.19s.16,.86,.49,1.19c.33,.33,.72,.49,1.18,.49s.86-.16,1.19-.49c.04-.04,.08-.08,.12-.13Z"/>
    <path class="cls-3" d="M119.28,103.1c.07,.06,.1,.14,.1,.23,0,.09-.03,.17-.1,.24-.07,.06-.14,.1-.23,.1s-.17-.03-.24-.1c-.07-.06-.1-.14-.1-.24,0-.09,.03-.17,.1-.23,.07-.06,.15-.1,.24-.1s.17,.03,.23,.1Zm-.07,1.19v3.63h-.33v-3.63h.33Z"/>
    <path class="cls-3" d="M124.03,107.92h-.33v-.74c-.06,.09-.13,.17-.21,.25-.4,.4-.88,.6-1.44,.6s-1.03-.2-1.43-.6c-.4-.4-.6-.88-.6-1.43s.2-1.04,.6-1.44c.4-.4,.88-.59,1.43-.59s1.04,.2,1.44,.59c.07,.08,.15,.16,.21,.25v-.51h.33v3.63Zm-.33-1.6v-.66c-.06-.33-.21-.61-.46-.86-.33-.33-.73-.49-1.19-.49s-.86,.16-1.19,.49c-.33,.33-.49,.73-.49,1.19s.16,.86,.49,1.18c.33,.33,.72,.49,1.19,.49s.86-.16,1.19-.49c.25-.25,.4-.53,.46-.85Z"/>
    <path class="cls-3" d="M125.2,102v5.92h-.33v-5.92h.33Z"/>
    <path class="cls-3" d="M126.24,105.81c0,.06-.01,.12-.01,.19,0,.46,.16,.86,.49,1.18,.33,.33,.72,.49,1.19,.49s.86-.16,1.19-.49c.06-.06,.11-.11,.16-.18l.35,.13c-.04,.07-.13,.17-.26,.3-.4,.4-.88,.6-1.44,.6s-1.04-.2-1.43-.6c-.4-.4-.6-.88-.6-1.43s.2-1.04,.6-1.44c.4-.4,.88-.59,1.43-.59s1.04,.2,1.44,.59c.35,.35,.52,.77,.52,1.25h-3.63Zm.06-.34h3.19c-.08-.25-.21-.47-.4-.66-.33-.33-.72-.49-1.19-.49s-.86,.16-1.19,.49c-.2,.2-.33,.42-.41,.66Z"/>
    <path class="cls-3" d="M131.38,105.97c-.28-.15-.48-.28-.58-.39-.17-.17-.26-.38-.26-.62s.08-.45,.26-.62c.17-.17,.38-.26,.62-.26s.44,.08,.6,.24c.15,.15,.23,.33,.23,.53v.02l-.29,.12c-.02-.19-.08-.33-.18-.42-.09-.09-.21-.14-.36-.14s-.27,.05-.38,.16-.16,.23-.16,.38,.05,.27,.16,.38c.06,.06,.19,.16,.39,.28,.32,.17,.54,.32,.67,.46,.21,.21,.31,.46,.31,.76s-.1,.56-.31,.77c-.21,.21-.46,.32-.76,.32s-.55-.11-.76-.32c-.21-.21-.31-.44-.31-.69l.33-.08c0,.22,.07,.4,.22,.54s.32,.22,.52,.22,.38-.07,.53-.22c.15-.15,.22-.32,.22-.53s-.07-.38-.22-.52c-.08-.08-.24-.19-.48-.35Z"/>
  </g>
  <g>
    <path class="cls-1" d="M44.86,98.31h-4.94c-2.62,0-4.47-1.5-4.47-4.25v-12.97h1.72v13.28c0,.6,.29,1.19,.85,1.77,.36,.36,.98,.54,1.9,.54h4.94v1.63Z"/>
    <path class="cls-1" d="M56.54,96.7c-1.32,1.32-2.91,1.97-4.74,1.9-1.77-.04-3.29-.72-4.52-2.01-1.23-1.3-1.83-2.84-1.83-4.63s.67-3.47,1.99-4.79c1.32-1.34,2.91-1.99,4.74-1.92,1.77,.07,3.29,.74,4.52,2.06,1.23,1.3,1.86,2.84,1.86,4.63s-.67,3.42-2.01,4.76Zm-4.72,.22c1.41,.07,2.59-.4,3.58-1.45,1.01-1.05,1.48-2.26,1.45-3.67-.04-1.34-.54-2.48-1.45-3.44-.92-.96-2.01-1.43-3.31-1.43-1.36-.02-2.5,.47-3.47,1.43s-1.43,2.1-1.45,3.46c-.02,1.34,.4,2.53,1.32,3.53,.92,1.01,2.01,1.52,3.33,1.56Z"/>
    <path class="cls-1" d="M62.04,94.95c0,.42,.25,.87,.72,1.34,.47,.47,.98,.69,1.52,.67,.72-.02,1.27-.22,1.7-.65,.38-.38,.56-.9,.58-1.52,.02-1.1-.6-1.83-1.86-2.24l-1.5-.47c-1.56-.49-2.39-1.56-2.46-3.2-.04-.98,.29-1.83,.98-2.53,.72-.69,1.56-1.07,2.57-1.12,.87-.04,1.68,.25,2.41,.85,.76,.6,1.16,1.34,1.23,2.24l.02,.38h-1.79v-.29c0-.9-.89-1.5-1.88-1.5-.96,.02-1.77,.76-1.79,1.74-.07,.92,.49,1.56,1.63,1.95l1.48,.49c1.7,.58,2.62,1.72,2.73,3.4,.09,1.14-.31,2.15-1.21,3-.9,.83-1.92,1.21-3.09,1.14-1.07-.07-1.97-.51-2.71-1.3-.71-.78-1.07-1.72-1.07-2.82h1.77v.43Z"/>
    <path class="cls-1" d="M82.97,98.31h-1.79v-17.19h5.52c1.7,0,3.11,.51,4.25,1.54,1.14,1.01,1.68,2.3,1.65,3.85-.02,1.41-.56,2.57-1.61,3.53-1.05,.96-2.3,1.43-3.76,1.43h-4.27v6.84Zm3.94-8.41c1.1,0,2.03-.34,2.8-1.03,.83-.72,1.21-1.63,1.14-2.77-.05-.98-.47-1.79-1.27-2.41-.78-.65-1.72-.96-2.77-.96h-3.82v7.18h3.94Z"/>
    <path class="cls-1" d="M95.27,84.04h-1.68v-2.97h1.68v2.97Zm0,14.27h-1.68v-12.74h1.68v12.74Z"/>
    <path class="cls-1" d="M108.4,98.31h-1.72v-7.45c0-1.07-.4-1.99-1.18-2.77s-1.68-1.16-2.73-1.16-1.99,.38-2.77,1.16-1.16,1.7-1.16,2.77v7.45h-1.72v-7.27c0-1.65,.54-3.02,1.61-4.11,1.07-1.1,2.42-1.66,4.05-1.66s2.95,.56,4.02,1.66c1.07,1.1,1.61,2.46,1.61,4.11v7.27Z"/>
    <path class="cls-1" d="M121.28,96.7c-1.32,1.32-2.91,1.97-4.74,1.9-1.77-.04-3.29-.72-4.52-2.01-1.23-1.3-1.83-2.84-1.83-4.63s.67-3.47,1.99-4.79c1.32-1.34,2.91-1.99,4.74-1.92,1.77,.07,3.29,.74,4.52,2.06,1.23,1.3,1.86,2.84,1.86,4.63s-.67,3.42-2.01,4.76Zm-4.72,.22c1.41,.07,2.59-.4,3.58-1.45,1.01-1.05,1.48-2.26,1.45-3.67-.04-1.34-.54-2.48-1.45-3.44-.92-.96-2.01-1.43-3.31-1.43-1.36-.02-2.5,.47-3.47,1.43s-1.43,2.1-1.45,3.46c-.02,1.34,.4,2.53,1.32,3.53,.92,1.01,2.01,1.52,3.33,1.56Z"/>
    <path class="cls-1" d="M126.78,94.95c0,.42,.25,.87,.72,1.34,.47,.47,.98,.69,1.52,.67,.72-.02,1.27-.22,1.7-.65,.38-.38,.56-.9,.58-1.52,.02-1.1-.6-1.83-1.86-2.24l-1.5-.47c-1.56-.49-2.39-1.56-2.46-3.2-.04-.98,.29-1.83,.98-2.53,.72-.69,1.56-1.07,2.57-1.12,.87-.04,1.68,.25,2.41,.85,.76,.6,1.16,1.34,1.23,2.24l.02,.38h-1.79v-.29c0-.9-.89-1.5-1.88-1.5-.96,.02-1.77,.76-1.79,1.74-.07,.92,.49,1.56,1.63,1.95l1.48,.49c1.7,.58,2.62,1.72,2.73,3.4,.09,1.14-.31,2.15-1.21,3-.9,.83-1.92,1.21-3.09,1.14-1.07-.07-1.97-.51-2.7-1.3-.72-.78-1.07-1.72-1.07-2.82h1.77v.43Z"/>
  </g>
</svg>