<?xml version="1.0" encoding="UTF-8"?>
<svg id="Capa_1" data-name="Capa 1" xmlns="http://www.w3.org/2000/svg" viewBox="0 0 170.08 113.39">
  <defs>
    <style>
      .cls-1 {
        fill: #0c3e4d;
      }
    </style>
  </defs>
  <g>
    <g>
      <path class="cls-1" d="M67.67,57.95c2.73-.49,5.03-.71,6.91-.65,1.88,.06,3.29,.36,4.25,.89,.93,.53,1.49,1.21,1.7,2.04,.21,.83,.11,1.7-.3,2.6-.41,.9-1.09,1.79-2.05,2.66-.96,.87-2.13,1.6-3.52,2.19-1.63,.7-3.26,1.16-4.9,1.38-1.64,.22-3.35,.25-5.14,.11-.11-.02-.24-.07-.38-.16-.14-.09-.26-.18-.36-.28s-.15-.18-.16-.25c0-.07,.08-.11,.28-.11,.58,0,1.24-.04,1.99-.12,.75-.08,1.54-.21,2.37-.38,.83-.18,1.67-.4,2.53-.67,.85-.27,1.67-.59,2.46-.96,.51-.24,1.04-.55,1.58-.93,.54-.38,1.05-.81,1.53-1.27,.48-.46,.91-.94,1.31-1.44,.39-.49,.69-.98,.9-1.46,.21-.48,.3-.93,.29-1.34-.02-.42-.18-.77-.5-1.05-.4-.37-.97-.61-1.72-.74-.75-.13-1.61-.17-2.56-.12-.96,.05-1.99,.18-3.1,.4-1.11,.22-2.22,.49-3.32,.83-1.1,.34-2.17,.72-3.21,1.16-1.04,.44-1.97,.9-2.79,1.39-.82,.49-1.51,.99-2.06,1.52-.55,.53-.89,1.05-1.02,1.58-.02,.06-.08,.1-.18,.1s-.22-.02-.36-.07c-.14-.05-.28-.12-.42-.2-.14-.09-.26-.19-.34-.3-.35-.46-.46-.92-.31-1.37,.14-.45,.46-.88,.93-1.31,.48-.42,1.1-.82,1.86-1.2,.76-.37,1.58-.72,2.46-1.03,.88-.31,1.78-.59,2.71-.83,.93-.24,1.81-.44,2.66-.6Z"/>
      <path class="cls-1" d="M83.02,66.21c.32-.29,.56-.37,.72-.26,.16,.11,.1,.34-.19,.69-.19,.24-.42,.49-.69,.75-.27,.26-.55,.51-.83,.74-.28,.23-.54,.43-.78,.6-.24,.17-.42,.27-.55,.3-.18,.02-.38-.02-.61-.1-.23-.08-.46-.2-.67-.36-.22-.16-.39-.36-.53-.59-.14-.23-.19-.49-.16-.78,.03-.27,.11-.57,.23-.9,.12-.33,.26-.63,.42-.9,.16-.27,.32-.49,.48-.67,.16-.18,.3-.26,.43-.24,.11,.03,.23,.08,.36,.13,.13,.06,.24,.12,.35,.19,.1,.07,.19,.16,.25,.25,.06,.1,.09,.21,.07,.34-.02,.13-.09,.32-.22,.56-.13,.25-.26,.5-.38,.75-.13,.26-.24,.49-.34,.69-.1,.21-.11,.34-.05,.38,.05,.03,.16,.01,.35-.06,.18-.07,.4-.18,.65-.32,.25-.14,.52-.32,.81-.53,.3-.21,.59-.44,.87-.69Zm-.91-2.35c-.1,0-.22-.02-.36-.07-.14-.05-.28-.11-.4-.19-.12-.08-.22-.17-.29-.28-.07-.1-.1-.21-.08-.32,.02-.1,.06-.22,.13-.38,.07-.16,.16-.32,.25-.47,.1-.15,.2-.28,.32-.4,.12-.11,.24-.18,.35-.22,.11-.02,.25,0,.41,.06,.16,.06,.31,.14,.46,.24,.14,.1,.26,.22,.35,.34,.09,.12,.12,.22,.11,.3,0,.1-.05,.22-.14,.37-.1,.15-.21,.3-.34,.44-.13,.14-.26,.27-.41,.38-.14,.11-.26,.18-.36,.19Z"/>
      <path class="cls-1" d="M83.88,65.14c.11-.06,.26-.1,.44-.1s.36,.02,.54,.07c.18,.05,.33,.12,.46,.2,.13,.09,.18,.19,.17,.3,0,.14-.09,.33-.28,.55-.18,.22-.38,.44-.59,.66-.21,.22-.39,.4-.55,.56-.16,.16-.22,.24-.17,.24s.15-.06,.31-.19c.16-.13,.35-.29,.56-.48,.22-.19,.45-.4,.69-.63,.25-.23,.48-.45,.71-.66,.22-.21,.42-.38,.6-.53,.18-.14,.3-.23,.36-.26,.14-.05,.3-.05,.46-.01,.16,.04,.31,.1,.46,.17,.14,.07,.26,.16,.36,.26,.1,.1,.15,.2,.17,.3,.02,.21-.11,.49-.38,.85-.27,.36-.6,.79-.98,1.31,.46-.48,.9-.92,1.32-1.32,.35-.34,.68-.66,.99-.97,.31-.31,.53-.51,.66-.59,.11-.08,.26-.1,.44-.07,.18,.03,.36,.1,.53,.2,.17,.1,.31,.24,.42,.4,.11,.16,.16,.32,.14,.48-.02,.08-.09,.21-.22,.38-.13,.18-.28,.36-.47,.56-.18,.2-.37,.41-.56,.62s-.36,.41-.5,.59c-.14,.18-.24,.32-.3,.42-.06,.1-.04,.15,.06,.13,.06-.02,.25-.13,.55-.35,.3-.22,.63-.46,.99-.72s.71-.51,1.04-.74c.34-.23,.57-.39,.69-.47,.27-.14,.47-.2,.59-.17,.12,.03,.07,.18-.16,.46-.13,.14-.32,.36-.56,.65-.25,.29-.52,.59-.83,.9s-.61,.6-.91,.85c-.3,.26-.58,.42-.81,.48-.24,.08-.49,.1-.75,.05-.26-.05-.5-.13-.72-.24-.22-.11-.4-.25-.55-.41-.15-.16-.24-.32-.25-.48,0-.08,.03-.19,.08-.32,.06-.14,.13-.28,.22-.42,.09-.14,.17-.28,.25-.4,.08-.12,.14-.2,.17-.23-.16,.16-.35,.36-.58,.59-.22,.23-.45,.46-.68,.67-.23,.22-.46,.4-.67,.56-.22,.16-.39,.25-.52,.26-.21,.05-.42,0-.65-.16-.22-.15-.34-.32-.34-.49,0-.06,.04-.18,.12-.36,.08-.18,.17-.36,.28-.55,.1-.19,.2-.37,.3-.55,.1-.18,.15-.3,.17-.38-.51,.46-.97,.87-1.39,1.22-.37,.32-.71,.6-1.04,.85-.33,.25-.54,.39-.63,.42-.08,.03-.19,.03-.32,0-.14-.03-.27-.08-.4-.16-.13-.07-.24-.16-.35-.26s-.16-.21-.18-.32c-.03-.11,.04-.34,.2-.67,.17-.34,.37-.68,.6-1.04,.23-.36,.46-.69,.69-.99,.23-.3,.4-.48,.49-.53Z"/>
      <path class="cls-1" d="M97.06,66.21c.32-.29,.56-.37,.72-.26,.16,.11,.1,.34-.19,.69-.19,.24-.42,.49-.69,.75-.27,.26-.55,.51-.83,.74-.28,.23-.54,.43-.78,.6-.24,.17-.42,.27-.55,.3-.18,.02-.38-.02-.61-.1-.23-.08-.46-.2-.67-.36-.22-.16-.39-.36-.53-.59-.14-.23-.19-.49-.16-.78,.03-.27,.11-.57,.23-.9,.12-.33,.26-.63,.42-.9,.16-.27,.32-.49,.48-.67,.16-.18,.3-.26,.43-.24,.11,.03,.23,.08,.36,.13,.13,.06,.24,.12,.35,.19,.1,.07,.19,.16,.25,.25,.06,.1,.09,.21,.07,.34-.02,.13-.09,.32-.22,.56-.13,.25-.26,.5-.38,.75-.13,.26-.24,.49-.34,.69-.1,.21-.11,.34-.05,.38,.05,.03,.16,.01,.35-.06,.18-.07,.4-.18,.65-.32,.25-.14,.52-.32,.81-.53,.3-.21,.59-.44,.87-.69Zm-.91-2.35c-.1,0-.22-.02-.36-.07s-.28-.11-.4-.19c-.12-.08-.22-.17-.29-.28-.07-.1-.1-.21-.08-.32,.02-.1,.06-.22,.13-.38,.07-.16,.16-.32,.25-.47,.1-.15,.2-.28,.32-.4,.12-.11,.24-.18,.35-.22,.11-.02,.25,0,.41,.06,.16,.06,.31,.14,.46,.24,.14,.1,.26,.22,.35,.34,.09,.12,.12,.22,.11,.3,0,.1-.05,.22-.14,.37-.1,.15-.21,.3-.34,.44-.13,.14-.26,.27-.41,.38-.14,.11-.26,.18-.36,.19Z"/>
      <path class="cls-1" d="M102.9,66.24c.3-.22,.47-.3,.5-.22,.03,.08-.02,.23-.17,.46-.14,.24-.35,.52-.61,.84-.26,.32-.56,.62-.87,.91-.32,.29-.66,.54-1.01,.77-.35,.22-.68,.36-.98,.41-.21,.03-.48-.02-.81-.16-.34-.14-.66-.33-.97-.59-.31-.26-.57-.55-.78-.89-.21-.34-.28-.68-.22-1.03,.05-.29,.17-.56,.36-.83s.41-.49,.65-.69c.24-.2,.48-.36,.73-.48,.25-.12,.46-.18,.63-.18,.14,0,.31,.04,.49,.12,.18,.08,.35,.18,.5,.31,.15,.13,.27,.28,.36,.44,.09,.17,.12,.34,.11,.51-.03,.18-.15,.38-.36,.61-.21,.23-.44,.46-.69,.68-.29,.26-.62,.52-1.01,.79,.35,.1,.91-.02,1.69-.34,.77-.32,1.59-.81,2.46-1.46Zm-2.83-.46c-.06-.05-.21-.01-.44,.11-.23,.12-.46,.28-.68,.47-.22,.19-.41,.4-.56,.63-.15,.23-.19,.43-.11,.59,.1-.05,.25-.16,.47-.34,.22-.18,.43-.37,.65-.58,.22-.21,.4-.4,.54-.56,.14-.17,.19-.28,.14-.32Z"/>
      <path class="cls-1" d="M103.48,65.16c.1-.1,.21-.13,.35-.11,.14,.02,.26,.08,.38,.17,.12,.09,.23,.2,.32,.34,.1,.14,.15,.26,.17,.37,.03,.11,.03,.25-.01,.42s-.1,.34-.17,.5c-.07,.17-.14,.32-.2,.46-.06,.14-.1,.24-.12,.3,.08-.05,.26-.21,.55-.49,.29-.28,.59-.58,.91-.9,.32-.32,.62-.61,.9-.86,.28-.26,.46-.4,.54-.43,.06-.03,.18-.04,.34-.01,.16,.02,.32,.07,.48,.14,.16,.07,.3,.16,.43,.26,.13,.1,.21,.22,.24,.35,.03,.13-.03,.34-.18,.62-.15,.29-.32,.59-.49,.9s-.33,.59-.47,.84c-.14,.25-.16,.4-.08,.44,.08,.05,.26-.02,.53-.19,.27-.18,.57-.39,.9-.65,.33-.26,.63-.52,.92-.78,.29-.26,.49-.45,.62-.56,.13-.11,.24-.17,.32-.18,.09,0,.16,.02,.2,.08,.05,.06,.07,.14,.06,.24,0,.1-.04,.2-.11,.31-.08,.11-.25,.31-.5,.59-.26,.28-.54,.57-.85,.89s-.61,.6-.9,.85c-.29,.26-.51,.41-.67,.46-.24,.1-.51,.12-.8,.08-.3-.04-.58-.11-.85-.22-.27-.1-.5-.24-.68-.41-.18-.17-.28-.34-.3-.52-.02-.06,.01-.19,.08-.38,.07-.19,.16-.38,.25-.57,.1-.19,.19-.37,.28-.53,.09-.16,.13-.25,.13-.26-.46,.5-.84,.89-1.14,1.17-.3,.29-.59,.55-.89,.79-.3,.24-.51,.36-.63,.36-.21,0-.42-.07-.65-.2-.22-.14-.36-.34-.41-.61-.02-.11,0-.31,.06-.59,.06-.28,.14-.58,.24-.89,.1-.31,.23-.61,.38-.91,.15-.3,.32-.52,.52-.68Z"/>
      <path class="cls-1" d="M110.85,63.51c.08-.08,.58-.14,1.51-.17,.26-.22,.49-.41,.72-.55,.22-.14,.44-.22,.65-.22,.19,0,.4,.08,.62,.23,.22,.15,.4,.32,.53,.52,.81,0,1.68,0,2.61-.02,.93-.02,1.87-.04,2.83-.07,1.21-.03,2.4-.08,3.57-.14,1.17-.06,2.22-.13,3.16-.19,.94-.06,1.72-.12,2.35-.17s1.01-.07,1.15-.07c.27,0,.57,.04,.9,.13,.33,.09,.63,.19,.9,.31,.27,.12,.48,.25,.63,.38,.15,.14,.18,.26,.08,.37-.06,.06-.38,.1-.93,.11-.56,0-1.3,0-2.22,0-.92,0-1.98-.02-3.19-.04-1.21-.02-2.48-.03-3.83-.04-1.35,0-2.73,0-4.13,0-1.41,0-2.77,.04-4.1,.11-.18,.13-.4,.32-.67,.58-.27,.26-.55,.54-.84,.84-.29,.3-.57,.62-.85,.96-.28,.34-.52,.65-.71,.93-.19,.29-.32,.54-.4,.75-.07,.22-.05,.36,.06,.44,.1,.06,.32,0,.67-.22,.35-.21,.73-.46,1.14-.74s.8-.57,1.17-.85c.37-.28,.63-.46,.78-.54,.29-.19,.49-.23,.62-.12,.13,.11,.12,.26-.02,.46-.08,.1-.27,.3-.58,.61s-.66,.63-1.07,.96c-.41,.33-.83,.62-1.27,.87-.44,.26-.82,.38-1.14,.38-.66,0-1.08-.18-1.28-.54s-.26-.81-.18-1.34c.08-.53,.27-1.11,.57-1.72,.3-.61,.65-1.17,1.03-1.66-.75-.16-1.04-.34-.86-.53Z"/>
      <path class="cls-1" d="M121.87,66.17c.22-.21,.4-.26,.54-.16,.14,.1,.09,.29-.13,.56-.13,.14-.3,.36-.53,.63-.22,.28-.46,.56-.69,.85s-.48,.54-.72,.77c-.24,.22-.44,.35-.6,.38-.21,.05-.5,.02-.87-.1-.38-.11-.7-.28-.97-.5-.21,.14-.41,.28-.6,.42-.19,.14-.38,.24-.57,.3-.18,.03-.39,.02-.65-.02-.26-.05-.51-.14-.75-.28-.25-.14-.47-.3-.66-.49-.19-.19-.32-.42-.38-.67-.06-.27,0-.59,.2-.97,.2-.38,.44-.73,.73-1.07s.59-.63,.9-.87c.31-.25,.55-.38,.73-.4,.11-.02,.25,0,.42,.02,.17,.03,.34,.09,.5,.17,.17,.08,.32,.18,.46,.29,.14,.11,.23,.24,.28,.38,.22-.19,.42-.28,.58-.26,.13,.03,.26,.07,.41,.12s.28,.1,.4,.17c.12,.06,.22,.14,.3,.24,.08,.1,.11,.2,.1,.31,0,.13-.06,.3-.19,.51-.13,.22-.26,.44-.41,.66-.14,.22-.26,.42-.36,.6-.1,.18-.11,.29-.05,.34,.05,.03,.16,0,.32-.11,.17-.1,.37-.25,.61-.43,.24-.18,.51-.4,.8-.63,.3-.24,.59-.49,.87-.77Zm-6.01,2.3c.18,.1,.4,.04,.66-.16,.26-.2,.52-.45,.75-.75,.24-.3,.44-.61,.61-.93,.17-.32,.25-.56,.25-.72-.06-.14-.18-.18-.34-.12-.16,.06-.34,.18-.53,.36-.19,.18-.39,.39-.59,.65-.2,.26-.37,.5-.52,.73-.14,.23-.25,.44-.32,.62-.07,.18-.07,.29,.01,.32Z"/>
    </g>
    <g>
      <path class="cls-1" d="M111.19,60.47c0,.62,.25,.75,.48,.75,.14,0,.25-.03,.33-.08l.05,.24c-.11,.06-.28,.1-.44,.1-.48,0-.73-.4-.73-1.01,0-.66,.28-1.06,.68-1.06s.58,.43,.58,.89c0,.07,0,.13,0,.18h-.94Zm.63-.24c0-.4-.15-.58-.3-.58-.21,0-.32,.31-.33,.58h.63Z"/>
      <path class="cls-1" d="M112.43,61.12c.07,.05,.2,.1,.33,.1,.18,0,.3-.11,.3-.29,0-.15-.05-.26-.26-.4-.26-.17-.4-.34-.4-.58,0-.33,.24-.56,.56-.56,.16,0,.28,.05,.36,.1l-.09,.24c-.07-.05-.16-.09-.27-.09-.17,0-.26,.13-.26,.25,0,.14,.05,.21,.25,.35,.23,.15,.42,.33,.42,.61,0,.4-.28,.6-.6,.6-.15,0-.31-.05-.4-.12l.08-.24Z"/>
      <path class="cls-1" d="M114.08,58.9v.53h.39v.25h-.39v1.2c0,.26,.1,.33,.21,.33,.05,0,.09,0,.13-.01v.25s-.12,.03-.23,.03c-.13,0-.24-.03-.32-.12-.08-.09-.12-.23-.12-.51v-1.17h-.25v-.25h.25v-.44l.32-.09Z"/>
      <path class="cls-1" d="M115.97,60.9c0,.23,.01,.4,.02,.55h-.28l-.02-.21h0c-.06,.1-.22,.25-.43,.25-.35,0-.49-.28-.49-.78v-1.28h.32v1.23c0,.32,.05,.55,.27,.55,.19,0,.27-.18,.29-.27,.01-.05,.02-.12,.02-.18v-1.33h.32v1.47Z"/>
      <path class="cls-1" d="M117.63,58.57v2.4c0,.14,.01,.37,.02,.48h-.28l-.02-.25h-.01c-.07,.15-.21,.29-.42,.29-.34,0-.59-.37-.59-1.04,0-.72,.3-1.05,.61-1.05,.15,0,.29,.07,.37,.24h0v-1.08h.32Zm-.32,1.64s0-.09,0-.13c-.02-.21-.15-.39-.3-.39-.27,0-.36,.37-.36,.78,0,.43,.11,.77,.34,.77,.1,0,.24-.05,.31-.35,0-.04,.01-.08,.01-.13v-.54Z"/>
      <path class="cls-1" d="M118.43,58.91c0,.13-.08,.21-.2,.21-.1,0-.18-.08-.18-.21s.08-.21,.19-.21c.12,0,.19,.08,.19,.21Zm-.35,2.54v-2.02h.32v2.02h-.32Z"/>
      <path class="cls-1" d="M120.09,60.45c0,.78-.36,1.04-.67,1.04-.36,0-.66-.33-.66-1.04s.33-1.05,.68-1.05,.65,.34,.65,1.04Zm-1.01,0c0,.33,.06,.79,.35,.79,.28,0,.33-.48,.33-.79s-.05-.78-.34-.78-.34,.48-.34,.78Z"/>
      <path class="cls-1" d="M122.32,58.57v2.4c0,.14,.01,.37,.02,.48h-.28l-.02-.25h-.01c-.07,.15-.21,.29-.42,.29-.34,0-.59-.37-.59-1.04,0-.72,.3-1.05,.61-1.05,.15,0,.29,.07,.37,.24h0v-1.08h.32Zm-.32,1.64s0-.09,0-.13c-.02-.21-.15-.39-.3-.39-.27,0-.36,.37-.36,.78,0,.43,.11,.77,.34,.77,.1,0,.24-.05,.31-.35,0-.04,.01-.08,.01-.13v-.54Z"/>
      <path class="cls-1" d="M123,60.47c0,.62,.25,.75,.48,.75,.14,0,.25-.03,.33-.08l.05,.24c-.11,.06-.28,.1-.44,.1-.48,0-.73-.4-.73-1.01,0-.66,.28-1.06,.68-1.06s.58,.43,.58,.89c0,.07,0,.13,0,.18h-.94Zm.63-.24c0-.4-.15-.58-.3-.58-.21,0-.32,.31-.33,.58h.63Z"/>
      <path class="cls-1" d="M126.16,58.57v2.4c0,.14,.01,.37,.02,.48h-.28l-.02-.25h-.01c-.07,.15-.21,.29-.42,.29-.34,0-.59-.37-.59-1.04,0-.72,.3-1.05,.61-1.05,.15,0,.29,.07,.37,.24h0v-1.08h.32Zm-.32,1.64s0-.09,0-.13c-.02-.21-.15-.39-.3-.39-.27,0-.36,.37-.36,.78,0,.43,.11,.77,.34,.77,.1,0,.24-.05,.31-.35,0-.04,.01-.08,.01-.13v-.54Z"/>
      <path class="cls-1" d="M126.96,58.91c0,.13-.08,.21-.2,.21-.1,0-.18-.08-.18-.21s.08-.21,.19-.21c.12,0,.19,.08,.19,.21Zm-.35,2.54v-2.02h.32v2.02h-.32Z"/>
      <path class="cls-1" d="M127.33,61.12c.07,.05,.2,.1,.33,.1,.18,0,.3-.11,.3-.29,0-.15-.05-.26-.26-.4-.26-.17-.4-.34-.4-.58,0-.33,.24-.56,.56-.56,.16,0,.28,.05,.36,.1l-.09,.24c-.07-.05-.16-.09-.27-.09-.17,0-.26,.13-.26,.25,0,.14,.05,.21,.25,.35,.23,.15,.42,.33,.42,.61,0,.4-.28,.6-.6,.6-.15,0-.31-.05-.4-.12l.08-.24Z"/>
      <path class="cls-1" d="M128.81,60.47c0,.62,.25,.75,.48,.75,.14,0,.25-.03,.33-.08l.05,.24c-.11,.06-.28,.1-.44,.1-.48,0-.73-.4-.73-1.01,0-.66,.28-1.06,.68-1.06s.58,.43,.58,.89c0,.07,0,.13,0,.18h-.94Zm.63-.24c0-.4-.15-.58-.3-.58-.21,0-.32,.31-.33,.58h.63Z"/>
      <path class="cls-1" d="M130.1,59.96c0-.24-.01-.36-.02-.52h.28l.02,.24h0c.09-.16,.25-.28,.46-.28,.28,0,.49,.21,.49,.7v1.36h-.32v-1.3c0-.24-.05-.48-.28-.48-.13,0-.26,.11-.3,.33,0,.05-.01,.11-.01,.18v1.27h-.32v-1.5Zm.18-.84c0-.22,.08-.39,.25-.39,.09,0,.15,.04,.2,.07,.06,.04,.11,.07,.17,.07,.06,0,.1-.03,.1-.15h.17c0,.23-.08,.38-.26,.38-.08,0-.15-.04-.2-.07-.06-.03-.1-.07-.15-.07-.06,0-.1,.06-.1,.17h-.17Z"/>
      <path class="cls-1" d="M133.04,60.45c0,.78-.36,1.04-.67,1.04-.36,0-.66-.33-.66-1.04s.33-1.05,.68-1.05,.65,.34,.65,1.04Zm-1.01,0c0,.33,.06,.79,.35,.79,.28,0,.33-.48,.33-.79s-.05-.78-.34-.78-.34,.48-.34,.78Z"/>
    </g>
    <path class="cls-1" d="M124.36,68.5c0,.44-.34,.78-.78,.78s-.78-.34-.78-.78,.35-.77,.78-.77,.78,.34,.78,.77Zm-1.37,0c0,.35,.25,.62,.59,.62s.58-.27,.58-.62-.25-.61-.58-.61-.59,.28-.59,.61Zm.47,.4h-.16v-.77c.06-.01,.15-.03,.28-.03,.14,0,.2,.02,.26,.06,.04,.03,.08,.09,.08,.16,0,.09-.07,.15-.16,.18h0c.08,.03,.11,.09,.14,.2,.03,.11,.04,.16,.05,.19h-.17s-.04-.09-.06-.19c-.01-.08-.06-.12-.16-.12h-.08v.31Zm0-.44h.08c.1,0,.18-.03,.18-.11,0-.07-.05-.12-.16-.12-.05,0-.08,0-.1,0v.22Z"/>
  </g>
  <g>
    <path class="cls-1" d="M141.99,80.11c-2.41-.96-4.43-2.44-5.57-4.8-.55-1.14-1.36-1.6-2.45-1.91-4.63-1.33-9.19-.83-13.7,.58-5.13,1.61-42.69,2.83-48.08,3.15-3.89,.24-7.76,.04-11.56-.82-.5-.11-1.24-.78-1.23-1.17,.02-.92,.89-.67,1.52-.62,.15,.01,.3,.04,.45,.06,8.41,1.18,49.02,.7,57.09-2.2,3.93-1.41,8.02-2.1,12.22-1.5,1.49,.21,2.95,.61,4.5,.94-.04-.4-.14-.81-.1-1.21,.19-1.88,.37-3.76,.69-5.62,.05-.31,.71-.89,1.16-.75,.44,.14,.6,.82,.56,1.28-.02,.2-.1,.36-.15,.54-.72,3.07-.74,6.06,1.21,8.74,1.5,2.07,3.55,3.4,6.02,4.08,.66,.18,1.3,.41,1.21,1.25-.16,1.59-.33,3.17-.62,4.74-.08,.44-.52,.97-.93,1.13-.33,.13-.92-.16-1.28-.42-.76-.55-1.4-1.29-2.19-1.8-.93-.6-1.87-.2-2.11,.85-.35,1.55-.28,3.06,.99,4.22,1.23,1.13,2.7,1.24,4.14,.54,2.79-1.36,5.24-3.17,7.2-5.64,.96-1.21,1.73-2.91,.35-3.51-.56-.24-.71,.2-1.12-.18-.44-.41-.7-.92-.61-1.51,.11-.75,.37-1.47,.54-2.21,1.21-5.3,1.89-10.63,1.03-16.06-.56-3.59-1.95-6.71-5.24-8.66-2.47-1.47-5.2-2.06-8.02-2.38-4.51-.5-8.85,.49-13.18,1.52-5.22,1.25-42.82,2.32-48.25,1.94-5.86-.41-11.38-1.87-16.43-4.91-1.06-.63-1.21-1.44-.53-2.33,8.14,8.71,50.87,6.59,60.98,4.21,3.8-.89,7.62-1.94,11.49-2.29,6.2-.55,12.33-.08,17.5,4.3,.25-.26,.55-.55,.81-.86,3.65-4.27,4.34-12.65,1.43-17.45-.73-1.21-1.56-2.34-3.07-2.7-.74-.18-1.64-.41-1.26-1.47,.37-1.04,1.25-.54,1.96-.4,.11,.02,.22,.07,.32,.12,3.86,1.78,6.65,4.61,7.82,8.71,1.69,5.91,.41,11.4-3.11,16.31-1.13,1.57-1.66,2.82-1.31,4.92,.88,5.27,.69,10.63-.49,15.87-.45,2.02-.11,3.71,.77,5.44,.16,.3,.41,.6,.44,.92,.05,.58,.19,1.3-.08,1.75-2.2,3.72-5.18,6.66-9.19,8.39-2.55,1.1-5.35,.44-6.87-1.43-1.55-1.91-1.7-5.11-.33-7.3,.94-1.5,2.41-1.89,3.91-.96,.7,.44,1.32,1.01,2.07,1.6,.64-2.23,.63-2.22-1.33-3Zm13.12-43.07c.47,2.83,.56,5.45,.02,8.09-.57,2.78-1.81,5.24-3.62,7.39-.58,.69-.68,1.2,.09,1.83,4.17-4.98,6.22-12.38,3.51-17.3Z"/>
    <path class="cls-1" d="M43.7,73.63c-1.85-2.64-3.6-5.16-5.38-7.66-2.04-2.88-2.32-6.12-1.99-9.48,.1-1.02,.38-2.03,.4-3.05,0-.45-.17-1.27-.68-1.38-.51-.1-1.05,.58-1.16,.99-1.44,5.13-.92,9.98,2.11,14.49,2.16,3.21,4.27,6.46,6.32,9.74,.47,.76,.62,1.72,.99,2.78-.48-.08-.66-.1-.83-.14-1.86-.44-3.44,.3-3.73,2.16-.32,2.08-.4,4.23-.27,6.33,.11,1.71,1.19,2.6,2.87,2.7,2.05,.12,4.12,.24,6.15,.05,1.18-.11,2.41-.69,3.39-1.38,.61-.43,1.16-1.47,1.12-2.21-.16-3,1-5.58,2.29-8.12,1.72-3.38,6.43-12.91,12.22-17.87,.35-.65-1.23-.42-2.15-.11-.49,.17-2.27,1.87-3.76,3.55-.4,.45-1.24,1.55-2.16,3.07-2.3,3.8-5.55,9.93-7.05,12.96-.93,1.88-1.5,3.9-1.36,6.05,.06,.87-.41,1.44-1.21,1.72-2.35,.82-4.73,.6-7.08,.07-1.12-.25-1.43-1.32-1.46-2.34-.03-.98,.03-1.98,.2-2.95,.08-.45,.44-1.07,.81-1.2,.39-.14,1,.14,1.42,.4,.33,.2,.48,.7,.8,.94,.37,.27,.92,.61,1.25,.5,.3-.1,.62-.77,.6-1.17-.07-1.48-.37-2.95-.41-4.42-.08-2.99-.06-5.99-.04-8.99,0-.71,.1-1.47-.87-1.54-.96-.08-1.05,.65-1.09,1.38-.07,1.35-.17,2.7-.26,4.13Z"/>
    <path class="cls-1" d="M14.27,31.48c1.11-.24,2.21-.65,3.33-.69,3.72-.11,7.45-.17,11.17-.08,1.64,.04,2.82-.5,3.93-1.62,1.17-1.18,2.38-2.38,3.76-3.29,5.16-3.41,10.98-2.65,15.1,1.97,1.05,1.17,1.84,2.59,2.65,3.95,.39,.65,.7,1.24,1.54,.87,.87-.38,.66-1.1,.35-1.75-2.36-5.04-6.25-8.08-11.78-9.03-3.47-.6-6.48,.48-9.2,2.46-1.46,1.07-2.79,2.34-4.07,3.63-.56,.57-1.07,.81-1.85,.8-3.57-.04-7.15-.05-10.72,0-1.28,.02-2.59,.14-3.84,.42-1.8,.41-2.46,1.35-2.73,3.17-.66,4.4,2,9.8,7.22,11.12,2.78,.7,5.66,1.18,8.52,1.4,2.93,.23,5.7,.75,8.27,2.21,.35,.2,.88,.29,1.25,.19,.23-.07,.51-.64,.45-.92-.07-.33-.43-.69-.75-.85-2.99-1.49-6.13-2.38-9.48-2.63-2.34-.17-4.69-.49-6.99-.95-2.81-.57-4.72-2.31-5.78-5.16,1.77-.48,2.31-1.94,2.6-3.51,.07-.39-.03-.98-.29-1.21-.24-.21-.8-.08-1.21-.06-.45,.02-.9,.09-1.35,.14l-.11-.58Z"/>
    <path class="cls-1" d="M39.78,44.82c-.09-3.39,1.12-6.5,1.99-9.68,.13-.48,.29-.94,.4-1.42,.15-.66,.42-1.5-.43-1.78-.91-.3-1.23,.48-1.44,1.22-.24,.84-.5,1.67-.76,2.5-1.05,3.35-1.87,6.74-1.72,10.28,.21,4.99,1.76,9.55,4.84,13.49,1.8,2.31,4.09,2.27,5.76-.12,3.03-4.34,5.52-8.95,5.73-14.4,.16-4.29-.97-8.35-2.5-12.3-.29-.74-.53-1.53-.97-2.17-.23-.34-.89-.64-1.27-.55-.67,.15-.69,.74-.47,1.38,.93,2.76,1.95,5.51,2.71,8.32,1.42,5.31,.09,10.22-2.51,14.88-.57,1.03-1.1,2.08-1.73,3.08-1.25,1.97-2.24,2.05-3.6,.13-1.94-2.73-3.14-5.8-3.65-9.12-.19-1.24-.24-2.49-.35-3.74Z"/>
    <path class="cls-1" d="M34.66,33.3c0-1.26-.72-2.14-1.73-2.12-.94,.02-1.77,1.15-1.78,2.42,0,1.11,.7,1.92,1.68,1.9,1.03-.01,1.83-.98,1.83-2.21Z"/>
  </g>
</svg>