<?xml version="1.0" encoding="UTF-8"?>
<svg id="Capa_1" data-name="Capa 1" xmlns="http://www.w3.org/2000/svg" viewBox="0 0 170.08 113.39">
  <defs>
    <style>
      .cls-1 {
        fill: #542d5d;
      }
    </style>
  </defs>
  <g>
    <path d="M45.7,95.3c1.96-8.78,7.31-21.92,10.59-26,1.67-2.07,3.01-1.92,3.01,.35,0,1.36-.32,1.9-1.13,1.9-.75,0-1.09-.33-1.21-1.15-.07-.51-.19-.41-1.07,.92-3.29,5-7.56,15.48-9.55,23.44-.64,2.57-.74,3.36-.75,5.99,0,2.74,.04,3.1,.48,3.69,.91,1.23,1.83,1.58,4.12,1.56,3.2-.02,5.5-.76,11.47-3.66,1.75-.85,3.35-1.51,3.57-1.47,.54,.1,.64,.96,.18,1.43-.38,.38-8.24,3-11.51,3.83-2.38,.61-5.2,.62-6.5,.02-2.66-1.21-3.15-4.35-1.7-10.85Z"/>
    <path d="M75.8,92.28s-.02,.02-.02,.03c-.57,.69-1.19,1.21-1.83,1.75-.65,.52-1.33,1.01-2.09,1.4-.38,.19-.79,.36-1.23,.46-.44,.1-.94,.15-1.45-.01-.52-.17-.94-.59-1.18-1.03-.08-.14-.13-.27-.19-.41,0,0,0-.01-.01-.02-.43-.89-.3-2.18-.13-2.94l.23-.99-2.36,2.3c-2.45,2.39-3.79,3.27-4.95,3.27-.86,0-1.64-.93-1.64-1.93,0-1.13,.84-4.33,1.19-4.55,.57-.36,1.55-.23,1.8,.24,.44,.82,.27,1.39-.54,1.87-.82,.49-1.05,.98-1.06,2.23,0,.58,.09,.75,.42,.75,.51,0,1.95-1.03,2.92-2.07,1.66-1.8,3.82-3.46,4.49-3.46,.82,0,1,.46,.7,1.73-.2,.85-.26,2-.19,2.9,.04,.24,.09,.47,.18,.67,.13,.31,.35,.53,.63,.65,.59,.23,1.38,.01,2.07-.3,.71-.31,1.38-.75,1.99-1.25,.61-.5,1.22-1.05,1.62-1.67v-.02c.12-.17,.36-.22,.53-.11,.17,.11,.22,.34,.11,.52Z"/>
    <path d="M88.92,92.57s-.04,.02-.05,.03h0c-.55,.25-1.08,.53-1.64,.74-.55,.23-1.12,.44-1.69,.61-.58,.17-1.16,.31-1.75,.41-.14,.03-.28,.05-.43,.07-.46,.25-1.01,1.04-1.59,1.63-1.63,1.59-2.79,2.07-3.63,1.51-.67-.43-.76-1.37-.21-2.16,.5-.71,1.89-1.38,3.26-1.56,1.08-.14,1.18-.21,1.65-1.17,.64-1.31,.67-2.62,.07-2.62-.23,0-.83,.29-1.33,.66-2.79,2.04-6.14,7.2-8.25,12.71-1.08,2.82-1.24,3.12-1.79,3.18-.36,.04-.65-.06-.73-.26-.07-.18,.63-2.86,1.55-5.95,.92-3.09,2.12-7.13,2.66-8.97,.54-1.84,1.08-3.47,1.21-3.63,.29-.37,1.61-.38,1.97,0,.45,.45,.32,1.42-.3,2.25-.53,.72-2.57,6.62-2.36,6.83,.05,.05,.56-.61,1.13-1.47,2.44-3.67,4.92-6.05,6.3-6.05,1.28,0,1.77,1.25,1.18,2.99-.2,.57-.55,1.24,.04,1.12,0,0,0,0,.01,0,.37-.06,.75-.14,1.11-.23,1.11-.28,2.21-.67,3.17-1.32,.17-.12,.41-.07,.52,.1,.11,.17,.07,.41-.1,.52Zm-7.89,2.36c-.58,0-2.18,1.02-2.26,1.45-.07,.39-.03,.39,.57,.07,.36-.19,.97-.61,1.35-.93,.43-.37,.56-.58,.34-.58Z"/>
    <path d="M98.77,92.31c-.36,.48-.76,.83-1.16,1.19-.4,.36-.82,.69-1.25,1.01-.86,.64-1.76,1.21-2.7,1.73-.47,.26-.96,.5-1.47,.69s-1.05,.36-1.64,.41c-.29,.03-.6,.02-.92-.03-.31-.08-.64-.19-.91-.41-.25-.18-.43-.44-.58-.69-.02-.02-.05-.05-.07-.09-.13-.23-.21-.58-.26-.89h0s0-.03,0-.04c0-.02,0-.04,0-.05,0-.04-.01-.07-.01-.11-.01-.14-.02-.25,0-.32,.14-1.54,1.16-4.57,1.7-5.17,.47-.52,1.27-.52,1.75,.02,.54,.6,.47,1.32-.19,1.93-.7,.65-1.33,2.43-1.45,3.57,0,.05,0,.11,0,.17,0,.07,.02,.13,.02,.2,.03,.1,.04,.2,.09,.26,.03,.08,.12,.12,.23,.19,.14,.04,.3,.09,.5,.09,.4,.02,.86-.05,1.32-.18,.47-.12,.93-.29,1.4-.49,.93-.39,1.82-.9,2.69-1.46,.43-.29,.84-.59,1.24-.91,.39-.32,.78-.68,1.05-1.03l.02-.03c.13-.16,.36-.19,.52-.07,.16,.12,.19,.36,.07,.52Zm-7.61-5.26c-.25-.26-.46-.59-.46-.76,0-.57,.72-1.32,1.27-1.32,1.19,0,1.72,1.5,.76,2.18-.68,.48-1.01,.45-1.56-.1Z"/>
    <path d="M112.67,79.55c-2.57,.08-5.79,.22-7.16,.3l-2.49,.15-.35,.83c-2.45,5.8-4.69,15.2-4.75,19.92,0,.32,0,.62,.01,.91,0,.01,0,.02,.01,.03,0,0,0,.02,0,.02,.02,.39,.06,.78,.17,1.12,.1,.34,.28,.63,.52,.75,.23,.13,.57,.12,.93,.03,.35-.1,.71-.27,1.05-.48,.69-.41,1.34-.92,1.94-1.47,.61-.55,1.2-1.14,1.76-1.75,1.14-1.21,2.21-2.49,3.24-3.8,.51-.66,1.02-1.32,1.5-2,.47-.68,.97-1.37,1.36-2.06v-.02c.14-.23,.44-.32,.68-.18s.32,.43,.18,.66c0,0,0,0,0,0-.24,.41-.48,.74-.73,1.09-.25,.35-.5,.68-.76,1.02-.51,.67-1.03,1.33-1.56,1.99-1.06,1.31-2.17,2.58-3.34,3.8-1.18,1.21-2.41,2.38-3.89,3.32-.37,.23-.77,.43-1.21,.57-.23,.06-.46,.11-.71,.11-.25,0-.52-.05-.76-.17-.49-.25-.75-.73-.91-1.15-.12-.34-.19-.69-.24-1.03,0,0,0,0,0-.01,0,0,0-.02,0-.02-.01-.08-.02-.16-.03-.25h0s0-.03,0-.04c-.34-4.07,1.09-12.56,3.5-19.44,.45-1.29,.82-2.42,.82-2.49s-1.32-.1-2.94-.07l-2.94,.06-.08,.58c-.11,.78-.45,1.15-1.06,1.15-1.09,0-1.45-1.41-.57-2.21,.55-.5,2.29-.57,5.85-.24l2.08,.19,1.13-2.57c.87-1.98,1.25-2.6,1.65-2.7,.81-.2,1.33-.02,1.63,.58,.38,.76,.08,1.45-.85,1.92-.54,.28-.98,.8-1.43,1.67l-.64,1.27h2.14c2.55,0,6.04-.5,8.27-1.18,.89-.27,2.16-.51,2.82-.53,1.08-.03,1.2,.02,1.27,.5,.15,1.04-.14,1.12-5.09,1.27Z"/>
    <path d="M125.08,92.47s-.04,.05-.06,.07c-.81,.71-1.59,1.46-2.45,2.13-.43,.33-.88,.64-1.34,.93-.47,.28-.94,.56-1.42,.81-.02,.01-.05,.01-.07,.02-1.39,.63-2.14,.64-2.71,.07-.57-.56-.61-1.97-.12-3.59,.19-.62,.35-1.22,.35-1.34,0-.11-1.09,.84-2.41,2.12-2.73,2.64-3.79,3.18-4.84,2.49-.57-.37-.69-.79-.59-1.99,.12-1.43,2.25-4.16,4.07-5.23,1.07-.63,1.15-.63,4.41-.17,1.54,.22,1.61,.61,.62,3.41-.91,2.57-.96,3.45-.22,3.55,.42,.06,.89-.06,1.4-.28,.12-.05,.23-.09,.32-.13,.28-.13,.55-.28,.81-.44,.44-.26,.87-.55,1.28-.86,.41-.31,.8-.65,1.16-1.02,.36-.37,.72-.75,1.04-1.16h0c.17-.22,.47-.26,.69-.09,.22,.17,.26,.48,.09,.69Zm-10.02-1.93c-.44-.44-2.76,1.63-3.56,3.16-.44,.85,.04,.53,1.94-1.33,.96-.94,1.7-1.76,1.62-1.84Z"/>
  </g>
  <g>
    <path class="cls-1" d="M81.17,25.48c5.46,1.65,8.05,4.37,8.05,4.37,0,0,2.92-9.43-3.91-17.36-6.73-7.8-12.94-6.21-14.82-5.46,.64,.27,1.28,.55,1.91,.85,2,.93,3.95,2.02,5.74,3.34,1.78,1.32,3.4,2.86,4.78,4.58,.69,.86,1.33,1.76,1.91,2.69,.58,.93,1.1,1.9,1.59,2.89-.53-.96-1.09-1.91-1.7-2.81-.62-.9-1.29-1.77-2.01-2.59-1.44-1.64-3.09-3.09-4.88-4.31-1.8-1.22-3.74-2.21-5.75-3.05-.76-.32-1.53-.62-2.3-.91-2.39,8.26,4.79,15.78,11.4,17.77Z"/>
    <path class="cls-1" d="M93.86,36.79c2.2,2.77,2.55,5.07,2.55,5.07,0,0,4.82-3.77,4.15-10.22-.66-6.35-4.39-7.74-5.61-8.03,.23,.37,.46,.74,.67,1.11,.69,1.19,1.3,2.43,1.74,3.73,.44,1.3,.72,2.66,.81,4.02,.05,.68,.05,1.37,.02,2.05-.03,.68-.11,1.36-.21,2.03,.07-.68,.12-1.36,.13-2.03,0-.68-.03-1.36-.1-2.03-.15-1.35-.48-2.67-.96-3.92-.48-1.26-1.12-2.45-1.85-3.59-.27-.43-.56-.85-.85-1.28-4.14,3.36-3.14,9.73-.49,13.08Z"/>
    <g>
      <g>
        <path class="cls-1" d="M78.23,43.1c-11.87-7.71-15.6-17.12-14.02-30.14,0,0-3.45,8.07-3.85,10.9-.37,2.62-.73,3.42-.27,5.06-.11-.02-.23-.04-.34-.08-.25-.08-.48-.24-.66-.45-.2-.2-.3-.48-.4-.76,.07,.29,.14,.59,.32,.83,.17,.24,.4,.45,.66,.58,.13,.06,.27,.11,.41,.15-.14,.03-.29,.05-.43,.05-.3,0-.6-.07-.87-.22-.28-.14-.5-.39-.71-.65,.18,.28,.37,.57,.66,.75,.27,.19,.59,.32,.92,.36,.2,.02,.41,.01,.61-.01,.48,1.94-2.65,4.66-4.09,6.57-1.47,1.95-4.72,3.92-3.63,5.81s3.51,2.29,3.94,2.88c.43,.59,.08,1.58-.38,2.27s-.81,1.47-.32,2.37c.34,.64,.92,.76,1.31,.9,.68,.03,2.19,.23,2.87,.19-.64,.1-2.13,.33-2.79,.38-.39,.25-1.22,.81-.95,1.75,.33,1.17,1.13,1.78,1.33,2.36,.2,.58-1.09,2.63-.9,4.59,.19,1.96,2.13,4.27,4.92,4.05,1.98-.16,3.53-.44,5.1-.65,2.75-.5,5.48-1.16,8.07-2.19,1.35-.55,2.67-1.2,3.81-2.11,.56-.46,1.07-.99,1.43-1.62,.37-.63,.51-1.38,.43-2.11,.12,.72,.01,1.5-.33,2.16-.33,.67-.83,1.25-1.38,1.74-1.12,.99-2.43,1.72-3.77,2.34-1.56,.71-3.18,1.28-4.82,1.77,3.2,1.12,5.06,6.78,1.91,14.21,13.58-8.83,18.28-26.22,6.24-34.04Z"/>
        <path class="cls-1" d="M65.37,12.1s-2.54,16.7,9.68,25.53c12.22,8.83,21.18,18.15,18.39,35.46,0,0,9.8-19.24-2.54-34.25-12.34-15.01-18.15-11.13-25.53-26.74Z"/>
      </g>
      <path class="cls-1" d="M89.34,77.82c8.43-10.2-2.78-28.08-2.78-28.08,0,0,4.6,27.35-23.48,32.07,0,0,16.46,7.87,26.26-3.99Z"/>
    </g>
  </g>
  <g>
    <path class="cls-1" d="M77.08,103.35c-.01-.27-.02-.55-.04-.82,.19,0,.39,.02,.58,.02,.19,0,.38,.01,.58,.01s.38,0,.57-.01c.19,0,.38-.01,.57-.02-.01,.06-.02,.13-.02,.19s0,.13,.02,.19c-.14,0-.26-.02-.38-.03-.11,0-.23-.02-.36-.03-.13,0-.27-.02-.42-.02-.15,0-.33,0-.54,0,0,.14,0,.27-.02,.39,0,.12,0,.27,0,.42,0,.17,0,.33,0,.49s0,.28,0,.36c.19,0,.36,0,.51,0,.15,0,.29,0,.41-.02,.12,0,.24-.01,.34-.02,.11,0,.2-.01,.3-.02-.01,.06-.02,.13-.02,.2s0,.13,.02,.19c-.11-.01-.24-.02-.39-.03-.15,0-.3-.01-.44-.02-.15,0-.29,0-.42,0-.13,0-.24,0-.31,0,0,.04,0,.08,0,.13s0,.1,0,.17v.64c0,.24,0,.45,0,.61s0,.28,0,.36h.45c.16,0,.32,0,.48,0,.16,0,.31-.02,.44-.03,.14-.01,.26-.03,.36-.05,0,.03-.01,.06-.02,.1,0,.04,0,.07,0,.1,0,.07,0,.12,.02,.17-.19,0-.39-.01-.58-.01h-1.17c-.19,0-.39,0-.59,.01,.01-.27,.02-.55,.04-.82,.01-.27,.02-.55,.02-.83v-1.11c0-.28,0-.56-.02-.84Z"/>
    <path class="cls-1" d="M80.24,106.49c.05,.05,.1,.1,.16,.15,.06,.05,.13,.08,.21,.11s.16,.05,.25,.05c.08,0,.16-.01,.24-.04,.08-.03,.14-.06,.2-.11s.1-.11,.14-.18c.03-.07,.05-.16,.05-.25,0-.13-.04-.24-.11-.31s-.17-.13-.28-.17c-.11-.05-.23-.08-.37-.12-.13-.03-.26-.08-.37-.15-.11-.06-.21-.15-.28-.25-.08-.1-.11-.24-.11-.42,0-.14,.02-.27,.07-.39,.05-.12,.12-.22,.21-.31,.09-.09,.2-.15,.33-.2,.13-.05,.29-.07,.46-.07,.16,0,.29,.02,.4,.06s.21,.08,.31,.12c-.03,.06-.07,.14-.1,.24-.03,.09-.05,.17-.06,.22h-.08c-.03-.1-.1-.2-.2-.28-.1-.08-.22-.12-.37-.12-.06,0-.13,.01-.19,.03-.06,.02-.12,.05-.17,.1s-.09,.1-.13,.17c-.03,.07-.05,.15-.05,.24,0,.14,.04,.24,.11,.32,.08,.08,.17,.13,.28,.18,.11,.04,.23,.08,.37,.11s.26,.08,.37,.14c.11,.06,.2,.14,.28,.24,.08,.1,.11,.24,.11,.42,0,.12-.03,.25-.08,.37-.05,.12-.13,.23-.23,.33-.1,.1-.22,.17-.36,.23-.14,.05-.3,.08-.48,.08-.2,0-.36-.02-.5-.06-.13-.04-.24-.08-.33-.14,.03-.06,.05-.13,.08-.23,.03-.1,.04-.18,.04-.24h.08s.05,.09,.1,.14Z"/>
    <path class="cls-1" d="M83.27,103.03c-.01,.16-.02,.32-.03,.48s-.01,.31-.02,.47c.05,0,.14,0,.26,0,.13,0,.27,0,.42-.02,0,.01,0,.04,0,.07v.14s0,.05,0,.06c-.06,0-.11,0-.17-.01-.06,0-.12,0-.19,0h-.32s0,.09-.02,.21-.01,.26-.02,.43c0,.17,0,.34,0,.52,0,.18,0,.34,0,.48,0,.12,0,.24,0,.35s.03,.22,.06,.31c.03,.09,.09,.17,.15,.22,.07,.06,.17,.08,.3,.08,.03,0,.08,0,.14-.01,.06,0,.11-.02,.15-.03v.15c-.07,.01-.15,.03-.24,.05-.09,.02-.17,.03-.25,.03-.27,0-.47-.07-.6-.2-.13-.13-.19-.33-.19-.59,0-.12,0-.24,0-.38,0-.14,0-.28,.02-.44,0-.16,.01-.34,.02-.54,0-.2,0-.41,0-.65h-.21s-.07,0-.11,0c-.04,0-.08,0-.12,.01,0-.03,0-.05,0-.07,0-.02,0-.05,0-.07,0-.02,0-.04,0-.06,0-.02,0-.04,0-.06,.19,.01,.34,.02,.43,.02,0-.09,0-.19,0-.32,0-.13,0-.26-.02-.4l.53-.23h.03Z"/>
    <path class="cls-1" d="M84.21,105.52c0-.53,.13-.94,.38-1.24s.62-.45,1.1-.45c.23,0,.42,.04,.59,.11s.3,.17,.42,.28,.19,.26,.25,.42c.05,.16,.08,.33,.08,.51,0,.04,0,.09,0,.13,0,.04,0,.08,0,.13-.23,0-.46,0-.69-.01s-.46,0-.69,0c-.14,0-.28,0-.42,0-.14,0-.28,0-.42,.01,0,.02,0,.05,0,.1v.08c0,.17,.02,.32,.08,.47,.05,.15,.12,.27,.22,.38,.09,.11,.21,.19,.35,.25s.3,.09,.48,.09c.09,0,.17-.01,.26-.04s.18-.06,.26-.1c.09-.04,.17-.09,.24-.14s.14-.12,.2-.18l.03,.02-.04,.32c-.13,.1-.29,.19-.48,.26s-.39,.11-.6,.11c-.23,0-.44-.04-.63-.11-.19-.07-.36-.17-.5-.31-.14-.14-.25-.3-.32-.48-.08-.18-.11-.38-.11-.6Zm1.49-1.49c-.16,0-.29,.04-.4,.11-.11,.07-.2,.16-.27,.27-.07,.11-.12,.23-.16,.36s-.06,.25-.07,.37c.13,0,.27,0,.42,.01,.14,0,.29,0,.42,0s.29,0,.43,0,.29,0,.43-.01c0-.12-.01-.24-.03-.37-.02-.13-.06-.25-.12-.36-.06-.11-.14-.2-.24-.28-.1-.07-.24-.11-.41-.11Zm.51-1.66c.1-.1,.2-.15,.29-.15,.04,0,.09,.02,.14,.05s.07,.09,.07,.15c0,.08-.03,.14-.08,.18-.05,.05-.1,.08-.15,.12l-.95,.61h-.27l.95-.96Z"/>
    <path class="cls-1" d="M88.28,103.03c-.01,.16-.02,.32-.03,.48,0,.16-.02,.31-.02,.47,.05,0,.14,0,.26,0,.13,0,.27,0,.42-.02,0,.01,0,.04,0,.07v.14s0,.05,0,.06c-.06,0-.11,0-.17-.01-.06,0-.12,0-.19,0h-.32s0,.09-.02,.21c0,.12-.01,.26-.02,.43,0,.17,0,.34,0,.52,0,.18,0,.34,0,.48,0,.12,0,.24,0,.35,0,.12,.03,.22,.06,.31,.03,.09,.09,.17,.15,.22,.07,.06,.17,.08,.3,.08,.03,0,.08,0,.14-.01,.06,0,.11-.02,.15-.03v.15c-.07,.01-.15,.03-.24,.05-.09,.02-.17,.03-.25,.03-.27,0-.47-.07-.6-.2-.13-.13-.19-.33-.19-.59,0-.12,0-.24,0-.38,0-.14,0-.28,.02-.44,0-.16,.01-.34,.02-.54,0-.2,0-.41,0-.65h-.21s-.07,0-.11,0c-.04,0-.08,0-.12,.01,0-.03,0-.05,0-.07,0-.02,0-.05,0-.07,0-.02,0-.04,0-.06,0-.02,0-.04,0-.06,.19,.01,.33,.02,.42,.02,0-.09,0-.19,0-.32,0-.13,0-.26-.02-.4l.53-.23h.03Z"/>
    <path class="cls-1" d="M89.56,102.77c0-.09,.03-.17,.1-.23,.06-.06,.14-.1,.23-.1s.17,.03,.23,.1c.06,.06,.1,.14,.1,.23s-.03,.17-.1,.23c-.06,.06-.14,.1-.23,.1s-.17-.03-.23-.1c-.06-.06-.1-.14-.1-.23Zm.09,2.33c0-.19,0-.4,0-.61,0-.21-.02-.41-.04-.6,.12,.02,.22,.03,.29,.03s.17-.01,.29-.03c-.02,.18-.04,.38-.04,.6,0,.21,0,.42,0,.61v.67c0,.19,0,.4,0,.61,0,.21,.02,.41,.04,.58-.1,0-.2-.01-.29-.01s-.19,0-.29,.01c.02-.17,.04-.36,.04-.58,0-.21,0-.42,0-.61v-.67Z"/>
    <path class="cls-1" d="M91.05,105.43c0-.28,.05-.52,.14-.72,.09-.2,.22-.37,.37-.5,.15-.13,.33-.23,.53-.29,.2-.06,.4-.09,.61-.09,.24,0,.45,.03,.63,.09s.32,.12,.4,.2c-.03,.06-.06,.13-.08,.2-.02,.07-.04,.14-.06,.22h-.05c-.03-.06-.07-.11-.12-.17s-.11-.11-.18-.16c-.07-.05-.15-.09-.23-.12-.09-.03-.18-.05-.28-.05-.19,0-.36,.04-.5,.11s-.25,.17-.34,.29c-.09,.12-.15,.27-.19,.44-.04,.17-.06,.35-.06,.55,0,.44,.09,.78,.28,1s.47,.34,.83,.34c.09,0,.17-.01,.26-.04s.18-.06,.26-.1c.09-.04,.17-.09,.24-.14s.14-.12,.2-.18l.03,.02c-.02,.1-.03,.21-.04,.32-.13,.1-.29,.19-.48,.26s-.39,.11-.6,.11c-.18,0-.37-.03-.56-.08-.19-.05-.36-.14-.51-.27-.15-.13-.27-.29-.36-.49s-.14-.45-.14-.74Z"/>
    <path class="cls-1" d="M94.56,104.2c.19-.15,.37-.24,.53-.3,.16-.05,.33-.08,.5-.08,.16,0,.3,.02,.43,.07,.13,.05,.24,.11,.33,.19s.16,.18,.21,.3,.08,.25,.08,.39c0,.24,0,.49-.01,.73s-.01,.5-.01,.77c0,.05,0,.11,0,.16s.01,.11,.03,.15c.02,.05,.04,.08,.08,.11,.03,.03,.08,.05,.14,.05,.02,0,.04,0,.07,0,.02,0,.05,0,.07-.02v.14s-.11,.04-.18,.05-.15,.02-.23,.02c-.14,0-.24-.04-.32-.11-.07-.07-.12-.16-.13-.27-.16,.15-.31,.27-.46,.34-.15,.07-.33,.11-.55,.11-.11,0-.21-.02-.32-.05-.1-.03-.2-.08-.27-.15s-.14-.15-.19-.25c-.05-.1-.07-.21-.07-.33,0-.26,.08-.46,.24-.6s.38-.24,.67-.28c.23-.04,.41-.07,.54-.1s.23-.06,.29-.09c.06-.03,.1-.07,.11-.11,.01-.04,.02-.09,.02-.16,0-.11-.01-.21-.04-.31s-.07-.18-.12-.26c-.05-.07-.13-.13-.22-.18-.09-.05-.2-.07-.33-.07-.17,0-.33,.04-.48,.12-.15,.08-.26,.18-.33,.32h-.07v-.34Zm1.59,1.15c-.07,.03-.16,.05-.26,.06s-.2,.04-.29,.06c-.1,.02-.2,.04-.29,.07s-.18,.07-.26,.12c-.08,.05-.14,.12-.18,.19s-.07,.18-.07,.3c0,.2,.06,.35,.17,.46s.24,.15,.39,.15c.16,0,.31-.05,.45-.14,.14-.09,.24-.2,.31-.32l.03-.97Z"/>
  </g>
</svg>