<?xml version="1.0" encoding="UTF-8"?>
<svg id="Capa_1" data-name="Capa 1" xmlns="http://www.w3.org/2000/svg" viewBox="0 0 170.08 113.39">
  <defs>
    <style>
      .cls-1 {
        fill: #002e82;
      }

      .cls-2 {
        fill: #bf0811;
      }

      .cls-3 {
        fill: #211915;
      }
    </style>
  </defs>
  <g>
    <g>
      <path class="cls-2" d="M14.92,75.12l5.16-15.93h9.1l-5.16,15.93H14.92Zm3.69-17.4l4.4-7.29H57.51c.73,0,1.38,.16,1.95,.48,.57,.32,1.03,.73,1.36,1.24,.34,.5,.54,1.08,.63,1.74,.08,.66,.01,1.32-.21,1.99l-6.25,19.24h-9.1l5.66-17.4H18.61Zm11.78,17.4l5.16-15.93h9.14l-5.16,15.93h-9.14Z"/>
      <path class="cls-2" d="M70.51,57.72l5.16-7.29h13.16l1.3,24.69h-9.6l-.42-8.8h-6.08l-6.08,8.8h-9.6l11.07-15.93h10.77l.13-1.47h-9.81Z"/>
      <path class="cls-2" d="M95.11,57.72l2.35-7.29h29.13l-2.35,7.29h-29.13Zm18.57,1.47l-5.16,15.93h-9.14l5.16-15.93h9.14Z"/>
      <path class="cls-2" d="M150.99,50.43h9.1l-8.01,24.69h-23.68c-.73,0-1.37-.16-1.93-.48-.56-.32-1.01-.75-1.34-1.28-.34-.53-.54-1.12-.63-1.78-.08-.66-.01-1.32,.21-1.99l.59-1.76h20.08l5.62-17.4Zm-20.08,0h9.1l-5.16,15.93h-9.1l5.16-15.93Z"/>
    </g>
    <path class="cls-2" d="M141.53,50.2l4.03-4.31h5.54l-4.52,4.31h-5.05Z"/>
  </g>
  <g>
    <path class="cls-3" d="M56.93,83.69l-.27,1.32h-.79l1.13-5.09h.94l1.05,5.09h-.79l-.27-1.32h-1.01Zm.93-.63l-.21-1.17c-.07-.33-.14-.8-.19-1.16h-.02c-.05,.36-.13,.85-.19,1.16l-.23,1.16h.84Z"/>
    <path class="cls-3" d="M63.32,84.93c-.15,.08-.42,.13-.75,.13-1.16,0-1.83-.95-1.83-2.52,0-1.96,1.04-2.66,1.94-2.66,.33,0,.57,.07,.67,.13l-.15,.69c-.12-.06-.24-.11-.48-.11-.55,0-1.12,.51-1.12,1.9s.51,1.86,1.13,1.86c.19,0,.38-.05,.5-.09l.1,.68Z"/>
    <path class="cls-3" d="M66.18,79.92v3.36c0,.82,.26,1.09,.57,1.09,.36,0,.59-.26,.59-1.09v-3.36h.81v3.22c0,1.31-.52,1.93-1.4,1.93-.93,0-1.38-.64-1.38-1.9v-3.26h.81Z"/>
    <path class="cls-3" d="M73.64,83.05c-.03-.57-.06-1.27-.05-1.83h-.02c-.1,.56-.23,1.17-.36,1.66l-.53,2.07h-.55l-.5-2.02c-.14-.51-.27-1.15-.36-1.72h-.02c0,.57-.04,1.25-.07,1.85l-.09,1.94h-.7l.34-5.09h.85l.49,2.06c.16,.66,.29,1.19,.39,1.77h.02c.09-.57,.2-1.1,.36-1.77l.48-2.06h.87l.3,5.09h-.73l-.1-1.96Z"/>
    <path class="cls-3" d="M77.52,79.92v3.36c0,.82,.26,1.09,.57,1.09,.36,0,.59-.26,.59-1.09v-3.36h.81v3.22c0,1.31-.52,1.93-1.4,1.93-.93,0-1.38-.64-1.38-1.9v-3.26h.81Z"/>
    <path class="cls-3" d="M81.88,79.92h.81v4.41h1.36v.68h-2.17v-5.09Z"/>
    <path class="cls-3" d="M86.91,83.69l-.27,1.32h-.79l1.13-5.09h.94l1.05,5.09h-.79l-.27-1.32h-1.01Zm.93-.63l-.21-1.17c-.07-.33-.14-.8-.19-1.16h-.02c-.05,.36-.13,.85-.19,1.16l-.23,1.16h.84Z"/>
    <path class="cls-3" d="M91.08,79.99c.23-.06,.56-.1,.91-.1,.59,0,1.01,.14,1.31,.42,.42,.37,.67,1.04,.67,2.06,0,1.1-.27,1.78-.66,2.16-.34,.35-.84,.51-1.5,.51-.28,0-.56-.02-.74-.05v-5Zm.8,4.38c.07,.02,.14,.02,.2,.02,.56,0,1.07-.47,1.07-2.02,0-1.16-.32-1.82-1.03-1.82-.08,0-.17,0-.23,.02v3.8Z"/>
    <path class="cls-3" d="M97.43,85.07c-1.01,0-1.52-1.07-1.52-2.61s.57-2.6,1.6-2.6,1.49,1.16,1.49,2.54c0,1.92-.67,2.68-1.56,2.68h0Zm.05-.7c.52,0,.69-.91,.69-1.93,0-.92-.15-1.87-.7-1.87s-.73,.94-.72,1.89c0,1,.18,1.92,.72,1.92h0Z"/>
    <path class="cls-3" d="M101.17,79.99c.28-.07,.63-.1,.97-.1,.53,0,.97,.09,1.26,.37,.29,.27,.38,.61,.38,1.04,0,.59-.29,1.05-.8,1.28v.02c.36,.13,.54,.47,.65,1.07,.11,.62,.23,1.16,.31,1.34h-.84c-.06-.14-.17-.64-.26-1.24-.1-.66-.29-.88-.69-.88h-.18v2.12h-.8v-5.02Zm.8,2.28h.21c.48,0,.79-.38,.79-.9s-.2-.84-.73-.85c-.11,0-.2,0-.27,.03v1.72Z"/>
    <path class="cls-3" d="M108.05,82.69h-1.21v1.62h1.37v.7h-2.18v-5.09h2.09v.7h-1.28v1.4h1.21v.67Z"/>
    <path class="cls-3" d="M110.27,84.15c.19,.11,.52,.2,.79,.2,.5,0,.77-.29,.77-.71s-.25-.64-.66-.93c-.57-.36-.96-.87-.96-1.42,0-.79,.54-1.42,1.49-1.42,.32,0,.62,.1,.76,.18l-.14,.69c-.14-.09-.36-.17-.63-.17-.46,0-.68,.31-.68,.62,0,.39,.2,.57,.73,.91,.64,.42,.9,.91,.9,1.46,0,.91-.65,1.5-1.56,1.5-.38,0-.76-.11-.92-.21l.14-.69Z"/>
  </g>
  <g>
    <path class="cls-1" d="M157.16,45.62s5.34,1.84,6.08,8.66c.74,6.81,0-13.81,0-13.81,0,0-.55,1.47-6.08,5.16Z"/>
    <path class="cls-1" d="M12.22,48.93s8.47-4.79,43.65-4.05c0,0,11.05-10.5,31.86-13.08,0,0,19.92-1.63,46.41,7.18,0,0,8.13,2.96,20.81,5.71,0,0,6.26-4.05,7-6.63,0,0-6.58,2.39-21.73-1.29,0,0-35.2-12.86-61.33-7,0,0-15.47,3.13-25.23,10.68,0,0-27.81-.55-41.44,8.47Z"/>
    <path class="cls-1" d="M6.51,56.92s1.47-3.5,10.68-3.87c0,0,.27-1.07,2.95-3.68,0,0-9.21-2.03-13.63,7.55Z"/>
    <path class="cls-1" d="M92.52,45.8h-31.68s13.63-11.6,26.24-11.05c0,0-13.9,2.76-17.59,8.47l23.02,2.58Z"/>
    <path class="cls-1" d="M96.57,45.8v-9.58s18.05-.74,29.65,4.24c0,0-8.84-6.81-31.12-6.63l1.47,11.97Z"/>
  </g>
  <g>
    <rect class="cls-3" x="114.47" y="79.74" width="10.22" height=".45"/>
    <rect class="cls-3" x="114.47" y="80.98" width="9.31" height=".45"/>
    <rect class="cls-3" x="114.47" y="82.21" width="7.83" height=".45"/>
    <rect class="cls-3" x="114.47" y="83.45" width="6.3" height=".45"/>
    <rect class="cls-3" x="114.47" y="84.69" width="3.91" height=".45"/>
  </g>
  <g>
    <rect class="cls-3" x="43.51" y="79.51" width="10.22" height=".45"/>
    <rect class="cls-3" x="44.41" y="80.75" width="9.31" height=".45"/>
    <rect class="cls-3" x="45.9" y="81.99" width="7.83" height=".45"/>
    <rect class="cls-3" x="47.42" y="83.23" width="6.3" height=".45"/>
    <rect class="cls-3" x="49.81" y="84.47" width="3.91" height=".45"/>
  </g>
  <path class="cls-1" d="M160.3,65.83s3.2,15.65-16.28,14.83c0,0,20.81,5.87,19.48-14.83h-3.2Z"/>
  <path class="cls-1" d="M9.77,65.86s-3.2,15.65,16.28,14.83c0,0-20.81,5.87-19.48-14.83h3.2Z"/>
</svg>