<?xml version="1.0" encoding="UTF-8"?>
<svg id="Capa_1" data-name="Capa 1" xmlns="http://www.w3.org/2000/svg" viewBox="0 0 170.08 113.39">
  <defs>
    <style>
      .cls-1 {
        fill: #001388;
      }

      .cls-2 {
        fill: #b5221e;
      }
    </style>
  </defs>
  <g>
    <path class="cls-2" d="M72.78,41.77l-.35,1.37h-1.22l1.54-5.53h1.53l1.53,5.53h-1.26l-.37-1.37h-1.41Zm1.25-.9l-.3-1.17c-.08-.33-.17-.79-.25-1.12h-.02c-.07,.34-.16,.8-.24,1.12l-.29,1.17h1.09Z"/>
    <path class="cls-2" d="M80.78,43.05c-.19,.09-.56,.17-.99,.17-1.21,0-1.99-.77-1.99-2.05,0-1.2,.78-2.13,2.16-2.13,.31,0,.63,.06,.84,.14l-.18,.9c-.13-.06-.33-.11-.61-.11-.62,0-1.01,.48-1,1.15,0,.73,.44,1.14,1.01,1.14,.26,0,.45-.05,.62-.12l.13,.9Z"/>
    <path class="cls-2" d="M86.59,41.88c0,.49,.02,.92,.03,1.27h-1.04l-.06-.52h-.02c-.17,.26-.53,.61-1.15,.61-.8,0-1.31-.53-1.31-1.72v-2.39h1.2v2.21c0,.57,.16,.92,.56,.92,.29,0,.47-.21,.54-.39,.03-.07,.05-.18,.05-.29v-2.45h1.2v2.75Z"/>
    <path class="cls-2" d="M89.17,40.39c0-.48-.02-.89-.03-1.26h1.02l.05,.52h.02c.18-.27,.53-.6,1.14-.6,.5,0,.87,.25,1.03,.65h.02c.14-.2,.3-.36,.49-.47,.2-.12,.43-.18,.7-.18,.75,0,1.26,.55,1.26,1.68v2.42h-1.17v-2.24c0-.54-.15-.89-.53-.89-.26,0-.44,.18-.52,.41-.03,.08-.04,.2-.04,.31v2.41h-1.17v-2.33c0-.44-.14-.8-.51-.8-.27,0-.46,.21-.53,.42-.03,.09-.05,.2-.05,.31v2.39h-1.17v-2.76Z"/>
    <path class="cls-2" d="M100.96,41.88c0,.49,.02,.92,.03,1.27h-1.04l-.06-.52h-.02c-.17,.26-.53,.61-1.15,.61-.8,0-1.31-.53-1.31-1.72v-2.39h1.2v2.21c0,.57,.16,.92,.56,.92,.29,0,.47-.21,.54-.39,.03-.07,.05-.18,.05-.29v-2.45h1.2v2.75Z"/>
    <path class="cls-2" d="M103.53,37.36h1.2v5.79h-1.2v-5.79Z"/>
    <path class="cls-2" d="M109.45,43.15l-.07-.4h-.02c-.25,.32-.63,.48-1.07,.48-.75,0-1.23-.56-1.23-1.23,0-1.05,.93-1.53,2.2-1.53v-.06c0-.24-.14-.53-.68-.53-.38,0-.76,.12-1.02,.28l-.22-.78c.26-.15,.79-.34,1.47-.34,1.3,0,1.66,.81,1.66,1.72v1.43c0,.36,.02,.72,.06,.96h-1.08Zm-.15-1.92c-.57,0-1.07,.15-1.07,.65,0,.35,.22,.5,.46,.5,.27,0,.5-.17,.58-.43,.02-.06,.02-.13,.02-.2v-.52Z"/>
    <path class="cls-2" d="M116.62,37.36v4.59c0,.43,.02,.9,.03,1.2h-1.06l-.05-.55h-.02c-.22,.4-.66,.63-1.13,.63-.92,0-1.58-.85-1.58-2.06,0-1.36,.77-2.12,1.65-2.12,.45,0,.79,.18,.94,.44h.02v-2.12h1.2Zm-1.2,3.42c0-.07,0-.16-.02-.23-.06-.31-.29-.57-.62-.57-.51,0-.76,.52-.76,1.16,0,.7,.3,1.12,.75,1.12,.29,0,.54-.19,.62-.52,.02-.08,.03-.17,.03-.27v-.69Z"/>
    <path class="cls-2" d="M122.84,41.1c0,1.53-1.01,2.12-1.94,2.12-1.11,0-1.91-.77-1.91-2.07s.83-2.12,1.97-2.12,1.89,.83,1.89,2.06Zm-2.63,.03c0,.69,.24,1.22,.72,1.22,.45,0,.69-.54,.69-1.23,0-.58-.19-1.22-.69-1.22-.53,0-.72,.64-.72,1.22Z"/>
    <path class="cls-2" d="M125.2,40.42c0-.53-.01-.94-.03-1.29h1.03l.05,.7h.03c.2-.54,.64-.78,1-.78,.11,0,.17,0,.26,.02v1.14c-.09-.02-.18-.03-.31-.03-.39,0-.7,.22-.79,.62-.02,.08-.03,.19-.03,.32v2.04h-1.2v-2.73Z"/>
    <path class="cls-2" d="M130.64,41.53c.03,.55,.5,.79,1.05,.79,.39,0,.71-.06,1-.16l.16,.82c-.37,.15-.85,.23-1.35,.23-1.28,0-2.01-.77-2.01-2.02,0-1.12,.66-2.15,1.9-2.15,1.17,0,1.67,.91,1.67,1.97,0,.24-.02,.42-.04,.51h-2.38Zm1.31-.83c0-.37-.13-.85-.63-.85s-.67,.49-.69,.85h1.32Z"/>
    <path class="cls-2" d="M135.39,42.09c.21,.13,.63,.27,.97,.27s.51-.13,.51-.34-.13-.32-.55-.49c-.78-.3-1.05-.75-1.05-1.19,0-.75,.6-1.31,1.54-1.31,.43,0,.8,.1,1.04,.22l-.21,.84c-.17-.09-.47-.21-.78-.21s-.46,.13-.46,.33,.14,.29,.6,.48c.71,.28,1,.68,1,1.23,0,.77-.59,1.29-1.64,1.29-.47,0-.92-.11-1.18-.27l.22-.86Z"/>
  </g>
  <g>
    <g>
      <path class="cls-2" d="M5.58,63.96c0-1.15,0-2.3,0-3.45,0-.45,.3-.7,.63-.94,3.13-2.31,6.66-3.62,10.48-4.19,.75-.11,1.5-.27,2.29-.1-1.73,.41-3.4,.99-5,1.76-1.65,.79-3.18,1.77-4.52,3.03-1.32,1.25-2.61,2.52-3.68,4l-.22-.11Z"/>
      <path class="cls-2" d="M18.22,51.32c1.23-.42,2.47-.34,3.72-.01,1.53,.4,3.08,.75,4.61,1.16,.68,.18,1.37,.08,2.3,.17-.84,.39-1.48,.67-2.11,1-.45,.23-.94,.35-1.18,.96-.21,.55-1.6,.51-2.14,.04-.36-.31-.62-.7-.78-1.13-.53-1.42-1.63-1.89-3.04-1.9-.47,0-.93,0-1.4,0,0-.09,0-.18,.01-.28Z"/>
      <path class="cls-2" d="M32.37,53.65c-.77,.18-1.4,.33-2.05,.31-.28,0-.68,.09-.6-.4,.06-.34,.26-.65,.68-.52,.6,.19,1.27,.2,1.96,.61Z"/>
      <path class="cls-1" d="M52.12,37.52c0-.73-.16-.96-.93-.95-3.85,.04-7.7,.04-11.54,0-.67,0-.98,.19-1.22,.83-1.44,3.92-2.95,7.81-4.4,11.73-.23,.62-.45,.86-1.13,.54-.66-.31-1.38-.48-2.12-.49-.29,0-.48-.11-.66-.35-1.77-2.36-4.29-3.35-7.08-3.8-.58-.09-.85-.32-1.05-.85-.86-2.3-1.78-4.57-2.63-6.87-.2-.54-.47-.76-1.07-.75-3.91,.03-7.83,.03-11.74,0-.7,0-.89,.19-.88,.89,.03,4.44,.02,8.89,.03,13.33,0,.21-.11,.47,.2,.65,.27-.16,.55-.33,.82-.5,4.14-2.54,8.63-3.85,13.5-3.87,3.43-.01,6.51,.79,8.74,3.64,.29,.37,.7,.36,1.07,.43,1.63,.31,3.09,.97,4.37,2.03,2.2,1.84,2.94,4.89,1.73,7.06-.28,.5-.51,.68-1.03,.22-1.56-1.4-3.45-1.87-5.51-1.91-3.79-.07-7.34,.88-10.53,2.82-5.25,3.18-8.18,7.8-8.15,14.1,0,.7,.22,.92,.91,.89,1.09-.05,2.19-.01,3.28-.01,1.69,0,1.69,0,1.7-1.73,.03-3.26,.73-6.32,2.76-8.96,.19-.25,.33-.68,.69-.61,.3,.06,.3,.48,.39,.75,1.1,3.2,2.21,6.39,3.27,9.6,.23,.71,.53,.99,1.31,.98,2.45-.06,4.91-.06,7.36,0,.78,.02,1.07-.27,1.31-.97,1.67-5,3.39-9.98,5.09-14.97,.58-1.7,1.19-3.4,1.78-5.1,.07,.01,.15,.03,.22,.04,0,.35,0,.69,0,1.04,0,6.33,.01,12.67-.01,19,0,.73,.17,.97,.93,.96,3.08-.04,6.17-.04,9.25,0,.73,0,.96-.16,.95-.93-.03-12.63-.02-25.27,0-37.9Z"/>
    </g>
    <g>
      <path class="cls-1" d="M61.88,61c0,.47-.04,1.12-.12,1.97-.08,.84-.16,1.72-.23,2.63-.08,.91-.16,1.77-.23,2.56-.08,.8-.12,1.38-.12,1.73,0,.78,.19,1.38,.58,1.82,.39,.43,.93,.65,1.62,.65,.6,0,1.1-.24,1.52-.72,.41-.48,.74-1.1,1-1.87,.25-.77,.46-1.64,.62-2.61,.16-.98,.27-1.96,.35-2.96,.08-1,.14-1.97,.2-2.91,.06-.94,.12-1.76,.18-2.45,.02-.18,.09-.33,.2-.47,.11-.13,.29-.2,.53-.2h1.2c.69,0,1.25,.07,1.68,.22,.43,.14,.78,.35,1.03,.62,.25,.27,.43,.59,.53,.98,.1,.39,.15,.84,.15,1.35,0,.33-.02,.81-.05,1.42-.03,.61-.09,1.45-.18,2.53-.09,1.08-.19,2.44-.32,4.1-.12,1.65-.27,3.7-.45,6.15-.04,.47-.09,.74-.15,.83-.06,.09-.24,.13-.55,.13h-1.3c-.67,0-1.22-.08-1.65-.23-.43-.15-.78-.36-1.05-.6-.27-.24-.46-.53-.57-.87-.11-.33-.18-.68-.2-1.03-.33,.58-.71,1.07-1.12,1.47-.41,.4-.84,.72-1.28,.95-.44,.23-.9,.4-1.37,.5-.47,.1-.92,.15-1.37,.15-.84,0-1.6-.14-2.26-.42-.67-.28-1.23-.65-1.68-1.12-.46-.47-.81-1.02-1.05-1.67-.24-.64-.37-1.33-.37-2.06,0-.29,.02-.76,.05-1.42,.03-.65,.08-1.39,.13-2.21,.05-.82,.12-1.69,.18-2.61,.07-.92,.13-1.79,.18-2.61,.05-.82,.11-1.54,.17-2.16,.06-.62,.09-1.07,.12-1.33,.04-.4,.13-.67,.27-.82,.13-.14,.35-.22,.67-.22h1.07c.69,0,1.25,.07,1.7,.2,.44,.13,.79,.32,1.05,.57,.25,.24,.43,.54,.53,.88,.1,.34,.15,.74,.15,1.18Z"/>
      <path class="cls-1" d="M86.26,66.13c-.13,0-.28,0-.45-.02-.17-.01-.33-.03-.48-.07-.16-.03-.29-.08-.4-.13-.11-.06-.17-.13-.17-.22,0-.29,.01-.55,.03-.8,.02-.24,.03-.5,.03-.77,0-.49-.07-.89-.2-1.2s-.4-.47-.8-.47c-.62,0-1.14,.41-1.55,1.22-.41,.81-.67,2.03-.78,3.65-.04,.71-.11,1.52-.18,2.41-.08,.9-.15,1.77-.22,2.6-.07,.83-.12,1.57-.17,2.21-.04,.64-.07,1.07-.07,1.27,0,.22-.08,.39-.23,.5-.16,.11-.32,.17-.5,.17h-1.2c-.69,0-1.25-.07-1.68-.22-.43-.14-.78-.35-1.03-.62-.26-.27-.43-.59-.53-.98-.1-.39-.15-.84-.15-1.35,0-.33,.02-.8,.05-1.42,.03-.61,.09-1.45,.18-2.53,.09-1.08,.19-2.44,.32-4.1,.12-1.65,.27-3.7,.45-6.14,.04-.64,.28-.97,.7-.97h1.3c.62,0,1.14,.07,1.57,.2,.42,.13,.77,.32,1.03,.55,.27,.23,.46,.51,.58,.82,.12,.31,.21,.63,.25,.97,.27-.51,.58-.95,.95-1.32,.37-.37,.75-.67,1.15-.9,.4-.23,.81-.4,1.23-.5s.81-.15,1.17-.15c.42,0,.85,.08,1.28,.23,.43,.16,.83,.39,1.18,.7,.36,.31,.64,.71,.85,1.2,.21,.49,.32,1.07,.32,1.73,0,.6-.09,1.17-.27,1.7s-.43,1.01-.77,1.42c-.33,.41-.74,.73-1.22,.97-.48,.23-1,.35-1.58,.35Z"/>
      <path class="cls-1" d="M102.22,66.13c-.13,0-.28,0-.45-.02-.17-.01-.33-.03-.48-.07-.16-.03-.29-.08-.4-.13-.11-.06-.17-.13-.17-.22,0-.29,.01-.55,.03-.8,.02-.24,.03-.5,.03-.77,0-.49-.07-.89-.2-1.2-.13-.31-.4-.47-.8-.47-.62,0-1.14,.41-1.55,1.22-.41,.81-.67,2.03-.78,3.65-.04,.71-.11,1.52-.18,2.41-.08,.9-.15,1.77-.22,2.6-.07,.83-.12,1.57-.17,2.21-.04,.64-.07,1.07-.07,1.27,0,.22-.08,.39-.23,.5-.16,.11-.32,.17-.5,.17h-1.2c-.69,0-1.25-.07-1.68-.22-.43-.14-.78-.35-1.03-.62s-.43-.59-.53-.98c-.1-.39-.15-.84-.15-1.35,0-.33,.02-.8,.05-1.42,.03-.61,.09-1.45,.18-2.53,.09-1.08,.19-2.44,.32-4.1,.12-1.65,.27-3.7,.45-6.14,.04-.64,.28-.97,.7-.97h1.3c.62,0,1.14,.07,1.57,.2,.42,.13,.77,.32,1.03,.55,.27,.23,.46,.51,.58,.82,.12,.31,.21,.63,.25,.97,.27-.51,.58-.95,.95-1.32,.37-.37,.75-.67,1.15-.9,.4-.23,.81-.4,1.23-.5,.42-.1,.81-.15,1.17-.15,.42,0,.85,.08,1.28,.23,.43,.16,.83,.39,1.18,.7,.36,.31,.64,.71,.85,1.2,.21,.49,.32,1.07,.32,1.73,0,.6-.09,1.17-.27,1.7-.18,.53-.43,1.01-.77,1.42-.33,.41-.74,.73-1.22,.97-.48,.23-1,.35-1.58,.35Z"/>
      <path class="cls-1" d="M110.84,76.49c-.69,0-1.25-.07-1.68-.22-.43-.14-.78-.35-1.03-.62s-.43-.59-.53-.98c-.1-.39-.15-.84-.15-1.35,0-.33,.02-.8,.05-1.42,.03-.61,.09-1.45,.18-2.53,.09-1.08,.19-2.44,.32-4.1,.12-1.65,.27-3.7,.45-6.14,.02-.49,.08-.78,.17-.87,.07-.07,.24-.1,.53-.1h1.3c.69,0,1.25,.07,1.68,.2,.43,.13,.78,.33,1.03,.6,.25,.27,.43,.59,.53,.97,.1,.38,.15,.8,.15,1.27,0,.33-.02,.83-.07,1.5-.04,.67-.11,1.57-.18,2.71-.08,1.14-.18,2.56-.32,4.26-.13,1.7-.3,3.75-.5,6.14-.02,.27-.08,.44-.17,.53-.09,.09-.28,.13-.57,.13h-1.2Zm-2.36-22.25c0-.89,.32-1.59,.97-2.1,.64-.51,1.51-.77,2.6-.77,.95,0,1.65,.19,2.08,.58,.43,.39,.65,.91,.65,1.55,0,.82-.31,1.5-.92,2.05-.61,.54-1.5,.82-2.68,.82-1.8,0-2.7-.71-2.7-2.13Z"/>
      <path class="cls-1" d="M124.46,76.82c-.98,0-1.95-.12-2.91-.37-.97-.24-1.83-.67-2.6-1.27-.77-.6-1.39-1.4-1.88-2.4-.49-1-.73-2.25-.73-3.76,0-.56,.04-1.22,.13-2,.09-.78,.26-1.58,.52-2.4,.25-.82,.61-1.64,1.07-2.45,.45-.81,1.05-1.54,1.78-2.18,.73-.64,1.62-1.17,2.66-1.57,1.04-.4,2.29-.6,3.73-.6,1.15,0,2.13,.13,2.93,.4,.8,.27,1.44,.63,1.93,1.08,.49,.46,.84,.98,1.07,1.58,.22,.6,.33,1.24,.33,1.93,0,1.02-.21,1.89-.62,2.6-.41,.71-.94,1.3-1.6,1.78-.66,.48-1.38,.85-2.18,1.12-.8,.27-1.59,.47-2.37,.62-.78,.14-1.49,.23-2.15,.27-.66,.03-1.16,.05-1.52,.05,0,.42,.06,.84,.18,1.25,.12,.41,.3,.77,.55,1.08,.24,.31,.57,.57,.97,.77,.4,.2,.89,.3,1.47,.3s1.03-.09,1.35-.28c.32-.19,.58-.4,.78-.63,.2-.23,.37-.44,.52-.63,.14-.19,.34-.28,.58-.28,.11,0,.3,.03,.58,.08,.28,.06,.56,.17,.85,.35,.29,.18,.54,.42,.77,.73,.22,.31,.33,.71,.33,1.2,0,.64-.2,1.2-.6,1.67-.4,.47-.92,.84-1.55,1.13-.63,.29-1.34,.5-2.11,.63-.78,.13-1.53,.2-2.26,.2Zm.63-14.56c-.49,0-.91,.14-1.25,.42-.34,.28-.63,.63-.87,1.05-.23,.42-.41,.89-.53,1.4-.12,.51-.22,1-.28,1.47,1.38-.02,2.49-.25,3.35-.7,.85-.44,1.28-1.08,1.28-1.9,0-.44-.14-.84-.42-1.2-.28-.35-.71-.53-1.28-.53Z"/>
      <path class="cls-1" d="M141.65,62.67c-.07,.84-.14,1.68-.22,2.5-.08,.82-.15,1.6-.22,2.33-.07,.73-.12,1.39-.15,1.96-.03,.58-.05,1.02-.05,1.33,0,.58,.07,.96,.2,1.15,.13,.19,.36,.28,.67,.28,.24,0,.45-.04,.63-.13,.18-.09,.34-.19,.5-.3,.16-.11,.29-.21,.42-.3,.12-.09,.26-.13,.42-.13s.3,.09,.43,.27c.13,.18,.2,.59,.2,1.23,0,1.22-.33,2.19-1,2.9-.67,.71-1.81,1.07-3.43,1.07s-2.78-.37-3.55-1.12c-.77-.74-1.15-1.88-1.15-3.41,0-.33,.02-.73,.05-1.18,.03-.45,.08-1.05,.15-1.78,.07-.73,.15-1.63,.25-2.7,.1-1.07,.21-2.39,.32-3.96h-1.77c-.18,0-.28-.04-.32-.12-.03-.08-.05-.19-.05-.35l.1-1.7c.02-.29,.06-.57,.12-.85,.05-.28,.17-.53,.33-.75,.17-.22,.4-.4,.72-.53,.31-.13,.72-.2,1.23-.2,.16-.4,.33-.88,.53-1.43,.2-.55,.4-1.09,.6-1.62s.39-.96,.58-1.32c.19-.35,.36-.53,.52-.53h.97c.93,0,1.58,.29,1.93,.87,.35,.58,.53,1.27,.53,2.07,0,.44-.03,1.1-.1,1.96h3.5c.35,0,.53,.16,.53,.47l-.13,1.8c-.04,.67-.23,1.21-.55,1.62-.32,.41-.98,.62-1.98,.62h-1.77Z"/>
      <path class="cls-1" d="M146.78,72.39c0-2,.9-3.56,2.7-4.7,1.8-1.13,4.45-1.74,7.96-1.83,.02-.24,.04-.45,.05-.62,.01-.17,.02-.37,.02-.62,0-.71-.13-1.28-.4-1.7s-.82-.63-1.67-.63c-.47,0-.84,.07-1.13,.2-.29,.13-.52,.32-.7,.55-.18,.23-.32,.52-.43,.85-.11,.33-.21,.7-.3,1.1-.04,.2-.14,.33-.3,.38-.16,.06-.4,.08-.73,.08-2.26,0-3.4-.85-3.4-2.56,0-.69,.16-1.34,.48-1.97,.32-.62,.8-1.16,1.43-1.62,.63-.45,1.43-.82,2.38-1.08,.95-.27,2.07-.4,3.33-.4,2.46,0,4.25,.51,5.36,1.53,1.11,1.02,1.67,2.46,1.67,4.33,0,.24-.03,.68-.08,1.32-.06,.63-.12,1.3-.2,2-.08,.7-.14,1.36-.2,1.98-.06,.62-.08,1.06-.08,1.3,0,.56,.1,.95,.3,1.18,.2,.23,.43,.39,.68,.48,.25,.09,.48,.16,.68,.2,.2,.04,.3,.16,.3,.33,0,.49-.07,.99-.2,1.5-.13,.51-.35,.98-.65,1.4-.3,.42-.71,.77-1.23,1.03-.52,.27-1.16,.4-1.91,.4-1.07,0-1.87-.26-2.4-.77s-.89-1.22-1.07-2.13c-.53,.78-1.23,1.45-2.08,2.03-.86,.58-1.97,.87-3.35,.87-.67,0-1.29-.08-1.88-.23-.59-.16-1.1-.41-1.53-.77-.43-.35-.78-.82-1.03-1.38-.26-.57-.38-1.25-.38-2.05Zm10.36-3.8c-.58,0-1.14,.04-1.7,.13-.56,.09-1.05,.23-1.48,.42-.43,.19-.78,.44-1.05,.75s-.4,.69-.4,1.13c0,.51,.16,.87,.48,1.07,.32,.2,.67,.3,1.05,.3,.35,0,.71-.08,1.07-.23,.35-.16,.67-.39,.95-.72,.28-.32,.52-.72,.72-1.18,.2-.47,.32-1.02,.37-1.67Z"/>
    </g>
  </g>
</svg>