<?xml version="1.0" encoding="UTF-8"?>
<svg id="Capa_1" data-name="Capa 1" xmlns="http://www.w3.org/2000/svg" viewBox="0 0 170.08 113.39">
  <defs>
    <style>
      .cls-1 {
        fill: #69a5cb;
      }

      .cls-2 {
        fill: #b1b1b1;
      }

      .cls-3 {
        fill: #93b85c;
      }
    </style>
  </defs>
  <path class="cls-1" d="M24.13,45.64c1.61,0,3.02,.22,4.23,.65,1.21,.44,2.22,1.02,3.02,1.74,.8,.72,1.41,1.55,1.82,2.49,.41,.94,.61,1.91,.61,2.92,0,.94-.18,1.87-.55,2.79-.36,.92-.91,1.77-1.64,2.54-.73,.78-1.66,1.45-2.77,2.01-1.12,.57-2.43,.96-3.93,1.19-.03,.7-.05,1.34-.07,1.92,0,.25-.02,.5-.03,.75-.01,.25-.02,.48-.02,.68,0,.21-.01,.39-.02,.54,0,.15,0,.26,0,.32-.02,.67-.1,1.37-.24,2.09-.14,.72-.34,1.43-.6,2.12-.26,.69-.58,1.34-.96,1.96-.38,.62-.82,1.16-1.32,1.62-.5,.46-1.07,.83-1.69,1.11-.62,.27-1.3,.41-2.04,.41-.79,0-1.49-.2-2.11-.61-.62-.41-1.16-.96-1.62-1.65-.47-.69-.86-1.48-1.18-2.38-.32-.9-.58-1.84-.78-2.82-.2-.98-.35-1.97-.44-2.97-.09-1-.14-1.94-.14-2.82,0-1.51,.14-2.97,.42-4.38,.28-1.41,.68-2.73,1.19-3.96,.52-1.23,1.15-2.35,1.88-3.37,.74-1.02,1.57-1.89,2.49-2.62,.92-.73,1.93-1.29,3.02-1.69,1.09-.4,2.24-.6,3.47-.6m-8.62,16.24c0,.39,0,.92,0,1.59,0,.67,.03,1.38,.08,2.13,.05,.76,.12,1.52,.23,2.3,.11,.78,.26,1.48,.47,2.11,.21,.63,.46,1.14,.78,1.54,.31,.4,.7,.6,1.17,.6s.91-.17,1.25-.51,.63-.78,.86-1.32c.23-.54,.41-1.15,.55-1.84,.13-.68,.23-1.37,.3-2.06,.07-.69,.11-1.35,.13-1.98,.02-.63,.03-1.16,.03-1.6v-.67c-.79-.32-1.42-.6-1.87-.83-.46-.24-.8-.47-1.03-.69-.23-.22-.38-.45-.44-.7-.06-.24-.09-.53-.09-.85,0-.17,0-.34,.01-.51,0-.17,.04-.32,.08-.45,.04-.13,.11-.23,.19-.32,.08-.08,.19-.12,.34-.12,.1,0,.18,.02,.27,.06,.08,.04,.18,.09,.31,.16,.32,.17,.6,.31,.86,.43,.26,.11,.48,.2,.66,.27,.21,.08,.4,.13,.57,.17,0-.13,0-.37,0-.74,0-.37,.03-.79,.09-1.26,.05-.47,.14-.97,.27-1.49,.12-.52,.31-.99,.55-1.42,.24-.43,.55-.79,.93-1.07,.38-.28,.86-.42,1.42-.42,.17,0,.35,.02,.53,.05,.18,.03,.35,.1,.49,.19,.15,.09,.27,.21,.37,.37,.1,.15,.15,.35,.15,.59,0,.07,0,.11,0,.14,0,.02,0,.05,0,.09l-.88,3.69-.13,1.14c.94-.14,1.75-.37,2.43-.69,.68-.32,1.24-.69,1.69-1.12s.78-.91,.99-1.42c.22-.52,.32-1.05,.32-1.6s-.1-1.09-.31-1.64c-.21-.56-.56-1.07-1.07-1.53-.51-.46-1.19-.84-2.04-1.13-.85-.3-1.93-.45-3.22-.45-.97,0-1.84,.18-2.63,.55-.79,.37-1.49,.87-2.1,1.5-.61,.63-1.15,1.37-1.6,2.21-.45,.84-.82,1.74-1.11,2.69-.29,.95-.51,1.93-.65,2.94-.14,1.01-.21,2-.21,2.95"/>
  <path class="cls-3" d="M124.79,41.11c.15,0,.32-.02,.5-.05,.16-.03,.36-.06,.59-.11,.23-.05,.49-.12,.79-.21,.11-.03,.21-.06,.28-.08,.07-.02,.15-.02,.23,0,.12,.02,.21,.08,.26,.16,.05,.08,.09,.18,.1,.29,.01,.11,.01,.24,0,.38-.02,.14-.04,.28-.07,.43-.05,.27-.13,.5-.22,.69-.09,.19-.26,.35-.48,.51-.65,.48-1.93,.57-2.65,.45m.49-1.45c-.05,.3,.07-.49,.16-.92"/>
  <path class="cls-1" d="M37.76,71.83c-.9,0-1.69-.16-2.36-.49-.68-.33-1.24-.76-1.69-1.32-.45-.55-.79-1.19-1.01-1.91-.23-.72-.34-1.48-.34-2.28,0-.54,.05-1.1,.16-1.7,.11-.6,.27-1.19,.48-1.76,.22-.57,.49-1.12,.81-1.64,.33-.52,.71-.98,1.14-1.38,.44-.4,.92-.71,1.47-.95,.54-.24,1.14-.35,1.8-.35,.54,0,1.04,.09,1.49,.26,.46,.17,.86,.41,1.2,.73,.34,.31,.61,.69,.8,1.13,.19,.44,.29,.93,.29,1.48,0,.59-.15,1.19-.44,1.78-.29,.6-.7,1.15-1.21,1.68-.52,.53-1.13,1-1.85,1.41-.71,.41-1.49,.73-2.32,.96,.14,.26,.29,.47,.42,.65,.14,.17,.28,.31,.42,.4,.14,.1,.3,.16,.45,.2,.16,.04,.33,.06,.51,.06,.57,0,1.18-.11,1.82-.34,.64-.23,1.26-.52,1.86-.86,.6-.35,1.17-.72,1.71-1.13,.54-.41,.99-.79,1.36-1.16l1.85,1.93c-.84,.87-1.74,1.64-2.69,2.31-.41,.29-.85,.57-1.33,.85-.47,.28-.97,.53-1.49,.74-.52,.22-1.06,.39-1.62,.52-.56,.13-1.13,.19-1.7,.19m-1.91-6.75c.35,0,.72-.09,1.13-.27,.41-.18,.79-.4,1.14-.68,.35-.28,.64-.58,.88-.91,.24-.32,.36-.64,.36-.95,0-.43-.08-.79-.24-1.06-.16-.28-.35-.42-.58-.42-.41,0-.76,.08-1.06,.23-.29,.15-.54,.35-.73,.6-.2,.24-.35,.52-.47,.83-.12,.31-.21,.62-.27,.94-.06,.32-.1,.62-.12,.92-.02,.3-.03,.55-.03,.76"/>
  <path class="cls-1" d="M60.42,69.01c-.68,.53-1.35,1-2.01,1.41-.28,.17-.57,.34-.88,.51-.31,.17-.61,.32-.91,.44-.3,.13-.59,.24-.87,.32-.28,.08-.54,.12-.78,.12-.13,0-.33-.03-.6-.09-.26-.06-.55-.17-.86-.35-.31-.18-.62-.43-.93-.77-.31-.34-.58-.78-.81-1.34-.35,.34-.73,.67-1.13,.98-.4,.31-.81,.58-1.24,.81-.43,.23-.86,.41-1.29,.55-.44,.14-.87,.21-1.31,.21-.62,0-1.16-.13-1.62-.4-.45-.27-.83-.63-1.13-1.07-.3-.45-.53-.95-.68-1.52-.15-.57-.22-1.15-.22-1.75s.08-1.23,.24-1.86c.16-.63,.39-1.23,.69-1.82,.3-.59,.67-1.14,1.1-1.67,.43-.52,.92-.99,1.47-1.39,.55-.41,1.14-.74,1.78-1.01,.64-.27,1.33-.44,2.05-.5,.03-1.23,.14-2.44,.33-3.64,.19-1.2,.45-2.34,.76-3.42,.32-1.08,.69-2.08,1.11-3,.43-.92,.89-1.71,1.4-2.38,.51-.67,1.05-1.19,1.62-1.57,.57-.38,1.17-.57,1.78-.57,.45,0,.83,.12,1.15,.35s.57,.55,.77,.93c.2,.39,.34,.84,.42,1.35,.09,.51,.13,1.04,.13,1.59,0,.33-.01,.68-.04,1.03-.13,1.35-.35,2.63-.69,3.83-.34,1.2-.73,2.37-1.18,3.51-.45,1.14-.94,2.27-1.47,3.39-.53,1.12-1.04,2.28-1.54,3.49-.05,.13-.1,.3-.14,.49-.05,.19-.09,.4-.14,.62-.04,.23-.08,.46-.11,.69-.03,.23-.04,.46-.04,.68,0,.28,.02,.54,.05,.79,.03,.25,.09,.47,.17,.67,.08,.2,.18,.35,.31,.47,.13,.12,.29,.17,.48,.17s.38-.04,.6-.11c.21-.07,.44-.17,.68-.3,.24-.12,.48-.27,.72-.42,.24-.16,.48-.32,.71-.48,.53-.38,1.08-.82,1.65-1.31l.43,3.32Zm-9.88-8.05c-.63,.31-1.2,.71-1.69,1.21-.49,.5-.91,1.05-1.24,1.63-.33,.58-.58,1.17-.75,1.77-.17,.59-.26,1.13-.26,1.61,0,.19,.02,.38,.06,.57,.04,.19,.12,.36,.24,.52,.11,.15,.28,.28,.49,.37,.21,.1,.48,.14,.82,.14,.17,0,.34-.04,.51-.13,.17-.09,.33-.2,.48-.34,.15-.14,.3-.3,.44-.47,.14-.18,.27-.36,.38-.55,.27-.44,.51-.94,.73-1.49-.03-.13-.05-.35-.07-.64-.02-.29-.03-.62-.04-.98,0-.36-.02-.73-.03-1.11-.01-.38-.02-.73-.02-1.05,0-.32-.01-.57-.02-.78,0-.2-.02-.3-.03-.29m6.75-10.42c.06-.67,.09-1.2,.09-1.6,0-.52-.04-.88-.14-1.08-.09-.2-.22-.3-.4-.3-.31,0-.58,.19-.83,.58-.25,.39-.47,.88-.66,1.49-.19,.6-.36,1.27-.5,2-.14,.73-.26,1.43-.36,2.11-.1,.68-.17,1.29-.23,1.84-.06,.55-.1,.93-.11,1.16-.04,.47-.07,.92-.09,1.36-.02,.44-.04,.83-.05,1.19-.01,.36-.02,.67-.02,.94v.76c.55-1.24,1.05-2.49,1.51-3.72,.19-.53,.38-1.08,.58-1.66,.2-.58,.38-1.16,.54-1.75,.16-.58,.3-1.16,.42-1.72,.12-.56,.2-1.1,.25-1.61"/>
  <path class="cls-1" d="M68.35,68.77c-.34,.32-.77,.65-1.29,1.01-.51,.36-1.06,.69-1.66,.99-.59,.3-1.2,.55-1.82,.75-.62,.2-1.2,.3-1.76,.3-.5,0-.92-.07-1.26-.21-.34-.14-.62-.33-.83-.58-.21-.25-.36-.55-.45-.91-.09-.36-.14-.75-.14-1.19,0-.6,.07-1.31,.21-2.11,.14-.8,.31-1.63,.51-2.49,.2-.86,.41-1.71,.64-2.57,.23-.85,.42-1.64,.6-2.36,.07-.25,.2-.46,.4-.64,.2-.18,.43-.32,.68-.43,.25-.11,.52-.19,.79-.24,.27-.05,.52-.08,.74-.08,.4,0,.68,.07,.82,.22,.14,.15,.21,.35,.21,.6,0,.21-.05,.51-.14,.91-.1,.4-.22,.85-.36,1.35-.14,.5-.3,1.04-.46,1.62-.16,.58-.32,1.16-.46,1.74-.14,.58-.26,1.15-.36,1.7-.1,.55-.14,1.05-.14,1.49s.05,.77,.14,1.03c.1,.25,.29,.38,.59,.38,.34,0,.73-.12,1.15-.36,.42-.24,.85-.53,1.28-.87s.85-.69,1.26-1.06c.41-.36,.78-.68,1.09-.94v2.92Zm-6.42-14.77c0-.22,.05-.47,.14-.75,.1-.28,.25-.54,.47-.78s.5-.45,.86-.62c.36-.17,.81-.25,1.34-.25,.34,0,.65,.04,.95,.12,.3,.08,.56,.19,.78,.35,.22,.16,.4,.37,.53,.62,.13,.26,.19,.57,.19,.92,0,.33-.05,.64-.16,.95-.11,.31-.27,.58-.5,.82-.23,.24-.52,.43-.87,.58-.35,.15-.77,.22-1.26,.22-.84,0-1.47-.2-1.87-.6-.4-.4-.6-.93-.6-1.59"/>
  <path class="cls-1" d="M82.36,68.31c-.22,.31-.51,.67-.88,1.08-.37,.41-.78,.81-1.24,1.18-.46,.37-.95,.69-1.48,.95-.53,.26-1.05,.39-1.58,.39-.63,0-1.16-.2-1.58-.61-.42-.41-.79-1-1.09-1.77-.23,.27-.51,.54-.85,.82-.34,.28-.7,.53-1.1,.75-.4,.23-.81,.41-1.24,.55-.43,.14-.86,.21-1.29,.21-.46,0-.91-.09-1.34-.28-.44-.19-.82-.45-1.16-.81-.34-.35-.6-.78-.8-1.28-.2-.5-.3-1.07-.3-1.7,0-.72,.1-1.46,.3-2.21,.2-.76,.48-1.5,.83-2.22,.35-.72,.77-1.4,1.26-2.05,.48-.64,1.01-1.2,1.59-1.68,.57-.48,1.18-.86,1.82-1.14,.64-.28,1.29-.42,1.95-.42,.22,0,.39,.04,.52,.13s.23,.19,.31,.3c.08,.11,.16,.22,.24,.32,.08,.11,.17,.18,.29,.23,.11,.05,.23,.08,.35,.09s.24,.02,.37,.02c.11,0,.21,0,.32,0,.11,0,.22,0,.32,0,.14,0,.28,.02,.4,.04,.12,.03,.23,.09,.33,.19,.1,.1,.17,.23,.22,.4,.05,.17,.08,.41,.08,.7,0,.46-.05,.97-.14,1.53-.1,.56-.2,1.14-.32,1.72-.12,.59-.22,1.18-.32,1.77-.1,.59-.14,1.15-.14,1.67,0,.45,.04,.8,.12,1.06,.08,.26,.26,.38,.52,.38,.2,0,.41-.05,.63-.15,.22-.1,.44-.23,.67-.4,.23-.16,.45-.35,.68-.55,.22-.21,.44-.42,.64-.64,.47-.52,.94-1.1,1.42-1.75l.69,3.19Zm-12.27-1.13c0,.24,.02,.47,.05,.7,.03,.23,.09,.43,.18,.6s.2,.32,.34,.43c.14,.11,.33,.17,.55,.17,.36,0,.68-.15,.96-.46,.29-.31,.54-.68,.75-1.11,.21-.43,.38-.88,.51-1.34,.13-.46,.21-.84,.25-1.15l.88-4.22c-.39,0-.78,.1-1.15,.29-.37,.2-.73,.46-1.06,.8-.33,.34-.63,.72-.91,1.15-.28,.43-.52,.88-.72,1.36-.2,.47-.36,.95-.47,1.43-.11,.48-.17,.93-.17,1.35"/>
  <path class="cls-3" d="M86.71,46.89c1.56,0,2.95,.13,4.17,.39,1.22,.26,2.28,.62,3.2,1.08,.91,.46,1.69,1.01,2.32,1.65,.63,.64,1.14,1.33,1.54,2.08s.68,1.55,.85,2.39c.18,.84,.27,1.7,.27,2.59,0,1.21-.13,2.43-.4,3.67-.27,1.24-.66,2.44-1.16,3.6-.51,1.16-1.13,2.25-1.87,3.26-.74,1.02-1.59,1.9-2.55,2.66-.96,.76-2.01,1.35-3.16,1.79-1.15,.44-2.39,.65-3.72,.65-.45,0-.91-.03-1.38-.1-.47-.07-.92-.16-1.36-.27-.44-.12-.86-.24-1.25-.39-.39-.14-.74-.29-1.04-.45-.12-.04-.22-.08-.29-.14-.07-.05-.13-.11-.17-.19-.04-.07-.06-.16-.07-.27,0-.11-.01-.24-.01-.4,0-1.59,.04-3.22,.12-4.88,.08-1.67,.25-3.3,.5-4.89,.25-1.59,.61-3.11,1.08-4.55,.47-1.44,1.09-2.73,1.87-3.87,.68-.47,1.3-.7,1.85-.7,.7,0,1.28,.39,1.75,1.18-.44,.59-.81,1.26-1.11,1.98-.3,.73-.55,1.49-.75,2.29-.2,.8-.37,1.62-.5,2.45-.13,.83-.26,1.65-.37,2.44-.13,.88-.25,1.64-.34,2.26-.09,.63-.16,1.18-.21,1.64-.05,.47-.09,.88-.12,1.24-.02,.35-.04,.7-.04,1.03,0,.35,.01,.65,.04,.89,.02,.24,.08,.43,.17,.57,.09,.14,.23,.25,.42,.31,.19,.06,.44,.09,.75,.09,.96,0,1.87-.19,2.73-.57,.86-.38,1.66-.89,2.38-1.52,.73-.64,1.38-1.38,1.96-2.22,.58-.84,1.07-1.73,1.48-2.67,.41-.94,.72-1.89,.94-2.87,.22-.97,.33-1.91,.33-2.81,0-1.11-.18-2.11-.55-2.98-.36-.88-.87-1.62-1.53-2.23-.66-.61-1.44-1.07-2.36-1.39-.92-.32-1.93-.48-3.03-.48-.81,0-1.6,.05-2.39,.15-.79,.09-1.52,.24-2.2,.44-.68,.2-1.27,.46-1.78,.77-.51,.31-.9,.68-1.16,1.11-.7,1.08-1.27,1.92-1.72,2.51-.45,.59-.83,.88-1.13,.88-.42,0-.63-.48-.63-1.45s.12-1.78,.37-2.53c.24-.75,.59-1.41,1.02-1.99,.44-.58,.95-1.07,1.55-1.48s1.25-.74,1.97-1.01c.71-.26,1.47-.46,2.28-.58,.8-.12,1.63-.19,2.47-.19"/>
  <path class="cls-3" d="M103.79,71.83c-.9,0-1.69-.16-2.36-.49-.68-.33-1.24-.76-1.69-1.32-.45-.55-.79-1.19-1.01-1.91-.23-.72-.34-1.48-.34-2.28,0-.54,.05-1.1,.16-1.7,.11-.6,.27-1.19,.48-1.76,.22-.57,.49-1.12,.81-1.64,.33-.52,.71-.98,1.14-1.38,.44-.4,.92-.71,1.47-.95,.54-.24,1.14-.35,1.8-.35,.54,0,1.03,.09,1.49,.26,.46,.17,.86,.41,1.2,.73,.34,.31,.6,.69,.8,1.13,.19,.44,.29,.93,.29,1.48,0,.59-.15,1.19-.44,1.78-.29,.6-.7,1.15-1.21,1.68-.52,.53-1.13,1-1.85,1.41s-1.49,.73-2.32,.96c.14,.26,.28,.47,.42,.65,.14,.17,.28,.31,.42,.4,.14,.1,.29,.16,.45,.2,.16,.04,.33,.06,.51,.06,.57,0,1.18-.11,1.82-.34,.64-.23,1.26-.52,1.86-.86,.6-.35,1.17-.72,1.71-1.13,.54-.41,.99-.79,1.36-1.16l1.85,1.93c-.84,.87-1.74,1.64-2.69,2.31-.41,.29-.85,.57-1.33,.85-.47,.28-.97,.53-1.49,.74-.52,.22-1.06,.39-1.62,.52-.56,.13-1.13,.19-1.7,.19m-1.91-6.75c.34,0,.72-.09,1.13-.27,.41-.18,.79-.4,1.14-.68,.35-.28,.64-.58,.88-.91,.24-.32,.36-.64,.36-.95,0-.43-.08-.79-.24-1.06-.16-.28-.35-.42-.58-.42-.41,0-.77,.08-1.06,.23s-.54,.35-.73,.6c-.2,.24-.35,.52-.47,.83-.12,.31-.21,.62-.27,.94-.06,.32-.1,.62-.12,.92-.02,.3-.03,.55-.03,.76"/>
  <path class="cls-3" d="M110.25,68.83c0-.63,.04-1.36,.11-2.19,.08-.83,.17-1.67,.29-2.53,.12-.86,.24-1.68,.39-2.48,.14-.8,.28-1.48,.42-2.04,.11-.44,.31-.81,.61-1.11,.3-.3,.71-.45,1.23-.45s.88,.16,1.08,.47c.2,.32,.3,.74,.3,1.26,0,.14-.01,.34-.04,.58-.03,.24-.06,.51-.11,.81-.04,.29-.09,.59-.14,.91-.05,.31-.09,.6-.14,.86-.04,.26-.08,.49-.11,.69-.03,.2-.04,.33-.04,.4h.29c.06-.11,.15-.28,.27-.51,.12-.23,.27-.5,.43-.81s.34-.63,.52-.97c.19-.34,.36-.67,.52-.98,.16-.31,.31-.59,.45-.83,.13-.24,.23-.42,.3-.53,.31-.52,.66-.87,1.05-1.06,.39-.19,.83-.29,1.31-.29s.86,.2,1.14,.6c.28,.4,.42,.96,.42,1.67,0,.11-.02,.28-.06,.53-.04,.25-.1,.55-.17,.89-.07,.34-.14,.72-.22,1.13-.08,.41-.16,.83-.22,1.26-.07,.43-.12,.86-.16,1.28-.04,.42-.07,.81-.07,1.16,0,.59,.07,1.08,.22,1.47,.15,.38,.38,.57,.7,.57,.14,0,.31-.04,.5-.13s.39-.2,.6-.34c.22-.14,.44-.3,.66-.48,.22-.18,.45-.37,.67-.56,.51-.45,1.04-.96,1.6-1.52l.24,3.22-.72,.55c-.39,.3-.79,.6-1.2,.89-.41,.3-.83,.56-1.27,.8-.44,.23-.9,.43-1.38,.57-.48,.15-.98,.22-1.51,.22s-.97-.38-1.33-1.14c-.36-.76-.54-1.87-.54-3.34,0-.57,.04-1.19,.11-1.86,.08-.67,.17-1.38,.29-2.15h-.23l-3.77,7.47c-.19,.39-.41,.66-.65,.8-.24,.14-.52,.22-.83,.22-.39,0-.71-.08-.95-.25-.24-.17-.42-.39-.55-.68-.13-.28-.21-.6-.26-.96-.04-.36-.06-.73-.06-1.11"/>
  <path class="cls-3" d="M137.21,66.87c-.84,.92-2.62,2.26-4.15,3.14-.71,.41-1.36,.74-1.92,1.01-.56,.27-1.06,.47-1.49,.6-.44,.13-.83,.2-1.19,.2-.73,0-1.37-.22-1.93-.66-.56-.44-1.02-1.07-1.39-1.9-.37-.83-.65-1.83-.84-3.01-.19-1.18-.28-2.51-.28-3.98,0-.57,.02-1.19,.07-1.84,.05-.65,.12-1.3,.2-1.94-.29-.04-.51-.07-.67-.11-.16-.03-.33-.07-.5-.1-.18-.03-.4-.07-.68-.11-.27-.04-.67-.09-1.19-.14-.23-.03-.41-.08-.53-.17-.12-.08-.22-.18-.27-.29-.06-.11-.09-.22-.1-.34-.01-.12-.02-.22-.02-.31,0-.19,.09-.34,.28-.44,.19-.1,.43-.17,.72-.22,.29-.05,.61-.07,.96-.08s.68,0,1.01,0c.32,.01,.61,.02,.86,.02,.25,0,.43,0,.52-.02,.26-1.29,.59-2.55,.98-3.76,.4-1.21,.84-2.29,1.34-3.23,.49-.94,1.03-1.7,1.62-2.27,.58-.57,1.2-.85,1.84-.85,.41,0,.79,.11,1.13,.34,.34,.23,.63,.54,.87,.92,.24,.38,.42,.83,.55,1.34,.13,.51,.19,1.05,.19,1.6,0,.47-.07,.96-.2,1.49-.13,.52-.32,1.05-.55,1.6-.23,.54-.5,1.09-.81,1.64-.31,.56-.64,1.11-.98,1.65,.09,0,.23,.02,.43,.02,.2,0,.43,.01,.7,.02,.26,0,.55,.02,.85,.04,.31,.01,.6,.03,.89,.04,.29,0,.55,.02,.81,.03,.25,0,.45,.02,.62,.03,.19,0,.33,.11,.42,.29s.13,.41,.13,.69c0,.34-.1,.61-.29,.82-.19,.21-.4,.32-.63,.32h-5.52c-.28,.38-.56,.76-.84,1.13-.28,.37-.54,.7-.78,1-.04,.59-.07,1.18-.1,1.75,0,.25-.02,.51-.03,.77-.01,.26-.02,.52-.03,.78,0,.26-.02,.51-.02,.75,0,.24,0,.46,0,.66,0,.52,.05,.95,.14,1.31,.09,.35,.23,.64,.42,.87,.18,.23,.4,.39,.67,.49,.26,.1,.56,.15,.88,.15,.2,0,.45-.05,.75-.14,.3-.1,.63-.23,.99-.4s.74-.37,1.14-.6c.4-.23,.79-.48,1.18-.75,.39-.27,.77-.51,1.13-.81,.36-.3,1-.75,2.29-2.14l.35,3.1Zm-6.29-16.45c0-.11,0-.22-.02-.35-.01-.13-.04-.25-.09-.37-.05-.12-.12-.21-.22-.29-.1-.08-.24-.11-.42-.11-.25,0-.5,.22-.75,.66-.25,.44-.5,1-.73,1.69-.23,.68-.45,1.44-.66,2.26-.21,.82-.39,1.62-.57,2.4,.14,.02,.29,.04,.43,.05,.14,.01,.29,.03,.45,.05,.29-.49,.59-1.02,.9-1.59,.31-.57,.59-1.13,.84-1.68,.25-.55,.45-1.06,.62-1.54s.24-.87,.24-1.18"/>
  <path class="cls-2" d="M66.4,82.47c0,2.19-.75,3.04-1.69,3.04s-1.62-1.03-1.62-3,.69-2.98,1.72-2.98,1.6,1.08,1.6,2.95m-2.62,.04c0,1.21,.23,2.4,.97,2.4s.95-1.28,.95-2.42-.2-2.39-.96-2.39-.96,1.21-.96,2.4"/>
  <path class="cls-2" d="M69.74,79.43v5c0,.29,.03,.76,.04,1.01h-.57l-.04-.53h-.03c-.14,.3-.43,.6-.88,.6-.71,0-1.22-.77-1.22-2.15,0-1.49,.62-2.19,1.27-2.19,.3,0,.6,.15,.76,.5h.02v-2.24h.66Zm-.66,3.4c0-.09,0-.18,0-.28-.04-.43-.3-.82-.62-.82-.56,0-.75,.77-.75,1.61,0,.88,.23,1.6,.71,1.6,.21,0,.49-.11,.64-.72,.02-.08,.03-.17,.03-.28v-1.12Z"/>
  <path class="cls-2" d="M73.26,83.33c0,1.62-.76,2.17-1.4,2.17-.76,0-1.36-.69-1.36-2.16s.68-2.18,1.4-2.18,1.35,.7,1.35,2.17m-2.09,0c0,.69,.12,1.64,.73,1.64,.57,0,.68-.99,.68-1.64s-.11-1.63-.7-1.63-.71,.99-.71,1.63"/>
  <path class="cls-2" d="M74,82.32c0-.49-.03-.75-.04-1.08h.58l.04,.5h.02c.18-.34,.52-.57,.96-.57,.58,0,1.02,.43,1.02,1.45v2.82h-.67v-2.71c0-.49-.09-1-.58-1-.28,0-.55,.23-.63,.69-.02,.1-.03,.23-.03,.37v2.65h-.67v-3.11Z"/>
  <path class="cls-2" d="M78.28,80.12v1.11h.81v.51h-.81v2.49c0,.55,.2,.69,.44,.69,.1,0,.19,0,.27-.03l.02,.51c-.12,.04-.28,.07-.49,.07-.26,0-.49-.07-.66-.25-.17-.19-.25-.48-.25-1.06v-2.43h-.51v-.51h.51v-.92l.67-.19Z"/>
  <path class="cls-2" d="M82.19,83.33c0,1.62-.76,2.17-1.4,2.17-.76,0-1.36-.69-1.36-2.16s.68-2.18,1.4-2.18,1.35,.7,1.35,2.17m-2.09,0c0,.69,.12,1.64,.73,1.64,.57,0,.68-.99,.68-1.64s-.11-1.63-.7-1.63-.71,.99-.71,1.63"/>
  <path class="cls-2" d="M82.92,82.54c0-.64-.03-1.02-.03-1.31h.6l.03,.54h.02c.23-.45,.56-.61,.88-.61,.73,0,1.22,.78,1.22,2.16,0,1.55-.64,2.18-1.3,2.18-.39,0-.62-.25-.73-.49h-.02v2.08h-.67v-4.55Zm.67,1.34c0,.13,0,.25,.03,.35,.13,.6,.43,.71,.62,.71,.55,0,.73-.76,.73-1.61s-.21-1.6-.74-1.6c-.3,0-.57,.38-.62,.76-.02,.1-.02,.21-.02,.32v1.07Z"/>
  <path class="cls-2" d="M86.86,83.39c0,1.28,.51,1.56,1,1.56,.29,0,.53-.07,.69-.16l.1,.49c-.23,.13-.59,.2-.92,.2-1.01,0-1.53-.82-1.53-2.11,0-1.36,.57-2.21,1.41-2.21s1.2,.9,1.2,1.86c0,.16,0,.27,0,.37h-1.95Zm1.32-.49c.02-.84-.3-1.21-.62-1.21-.43,0-.66,.64-.69,1.21h1.31Z"/>
  <path class="cls-2" d="M92.07,79.43v5c0,.29,.03,.76,.04,1.01h-.57l-.04-.53h-.03c-.14,.3-.43,.6-.88,.6-.71,0-1.22-.77-1.22-2.15,0-1.49,.62-2.19,1.27-2.19,.3,0,.6,.15,.76,.5h.02v-2.24h.66Zm-.66,3.4c0-.09,0-.18,0-.28-.04-.43-.3-.82-.62-.82-.56,0-.75,.77-.75,1.61,0,.88,.23,1.6,.71,1.6,.21,0,.49-.11,.64-.72,.02-.08,.03-.17,.03-.28v-1.12Z"/>
  <path class="cls-2" d="M93.73,80.15c0,.26-.16,.43-.41,.43-.22,0-.38-.17-.38-.43s.17-.43,.39-.43c.24,0,.4,.17,.4,.43m-.72,1.08h.67v4.2h-.67v-4.2Z"/>
  <path class="cls-2" d="M96.26,85.43l-.04-.44h-.03c-.18,.32-.48,.51-.83,.51-.56,0-1-.48-1-1.2,0-1.05,.84-1.52,1.79-1.53v-.13c0-.56-.14-.95-.67-.95-.26,0-.49,.09-.69,.22l-.15-.47c.17-.13,.56-.28,.98-.28,.84,0,1.21,.55,1.21,1.5v1.81c0,.32,0,.68,.04,.95h-.61Zm-.1-2.17c-.35,0-1.15,.06-1.15,.97,0,.55,.28,.75,.51,.75,.29,0,.55-.22,.62-.63,.02-.08,.02-.17,.02-.23v-.85Z"/>
  <path class="cls-2" d="M98.5,80.12v1.11h.81v.51h-.81v2.49c0,.55,.2,.69,.44,.69,.1,0,.19,0,.27-.03l.03,.51c-.12,.04-.28,.07-.49,.07-.26,0-.49-.07-.66-.25-.16-.19-.25-.48-.25-1.06v-2.43h-.51v-.51h.51v-.92l.67-.19Z"/>
  <path class="cls-2" d="M99.89,82.32c0-.36-.03-.77-.03-1.08h.6l.03,.66h.02c.14-.4,.49-.73,.88-.73,.05,0,.1,0,.14,0v.69s-.09,0-.14,0c-.43,0-.74,.39-.81,.88-.02,.11-.03,.24-.03,.38v2.32h-.67v-3.11Z"/>
  <path class="cls-2" d="M103.41,79.52l-.91,1.17h-.44l.67-1.17h.68Zm-1.35,1.72h.67v4.2h-.67v-4.2Z"/>
  <path class="cls-2" d="M105.31,85.43l-.04-.44h-.03c-.18,.32-.48,.51-.83,.51-.56,0-1-.48-1-1.2,0-1.05,.84-1.52,1.79-1.53v-.13c0-.56-.14-.95-.67-.95-.26,0-.49,.09-.69,.22l-.15-.47c.17-.13,.56-.28,.98-.28,.84,0,1.21,.55,1.21,1.5v1.81c0,.32,0,.68,.04,.95h-.61Zm-.1-2.17c-.35,0-1.15,.06-1.15,.97,0,.55,.28,.75,.51,.75,.29,0,.55-.22,.62-.63,.02-.08,.02-.17,.02-.23v-.85Z"/>
  <path class="cls-3" d="M133.58,69.65c2.2-1.43,3.86-2.76,5.61-4.73,.52-.6,1.06-1.19,1.6-1.77-.11-.2-.22-.4-.34-.59,.11,.7,.17,1.41,.18,2.12,.07,1.76,0,3.51,.12,5.27,.27,4,5.52,7.79,8.98,4.29,1.66-1.68,2.35-3.98,2.01-6.33-.72-4.94-.86-9.24,1.17-13.88,2.31-5.28,5-10.13,5.47-15.94,.36-4.41-1.81-11.97-7.47-11.8-2.89,.09-5.91,1.62-8.76,2.14-3.21,.57-5.88-.12-9.02-.72-5.6-1.06-10.54-3.14-13.62,3.16-2.53,5.18-1.27,13.6,5.96,12.71,1.62-.2,1.64-2.77,0-2.57-6.05,.74-4.86-6.57-3.23-9.92,1.7-3.48,5.02-1.91,7.71-1.39,3.77,.74,7.44,1.76,11.28,1.41,2.27-.21,4.49-.79,6.67-1.44,.93-.28,1.85-.57,2.8-.79,1.76-.4,3.48,2.04,4.27,3.32,2.69,4.38,.05,10.79-1.78,14.94-1.64,3.72-3.53,7.27-4.37,11.27-.62,2.96-.28,6,.26,8.94,.52,2.86-.36,5.79-3.76,5.26-1.84-.28-1.96-2-2.06-3.48-.13-1.98,1.04-8.59-1.96-9.08-1.65-.27-3.03,2.03-3.92,3.04-1.58,1.78-3.1,3.04-5.09,4.33-1.38,.9-.1,3.12,1.3,2.22"/>
</svg>