<?xml version="1.0" encoding="UTF-8"?>
<svg id="Capa_1" data-name="Capa 1" xmlns="http://www.w3.org/2000/svg" xmlns:xlink="http://www.w3.org/1999/xlink" viewBox="0 0 170.08 113.39">
  <defs>
    <style>
      .cls-1 {
        fill: none;
      }

      .cls-2 {
        clip-path: url(#clippath);
      }

      .cls-3 {
        fill: #fff;
      }

      .cls-4 {
        fill: #fefefe;
      }

      .cls-5 {
        fill: #815a2f;
      }

      .cls-6 {
        fill: #6c4f2f;
      }

      .cls-7 {
        fill: #bd880e;
      }

      .cls-8 {
        fill: #bfa779;
      }

      .cls-9 {
        fill: #d7c8a3;
      }

      .cls-10 {
        fill: #d44d7d;
      }

      .cls-11 {
        fill: #d3e885;
      }

      .cls-12 {
        fill: #dbdddc;
      }

      .cls-13 {
        fill: #191c17;
      }

      .cls-14 {
        fill: #93ba1f;
      }

      .cls-15 {
        fill: #957319;
      }

      .cls-16 {
        fill: #5c4113;
      }

      .cls-17 {
        opacity: .15;
      }
    </style>
    <clipPath id="clippath">
      <rect class="cls-1" x="75.72" y="63.16" width="15.59" height="8.55"/>
    </clipPath>
  </defs>
  <path class="cls-9" d="M78.5,19.14s-2.57-8.48-9.36-11.53l-1.58,15.6s3.62-3.76,10.95-4.07"/>
  <path class="cls-5" d="M68.98,19.92s3.16-.99,5.46,1.01c0,0-1.35-5.71-4.79-7.01l-.67,6Z"/>
  <path class="cls-6" d="M69.64,13.92s.11,5.83,1.99,5.32l-2.65,.68,.67-6Z"/>
  <path class="cls-9" d="M100.79,55.13s12.4-12.1,20.76-1.07c8.36,11.03-7.3,30.87-7.3,30.87,0,0-26.42-2.22-33.28-1.07-6.85,1.16-9.43,1.07-9.43,1.07,0,0,.82-17.36,8.28-20.82,0,0,1.7,2.22,7.42,1.29,5.72-.93,10.88-2.95,13.54-10.27"/>
  <path class="cls-8" d="M99.4,84.2s28.2-17.59,18.72-33.39c0,0,7.29,4.35,5.69,12.38-1.6,8.04-9.56,21.73-9.56,21.73l-14.85-.73Z"/>
  <path class="cls-13" d="M71.69,85.47l-.72-.02,.05-.55c.03-.43,.93-17.71,8.59-21.27l.39-.18,.26,.34s1.1,1.31,4.38,1.31c.78,0,1.63-.07,2.53-.22,5.25-.85,10.48-2.64,13.12-9.93l.13-.2c.25-.24,6.08-5.86,12.6-5.86,3.51,0,6.52,1.63,8.97,4.85,8.58,11.32-7.23,31.48-7.39,31.61l-.16,.13h-.2c-.15-.02-14.77-.95-24.95-.95-3.88,0-6.64-.4-8.2-.14-5.92,1-8.68,1.07-9.38,1.07m8.04-20.71c-5.81,2.94-7.27,17.5-7.57,19.64,1.12-.04,3.8-.22,8.74-1.05,1.62-.28,4.44,.12,8.38,.12,9.54,0,22.98,.81,24.81,.93,1.58-1.3,14.55-20.09,7.05-30-2.23-2.94-4.96-4.43-8.11-4.43-5.68,0-11.03,4.79-11.76,5.48-2.85,7.7-8.37,9.59-13.91,10.49-.96,.16-1.86,.23-2.7,.23h0c-2.86,0-4.32-.91-4.91-1.41"/>
  <path class="cls-9" d="M80.91,57.22s.3,1.29,2.58,1.47c2.27,.17,8.89-1.24,10.94-3.77,2.04-2.53,2.19-3.97,2.19-4.98,0,0-3.95,2.17-6.58,2.69-2.63,.52-5.22,.87-5.22,.87l-3.9,3.73Z"/>
  <path class="cls-8" d="M83.69,54.61s7.78-2.24,9.03,1.68c0,0,4.22-3.03,3.87-6.34-.35-3.31,.02-.21,.02-.21,0,0-11.14,.65-12.92,4.87"/>
  <path class="cls-7" d="M78.83,58.99s-2.61,8.05,8.66,6.38c11.28-1.67,16.77-11.32,10.93-17.15,0,0-1,1.11-1.84,1.68,0,0,.35,5.39-6.91,7.86-7.25,2.47-8.89-.43-8.89-.43l-1.96,1.66Z"/>
  <path class="cls-15" d="M79.27,59.29s7.13,5.44,16.92-2.6c2.22-1.83,3.72,1.05-1.24,6.01,0,0,10.54-7.05,3.32-14.27l-1.66,1.74s.61,5.65-8.82,8.16c0,0-5.25,1.37-6.92-1.06l-1.6,2.04Z"/>
  <path class="cls-13" d="M84.67,66.13h0c-2.73,0-4.65-.75-5.72-2.22-1.56-2.14-.66-4.97-.62-5.09l.05-.15,2.57-2.17,.32,.56s.74,1.15,3.32,1.15c1.39,0,3.04-.32,4.93-.97,6.79-2.31,6.55-7.27,6.55-7.32l-.02-.3,.25-.17c.78-.53,1.74-1.59,1.75-1.6l.38-.42,.4,.4c2.34,2.34,3.09,5.47,2.06,8.59-1.58,4.79-6.8,8.5-13.29,9.46-1.05,.16-2.02,.24-2.9,.24m-5.37-6.84c-.14,.54-.55,2.54,.52,4,.86,1.18,2.49,1.77,4.85,1.77,.82,0,1.75-.07,2.75-.22,6.1-.9,10.98-4.34,12.43-8.75,.86-2.59,.35-5.09-1.42-7.1-.33,.34-.83,.82-1.31,1.18-.06,1.24-.72,5.86-7.26,8.09-2,.68-3.77,1.02-5.28,1.02-2.15,0-3.3-.71-3.84-1.21l-1.43,1.21Z"/>
  <path class="cls-8" d="M68.98,9.4s4.4,3.34,6.27,8.97l2.85-.36s-2.38-7.47-8.95-10.4l-.16,1.79Z"/>
  <path class="cls-13" d="M67.02,24.36l1.76-17.37,.53,.23c6.88,3.09,9.48,11.43,9.59,11.79l.16,.51-.54,.02c-7.06,.3-10.63,3.91-10.67,3.95l-.83,.86Zm2.47-16.12l-1.42,13.97c1.42-1.1,4.67-3.11,9.86-3.46-.66-1.79-3.2-7.85-8.44-10.51"/>
  <path class="cls-9" d="M58.51,41.16s-17.7-.62-14.19,9.43c3.51,10.05,16.23,20.82,32.03,10.23,4.13-2.77,8.67-7.56,8.67-7.56,0,0,16.22,.53,17.08-13.79,.6-10.01-4.05-13.79-4.05-13.79,0,0,2.31-9.79-2.31-18.51l-9.25,11.12s-29.63-5.34-27.98,22.86"/>
  <path class="cls-8" d="M95.44,7.54s3.11,14.96-1.83,18.73c0,0,1.83-.86,4.45-.59,0,0,2.55-9.81-2.62-18.14"/>
  <path class="cls-8" d="M60.74,32.57c-.76,2.79-.11,5.4,1.45,5.83,1.56,.42,3.44-1.5,4.2-4.29,.76-2.8,.1-5.4-1.45-5.83-1.56-.43-3.44,1.5-4.2,4.29"/>
  <path class="cls-8" d="M68.23,33.27c-.89,3.3-.23,6.35,1.49,6.81,1.72,.47,3.84-1.83,4.73-5.13,.9-3.3,.23-6.35-1.49-6.82-1.72-.46-3.84,1.83-4.73,5.13"/>
  <path class="cls-8" d="M77.02,21.51s2.67,1.38,4.31,4.45c0,0,.67-.53,2.36,.31,0,0-2.31-4.01-6.67-4.76"/>
  <path class="cls-8" d="M93.2,46.42s10.29,.73,6.46-18.75c0,0,6.22,11.66-1.07,20.55,0,0-4.67,4.08-8.5,4.49l-2.91-.82,6.02-5.46Z"/>
  <path class="cls-8" d="M85.91,39.35s-6.04-.19-3.76,5.15c2.28,5.34,2.44,7.3,2.44,8.99,0,0,2.86-6.81,2.57-10.01-.29-3.2-1.25-4.13-1.25-4.13"/>
  <path class="cls-8" d="M64.98,49.55s.39,4.2-4.64,6.94c-5.04,2.73,8.42,10.26,24.57-3.79,0,0-12.9,17.51-29.35,10.67,0,0-7.03-3.28-7.6-7.45-.57-4.17,17.02-6.37,17.02-6.37"/>
  <path class="cls-8" d="M70.56,44.83s-9.63-4.35-16.37-.82l-7.82-.29s11.53-6.46,24.19,1.1"/>
  <path class="cls-10" d="M85.03,53.26s6.72-.04,8.32-7.43c1.6-7.38-1.34-8.23-3.83-8.23s-5.57,1.94-3.78,8.27c.67,2.36-.71,7.11-.71,7.38"/>
  <path class="cls-13" d="M63.45,65.72c-9.9,0-17.12-7.75-19.63-14.95-.79-2.27-.63-4.23,.5-5.81,2.86-4.02,11.13-4.34,13.6-4.34h.03c-.32-7.22,1.41-12.88,5.13-16.83,5.01-5.31,12.54-6.43,17.97-6.43,2.56,0,4.5,.25,5.23,.36l9.57-11.5,.37,.7c4.26,8.03,2.79,16.79,2.43,18.57,1,.97,4.53,5.08,3.99,14.01-.83,13.88-15.68,14.29-17.39,14.29-.86,.89-4.86,4.96-8.6,7.47-4.41,2.96-8.85,4.45-13.2,4.45m-5.54-24.03c-4.82,0-10.7,1.02-12.73,3.89-.91,1.28-1.03,2.91-.36,4.84,2.4,6.86,9.25,14.23,18.63,14.23,4.13,0,8.37-1.43,12.6-4.27,4.03-2.7,8.54-7.44,8.58-7.49l.16-.17h.45c1.59,0,15.55-.36,16.33-13.28,.57-9.58-3.81-13.31-3.85-13.35l-.25-.21,.08-.33c.02-.1,2.09-9.17-1.9-17.42l-8.93,10.74-.31-.05s-2.23-.39-5.35-.39c-5.22,0-12.44,1.06-17.2,6.09-3.61,3.83-5.23,9.42-4.81,16.61l.03,.58-.59-.02s-.21,0-.57,0"/>
  <path class="cls-13" d="M68.19,33.44c-.88,3.24-.39,6.2,1.09,6.6,1.48,.4,3.39-1.9,4.27-5.14,.88-3.25,.39-6.2-1.09-6.6-1.48-.4-3.39,1.9-4.28,5.15"/>
  <path class="cls-13" d="M60.71,32.68c-.75,2.77-.34,5.29,.92,5.63,1.26,.34,2.89-1.62,3.64-4.4,.75-2.77,.34-5.29-.92-5.63-1.26-.34-2.89,1.63-3.64,4.4"/>
  <path class="cls-13" d="M70.87,45.68c-.15,0-.3-.06-.4-.18-2.94-3.33-11.89-3.8-11.98-3.8-.29-.02-.52-.26-.51-.56,.01-.29,.24-.51,.56-.51,.39,.02,9.5,.5,12.73,4.16,.2,.22,.17,.56-.05,.76-.1,.09-.23,.13-.35,.13"/>
  <path class="cls-5" d="M87.86,19.27s4.28,1.43,5.22,5.47c0,0,3.07-7.38,.31-11.57l-5.53,6.09Z"/>
  <path class="cls-13" d="M125.8,33.27s4.32,11.77-5.41,19.43c0,0-2.35-1.98-3.14-2.32,0,0,9.62-4.97,8.56-17.11"/>
  <path class="cls-13" d="M45.97,44.02s11.61-4.14,18.72,4.53c2.52,3.07-11.63,12.04-17.3,8.36,0,0-3.83-6.87-3.52-8.69,.3-1.83,.69-3.3,2.1-4.19"/>
  <path class="cls-13" d="M77.2,20.7s2.67,1.38,4.31,4.45c0,0,.67-.53,2.36,.31,0,0-2.31-4-6.67-4.76"/>
  <path class="cls-13" d="M61.92,19.77s-2.18,1.64-3.27,4.85c0,0-.64-.47-2.03,.54,0,0,1.57-4.21,5.3-5.39"/>
  <path class="cls-3" d="M63.53,29.6c-.24,.59-.02,1.23,.48,1.43,.5,.21,1.1-.1,1.34-.69,.24-.59,.02-1.23-.48-1.43-.5-.2-1.1,.11-1.34,.69"/>
  <path class="cls-3" d="M71.8,29.8c-.24,.59-.02,1.23,.48,1.43,.5,.2,1.1-.1,1.34-.69,.24-.59,.02-1.23-.48-1.43-.5-.2-1.1,.11-1.34,.69"/>
  <path class="cls-6" d="M87.86,19.27s4.43,1.61,5.22,5.47c0,0,3.07-7.06,.31-11.57,0,0,1.43,9.36-1.69,6.24-1.65-1.65-2.91-1.23-3.84-.15"/>
  <path class="cls-3" d="M62.79,30.69c0,.15,.12,.27,.27,.27s.28-.12,.28-.27-.12-.28-.28-.28-.27,.12-.27,.28"/>
  <path class="cls-3" d="M71.63,31.35c0,.25-.21,.46-.46,.46s-.46-.21-.46-.46,.21-.46,.46-.46,.46,.21,.46,.46"/>
  <path class="cls-3" d="M62.24,46.97c0,1.18-1.54,2.14-3.43,2.14s-3.43-.96-3.43-2.14,1.54-2.14,3.43-2.14,3.43,.96,3.43,2.14"/>
  <path class="cls-13" d="M84.49,53.8v-.54c0-.11,.02-.22,.13-.69,.3-1.3,1.11-4.76,.6-6.55-.89-3.15-.73-5.56,.49-7.17,.86-1.13,2.25-1.79,3.8-1.79,1.13,0,2.74,.15,3.79,1.45,1.15,1.43,1.33,3.86,.56,7.43-1.67,7.71-8.77,7.85-8.84,7.85h-.54Zm5.03-15.66c-1.22,0-2.3,.5-2.95,1.36-.99,1.31-1.1,3.46-.31,6.23,.56,1.99-.19,5.36-.55,6.94,1.67-.23,5.91-1.36,7.12-6.95,.69-3.19,.58-5.39-.34-6.53-.59-.73-1.5-1.05-2.96-1.05"/>
  <path class="cls-13" d="M85.03,53.59c-.12,0-.23-.07-.29-.18-.08-.16-.02-.36,.14-.44,.29-.15,7.14-3.72,4.89-12.72-.04-.17,.06-.35,.24-.4,.17-.05,.35,.06,.4,.24,2.38,9.52-5.16,13.43-5.23,13.47-.05,.02-.1,.03-.15,.03"/>
  <path class="cls-11" d="M82.24,57.78s-3.84,1.65-.7,6.27c0,0-.25-4.8,4.16-5.36,0,0-1.69-1.44-3.46-.92"/>
  <path class="cls-14" d="M84.41,57.91s-4.09,.48-2.86,5.6c0,0,.81-4.74,3.91-4.93,0,0-.67-.67-1.05-.67"/>
  <path class="cls-13" d="M82.2,65.11l-.66-.9c-1.33-1.81-1.79-3.38-1.37-4.65,.51-1.54,2.11-2.04,2.18-2.06,.27-.09,.55-.13,.84-.13,1.45,0,2.64,1.06,2.69,1.1l.45,.4-.6,.09c-4.22,.62-3.71,4.86-3.68,5.04l.15,1.1Zm.99-7.17c-.23,0-.46,.03-.67,.1-.02,0-1.39,.45-1.81,1.7-.3,.91-.04,2.04,.76,3.36,.09-1.39,.66-3.84,3.53-4.57-.43-.27-1.09-.59-1.81-.59"/>
  <path class="cls-12" d="M85.48,64.72s.58-2.38,2.2-1.33c1.62,1.04,.11,2.55,.11,2.55,0,0,2.72-.57,1.5-3.15-1.22-2.58-5.48-1-3.81,1.94"/>
  <path class="cls-12" d="M87.79,65.94s1.52,2.93-2.33,3.43c0,0,1.97,2.14,3.85-.49,1.89-2.63-1.52-2.93-1.52-2.93"/>
  <path class="cls-12" d="M75.05,62.43s2.54-.58,3.18,2.31c0,0,1.44-2.98-2.16-3.26,0,0-1.02,.1-1.02,.95"/>
  <path class="cls-3" d="M37.53,91.74c-1.39,0-3.1-.77-3.83-2.91-.4-1.07-.63-2.28-.7-3.69,0,0,0-.02,0-.02-.31,.03-.61,.06-.91,.09l-2.1,.2-.06-.06c-.29,.02-.58,.04-.88,.05-.6,.02-1.09,.02-1.57,0-.71-.04-1.3-.14-1.84-.31-1.78-.57-2.93-2.08-2.93-3.84,0-.69,.24-3.03,3.31-3.95,.62-.18,1.31-.34,2.11-.47,.73-.11,1.41-.2,2.07-.27,.52-.05,.89-.09,1.14-.13l.36-.04c.52-.03,1.05-.07,1.57-.14,.02-.29,.05-.58,.08-.87,.06-.63,.14-1.23,.24-1.77,0,0,0-.02,0-.02-.05,.01-.09,.02-.13,.04-.98,.34-1.78,.62-2.4,.84-.65,.22-1.18,.4-1.58,.54-.49,.17-.9,.28-1.18,.35-.51,.12-.97,.18-1.41,.18-2.87,0-4.37-2.02-4.37-4.01,0-.68,.17-1.71,1.01-2.76,.19-.26,.48-.58,.81-.89,.27-.25,.53-.48,.79-.67,.21-.15,.43-.31,.69-.45,.96-.64,2.02-1.2,3.15-1.67,1.15-.48,2.34-.88,3.54-1.19,1.17-.3,2.4-.54,3.65-.7,1.26-.16,2.5-.24,3.7-.24,.73,0,1.49,.03,2.32,.1,.75,.06,1.46,.14,2.14,.22l.11,.02c.6,.09,1.27,.21,2.02,.37,.79,.17,1.61,.38,2.42,.64,.84,.26,1.69,.59,2.49,.97,.9,.42,1.75,.95,2.5,1.55,.9,.73,1.61,1.57,2.14,2.52,.62,1.09,.93,2.32,.93,3.63,0,1.75-.49,3.33-1.47,4.71-.8,1.13-1.83,2.11-3.06,2.9-1.08,.69-2.28,1.28-3.58,1.74-1.17,.42-2.36,.78-3.54,1.06-.95,.22-1.87,.42-2.76,.57-.07,.69-.15,1.35-.25,1.98-.16,.99-.35,1.82-.6,2.55-1.03,3.03-3.41,3.27-4.12,3.27m5.44-18.94c.04,.13,.08,.26,.11,.4,.1,.42,.17,.86,.2,1.31,.56-.15,1.13-.32,1.72-.52,.48-.16,.92-.34,1.32-.54-.09-.03-.19-.06-.28-.08-.63-.17-1.3-.32-1.99-.43-.36-.06-.72-.11-1.08-.15"/>
  <path class="cls-3" d="M53.4,89.66c-.77,0-1.52-.17-2.22-.52-.7-.34-1.33-.83-1.85-1.46-.6-.73-.98-1.55-1.16-2.44-.1-.52-.16-1.13-.16-1.84,0-.52,.02-1.1,.05-1.71,.03-.56,.07-1.16,.13-1.78,.04-.51,.07-1.01,.09-1.5,.03-1.53,.75-2.88,2-3.71,.73-.5,1.58-.81,2.49-.9,.97-.1,1.87,.06,2.7,.44,.27,.12,.52,.27,.75,.44,.63-.06,1.25,0,1.86,.18,.72,.21,1.37,.53,1.93,.95,.11,.08,.21,.17,.31,.26,.3,0,.62,.03,.92,.1,.94,.18,1.85,.75,2.48,1.59,.79,1.05,1.02,2.36,.65,3.63-.06,.21-.14,.53-.27,.96-.17,.57-.38,1.16-.63,1.78-.27,.68-.61,1.36-1,2.01-.6,.99-1.33,1.75-2.19,2.28-.84,.53-1.87,.8-2.95,.71-.43-.03-.87-.11-1.31-.26-.62,.41-1.33,.67-2.09,.75-.17,.02-.36,.03-.55,.03m5.18-6.98l.72,.11c-.05-.09-.11-.19-.17-.28-.07-.09-.19-.23-.38-.36-.05,.18-.11,.35-.16,.52"/>
  <path class="cls-3" d="M60.4,92.42c-.81,0-1.59-.18-2.3-.54-1.61-.81-2.48-2.45-2.26-4.21,.03-.35,.07-.82,.1-1.39,.04-.63,.07-1.33,.1-2.08,.03-.77,.06-1.55,.08-2.35,.02-.81,.03-1.56,.04-2.25l.03-1.83c.01-.48,.01-.8,.01-.97,0-1.4,.56-2.69,1.57-3.62,.65-.61,1.42-1.05,2.26-1.3,1.03-.3,2-.3,2.9-.03,1.09,.34,1.92,1.05,2.41,1.95,1.04,.32,1.95,.91,2.64,1.74,.71,.86,1.21,1.86,1.48,2.99,.24,.99,.3,2.06,.17,3.15-.13,1.04-.4,2.03-.83,2.93-.47,1.03-1.13,1.9-1.94,2.6-.52,.44-1.08,.77-1.69,1-.05,1.53-.9,2.86-2.3,3.59-.73,.38-1.49,.58-2.28,.61h-.21Z"/>
  <path class="cls-3" d="M67.36,92.42c-.81,0-1.58-.18-2.3-.54-1.61-.82-2.48-2.46-2.26-4.22,.03-.35,.07-.81,.1-1.38,.04-.63,.07-1.33,.1-2.08,.03-.76,.05-1.55,.07-2.35,.02-.81,.04-1.56,.05-2.25l.03-1.82c.01-.5,.02-.81,.02-.98,0-1.4,.56-2.68,1.57-3.62,.65-.61,1.42-1.06,2.27-1.31,1.02-.3,1.99-.3,2.89-.03,1.09,.34,1.93,1.05,2.42,1.95,1.04,.32,1.95,.91,2.64,1.74,.71,.85,1.21,1.86,1.48,2.99,.24,.99,.3,2.06,.17,3.15-.13,1.04-.4,2.03-.83,2.93-.47,1.03-1.13,1.9-1.94,2.6-.52,.44-1.08,.77-1.69,1-.05,1.53-.9,2.86-2.3,3.59-.74,.38-1.5,.58-2.28,.61h-.21Z"/>
  <path class="cls-3" d="M77.35,94.78c-.25,0-.5-.02-.74-.06-2.14-.32-3.59-2.25-3.37-4.5,.02-.25,.04-.59,.07-1.02,.01-.18,.02-.37,.04-.57-.69-.33-1.31-.81-1.84-1.42-.61-.69-1.03-1.56-1.21-2.49-.09-.45-.16-1.04-.19-1.74-.02-.55-.03-1.14-.03-1.77s0-1.25,.03-1.91c.02-.57,.03-1.11,.03-1.64v-.2c.09-1.5,.82-2.82,2.01-3.62,.74-.51,1.59-.82,2.51-.91,.84-.09,1.81,.04,2.64,.4,.35,.15,.66,.34,.95,.56,.09,0,.19-.01,.28-.02h.19c.85,0,1.66,.2,2.4,.59,1.53,.84,2.36,2.39,2.22,4.07l-.02,.21c-.05,.34-.09,.78-.12,1.33-.04,.63-.07,1.32-.1,2.04-.03,.73-.05,1.48-.07,2.23-.02,.75-.03,1.45-.04,2.1-.01,.67-.02,1.25-.03,1.75,0,.45-.01,.76-.01,.93,0,1.24-.42,2.41-1.21,3.38-.57,.7-1.24,1.26-2.01,1.66-.77,.4-1.56,.6-2.36,.6"/>
  <path class="cls-3" d="M92.73,90.75c-1.45,0-3.02-.22-4.66-.67-1.69-.46-3.28-1.16-4.72-2.09-1.55-1-2.86-2.29-3.88-3.82-1.15-1.72-1.74-3.74-1.74-5.99,0-2.38,.61-4.57,1.81-6.51,1.1-1.77,2.52-3.27,4.23-4.47,1.61-1.14,3.43-2.02,5.4-2.62,1.93-.59,3.88-.9,5.78-.9,1.08,0,2.22,.11,3.39,.34,1.28,.24,2.52,.65,3.66,1.21,1.32,.67,2.44,1.56,3.32,2.67,1.08,1.35,1.64,3.04,1.64,4.89,0,1.6-.5,3.13-1.44,4.42-.4,.55-.86,1.05-1.36,1.5,.14-.01,.28-.02,.42-.02,2.14,0,3.82,1.64,3.82,3.74,0,1.31-.59,2.53-1.67,3.43-.35,.3-.8,.62-1.4,1.01-1.91,1.26-3.98,2.23-6.13,2.88-2.15,.65-4.33,.98-6.49,.98m-5.35-13.23c-.04,.18-.06,.37-.06,.58,0,.3,.04,.54,.13,.71,.14,.3,.33,.55,.56,.77,.28,.27,.61,.5,1,.7,.5,.26,1.03,.48,1.58,.64,.47,.14,.93,.26,1.39,.34-.64-.2-1.23-.47-1.77-.79-.95-.55-1.76-1.29-2.37-2.18-.17-.25-.32-.51-.45-.78"/>
  <path class="cls-3" d="M106.6,88.38c-2.05,0-3.4-.8-4.16-1.47-.96-.83-1.65-1.88-2.02-3.11-.31-1.03-.4-2.13-.29-3.27,.12-1.09,.41-2.11,.86-3.04,.5-1.02,1.19-1.89,2.03-2.58,1.15-.95,2.57-1.41,4.12-1.3,1.45,.08,2.79,.6,3.84,1.5,.92,.8,1.6,1.79,2.02,2.95,.36,1.01,.52,2.08,.46,3.19-.05,1.1-.32,2.17-.79,3.16-.51,1.05-1.23,1.95-2.15,2.66-1.12,.86-2.47,1.3-3.93,1.3"/>
  <path class="cls-3" d="M112.12,89.66c-.77,0-1.52-.17-2.22-.52-.7-.34-1.34-.84-1.87-1.48-.57-.69-.95-1.49-1.14-2.39-.11-.56-.16-1.16-.16-1.87,0-.52,.02-1.09,.05-1.71,.03-.56,.07-1.17,.13-1.78,.04-.51,.08-1,.09-1.49,.03-1.53,.75-2.88,1.99-3.71,.74-.5,1.59-.81,2.5-.9,.98-.1,1.88,.06,2.71,.44,.27,.12,.52,.27,.75,.44,.63-.06,1.25,0,1.87,.19,.71,.2,1.36,.52,1.93,.95,.11,.08,.21,.17,.31,.26,.31-.01,.62,.03,.92,.1,.95,.19,1.86,.76,2.48,1.59,.79,1.06,1.02,2.37,.65,3.64-.05,.21-.14,.53-.27,.95-.16,.54-.37,1.14-.62,1.77-.28,.69-.62,1.38-1.01,2.03-.59,.98-1.33,1.74-2.19,2.27-.84,.53-1.88,.8-2.95,.71-.43-.03-.87-.11-1.3-.26-.63,.41-1.33,.67-2.09,.75-.17,.02-.36,.03-.55,.03m5.18-6.98l.71,.11c-.04-.09-.1-.18-.17-.28-.07-.09-.19-.23-.38-.36-.05,.17-.11,.35-.16,.52"/>
  <path class="cls-3" d="M120.2,89.73c-1.51,0-2.85-.65-3.79-1.83-.56-.7-.98-1.57-1.23-2.58-.18-.72-.29-1.52-.33-2.4-.03-.71-.04-1.46-.02-2.25,.01-.43,.03-.86,.06-1.29-.86-.71-1.42-1.75-1.51-2.87-.09-1.42,.51-2.71,1.66-3.58,.23-.17,.48-.32,.74-.44,.4-.75,.93-1.24,1.32-1.53,.85-.63,1.86-.96,2.92-.96h.31c1.12,.09,2.13,.51,2.96,1.23,.44,.38,.79,.83,1.04,1.32,.15,.09,.3,.19,.44,.29,1.08,.83,1.69,2.04,1.69,3.32,0,.36-.05,.71-.13,1.04,.17,.15,.33,.32,.48,.51,.86,1.06,1.11,2.48,.69,3.81-.12,.41-.28,.93-.48,1.57-.26,.82-.58,1.63-.96,2.4-.48,.94-1.04,1.76-1.7,2.45-1.12,1.16-2.59,1.8-4.15,1.8"/>
  <path class="cls-3" d="M124.49,89.66c-.78,0-1.53-.17-2.23-.52-.69-.33-1.33-.83-1.86-1.47-.58-.71-.97-1.52-1.15-2.41-.11-.55-.16-1.16-.16-1.86,0-.52,.02-1.09,.05-1.7,.03-.58,.08-1.18,.13-1.79,.04-.51,.07-1.01,.09-1.49,.03-1.52,.75-2.87,1.99-3.7,.75-.51,1.6-.82,2.51-.91,.97-.1,1.87,.06,2.7,.44,.27,.12,.52,.27,.75,.44,.63-.06,1.25,0,1.87,.19,.71,.2,1.35,.52,1.92,.95,.11,.09,.22,.17,.32,.27,.32,0,.62,.03,.92,.1,.95,.19,1.86,.76,2.49,1.6,.78,1.03,1.01,2.34,.64,3.62-.05,.2-.14,.52-.27,.95-.17,.58-.38,1.17-.63,1.78-.28,.69-.61,1.37-1,2.01-.6,.99-1.34,1.75-2.19,2.28-.84,.53-1.87,.8-2.95,.71-.43-.03-.87-.11-1.3-.26-.63,.41-1.33,.67-2.09,.75-.17,.02-.36,.03-.55,.03m5.18-6.98l.71,.11c-.04-.09-.1-.19-.18-.29-.06-.08-.18-.22-.37-.35-.05,.18-.11,.35-.16,.52"/>
  <path class="cls-3" d="M133.68,89.52h-.27c-1.76-.08-3.26-1.02-4.1-2.57-.44-.81-.72-1.76-.83-2.82-.02-.18-.03-.36-.04-.54-.21-.19-.4-.4-.56-.63-.62-.84-.87-1.85-.73-2.87-.04-.19-.07-.37-.08-.57-.07-.9,.1-1.78,.48-2.57,.32-.68,.81-1.3,1.45-1.81,.84-.67,1.85-1.01,2.91-1.01,1.5,0,2.79,.67,3.57,1.74,.04,.02,.09,.03,.13,.05l2.4-.47-.23,.67c.89,.19,1.7,.69,2.31,1.42,.71,.87,1.03,1.99,.91,3.15l-.06,.4c-.02,.11-.08,.35-.17,.72-.11,.45-.25,.92-.43,1.44-.17,.51-.38,1.04-.63,1.59-.32,.71-.69,1.36-1.12,1.93-.55,.74-1.17,1.33-1.84,1.79-.89,.61-1.96,.94-3.07,.94"/>
  <path class="cls-3" d="M138.66,90c-1.83,0-3.43-.75-4.53-2.12-.78-.97-1.3-2.15-1.55-3.51-.2-1.11-.24-2.28-.12-3.49,.12-1.16,.36-2.27,.73-3.3,.41-1.15,.96-2.15,1.63-2.98,1.11-1.35,2.6-2.09,4.19-2.09,1.39,0,2.67,.49,3.71,1.43,.73,.65,1.31,1.43,1.72,2.32,.95,.23,1.76,.78,2.34,1.57,.71,1,.94,2.19,.68,3.38l-.1,.35c-.03,.1-.09,.28-.16,.56-.15,.53-.35,1.07-.6,1.64-.25,.59-.55,1.17-.88,1.75-.42,.73-.93,1.41-1.53,2.02-.64,.65-1.38,1.2-2.19,1.64-1.04,.55-2.16,.82-3.36,.82"/>
  <path class="cls-16" d="M37.53,90.18c-.41,0-1.78-.14-2.36-1.87-.35-.92-.55-1.98-.61-3.23-.02-.5-.04-1.05-.05-1.66-.11,.01-.22,.02-.33,.03-.76,.07-1.5,.14-2.24,.21l-1.33,.13-.04-.04-.3,.02c-.42,.03-.84,.06-1.29,.08-.53,.02-.98,.02-1.41,0-.56-.03-1.03-.11-1.45-.24-1.35-.44-1.83-1.5-1.83-2.35,0-.67,.29-1.88,2.19-2.45,.55-.16,1.18-.3,1.91-.42,.69-.11,1.34-.19,1.97-.26,.55-.06,.96-.1,1.22-.14l.2-.02c.72-.04,1.43-.11,2.13-.21l.81-.12c.01-.17,.03-.34,.04-.53,.04-.5,.08-1.03,.14-1.57,.06-.59,.13-1.14,.22-1.64,.11-.6,.26-1.11,.46-1.57,.16-.35,.37-.66,.61-.9-1.08,.19-2.16,.42-3.21,.7-1,.35-1.81,.64-2.44,.85-.64,.22-1.17,.4-1.57,.53-.45,.15-.81,.26-1.06,.32-2.67,.63-3.85-.94-3.85-2.31,0-.63,.22-1.22,.67-1.78,.17-.22,.4-.48,.66-.73,.23-.21,.45-.4,.66-.56,.17-.13,.35-.26,.55-.36,.89-.6,1.88-1.13,2.94-1.57,1.08-.45,2.2-.82,3.33-1.12,1.11-.29,2.27-.51,3.46-.66,1.19-.15,2.37-.23,3.5-.23,.68,0,1.4,.03,2.19,.1,.73,.06,1.42,.14,2.09,.22,.63,.1,1.28,.21,1.99,.36,.74,.15,1.5,.36,2.26,.6,.78,.24,1.56,.55,2.3,.9,.8,.37,1.53,.83,2.19,1.35,.74,.6,1.32,1.29,1.76,2.06,.49,.86,.73,1.83,.73,2.86,0,1.42-.4,2.7-1.18,3.8-.68,.97-1.57,1.81-2.63,2.49-.98,.63-2.08,1.16-3.26,1.59-1.12,.41-2.26,.75-3.37,1.01-1.09,.26-2.15,.47-3.16,.63-.24,.04-.48,.07-.7,.11-.01,.18-.03,.36-.04,.54-.08,.89-.18,1.75-.3,2.55-.14,.9-.32,1.64-.54,2.29-.68,1.99-2.07,2.21-2.64,2.21m2.24-19.09c.31,.17,.55,.37,.74,.55,.51,.51,.87,1.16,1.05,1.92,.13,.56,.19,1.16,.17,1.79,0,.38-.03,.76-.07,1.14,.42-.08,.86-.18,1.32-.29,.8-.19,1.64-.43,2.5-.72,.76-.25,1.46-.56,2.06-.91,.53-.3,.95-.63,1.25-.98,.15-.18,.18-.3,.18-.45-.22-.25-.51-.46-.88-.66-.46-.24-1.02-.45-1.65-.62-.68-.19-1.41-.34-2.15-.46-.73-.12-1.47-.2-2.21-.25-.88-.06-1.63-.08-2.32-.07"/>
  <path class="cls-16" d="M53.4,88.1c-.53,0-1.05-.12-1.53-.36-.51-.24-.96-.6-1.34-1.06-.42-.52-.7-1.1-.82-1.74-.09-.42-.13-.93-.13-1.54,0-.5,.02-1.04,.05-1.62,.03-.55,.07-1.13,.12-1.73,.05-.55,.08-1.09,.1-1.61,0-.96,.47-1.87,1.3-2.42,.53-.36,1.13-.58,1.78-.64,.69-.07,1.32,.04,1.89,.31,.37,.17,.69,.4,.93,.69,.69-.18,1.29-.16,1.92,.02,.53,.15,1.01,.39,1.42,.7,.25,.19,.47,.41,.63,.65,.39-.1,.81-.1,1.21-.02,.59,.12,1.17,.48,1.57,1,.49,.65,.63,1.47,.39,2.27-.05,.19-.14,.5-.26,.93-.15,.52-.35,1.06-.58,1.63-.24,.61-.55,1.21-.9,1.79-.47,.77-1.03,1.36-1.67,1.75-.57,.36-1.27,.54-2,.48-.52-.03-1.07-.19-1.58-.46-.04-.02-.08-.04-.12-.06-.01,.01-.02,.03-.04,.04-.48,.53-1.18,.89-1.96,.97-.12,.01-.25,.02-.39,.02"/>
  <path class="cls-16" d="M60.4,90.85c-.57,0-1.1-.13-1.6-.37-1.01-.51-1.55-1.54-1.41-2.64,.04-.37,.07-.86,.11-1.47,.04-.64,.07-1.35,.1-2.11,.03-.77,.06-1.56,.08-2.37,.02-.81,.03-1.57,.04-2.26l.03-1.82c0-.5,.01-.82,.01-1,0-.96,.38-1.84,1.07-2.47,.48-.45,1.04-.78,1.65-.96,.72-.21,1.38-.21,2-.03,.89,.28,1.51,.96,1.7,1.8,1.05,.14,1.94,.62,2.6,1.4,.56,.67,.95,1.46,1.16,2.35,.2,.82,.24,1.69,.13,2.6-.11,.88-.34,1.71-.69,2.46-.38,.82-.9,1.52-1.54,2.07-.65,.55-1.41,.88-2.22,.95,0,.43,0,.79,0,1.08,0,1-.55,1.88-1.46,2.36-.52,.27-1.06,.41-1.62,.43h-.15Z"/>
  <path class="cls-16" d="M67.36,90.85c-.56,0-1.1-.13-1.6-.37-1.01-.51-1.55-1.54-1.4-2.64,.04-.37,.07-.86,.11-1.47,.04-.64,.07-1.35,.1-2.11,.03-.77,.05-1.56,.07-2.37,.02-.81,.04-1.57,.05-2.26l.03-1.82c.01-.5,.02-.83,.02-1,0-.96,.38-1.83,1.06-2.47,.48-.45,1.04-.78,1.66-.96,.71-.21,1.38-.21,1.99-.03,.89,.28,1.51,.96,1.71,1.8,1.05,.14,1.94,.62,2.6,1.4,.56,.67,.95,1.46,1.16,2.35,.2,.82,.24,1.69,.13,2.6-.11,.88-.34,1.71-.69,2.46-.38,.82-.9,1.52-1.54,2.07-.65,.55-1.41,.88-2.22,.95,0,.43,0,.79,0,1.08,0,1-.55,1.88-1.46,2.36-.52,.27-1.06,.41-1.62,.43h-.15Z"/>
  <path class="cls-16" d="M77.35,93.22c-.17,0-.33-.01-.49-.04-1.16-.17-2.25-1.22-2.06-2.87,.01-.17,.04-.53,.06-1,.03-.48,.06-1.02,.11-1.63,0-.04,0-.09,0-.13-.33-.06-.64-.16-.95-.31-.5-.24-.96-.59-1.35-1.04-.44-.5-.73-1.1-.86-1.76-.08-.39-.13-.89-.16-1.51-.02-.53-.03-1.1-.03-1.71s.01-1.22,.03-1.85c.02-.59,.03-1.15,.03-1.69v-.11c.06-1.02,.53-1.87,1.32-2.41,.53-.36,1.13-.58,1.79-.65,.6-.06,1.28,.03,1.86,.28,.43,.19,.78,.46,1.05,.79,.28-.07,.56-.11,.85-.12h.14c.59,0,1.16,.13,1.67,.41,.96,.53,1.49,1.5,1.4,2.56v.12c-.07,.38-.11,.86-.15,1.45-.04,.65-.07,1.34-.1,2.08-.03,.74-.05,1.49-.08,2.25-.02,.76-.03,1.47-.04,2.12-.01,.67-.02,1.25-.03,1.74,0,.46-.01,.79-.01,.96,0,.88-.3,1.7-.86,2.39-.43,.54-.94,.96-1.51,1.26-.54,.28-1.1,.42-1.64,.42"/>
  <path class="cls-16" d="M92.73,89.19c-1.32,0-2.75-.21-4.25-.61-1.54-.42-2.98-1.05-4.28-1.9-1.37-.89-2.52-2.02-3.42-3.37-.98-1.46-1.48-3.18-1.48-5.12,0-2.09,.53-4,1.58-5.68,.99-1.59,2.27-2.94,3.8-4.01,1.48-1.04,3.15-1.85,4.96-2.4,1.78-.55,3.57-.83,5.32-.83,.98,0,2.02,.1,3.1,.31,1.15,.21,2.24,.57,3.26,1.08,1.11,.56,2.05,1.31,2.8,2.25,.86,1.08,1.3,2.4,1.3,3.92,0,1.28-.38,2.46-1.14,3.5-.66,.9-1.5,1.65-2.5,2.25-.91,.54-1.92,.96-3.01,1.26-1.91,.51-3.7,.55-5.45,.19-.87-.18-1.65-.48-2.33-.88-.76-.44-1.39-1.02-1.87-1.71-.54-.8-.81-1.74-.81-2.8,0-.21,.01-.41,.04-.61-.46,.31-.88,.65-1.25,1.03-.43,.45-.77,.93-1.02,1.47-.22,.48-.33,1-.33,1.6,0,.55,.09,1,.29,1.4,.22,.46,.51,.86,.88,1.21,.39,.38,.84,.69,1.37,.96,.59,.3,1.2,.55,1.83,.75,.65,.2,1.3,.35,1.93,.44,.64,.09,1.24,.14,1.77,.14,1.32,0,2.66-.15,3.99-.45,1.32-.3,2.62-.75,3.85-1.33,1.03-.49,1.69-.75,2.19-.86,.29-.06,.54-.09,.76-.09,1.26,0,2.26,.95,2.26,2.18,0,.49-.14,1.43-1.11,2.23-.3,.25-.71,.55-1.25,.9-1.79,1.18-3.72,2.09-5.73,2.69-2,.61-4.03,.92-6.04,.92m4.84-16.93c-.02,.38-.14,.72-.3,1,.28-.08,.53-.18,.77-.3,.19-.1,.36-.21,.49-.33-.02-.02-.05-.03-.08-.05-.25-.13-.51-.23-.81-.31-.02,0-.05-.01-.07-.02"/>
  <path class="cls-16" d="M106.6,86.81c-1.26,0-2.31-.36-3.14-1.08-.74-.64-1.26-1.44-1.55-2.38-.25-.83-.32-1.72-.23-2.65,.1-.9,.34-1.75,.71-2.52,.4-.82,.95-1.51,1.62-2.06,.84-.69,1.88-1.02,3.02-.95,1.14,.06,2.13,.44,2.93,1.13,.72,.62,1.24,1.39,1.56,2.29,.29,.82,.42,1.69,.37,2.59-.04,.9-.25,1.76-.64,2.56-.4,.83-.97,1.54-1.7,2.1-.85,.65-1.85,.97-2.97,.97"/>
  <path class="cls-16" d="M112.12,88.1c-.53,0-1.05-.12-1.53-.36-.51-.24-.97-.61-1.35-1.07-.41-.49-.68-1.06-.81-1.71-.09-.45-.13-.95-.13-1.56,0-.5,.02-1.04,.05-1.62,.03-.55,.07-1.14,.12-1.74,.05-.55,.08-1.08,.1-1.61,0-.96,.47-1.87,1.3-2.42,.53-.36,1.14-.58,1.78-.64,.69-.07,1.32,.04,1.89,.31,.37,.17,.68,.4,.93,.69,.69-.18,1.29-.16,1.92,.02,.52,.15,1,.38,1.41,.7,.25,.19,.47,.42,.64,.65,.4-.1,.81-.1,1.21-.02,.6,.12,1.17,.48,1.57,1,.49,.65,.63,1.47,.39,2.27-.05,.19-.14,.5-.26,.93-.15,.5-.34,1.04-.57,1.63-.25,.62-.55,1.22-.9,1.8-.46,.76-1.02,1.35-1.67,1.75-.57,.36-1.28,.54-2,.48-.52-.03-1.06-.19-1.57-.45-.04-.02-.08-.04-.12-.06-.01,.01-.02,.02-.04,.04-.48,.53-1.18,.89-1.96,.97-.12,.01-.25,.02-.39,.02"/>
  <path class="cls-16" d="M120.2,88.17c-1.02,0-1.93-.44-2.56-1.24-.42-.52-.74-1.2-.93-1.98-.15-.62-.25-1.32-.28-2.1-.03-.67-.04-1.39-.02-2.13,.02-.71,.06-1.42,.12-2.13-.15-.07-.3-.16-.44-.26-.66-.46-1.07-1.15-1.13-1.92-.06-.87,.33-1.67,1.05-2.21,.29-.22,.61-.37,.97-.47,.26-.79,.74-1.25,1.06-1.49,.59-.43,1.28-.66,1.99-.66h.21c.76,.06,1.46,.35,2.03,.84,.41,.36,.7,.8,.86,1.28,.25,.1,.48,.23,.69,.39,.93,.72,1.07,1.61,1.07,2.08,0,.61-.22,1.18-.63,1.64,.54,.16,.98,.47,1.32,.89,.55,.68,.69,1.56,.39,2.43-.09,.32-.26,.85-.46,1.5-.23,.74-.53,1.47-.87,2.17-.4,.79-.88,1.49-1.44,2.07-.83,.86-1.87,1.31-3.01,1.31"/>
  <path class="cls-16" d="M124.49,88.1c-.54,0-1.05-.12-1.54-.36-.5-.24-.96-.6-1.34-1.06-.42-.5-.69-1.08-.82-1.72-.09-.45-.13-.95-.13-1.55,0-.5,.02-1.03,.05-1.62,.03-.56,.07-1.14,.13-1.74,.05-.55,.08-1.09,.1-1.61,0-.95,.47-1.86,1.3-2.42,.53-.36,1.14-.58,1.79-.65,.69-.07,1.32,.04,1.89,.31,.37,.17,.68,.41,.93,.69,.69-.18,1.29-.16,1.92,.02,.52,.15,1,.38,1.41,.7,.25,.2,.47,.42,.64,.66,.4-.1,.81-.1,1.21-.02,.6,.12,1.17,.48,1.57,1.01,.48,.64,.62,1.46,.38,2.26-.05,.19-.14,.5-.26,.93-.16,.52-.35,1.07-.58,1.64-.25,.61-.55,1.22-.9,1.79-.47,.77-1.03,1.36-1.67,1.75-.57,.36-1.27,.54-2,.48-.52-.03-1.06-.19-1.57-.45-.04-.02-.08-.04-.12-.07-.01,.01-.03,.03-.04,.04-.48,.53-1.18,.89-1.96,.97-.12,.01-.25,.02-.39,.02"/>
  <path class="cls-16" d="M133.68,87.96h-.2c-1.2-.06-2.22-.69-2.79-1.75-.34-.64-.57-1.39-.66-2.24-.04-.38-.06-.77-.04-1.17-.33-.18-.64-.45-.87-.78-.41-.53-.55-1.26-.38-1.97-.06-.21-.1-.42-.12-.64-.05-.63,.06-1.21,.32-1.76,.22-.48,.57-.91,1.02-1.26,.56-.44,1.23-.68,1.94-.68,1.31,0,2.15,.68,2.54,1.51,.35,.06,.67,.19,.97,.36l.35-.07-.09,.25s.07,.06,.1,.09c.36-.15,.72-.23,1.09-.23h.23c.69,.06,1.33,.39,1.79,.94,.44,.54,.64,1.25,.57,2l-.04,.23c-.02,.11-.08,.33-.16,.69-.1,.4-.22,.83-.38,1.3-.16,.47-.35,.95-.58,1.46-.27,.6-.59,1.15-.95,1.64-.44,.59-.92,1.06-1.45,1.41-.65,.44-1.39,.67-2.2,.67"/>
  <path class="cls-16" d="M138.66,88.44c-1.36,0-2.5-.53-3.31-1.53-.61-.77-1.03-1.71-1.23-2.81-.17-.96-.21-1.98-.1-3.04,.11-1.03,.33-2.02,.65-2.93,.35-.98,.81-1.83,1.37-2.51,1.03-1.26,2.19-1.52,2.98-1.52,.99,0,1.92,.36,2.67,1.03,.58,.52,1.04,1.15,1.36,1.85,.11,.25,.21,.5,.29,.75,.04,0,.08,0,.13,0l.41,.03c.67,.11,1.26,.47,1.66,1.02,.44,.62,.58,1.36,.42,2.12l-.06,.2c-.04,.11-.1,.31-.18,.62-.13,.46-.31,.94-.53,1.45-.23,.53-.5,1.06-.8,1.58-.36,.62-.79,1.2-1.29,1.71-.53,.54-1.14,.99-1.81,1.36-.8,.42-1.68,.64-2.62,.64"/>
  <path class="cls-11" d="M32.36,70.14c-1.02,.36-1.85,.65-2.49,.87-.64,.22-1.16,.4-1.55,.53-.39,.13-.69,.22-.9,.27-.21,.05-.4,.07-.55,.07-.48,0-.72-.12-.72-.36,0-.14,.07-.3,.21-.48,.14-.18,.29-.35,.46-.51,.17-.16,.34-.3,.5-.42,.16-.12,.27-.19,.33-.21,.82-.56,1.72-1.05,2.7-1.46,.98-.41,2-.75,3.05-1.02,1.05-.27,2.12-.48,3.21-.62,1.09-.14,2.17-.21,3.23-.21,.64,0,1.31,.03,2.01,.09,.7,.06,1.37,.13,2.01,.21,.54,.08,1.15,.19,1.81,.33,.67,.14,1.36,.32,2.06,.54,.7,.22,1.38,.48,2.04,.79,.66,.31,1.25,.67,1.77,1.09,.52,.42,.94,.91,1.24,1.46,.31,.55,.47,1.16,.47,1.84,0,.98-.27,1.85-.8,2.6-.53,.75-1.21,1.4-2.05,1.94-.84,.54-1.79,1-2.84,1.38-1.05,.38-2.1,.7-3.15,.95-1.05,.25-2.05,.45-3,.6-.95,.15-1.74,.27-2.36,.35-.02,.62-.06,1.35-.13,2.19-.07,.84-.17,1.64-.29,2.4-.12,.76-.27,1.4-.45,1.94-.18,.53-.4,.79-.66,.79-.16,0-.29-.16-.39-.48-.28-.72-.45-1.6-.5-2.64-.05-1.04-.07-2.33-.07-3.87-.88,.1-1.75,.19-2.6,.27-.85,.08-1.7,.16-2.54,.24-.02-.02-.15-.02-.4,0-.25,.02-.57,.04-.95,.08-.38,.03-.78,.05-1.22,.07-.43,.02-.83,.02-1.2,0-.37-.02-.68-.07-.93-.15-.25-.08-.37-.2-.37-.36s.23-.31,.7-.45c.47-.14,1.02-.26,1.65-.36,.63-.1,1.25-.18,1.85-.24,.6-.06,1.04-.11,1.32-.15,.76-.04,1.53-.11,2.31-.22,.78-.11,1.58-.23,2.4-.34,.06-.16,.11-.44,.14-.84,.03-.4,.06-.85,.1-1.35,.04-.5,.08-1.02,.13-1.55,.05-.53,.12-1.02,.2-1.46,.08-.44,.18-.81,.31-1.1,.13-.29,.3-.43,.52-.43,.44,0,.78,.12,1.02,.36,.24,.24,.41,.55,.5,.93,.09,.38,.13,.8,.12,1.26,0,.46-.04,.93-.1,1.4-.06,.47-.13,.91-.21,1.32-.08,.41-.13,.75-.15,1.01,.44-.06,1.05-.16,1.82-.29,.77-.13,1.6-.3,2.48-.51,.88-.21,1.77-.47,2.67-.76,.9-.3,1.72-.66,2.44-1.08,.73-.42,1.33-.89,1.79-1.43,.46-.53,.69-1.13,.69-1.81,0-.54-.18-1.02-.56-1.43-.37-.41-.85-.77-1.45-1.08-.6-.31-1.29-.57-2.06-.78s-1.56-.38-2.37-.51c-.81-.13-1.61-.22-2.4-.27-.79-.05-1.5-.08-2.12-.08-1.32,0-2.63,.11-3.92,.32-1.29,.21-2.57,.48-3.83,.82"/>
  <path class="cls-11" d="M51.93,78.51c0-.34,.12-.59,.38-.76,.25-.17,.52-.27,.82-.3,.3-.03,.57,.01,.81,.12,.24,.11,.35,.28,.33,.49-.04,.64-.1,1.31-.18,2.01-.08,.7-.16,1.35-.24,1.95-.08,.6-.13,1.11-.15,1.52-.02,.41,.03,.64,.15,.68,.1,.04,.21-.04,.33-.23,.12-.19,.24-.44,.36-.76,.12-.32,.24-.68,.37-1.08,.13-.4,.26-.8,.38-1.2,.12-.4,.23-.78,.33-1.14,.1-.36,.19-.65,.27-.87,.02-.3,.15-.48,.4-.56,.25-.07,.52-.06,.8,.02,.28,.08,.53,.2,.74,.36,.21,.16,.3,.33,.29,.51-.08,.36-.16,.81-.23,1.35-.07,.54-.12,1.06-.13,1.56-.02,.5,0,.93,.04,1.29,.05,.36,.17,.54,.35,.54,.12,0,.27-.15,.44-.47,.17-.31,.33-.68,.5-1.09,.16-.42,.31-.84,.45-1.26,.14-.42,.23-.74,.27-.96,.04-.2,.13-.34,.27-.41,.14-.07,.28-.09,.42-.06,.14,.03,.26,.1,.35,.22,.09,.12,.1,.27,.04,.45-.04,.16-.12,.46-.25,.9-.13,.44-.3,.92-.51,1.44-.21,.52-.46,1.02-.75,1.5-.29,.48-.62,.83-.97,1.05-.22,.14-.47,.2-.74,.18-.27-.02-.53-.09-.78-.22-.25-.13-.47-.32-.66-.57-.19-.25-.31-.55-.38-.89-.06-.3-.09-.64-.09-1.02-.18,.56-.39,1.09-.63,1.59-.24,.5-.52,.91-.84,1.23-.2,.22-.44,.35-.71,.38-.27,.03-.53-.01-.78-.13-.25-.12-.47-.29-.66-.52-.19-.23-.32-.49-.37-.8-.06-.3-.09-.68-.09-1.14s.01-.96,.04-1.5c.03-.54,.07-1.1,.12-1.68,.05-.58,.09-1.15,.11-1.71"/>
  <path class="cls-11" d="M59.86,76.8c0-.38,.13-.69,.39-.93,.26-.24,.54-.41,.84-.5,.3-.09,.57-.1,.8-.03,.23,.07,.33,.23,.29,.5-.04,.22-.07,.51-.11,.87-.03,.36-.06,.77-.1,1.23,.2-.2,.45-.38,.76-.54,.31-.16,.65-.23,1.01-.21,.62,.04,1.11,.27,1.46,.69,.35,.42,.59,.92,.74,1.5,.14,.58,.17,1.2,.09,1.86-.08,.66-.25,1.27-.51,1.83-.26,.56-.6,1.02-1.01,1.37-.41,.35-.89,.51-1.43,.46-.36,0-.72-.12-1.08-.36-.06-.04-.12-.08-.18-.12-.06-.04-.12-.09-.18-.15-.04,.78-.07,1.51-.08,2.18-.01,.67-.02,1.2-.02,1.61,0,.22-.11,.39-.34,.51-.23,.12-.48,.18-.73,.19-.26,0-.5-.04-.72-.15-.22-.11-.31-.28-.27-.53,.04-.4,.08-.93,.12-1.59,.04-.66,.08-1.38,.11-2.16,.03-.78,.06-1.58,.08-2.4,.02-.82,.03-1.58,.04-2.28,.01-.7,.02-1.31,.03-1.82,.01-.51,.01-.85,.01-1.03m2.4,2.52c-.18,.42-.31,.87-.38,1.35-.07,.48-.08,.93-.04,1.35,.04,.42,.14,.78,.3,1.08,.16,.3,.36,.47,.6,.51,.2,.04,.38-.06,.55-.3,.17-.24,.31-.54,.42-.92,.11-.37,.19-.78,.26-1.23,.06-.45,.08-.88,.04-1.28-.03-.4-.1-.73-.21-1-.11-.27-.28-.42-.5-.44-.22-.02-.42,.06-.6,.24-.18,.18-.33,.39-.45,.63"/>
  <path class="cls-11" d="M66.82,76.8c0-.38,.13-.69,.39-.93,.26-.24,.54-.41,.84-.5,.3-.09,.57-.1,.8-.03,.23,.07,.32,.23,.29,.5-.04,.22-.08,.51-.11,.87-.03,.36-.06,.77-.1,1.23,.2-.2,.46-.38,.76-.54,.31-.16,.65-.23,1.01-.21,.62,.04,1.1,.27,1.45,.69,.35,.42,.59,.92,.74,1.5,.14,.58,.17,1.2,.09,1.86-.08,.66-.25,1.27-.51,1.83-.26,.56-.6,1.02-1.01,1.37-.41,.35-.89,.51-1.43,.46-.36,0-.72-.12-1.08-.36-.06-.04-.12-.08-.18-.12-.06-.04-.12-.09-.18-.15-.04,.78-.07,1.51-.08,2.18-.01,.67-.02,1.2-.02,1.61,0,.22-.12,.39-.34,.51-.23,.12-.48,.18-.74,.19-.26,0-.5-.04-.72-.15-.22-.11-.31-.28-.27-.53,.04-.4,.08-.93,.12-1.59,.04-.66,.08-1.38,.11-2.16,.03-.78,.05-1.58,.07-2.4,.02-.82,.04-1.58,.05-2.28,0-.7,.02-1.31,.03-1.82,.01-.51,.02-.85,.02-1.03m2.4,2.52c-.18,.42-.31,.87-.37,1.35-.07,.48-.09,.93-.05,1.35,.04,.42,.14,.78,.3,1.08,.16,.3,.36,.47,.6,.51,.2,.04,.39-.06,.55-.3,.17-.24,.31-.54,.42-.92,.11-.37,.2-.78,.26-1.23,.06-.45,.07-.88,.04-1.28-.03-.4-.1-.73-.21-1-.11-.27-.27-.42-.5-.44-.22-.02-.42,.06-.6,.24-.18,.18-.33,.39-.45,.63"/>
  <path class="cls-11" d="M79.28,89.14c0,.4-.13,.76-.39,1.08-.26,.32-.55,.56-.85,.72-.31,.16-.59,.22-.84,.18-.25-.04-.36-.23-.32-.57,.02-.26,.04-.63,.08-1.11,.03-.48,.06-1.02,.11-1.62,.04-.6,.08-1.25,.1-1.94,.03-.69,.07-1.38,.11-2.08-.2,.54-.48,1-.84,1.38-.2,.2-.44,.31-.71,.33-.27,.02-.53-.03-.78-.15-.25-.12-.48-.29-.67-.52-.2-.23-.33-.5-.39-.8-.06-.3-.1-.7-.12-1.2-.02-.5-.03-1.04-.03-1.62s0-1.17,.03-1.79c.02-.61,.03-1.19,.03-1.76,.02-.36,.15-.63,.4-.79,.25-.17,.52-.27,.82-.3,.3-.03,.58,.01,.83,.12,.25,.11,.36,.27,.35,.5-.04,.64-.09,1.33-.15,2.07-.06,.74-.12,1.44-.17,2.08-.05,.65-.07,1.2-.06,1.65,.01,.45,.08,.7,.2,.74,.12,.04,.23-.04,.34-.24,.11-.2,.22-.47,.33-.81,.11-.34,.21-.71,.31-1.13,.1-.41,.19-.81,.26-1.2,.07-.39,.13-.74,.18-1.05,.05-.31,.07-.54,.07-.68,.24-.12,.4-.12,.46,0,.07,.12,.14,.34,.2,.66,.02,.08,.02,.27,.02,.59-.01,.31-.05,.68-.12,1.11-.07,.43-.17,.89-.3,1.39-.13,.5-.29,.97-.49,1.41,.06-1.1,.11-2.15,.15-3.14,.04-.99,.07-1.77,.09-2.36,0-.24,.12-.42,.36-.55,.24-.13,.5-.2,.78-.21,.28-.01,.53,.05,.75,.16,.22,.12,.32,.3,.3,.54-.06,.42-.11,.96-.15,1.62-.04,.66-.07,1.37-.1,2.12-.03,.75-.05,1.51-.08,2.28-.02,.77-.04,1.49-.04,2.15-.01,.66-.02,1.23-.03,1.73,0,.49-.01,.82-.01,1.01"/>
  <path class="cls-11" d="M90.39,74.61c0-.46,.12-.87,.37-1.23,.25-.36,.57-.67,.95-.92,.38-.25,.8-.44,1.26-.57,.46-.13,.9-.2,1.32-.2,.28,0,.55,.03,.81,.09,.26,.06,.39,.17,.39,.33,0,.1-.1,.26-.3,.46-.2,.21-.53,.4-.99,.56-.08,.04-.21,.11-.39,.21-.18,.1-.36,.22-.54,.35-.18,.13-.34,.27-.48,.43-.14,.16-.21,.31-.21,.45,0,.26,.28,.5,.84,.72,.56,.22,1.24,.33,2.04,.33,.58,0,1.18-.07,1.8-.21,.62-.14,1.18-.33,1.7-.58,.51-.25,.93-.57,1.26-.95,.33-.38,.5-.81,.5-1.29,0-.44-.12-.81-.36-1.11-.24-.3-.55-.55-.93-.75-.38-.2-.79-.36-1.24-.48-.45-.12-.89-.21-1.31-.26-.42-.05-.79-.08-1.11-.09-.32,0-.53-.01-.63-.01-.76,0-1.58,.07-2.45,.23-.87,.15-1.73,.38-2.58,.69-.85,.31-1.67,.69-2.45,1.15-.78,.46-1.47,1-2.06,1.61-.59,.61-1.06,1.29-1.41,2.04-.35,.75-.53,1.58-.53,2.48s.16,1.63,.5,2.31c.33,.68,.76,1.28,1.3,1.8,.54,.52,1.16,.96,1.86,1.32,.7,.36,1.43,.66,2.18,.89,.75,.23,1.49,.4,2.24,.51,.74,.11,1.43,.16,2.07,.16,1.48,0,2.96-.16,4.44-.5,1.48-.33,2.91-.83,4.29-1.49,.84-.4,1.42-.64,1.74-.71,.32-.07,.48-.05,.48,.05,0,.22-.12,.43-.36,.63-.24,.2-.59,.45-1.05,.75-1.64,1.08-3.37,1.9-5.19,2.45-1.82,.55-3.63,.83-5.43,.83-1.14,0-2.38-.18-3.71-.54-1.33-.36-2.56-.9-3.69-1.63-1.13-.73-2.07-1.66-2.82-2.78-.75-1.12-1.13-2.44-1.13-3.96,0-1.7,.42-3.23,1.26-4.58,.84-1.35,1.92-2.48,3.23-3.4,1.31-.92,2.77-1.63,4.37-2.12,1.6-.49,3.17-.74,4.71-.74,.84,0,1.75,.09,2.72,.27,.97,.18,1.88,.48,2.72,.9,.84,.42,1.54,.98,2.1,1.68,.56,.7,.84,1.57,.84,2.61,0,.84-.25,1.6-.74,2.27-.49,.67-1.12,1.23-1.87,1.68-.76,.45-1.59,.79-2.49,1.04-.9,.24-1.76,.36-2.58,.36-.64,0-1.28-.06-1.91-.19-.63-.13-1.2-.34-1.7-.63-.5-.29-.9-.65-1.2-1.09-.3-.44-.45-.98-.45-1.62"/>
  <path class="cls-11" d="M106.6,84.73c-.74,0-1.33-.19-1.77-.57-.44-.38-.75-.85-.92-1.41-.17-.56-.22-1.17-.15-1.83,.07-.66,.24-1.26,.51-1.82,.27-.55,.62-1,1.07-1.37,.44-.36,.96-.52,1.56-.48,.7,.04,1.27,.25,1.71,.63,.44,.38,.76,.85,.96,1.41,.2,.56,.29,1.16,.26,1.79-.03,.63-.17,1.22-.43,1.76-.26,.54-.63,.99-1.1,1.35-.47,.36-1.04,.54-1.7,.54m.39-1.35c.22,.02,.4-.08,.54-.32,.14-.23,.24-.53,.3-.9,.06-.37,.09-.78,.08-1.22-.01-.44-.06-.85-.15-1.23-.09-.38-.22-.7-.38-.96-.16-.26-.35-.39-.57-.39-.2,0-.37,.12-.51,.36-.14,.24-.25,.54-.31,.9-.07,.36-.11,.75-.11,1.18s.04,.83,.12,1.2c.08,.37,.2,.69,.36,.95,.16,.26,.37,.4,.63,.42"/>
  <path class="cls-11" d="M110.65,78.51c0-.34,.12-.59,.38-.76,.25-.17,.53-.27,.82-.3,.3-.03,.57,.01,.81,.12,.24,.11,.35,.28,.33,.49-.04,.64-.1,1.31-.18,2.01-.08,.7-.16,1.35-.24,1.95-.08,.6-.13,1.11-.15,1.52-.02,.41,.03,.64,.15,.68,.1,.04,.21-.04,.33-.23,.12-.19,.24-.44,.36-.76,.12-.32,.24-.68,.37-1.08,.13-.4,.26-.8,.38-1.2,.12-.4,.23-.78,.33-1.14,.1-.36,.19-.65,.27-.87,.02-.3,.15-.48,.4-.56,.25-.07,.52-.06,.8,.02,.28,.08,.53,.2,.74,.36,.21,.16,.3,.33,.28,.51-.08,.36-.16,.81-.23,1.35-.07,.54-.12,1.06-.14,1.56-.02,.5,0,.93,.05,1.29,.05,.36,.16,.54,.34,.54,.12,0,.27-.15,.44-.47,.17-.31,.33-.68,.5-1.09,.16-.42,.31-.84,.45-1.26,.14-.42,.23-.74,.27-.96,.04-.2,.13-.34,.27-.41,.14-.07,.28-.09,.42-.06,.14,.03,.25,.1,.34,.22,.09,.12,.1,.27,.04,.45-.04,.16-.13,.46-.26,.9-.13,.44-.3,.92-.51,1.44-.21,.52-.46,1.02-.75,1.5-.29,.48-.62,.83-.97,1.05-.22,.14-.47,.2-.74,.18-.27-.02-.53-.09-.78-.22-.25-.13-.47-.32-.66-.57-.19-.25-.31-.55-.38-.89-.06-.3-.09-.64-.09-1.02-.18,.56-.39,1.09-.63,1.59-.24,.5-.52,.91-.84,1.23-.2,.22-.44,.35-.7,.38-.27,.03-.53-.01-.78-.13-.25-.12-.47-.29-.66-.52-.19-.23-.32-.49-.38-.8-.06-.3-.09-.68-.09-1.14s.02-.96,.05-1.5c.03-.54,.07-1.1,.12-1.68,.05-.58,.09-1.15,.11-1.71"/>
  <path class="cls-11" d="M118.85,75.67c0-.14,0-.28,.01-.41,0-.13,.02-.24,.02-.34,0-.48,.13-.82,.39-1.01s.54-.27,.84-.25c.3,.02,.57,.13,.79,.33,.23,.2,.32,.46,.26,.78l-.15,.78h.72c.38,0,.65,.06,.83,.19,.17,.13,.25,.27,.25,.42s-.09,.29-.27,.4c-.18,.12-.43,.18-.75,.18h-.9c-.08,.72-.15,1.51-.21,2.39-.06,.87-.1,1.69-.12,2.46-.02,.77,0,1.41,.03,1.92,.04,.51,.13,.77,.27,.77,.12,0,.29-.18,.5-.54,.21-.36,.42-.78,.64-1.25,.22-.47,.42-.93,.6-1.38,.18-.45,.3-.76,.36-.92,.04-.18,.13-.3,.27-.36,.14-.06,.27-.07,.4-.05,.13,.03,.24,.1,.33,.21,.09,.11,.11,.25,.04,.43-.12,.4-.28,.92-.48,1.56-.2,.64-.45,1.26-.75,1.86-.3,.6-.66,1.12-1.08,1.56-.42,.44-.92,.66-1.5,.66-.38,0-.69-.15-.93-.45-.24-.3-.42-.69-.54-1.18-.12-.49-.2-1.06-.23-1.7-.03-.64-.03-1.3-.02-1.98,.02-.68,.06-1.37,.12-2.06,.06-.69,.11-1.33,.15-1.91h-.72c-.32,0-.57-.06-.74-.18-.17-.12-.26-.25-.27-.39,0-.14,.06-.27,.23-.39,.16-.12,.42-.18,.78-.18h.81Z"/>
  <path class="cls-11" d="M123.02,78.51c0-.34,.12-.59,.37-.76,.25-.17,.53-.27,.83-.3,.3-.03,.57,.01,.81,.12,.24,.11,.35,.28,.33,.49-.04,.64-.1,1.31-.18,2.01-.08,.7-.16,1.35-.24,1.95-.08,.6-.13,1.11-.15,1.52-.02,.41,.03,.64,.15,.68,.1,.04,.21-.04,.33-.23,.12-.19,.24-.44,.36-.76,.12-.32,.25-.68,.38-1.08,.13-.4,.26-.8,.38-1.2,.12-.4,.23-.78,.33-1.14,.1-.36,.19-.65,.27-.87,.02-.3,.15-.48,.4-.56,.25-.07,.52-.06,.8,.02,.28,.08,.53,.2,.74,.36,.21,.16,.3,.33,.29,.51-.08,.36-.16,.81-.23,1.35-.07,.54-.12,1.06-.13,1.56-.02,.5,0,.93,.05,1.29,.05,.36,.16,.54,.34,.54,.12,0,.27-.15,.44-.47,.17-.31,.33-.68,.49-1.09,.16-.42,.31-.84,.45-1.26,.14-.42,.23-.74,.27-.96,.04-.2,.13-.34,.27-.41,.14-.07,.28-.09,.42-.06,.14,.03,.25,.1,.34,.22,.09,.12,.11,.27,.05,.45-.04,.16-.13,.46-.26,.9-.13,.44-.3,.92-.51,1.44-.21,.52-.46,1.02-.75,1.5-.29,.48-.62,.83-.98,1.05-.22,.14-.47,.2-.74,.18-.27-.02-.53-.09-.78-.22-.25-.13-.47-.32-.66-.57-.19-.25-.31-.55-.38-.89-.06-.3-.09-.64-.09-1.02-.18,.56-.39,1.09-.63,1.59-.24,.5-.52,.91-.84,1.23-.2,.22-.44,.35-.71,.38-.27,.03-.53-.01-.78-.13-.25-.12-.47-.29-.66-.52s-.32-.49-.38-.8c-.06-.3-.09-.68-.09-1.14s.02-.96,.04-1.5c.03-.54,.07-1.1,.12-1.68,.05-.58,.09-1.15,.11-1.71"/>
  <path class="cls-11" d="M131.81,80.62c-.04,.16-.13,.27-.25,.34-.13,.07-.27,.09-.41,.06-.14-.03-.25-.1-.33-.21-.08-.11-.08-.25,0-.43l.18-.51c-.18-.18-.28-.39-.3-.63-.02-.24,.02-.47,.12-.68,.1-.21,.24-.39,.43-.54,.19-.15,.41-.23,.65-.23,.42,0,.65,.15,.69,.47,.04,.31-.02,.65-.18,1.03,.12,.06,.32,.07,.59,.03,.27-.04,.53-.06,.77-.07,.24-.01,.44,.04,.6,.14,.16,.1,.2,.33,.12,.69-.08,.36-.17,.79-.26,1.29-.09,.5-.15,.98-.2,1.42-.04,.45-.04,.84,0,1.16,.04,.32,.15,.48,.33,.48,.12,0,.28-.17,.47-.52,.19-.35,.39-.75,.59-1.22,.2-.46,.38-.93,.54-1.39,.16-.47,.26-.83,.3-1.07,.04-.2,.13-.34,.25-.42,.13-.08,.27-.11,.41-.1,.14,0,.26,.07,.34,.18,.09,.11,.13,.27,.11,.47-.02,.1-.07,.31-.15,.65-.08,.33-.19,.7-.33,1.11-.14,.41-.31,.84-.51,1.29-.2,.45-.44,.87-.72,1.25-.28,.38-.59,.69-.93,.92-.34,.23-.72,.33-1.14,.31-.48-.02-.83-.23-1.05-.64-.22-.41-.36-.9-.42-1.47-.06-.57-.05-1.18,.04-1.81,.09-.64,.21-1.2,.38-1.68-.1,.02-.2,.03-.3,.03h-.3c-.06,.1-.1,.21-.12,.33"/>
  <path class="cls-11" d="M141.24,80.26c-.16,.22-.36,.4-.6,.54-.24,.14-.5,.26-.78,.35-.28,.09-.57,.15-.86,.19-.29,.04-.55,.07-.76,.09-.06,.42-.1,.83-.1,1.23-.01,.4,0,.76,.06,1.08,.05,.32,.13,.59,.24,.81,.11,.22,.27,.36,.47,.42,.26,.08,.54,.04,.84-.13,.3-.17,.59-.41,.87-.71,.28-.3,.55-.65,.81-1.05,.26-.4,.49-.78,.69-1.15,.2-.37,.37-.71,.51-1.02,.14-.31,.23-.53,.27-.67,.06-.18,.15-.3,.29-.36,.13-.06,.25-.08,.38-.06,.12,.02,.22,.09,.3,.2,.08,.11,.1,.25,.06,.43-.04,.12-.11,.36-.21,.71-.1,.35-.25,.74-.44,1.19-.19,.44-.42,.9-.69,1.36-.27,.47-.59,.9-.98,1.29-.38,.39-.82,.71-1.31,.98-.49,.26-1.04,.39-1.64,.39-.72,0-1.28-.25-1.68-.75-.4-.5-.67-1.13-.81-1.89-.14-.76-.16-1.58-.07-2.45,.09-.87,.27-1.69,.54-2.45,.27-.76,.61-1.39,1.02-1.89,.41-.5,.87-.75,1.37-.75s.91,.16,1.28,.5c.37,.33,.65,.72,.85,1.16,.2,.44,.32,.89,.35,1.35,.03,.46-.06,.82-.26,1.08m-1.86-2.67c-.14,.06-.29,.32-.45,.76-.16,.45-.31,.99-.45,1.64,.22,0,.44-.02,.66-.07,.22-.05,.38-.16,.48-.32,.08-.12,.13-.29,.15-.52,.02-.23,.02-.47-.02-.71-.03-.24-.08-.44-.15-.6-.07-.16-.15-.22-.23-.18"/>
  <g class="cls-17">
    <g class="cls-2">
      <path class="cls-13" d="M90.34,67.44c.59-.43,.98-1.13,.98-1.91,0-1.31-1.06-2.36-2.37-2.36s-2.37,1.06-2.37,2.36c0,.06,0,.13,.01,.19h-6.15c0-.06,0-.13,0-.19,0-1.31-1.06-2.36-2.37-2.36s-2.37,1.06-2.37,2.36c0,.79,.39,1.48,.98,1.91-.59,.43-.98,1.12-.98,1.91,0,1.31,1.06,2.37,2.37,2.37,1.13,0,2.08-.8,2.31-1.86h6.24c.23,1.06,1.18,1.86,2.31,1.86,1.3,0,2.37-1.06,2.37-2.37,0-.78-.39-1.48-.98-1.91"/>
    </g>
  </g>
  <path class="cls-4" d="M88.67,65.94c.59-.43,.97-1.12,.97-1.91,0-1.31-1.06-2.37-2.37-2.37s-2.37,1.06-2.37,2.37c0,.06,0,.13,.01,.19h-6.15c0-.06,0-.13,0-.19,0-1.31-1.06-2.37-2.37-2.37s-2.37,1.06-2.37,2.37c0,.79,.38,1.48,.98,1.91-.59,.43-.98,1.13-.98,1.91,0,1.31,1.06,2.37,2.37,2.37,1.13,0,2.08-.8,2.31-1.86h6.24c.23,1.06,1.18,1.86,2.31,1.86,1.31,0,2.37-1.06,2.37-2.37,0-.79-.38-1.48-.97-1.91"/>
  <path class="cls-12" d="M83.79,67.82l-6.09-.96s-.15,3.57-3.43,1.96c0,0,2.43,3.6,4.61-.36l4.92-.64Z"/>
  <path class="cls-13" d="M87.28,70.75c-1.2,0-2.28-.76-2.7-1.86h-5.45c-.43,1.1-1.5,1.86-2.71,1.86-1.6,0-2.9-1.3-2.9-2.9,0-.71,.26-1.39,.72-1.91-.46-.52-.72-1.2-.72-1.91,0-1.6,1.3-2.9,2.9-2.9,1.48,0,2.71,1.12,2.88,2.56h5.1c.17-1.44,1.4-2.56,2.88-2.56,1.6,0,2.9,1.3,2.9,2.9,0,.71-.26,1.39-.72,1.91,.46,.53,.72,1.2,.72,1.91,0,1.6-1.3,2.9-2.9,2.9m-8.98-2.92h7.1l.09,.42c.18,.83,.93,1.44,1.79,1.44,1.01,0,1.83-.82,1.83-1.83,0-.58-.28-1.13-.76-1.48l-.59-.43,.59-.43c.47-.35,.76-.9,.76-1.48,0-1.01-.82-1.83-1.83-1.83s-1.83,.82-1.83,1.83l.05,.69-.57,.03h-6.72l.05-.72c0-1.01-.82-1.83-1.83-1.83s-1.83,.82-1.83,1.83c0,.58,.28,1.13,.76,1.48l.59,.43-.59,.43c-.47,.35-.76,.9-.76,1.48,0,1.01,.82,1.83,1.83,1.83,.85,0,1.61-.6,1.79-1.44l.09-.42Z"/>
  <path class="cls-7" d="M80.76,65.53c.08,0,.15,.01,.21,.04,.06,.03,.1,.06,.14,.11,.04,.04,.06,.1,.08,.16,.01,.06,.02,.12,.02,.18,0,.08-.01,.16-.04,.22-.03,.06-.06,.11-.11,.15-.05,.04-.1,.07-.16,.09-.06,.02-.13,.03-.21,.03h-.18v.65h-.33v-1.63h.57Zm-.1,.74c.07,0,.12-.02,.16-.06,.04-.04,.06-.1,.06-.18s-.02-.15-.05-.19c-.03-.04-.09-.06-.17-.06h-.14v.5h.15Z"/>
  <path class="cls-7" d="M82.56,65.82c-.03-.05-.08-.08-.15-.08-.04,0-.08,0-.1,.03-.03,.02-.05,.06-.06,.11-.02,.05-.03,.11-.03,.19,0,.08,0,.18,0,.29,0,.12,0,.22,.01,.3,0,.08,.02,.13,.04,.18,.02,.04,.04,.07,.07,.09,.03,.01,.06,.02,.09,.02,.03,0,.06,0,.08-.02,.03,0,.05-.03,.07-.06,.02-.03,.03-.07,.04-.13,.01-.06,.02-.13,.02-.21h.33c0,.09,0,.17-.02,.25-.01,.08-.04,.15-.08,.21-.04,.06-.09,.11-.16,.14-.07,.04-.16,.05-.26,.05-.12,0-.22-.02-.3-.06-.07-.04-.13-.1-.17-.17-.04-.07-.06-.16-.07-.27-.01-.1-.02-.22-.02-.34s0-.24,.02-.34c.01-.1,.04-.19,.07-.27,.04-.07,.1-.13,.17-.17,.07-.04,.17-.06,.3-.06s.21,.02,.28,.06c.07,.04,.12,.08,.15,.14,.03,.06,.05,.13,.06,.19,0,.07,.01,.13,.01,.19h-.33c0-.12-.02-.2-.04-.26"/>
  <path class="cls-16" d="M60.57,98.1v2.31h.02c.15-.22,.32-.38,.51-.49,.19-.11,.41-.16,.68-.16,.58,0,1,.23,1.28,.68,.27,.45,.41,1.19,.41,2.21s-.14,1.75-.41,2.2c-.27,.44-.7,.66-1.28,.66-.29,0-.53-.05-.72-.15-.19-.1-.37-.28-.53-.54h-.02v.58h-1.35v-7.3h1.41Zm.14,5.9c.09,.3,.29,.45,.61,.45s.51-.15,.6-.45c.09-.3,.14-.75,.14-1.35s-.05-1.05-.14-1.35c-.09-.3-.29-.45-.6-.45s-.52,.15-.61,.45c-.09,.3-.14,.75-.14,1.35s.05,1.05,.14,1.35"/>
  <path class="cls-16" d="M66.65,101.4c.08-.36,.2-.66,.37-.9,.17-.24,.39-.42,.67-.55,.28-.13,.61-.19,1.02-.19,.42,0,.77,.05,1.05,.17,.28,.12,.5,.3,.66,.55,.16,.24,.28,.55,.35,.91,.07,.36,.1,.78,.1,1.27s-.04,.89-.11,1.25c-.08,.36-.2,.66-.37,.9s-.39,.42-.67,.54c-.28,.12-.61,.17-1.02,.17-.42,0-.77-.05-1.05-.16-.28-.11-.5-.29-.66-.53-.16-.24-.28-.55-.35-.91-.07-.36-.1-.78-.1-1.26s.04-.88,.11-1.25m1.32,2.02c.01,.24,.05,.44,.1,.61,.05,.17,.13,.3,.23,.4,.1,.1,.24,.14,.41,.14,.29,0,.48-.15,.59-.45,.11-.3,.16-.79,.16-1.48s-.05-1.18-.16-1.48c-.11-.3-.31-.45-.59-.45-.17,0-.31,.05-.41,.14-.1,.1-.18,.23-.23,.4-.05,.17-.08,.38-.1,.61-.01,.24-.02,.5-.02,.78s0,.54,.02,.78"/>
  <path class="cls-16" d="M76.87,104.75c-.15,.27-.34,.47-.58,.58-.24,.12-.51,.17-.82,.17-.45,0-.8-.12-1.04-.35-.24-.23-.36-.63-.36-1.18v-4.08h1.41v3.79c0,.29,.05,.49,.14,.6,.1,.11,.25,.17,.46,.17,.5,0,.75-.3,.75-.91v-3.65h1.41v5.5h-1.35v-.64h-.02Z"/>
  <path class="cls-16" d="M83.35,98.33v1.57h.82v.96h-.82v2.97c0,.22,.03,.37,.1,.47,.06,.09,.2,.14,.4,.14,.05,0,.11,0,.16,0,.05,0,.11,0,.15-.02v.98c-.16,0-.31,0-.46,.02-.15,0-.3,.02-.46,.02-.27,0-.5-.02-.67-.06-.17-.04-.31-.11-.4-.23s-.15-.26-.19-.44c-.03-.18-.05-.42-.05-.7v-3.15h-.71v-.96h.71v-1.57h1.41Z"/>
  <path class="cls-16" d="M88.57,99.23h-1.41v-1.2h1.41v1.2Zm0,6.17h-1.41v-5.5h1.41v5.5Z"/>
  <path class="cls-16" d="M94.75,104.89c-.15,.22-.32,.38-.51,.48-.19,.1-.41,.15-.68,.15-.58,0-1-.22-1.28-.66-.27-.44-.41-1.17-.41-2.2s.14-1.76,.41-2.21c.27-.45,.7-.68,1.28-.68,.29,0,.53,.06,.72,.17,.19,.11,.37,.3,.53,.56h.02v-.58h1.35v7.26h-1.41v-2.28h-.02Zm-.12-3.59c-.09-.3-.29-.45-.61-.45s-.51,.15-.6,.45c-.09,.3-.14,.75-.14,1.35s.05,1.05,.14,1.35c.09,.3,.29,.45,.6,.45s.52-.15,.61-.45c.09-.3,.14-.75,.14-1.35s-.05-1.05-.14-1.35"/>
  <path class="cls-16" d="M102.37,104.75c-.15,.27-.34,.47-.58,.58-.24,.12-.51,.17-.82,.17-.45,0-.8-.12-1.04-.35-.24-.23-.36-.63-.36-1.18v-4.08h1.41v3.79c0,.29,.05,.49,.14,.6,.1,.11,.25,.17,.46,.17,.5,0,.75-.3,.75-.91v-3.65h1.41v5.5h-1.35v-.64h-.02Z"/>
  <path class="cls-16" d="M108.33,103.3c0,.16,.01,.32,.04,.48,.02,.15,.06,.29,.12,.41,.05,.12,.13,.21,.21,.29,.09,.07,.2,.11,.33,.11,.24,0,.41-.08,.52-.25,.11-.17,.18-.43,.23-.78h1.27c-.03,.64-.2,1.13-.51,1.46-.31,.33-.81,.5-1.48,.5-.51,0-.91-.09-1.2-.26-.29-.17-.5-.39-.63-.67-.14-.28-.22-.59-.25-.94-.03-.35-.05-.69-.05-1.04,0-.37,.02-.72,.08-1.06,.05-.34,.15-.64,.31-.91,.15-.27,.37-.48,.66-.63,.29-.16,.67-.24,1.14-.24,.41,0,.74,.07,1.01,.2,.26,.13,.47,.32,.62,.56,.15,.24,.25,.54,.31,.88,.05,.34,.08,.73,.08,1.15v.32h-2.79v.44Zm1.4-1.83c-.02-.16-.06-.3-.11-.41-.05-.11-.12-.2-.21-.26-.09-.06-.21-.09-.35-.09s-.26,.03-.35,.1c-.09,.06-.17,.15-.22,.25-.06,.11-.09,.22-.12,.35-.02,.13-.04,.26-.04,.39v.21h1.44c0-.21-.02-.4-.04-.56"/>
</svg>