<?xml version="1.0" encoding="UTF-8"?>
<svg id="Capa_1" data-name="Capa 1" xmlns="http://www.w3.org/2000/svg" viewBox="0 0 170.08 113.39">
  <defs>
    <style>
      .cls-1 {
        fill: #002e82;
      }

      .cls-2 {
        fill: #feee00;
      }

      .cls-3 {
        fill: #bf0811;
      }

      .cls-4 {
        fill: #70a83b;
      }
    </style>
  </defs>
  <path class="cls-3" d="M92.84,76.25l-11.76-1.79v-11.77h17.22s1.76,5.1,.01,7.75c-3.39,5.12-5.47,5.81-5.47,5.81Z"/>
  <g>
    <path class="cls-1" d="M63.91,100.79s.05-.02,.08-.02,.05,0,.08,0h.3c.06,0,.1,.02,.12,.05s.04,.08,.05,.13l.06,.36c.07-.08,.14-.15,.22-.22,.08-.07,.16-.13,.26-.19s.2-.1,.31-.13,.24-.05,.38-.05c.18,0,.35,.02,.51,.07,.16,.05,.31,.11,.45,.19,.14,.08,.27,.18,.38,.3s.21,.25,.29,.39c.08,.14,.14,.3,.19,.46,.04,.16,.07,.34,.07,.51s-.02,.35-.07,.51c-.04,.16-.11,.32-.19,.46-.08,.14-.18,.27-.29,.39-.11,.12-.24,.22-.38,.3-.14,.08-.29,.15-.45,.19-.16,.05-.33,.07-.51,.07-.13,0-.24-.01-.35-.04-.11-.03-.21-.07-.3-.11-.09-.05-.18-.1-.25-.17s-.15-.13-.22-.2v1.43s-.01,.09-.04,.12-.07,.05-.13,.05h-.49s-.08-.01-.12-.04-.06-.07-.06-.12v-4.53s0-.07,.03-.1,.04-.04,.08-.05Zm2.91,1.84c0-.15-.03-.3-.08-.44-.06-.14-.13-.26-.23-.37-.1-.11-.21-.19-.35-.25-.13-.06-.28-.09-.43-.09s-.3,.03-.44,.09c-.14,.06-.26,.14-.36,.25-.1,.1-.18,.22-.25,.36-.06,.14-.09,.28-.09,.43v.02c0,.16,.03,.31,.09,.45,.06,.14,.14,.26,.24,.37s.22,.19,.36,.25c.14,.06,.29,.09,.44,.09s.3-.03,.43-.09c.13-.06,.25-.15,.35-.25s.17-.23,.23-.37c.06-.14,.08-.29,.08-.45Z"/>
    <path class="cls-1" d="M72.08,104.33s0,.06-.02,.09-.03,.04-.06,.05-.05,.02-.08,.03c-.03,0-.06,0-.09,0h-.37c-.06,0-.11-.02-.13-.05s-.04-.08-.05-.13l-.02-.25c-.07,.07-.14,.13-.23,.19-.08,.06-.17,.11-.27,.16-.1,.04-.2,.08-.3,.1-.11,.02-.22,.04-.33,.04-.18,0-.35-.02-.51-.07-.16-.04-.32-.11-.46-.19-.14-.08-.27-.18-.39-.3-.12-.12-.22-.25-.3-.39-.08-.14-.15-.3-.19-.46-.05-.17-.07-.34-.07-.51s.02-.35,.07-.51c.05-.17,.11-.32,.19-.46,.08-.14,.18-.27,.3-.39s.25-.22,.39-.3,.3-.15,.46-.2c.16-.05,.33-.07,.51-.07,.12,0,.24,.01,.36,.04,.11,.03,.22,.06,.32,.11s.19,.11,.28,.17,.16,.14,.23,.22l.04-.31s.02-.06,.03-.09,.02-.04,.03-.05,.03-.02,.05-.03c.02,0,.04,0,.07,0h.29s.06,0,.09,0,.06,.01,.08,.03c.03,.01,.05,.03,.06,.05s.02,.05,.02,.08v3.39Zm-3.05-1.69c0,.16,.03,.31,.08,.45,.05,.14,.13,.26,.23,.37s.21,.19,.35,.25c.13,.06,.28,.09,.43,.09s.31-.03,.44-.09c.14-.06,.26-.15,.36-.25s.18-.23,.24-.37c.06-.14,.09-.29,.09-.45s-.03-.3-.09-.44c-.06-.14-.14-.26-.24-.37s-.22-.19-.36-.25c-.14-.06-.29-.09-.44-.09s-.3,.03-.43,.09c-.13,.06-.25,.15-.35,.25s-.17,.23-.23,.37c-.06,.14-.08,.29-.08,.44Z"/>
    <path class="cls-1" d="M72.84,100.94c0-.06,.02-.1,.06-.13s.08-.04,.12-.04h.38s.09,.01,.11,.04c.03,.03,.04,.07,.06,.11s.02,.09,.03,.14,.01,.1,.02,.14c.04-.06,.09-.12,.15-.18s.11-.11,.18-.15c.07-.04,.15-.08,.23-.11s.18-.04,.29-.04c.1,0,.19,0,.26,.02s.15,.03,.22,.06,.14,.06,.21,.1,.14,.09,.22,.15c.03,.02,.06,.05,.09,.07,.02,.03,.04,.06,.04,.1,0,.02,0,.03,0,.05s-.01,.04-.02,.05l-.24,.38s-.03,.03-.05,.04-.04,.01-.05,.01c-.03,0-.06,0-.09-.02-.06-.04-.12-.07-.18-.1-.05-.03-.1-.06-.16-.08s-.1-.04-.16-.05-.11-.02-.18-.02c-.17,0-.32,.06-.44,.17-.12,.11-.2,.27-.24,.46v2.21c0,.12-.06,.18-.18,.18h-.48c-.12,0-.18-.06-.18-.18v-3.38Z"/>
    <path class="cls-1" d="M79.8,104.32s0,.06-.02,.09-.03,.04-.06,.05-.05,.02-.08,.03c-.03,0-.06,0-.09,0h-.37c-.06,0-.11-.02-.13-.05s-.04-.08-.05-.13l-.02-.25c-.07,.07-.14,.13-.23,.19-.08,.06-.17,.11-.27,.16-.1,.04-.2,.08-.3,.1-.11,.02-.22,.04-.33,.04-.18,0-.35-.02-.51-.07-.16-.05-.32-.11-.46-.19-.14-.08-.27-.18-.39-.3-.12-.12-.22-.25-.3-.39-.08-.14-.15-.3-.19-.46-.05-.17-.07-.34-.07-.51s.02-.35,.07-.51c.05-.17,.11-.32,.19-.46,.08-.14,.18-.27,.3-.39s.25-.22,.39-.3c.14-.08,.3-.15,.46-.19,.16-.05,.33-.07,.51-.07,.12,0,.24,.01,.36,.04,.11,.03,.22,.06,.32,.11,.1,.05,.19,.1,.28,.17s.16,.14,.23,.22l.04-.31s.02-.06,.03-.09,.02-.04,.03-.05,.03-.02,.05-.03c.02,0,.04,0,.07,0h.29s.06,0,.09,0,.06,.01,.08,.03c.03,.01,.05,.03,.06,.05s.02,.05,.02,.08v3.39Zm-3.05-1.69c0,.16,.03,.31,.08,.44,.05,.14,.13,.26,.23,.37s.21,.19,.35,.25c.13,.06,.28,.09,.43,.09s.31-.03,.44-.09c.14-.06,.26-.15,.36-.25,.1-.11,.18-.23,.24-.37,.06-.14,.09-.29,.09-.45s-.03-.3-.09-.44c-.06-.14-.14-.26-.24-.37-.1-.1-.22-.19-.36-.25-.14-.06-.29-.09-.44-.09s-.3,.03-.43,.09c-.13,.06-.25,.15-.35,.25s-.17,.23-.23,.37c-.06,.14-.08,.29-.08,.44Z"/>
    <path class="cls-1" d="M82.41,99.83c0-.05,.01-.09,.04-.13s.07-.05,.13-.05h.51s.08,.02,.11,.05,.05,.08,.05,.13v4.49c0,.06-.01,.1-.05,.13s-.08,.04-.13,.04h-.49c-.06,0-.11-.01-.13-.04s-.04-.07-.04-.13v-4.49Z"/>
    <path class="cls-1" d="M83.94,102.63c0-.18,.02-.35,.07-.52,.05-.17,.11-.32,.2-.46,.08-.14,.19-.27,.3-.39s.25-.22,.39-.3c.14-.08,.3-.15,.46-.19,.16-.05,.33-.07,.51-.07,.18,0,.35,.02,.51,.07,.17,.05,.32,.11,.46,.19s.27,.18,.39,.3,.22,.25,.3,.39c.08,.14,.15,.3,.2,.46,.05,.17,.07,.34,.07,.52,0,.18-.02,.35-.07,.51-.05,.16-.11,.32-.2,.46-.08,.14-.19,.27-.3,.39-.12,.12-.25,.22-.39,.3-.14,.08-.29,.15-.46,.19-.16,.05-.33,.07-.51,.07-.18,0-.35-.02-.51-.07-.16-.05-.32-.11-.46-.19s-.27-.18-.39-.3c-.12-.12-.22-.25-.3-.39-.08-.14-.15-.3-.2-.46-.05-.17-.07-.34-.07-.51Zm.83,0c0,.16,.03,.31,.08,.45,.05,.14,.13,.26,.23,.37s.21,.19,.35,.25c.13,.06,.28,.09,.44,.09,.15,0,.3-.03,.43-.09,.13-.06,.25-.14,.34-.25s.17-.23,.22-.37c.05-.14,.08-.29,.08-.45s-.03-.3-.08-.44c-.05-.14-.13-.26-.22-.37-.1-.11-.21-.19-.34-.26-.13-.06-.28-.1-.43-.1-.16,0-.31,.03-.44,.1-.13,.06-.25,.15-.35,.26-.1,.11-.17,.23-.23,.37-.06,.14-.08,.29-.08,.44Z"/>
    <path class="cls-1" d="M88.87,103.44c.04,.06,.09,.12,.16,.17,.06,.05,.13,.09,.19,.12s.13,.05,.19,.07c.06,.01,.11,.02,.14,.02,.06,0,.12,0,.19-.02s.14-.03,.21-.06,.12-.07,.17-.12c.05-.05,.07-.12,.07-.2s-.02-.14-.05-.19-.09-.09-.15-.12-.13-.06-.21-.08c-.08-.02-.16-.05-.25-.07-.21-.05-.38-.12-.53-.2-.15-.08-.26-.17-.36-.27s-.16-.21-.2-.33-.06-.25-.06-.39c0-.16,.03-.3,.09-.43,.06-.13,.15-.24,.26-.34,.11-.09,.25-.17,.41-.22,.16-.05,.34-.08,.53-.08,.14,0,.26,.01,.37,.04s.21,.06,.3,.11c.09,.05,.18,.11,.26,.19,.08,.07,.16,.16,.25,.26,.03,.04,.04,.07,.04,.1,0,.04-.02,.07-.06,.1-.03,.02-.06,.05-.1,.09-.04,.04-.08,.07-.12,.1-.04,.03-.08,.06-.11,.08s-.06,.04-.09,.04c-.04,0-.08-.03-.13-.08-.04-.05-.09-.1-.13-.13s-.09-.07-.13-.09-.1-.04-.15-.06c-.05-.01-.11-.02-.18-.02-.05,0-.11,0-.17,.02s-.11,.04-.16,.07c-.05,.03-.09,.07-.12,.11s-.05,.09-.05,.15c0,.06,.02,.12,.06,.16s.09,.08,.15,.11c.06,.03,.13,.06,.2,.08s.14,.04,.2,.06c.18,.05,.35,.11,.5,.18,.15,.07,.28,.15,.39,.24s.19,.21,.25,.33,.09,.28,.09,.45c0,.18-.04,.34-.11,.49-.07,.14-.17,.27-.3,.37-.13,.1-.28,.18-.46,.23-.17,.05-.37,.08-.57,.08-.12,0-.25-.01-.38-.04-.13-.03-.25-.07-.37-.12s-.22-.13-.32-.21c-.1-.09-.18-.19-.25-.31-.03-.05-.04-.09-.04-.13,0-.03,0-.05,.02-.07s.03-.04,.05-.05l.33-.25s.06-.03,.08-.03c.03,0,.05,0,.07,.03s.04,.04,.07,.08Z"/>
    <path class="cls-1" d="M93.61,100.25s.01-.07,.03-.09,.05-.04,.1-.04h.58s.06,.01,.09,.04,.04,.05,.04,.09v4.11c0,.09-.04,.13-.14,.13h-.58c-.09,0-.13-.04-.13-.13v-4.11Z"/>
    <path class="cls-1" d="M95.38,100.84s.05-.05,.07-.06c.02-.02,.04-.02,.07-.03s.06,0,.09,0h.3c.06,0,.1,.02,.13,.06s.05,.08,.06,.12l.03,.31c.04-.07,.1-.13,.17-.2,.06-.06,.14-.12,.23-.17,.09-.05,.19-.09,.31-.12,.12-.03,.25-.05,.39-.05,.23,0,.44,.04,.62,.12,.18,.08,.33,.2,.46,.34,.12,.15,.22,.31,.28,.51,.06,.2,.1,.41,.1,.63v1.96c0,.07-.02,.12-.05,.16s-.08,.05-.14,.05h-.45c-.08,0-.13-.01-.16-.04s-.04-.08-.04-.16v-1.96c0-.1-.02-.21-.05-.3-.04-.1-.09-.19-.15-.27-.07-.08-.15-.14-.25-.19-.1-.05-.21-.07-.35-.07-.09,0-.18,.02-.28,.05-.1,.04-.19,.09-.27,.16-.08,.07-.15,.15-.2,.24s-.08,.2-.08,.32v1.9s0,.07,0,.11c0,.04-.01,.07-.03,.1s-.03,.05-.05,.07c-.02,.02-.05,.03-.09,.03h-.48c-.06,0-.11-.02-.14-.05s-.05-.07-.05-.13v-3.38s0-.06,.03-.09Z"/>
    <path class="cls-1" d="M99.59,100.76c0-.17,.03-.34,.08-.5,.05-.16,.13-.3,.23-.43,.1-.12,.23-.22,.38-.29,.15-.07,.32-.11,.5-.11h.03c.06,0,.1,.02,.13,.05s.05,.08,.05,.14v.41c0,.06-.01,.1-.04,.14-.03,.04-.07,.06-.12,.06-.03,0-.07,0-.11,.02s-.09,.04-.13,.07-.08,.07-.11,.12-.04,.11-.04,.17v.48h.43c.06,0,.1,.01,.13,.04s.05,.08,.05,.15v.36c0,.07-.02,.12-.05,.15-.03,.04-.08,.05-.13,.05h-.43v2.45c0,.06-.02,.11-.06,.14s-.09,.05-.13,.05h-.46c-.06,0-.1-.02-.14-.05s-.05-.08-.05-.14v-2.45h-.29c-.06,0-.1-.02-.14-.05-.04-.03-.05-.08-.05-.15v-.36c0-.07,.02-.12,.05-.15s.08-.04,.14-.04h.29v-.32Z"/>
    <path class="cls-1" d="M105.31,104.31s0,.06-.02,.09-.03,.04-.06,.05-.05,.02-.08,.03c-.03,0-.06,0-.09,0h-.37c-.06,0-.11-.02-.13-.05s-.04-.08-.05-.13l-.02-.25c-.07,.07-.14,.13-.23,.19-.08,.06-.17,.11-.27,.16-.1,.04-.2,.08-.3,.1-.11,.02-.22,.04-.33,.04-.18,0-.35-.02-.51-.07-.16-.05-.32-.11-.46-.19-.14-.08-.27-.18-.39-.3-.12-.12-.22-.25-.3-.39-.08-.14-.15-.3-.19-.46-.05-.17-.07-.34-.07-.51s.02-.35,.07-.51c.05-.17,.11-.32,.19-.46,.08-.14,.18-.27,.3-.39,.12-.12,.25-.22,.39-.3s.3-.15,.46-.19c.16-.05,.33-.07,.51-.07,.12,0,.24,.01,.36,.04,.11,.03,.22,.06,.32,.11s.19,.11,.28,.17,.16,.14,.23,.22l.04-.31s.02-.06,.03-.09,.02-.04,.03-.05,.03-.02,.05-.03c.02,0,.04,0,.07,0h.29s.06,0,.09,0,.06,.01,.08,.03c.03,.01,.05,.03,.06,.05s.02,.05,.02,.08v3.39Zm-3.05-1.69c0,.16,.03,.31,.08,.45,.05,.14,.13,.26,.23,.37s.21,.19,.35,.25c.13,.06,.28,.09,.43,.09s.31-.03,.44-.09c.14-.06,.26-.15,.36-.25s.18-.23,.24-.37c.06-.14,.09-.29,.09-.45s-.03-.3-.09-.44c-.06-.14-.14-.26-.24-.37s-.22-.19-.36-.25c-.14-.06-.29-.09-.44-.09s-.3,.03-.43,.09c-.13,.06-.25,.15-.35,.25s-.17,.23-.23,.37c-.06,.14-.08,.29-.08,.44Z"/>
    <path class="cls-1" d="M106.11,100.83s.05-.05,.07-.06c.02-.02,.04-.02,.07-.03s.06,0,.09,0h.3c.06,0,.1,.02,.13,.06s.05,.08,.06,.12l.03,.31c.04-.07,.1-.13,.17-.2,.06-.06,.14-.12,.23-.17,.09-.05,.19-.09,.31-.12,.12-.03,.25-.05,.39-.05,.23,0,.44,.04,.62,.12,.18,.08,.33,.2,.46,.34,.12,.15,.22,.32,.28,.51,.06,.19,.1,.41,.1,.63v1.96c0,.07-.02,.12-.05,.16-.03,.04-.08,.05-.14,.05h-.45c-.08,0-.13-.01-.16-.04s-.04-.08-.04-.16v-1.96c0-.1-.02-.21-.05-.3-.04-.1-.09-.19-.15-.27-.07-.08-.15-.14-.25-.19-.1-.05-.21-.07-.35-.07-.09,0-.18,.02-.28,.06-.1,.04-.19,.09-.27,.15-.08,.07-.15,.15-.2,.24s-.08,.2-.08,.32v1.9s0,.07,0,.11c0,.04-.01,.07-.03,.1s-.03,.05-.05,.07c-.02,.02-.05,.03-.09,.03h-.48c-.06,0-.11-.02-.14-.05s-.05-.07-.05-.13v-3.38s0-.06,.03-.09Z"/>
    <path class="cls-1" d="M111.42,104.48c-.15,0-.3-.02-.44-.07-.14-.04-.25-.11-.36-.2-.1-.08-.18-.19-.24-.31-.06-.12-.09-.27-.09-.42v-1.99h-.34c-.06,0-.1-.01-.13-.04s-.04-.07-.04-.13v-.42c0-.06,.01-.1,.04-.12s.07-.04,.13-.04h.34c0-.1,0-.21,0-.31,0-.1,0-.21,0-.31,0-.04,.01-.07,.04-.09,.02-.02,.06-.04,.11-.06,.03-.01,.07-.03,.12-.04s.09-.03,.15-.05c.05-.02,.1-.03,.15-.04,.05-.01,.09-.02,.12-.02,.06,0,.1,.02,.12,.05s.03,.08,.03,.13c0,.12,0,.25,0,.37,0,.12,0,.25,0,.37h.42c.05,0,.09,.01,.12,.04s.04,.07,.04,.12v.4c0,.06-.01,.11-.04,.13s-.07,.04-.12,.04h-.42v.56c0,.07,0,.13,0,.19,0,.06,0,.12,0,.19v.24c0,.09,0,.2,0,.32,0,0,0,0,0,.01s0,0,0,.01v.38c0,.13,.03,.22,.08,.28,.05,.06,.13,.08,.25,.08,.04,0,.07,.01,.1,.04s.04,.06,.04,.11v.41c0,.05-.01,.09-.04,.12s-.07,.04-.12,.04Z"/>
    <path class="cls-1" d="M115.34,104.06c-.17,.15-.36,.26-.57,.35-.2,.08-.43,.13-.67,.13-.26,0-.52-.05-.75-.15-.24-.1-.44-.24-.62-.41-.18-.17-.32-.38-.42-.61-.11-.23-.16-.49-.16-.76,0-.17,.02-.34,.06-.5,.04-.16,.1-.31,.18-.46,.08-.14,.18-.27,.29-.39,.11-.12,.24-.22,.38-.31,.14-.08,.29-.15,.46-.2,.16-.05,.34-.07,.52-.07,.15,0,.3,.02,.44,.05,.14,.04,.28,.09,.41,.15,.13,.07,.25,.15,.37,.24,.11,.09,.21,.2,.3,.32,.12,.16,.2,.34,.26,.53,.05,.19,.08,.4,.08,.63,0,.06,0,.1,0,.14,0,.04-.02,.07-.04,.09s-.05,.04-.09,.05c-.04,.01-.09,.02-.17,.02h-2.61c.03,.14,.07,.27,.15,.38s.16,.2,.25,.28c.1,.08,.2,.13,.32,.17,.12,.04,.23,.06,.35,.06,.09,0,.17,0,.25-.03,.08-.02,.16-.04,.23-.07s.14-.06,.2-.1c.06-.04,.11-.08,.16-.12,0,0,0,0,0,0,.02-.02,.05-.04,.07-.05s.04-.02,.07-.02c.02,0,.04,0,.06,.02s.04,.03,.07,.06c.05,.06,.1,.12,.13,.16,.04,.04,.07,.08,.09,.11,.02,.03,.04,.05,.05,.08s.02,.04,.02,.06c0,.05-.04,.11-.11,.17Zm-1.31-2.65c-.12,0-.23,.02-.34,.06-.11,.04-.21,.1-.3,.17-.09,.07-.17,.16-.24,.25-.07,.1-.12,.2-.15,.32h2.08c-.03-.12-.08-.23-.14-.33-.06-.1-.14-.18-.23-.25-.09-.07-.19-.13-.31-.17-.12-.04-.24-.06-.37-.06Z"/>
    <path class="cls-1" d="M116.99,103.42c.04,.06,.09,.12,.16,.17,.06,.05,.13,.09,.19,.12s.13,.05,.19,.07c.06,.01,.11,.02,.14,.02,.06,0,.12,0,.19-.02s.14-.03,.21-.06,.12-.07,.17-.12c.05-.05,.07-.12,.07-.2s-.02-.14-.05-.19-.09-.09-.15-.12-.13-.06-.21-.08c-.08-.02-.16-.05-.25-.07-.21-.05-.38-.12-.53-.2-.15-.08-.26-.17-.36-.27s-.16-.21-.2-.33c-.04-.12-.06-.25-.06-.39,0-.16,.03-.3,.09-.44s.15-.24,.26-.34c.11-.09,.25-.17,.41-.22,.16-.05,.34-.08,.53-.08,.14,0,.26,.01,.37,.04s.21,.06,.3,.11c.09,.05,.18,.11,.26,.19,.08,.07,.16,.16,.25,.26,.03,.04,.04,.07,.04,.1,0,.04-.02,.07-.06,.1-.03,.02-.06,.05-.1,.09-.04,.04-.08,.07-.12,.1-.04,.03-.08,.06-.11,.08s-.06,.04-.09,.04c-.04,0-.08-.03-.13-.08-.04-.05-.09-.09-.13-.13s-.09-.07-.13-.09-.1-.04-.15-.06c-.05-.01-.11-.02-.18-.02-.05,0-.11,0-.17,.02s-.11,.04-.16,.07c-.05,.03-.09,.07-.12,.11s-.05,.09-.05,.15c0,.06,.02,.12,.06,.16s.09,.08,.15,.11,.13,.06,.2,.08,.14,.04,.2,.06c.18,.05,.35,.11,.5,.18s.28,.15,.39,.24,.19,.21,.25,.33,.09,.28,.09,.45c0,.18-.04,.34-.11,.49-.07,.14-.17,.27-.3,.37-.13,.1-.28,.18-.46,.23-.17,.05-.37,.08-.57,.08-.12,0-.25-.01-.38-.04-.13-.03-.25-.07-.37-.12s-.22-.13-.32-.21-.18-.19-.25-.31c-.03-.05-.04-.09-.04-.13,0-.03,0-.05,.02-.07s.03-.04,.05-.05l.33-.25s.06-.03,.08-.03c.03,0,.05,0,.07,.03s.04,.04,.07,.08Z"/>
    <path class="cls-1" d="M121.43,104.36s.02-.08,.03-.11,.02-.06,.03-.09l1.58-3.94s.02-.04,.05-.07,.06-.04,.11-.04h.47s.08,.01,.1,.03c.02,.02,.04,.04,.05,.06l.1,.23,1.55,3.88s0,.02,0,.03,0,.03,0,.04c0,.06-.04,.09-.13,.09h-.58s-.08,0-.1-.03-.04-.04-.06-.08l-.05-.14c-.04-.09-.07-.19-.11-.28-.04-.09-.07-.19-.11-.28h-1.81c-.05,.14-.1,.27-.15,.39-.05,.12-.09,.23-.12,.32-.03,.07-.08,.11-.15,.11h-.59s-.07,0-.09-.02-.03-.03-.03-.06c0-.01,0-.02,0-.03Zm2.04-3.14c-.11,.27-.21,.55-.32,.84s-.21,.57-.31,.84h1.25s-.62-1.68-.62-1.68Z"/>
    <path class="cls-1" d="M126.1,103.9c0-.05,0-.1,.02-.14s.05-.06,.11-.06h.46s.05,0,.07,0,.05,0,.07,.02,.04,.02,.05,.04,.02,.04,.02,.07v.43s0,.05,0,.08,0,.04-.02,.06-.02,.03-.04,.04c-.02,.01-.04,.02-.07,.02h-.46c-.07,0-.12,0-.16-.02-.04-.01-.05-.05-.05-.11v-.44Z"/>
    <path class="cls-1" d="M131.09,100.42s.04,.03,.06,.05,.02,.04,.02,.07c0,.02,0,.04-.02,.07l-.28,.49s-.07,.07-.11,.07c-.01,0-.03,0-.04,0s-.03-.01-.05-.02c-.12-.09-.26-.16-.4-.21-.14-.05-.29-.07-.45-.07-.2,0-.38,.04-.55,.11-.17,.08-.31,.18-.43,.31-.12,.13-.22,.28-.28,.46-.07,.17-.1,.36-.1,.56s.03,.38,.1,.56c.07,.17,.16,.32,.28,.45,.12,.13,.26,.23,.43,.3,.17,.08,.35,.11,.55,.11,.16,0,.31-.02,.45-.07,.14-.05,.28-.12,.4-.21,.02-.01,.03-.02,.05-.02s.03,0,.04,0c.03,0,.07,.02,.1,.06l.29,.49s.02,.05,.02,.07c0,.03,0,.05-.02,.07s-.04,.03-.06,.05c-.18,.12-.38,.22-.59,.29-.21,.07-.44,.1-.67,.1-.21,0-.41-.03-.6-.08-.19-.05-.37-.13-.54-.23-.17-.1-.32-.21-.45-.35-.14-.14-.25-.29-.35-.45-.1-.17-.17-.34-.23-.53-.05-.19-.08-.39-.08-.6s.03-.41,.08-.6c.05-.19,.13-.37,.23-.54,.1-.17,.21-.32,.35-.46,.14-.14,.29-.25,.45-.35,.17-.1,.35-.17,.54-.23,.19-.05,.39-.08,.6-.08,.23,0,.46,.03,.66,.1,.21,.07,.41,.16,.59,.28Z"/>
    <path class="cls-1" d="M131.93,103.9c0-.05,0-.1,.02-.14s.05-.06,.11-.06h.46s.05,0,.07,0,.05,0,.07,.02,.04,.02,.05,.04,.02,.04,.02,.07v.43s0,.05,0,.08,0,.04-.02,.06-.02,.03-.04,.04c-.02,.01-.04,.02-.07,.02h-.46c-.07,0-.12,0-.16-.02-.04-.01-.05-.05-.05-.11v-.44Z"/>
  </g>
  <path class="cls-2" d="M98.83,23.62c14.21,0,26.99,6.06,35.92,15.74-8.93-11.52-22.9-18.93-38.6-18.92-26.96,.01-48.8,21.88-48.78,48.84,0,12.75,4.91,24.35,12.92,33.04-6.4-8.25-10.23-18.61-10.23-29.86-.01-26.96,21.83-48.82,48.78-48.84Z"/>
  <g>
    <path class="cls-1" d="M44.93,75.91c-.05-.29-.2-.51-.44-.68-.24-.17-.51-.23-.8-.17s-.51,.2-.67,.44c-.17,.24-.23,.5-.17,.79l.55,2.97c.17,.94-.01,1.81-.56,2.6-.54,.79-1.28,1.28-2.23,1.45-.94,.17-1.81-.01-2.6-.56-.79-.55-1.28-1.29-1.45-2.23l-.96-5.2c-.06-.33,0-.63,.2-.91,.19-.27,.45-.44,.77-.5,.33-.06,.63,0,.9,.19,.27,.19,.44,.45,.5,.78l.96,5.2c.05,.29,.2,.51,.44,.67,.24,.17,.5,.23,.79,.17,.29-.05,.51-.2,.68-.45,.17-.24,.22-.5,.17-.79l-.55-2.97c-.17-.94,.01-1.81,.56-2.6,.55-.79,1.29-1.28,2.23-1.45,.94-.17,1.81,.01,2.6,.56,.79,.54,1.28,1.29,1.45,2.23l.96,5.2c.06,.33,0,.64-.19,.91-.19,.27-.45,.44-.78,.5-.33,.06-.63,0-.9-.19s-.44-.45-.5-.78l-.96-5.2Z"/>
    <path class="cls-1" d="M46.46,71.01c-.16,.29-.4,.49-.72,.58-.32,.09-.63,.06-.92-.1l-8.87-4.92c-.2-.11-.36-.27-.47-.47-.11-.2-.16-.41-.15-.64s.08-.44,.2-.63c.13-.19,.3-.33,.51-.42l9.25-4.14c.3-.14,.61-.15,.92-.03,.31,.12,.54,.33,.67,.64,.08,.17,.12,.35,.11,.54,0,.23-.08,.43-.2,.62-.13,.19-.3,.34-.52,.43l-1.63,.74-.22,5.3,1.56,.87c.3,.16,.49,.4,.58,.72,.09,.32,.06,.63-.1,.92Zm-4.4-3.82l.12-2.88-2.94,1.32,2.82,1.56Z"/>
    <path class="cls-1" d="M47.71,58.09c-.09,.33-.27,.57-.56,.74-.29,.17-.59,.21-.92,.12l-8.77-2.3c-.32-.08-.57-.27-.73-.56-.17-.29-.22-.6-.13-.92,.08-.32,.27-.57,.57-.73,.29-.17,.59-.21,.91-.12l7.6,2,1.23-4.68c.08-.32,.27-.57,.56-.74,.29-.17,.59-.21,.91-.13,.33,.09,.57,.27,.74,.56,.17,.29,.21,.6,.12,.92l-1.53,5.84Z"/>
    <path class="cls-1" d="M49.24,48.17c-1.31,.42-2.58,.32-3.8-.31l-4.7-2.42c-.29-.15-.49-.39-.6-.7-.11-.32-.08-.63,.07-.93,.15-.29,.39-.49,.71-.59,.32-.1,.62-.08,.92,.08l4.7,2.42c.63,.33,1.29,.38,1.96,.16,.68-.21,1.18-.64,1.5-1.27,.32-.63,.38-1.28,.16-1.95-.21-.68-.64-1.18-1.27-1.51l-4.7-2.42c-.29-.15-.49-.39-.59-.7-.11-.32-.08-.63,.07-.92s.39-.5,.71-.6c.32-.1,.62-.08,.92,.08l4.7,2.42c1.22,.63,2.04,1.6,2.46,2.92,.42,1.31,.32,2.58-.31,3.8-.63,1.22-1.6,2.04-2.92,2.46Z"/>
    <path class="cls-1" d="M56.29,38.86c-.22,.26-.5,.4-.83,.42-.33,.03-.63-.07-.88-.29l-6.87-5.91c-.25-.22-.39-.49-.42-.82-.03-.33,.07-.63,.29-.89l1.97-2.29c1.03-1.2,2.34-1.86,3.93-1.98,1.58-.12,2.98,.33,4.18,1.37,1.2,1.03,1.86,2.34,1.98,3.93,.12,1.58-.34,2.97-1.37,4.17l-1.97,2.29Zm-1.05-2.49l1.18-1.37c.6-.7,.87-1.51,.8-2.42-.07-.92-.45-1.67-1.15-2.27-.69-.6-1.5-.86-2.42-.79-.92,.07-1.68,.45-2.28,1.15l-1.18,1.37,5.04,4.34Z"/>
    <path class="cls-1" d="M69.86,13.51c.33,.02,.61,.15,.84,.39,.23,.25,.33,.54,.32,.87l-.29,6.78,1.31,2.32c.17,.29,.21,.6,.12,.92-.09,.32-.28,.57-.57,.73-.29,.17-.59,.2-.92,.11-.32-.09-.56-.28-.73-.58l-1.32-2.32-5.97-3.24c-.29-.16-.48-.4-.58-.72-.09-.32-.06-.62,.1-.92,.16-.29,.4-.49,.72-.58,.32-.09,.63-.06,.92,.1l4.57,2.48,.23-5.19c.01-.33,.14-.61,.39-.84,.25-.22,.54-.33,.87-.32Z"/>
    <path class="cls-1" d="M86.95,16.02l2.29-7.38c.1-.32,.29-.56,.59-.71,.3-.15,.6-.18,.92-.08,.32,.1,.55,.29,.71,.59,.16,.3,.19,.6,.08,.92l-3,9.69c-.07,.22-.19,.4-.36,.55-.17,.15-.37,.25-.6,.29-.23,.04-.45,.01-.66-.08-.21-.08-.38-.22-.52-.41l-5.95-8.2c-.2-.27-.27-.58-.21-.91,.05-.33,.21-.59,.48-.79,.27-.2,.58-.27,.91-.21,.33,.05,.59,.21,.79,.48l4.53,6.24Z"/>
    <path class="cls-1" d="M95.62,19.23c-.34,0-.62-.12-.86-.36-.23-.24-.35-.53-.35-.86l.08-9.06c0-.33,.12-.62,.36-.85,.24-.24,.52-.36,.86-.35,.33,0,.62,.13,.85,.37,.23,.24,.35,.52,.35,.85l-.08,9.06c0,.34-.12,.62-.36,.86-.24,.23-.52,.35-.86,.34Z"/>
    <path class="cls-1" d="M100.05,19.31c-.33-.05-.6-.22-.79-.49s-.26-.57-.21-.91l1.46-8.95c.05-.33,.21-.59,.48-.78,.27-.2,.57-.27,.91-.22l2.98,.49c1.57,.25,2.81,1.03,3.74,2.32,.93,1.29,1.27,2.71,1.01,4.28-.25,1.56-1.03,2.81-2.32,3.74-1.29,.92-2.71,1.26-4.28,1l-2.98-.48Zm1.58-2.19l1.79,.29c.91,.15,1.74-.05,2.48-.58,.75-.54,1.19-1.26,1.34-2.16s-.05-1.73-.58-2.48c-.54-.75-1.26-1.2-2.17-1.35l-1.79-.29-1.07,6.57Z"/>
    <path class="cls-1" d="M109.7,20.9c-.22-.25-.32-.55-.29-.88,.02-.33,.16-.61,.41-.83l7.68-6.63c.17-.15,.37-.24,.6-.28,.22-.03,.44,0,.66,.08,.21,.09,.39,.23,.52,.41,.13,.19,.21,.4,.22,.62l.69,10.12c.03,.33-.07,.63-.29,.88-.22,.25-.5,.39-.83,.41-.19,.02-.37-.01-.55-.09-.21-.08-.38-.22-.51-.4-.14-.19-.21-.4-.23-.63l-.13-1.78-4.89-2.04-1.35,1.17c-.25,.22-.55,.32-.88,.29-.33-.02-.61-.16-.83-.41Zm5.11-2.81l2.66,1.11-.22-3.22-2.44,2.11Z"/>
  </g>
  <g>
    <path class="cls-1" d="M103.94,70.2c-4.22,1.26-5.92,4.37-6.09,8.36-.17,4.03-.09,8.08-.02,12.12,.03,1.85,.97,3.24,2.58,4.22,.42,.26,.65,.82,.97,1.25-.09,.1-.19,.19-.28,.29-6.53,0-13.06,0-19.73,.01,0-2.22,0-4.4,0-6.59s0-4.3,0-6.62c1.62,0,3.13,.01,4.65,0,1.45-.02,2.92,.06,4.35-.12,3.53-.46,5.65-3.98,4.46-7.34-.24-.68-.1-.99,.36-1.48,1.07-1.14,2.15-2.3,2.99-3.61,1.51-2.34,1.06-4.97-.94-6.54-2.03-1.6-4.55-1.39-6.6,.53-.08,.08-.18,.15-.31,.27-.23-.2-.47-.4-.69-.6-1.65-1.45-3.94-1.66-5.78-.51-1.88,1.17-2.87,3.44-2.02,5.5,.64,1.56,1.73,2.94,2.7,4.34,.19,.27,.75,.37,1.15,.38,1.33,.05,2.67,0,4,.03,1.96,.06,3.4,1.55,3.42,3.47,.02,1.91-1.4,3.56-3.32,3.58-5.06,.06-10.12,.05-15.19,0-1.56-.01-2.85-1.29-2.89-3-.04-1.51,.12-3.05,.44-4.53,1.05-4.85,2.73-9.49,5.26-13.78,1.53-2.59,3.46-4.91,6.66-5.32,5.34-.68,10.71-.96,16.01,.31,1.71,.41,3.13,1.37,4.24,2.74-3.58,4.8-3.64,6.79-.39,12.64Z"/>
    <path class="cls-4" d="M113.02,72.07c-.67,2.39-.58,4.65,1.03,6.59,1.61,1.94,3.78,2.55,6.38,2.21,0,1.02,0,1.95,0,2.87,0,1.84,0,3.69,0,5.53,0,2.95-.42,3.49-3.4,4.24v2.92c-4.55,0-8.97,0-13.5,0v-2.93c-.55-.14-1-.22-1.43-.37-1.19-.4-1.96-1.21-1.97-2.5-.02-4.23-.11-8.47,.07-12.7,.15-3.47,2.2-5.45,5.91-5.84,2.24-.23,4.53-.04,6.91-.05Z"/>
    <path class="cls-1" d="M91.42,51.97c-4.97-.02-8.94-4.03-8.91-9.01,.02-4.85,4.11-8.85,9.01-8.82,4.88,.03,8.85,4.08,8.84,8.98-.02,4.91-4.02,8.88-8.93,8.86Z"/>
    <path class="cls-4" d="M110.2,70.38c-3.6-.02-6.35-2.85-6.32-6.49,.03-3.45,2.87-6.25,6.34-6.25,3.56,0,6.42,2.89,6.39,6.45-.03,3.52-2.88,6.31-6.42,6.29Z"/>
    <path class="cls-1" d="M114.66,74.4c.53-1.11,.98-2.26,1.61-3.3,.61-1,1.66-1.15,2.56-.52,1.31,.91,2.57,1.93,3.67,3.08,.41,.43,.54,1.41,.4,2.05-.46,2-2.52,3.29-4.46,2.97-2.21-.37-3.57-1.97-3.78-4.27Z"/>
  </g>
</svg>