<?xml version="1.0" encoding="UTF-8"?>
<svg id="Capa_1" data-name="Capa 1" xmlns="http://www.w3.org/2000/svg" viewBox="0 0 170.08 113.39">
  <defs>
    <style>
      .cls-1 {
        fill: none;
        stroke: #006398;
        stroke-linecap: round;
        stroke-linejoin: round;
        stroke-width: 1.46px;
      }

      .cls-2 {
        fill: #005988;
      }

      .cls-3 {
        fill: #007cc0;
      }

      .cls-4, .cls-5 {
        fill: #fff;
      }

      .cls-6 {
        fill: #e2e4e7;
      }

      .cls-7 {
        fill: #b8b8be;
      }

      .cls-8 {
        fill: #acd3f1;
      }

      .cls-9 {
        fill: #211915;
      }

      .cls-5 {
        stroke: #c2c3c9;
        stroke-miterlimit: 10;
        stroke-width: .49px;
      }
    </style>
  </defs>
  <g>
    <path class="cls-3" d="M42.38,14.45s2.76-3.8,11.33-5.45c8.57-1.65,13.77-1.9,16.81-1.7,3.04,.2,10.58,1.2,13.74,2.32s3.32,1.09,3.32,1.09c0,0,1.37-1.28,2.79-1.62,1.42-.34,4.64-.66,6.51,1.12,1.87,1.77,2.23,3.54,2.06,5.04s-.45,2.89-.45,2.89c0,0,2.6,1.59,4.08,2.93,1.48,1.34,2.9,3.21,2.9,3.21,0,0,4.89,.14,8.91,1.93s8.18,3.74,10.44,6.73l.78,.95s-1.26,.59-2.29,1.28-3.49,2.49-4.72,4.27c-1.23,1.79-2.76,4.08-2.76,4.75s.25,3.29,.17,4.41-.53,3.8-.53,3.8c0,0,5.17,1.11,8.96,4.29,3.8,3.19,3.13,3.86,3.13,3.86,0,0-.95,1.17-2.51,1.68s-4.44,1.42-6.95,1.65-4.19,.73-4.19,.73c0,0-2.18,4.8-2.93,6.62s-4.91,8.85-5.56,10.11-5.03,7.15-6.12,8.54-3.94,4.72-3.94,4.72c0,0,2.74,.42,4.75,2.37s2.74,3.21,2.74,3.21c0,0,1.34,1.56,2.99,1.76s2.32,.81,2.46,1.65-1.12,2.4-3.02,2.4-4.52-.06-7.71-1.9c-3.18-1.84-7.12-3.57-8.63-3.66s-4.66,.36-6.87,.75c-2.21,.39-3.16,.5-4.47,.08s-4.73-1.68-5.5-3.97c-.77-2.28-.28-2.09,.82-2.06s2.14,.61,2.87,.6,3.59-2.29,4.1-2.64,2.64-1.51,4.36-1.58,2.87-.15,2.87-.15l.71,2.23s.61,.43,1.84-.99,6.22-7.43,6.7-8.15,3.83-6.14,4.37-7.84c.54-1.69,1.35-4.06,1.9-9.72s-.19-9.85-.35-11.13-.52-4-1.21-6.76-1.32-5.49-1.73-6.5-2.74-6.27-4.34-8.21-3.95-4.15-4.49-4.5-1.21-.76-1.21-.76c0,0,.79-2.37-1.47-3.65-.86-.48-1.95-.77-2.55-.64l-.6,.14h-.58s-4.34-3.35-5.9-4.21-7.99-3.85-10.89-4.73c-2.9-.87-5.49-1.7-13.53-2.4-.86-.07-9.08,.02-11.41,.8Z"/>
    <path class="cls-2" d="M88.95,15.24s.19,3.42,5.64,5.29c0,0-6.17,1-5.64-5.29Z"/>
    <path class="cls-6" d="M42.38,14.51s1.95,10.72,4.34,15.34,3.67,6.83,4.28,7.67,2.96,3.24,2.96,3.24c0,0-.69,.73,0,1.9s3.41,1.74,5.42,1.32,3.97-1.49,4.58-.26,2.01,3.52,2.46,4.86,.61,2.12,.61,2.12c0,0-2.46,0-2.12,1.79s2.35,1.95,2.79,2.12,1.01,1.28,1.51,1.68,3.29,2.4,3.29,2.4c0,0,6.42,2.96,6.95,2.96s.95,1.06,1.4,1.87,2.6,4.44,4.94,6c0,0,.03,.67,0,2.18s-.14,8.66,.01,10.81,.57,5.19,.74,6.42,1.31,5,1.31,5c0,0,10.7-9.43,12.96-18.09,0,0,1.82-6.07,1.82-8.82s.2-3.41,0-6.65-1.38-11.23-1.88-12.96-1.95-6.2-2.68-7.65-2.79-5.53-4.58-7.15-4.19-3.46-4.19-3.46c0,0,.28-2.25-1.41-3.61s-3.76-.35-3.76-.35c0,0-2.57-2.12-3.76-2.96-1.19-.84-8.75-4.71-11.39-5.57s-7.61-2.12-9.85-2.51c-2.23-.39-8.32-.69-9.49-.6s-6.29,.52-7.26,.97Z"/>
    <path class="cls-8" d="M55.81,13.99s4.44-9.41,27.31-4.24c0,0-19.36-6.88-36.93,3.7,0,0,7.07-.28,9.62,.54Z"/>
    <path class="cls-3" d="M72.37,58.81s-.22,2.16-3.05,4.41-6.87,5.08-6.87,5.08c0,0,1.79,.58,2.83,.8s7.76,1.01,9.62,.82,4.39-.54,6.44-1.49,2.05-1.17,2.05-1.17c0,0-1.19-1.28-1.86-2.42s-1.49-3.24-1.49-3.24c0,0-2.27-.45-3.97-1.19s-3.7-1.6-3.7-1.6Z"/>
    <path class="cls-7" d="M83.79,42.44s-.82,8.62-12.91,9.33c-2.53,.15-4.21,.15-4.17,.73s1.32,1.9,4.51,1.71c0,0-1.31,.77-2.32,.62s-2.99-.76-3.65-2.01,.56-2.16,1.68-2.12,4.16-.1,6.58-.68,6.28-3,7.33-3.89,2.94-3.68,2.94-3.68Z"/>
    <path class="cls-7" d="M56.1,39.48s-1.9,3.73,7.07,1.57c8.97-2.16,16.27-5.36,18.84-8.3,0,0-4.28,5.38-16.53,9.69,0,0-3.95,1.18-5.88,1.37s-5.47,.12-5.75-1.37,1-2.9,2.26-2.96Z"/>
    <path class="cls-7" d="M73.19,54.34s.38,5.93,15.19,8.2c0,0-8.34,.29-14.26-2.95,0,0-3.31-1.82-4.17-2.68s-2.16-2.42-2.16-2.42c0,0,4.51,.25,5.4-.15Z"/>
    <path class="cls-7" d="M88.95,26.68c-.39-.72-1.17-1.38-2.24-1.42l-.81-.42-1.81,.53-1.45,1.98s3.29-3.22,5.21-.42h0c.45,.89,.59,2.23-.33,4.17,0,0,.85-.03,1.43-1.12s.47-2.43,0-3.29Z"/>
    <path class="cls-7" d="M42.9,14.81s24.73-2.39,38.36,14.73c0,0,.6-4.84,3.57-4.39,0,0-9.9-6.85-14-8.04s-13.4-3.68-16.23-3.59-10.6,.11-11.71,1.29Z"/>
    <path class="cls-7" d="M88.03,70.48s-4.38-6.87-.35-8.08c0,0-5.73-.14-6.48-.38s-1.66-.53-1.66-.53c0,0,.95,2.42,2.4,4.09s3.76,4.21,6.09,4.9Z"/>
    <path class="cls-8" d="M87.57,11.15s.4,.49,.33,1.83c0,0,2.33-4.61,7.14-3.22,0,0-.52-.99-2.34-.93s-3.74,.91-4.27,1.21-.85,1.12-.85,1.12Z"/>
    <path class="cls-8" d="M109.01,51.11s10.86,3.26,16.94,7.7c0,0,.16-.71-.67-1.41s-5.53-3.29-7.26-4.08c-1.73-.78-8.38-2.52-8.38-2.52l-.63,.31Z"/>
    <path class="cls-8" d="M107.93,27.71s10.05-.27,15.66,4.7c.05,.04,.1,.09,.14,.13,5.58,5.11-3.04-3.91-7.01-5.14-3.97-1.23-5.17-1.93-6.06-2.07s-5-.81-5-.81l2.26,3.18Z"/>
    <path class="cls-2" d="M95.62,10.04s3.62,2.09,1.61,7.9c0,0,.73,.08,.87,.56,0,0,.71-1,.81-1.56s.22-1.85,.03-2.73-.38-2.22-1.42-3.27-1.91-.89-1.91-.89Z"/>
    <path class="cls-2" d="M97.24,17.94s7.22,6.54,7.07,13.54c0,0,1.97-2.14,4.46-1.54,0,0-.53-1.47-1.48-3.04-.95-1.56-2.36-3.64-3.94-5.08s-4.08-3.9-6.11-3.88Z"/>
    <path class="cls-2" d="M63.55,68.21s14.36,.06,16.04-6.19c0,0,2.01,2.71,2.91,3.97s.89,1.9-1.23,2.62-5.7,1.43-8.71,1.27-7.02-.47-9.01-1.68Z"/>
    <path class="cls-2" d="M72.55,95.54s3.3,4.19,7.37,3.63,7.65-2.46,14.02,.78,11.11,5.31,14.07,3.24c0,0,2.14,3.46-5.98,2.79,0,0-3.09-1.23-5.77-2.64-2.68-1.41-5.25-2.76-6.93-2.87s-6.35,.48-7.27,.71-5.2,.93-7.25-1.08c-2.05-2.01-3.09-2.68-3.09-3.57s.12-1.21,.82-.99Z"/>
    <path class="cls-2" d="M127.15,60.59s-5.24,2.25-17.51-.36c0,0,.27,3.39,1.27,4.36,0,0,5.47-.19,7.93-.6,2.46-.41,6.4-1.6,7.22-2.12s1.09-1.28,1.09-1.28Z"/>
    <path class="cls-2" d="M114.94,40.42s2.76-7.51,10.97-6.39l-.31,.17s-2.79,1.06-4.89,3.04-4.28,4.75-4.72,6.9l-1.06-3.71Z"/>
    <path class="cls-2" d="M111.08,64.92s-9.6,22.8-18.25,30.17c0,0,1.84-.47,2.33-.41s1.51-1.79,1.95-2.2,5.27-6.53,5.88-7.41,5.86-9.42,6.42-10.59,2.29-4.52,2.62-5.21,1.56-3.65,1.75-4.02,.2-.97,.2-.97l-2.91,.63Z"/>
    <path class="cls-2" d="M113.85,39.61s.15,8.78-4.58,11.09c0,0,5.42,1.46,6.26,1.81,0,0,.98-3.3,.61-6.39s-.71-4.59-1.02-5.35-1.28-1.16-1.28-1.16Z"/>
    <path class="cls-5" d="M85.04,29.55s1.25,4.54,.73,7.22-2.01,6.96-4.69,9.16c-2.68,2.2-6.6,4.39-10.67,4.62l-3.39,.15s-.95-3.05-1.54-4.15-1.92-3.25-1.92-3.25c0,0,.36-.41,2.35-1.16s6.68-2.68,8.54-3.69c1.86-1.01,6.25-4.32,7.11-5.18s3.47-3.72,3.47-3.72Z"/>
    <g>
      <path class="cls-9" d="M70.34,45.2c-1.39,.49-4.46,1.4-4.49,1.41-.12,.03-.19,.16-.15,.28,.03,.1,.12,.16,.21,.16,.02,0,.04,0,.06,0,.02,0,1.87-.55,3.35-1.03l.7,2.11c.03,.09,.12,.15,.21,.15,.02,0,.05,0,.07-.01,.12-.04,.18-.17,.14-.28l-.7-2.1c.27-.09,.53-.18,.74-.25,.12-.04,.18-.17,.14-.29-.04-.12-.17-.18-.29-.14Z"/>
      <path class="cls-9" d="M83.06,38.28c-.09-.08-.23-.08-.32,0-.6,.64-1.28,1.23-1.98,1.77l-1.02-2.2c-.05-.11-.18-.16-.3-.11-.11,.05-.16,.18-.11,.3l1.06,2.28c-2.1,1.53-4.44,2.64-6.16,3.34l-1.11-2.43c-.05-.11-.18-.16-.3-.11-.11,.05-.16,.18-.11,.3l1.1,2.41c-1.24,.48-2.06,.73-2.09,.73-.12,.03-.19,.16-.15,.28,.03,.1,.12,.16,.21,.16,.02,0,.04,0,.06,0,.03,0,.96-.28,2.33-.83,0,0,.02,0,.03,0,0,0,0,0,.02-.01,.92-.37,2.04-.86,3.22-1.48l.8,1.65c.04,.08,.12,.13,.2,.13,.03,0,.07,0,.1-.02,.11-.05,.16-.19,.1-.3l-.81-1.66c1.82-.99,3.73-2.28,5.23-3.87,.08-.09,.08-.23,0-.32Z"/>
    </g>
    <circle class="cls-4" cx="93.08" cy="16.18" r=".39"/>
    <ellipse class="cls-4" cx="93.08" cy="15.53" rx="3.8" ry="3.89"/>
    <circle class="cls-9" cx="92.62" cy="16.23" r="3"/>
    <circle class="cls-4" cx="94.27" cy="15.24" r=".98"/>
    <path class="cls-9" d="M93.03,11.46c-2.25,0-4.09,1.83-4.09,4.09s1.83,4.09,4.09,4.09,4.09-1.83,4.09-4.09-1.83-4.09-4.09-4.09Zm0,7.73c-2.01,0-3.64-1.63-3.64-3.64s1.63-3.64,3.64-3.64,3.64,1.63,3.64,3.64-1.63,3.64-3.64,3.64Z"/>
    <path class="cls-9" d="M128.09,60.49c-1.4-3.14-4.99-5.8-10.66-7.92-.45-.17-.89-.32-1.32-.47,.43-3.16,.44-5.59,.26-7.44,3.22-8.6,9.49-10.07,9.55-10.08,.15-.03,.27-.14,.33-.29,.05-.15,.03-.31-.07-.43-6.93-8.72-18.86-9.94-20.54-10.07-1.4-1.74-2.67-2.98-3.67-3.81-1.39-1.16-2.47-1.76-3.02-2.02,.18-.57,.46-1.68,.46-2.97,0-2.49-1.08-4.43-3.1-5.6-4.2-2.43-7.95,.09-8.88,.81-12.14-4.5-23.94-3.45-29.91-2.41-7.83,1.36-14.64,4.21-15.52,6.5,0,0,0,0,0,0,0,0,0,0,0,0,0,0,0,0,0,0-.01,.03-.02,.06-.02,.09,0,.01,0,.02,0,.03,0,.02,0,.05,0,.07,0,0,0,.01,0,.02,0,.05,.62,4.6,2.38,10.13,2.85,8.96,6.53,13.79,9.22,16.31-.1,.18-.18,.38-.23,.59-.08,.4-.06,1.02,.52,1.67,1.61,1.82,5.77,1.25,9.38,.29,.6,.82,2.57,3.68,3.35,6.76-.89,.06-1.57,.45-1.89,1.09-.32,.64-.2,1.42,.31,2.08,.26,.34,.99,1.09,2.55,1.48,.42,.63,1.7,2.32,4.41,4.01,.06,.27,.15,2.56-9.74,9.08-.15,.1-.22,.27-.2,.44,.03,.17,.15,.31,.32,.36,.04,.01,3.6,1.05,7.96,1.43,1.08,.09,2.11,.14,3.1,.14,4.21,0,7.54-.85,9.93-2.53,.63,.67,1.35,1.34,2.18,1.99-.12,1.86-.77,13.27,1.06,21.22-.94-.13-2.74-.12-5.34,.91-1.61,.64-2.57,1.5-3.34,2.18-1.11,.99-1.72,1.54-3.49,.95-1.02-.34-2.31-.44-2.89,.28-.41,.52-.33,1.26,.25,2.19,1.32,2.13,4.11,4.39,8.01,4.39,.05,0,.11,0,.16,0,1.42-.02,2.56-.29,3.66-.56,1.97-.47,3.82-.91,7.17,0,2.09,.56,3.8,1.55,5.45,2.5,2.31,1.33,4.5,2.59,7.45,2.59,.34,0,.69-.02,1.05-.05,3.47-.34,4.04-1.74,4.07-2.54,.04-1.13-.92-2.2-1.74-2.33-.33-.05-.64-.09-.94-.11-1.02-.1-1.76-.17-2.54-1.12-.13-.16-.31-.41-.51-.69-1.15-1.61-3.44-4.82-6.89-5.29,10.94-11.7,17.32-27.29,18.19-29.5,11.41-.87,13.59-3.79,13.69-3.92,.09-.13,.11-.3,.04-.44Zm-60.59-10.24c-.72-3.06-2.54-5.86-3.35-6.99,.91-.26,1.77-.54,2.52-.8,4.52-1.57,12.75-5.18,18.19-12.04,.6,2.22,1.74,8.72-3.43,14.46-2.03,2.25-5.68,5.23-13.92,5.38Zm-3.95,17.96c7.05-4.75,8.97-7.37,9.27-8.77,1.73,.97,3.95,1.9,6.77,2.58,.26,.7,1.17,2.85,3.15,5.16-5.72,3.91-16.02,1.81-19.19,1.03Zm22.83,2.27c.7,.49,1.45,.95,2.28,1.38,.07,.03,.14,.05,.2,.05,.16,0,.32-.09,.4-.24,.11-.22,.03-.49-.19-.6-5.25-2.69-7.63-7.06-8.41-8.79,2.11,.44,4.52,.75,7.28,.84,0,0,.01,0,.02,0,.24,0,.44-.19,.45-.43,0-.25-.18-.45-.43-.46-12.12-.42-17.4-5.08-19.12-7.08,.3,.03,.61,.04,.96,.04,.86,0,1.86-.09,3.03-.32,.24-.05,.4-.28,.35-.52s-.28-.4-.52-.35c-1.92,.38-3.44,.37-4.58,.14-.16-.03-.23-.05-.43-.1-.96-.25-1.6-.67-1.95-1.13-.3-.39-.38-.81-.22-1.14,.19-.38,.68-.61,1.34-.61,.1,0,.2,0,.3,0,0,0,.01,0,.02,0,0,0,.01,0,.02,0,4.33-.03,10.45-.72,14.93-5.68,6.7-7.43,3.39-16.09,3.35-16.17-.06-.15-.2-.26-.36-.28-.16-.02-.32,.05-.42,.18-5.27,7.11-13.72,10.83-18.29,12.42-6.11,2.12-10.54,2.5-11.85,1.02-.27-.31-.38-.6-.32-.9,.15-.76,1.27-1.45,1.69-1.65,.22-.11,.32-.37,.21-.6-.11-.22-.37-.32-.6-.21-.12,.06-.82,.41-1.4,.98-8.08-7.63-10.78-22.75-11.2-25.43,1.42-.27,6.49-1.1,13.2-.52,7.17,.62,17.71,3.01,27.51,10.84-.91,.65-1.43,1.5-1.46,1.55-.13,.21-.06,.49,.16,.61,.21,.13,.49,.06,.61-.16,0-.01,.63-1.04,1.66-1.56,0,0,0,0,0,0,.25-.13,.52-.22,.82-.27,.87-.13,1.78,.24,2.7,1.08,.28,.26,.81,1,.81,1.96,0,.87-.43,1.69-1.26,2.46-.18,.17-.2,.45-.03,.63,.09,.1,.21,.15,.33,.15,.11,0,.22-.04,.3-.12,.56-.51,.97-1.06,1.23-1.64,1.7,1.01,8.09,5.58,11.01,18.46,3.33,14.73,2.13,26.39-3.56,34.65-4.37,6.35-7.59,9.47-8.75,10.51-2.48-6.99-1.99-19.66-1.81-22.97Zm24.96-6.36c-.25,0-.44,.22-.43,.46,0,.24,.21,.43,.45,.43,0,0,.01,0,.02,0,.69-.03,1.36-.06,2-.1-1.33,3.28-7.74,18.29-18.38,29.39-.86,.04-1.78,.26-2.77,.71-.22,.1-.32,.37-.22,.59,.1,.22,.37,.32,.59,.22,5.02-2.29,8.21,2.18,9.74,4.33,.22,.31,.4,.56,.55,.74,1.02,1.23,2.05,1.33,3.14,1.44,.28,.03,.58,.06,.88,.11,.35,.06,1.01,.74,.99,1.42-.03,.87-1.22,1.48-3.26,1.68-3.2,.31-5.52-1.02-7.96-2.42-1.7-.98-3.46-1.99-5.66-2.58-3.57-.96-5.62-.47-7.61,0-1.11,.26-2.15,.51-3.47,.53-.05,0-.1,0-.15,0-3.54,0-6.06-2.04-7.25-3.96-.34-.55-.45-.98-.31-1.17,.19-.24,.96-.31,1.9,.01,2.26,.75,3.24-.12,4.37-1.13,.75-.67,1.61-1.44,3.07-2.02,2.89-1.15,4.67-.92,5.25-.79,.22,.84,.48,1.63,.76,2.35,.05,.13,.16,.23,.3,.27,.04,.01,.08,.02,.12,.02,.1,0,.19-.03,.27-.09,.15-.12,3.81-2.98,9.41-11.1,5.84-8.48,7.08-20.38,3.7-35.36-3.11-13.76-10.01-18.27-11.61-19.14,.03-.2,.06-.39,.06-.59,0-1.19-.59-2.16-1.1-2.62-1.13-1.03-2.28-1.47-3.43-1.3-.29,.04-.56,.12-.81,.23-10.07-8.17-20.94-10.64-28.31-11.27-5.94-.51-10.62,.07-12.69,.41,.67-.61,1.88-1.37,3.79-2.19,2.85-1.23,6.54-2.27,10.41-2.94,5.93-1.03,17.66-2.07,29.69,2.46,.16,.06,.33,.03,.46-.09,.15-.14,3.79-3.34,8.05-.88,1.75,1.01,2.65,2.63,2.66,4.8,0,1.67-.53,3.06-.53,3.08-.04,.11-.04,.24,0,.35,.05,.11,.14,.2,.26,.24,.05,.02,5.18,1.96,10.28,11.1,.12,.22,.39,.29,.61,.17,.22-.12,.29-.39,.17-.61-.99-1.77-1.97-3.27-2.92-4.54,3.08,.36,12.62,2.02,18.67,9.14-1.68,.58-6.08,2.66-8.94,9.03-.53-2.61-1.44-3.54-1.51-3.61-.18-.17-.45-.17-.63,0-.17,.17-.17,.46,0,.63,0,0,.65,.68,1.12,2.53,.42,1.66,.78,4.61,.15,9.33-3.24-1.02-5.82-1.47-5.85-1.48-.24-.04-.47,.12-.52,.36-.04,.24,.12,.47,.36,.52,.15,.03,14.53,2.56,17.91,9.36-.72,.67-4.1,3.08-15.81,3.53Z"/>
    <path class="cls-8" d="M78.07,96.27s2.14-3.84,7.54-4.04c0,0-5.03,1.24-7.54,4.04Z"/>
    <path class="cls-8" d="M92.83,96.59s3.01-2.71,6.38,.89c0,0-3.13-2.63-6.38-.89Z"/>
    <path class="cls-8" d="M64.85,67.82s7.67-4.98,8.59-7.12c0,0,.01,2.94-8.59,7.12Z"/>
    <path class="cls-1" d="M104.07,34.01s-.22,2.01-4.39,5.21"/>
    <path class="cls-1" d="M106.42,37.21s-.22,2.01-4.39,5.21"/>
    <path class="cls-1" d="M108.17,40s-.22,2.01-4.39,5.21"/>
  </g>
  <polyline class="cls-9" points="76.12 37.74 78.09 42.04 80.87 40.32 78.85 35.84 76.12 37.74"/>
</svg>