<?xml version="1.0" encoding="UTF-8"?>
<svg id="Capa_1" data-name="Capa 1" xmlns="http://www.w3.org/2000/svg" viewBox="0 0 170.08 113.39">
  <defs>
    <style>
      .cls-1 {
        fill: #a3c066;
      }

      .cls-2, .cls-3 {
        fill: #359444;
      }

      .cls-4 {
        fill: #5b400c;
      }

      .cls-3 {
        font-family: AbadiMT-CondensedLight, 'Abadi MT Condensed Light';
        font-size: 5.85px;
        font-weight: 300;
      }
    </style>
  </defs>
  <path class="cls-4" d="M119.97,20.32c8.73,8.51,14.15,20.38,14.15,33.53,0,25.86-20.97,46.83-46.83,46.83s-46.83-20.97-46.83-46.83c0-13.03,5.32-24.8,13.9-33.29-10.35,9.13-16.88,22.48-16.88,37.36,0,27.52,22.31,49.82,49.82,49.82s49.82-22.31,49.82-49.82c0-15.01-6.65-28.46-17.15-37.6Z"/>
  <text class="cls-3" transform="translate(45.11 70.27) rotate(67.23)"><tspan x="0" y="0">p</tspan></text>
  <text class="cls-3" transform="translate(46.32 73.09) rotate(64.36)"><tspan x="0" y="0">l</tspan></text>
  <text class="cls-3" transform="translate(46.98 74.47) rotate(61.6)"><tspan x="0" y="0">a</tspan></text>
  <text class="cls-3" transform="translate(48.43 77.1) rotate(57.85)"><tspan x="0" y="0">n</tspan></text>
  <text class="cls-3" transform="translate(50.06 79.66) rotate(54.11)"><tspan x="0" y="0">n</tspan></text>
  <text class="cls-3" transform="translate(51.84 82.09) rotate(50.43)"><tspan x="0" y="0">e</tspan></text>
  <text class="cls-3" transform="translate(53.76 84.37) rotate(47.22)"><tspan x="0" y="0">r</tspan></text>
  <text class="cls-3" transform="translate(55.45 86.17) rotate(43.89)"><tspan x="0" y="0">s</tspan></text>
  <text class="cls-3" transform="translate(117.47 87.58) rotate(-44.23)"><tspan x="0" y="0">b</tspan></text>
  <text class="cls-3" transform="translate(119.67 85.41) rotate(-48.03)"><tspan x="0" y="0">o</tspan></text>
  <text class="cls-3" transform="translate(121.72 83.1) rotate(-51.79)"><tspan x="0" y="0">u</tspan></text>
  <text class="cls-3" transform="translate(123.57 80.7) rotate(-54.88)"><tspan x="0" y="0">t</tspan></text>
  <text class="cls-3" transform="translate(124.67 79.12) rotate(-56.99)"><tspan x="0" y="0">i</tspan></text>
  <text class="cls-3" transform="translate(125.51 77.83) rotate(-59.84)"><tspan x="0" y="0">q</tspan></text>
  <text class="cls-3" transform="translate(127.06 75.13) rotate(-63.66)"><tspan x="0" y="0">u</tspan></text>
  <text class="cls-3" transform="translate(128.38 72.41) rotate(-67.38)"><tspan x="0" y="0">e</tspan></text>
  <g>
    <path class="cls-1" d="M41.95,20.12c1.83,2.26,4.49,3.03,7.34,3.9-1.78,.5-3.36,.5-4.93,.16-4.61-.99-7.55-4-9.39-8.14-.87-1.95-1.35-4.08-2.01-6.12,.08-.02,.16-.04,.24-.05,1.06,1,2.04,2.09,3.18,2.98,1.89,1.47,4.18,2.02,6.46,2.59,1.44,.36,2.9,.68,4.26,1.23,2.21,.91,3.22,3.05,2.81,5.41-.11,.65-.55,.64-.94,.53-1.76-.51-3.51-1.06-5.25-1.64-.61-.21-1.18-.55-1.77-.83Z"/>
    <path class="cls-1" d="M50.99,21.36c-.56-2.9-.94-5.86-3.24-8.04,.49,1.13,.97,2.26,1.46,3.38-1.81-1.46-3.99-1.64-6.07-2.08-.75-.16-1.07-.56-1.22-1.3-.53-2.64-.28-5.17,.78-7.68,2.18,1.61,4.37,3.12,6.44,4.76,3.38,2.69,4.15,7.46,1.84,10.95Z"/>
  </g>
  <path class="cls-1" d="M94.07,88.84c-.05-.24-.14-.47-.26-.68-.1-.18-.23-.36-.39-.5-.14-.13-.31-.24-.48-.32-.09-.04-.19-.08-.29-.11-.11-.03-.21-.05-.32-.06-.1-.01-.19-.02-.29-.02-.29,0-.59,.05-.87,.13-.21,.06-.41,.14-.61,.23-.19,.09-.38,.19-.56,.3-.24,.15-.47,.32-.69,.5-.21,.18-.41,.37-.59,.58-.27,.3-.5,.66-.64,1.04-.09-.21-.19-.41-.31-.6-.2-.32-.44-.61-.71-.84-.47-.41-1.04-.7-1.64-.86-.29-.07-.57-.11-.85-.11,0,0-.01,0-.02,0-.29,0-.56,.05-.8,.14-.26,.1-.49,.25-.67,.44-.19,.2-.33,.45-.42,.75-.04,.14-.07,.3-.09,.49-.02,.17-.02,.35,0,.55,.02,.32,.08,.62,.19,.91,.1,.27,.25,.53,.43,.77,.17,.22,.37,.44,.61,.66,.4,.37,.84,.68,1.27,.98l.3,.21c.34,.24,.7,.48,1.03,.74l-.02-.02c.46,.36,.79,.68,1.06,1.02,.18,.23,.33,.48,.43,.73,0,.02,.02,.04,.02,.06,.06,.12,.11,.25,.16,.38,.04,.11,.08,.23,.11,.35,.01,.05,.03,.1,.04,.14,.02-.07,.04-.13,.07-.2,.06-.15,.13-.3,.2-.44,.08-.14,.16-.28,.25-.41,.03-.04,.05-.08,.08-.12,.07-.12,.15-.23,.24-.34,.21-.27,.45-.52,.74-.8,.09-.07,.18-.14,.27-.21,0,0,0,0,0,0,.27-.21,.54-.41,.81-.62,0,0,0,0,0,0,.83-.64,1.67-1.3,2.34-2.11,.17-.2,.32-.41,.46-.64,.13-.21,.24-.44,.32-.68,.08-.23,.13-.47,.15-.71,.02-.24,0-.49-.05-.73Z"/>
  <g>
    <g>
      <g>
        <path class="cls-1" d="M110.7,64.06s.04,.03,.05,.05c.01,.01,.03,.03,.04,.05,.02,.03,.05,.06,.09,.07,.13,.05,.23,.14,.32,.24,.1,.13,.16,.27,.2,.43,.02,.08,.03,.17,.02,.25-.01,.23-.09,.44-.26,.6-.07,.07-.15,.11-.24,.14-.03,0-.04,.03-.06,.05-.03,.03-.06,.07-.09,.09-.1,.06-.23,.04-.3-.05,0,0-.02-.02-.02-.03-.02-.03-.05-.05-.09-.07-.2-.08-.33-.23-.41-.42-.04-.1-.06-.21-.06-.32,0-.07,0-.13,.02-.2,0-.08,.03-.17,.07-.24,.07-.16,.16-.29,.31-.39,.05-.03,.1-.06,.15-.08,.03-.02,.06-.04,.08-.06,.02-.02,.03-.04,.05-.06,0-.01,.02-.02,.03-.03,.02,0,.03-.02,.03-.04,.03-.12,.07-.22,.15-.31,.04-.04,.08-.08,.12-.1,.02,0,.03,0,.04,0,.03,.03,.05,.07,.06,.11,0,.02,0,.02-.02,.03-.06,.02-.12,.05-.17,.1-.05,.06-.09,.13-.11,.21Zm-.23,.22s0,0-.01,0c-.08,.03-.14,.07-.2,.13-.19,.2-.28,.45-.26,.73,0,.04,0,.08,.01,.11,0,0,0,0,0,0,0-.13,.02-.26,.06-.38,.04-.14,.11-.27,.19-.39,.06-.08,.12-.14,.2-.2Z"/>
        <path class="cls-1" d="M110.58,63.97c-.07,.07-.15,.14-.23,.2-.08,.07-.18,.1-.29,.09-.04,0-.08-.01-.11-.02-.05-.02-.1-.04-.15-.06,.02-.03,.04-.06,.06-.09,.05-.07,.11-.14,.18-.18,.09-.05,.19-.08,.3-.07,.08,0,.16,.03,.24,.06-.19,.06-.38,.1-.54,.2,.18-.06,.36-.11,.54-.14Z"/>
      </g>
      <g>
        <path class="cls-1" d="M101.66,61.67s-.09-.07-.15-.09c-.01,0-.02,0-.02-.03,0-.04,.03-.07,.05-.1,.01-.01,.02-.01,.04,0,.04,.03,.08,.06,.11,.09,.07,.08,.11,.18,.14,.28,0,.02,0,.03,.03,.04,.01,0,.02,.01,.03,.02,.02,.02,.03,.04,.05,.06,.02,.03,.04,.04,.07,.06,.05,.02,.09,.05,.14,.07,.13,.09,.21,.21,.27,.35,.03,.07,.05,.14,.06,.22,0,.06,.01,.12,.01,.18,0,.1-.02,.19-.06,.28-.07,.18-.19,.31-.37,.38-.03,.01-.06,.03-.08,.06,0,0-.01,.02-.02,.02-.07,.08-.18,.11-.27,.05-.03-.02-.06-.05-.08-.08-.02-.02-.03-.04-.06-.05-.08-.03-.15-.07-.21-.13-.15-.15-.22-.33-.23-.54,0-.08,0-.15,.02-.22,.03-.14,.09-.27,.18-.38,.08-.1,.17-.17,.28-.22,.03-.01,.06-.03,.08-.06,.01-.01,.02-.03,.03-.04,.01-.01,.03-.03,.05-.04-.02-.07-.05-.13-.1-.19Zm.48,.56c.08,.11,.13,.22,.17,.35,.03,.11,.05,.23,.05,.34,0,0,0,0,0,0,0-.03,.01-.07,.01-.1,.01-.25-.06-.47-.24-.65-.05-.05-.11-.09-.18-.12,0,0,0,0-.01,0,.07,.05,.13,.11,.18,.18Z"/>
        <path class="cls-1" d="M101.86,61.77c.07,.06,.13,.12,.2,.18,.07,.06,.16,.09,.26,.08,.03,0,.07-.01,.1-.02,.05-.01,.09-.03,.14-.05-.02-.03-.04-.05-.05-.08-.04-.06-.1-.12-.16-.16-.08-.05-.17-.07-.27-.06-.07,0-.14,.03-.21,.05,.17,.05,.34,.09,.48,.18-.16-.05-.32-.1-.48-.12Z"/>
      </g>
      <g>
        <path class="cls-2" d="M110.16,62.47c-.03-.35-.24-.61-.46-.9,.21,.07,.37,.18,.5,.32,.39,.42,.48,.92,.38,1.46-.05,.26-.15,.5-.22,.75,0,0-.02,0-.03-.01-.04-.17-.06-.35-.11-.52-.09-.28-.28-.49-.47-.7-.12-.13-.24-.27-.34-.42-.16-.24-.11-.53,.09-.73,.06-.06,.1-.03,.13,.01,.14,.17,.28,.35,.41,.53,.05,.06,.08,.14,.12,.21Z"/>
        <path class="cls-2" d="M109.34,61.73c-.14,.33-.31,.65-.23,1.03,.03-.15,.06-.29,.09-.44,.08,.27,.29,.44,.46,.63,.06,.07,.07,.13,.03,.21-.13,.3-.33,.54-.61,.71-.11-.31-.22-.61-.31-.92-.15-.5,.1-1.03,.57-1.22Z"/>
      </g>
      <path class="cls-2" d="M107.02,55.77c.25,.19,.34,.48,.44,.79,.05-.19,.05-.36,0-.53-.12-.5-.45-.81-.9-1-.21-.09-.44-.14-.67-.21,0,0,0,.02,0,.03,.11,.11,.23,.22,.33,.34,.16,.2,.23,.45,.29,.69,.04,.15,.08,.31,.14,.46,.1,.24,.34,.34,.59,.29,.07-.01,.07-.06,.06-.1-.06-.19-.12-.38-.19-.56-.02-.07-.06-.13-.09-.19Z"/>
      <path class="cls-2" d="M110.4,59.1c-.18,.07-.28,.23-.39,.39,0-.12,.03-.22,.08-.32,.15-.27,.4-.4,.69-.44,.14-.02,.28,0,.43-.01,0,0,0,.01,0,.02-.08,.05-.17,.09-.25,.15-.13,.09-.21,.23-.29,.36-.05,.08-.1,.17-.16,.25-.1,.12-.25,.15-.4,.08-.04-.02-.03-.05-.02-.07,.07-.1,.13-.2,.2-.3,.02-.04,.06-.06,.09-.1Z"/>
      <path class="cls-2" d="M107.27,45.85c-.18,.07-.28,.23-.39,.39,0-.12,.03-.22,.08-.32,.15-.27,.4-.4,.69-.44,.14-.02,.28,0,.43-.01,0,0,0,.01,0,.02-.08,.05-.17,.09-.25,.15-.13,.09-.21,.23-.29,.36-.05,.08-.1,.17-.16,.25-.1,.12-.25,.15-.4,.08-.04-.02-.03-.05-.02-.07,.07-.1,.13-.2,.2-.3,.02-.04,.06-.06,.09-.1Z"/>
      <path class="cls-2" d="M109.99,55.09c-.18,.07-.28,.23-.39,.39,0-.12,.03-.22,.08-.32,.15-.27,.4-.4,.69-.44,.14-.02,.28,0,.43-.01,0,0,0,.01,0,.02-.08,.05-.17,.09-.25,.15-.13,.09-.21,.23-.29,.36-.05,.08-.1,.17-.16,.25-.1,.12-.25,.15-.4,.08-.04-.02-.03-.05-.02-.07,.07-.1,.13-.2,.2-.3,.02-.04,.06-.06,.09-.1Z"/>
      <path class="cls-2" d="M111.6,63.16c-.18,.07-.28,.23-.39,.39,0-.12,.03-.22,.08-.32,.15-.27,.4-.4,.69-.44,.14-.02,.28,0,.43-.01,0,0,0,.01,0,.02-.08,.05-.17,.09-.25,.15-.13,.09-.21,.23-.29,.36-.05,.08-.1,.17-.16,.25-.1,.12-.25,.15-.4,.08-.04-.02-.03-.05-.02-.07,.07-.1,.13-.2,.2-.3,.02-.04,.06-.06,.09-.1Z"/>
      <path class="cls-2" d="M107.67,61.51c.19-.02,.35,.06,.53,.16-.06-.11-.14-.18-.23-.24-.26-.17-.54-.16-.82-.05-.13,.05-.25,.13-.38,.2,0,0,0,0,0,.01,.1,0,.19,0,.29,0,.16,.02,.29,.1,.43,.18,.08,.05,.17,.1,.26,.14,.15,.06,.29,0,.38-.13,.02-.04,0-.06-.02-.07-.11-.06-.22-.11-.32-.17-.04-.02-.08-.03-.12-.04Z"/>
      <path class="cls-2" d="M104.46,60.66c-.17,.01-.31-.07-.46-.16,.05,.1,.11,.17,.19,.22,.23,.16,.48,.17,.73,.08,.12-.04,.23-.11,.35-.16,0,0,0,0,0-.01-.09,0-.17,0-.26-.02-.14-.02-.26-.1-.37-.18-.07-.05-.15-.1-.22-.14-.13-.06-.26-.02-.35,.1-.02,.03,0,.05,.01,.06,.09,.06,.19,.11,.28,.16,.03,.02,.07,.03,.11,.04Z"/>
      <path class="cls-2" d="M102.38,56.5c-.16,.04-.26,.15-.37,.27,.02-.1,.06-.18,.11-.25,.16-.2,.38-.27,.63-.27,.12,0,.23,.03,.35,.05,0,0,0,0,0,.01-.07,.03-.15,.05-.22,.08-.12,.06-.2,.16-.28,.26-.05,.06-.1,.13-.16,.18-.1,.09-.23,.08-.33,0-.03-.02-.02-.04,0-.06,.07-.07,.14-.15,.21-.22,.03-.03,.06-.04,.08-.07Z"/>
      <path class="cls-2" d="M101.94,54.03c.16,.04,.26,.15,.37,.27-.02-.1-.06-.18-.11-.25-.16-.2-.38-.27-.63-.27-.12,0-.23,.03-.35,.05,0,0,0,0,0,.01,.07,.03,.15,.05,.22,.08,.12,.06,.2,.16,.28,.26,.05,.06,.1,.13,.16,.18,.1,.09,.23,.08,.33,0,.03-.02,.02-.04,0-.06-.07-.07-.14-.15-.21-.22-.03-.03-.06-.04-.08-.07Z"/>
      <path class="cls-2" d="M110.42,50.65c-.37,.29-.5,.71-.65,1.17-.08-.29-.07-.54-.01-.79,.17-.74,.67-1.2,1.34-1.49,.32-.13,.66-.21,.99-.31,0,.01,0,.03,0,.04-.16,.17-.34,.32-.49,.5-.24,.3-.34,.67-.44,1.03-.06,.23-.12,.47-.21,.68-.15,.35-.5,.51-.88,.44-.1-.02-.1-.09-.08-.15,.09-.28,.18-.56,.28-.84,.03-.1,.09-.19,.14-.28Z"/>
      <g>
        <path class="cls-1" d="M74.38,44.8s.04,.03,.06,.05c.02,.02,.03,.03,.04,.05,.03,.03,.06,.06,.1,.07,.14,.05,.25,.14,.34,.26,.11,.13,.17,.29,.21,.45,.02,.09,.03,.18,.03,.27-.01,.25-.09,.47-.28,.64-.07,.07-.16,.12-.25,.15-.03,.01-.05,.03-.07,.06-.03,.03-.06,.07-.1,.09-.11,.07-.24,.04-.32-.06,0,0-.02-.02-.02-.03-.03-.03-.06-.06-.1-.07-.21-.09-.35-.24-.44-.45-.04-.11-.07-.22-.07-.34,0-.07,0-.14,.02-.21,0-.09,.04-.18,.07-.26,.07-.17,.17-.31,.33-.42,.05-.04,.11-.06,.16-.09,.04-.02,.06-.04,.09-.07,.02-.02,.04-.05,.06-.07,.01-.01,.02-.02,.04-.03,.03,0,.03-.03,.03-.05,.03-.12,.08-.24,.16-.33,.04-.04,.08-.08,.13-.11,.02,0,.03,0,.04,0,.03,.03,.05,.07,.06,.11,0,.02,0,.03-.02,.03-.07,.02-.13,.06-.18,.11-.06,.06-.1,.14-.12,.22Zm-.25,.23s0,0-.01,0c-.08,.03-.15,.08-.21,.14-.21,.22-.29,.48-.28,.77,0,.04,0,.08,.01,.12,0,0,0,0,0,0,0-.14,.02-.28,.06-.41,.05-.15,.11-.29,.21-.41,.06-.08,.13-.15,.22-.21Z"/>
        <path class="cls-1" d="M74.26,44.7c-.08,.07-.16,.15-.24,.21-.09,.07-.19,.11-.31,.1-.04,0-.08-.01-.12-.02-.05-.02-.11-.04-.16-.06,.02-.03,.04-.06,.06-.1,.05-.08,.11-.15,.2-.19,.1-.06,.21-.08,.32-.07,.09,0,.17,.03,.25,.06-.2,.06-.4,.11-.58,.22,.19-.06,.38-.12,.57-.14Z"/>
      </g>
      <g>
        <path class="cls-2" d="M68.26,51.34s.03,.02,.04,.03c.01,.01,.02,.02,.03,.03,.02,.02,.04,.04,.07,.05,.09,.04,.17,.1,.23,.17,.07,.09,.12,.19,.14,.3,.01,.06,.02,.12,.02,.18,0,.17-.06,.31-.19,.43-.05,.05-.11,.08-.17,.1-.02,0-.03,.02-.05,.04-.02,.02-.04,.05-.07,.06-.07,.05-.16,.03-.22-.04,0,0-.01-.01-.02-.02-.02-.02-.04-.04-.06-.05-.14-.06-.24-.16-.29-.3-.03-.07-.05-.15-.05-.23,0-.05,0-.09,.01-.14,0-.06,.02-.12,.05-.17,.05-.11,.12-.21,.22-.28,.03-.02,.07-.04,.11-.06,.02-.01,.04-.03,.06-.05,.01-.02,.02-.03,.04-.05,0,0,.02-.02,.02-.02,.02,0,.02-.02,.02-.03,.02-.08,.05-.16,.11-.22,.03-.03,.05-.05,.09-.07,.01,0,.02,0,.03,0,.02,.02,.04,.05,.04,.08,0,.01,0,.02-.01,.02-.05,.02-.09,.04-.12,.07-.04,.04-.06,.09-.08,.15Zm-.16,.16s0,0,0,0c-.05,.02-.1,.05-.14,.1-.14,.15-.2,.32-.19,.52,0,.03,0,.05,0,.08,0,0,0,0,0,0,0-.09,.02-.18,.04-.27,.03-.1,.08-.19,.14-.28,.04-.05,.09-.1,.14-.14Z"/>
        <path class="cls-2" d="M68.18,51.27c-.05,.05-.11,.1-.16,.14-.06,.05-.13,.07-.21,.07-.03,0-.05,0-.08-.02-.04-.01-.07-.03-.11-.04,.02-.02,.03-.04,.04-.06,.04-.05,.08-.1,.13-.13,.07-.04,.14-.06,.22-.05,.06,0,.11,.02,.17,.04-.13,.04-.27,.07-.39,.15,.13-.04,.25-.08,.38-.1Z"/>
      </g>
      <g>
        <path class="cls-1" d="M63.42,57.34s.07,.06,.1,.09c.03,.03,.05,.06,.07,.09,.04,.06,.1,.1,.17,.13,.24,.09,.43,.25,.58,.45,.18,.23,.3,.49,.36,.78,.03,.15,.05,.3,.04,.46-.02,.43-.16,.81-.48,1.11-.13,.12-.27,.21-.44,.27-.05,.02-.08,.06-.12,.1-.05,.06-.1,.12-.17,.16-.19,.12-.42,.07-.56-.1-.01-.02-.03-.03-.04-.05-.04-.06-.1-.1-.17-.12-.37-.15-.61-.42-.76-.78-.08-.19-.12-.38-.12-.58,0-.12,.02-.24,.03-.36,.02-.16,.06-.3,.12-.45,.12-.29,.3-.54,.56-.73,.09-.06,.18-.11,.28-.15,.06-.03,.11-.06,.15-.12,.03-.04,.06-.08,.1-.12,.02-.02,.04-.04,.06-.05,.04-.01,.05-.04,.06-.08,.05-.21,.14-.41,.28-.58,.07-.08,.14-.14,.23-.19,.03-.02,.05-.02,.07,0,.06,.05,.09,.12,.11,.2,0,.03-.01,.04-.04,.05-.12,.04-.23,.1-.31,.19-.1,.11-.17,.24-.2,.38Zm-.42,.4s-.02,0-.03,0c-.14,.06-.26,.14-.36,.25-.36,.37-.51,.82-.48,1.34,0,.07,.02,.14,.03,.21,0,0,.01,0,.01,0,0-.24,.04-.48,.11-.71,.08-.26,.19-.5,.35-.71,.11-.14,.23-.27,.37-.37Z"/>
        <path class="cls-1" d="M63.21,57.18c-.14,.12-.27,.25-.42,.37-.15,.12-.33,.19-.53,.17-.07,0-.14-.02-.21-.04-.09-.03-.18-.07-.28-.1,.04-.06,.07-.11,.11-.17,.09-.13,.2-.25,.34-.34,.17-.1,.36-.14,.56-.13,.15,.01,.29,.05,.44,.11-.35,.11-.69,.19-1,.37,.33-.11,.66-.2,.99-.25Z"/>
      </g>
      <g>
        <path class="cls-1" d="M99.97,54.52s.04,.03,.06,.05c.02,.02,.03,.03,.04,.05,.03,.03,.06,.06,.1,.07,.14,.05,.25,.14,.34,.26,.11,.13,.17,.29,.21,.45,.02,.09,.03,.18,.03,.27-.01,.25-.09,.47-.28,.64-.07,.07-.16,.12-.25,.15-.03,.01-.05,.03-.07,.06-.03,.03-.06,.07-.1,.09-.11,.07-.24,.04-.32-.06,0,0-.02-.02-.02-.03-.03-.03-.06-.06-.1-.07-.21-.09-.35-.24-.44-.45-.04-.11-.07-.22-.07-.34,0-.07,0-.14,.02-.21,0-.09,.04-.18,.07-.26,.07-.17,.17-.31,.33-.42,.05-.04,.11-.06,.16-.09,.04-.02,.06-.04,.09-.07,.02-.02,.04-.05,.06-.07,.01-.01,.02-.02,.04-.03,.03,0,.03-.03,.03-.05,.03-.12,.08-.24,.16-.33,.04-.04,.08-.08,.13-.11,.02,0,.03,0,.04,0,.03,.03,.05,.07,.06,.11,0,.02,0,.03-.02,.03-.07,.02-.13,.06-.18,.11-.06,.06-.1,.14-.12,.22Zm-.25,.23s0,0-.01,0c-.08,.03-.15,.08-.21,.14-.21,.22-.29,.48-.28,.77,0,.04,0,.08,.01,.12,0,0,0,0,0,0,0-.14,.02-.28,.06-.41,.05-.15,.11-.29,.21-.41,.06-.08,.13-.15,.22-.21Z"/>
        <path class="cls-1" d="M99.85,54.42c-.08,.07-.16,.15-.24,.21-.09,.07-.19,.11-.31,.1-.04,0-.08-.01-.12-.02-.05-.02-.11-.04-.16-.06,.02-.03,.04-.06,.06-.1,.05-.08,.11-.15,.2-.19,.1-.06,.21-.08,.32-.07,.09,0,.17,.03,.25,.06-.2,.06-.4,.11-.58,.22,.19-.06,.38-.12,.57-.14Z"/>
      </g>
      <g>
        <path class="cls-1" d="M82.22,62.78s.04,.03,.06,.05c.02,.02,.03,.03,.04,.05,.03,.03,.06,.06,.1,.07,.14,.05,.25,.14,.34,.26,.11,.13,.17,.29,.21,.45,.02,.09,.03,.18,.03,.27-.01,.25-.09,.47-.28,.64-.07,.07-.16,.12-.25,.15-.03,.01-.05,.03-.07,.06-.03,.03-.06,.07-.1,.09-.11,.07-.24,.04-.32-.06,0,0-.02-.02-.02-.03-.03-.03-.06-.06-.1-.07-.21-.09-.35-.24-.44-.45-.04-.11-.07-.22-.07-.34,0-.07,0-.14,.02-.21,0-.09,.04-.18,.07-.26,.07-.17,.17-.31,.33-.42,.05-.04,.11-.06,.16-.09,.04-.02,.06-.04,.09-.07,.02-.02,.04-.05,.06-.07,.01-.01,.02-.02,.04-.03,.03,0,.03-.03,.03-.05,.03-.12,.08-.24,.16-.33,.04-.04,.08-.08,.13-.11,.02,0,.03,0,.04,0,.03,.03,.05,.07,.06,.11,0,.02,0,.03-.02,.03-.07,.02-.13,.06-.18,.11-.06,.06-.1,.14-.12,.22Zm-.25,.23s0,0-.01,0c-.08,.03-.15,.08-.21,.14-.21,.22-.29,.48-.28,.77,0,.04,0,.08,.01,.12,0,0,0,0,0,0,0-.14,.02-.28,.06-.41,.05-.15,.11-.29,.21-.41,.06-.08,.13-.15,.22-.21Z"/>
        <path class="cls-1" d="M82.09,62.68c-.08,.07-.16,.15-.24,.21-.09,.07-.19,.11-.31,.1-.04,0-.08-.01-.12-.02-.05-.02-.11-.04-.16-.06,.02-.03,.04-.06,.06-.1,.05-.08,.11-.15,.2-.19,.1-.06,.21-.08,.32-.07,.09,0,.17,.03,.25,.06-.2,.06-.4,.11-.58,.22,.19-.06,.38-.12,.57-.14Z"/>
      </g>
      <g>
        <path class="cls-1" d="M75.78,56.91s.06,.05,.09,.08c.02,.02,.04,.05,.06,.08,.04,.05,.09,.09,.15,.11,.21,.08,.37,.22,.51,.39,.16,.2,.26,.43,.32,.69,.03,.13,.05,.27,.04,.4-.02,.38-.14,.71-.42,.97-.11,.1-.24,.18-.38,.23-.04,.02-.07,.05-.1,.08-.05,.05-.09,.11-.15,.14-.16,.1-.36,.06-.49-.09-.01-.01-.02-.03-.04-.04-.04-.05-.09-.09-.15-.11-.32-.13-.53-.37-.66-.68-.07-.16-.1-.33-.1-.51,0-.11,.01-.21,.03-.32,.01-.14,.06-.27,.11-.39,.11-.26,.26-.47,.49-.63,.08-.05,.16-.1,.25-.13,.05-.03,.1-.06,.13-.1,.03-.04,.06-.07,.09-.1,.02-.02,.03-.03,.05-.04,.04-.01,.04-.04,.05-.07,.04-.19,.12-.36,.25-.5,.06-.07,.12-.12,.2-.17,.02-.02,.05-.01,.07,0,.05,.05,.08,.11,.1,.17,0,.03,0,.04-.03,.05-.1,.03-.2,.09-.27,.17-.09,.1-.15,.21-.17,.33Zm-.37,.35s-.01,0-.02,0c-.12,.05-.23,.12-.32,.21-.31,.33-.44,.72-.42,1.17,0,.06,.01,.12,.02,.18,0,0,0,0,0,0,0-.21,.04-.42,.1-.62,.07-.23,.17-.44,.31-.63,.09-.12,.2-.23,.33-.32Z"/>
        <path class="cls-1" d="M75.59,56.76c-.12,.11-.24,.22-.36,.32-.13,.11-.29,.17-.46,.15-.06,0-.12-.02-.18-.04-.08-.03-.16-.06-.25-.09,.03-.05,.07-.1,.1-.14,.08-.12,.17-.22,.3-.29,.15-.09,.31-.12,.49-.11,.13,.01,.25,.05,.38,.09-.3,.09-.6,.17-.87,.33,.29-.1,.57-.18,.87-.22Z"/>
      </g>
      <g>
        <path class="cls-1" d="M92.09,60.34s.04,.03,.06,.05c.02,.02,.03,.03,.04,.05,.03,.03,.06,.06,.1,.07,.14,.05,.25,.14,.34,.26,.11,.13,.17,.29,.21,.45,.02,.09,.03,.18,.03,.27-.01,.25-.09,.47-.28,.64-.07,.07-.16,.12-.25,.15-.03,.01-.05,.03-.07,.06-.03,.03-.06,.07-.1,.09-.11,.07-.24,.04-.32-.06,0,0-.02-.02-.02-.03-.03-.03-.06-.06-.1-.07-.21-.09-.35-.24-.44-.45-.04-.11-.07-.22-.07-.34,0-.07,0-.14,.02-.21,0-.09,.04-.18,.07-.26,.07-.17,.17-.31,.33-.42,.05-.04,.11-.06,.16-.09,.04-.02,.06-.04,.09-.07,.02-.02,.04-.05,.06-.07,.01-.01,.02-.02,.04-.03,.03,0,.03-.03,.03-.05,.03-.12,.08-.24,.16-.33,.04-.04,.08-.08,.13-.11,.02,0,.03,0,.04,0,.03,.03,.05,.07,.06,.11,0,.02,0,.03-.02,.03-.07,.02-.13,.06-.18,.11-.06,.06-.1,.14-.12,.22Zm-.25,.23s0,0-.01,0c-.08,.03-.15,.08-.21,.14-.21,.22-.29,.48-.28,.77,0,.04,0,.08,.01,.12,0,0,0,0,0,0,0-.14,.02-.28,.06-.41,.05-.15,.11-.29,.21-.41,.06-.08,.13-.15,.22-.21Z"/>
        <path class="cls-1" d="M91.97,60.25c-.08,.07-.16,.15-.24,.21-.09,.07-.19,.11-.31,.1-.04,0-.08-.01-.12-.02-.05-.02-.11-.04-.16-.06,.02-.03,.04-.06,.06-.1,.05-.08,.11-.15,.2-.19,.1-.06,.21-.08,.32-.07,.09,0,.17,.03,.25,.06-.2,.06-.4,.11-.58,.22,.19-.06,.38-.12,.57-.14Z"/>
      </g>
      <g>
        <path class="cls-1" d="M83.88,33.75s.06,.05,.09,.08c.02,.02,.04,.05,.06,.08,.04,.05,.09,.09,.15,.12,.21,.08,.38,.22,.52,.4,.16,.21,.27,.44,.32,.7,.03,.14,.05,.27,.04,.41-.02,.38-.15,.72-.43,.99-.11,.11-.24,.19-.39,.24-.05,.02-.07,.05-.11,.09-.05,.05-.09,.11-.15,.15-.17,.11-.37,.06-.5-.09-.01-.01-.03-.03-.04-.05-.04-.05-.09-.09-.15-.11-.33-.13-.54-.38-.68-.7-.07-.17-.11-.34-.11-.52,0-.11,.01-.22,.03-.32,.01-.14,.06-.27,.11-.4,.11-.26,.27-.48,.5-.65,.08-.05,.17-.1,.25-.14,.05-.03,.1-.06,.14-.1,.03-.04,.06-.07,.09-.11,.02-.02,.03-.04,.06-.04,.04-.01,.04-.04,.05-.07,.04-.19,.12-.37,.25-.51,.06-.07,.13-.12,.2-.17,.02-.02,.05-.01,.07,0,.05,.05,.08,.11,.1,.18,0,.03,0,.04-.03,.05-.11,.03-.2,.09-.28,.17-.09,.1-.15,.22-.18,.34Zm-.38,.36s-.02,0-.02,0c-.12,.05-.23,.12-.33,.22-.32,.33-.45,.74-.43,1.19,0,.06,.02,.12,.02,.19,0,0,0,0,0,0,0-.21,.04-.42,.1-.63,.07-.23,.17-.44,.32-.64,.09-.13,.2-.24,.33-.33Z"/>
        <path class="cls-1" d="M83.68,33.6c-.12,.11-.24,.23-.37,.33-.14,.11-.29,.17-.47,.15-.06,0-.13-.02-.19-.04-.08-.03-.16-.06-.25-.09,.03-.05,.07-.1,.1-.15,.08-.12,.18-.23,.3-.3,.15-.09,.32-.13,.5-.11,.13,.01,.26,.05,.39,.09-.31,.1-.62,.17-.89,.33,.29-.1,.59-.18,.89-.22Z"/>
      </g>
      <g>
        <path class="cls-1" d="M65.97,28.47s.04,.03,.06,.05c.02,.02,.03,.03,.04,.05,.03,.03,.06,.06,.1,.07,.14,.05,.25,.14,.34,.26,.11,.13,.17,.29,.21,.45,.02,.09,.03,.18,.03,.27-.01,.25-.09,.47-.28,.64-.07,.07-.16,.12-.25,.15-.03,.01-.05,.03-.07,.06-.03,.03-.06,.07-.1,.09-.11,.07-.24,.04-.32-.06,0,0-.02-.02-.02-.03-.03-.03-.06-.06-.1-.07-.21-.09-.35-.24-.44-.45-.04-.11-.07-.22-.07-.34,0-.07,0-.14,.02-.21,0-.09,.04-.18,.07-.26,.07-.17,.17-.31,.33-.42,.05-.04,.11-.06,.16-.09,.04-.02,.06-.04,.09-.07,.02-.02,.04-.05,.06-.07,.01-.01,.02-.02,.04-.03,.03,0,.03-.03,.03-.05,.03-.12,.08-.24,.16-.33,.04-.04,.08-.08,.13-.11,.02,0,.03,0,.04,0,.03,.03,.05,.07,.06,.11,0,.02,0,.03-.02,.03-.07,.02-.13,.06-.18,.11-.06,.06-.1,.14-.12,.22Zm-.25,.23s0,0-.01,0c-.08,.03-.15,.08-.21,.14-.21,.22-.29,.48-.28,.77,0,.04,0,.08,.01,.12,0,0,0,0,0,0,0-.14,.02-.28,.06-.41,.05-.15,.11-.29,.21-.41,.06-.08,.13-.15,.22-.21Z"/>
        <path class="cls-1" d="M65.84,28.37c-.08,.07-.16,.15-.24,.21-.09,.07-.19,.11-.31,.1-.04,0-.08-.01-.12-.02-.05-.02-.11-.04-.16-.06,.02-.03,.04-.06,.06-.1,.05-.08,.11-.15,.2-.19,.1-.06,.21-.08,.32-.07,.09,0,.17,.03,.25,.06-.2,.06-.4,.11-.58,.22,.19-.06,.38-.12,.57-.14Z"/>
      </g>
      <g>
        <path class="cls-1" d="M69.11,32.93c-.09-.1-.19-.16-.32-.19-.03,0-.05-.02-.04-.05,.02-.08,.05-.15,.11-.2,.02-.02,.05-.02,.08,0,.09,.05,.16,.12,.23,.2,.15,.17,.23,.37,.29,.58,0,.04,.02,.07,.06,.08,.02,0,.05,.03,.06,.05,.04,.04,.07,.08,.1,.12,.04,.05,.09,.09,.16,.12,.1,.05,.2,.09,.29,.16,.26,.19,.45,.44,.57,.74,.06,.15,.11,.3,.13,.45,.01,.12,.03,.24,.03,.37,0,.2-.04,.4-.12,.59-.15,.37-.39,.64-.77,.79-.07,.03-.12,.07-.17,.13-.01,.02-.03,.03-.04,.05-.15,.18-.38,.22-.57,.1-.07-.04-.12-.11-.17-.17-.04-.04-.07-.08-.12-.1-.17-.06-.31-.15-.44-.27-.32-.31-.47-.69-.49-1.13,0-.16,.01-.31,.05-.47,.06-.29,.18-.56,.37-.79,.16-.2,.35-.36,.59-.45,.07-.03,.13-.07,.17-.13,.02-.03,.04-.06,.07-.09,.03-.03,.06-.06,.1-.09-.03-.14-.1-.27-.2-.39Zm1.01,1.17c.16,.22,.28,.46,.36,.72,.07,.23,.11,.47,.11,.71,0,0,0,0,.01,0,0-.07,.02-.14,.03-.21,.02-.52-.13-.98-.49-1.36-.1-.11-.23-.19-.37-.25,0,0-.02,0-.03,0,.15,.11,.27,.23,.38,.37Z"/>
        <path class="cls-1" d="M69.54,33.15c.14,.12,.27,.26,.42,.38,.15,.13,.33,.19,.54,.17,.07,0,.14-.02,.21-.04,.09-.03,.19-.07,.29-.1-.04-.06-.08-.11-.11-.17-.09-.13-.2-.26-.34-.34-.17-.1-.36-.14-.56-.13-.15,.01-.29,.06-.44,.11,.35,.11,.7,.2,1.01,.38-.33-.11-.67-.21-1-.25Z"/>
      </g>
      <g>
        <path class="cls-1" d="M85.04,44.67c-.05-.05-.11-.09-.18-.11-.02,0-.03-.01-.02-.03,.01-.04,.03-.08,.06-.11,.01-.01,.03-.01,.04,0,.05,.03,.09,.07,.13,.11,.08,.1,.13,.21,.16,.33,0,.02,0,.04,.03,.05,.01,0,.03,.02,.04,.03,.02,.02,.04,.05,.06,.07,.02,.03,.05,.05,.09,.07,.06,.03,.11,.05,.16,.09,.15,.11,.25,.25,.33,.42,.04,.08,.06,.17,.07,.26,0,.07,.02,.14,.02,.21,0,.12-.02,.23-.07,.34-.09,.21-.23,.37-.44,.45-.04,.02-.07,.04-.1,.07,0,.01-.02,.02-.02,.03-.08,.1-.22,.13-.32,.06-.04-.02-.07-.06-.1-.09-.02-.02-.04-.05-.07-.06-.1-.03-.18-.08-.25-.15-.18-.17-.27-.39-.28-.64,0-.09,0-.18,.03-.27,.04-.17,.1-.32,.21-.45,.09-.11,.2-.21,.34-.26,.04-.02,.07-.04,.1-.07,.01-.02,.03-.04,.04-.05,.02-.02,.04-.03,.06-.05-.02-.08-.06-.16-.12-.22Zm.58,.67c.09,.13,.16,.26,.21,.41,.04,.13,.06,.27,.06,.41,0,0,0,0,0,0,0-.04,.01-.08,.01-.12,.01-.3-.07-.56-.28-.77-.06-.06-.13-.11-.21-.14,0,0,0,0-.01,0,.08,.06,.15,.13,.22,.21Z"/>
        <path class="cls-1" d="M85.28,44.8c.08,.07,.16,.15,.24,.21,.09,.07,.19,.11,.31,.1,.04,0,.08-.01,.12-.02,.05-.02,.11-.04,.16-.06-.02-.03-.04-.06-.06-.1-.05-.08-.11-.15-.2-.19-.1-.06-.21-.08-.32-.07-.09,0-.17,.03-.25,.06,.2,.06,.4,.11,.58,.22-.19-.06-.38-.12-.57-.14Z"/>
      </g>
      <g>
        <path class="cls-1" d="M95.75,65.21c-.09-.1-.21-.17-.34-.21-.03,0-.05-.02-.04-.06,.02-.08,.06-.16,.12-.22,.02-.02,.05-.02,.08,0,.09,.06,.18,.13,.25,.21,.16,.18,.25,.4,.31,.63,0,.04,.02,.07,.06,.09,.03,0,.05,.03,.07,.05,.04,.04,.07,.09,.11,.13,.05,.06,.1,.1,.17,.13,.11,.05,.21,.1,.31,.17,.29,.2,.48,.47,.61,.79,.07,.16,.12,.32,.14,.49,.01,.13,.03,.26,.03,.4,0,.22-.05,.43-.13,.64-.16,.39-.43,.69-.83,.85-.08,.03-.13,.07-.18,.14-.01,.02-.03,.04-.04,.06-.16,.19-.41,.24-.61,.11-.07-.04-.13-.12-.18-.18-.04-.04-.07-.09-.13-.11-.18-.06-.34-.16-.48-.29-.35-.33-.5-.74-.52-1.21,0-.17,.01-.34,.05-.5,.07-.32,.2-.6,.4-.86,.17-.22,.38-.39,.64-.49,.08-.03,.14-.08,.18-.14,.03-.03,.05-.07,.08-.1,.03-.03,.07-.06,.11-.1-.04-.15-.11-.29-.22-.42Zm1.09,1.26c.18,.24,.3,.5,.39,.78,.08,.25,.12,.51,.12,.77,0,0,0,0,.01,.01,0-.08,.02-.15,.03-.23,.03-.56-.14-1.05-.53-1.46-.11-.12-.25-.21-.4-.27,0,0-.02,0-.03,0,.16,.11,.29,.25,.41,.4Z"/>
        <path class="cls-1" d="M96.21,65.45c.15,.13,.3,.28,.45,.4,.17,.14,.36,.21,.58,.19,.08,0,.15-.02,.23-.05,.1-.03,.2-.07,.31-.11-.04-.06-.08-.12-.12-.18-.1-.15-.22-.28-.37-.37-.19-.11-.39-.16-.61-.14-.16,.01-.32,.06-.48,.12,.38,.12,.75,.21,1.09,.41-.36-.12-.72-.22-1.08-.27Z"/>
      </g>
      <g>
        <path class="cls-1" d="M87.27,56.93c-.05-.05-.11-.09-.18-.11-.02,0-.03-.01-.02-.03,.01-.04,.03-.08,.06-.11,.01-.01,.03-.01,.04,0,.05,.03,.09,.07,.13,.11,.08,.1,.13,.21,.16,.33,0,.02,0,.04,.03,.05,.01,0,.03,.02,.04,.03,.02,.02,.04,.05,.06,.07,.02,.03,.05,.05,.09,.07,.06,.03,.11,.05,.16,.09,.15,.11,.25,.25,.33,.42,.04,.08,.06,.17,.07,.26,0,.07,.02,.14,.02,.21,0,.12-.02,.23-.07,.34-.09,.21-.23,.37-.44,.45-.04,.02-.07,.04-.1,.07,0,.01-.02,.02-.02,.03-.08,.1-.22,.13-.32,.06-.04-.02-.07-.06-.1-.09-.02-.02-.04-.05-.07-.06-.1-.03-.18-.08-.25-.15-.18-.17-.27-.39-.28-.64,0-.09,0-.18,.03-.27,.04-.17,.1-.32,.21-.45,.09-.11,.2-.21,.34-.26,.04-.02,.07-.04,.1-.07,.01-.02,.03-.04,.04-.05,.02-.02,.04-.03,.06-.05-.02-.08-.06-.16-.12-.22Zm.58,.67c.09,.13,.16,.26,.21,.41,.04,.13,.06,.27,.06,.41,0,0,0,0,0,0,0-.04,.01-.08,.01-.12,.01-.3-.07-.56-.28-.77-.06-.06-.13-.11-.21-.14,0,0,0,0-.01,0,.08,.06,.15,.13,.22,.21Z"/>
        <path class="cls-1" d="M87.51,57.05c.08,.07,.16,.15,.24,.21,.09,.07,.19,.11,.31,.1,.04,0,.08-.01,.12-.02,.05-.02,.11-.04,.16-.06-.02-.03-.04-.06-.06-.1-.05-.08-.11-.15-.2-.19-.1-.06-.21-.08-.32-.07-.09,0-.17,.03-.25,.06,.2,.06,.4,.11,.58,.22-.19-.06-.38-.12-.57-.14Z"/>
      </g>
      <g>
        <path class="cls-1" d="M104.64,43.18c-.08-.08-.17-.14-.28-.17-.02,0-.04-.02-.03-.05,.02-.07,.05-.13,.1-.18,.02-.02,.04-.02,.07,0,.08,.05,.14,.1,.2,.17,.13,.15,.21,.32,.25,.51,0,.03,.01,.06,.05,.07,.02,0,.04,.02,.06,.04,.03,.03,.06,.07,.09,.11,.04,.05,.08,.08,.14,.1,.09,.04,.17,.08,.25,.14,.23,.16,.39,.39,.5,.64,.05,.13,.1,.26,.11,.4,.01,.11,.03,.21,.03,.32,0,.18-.04,.35-.11,.52-.13,.32-.35,.56-.67,.69-.06,.02-.11,.06-.15,.11-.01,.02-.02,.03-.04,.04-.13,.15-.33,.19-.5,.09-.06-.04-.1-.09-.15-.15-.03-.03-.06-.07-.1-.09-.15-.05-.28-.13-.39-.24-.28-.27-.41-.6-.43-.99,0-.14,.01-.27,.04-.41,.05-.26,.16-.49,.32-.7,.14-.18,.31-.32,.52-.4,.06-.02,.11-.06,.15-.11,.02-.03,.04-.05,.06-.08,.03-.03,.06-.05,.09-.08-.03-.12-.09-.24-.18-.34Zm.88,1.03c.14,.19,.24,.41,.31,.63,.06,.2,.1,.41,.1,.63,0,0,0,0,0,0,0-.06,.02-.12,.02-.19,.02-.45-.11-.85-.43-1.19-.09-.1-.2-.17-.32-.22,0,0-.01,0-.02,0,.13,.09,.24,.2,.33,.33Z"/>
        <path class="cls-1" d="M105.01,43.38c.12,.11,.24,.22,.37,.33,.13,.11,.29,.17,.47,.15,.06,0,.12-.02,.18-.04,.08-.03,.16-.06,.25-.09-.03-.05-.07-.1-.1-.15-.08-.12-.17-.22-.3-.3-.15-.09-.32-.13-.49-.11-.13,.01-.26,.05-.39,.09,.31,.09,.61,.17,.89,.33-.29-.1-.58-.18-.88-.22Z"/>
      </g>
      <g>
        <path class="cls-2" d="M79.2,27.53c-.02,.64,.31,1.15,.66,1.7-.37-.17-.63-.4-.84-.68-.62-.82-.68-1.75-.4-2.7,.14-.45,.36-.87,.54-1.31,.02,0,.03,.02,.05,.03,.03,.32,.04,.64,.1,.95,.1,.51,.41,.93,.7,1.35,.19,.26,.39,.53,.53,.81,.24,.47,.1,.97-.31,1.3-.11,.09-.18,.03-.23-.05-.22-.34-.43-.68-.64-1.02-.07-.12-.12-.26-.17-.39Z"/>
        <path class="cls-2" d="M80.53,29.02c.32-.56,.68-1.11,.61-1.8-.08,.26-.16,.51-.24,.77-.09-.5-.43-.84-.71-1.21-.1-.13-.1-.25-.02-.39,.29-.51,.69-.9,1.23-1.16,.13,.58,.28,1.14,.39,1.71,.18,.93-.38,1.84-1.26,2.08Z"/>
      </g>
      <g>
        <path class="cls-2" d="M107.79,40.64c-.39,.51-.41,1.11-.45,1.77-.2-.35-.28-.69-.29-1.04-.03-1.03,.46-1.82,1.25-2.43,.37-.29,.8-.5,1.2-.75,0,.02,.02,.03,.02,.05-.16,.28-.34,.54-.47,.83-.21,.48-.21,1-.21,1.51,0,.32,0,.65-.04,.97-.08,.52-.48,.85-1.01,.88-.14,0-.17-.08-.16-.17,.02-.4,.04-.8,.08-1.2,.01-.14,.06-.28,.09-.42Z"/>
        <path class="cls-2" d="M108,42.63c.59-.27,1.2-.51,1.55-1.11-.22,.16-.43,.32-.65,.49,.22-.46,.14-.94,.13-1.4,0-.17,.06-.26,.21-.33,.53-.25,1.09-.33,1.68-.23-.23,.55-.44,1.09-.68,1.62-.4,.86-1.37,1.27-2.24,.96Z"/>
      </g>
      <g>
        <path class="cls-2" d="M74.87,41.55c-.39,.51-.41,1.11-.45,1.77-.2-.35-.28-.69-.29-1.04-.03-1.03,.46-1.82,1.25-2.43,.37-.29,.8-.5,1.2-.75,0,.02,.02,.03,.02,.05-.16,.28-.34,.54-.47,.83-.21,.48-.21,1-.21,1.51,0,.32,0,.65-.04,.97-.08,.52-.48,.85-1.01,.88-.14,0-.17-.08-.16-.17,.02-.4,.04-.8,.08-1.2,.01-.14,.06-.28,.09-.42Z"/>
        <path class="cls-2" d="M75.08,43.54c.59-.27,1.2-.51,1.55-1.11-.22,.16-.43,.32-.65,.49,.22-.46,.14-.94,.13-1.4,0-.17,.06-.26,.21-.33,.53-.25,1.09-.33,1.68-.23-.23,.55-.44,1.09-.68,1.62-.4,.86-1.37,1.27-2.24,.96Z"/>
      </g>
      <g>
        <path class="cls-2" d="M112.56,56.08c-.39,.51-.41,1.11-.45,1.77-.2-.35-.28-.69-.29-1.04-.03-1.03,.46-1.82,1.25-2.43,.37-.29,.8-.5,1.2-.75,0,.02,.02,.03,.02,.05-.16,.28-.34,.54-.47,.83-.21,.48-.21,1-.21,1.51,0,.32,0,.65-.04,.97-.08,.52-.48,.85-1.01,.88-.14,0-.17-.08-.16-.17,.02-.4,.04-.8,.08-1.2,.01-.14,.06-.28,.09-.42Z"/>
        <path class="cls-2" d="M112.77,58.07c.59-.27,1.2-.51,1.55-1.11-.22,.16-.43,.32-.65,.49,.22-.46,.14-.94,.13-1.4,0-.17,.06-.26,.21-.33,.53-.25,1.09-.33,1.68-.23-.23,.55-.44,1.09-.68,1.62-.4,.86-1.37,1.27-2.24,.96Z"/>
      </g>
      <g>
        <path class="cls-2" d="M61.12,45.68c.59,.24,1.18,.11,1.82-.02-.29,.28-.59,.45-.93,.55-.99,.3-1.88,.03-2.67-.58-.37-.28-.69-.64-1.03-.97,.01-.01,.03-.02,.04-.04,.31,.08,.61,.19,.93,.24,.52,.08,1.02-.05,1.51-.18,.31-.08,.63-.18,.95-.21,.52-.06,.94,.25,1.11,.74,.05,.14-.04,.18-.13,.2-.39,.09-.79,.17-1.18,.24-.14,.03-.29,.02-.43,.03Z"/>
        <path class="cls-2" d="M62.99,44.96c-.41-.5-.8-1.03-1.47-1.21,.21,.17,.42,.33,.64,.5-.5-.09-.94,.11-1.39,.24-.16,.05-.26,0-.37-.12-.38-.45-.6-.97-.66-1.56,.59,.08,1.17,.14,1.74,.24,.93,.16,1.59,1,1.51,1.91Z"/>
      </g>
      <g>
        <path class="cls-2" d="M61.38,55.23c.42,.17,.85,.08,1.31-.02-.21,.2-.43,.32-.67,.4-.71,.21-1.34,.02-1.91-.41-.27-.2-.49-.46-.74-.69,0,0,.02-.02,.03-.03,.22,.06,.44,.13,.66,.17,.37,.06,.73-.04,1.09-.13,.22-.06,.45-.13,.68-.15,.37-.04,.67,.18,.8,.53,.03,.1-.03,.13-.09,.14-.28,.06-.56,.12-.85,.17-.1,.02-.2,.01-.31,.02Z"/>
        <path class="cls-2" d="M62.72,54.72c-.3-.36-.57-.74-1.05-.86,.15,.12,.3,.24,.46,.36-.36-.06-.67,.08-.99,.17-.12,.03-.19,0-.27-.09-.27-.32-.43-.69-.47-1.12,.42,.06,.84,.1,1.25,.17,.67,.11,1.14,.71,1.08,1.37Z"/>
      </g>
      <g>
        <path class="cls-2" d="M106.2,51.86c-.46,.04-.83-.18-1.24-.41,.13,.26,.31,.44,.52,.58,.61,.42,1.27,.43,1.94,.19,.32-.11,.61-.29,.92-.43,0-.01-.01-.02-.02-.03-.23-.01-.46,0-.68-.04-.37-.06-.68-.26-.99-.46-.2-.12-.39-.26-.6-.35-.34-.15-.7-.04-.92,.27-.06,.08-.01,.13,.04,.16,.25,.14,.5,.29,.76,.42,.09,.05,.19,.07,.29,.11Z"/>
        <path class="cls-2" d="M105.08,50.96c.39-.25,.77-.53,1.27-.5-.18,.07-.36,.13-.54,.2,.36,.05,.62,.28,.89,.47,.1,.07,.18,.06,.28,0,.36-.22,.62-.53,.79-.92-.42-.07-.83-.16-1.24-.22-.67-.09-1.3,.33-1.45,.98Z"/>
      </g>
      <g>
        <path class="cls-2" d="M91.75,47.9c-.26,.38-.66,.53-1.1,.71,.28,.06,.53,.03,.77-.04,.71-.22,1.13-.73,1.37-1.4,.11-.32,.16-.66,.23-.99-.01,0-.03,0-.04,0-.15,.17-.29,.35-.46,.51-.28,.25-.63,.37-.98,.49-.22,.07-.45,.14-.65,.25-.34,.17-.47,.52-.37,.88,.03,.1,.09,.09,.15,.07,.27-.1,.54-.21,.8-.33,.09-.04,.18-.1,.27-.15Z"/>
        <path class="cls-2" d="M90.35,48.21c.05-.46,.07-.93,.4-1.3-.06,.18-.12,.37-.18,.55,.26-.25,.6-.31,.92-.41,.12-.03,.16-.1,.17-.22,.05-.42-.02-.81-.22-1.19-.32,.28-.64,.55-.95,.83-.49,.47-.55,1.22-.15,1.74Z"/>
      </g>
      <g>
        <path class="cls-2" d="M64.17,25.34c.42,.17,.85,.08,1.31-.02-.21,.2-.43,.32-.67,.4-.71,.21-1.34,.02-1.91-.41-.27-.2-.49-.46-.74-.69,0,0,.02-.02,.03-.03,.22,.06,.44,.13,.66,.17,.37,.06,.73-.04,1.09-.13,.22-.06,.45-.13,.68-.15,.37-.04,.67,.18,.8,.53,.03,.1-.03,.13-.09,.14-.28,.06-.56,.12-.85,.17-.1,.02-.2,.01-.31,.02Z"/>
        <path class="cls-2" d="M65.51,24.82c-.3-.36-.57-.74-1.05-.86,.15,.12,.3,.24,.46,.36-.36-.06-.67,.08-.99,.17-.12,.03-.19,0-.27-.09-.27-.32-.43-.69-.47-1.12,.42,.06,.84,.1,1.25,.17,.67,.11,1.14,.71,1.08,1.37Z"/>
      </g>
      <g>
        <path class="cls-2" d="M103.16,56.8c-.02,.64,.31,1.15,.66,1.7-.37-.17-.63-.4-.84-.68-.62-.82-.68-1.75-.4-2.7,.14-.45,.36-.87,.54-1.31,.02,0,.03,.02,.05,.03,.03,.32,.04,.64,.1,.95,.1,.51,.41,.93,.7,1.35,.19,.26,.39,.53,.53,.81,.24,.47,.1,.97-.31,1.3-.11,.09-.18,.03-.23-.05-.22-.34-.43-.68-.64-1.02-.07-.12-.12-.26-.17-.39Z"/>
        <path class="cls-2" d="M104.48,58.3c.32-.56,.68-1.11,.61-1.8-.08,.26-.16,.51-.24,.77-.09-.5-.43-.84-.71-1.21-.1-.13-.1-.25-.02-.39,.29-.51,.69-.9,1.23-1.16,.13,.58,.28,1.14,.39,1.71,.18,.93-.38,1.84-1.26,2.08Z"/>
      </g>
      <g>
        <path class="cls-2" d="M73.62,51.27c-.22,.6-.07,1.19,.09,1.82-.29-.28-.47-.58-.58-.91-.33-.98-.09-1.87,.48-2.68,.27-.38,.62-.71,.93-1.07,.01,.01,.02,.03,.04,.04-.07,.31-.17,.62-.21,.93-.06,.52,.09,1.01,.24,1.51,.09,.31,.2,.62,.25,.94,.08,.52-.21,.95-.7,1.14-.14,.05-.18-.03-.21-.12-.1-.39-.19-.78-.28-1.17-.03-.14-.03-.28-.04-.43Z"/>
        <path class="cls-2" d="M74.4,53.11c.48-.43,1-.83,1.15-1.51-.16,.22-.32,.44-.47,.65,.07-.51-.14-.94-.29-1.38-.05-.16-.01-.26,.11-.37,.44-.4,.94-.63,1.53-.71-.06,.59-.1,1.17-.18,1.75-.13,.94-.94,1.62-1.86,1.58Z"/>
      </g>
      <g>
        <path class="cls-2" d="M86.88,49.99c-.35,.13-.55,.42-.77,.73,.01-.23,.08-.42,.18-.6,.31-.51,.79-.75,1.36-.8,.27-.03,.55,0,.82,0,0,.01,0,.02,0,.03-.16,.09-.33,.16-.49,.26-.25,.17-.41,.42-.57,.67-.1,.16-.2,.32-.32,.46-.2,.23-.5,.26-.76,.12-.07-.04-.06-.09-.03-.14,.13-.19,.27-.38,.41-.57,.05-.07,.11-.12,.17-.18Z"/>
        <path class="cls-2" d="M86.37,51.03c.37,.05,.74,.12,1.1-.06-.16,.01-.31,.03-.47,.04,.25-.16,.36-.41,.5-.65,.05-.08,.11-.11,.21-.09,.34,.04,.63,.18,.89,.4-.28,.2-.55,.4-.83,.58-.46,.3-1.07,.2-1.39-.22Z"/>
      </g>
      <g>
        <path class="cls-2" d="M100.13,47.63c.55,.55,1.28,.68,2.07,.83-.46,.19-.88,.23-1.31,.18-1.26-.13-2.13-.85-2.74-1.91-.29-.5-.48-1.05-.71-1.58,.02,0,.04-.01,.06-.02,.31,.24,.6,.5,.93,.71,.55,.34,1.17,.42,1.8,.51,.39,.05,.79,.1,1.17,.21,.62,.18,.95,.72,.9,1.36-.01,.18-.13,.19-.24,.17-.48-.09-.97-.18-1.45-.29-.17-.04-.33-.11-.5-.17Z"/>
        <path class="cls-2" d="M102.58,47.7c-.23-.76-.42-1.54-1.09-2.06,.16,.29,.32,.57,.49,.86-.53-.34-1.11-.32-1.68-.38-.21-.02-.3-.12-.36-.31-.22-.69-.22-1.37,0-2.07,.63,.37,1.25,.71,1.85,1.09,.98,.62,1.32,1.87,.8,2.87Z"/>
      </g>
      <g>
        <path class="cls-2" d="M66.53,55.4c-.17-.42-.53-.65-.91-.91,.29,0,.52,.08,.74,.2,.64,.36,.94,.94,1.02,1.64,.04,.33,.01,.67,.02,1-.01,0-.03,0-.04,0-.11-.2-.21-.4-.34-.59-.21-.3-.53-.49-.84-.68-.2-.12-.4-.23-.58-.38-.29-.24-.34-.6-.17-.93,.05-.09,.11-.07,.16-.04,.24,.16,.47,.32,.71,.48,.08,.06,.15,.14,.22,.2Z"/>
        <path class="cls-2" d="M65.24,54.8c-.05,.46-.13,.91,.11,1.34-.02-.19-.04-.38-.06-.57,.2,.3,.52,.43,.81,.59,.1,.06,.13,.13,.12,.25-.04,.42-.19,.78-.47,1.11-.25-.34-.51-.66-.74-1-.38-.55-.28-1.3,.22-1.71Z"/>
      </g>
      <path class="cls-2" d="M78.21,35.5c-.55,.55-1.28,.68-2.07,.83,.46,.19,.88,.23,1.31,.18,1.26-.13,2.13-.85,2.74-1.91,.29-.5,.48-1.05,.71-1.58-.02,0-.04-.01-.06-.02-.31,.24-.6,.5-.93,.71-.55,.34-1.17,.42-1.8,.51-.39,.05-.79,.1-1.17,.21-.62,.18-.95,.72-.9,1.36,.01,.18,.13,.19,.24,.17,.48-.09,.97-.18,1.45-.29,.17-.04,.33-.11,.5-.17Z"/>
      <path class="cls-2" d="M64.16,37.69c.39,.31,.53,.76,.69,1.25,.08-.31,.08-.58,.01-.85-.18-.79-.71-1.28-1.43-1.59-.34-.14-.7-.22-1.06-.33,0,.01,0,.03,0,.04,.18,.18,.37,.34,.52,.54,.26,.32,.36,.71,.46,1.1,.07,.25,.12,.5,.22,.73,.16,.38,.53,.54,.94,.46,.11-.02,.11-.1,.09-.16-.09-.3-.19-.6-.3-.9-.04-.1-.1-.2-.15-.3Z"/>
      <path class="cls-2" d="M69.62,30.31c.26,.21,.36,.51,.46,.84,.05-.21,.05-.39,0-.57-.12-.53-.48-.86-.96-1.07-.23-.1-.47-.15-.71-.22,0,0,0,.02,0,.03,.12,.12,.25,.23,.35,.36,.17,.21,.24,.48,.31,.74,.04,.16,.08,.33,.15,.49,.11,.25,.36,.37,.63,.31,.07-.01,.07-.06,.06-.11-.06-.2-.13-.4-.2-.6-.03-.07-.07-.13-.1-.2Z"/>
      <path class="cls-2" d="M72.67,40.71c.26,.21,.36,.51,.46,.84,.05-.21,.05-.39,0-.57-.12-.53-.48-.86-.96-1.07-.23-.1-.47-.15-.71-.22,0,0,0,.02,0,.03,.12,.12,.25,.23,.35,.36,.17,.21,.24,.48,.31,.74,.04,.16,.08,.33,.15,.49,.11,.25,.36,.37,.63,.31,.07-.01,.07-.06,.06-.11-.06-.2-.13-.4-.2-.6-.03-.07-.07-.13-.1-.2Z"/>
      <path class="cls-2" d="M95.26,46.21c.26,.21,.36,.51,.46,.84,.05-.21,.05-.39,0-.57-.12-.53-.48-.86-.96-1.07-.23-.1-.47-.15-.71-.22,0,0,0,.02,0,.03,.12,.12,.25,.23,.35,.36,.17,.21,.24,.48,.31,.74,.04,.16,.08,.33,.15,.49,.11,.25,.36,.37,.63,.31,.07-.01,.07-.06,.06-.11-.06-.2-.13-.4-.2-.6-.03-.07-.07-.13-.1-.2Z"/>
      <path class="cls-2" d="M83.92,52.62c.21,.17,.29,.41,.38,.68,.04-.17,.04-.31,0-.46-.1-.43-.39-.7-.77-.86-.18-.08-.38-.12-.57-.18,0,0,0,.02,0,.02,.1,.1,.2,.19,.28,.29,.14,.17,.2,.39,.25,.6,.04,.13,.07,.27,.12,.4,.09,.2,.29,.3,.51,.25,.06-.01,.06-.05,.05-.09-.05-.16-.1-.33-.16-.49-.02-.06-.05-.11-.08-.16Z"/>
      <path class="cls-2" d="M73.1,54.56c.26-.08,.5,0,.77,.07-.11-.13-.24-.21-.38-.26-.41-.16-.79-.07-1.15,.16-.17,.11-.31,.25-.47,.38,0,0,.01,.01,.02,.02,.13-.02,.27-.06,.4-.07,.22-.02,.43,.05,.64,.13,.13,.05,.26,.09,.4,.12,.22,.04,.41-.07,.49-.28,.02-.06-.01-.08-.05-.09-.16-.05-.33-.1-.49-.14-.06-.02-.12-.02-.18-.02Z"/>
      <path class="cls-2" d="M65.68,49.83c.26,.21,.36,.51,.46,.84,.05-.21,.05-.39,0-.57-.12-.53-.48-.86-.96-1.07-.23-.1-.47-.15-.71-.22,0,0,0,.02,0,.03,.12,.12,.25,.23,.35,.36,.17,.21,.24,.48,.31,.74,.04,.16,.08,.33,.15,.49,.11,.25,.36,.37,.63,.31,.07-.01,.07-.06,.06-.11-.06-.2-.13-.4-.2-.6-.03-.07-.07-.13-.1-.2Z"/>
      <path class="cls-2" d="M69.17,55.22c.16,.13,.22,.31,.28,.51,.03-.13,.03-.24,0-.35-.08-.32-.29-.53-.59-.65-.14-.06-.29-.09-.43-.13,0,0,0,.01,0,.02,.07,.07,.15,.14,.21,.22,.11,.13,.15,.29,.19,.45,.03,.1,.05,.2,.09,.3,.07,.16,.22,.22,.38,.19,.05,0,.04-.04,.04-.07-.04-.12-.08-.25-.12-.37-.02-.04-.04-.08-.06-.12Z"/>
      <path class="cls-2" d="M63.76,53.26c-.19,.08-.29,.24-.41,.42,0-.13,.03-.24,.09-.34,.16-.29,.42-.43,.74-.47,.15-.02,.3,0,.45-.01,0,0,0,.01,0,.02-.09,.05-.18,.1-.27,.16-.14,.1-.22,.24-.31,.38-.05,.09-.1,.18-.17,.26-.11,.13-.27,.16-.42,.08-.04-.02-.03-.05-.02-.07,.07-.11,.14-.22,.22-.32,.03-.04,.06-.07,.09-.1Z"/>
      <path class="cls-2" d="M91.81,50.94c-.19,.08-.29,.24-.41,.42,0-.13,.03-.24,.09-.34,.16-.29,.42-.43,.74-.47,.15-.02,.3,0,.45-.01,0,0,0,.01,0,.02-.09,.05-.18,.1-.27,.16-.14,.1-.22,.24-.31,.38-.05,.09-.1,.18-.17,.26-.11,.13-.27,.16-.42,.08-.04-.02-.03-.05-.02-.07,.07-.11,.14-.22,.22-.32,.03-.04,.06-.07,.09-.1Z"/>
      <path class="cls-2" d="M86.78,60.51c-.19,.08-.29,.24-.41,.42,0-.13,.03-.24,.09-.34,.16-.29,.42-.43,.74-.47,.15-.02,.3,0,.45-.01,0,0,0,.01,0,.02-.09,.05-.18,.1-.27,.16-.14,.1-.22,.24-.31,.38-.05,.09-.1,.18-.17,.26-.11,.13-.27,.16-.42,.08-.04-.02-.03-.05-.02-.07,.07-.11,.14-.22,.22-.32,.03-.04,.06-.07,.09-.1Z"/>
      <path class="cls-2" d="M95.77,59.56c-.19,.08-.29,.24-.41,.42,0-.13,.03-.24,.09-.34,.16-.29,.42-.43,.74-.47,.15-.02,.3,0,.45-.01,0,0,0,.01,0,.02-.09,.05-.18,.1-.27,.16-.14,.1-.22,.24-.31,.38-.05,.09-.1,.18-.17,.26-.11,.13-.27,.16-.42,.08-.04-.02-.03-.05-.02-.07,.07-.11,.14-.22,.22-.32,.03-.04,.06-.07,.09-.1Z"/>
      <path class="cls-2" d="M96.56,55.03c-.19,.08-.29,.24-.41,.42,0-.13,.03-.24,.09-.34,.16-.29,.42-.43,.74-.47,.15-.02,.3,0,.45-.01,0,0,0,.01,0,.02-.09,.05-.18,.1-.27,.16-.14,.1-.22,.24-.31,.38-.05,.09-.1,.18-.17,.26-.11,.13-.27,.16-.42,.08-.04-.02-.03-.05-.02-.07,.07-.11,.14-.22,.22-.32,.03-.04,.06-.07,.09-.1Z"/>
      <path class="cls-2" d="M99.97,59.98c-.19,.08-.29,.24-.41,.42,0-.13,.03-.24,.09-.34,.16-.29,.42-.43,.74-.47,.15-.02,.3,0,.45-.01,0,0,0,.01,0,.02-.09,.05-.18,.1-.27,.16-.14,.1-.22,.24-.31,.38-.05,.09-.1,.18-.17,.26-.11,.13-.27,.16-.42,.08-.04-.02-.03-.05-.02-.07,.07-.11,.14-.22,.22-.32,.03-.04,.06-.07,.09-.1Z"/>
      <path class="cls-2" d="M98.11,42.44c.19,.08,.29,.24,.41,.42,0-.13-.03-.24-.09-.34-.16-.29-.42-.43-.74-.47-.15-.02-.3,0-.45-.01,0,0,0,.01,0,.02,.09,.05,.18,.1,.27,.16,.14,.1,.22,.24,.31,.38,.05,.09,.1,.18,.17,.26,.11,.13,.27,.16,.42,.08,.04-.02,.03-.05,.02-.07-.07-.11-.14-.22-.22-.32-.03-.04-.06-.07-.09-.1Z"/>
      <path class="cls-2" d="M81.93,55.73c-.19,.08-.29,.24-.41,.42,0-.13,.03-.24,.09-.34,.16-.29,.42-.43,.74-.47,.15-.02,.3,0,.45-.01,0,0,0,.01,0,.02-.09,.05-.18,.1-.27,.16-.14,.1-.22,.24-.31,.38-.05,.09-.1,.18-.17,.26-.11,.13-.27,.16-.42,.08-.04-.02-.03-.05-.02-.07,.07-.11,.14-.22,.22-.32,.03-.04,.06-.07,.09-.1Z"/>
      <path class="cls-2" d="M80.43,60.41c.2-.02,.38,.07,.56,.17-.06-.11-.14-.19-.24-.25-.28-.18-.58-.17-.88-.05-.14,.06-.27,.14-.4,.21,0,0,0,0,0,.01,.1,0,.21,0,.31,0,.17,.02,.31,.1,.45,.19,.09,.05,.18,.11,.28,.15,.16,.06,.31,0,.41-.13,.03-.04,0-.06-.02-.07-.11-.06-.23-.12-.35-.18-.04-.02-.09-.03-.13-.05Z"/>
      <path class="cls-2" d="M91.33,57.36c.2-.02,.38,.07,.56,.17-.06-.11-.14-.19-.24-.25-.28-.18-.58-.17-.88-.05-.14,.06-.27,.14-.4,.21,0,0,0,0,0,.01,.1,0,.21,0,.31,0,.17,.02,.31,.1,.45,.19,.09,.05,.18,.11,.28,.15,.16,.06,.31,0,.41-.13,.03-.04,0-.06-.02-.07-.11-.06-.23-.12-.35-.18-.04-.02-.09-.03-.13-.05Z"/>
      <path class="cls-2" d="M97.98,64.17c-.2,.01-.37-.09-.55-.19,.06,.12,.14,.2,.23,.26,.27,.19,.57,.2,.87,.1,.14-.05,.28-.13,.41-.19,0,0,0-.01,0-.02-.1,0-.21,0-.31-.02-.17-.03-.3-.12-.44-.21-.09-.06-.17-.12-.27-.16-.15-.07-.31-.02-.41,.11-.03,.04,0,.06,.02,.07,.11,.07,.22,.13,.34,.19,.04,.02,.09,.03,.13,.05Z"/>
      <path class="cls-2" d="M90.87,64.04c.19,.07,.31,.23,.43,.4,0-.13-.05-.24-.1-.33-.17-.28-.44-.41-.76-.43-.15-.01-.3,0-.45,0,0,0,0,.01,0,.02,.09,.05,.19,.09,.27,.14,.14,.09,.23,.23,.32,.37,.06,.09,.11,.18,.18,.25,.11,.13,.28,.14,.43,.06,.04-.02,.03-.05,.01-.08-.08-.11-.15-.21-.23-.31-.03-.04-.06-.07-.1-.1Z"/>
      <path class="cls-2" d="M85.36,42.13c.13,.31,.07,.62,0,.96,.15-.15,.23-.32,.28-.49,.15-.52,0-.99-.32-1.4-.15-.19-.34-.36-.52-.53,0,0-.01,.01-.02,.02,.05,.16,.1,.32,.13,.48,.05,.27-.02,.53-.08,.8-.04,.17-.09,.33-.1,.5-.03,.27,.14,.49,.4,.58,.07,.02,.1-.02,.1-.07,.04-.21,.08-.42,.11-.62,.01-.07,0-.15,.01-.23Z"/>
      <path class="cls-2" d="M67.49,44.47c-.39,.31-.53,.76-.69,1.25-.08-.31-.08-.58-.01-.85,.18-.79,.71-1.28,1.43-1.59,.34-.14,.7-.22,1.06-.33,0,.01,0,.03,0,.04-.18,.18-.37,.34-.52,.54-.26,.32-.36,.71-.46,1.1-.07,.25-.12,.5-.22,.73-.16,.38-.53,.54-.94,.46-.11-.02-.11-.1-.09-.16,.09-.3,.19-.6,.3-.9,.04-.1,.1-.2,.15-.3Z"/>
      <path class="cls-2" d="M72.36,23.78c-.26,.2-.35,.5-.45,.81-.05-.2-.05-.38,0-.55,.12-.51,.46-.84,.93-1.03,.22-.09,.46-.14,.69-.21,0,0,0,.02,0,.03-.11,.12-.24,.22-.34,.35-.17,.21-.23,.46-.3,.72-.04,.16-.08,.32-.15,.47-.11,.25-.35,.35-.61,.3-.07-.01-.07-.06-.06-.11,.06-.2,.13-.39,.19-.58,.02-.07,.06-.13,.1-.2Z"/>
      <path class="cls-2" d="M78.12,45.39c-.26,.2-.35,.5-.45,.81-.05-.2-.05-.38,0-.55,.12-.51,.46-.84,.93-1.03,.22-.09,.46-.14,.69-.21,0,0,0,.02,0,.03-.11,.12-.24,.22-.34,.35-.17,.21-.23,.46-.3,.72-.04,.16-.08,.32-.15,.47-.11,.25-.35,.35-.61,.3-.07-.01-.07-.06-.06-.11,.06-.2,.13-.39,.19-.58,.02-.07,.06-.13,.1-.2Z"/>
      <path class="cls-2" d="M102.81,40.71c-.26,.2-.35,.5-.45,.81-.05-.2-.05-.38,0-.55,.12-.51,.46-.84,.93-1.03,.22-.09,.46-.14,.69-.21,0,0,0,.02,0,.03-.11,.12-.24,.22-.34,.35-.17,.21-.23,.46-.3,.72-.04,.16-.08,.32-.15,.47-.11,.25-.35,.35-.61,.3-.07-.01-.07-.06-.06-.11,.06-.2,.13-.39,.19-.58,.02-.07,.06-.13,.1-.2Z"/>
      <path class="cls-2" d="M88.26,47.19c-.19,.04-.31,.18-.44,.32,.02-.12,.07-.21,.13-.29,.19-.24,.45-.33,.75-.32,.14,0,.28,.04,.42,.06,0,0,0,.01,0,.02-.09,.03-.18,.06-.27,.1-.14,.07-.24,.19-.34,.3-.06,.07-.12,.15-.2,.21-.12,.1-.27,.1-.4,0-.03-.03-.02-.05,0-.07,.08-.09,.16-.18,.25-.26,.03-.03,.07-.05,.1-.08Z"/>
      <path class="cls-2" d="M83.8,30.38c-.19,.04-.31,.18-.44,.32,.02-.12,.07-.21,.13-.29,.19-.24,.45-.33,.75-.32,.14,0,.28,.04,.42,.06,0,0,0,.01,0,.02-.09,.03-.18,.06-.27,.1-.14,.07-.24,.19-.34,.3-.06,.07-.12,.15-.2,.21-.12,.1-.27,.1-.4,0-.03-.03-.02-.05,0-.07,.08-.09,.16-.18,.25-.26,.03-.03,.07-.05,.1-.08Z"/>
      <path class="cls-2" d="M73.9,28.63c-.14,.13-.17,.31-.21,.5-.04-.11-.05-.22-.04-.32,.04-.31,.21-.52,.47-.66,.12-.07,.26-.11,.39-.17,0,0,0,.01,0,.02-.06,.08-.12,.15-.17,.23-.08,.13-.11,.29-.13,.44-.01,.1-.03,.19-.05,.29-.05,.15-.18,.23-.33,.22-.04,0-.05-.03-.04-.06,.02-.12,.05-.24,.07-.35,0-.04,.03-.08,.04-.12Z"/>
      <path class="cls-2" d="M85.19,55.18c-.19,.04-.31,.18-.44,.32,.02-.12,.07-.21,.13-.29,.19-.24,.45-.33,.75-.32,.14,0,.28,.04,.42,.06,0,0,0,.01,0,.02-.09,.03-.18,.06-.27,.1-.14,.07-.24,.19-.34,.3-.06,.07-.12,.15-.2,.21-.12,.1-.27,.1-.4,0-.03-.03-.02-.05,0-.07,.08-.09,.16-.18,.25-.26,.03-.03,.07-.05,.1-.08Z"/>
      <path class="cls-2" d="M70.81,49.52c-.19,.04-.31,.18-.44,.32,.02-.12,.07-.21,.13-.29,.19-.24,.45-.33,.75-.32,.14,0,.28,.04,.42,.06,0,0,0,.01,0,.02-.09,.03-.18,.06-.27,.1-.14,.07-.24,.19-.34,.3-.06,.07-.12,.15-.2,.21-.12,.1-.27,.1-.4,0-.03-.03-.02-.05,0-.07,.08-.09,.16-.18,.25-.26,.03-.03,.07-.05,.1-.08Z"/>
      <path class="cls-2" d="M64.05,42.17c.19,.04,.31,.18,.44,.32-.02-.12-.07-.21-.13-.29-.19-.24-.45-.33-.75-.32-.14,0-.28,.04-.42,.06,0,0,0,.01,0,.02,.09,.03,.18,.06,.27,.1,.14,.07,.24,.19,.34,.3,.06,.07,.12,.15,.2,.21,.12,.1,.27,.1,.4,0,.03-.03,.02-.05,0-.07-.08-.09-.16-.18-.25-.26-.03-.03-.07-.05-.1-.08Z"/>
      <path class="cls-2" d="M65.65,47.19c.19,.04,.31,.18,.44,.32-.02-.12-.07-.21-.13-.29-.19-.24-.45-.33-.75-.32-.14,0-.28,.04-.42,.06,0,0,0,.01,0,.02,.09,.03,.18,.06,.27,.1,.14,.07,.24,.19,.34,.3,.06,.07,.12,.15,.2,.21,.12,.1,.27,.1,.4,0,.03-.03,.02-.05,0-.07-.08-.09-.16-.18-.25-.26-.03-.03-.07-.05-.1-.08Z"/>
      <path class="cls-2" d="M73.64,37.4c.19,.04,.31,.18,.44,.32-.02-.12-.07-.21-.13-.29-.19-.24-.45-.33-.75-.32-.14,0-.28,.04-.42,.06,0,0,0,.01,0,.02,.09,.03,.18,.06,.27,.1,.14,.07,.24,.19,.34,.3,.06,.07,.12,.15,.2,.21,.12,.1,.27,.1,.4,0,.03-.03,.02-.05,0-.07-.08-.09-.16-.18-.25-.26-.03-.03-.07-.05-.1-.08Z"/>
      <path class="cls-2" d="M67.85,22.92c.19,.04,.31,.18,.44,.32-.02-.12-.07-.21-.13-.29-.19-.24-.45-.33-.75-.32-.14,0-.28,.04-.42,.06,0,0,0,.01,0,.02,.09,.03,.18,.06,.27,.1,.14,.07,.24,.19,.34,.3,.06,.07,.12,.15,.2,.21,.12,.1,.27,.1,.4,0,.03-.03,.02-.05,0-.07-.08-.09-.16-.18-.25-.26-.03-.03-.07-.05-.1-.08Z"/>
      <path class="cls-2" d="M82.25,45.02c.19,.04,.31,.18,.44,.32-.02-.12-.07-.21-.13-.29-.19-.24-.45-.33-.75-.32-.14,0-.28,.04-.42,.06,0,0,0,.01,0,.02,.09,.03,.18,.06,.27,.1,.14,.07,.24,.19,.34,.3,.06,.07,.12,.15,.2,.21,.12,.1,.27,.1,.4,0,.03-.03,.02-.05,0-.07-.08-.09-.16-.18-.25-.26-.03-.03-.07-.05-.1-.08Z"/>
      <path class="cls-2" d="M82.28,50.55c-.19,.04-.31,.18-.44,.32,.02-.12,.07-.21,.13-.29,.19-.24,.45-.33,.75-.32,.14,0,.28,.04,.42,.06,0,0,0,.01,0,.02-.09,.03-.18,.06-.27,.1-.14,.07-.24,.19-.34,.3-.06,.07-.12,.15-.2,.21-.12,.1-.27,.1-.4,0-.03-.03-.02-.05,0-.07,.08-.09,.16-.18,.25-.26,.03-.03,.07-.05,.1-.08Z"/>
      <path class="cls-2" d="M96.79,52.44c.19,.04,.31,.18,.44,.32-.02-.12-.07-.21-.13-.29-.19-.24-.45-.33-.75-.32-.14,0-.28,.04-.42,.06,0,0,0,.01,0,.02,.09,.03,.18,.06,.27,.1,.14,.07,.24,.19,.34,.3,.06,.07,.12,.15,.2,.21,.12,.1,.27,.1,.4,0,.03-.03,.02-.05,0-.07-.08-.09-.16-.18-.25-.26-.03-.03-.07-.05-.1-.08Z"/>
      <path class="cls-2" d="M83.34,47.7c.19,.04,.31,.18,.44,.32-.02-.12-.07-.21-.13-.29-.19-.24-.45-.33-.75-.32-.14,0-.28,.04-.42,.06,0,0,0,.01,0,.02,.09,.03,.18,.06,.27,.1,.14,.07,.24,.19,.34,.3,.06,.07,.12,.15,.2,.21,.12,.1,.27,.1,.4,0,.03-.03,.02-.05,0-.07-.08-.09-.16-.18-.25-.26-.03-.03-.07-.05-.1-.08Z"/>
      <path class="cls-2" d="M79.32,53.58c.19,.04,.31,.18,.44,.32-.02-.12-.07-.21-.13-.29-.19-.24-.45-.33-.75-.32-.14,0-.28,.04-.42,.06,0,0,0,.01,0,.02,.09,.03,.18,.06,.27,.1,.14,.07,.24,.19,.34,.3,.06,.07,.12,.15,.2,.21,.12,.1,.27,.1,.4,0,.03-.03,.02-.05,0-.07-.08-.09-.16-.18-.25-.26-.03-.03-.07-.05-.1-.08Z"/>
      <path class="cls-2" d="M89.09,55.18c.19,.04,.31,.18,.44,.32-.02-.12-.07-.21-.13-.29-.19-.24-.45-.33-.75-.32-.14,0-.28,.04-.42,.06,0,0,0,.01,0,.02,.09,.03,.18,.06,.27,.1,.14,.07,.24,.19,.34,.3,.06,.07,.12,.15,.2,.21,.12,.1,.27,.1,.4,0,.03-.03,.02-.05,0-.07-.08-.09-.16-.18-.25-.26-.03-.03-.07-.05-.1-.08Z"/>
      <path class="cls-2" d="M66.1,53.02c.19,.04,.31,.18,.44,.32-.02-.12-.07-.21-.13-.29-.19-.24-.45-.33-.75-.32-.14,0-.28,.04-.42,.06,0,0,0,.01,0,.02,.09,.03,.18,.06,.27,.1,.14,.07,.24,.19,.34,.3,.06,.07,.12,.15,.2,.21,.12,.1,.27,.1,.4,0,.03-.03,.02-.05,0-.07-.08-.09-.16-.18-.25-.26-.03-.03-.07-.05-.1-.08Z"/>
      <path class="cls-2" d="M101.37,53.72c-.19,.04-.31,.18-.44,.32,.02-.12,.07-.21,.13-.29,.19-.24,.45-.33,.75-.32,.14,0,.28,.04,.42,.06,0,0,0,.01,0,.02-.09,.03-.18,.06-.27,.1-.14,.07-.24,.19-.34,.3-.06,.07-.12,.15-.2,.21-.12,.1-.27,.1-.4,0-.03-.03-.02-.05,0-.07,.08-.09,.16-.18,.25-.26,.03-.03,.07-.05,.1-.08Z"/>
      <path class="cls-2" d="M96.21,49.14c-.19,.04-.31,.18-.44,.32,.02-.12,.07-.21,.13-.29,.19-.24,.45-.33,.75-.32,.14,0,.28,.04,.42,.06,0,0,0,.01,0,.02-.09,.03-.18,.06-.27,.1-.14,.07-.24,.19-.34,.3-.06,.07-.12,.15-.2,.21-.12,.1-.27,.1-.4,0-.03-.03-.02-.05,0-.07,.08-.09,.16-.18,.25-.26,.03-.03,.07-.05,.1-.08Z"/>
      <path class="cls-2" d="M86.96,35.26c-.26,.2-.35,.5-.45,.81-.05-.2-.05-.38,0-.55,.12-.51,.46-.84,.93-1.03,.22-.09,.46-.14,.69-.21,0,0,0,.02,0,.03-.11,.12-.24,.22-.34,.35-.17,.21-.23,.46-.3,.72-.04,.16-.08,.32-.15,.47-.11,.25-.35,.35-.61,.3-.07-.01-.07-.06-.06-.11,.06-.2,.13-.39,.19-.58,.02-.07,.06-.13,.1-.2Z"/>
      <path class="cls-2" d="M95.24,57.08c.29,.26,.37,.62,.47,1,.08-.23,.09-.44,.05-.65-.1-.62-.48-1.03-1.02-1.3-.25-.13-.53-.21-.8-.31,0,.01,0,.02,0,.03,.13,.15,.26,.29,.37,.44,.18,.26,.24,.57,.3,.88,.04,.19,.07,.39,.14,.57,.11,.3,.38,.45,.7,.41,.09-.01,.09-.07,.08-.12-.06-.24-.12-.47-.18-.71-.02-.08-.07-.16-.1-.24Z"/>
      <path class="cls-2" d="M68.54,24.95c.33,0,.59,.19,.87,.39-.08-.2-.19-.34-.33-.46-.41-.35-.89-.4-1.4-.27-.24,.06-.46,.17-.69,.25,0,0,0,.02,.01,.03,.16,.02,.33,.04,.49,.08,.27,.07,.48,.23,.69,.4,.13,.1,.27,.21,.41,.3,.24,.14,.5,.08,.69-.13,.05-.06,.02-.09-.02-.12-.17-.12-.34-.24-.52-.36-.06-.04-.13-.07-.2-.1Z"/>
    </g>
    <g>
      <path class="cls-4" d="M115.82,87.79c-.4-.21-.77-.38-1.14-.52-.35-.14-.73-.25-1.13-.35-.35-.08-.73-.15-1.17-.21-.11-.01-.22-.03-.33-.04h-.05c-.09-.01-.17-.02-.26-.04-.19-.02-.4-.06-.65-.11-.45-.1-.9-.22-1.3-.33l-.3-.08c-.3-.08-.55-.14-.79-.19-.12-.03-.25-.05-.38-.07h-.03c.16-.03,.29-.05,.41-.06,.09,0,.16,0,.24,0,.2,0,.4,.02,.59,.06,.23,.05,.46,.14,.68,.25,.16,.09,.31,.18,.45,.29,0,0,.02,.01,.03,.01,.02,0,.04-.01,.05-.03,.02-.04,0-.08-.02-.1-.22-.21-.46-.38-.71-.51-.24-.12-.5-.22-.78-.29-.22-.05-.47-.09-.79-.11-.14-.01-.29-.02-.46-.02-.13,0-.25,0-.38,0-.19,0-.38,.02-.57,.03h-.28c-.13,.02-.25,.02-.38,.03h-.06c-.16,0-.33,.01-.49,.02-.46,.02-.93,.07-1.35,.11h-.11c-.2,.03-.4,.05-.6,.07h.03c-.41,.03-.8,.06-1.22,.06h-.06c-.38,0-.75-.04-1.11-.12-.25-.05-.5-.13-.76-.22-.24-.09-.49-.2-.83-.35-.1-.05-.21-.1-.31-.15l-.05-.03c-.15-.08-.32-.16-.49-.24-.26-.12-.55-.23-.91-.36-.38-.13-.79-.26-1.15-.36-.83-.25-1.67-.5-2.45-.91h.01c-.6-.31-1.16-.73-1.68-1.22-.01-.01-.01-.01-.01-.01h-.01s0-.01,0-.01c-.43-.42-.8-.88-1.11-1.37-.27-.45-.49-.92-.65-1.4-.04-.12-.06-.23-.09-.34-.74-3.54-.76-7.45,.64-9.58,1.58-1.01,.91-2.31,2.74-3.24,.25-.12,.46-.28,.69-.42,1.92-1.19,4.05-1.98,6.05-3.03,1.87-.99,3.68-2.09,5.62-2.94,.45-.2,.94-.46,1.45-.75,.78-.44,1.69-1,2.62-.86,1.04,.16,1.91,1.08,2.23,2.04,.35,1.06,.14,2.35-.69,3.14-.27,.26-.6,.46-.96,.58-.71,.25-1.51,.15-2.13-.22-.3-.19-.56-.45-.73-.75-.17-.3-.26-.64-.27-.97-.03-1.16,1.02-2.19,2.2-1.84-.47-.15-1.01-.12-1.46,.18-.25,.17-.46,.4-.61,.7-.14,.29-.22,.62-.22,.97,0,.35,.09,.7,.26,1.02,.79,1.46,2.88,1.54,4.03,.49,.91-.83,1.18-2.22,.83-3.37-.33-1.11-1.28-2.12-2.44-2.34-.72-.13-1.43,.11-2.07,.4-.28,.13-.55,.26-.8,.39,.57-.46,1.14-.96,1.66-1.52,2.7-2.89,3.12-7.37,1-10.69-2.3-3.6-6.93-5.94-11.03-3.9-1.6,.8-2.98,2.19-3.63,3.87-.33,.86-.54,1.77-.51,2.7,.03,1.09,.38,2.14,.94,3,1.12,1.74,3.07,2.71,4.85,2.64,.89-.04,1.72-.34,2.39-.79,.67-.45,1.18-1.05,1.51-1.68,.32-.63,.5-1.3,.5-1.91,0-.62-.16-1.18-.38-1.63-.46-.92-1.15-1.41-1.63-1.64-.24-.12-.44-.19-.57-.23-.14-.04-.2-.06-.2-.06,0,0,.07,.02,.2,.06,.13,.04,.33,.11,.57,.24,.47,.24,1.16,.74,1.59,1.66,.21,.45,.35,1.01,.34,1.61-.01,.6-.2,1.25-.53,1.85-.33,.61-.84,1.17-1.49,1.59-.65,.42-1.45,.68-2.29,.69-2.1,.03-4.2-1.48-4.88-3.45-.58-1.66-.42-3.3,.43-4.85,1.1-2,3.46-3.53,5.78-3.43,6.14,.26,10.2,7.55,6.15,12.47-2.04,2.48-5.12,3.87-7.98,5.19-.79,.37-1.67,.54-1.59,.2,.7-3.33-3.33-6.5-6.13-4.43-1.91,1.41-1.51,4.86,.88,4.96,2.99,.13,2.35-2.85,1.14-3.16,.46,.19,1.47,1.78,.16,2.53-1.45,.83-2.91-.36-2.9-1.94,0-1.24,.87-2.38,2.11-2.52,3.31-.35,5.64,4.13,2.07,6.26-.58,.35-1.23,.54-1.85,.79-.2,.08-.4,.16-.59,.24-4.65,1.79-6.82,3.75-6.82,3.75l2.34-2.29c-.92-1.19-1.83-2.46-2.89-3.54-2.25-2.3-5.51-3.64-5.37-7.39,.03-.81,.28-1.8,.77-2.47,3.6-5,10.42-2.1,8.79,2.92-.19,.57-1.51,2.95-4.58,2.24-2.99-.69-2.08-5.03,.86-5.18-3.97-.12-4.05,5.03-.86,5.89,1.69,.45,3.69-.21,4.68-1.66,1.95-2.88,.76-6.06-1.86-7.33-2.1-1.02-4.92-.37-6.64,.93-1.74,1.31-3.03,3.77-2.59,5.96,.14,.72-3.29-.6-5.5-2.16v-.03s-.03,0-.04,0c-3.44-2.43-6.28-5.06-7.33-8.67-1.36-4.73,.82-8.36,2.58-10.25,3.6-3.86,10.02-5.02,14.11-1.22,2.8,2.61,4.09,7.28,1.69,10.57-1.95,2.66-5.48,4.22-8.63,2.65-2.37-1.18-3.91-4.09-3.09-6.69,.22-.7,.57-1.29,.97-1.75,.81-.93,1.75-1.33,2.38-1.51,.32-.09,.57-.12,.74-.15,.17-.01,.26-.02,.26-.02,0,0-.09,0-.26,.02-.17,.02-.43,.04-.75,.12-.64,.15-1.6,.53-2.47,1.45-.43,.46-.82,1.06-1.07,1.78-.25,.72-.34,1.56-.22,2.44,.11,.88,.43,1.79,.98,2.63,1.98,3.04,6.12,3.6,9.17,1.91,5.36-2.95,5.27-10.38,1.18-14.38-2.08-2.03-4.99-3.13-7.9-2.94-1.41,.09-2.79,.4-4.1,.93,.04-.05,.09-.09,.13-.13,2.93-3.48-2.89-8.36-5.94-5.13-.67,.7-.98,1.69-.88,2.6,.05,.46,.23,.89,.49,1.24,.26,.36,.6,.64,.97,.82,.37,.19,.78,.27,1.17,.27,.39,0,.77-.11,1.08-.3,.46-.27,.74-.69,.86-1.14-.31,.76-1.08,1.38-1.94,1.36-2.48-.05-3.2-3.11-1.6-4.72,2.83-2.86,8.13,1.58,5.4,4.65-.26,.29-.55,.54-.84,.77-.3,.23-.6,.45-.89,.65-3.32,2.32-5.63,5.69-6.05,9.79-.16,1.57,.12,3.58,.3,4.28,.36,1.39,1.03,2.66,1.82,3.74,.7,.95,1.48,1.76,2.26,2.5-.33-.15-.68-.29-1.06-.38-.42-.1-.89-.15-1.35-.07-3.59,.66-4.4,6.5-.7,7.64,.92,.29,1.95,.15,2.72-.33,.39-.25,.7-.59,.91-.98,.21-.39,.31-.82,.32-1.23,0-.41-.09-.82-.26-1.17-.17-.35-.43-.64-.73-.84-.3-.2-.64-.31-.97-.34-.33-.03-.64,.02-.92,.12-.28,.1-.51,.26-.68,.44-.17,.18-.29,.39-.36,.59-.14,.4-.1,.74-.05,.95,.03,.11,.06,.19,.08,.24,.02,.05,.04,.08,.04,.08,0,0-.01-.03-.03-.08-.02-.05-.05-.13-.08-.24-.05-.21-.09-.56,.06-.95,.07-.19,.19-.4,.36-.58,.94-.98,2.68-.54,3.21,.64,.16,.34,.25,.74,.23,1.14-.01,.4-.12,.81-.33,1.18-.21,.37-.51,.69-.88,.91-.75,.45-1.72,.56-2.58,.26-1.82-.63-2.57-2.76-1.99-4.5,.39-1.17,1.43-2.3,2.7-2.48,.39-.06,.77,0,1.14,.1,1.72,.49,3.17,1.61,4.57,2.68,3.53,2.7,7.32,5.34,10.21,8.75,2.07,2.44,2.92,5.65,3.21,8.78,.15,1.62,.26,3.38,.21,5.15-.09,.67-.58,1.66-.8,2.23h.01c-.4,.98-.89,1.88-1.45,2.66-.43,.59-.87,1.07-1.35,1.47-.18,.14-.36,.28-.55,.4-.25,.16-.53,.31-.83,.44-.4,.17-.83,.32-1.28,.43-.4,.1-.84,.18-1.37,.24-.31,.04-.65,.08-1.07,.11l-.48,.04h-.04s-.03,0-.03,0c-.18,.02-.36,.03-.54,.05-.36,.05-.72,.12-1.12,.21-.32,.08-.65,.17-1.09,.3-.32,.1-.64,.2-.95,.31h-.04c-.38,.14-.78,.27-1.17,.38-.39,.11-.76,.21-1.12,.29-.37,.08-.76,.15-1.21,.2-1.06,.13-2.14,.17-3.18,.21h-.02c-.59,.02-1.2,.04-1.79,.08-.94,.06-1.72,.16-2.45,.31-.42,.09-.85,.2-1.27,.33-.19,.06-.37,.13-.57,.2-.16,.06-.3,.1-.43,.13h-.02s-.02,0-.02,0c-.1,.01-.21,.02-.32,.03-.03,0-.05,.03-.05,.06,0,.02,0,.03,.01,.04,0,.01,.02,.02,.04,.02h.02c.12,0,.24-.01,.37-.04,.02,0,.04,0,.06-.01,.49-.07,.98-.17,1.43-.28l.16-.03c.6-.13,1.22-.27,1.83-.35,.31-.04,.58-.06,.85-.06h.06c.26,0,.52,.02,.77,.06,.23,.04,.45,.09,.66,.17l-.04,.03-.04,.03c-.1,.08-.19,.13-.3,.18-.12,.05-.25,.08-.38,.1h.02c-.11,.01-.2,.02-.3,.02-.21,0-.42-.02-.63-.05h-.05c-.22-.03-.48-.06-.72-.06-.05,0-.11,0-.16,0-.04,0-.06,.03-.06,.07,0,.04,.03,.07,.06,.07,.21,.02,.38,.04,.55,.06,.1,.01,.19,.03,.29,.04h.03c.07,.02,.14,.03,.22,.04,.31,.05,.57,.07,.82,.07,.09,0,.17,0,.26,0,.14-.01,.29-.03,.42-.05l.12-.02,.51-.08h.06c.45-.08,.84-.13,1.2-.18,.61-.08,1.16-.13,1.68-.16-.08,.06-.17,.12-.28,.22-.19,.17-.37,.36-.52,.52l-.13,.14-.06,.07c-.1,.11-.2,.22-.31,.33-.18,.19-.37,.37-.56,.53-.14,.12-.29,.23-.44,.34-.14,.11-.3,.23-.45,.35-.14,.12-.28,.24-.4,.37-.13,.14-.26,.3-.37,.48-.02,.03,0,.07,.01,.1,0,.01,.02,.02,.03,.02,0,0,.01,0,.02,0,.01,0,.03,0,.04-.01,.25-.11,.51-.26,.8-.46,.31-.22,.61-.46,.83-.65,.25-.21,.49-.43,.73-.65l.02-.02c.3-.27,.64-.57,.97-.85,.4-.33,.95-.75,1.57-1.03,.29-.12,.58-.21,.85-.25,.11-.01,.22-.02,.32-.02,.14,0,.27,.01,.41,.03,.09,.02,.17,.03,.24,.05-.1,.09-.2,.18-.29,.28-.11,.13-.21,.27-.31,.43-.08,.14-.16,.3-.22,.47-.06,.14-.11,.31-.15,.5-.08,.32-.12,.68-.14,1.1v.14c0,.06,0,.12,0,.17,0,.11-.01,.23-.02,.34-.02,.19-.04,.4-.07,.62-.03,.18-.07,.38-.12,.57-.13,.52-.31,1.06-.58,1.71,0,.02,0,.05,.02,.07,0,0,.02,.01,.03,.01,.02,0,.03-.01,.04-.02,.21-.24,.41-.49,.6-.76,.1-.15,.2-.3,.29-.46,.1-.17,.17-.32,.23-.47,.06-.15,.1-.3,.12-.45,0-.03,0-.07,0-.1v-.02s0-.09,0-.14c0-.09,0-.18,.01-.26,0,.04,.02,.07,.03,.1,.05,.15,.12,.29,.19,.42,.07,.12,.15,.25,.25,.38,.14,.18,.32,.35,.53,.5,.19,.14,.41,.27,.67,.38,.13,.06,.27,.11,.41,.14,.12,.03,.26,.06,.44,.09,.14,.02,.28,.04,.43,.05h.04s.04,0,.04,0c.14,.01,.28,.03,.41,.05h-.01c.29,.04,.52,.1,.72,.19,.08,.03,.15,.08,.23,.13,.06,.04,.12,.09,.18,.13l.03,.02c.15,.11,.27,.21,.38,.3,.31,.26,.54,.5,.73,.76,.12,.17,.23,.36,.3,.56,.06,.18,.11,.36,.14,.56,.03,.27,.03,.56-.01,.9v.03s0,.03,0,.03c0,.02,0,.04,.02,.05,0,0,.01,0,.02,0,.01,0,.03,0,.04-.02,.09-.15,.16-.3,.2-.46,.04-.15,.06-.31,.07-.48,0-.3-.07-.62-.21-.95-.12-.29-.3-.58-.54-.86-.19-.23-.42-.44-.66-.62,.13,.04,.26,.09,.39,.14,.23,.11,.45,.25,.66,.42h.01c.25,.22,.47,.46,.65,.71,.14,.21,.26,.42,.35,.65,.09,.24,.15,.5,.19,.77v.02c.07,.6,0,1.2-.06,1.77v-.02c-.02,.14-.03,.28-.05,.42-.04,.29-.08,.58-.1,.87-.04,.48-.04,.89,0,1.27,0,0,0,.01,0,.02,0,.03,.03,.05,.06,.05,.02,0,.03,0,.05-.02,.01-.01,.02-.03,.02-.04-.02-.24-.01-.5,.02-.76v-.02h0c.03-.21,.07-.43,.13-.64,.03-.1,.06-.2,.1-.3,.04-.1,.07-.21,.11-.31l.03-.09c.12-.33,.24-.67,.33-1.02,.04-.17,.08-.36,.1-.56,.02-.19,.03-.39,.02-.6-.01-.2-.04-.42-.09-.66-.04-.19-.09-.39-.16-.57-.06-.17-.14-.34-.24-.51-.05-.08-.1-.17-.17-.26-.06-.09-.13-.17-.19-.25-.12-.14-.27-.26-.41-.38-.13-.11-.25-.21-.36-.33,.04,0,.09,.01,.14,.02h.03s.04,0,.04,0c.09,.01,.19,.02,.29,.03,.03,0,.05-.01,.05-.04,0-.03,0-.05-.01-.07-.04-.04-.09-.08-.13-.12l-.04-.03s-.05-.04-.07-.06l-.02-.02s-.05-.04-.08-.07c-.05-.04-.1-.08-.17-.12-.11-.07-.24-.14-.39-.2-.31-.13-.63-.2-.91-.26-.22-.04-.44-.08-.69-.12l-.24-.04c-.14-.02-.27-.05-.41-.08-.14-.03-.27-.07-.38-.12-.12-.06-.22-.12-.31-.2-.08-.07-.15-.15-.22-.23-.07-.1-.13-.21-.18-.33-.05-.13-.08-.26-.1-.4-.02-.17-.02-.36,0-.54,.03-.2,.08-.4,.15-.58,.07-.19,.17-.37,.28-.53,.02-.02,.04-.05,.05-.07,.02,.05,.04,.1,.08,.14,.05,.07,.11,.13,.19,.17,.07,.04,.15,.07,.25,.09,.08,.02,.18,.03,.28,.03h.02c.2,0,.4-.03,.61-.06,.11-.02,.21-.03,.32-.05,.11-.02,.21-.03,.32-.05,.15-.02,.29-.04,.44-.04,.06,0,.12,0,.17,0,.06,0,.1,.02,.14,.03,0,0,.01,0,.02,0,.02,0,.05-.02,.06-.04,0-.02,.01-.04,0-.06,0-.02-.02-.03-.03-.05-.15-.12-.33-.21-.56-.28-.21-.06-.42-.09-.63-.11-.07,0-.15-.01-.22-.02-.03,0-.05,0-.08,0h-.14s-.09,0-.09,0c-.07,0-.16,0-.25-.01-.03,0-.06-.01-.09-.02h0c.03-.06,.07-.1,.13-.15,.03-.02,.06-.04,.1-.06,.14-.06,.28-.08,.41-.1,.21-.03,.43-.04,.63-.05,.05,0,.1,0,.16,0,.17,0,.34,.01,.5,.03,.25,.04,.46,.1,.65,.18,.14,.06,.27,.14,.38,.23,.08,.07,.15,.15,.21,.23,.05,.07,.09,.15,.12,.24,.03,.1,.06,.2,.07,.32,.04,.36,0,.73-.03,1.08,0,.08-.02,.16-.02,.24-.02,.19-.03,.42-.02,.66,0,.21,.03,.43,.07,.7,.06,.43,.17,.88,.32,1.35,.14,.43,.3,.81,.47,1.16,.16,.31,.35,.62,.58,.92,.2,.26,.42,.52,.69,.78,.24,.23,.49,.46,.81,.71,.2,.16,.41,.32,.61,.47,.09,.06,.17,.13,.26,.19,.24,.18,.45,.34,.63,.5,.48,.4,.84,.77,1.12,1.17,.19,.27,.35,.57,.46,.87,.07,.2,.11,.36,.14,.51,.01,.12,.01,.24,0,.36-.03,.2-.09,.39-.17,.6-.04,.11-.08,.22-.11,.33-.01,.03-.02,.07-.03,.11,0,.02-.01,.04-.02,.06-.02,.07-.04,.16-.05,.25,0,0,0,.02,0,.03,0,0,.02,.01,.03,.01,.01,0,.03,0,.04-.03v-.02s0-.02,0-.02l.04-.11,.02-.05c.06-.16,.14-.33,.23-.5,.06-.12,.14-.25,.23-.4,0,.06,0,.11,.01,.17v.06c.02,.17,.03,.35,.07,.53,.02,.13,.06,.26,.11,.38,.05,.13,.13,.25,.24,.38,0,0,.02,.01,.03,.01,0,0,.01,0,.02,0,.02-.01,.03-.04,.02-.06-.02-.05-.05-.1-.07-.15-.06-.16-.1-.33-.12-.53-.03-.25-.03-.51-.03-.77,0-.16,0-.31,0-.46-.01-.37-.08-.75-.21-1.18-.11-.36-.26-.72-.46-1.07-.18-.32-.4-.64-.67-.95-.19-.23-.42-.46-.72-.73-.19-.18-.39-.35-.59-.52l-.04-.03-.09-.08c-.49-.42-.93-.81-1.31-1.24,.21,.2,.45,.39,.72,.59,.24,.17,.5,.34,.8,.51,.29,.17,.57,.32,.82,.44,.29,.15,.57,.28,.79,.39l.13,.06h.02c.2,.1,.41,.2,.61,.31,.24,.13,.47,.27,.69,.41,.43,.3,.79,.61,1.08,.95,.2,.24,.37,.49,.5,.75,.1,.21,.17,.43,.22,.65,.04,.2,.06,.41,.05,.62,0,.18-.03,.36-.08,.54,0,.01,0,.03,.01,.04,0,0,0,.01,.02,.01,0,0,.01,0,.02,0,.01,0,.03,0,.03-.02,.08-.17,.15-.36,.2-.54,.05-.17,.08-.36,.1-.56,.02-.18,.01-.36,0-.54-.02-.17-.05-.35-.09-.53-.04-.16-.1-.33-.17-.51-.07-.16-.15-.32-.25-.49-.18-.3-.4-.59-.67-.87-.18-.19-.38-.36-.6-.52-.1-.08-.21-.15-.33-.22-.1-.06-.21-.12-.34-.19-.5-.25-.98-.5-1.45-.82-.43-.3-.78-.6-1.06-.93v-.02s-.03-.02-.03-.02c.19,.11,.39,.21,.58,.31l.04,.02c.21,.11,.42,.22,.63,.33,.41,.23,.74,.43,1.03,.66,0,0,.02,.01,.03,.01,.01,0,.03,0,.04-.01,.02-.02,.02-.06,0-.08-.25-.37-.57-.68-.85-.94-.22-.2-.45-.39-.74-.61-.17-.13-.35-.26-.53-.39l-.04-.03c-.3-.21-.6-.43-.88-.66-.15-.13-.28-.24-.39-.35-.24-.24-.45-.49-.61-.76-.13-.22-.23-.46-.31-.7h0s0-.01,0-.01v-.02c-.09-.3-.15-.63-.17-.96-.02-.36,0-.72,.06-1.07,.06-.33,.17-.65,.3-.94,.12-.26,.28-.5,.45-.72,.16-.2,.35-.37,.54-.51h0s0-.01,0-.01c.2-.14,.42-.25,.64-.33,.24-.09,.49-.14,.74-.16,.08,0,.15,0,.23,0,.26,0,.53,.03,.8,.09,.39,.09,.77,.23,1.14,.43,.37,.2,.69,.44,.97,.71,.22,.22,.41,.46,.57,.72,.13,.22,.24,.46,.32,.71,.03,.1,.05,.2,.07,.3,0,.03,.03,.06,.06,.06,.03,0,.05-.02,.06-.05,0,0,.01-.01,.01-.02,.01-.06,.03-.13,.05-.19,.09-.31,.22-.63,.39-.93,.19-.33,.43-.65,.71-.95,.29-.29,.61-.55,.96-.76h.01c.34-.21,.69-.36,1.03-.46,.33-.09,.66-.14,.99-.14h.04c.3,0,.58,.05,.84,.13,.24,.08,.47,.19,.69,.33,.22,.15,.43,.33,.62,.55,.08,.09,.15,.18,.22,.28,.06,.09,.12,.2,.19,.32,.17,.34,.31,.72,.4,1.12,.08,.35,.12,.7,.12,1.02v.02c0,.23-.04,.44-.09,.63-.04,.16-.1,.3-.18,.43l.02-.02c-.07,.11-.14,.21-.22,.29-.08,.08-.18,.16-.28,.22-.21,.12-.45,.2-.68,.28h-.04c-.12,.05-.26,.1-.39,.16-.13,.05-.25,.12-.37,.2-.23,.16-.42,.39-.57,.6l-.07,.1-.04,.05c-.12,.17-.24,.34-.39,.49-.05,.05-.11,.1-.17,.16-.06,.05-.13,.1-.21,.14-.14,.09-.3,.16-.45,.21-.02,0-.04,.03-.03,.06,0,.03,.03,.05,.05,.05,.41-.08,.76-.33,1.04-.56,.08-.07,.16-.14,.25-.21l.03-.02c.22-.19,.44-.38,.69-.53,.15-.09,.3-.15,.44-.19h-.02c.13-.03,.25-.04,.37-.04,.1,0,.19,.02,.27,.04v.03c-.04,.15-.08,.29-.14,.42-.09,.18-.2,.37-.35,.55-.18,.23-.4,.44-.67,.68-.26,.22-.53,.42-.76,.58-.07,.05-.15,.11-.23,.17l-.05,.03c-.14,.1-.27,.19-.41,.29-.32,.24-.6,.46-.86,.68-.31,.26-.57,.52-.8,.78-.26,.3-.47,.61-.63,.93-.19,.36-.32,.75-.4,1.15-.04,.22-.07,.44-.07,.66,0,.21,0,.43,.04,.65v.02s.03,.05,.06,.05c.04,0,.06-.04,.06-.07,0-.02,0-.03,0-.04v-.02s0,0,0,0h0c0-.24,0-.48,.05-.71,0,0,0,0,0,0,0,0,0,0,0,0,.05-.21,.11-.43,.2-.63v-.02c.12-.25,.28-.5,.47-.74h0c.41-.51,.9-.89,1.37-1.23,.13-.09,.26-.18,.38-.27,.1-.07,.2-.14,.3-.21-.09,.2-.16,.41-.22,.61-.07,.25-.12,.51-.15,.78-.02,.25-.02,.51,0,.79,.01,.13,.03,.26,.06,.4,.01,.07,.03,.15,.04,.22,.02,.1,.03,.17,.04,.25,.02,.14,.02,.29,.01,.46,0,.15-.02,.3-.04,.45v.02c-.02,.16-.04,.32-.04,.47,0,.16,0,.32,.02,.47,0,.02,.02,.04,.04,.04s.04-.01,.04-.04c.03-.14,.06-.29,.09-.43,.03-.13,.07-.25,.1-.38h0c.07-.28,.15-.54,.18-.82,.02-.14,.03-.28,.03-.41,0-.09,0-.19,0-.28v-.04s0-.07,0-.11c0-.26,0-.51,.03-.74,.02-.14,.04-.27,.07-.39,.03-.12,.07-.25,.12-.37,.05-.12,.09-.21,.14-.31,.05-.09,.11-.18,.19-.3,.18-.26,.41-.5,.7-.74,.08-.07,.17-.13,.25-.18l.05,.04c.07,.06,.12,.12,.17,.19,.04,.06,.08,.13,.11,.2,.03,.08,.05,.17,.07,.26,.02,.15,.01,.31,0,.5-.03,.27-.1,.53-.15,.77v.05c-.04,.1-.06,.21-.08,.31-.05,.22-.07,.39-.08,.55-.01,.19,0,.37,.04,.52,0,.03,.03,.04,.05,.04,.03,0,.05-.03,.05-.06,0-.12,0-.25,.03-.4h0c.04-.26,.1-.53,.19-.85,.05-.17,.1-.34,.16-.51v-.02c.04-.11,.07-.21,.11-.31,.04-.14,.08-.28,.11-.41,.03-.13,.05-.27,.07-.43,.04-.3,.03-.61-.02-.91,.28-.12,.54-.27,.78-.46,.24-.19,.46-.41,.67-.67,.38-.47,.7-1.03,.98-1.73,.28-.7,.48-1.46,.59-2.25,.03-.03,.05-.05,.08-.07,.03-.02,.05-.03,.08-.04,.03,0,.07-.01,.1-.01,.05,0,.09,0,.14,.02,.06,.02,.12,.04,.18,.08,.08,.05,.17,.12,.24,.19,.1,.1,.19,.23,.27,.36,0,0,0,.01,.01,.01,.11,.21,.2,.44,.27,.68,.03,.11,.05,.22,.07,.33,.02,.11,.03,.24,.03,.37,0,.33-.03,.67-.12,1.05-.11,.47-.28,.94-.51,1.41-.08,.16-.16,.3-.24,.43-.1,.17-.19,.29-.27,.39-.06,.08-.14,.15-.21,.21-.08,.07-.17,.13-.25,.19-.09,.06-.18,.12-.27,.18l-.04,.02c-.12,.07-.24,.15-.36,.23-.12,.08-.22,.17-.31,.25-.1,.09-.19,.2-.27,.32-.02,.02-.02,.06,0,.08,0,.01,.02,.02,.04,.02,.02,0,.03,0,.05-.02l.03-.02c.13-.09,.28-.18,.46-.24,.05-.02,.11-.03,.17-.04-.3,.39-.48,.9-.51,1.43-.02,.29,.01,.58,.09,.85,.08,.28,.2,.54,.37,.77,.01,.02,.03,.02,.05,.02,0,0,.02,0,.03,0,.02-.01,.04-.04,.04-.07-.05-.2-.08-.36-.11-.51-.03-.16-.04-.3-.05-.43,0-.13,0-.25,.03-.36,.02-.11,.06-.21,.11-.31,.07-.13,.15-.25,.26-.38,.11-.12,.23-.24,.4-.39,.14-.13,.3-.25,.43-.36,.13-.11,.27-.21,.4-.32,.16-.13,.32-.25,.48-.38,.5-.41,1.12-.97,1.5-1.72,.05-.1,.09-.2,.13-.29,.03-.08,.05-.16,.07-.25,.13,.15,.28,.3,.45,.43,.19,.14,.41,.27,.65,.38,.11,.05,.22,.09,.34,.13,.13,.04,.27,.07,.43,.09,.14,.01,.28,.02,.45,.02,.09,0,.17,0,.26,0h.05s.12,0,.12,0c.05,0,.11,0,.16,0,.12,0,.22,0,.32,0,.17,.01,.33,.04,.49,.08,.27,.07,.54,.19,.79,.34,.24,.15,.47,.33,.66,.54,.05,.05,.09,.1,.14,.16,.05,.06,.08,.11,.11,.16,.03,.05,.05,.1,.07,.16v.02s.03,.06,.04,.09c.02,.04,.04,.08,.06,.12,.02,.04,.04,.06,.07,.08,.02,.02,.03,.03,.05,.03,0,0,.02,0,.02,0,.02,0,.03-.02,.03-.04,0-.02,0-.03,0-.05,0,0,0-.02,0-.02,0-.02-.01-.03-.02-.05v-.03s-.04-.08-.06-.13c-.03-.08-.07-.16-.1-.24-.07-.14-.15-.29-.25-.45-.18-.28-.4-.53-.66-.74-.26-.22-.55-.39-.87-.52-.27-.11-.56-.18-.84-.25-.08-.02-.16-.04-.23-.06h-.02c-.33-.09-.67-.2-.98-.39-.16-.1-.32-.23-.46-.37-.18-.2-.35-.43-.5-.71-.21-.4-.38-.84-.53-1.24-.08-.21-.16-.42-.24-.62-.07-.16-.13-.31-.2-.45-.08-.17-.17-.34-.29-.54-.21-.37-.45-.72-.69-1.06-.18-.25-.39-.49-.61-.74-.11-.12-.22-.24-.34-.35-.12-.12-.24-.23-.38-.36-.15-.14-.31-.27-.46-.41l-.03-.03c-.08-.07-.17-.14-.25-.22-.12-.11-.25-.22-.37-.33-.05-.05-.11-.1-.16-.15l.05-.02s.05-.02,.07-.03c.15-.06,.3-.09,.45-.1,.04,0,.07,0,.11,0,.1,0,.19,0,.29,.03h-.01c.14,.03,.28,.08,.42,.15,.19,.11,.38,.24,.58,.43,.28,.27,.54,.58,.78,.89,.07,.09,.14,.17,.21,.26,.14,.17,.31,.37,.5,.56,.19,.19,.37,.34,.54,.45,.13,.08,.26,.15,.38,.19,0,0,.01,0,.02,0,.02,0,.03,0,.04-.02,0-.01,.01-.03,0-.05,0-.01-.01-.02-.02-.03-.16-.1-.32-.22-.46-.35-.15-.14-.28-.3-.38-.46-.02-.03-.05-.08-.07-.13l.1,.03c.06,.02,.12,.03,.18,.05,.12,.04,.25,.08,.39,.13,.26,.09,.51,.2,.73,.32,.19,.1,.35,.2,.51,.31,.16,.11,.32,.25,.47,.4,.26,.25,.48,.53,.67,.81,.11,.18,.22,.39,.31,.62,.09,.22,.17,.45,.24,.66,.04,.14,.09,.28,.13,.42h0c.11,.38,.23,.76,.38,1.12,.11,.27,.23,.5,.37,.71,.15,.23,.34,.43,.56,.57,.01,0,.03,.01,.05,.01,.03,0,.05-.01,.07-.04,.01-.02,.02-.04,.01-.07,0-.02-.02-.04-.03-.06-.12-.12-.22-.25-.32-.4-.11-.18-.2-.39-.28-.63-.17-.54-.22-1.11-.27-1.67v-.04s0-.07,0-.07c-.05-.55-.1-1.13-.27-1.66-.05-.15-.1-.29-.16-.43-.06-.13-.14-.27-.22-.39-.08-.12-.18-.24-.29-.35-.03-.03-.06-.06-.09-.08,.14,.06,.26,.12,.37,.18h0c.18,.09,.35,.2,.54,.31h.01c.28,.18,.58,.36,.89,.49,.26,.11,.52,.17,.78,.19,.03,0,.07,0,.1,0,.25,0,.53-.05,.81-.16,.02,0,.04-.03,.04-.05,0-.01,0-.03-.01-.04,0,0-.02-.02-.03-.02-.18,0-.35-.03-.52-.06-.28-.06-.56-.17-.86-.32-.24-.13-.47-.28-.69-.42l-.06-.04c-.06-.04-.13-.08-.19-.12-.23-.15-.44-.27-.65-.37h.05c.09,0,.2,0,.33-.01,.25-.02,.51-.06,.81-.12,.14-.03,.29-.06,.43-.09h.02c.39-.09,.79-.17,1.19-.21,.11,0,.23-.01,.36-.01,.09,0,.19,0,.28,0,.19,0,.38,.03,.64,.07,.32,.05,.65,.12,.94,.18l.1,.02c.08,.02,.16,.03,.24,.05,.35,.07,.81,.15,1.29,.18,.08,0,.15,0,.23,0,.31,0,.62-.03,.9-.05,.08,0,.15-.01,.23-.02,.25-.02,.46-.03,.64-.03h.09c.23,0,.47,.03,.75,.09,.34,.07,.69,.18,1.1,.34,.31,.12,.63,.26,.91,.39l.2,.09s.01,0,.02,0c.03,0,.05-.02,.06-.05,.01-.04-.01-.08-.04-.09Z"/>
      <path class="cls-4" d="M111.28,60.45s.02,.05,.03,.07c-.01-.02-.02-.05-.03-.07Z"/>
      <path class="cls-4" d="M70.07,25.83c-.29-.3-.61-.41-.83-.46-.07-.02-.14-.03-.21-.03,1.15,.24,1.64,1.36,1.38,2.33,.24-.6,.2-1.29-.33-1.83Z"/>
      <path class="cls-4" d="M111.35,60.58s-.02-.04-.03-.06c.01,.03,.02,.06,.04,.09,0-.01,0-.02,0-.03Z"/>
      <path class="cls-4" d="M111.28,60.45c-.06-.12-.13-.24-.24-.35-.14-.15-.33-.27-.56-.35-.03-.01-.06,0-.09-.02,.38,.13,.7,.38,.88,.72Z"/>
      <path class="cls-4" d="M111.42,61.01c0,.13,0,.27-.04,.4,.03-.14,.04-.27,.04-.4Z"/>
      <path class="cls-4" d="M111.42,60.99s0,.02,0,.03c0-.01,0-.02,0-.03Z"/>
      <path class="cls-4" d="M111.35,60.62c.04,.12,.07,.24,.07,.37,0-.13-.03-.25-.07-.37Z"/>
    </g>
  </g>
  <g>
    <g>
      <path class="cls-2" d="M63.23,8.76c.05-.2,.17-.41,.35-.62,.3-.32,.62-.55,.97-.68,.35-.14,.76-.14,1.21,0,.39,.13,.71,.37,.95,.71,.24,.34,.38,.74,.4,1.19,.04,.53-.06,1.03-.28,1.51-.24,.57-.51,1.11-.82,1.63s-.64,1.04-.98,1.56c-.86,1.27-1.73,2.53-2.6,3.79-.87,1.27-1.78,2.47-2.74,3.62-.06,.09-.14,.18-.24,.26-.1,.08-.2,.14-.31,.2-.22,.13-.42,.15-.59,.07-.17-.08-.27-.24-.32-.48-.04-.26-.05-.53-.05-.8,.01-.37,.04-.75,.07-1.16,.04-.41,.07-.82,.12-1.22,.04-.41,.08-.81,.11-1.21,.03-.4,.05-.79,.06-1.17,.01-.46,.02-.96,.03-1.49s0-1.05-.02-1.54c-.02-.5-.05-.95-.1-1.36s-.11-.72-.19-.95c-.07-.27-.17-.44-.28-.5-.12-.06-.3-.04-.55,.07-.48,.22-.89,.54-1.22,.93-.33,.4-.56,.83-.69,1.29-.13,.47-.15,.93-.06,1.4,.09,.47,.32,.88,.68,1.25-.09,.07-.17,.1-.23,.08-.06-.02-.12-.04-.18-.06-.45-.47-.69-1.02-.72-1.64-.03-.62,.08-1.23,.33-1.82,.25-.59,.6-1.12,1.06-1.59,.46-.47,.97-.78,1.53-.93,.44-.13,.83-.12,1.19,.04,.35,.15,.65,.4,.89,.74,.25,.33,.44,.73,.58,1.2,.14,.47,.23,.98,.28,1.52,.05,.55,.07,1.13,.04,1.73-.02,.6-.06,1.2-.12,1.79-.05,.59-.12,1.16-.2,1.72-.08,.56-.15,1.06-.21,1.51,.86-1,1.63-2.04,2.31-3.09,.67-1.06,1.26-2.11,1.77-3.15,.18-.31,.34-.66,.48-1.06,.14-.4,.25-.8,.31-1.21,.06-.41,.09-.79,.09-1.16,0-.37-.07-.67-.19-.92-.12-.25-.29-.41-.52-.49-.23-.08-.54-.03-.91,.15-.07,.06-.14,.12-.19,.2-.04,.04-.07,.07-.1,.11-.03,.04-.06,.07-.1,.09-.01-.01-.02-.02-.04-.03-.01,0-.02-.01-.04-.03Z"/>
      <path class="cls-2" d="M68.78,19.82c.22-.02,.5-.16,.83-.41,.33-.25,.68-.55,1.04-.91s.72-.74,1.07-1.14c.35-.4,.67-.77,.96-1.12,.02-.02,.06-.04,.12-.04,.05,0,.09,0,.12,.03,.02,.02,.04,.06,.05,.11,.01,.05,0,.09-.02,.12-.18,.32-.44,.7-.78,1.14-.34,.44-.71,.87-1.11,1.3-.4,.43-.8,.83-1.21,1.19-.41,.36-.77,.62-1.07,.79-.32,.18-.64,.24-.95,.18-.31-.06-.58-.22-.79-.5-.15-.17-.27-.35-.35-.56-.08-.21-.14-.42-.18-.65-.07-.6-.04-1.19,.11-1.77,.08-.33,.17-.66,.26-.98,.09-.32,.19-.65,.31-.97,.27-.72,.7-1.33,1.28-1.83,.12-.09,.24-.18,.35-.25,.12-.07,.24-.13,.37-.18,.31-.11,.57-.08,.8,.09,.22,.17,.32,.41,.3,.73-.01,.18-.04,.35-.07,.53s-.08,.35-.14,.51c-.19,.66-.38,1.32-.58,1.96-.2,.64-.39,1.29-.59,1.94-.04,.12-.07,.23-.11,.35-.04,.11-.04,.23-.02,.35Z"/>
      <path class="cls-2" d="M78.32,16.22c.05,.18,.05,.32,0,.43-.04,.11-.09,.22-.15,.31-.13,.25-.31,.56-.53,.92-.22,.37-.47,.74-.73,1.11-.26,.37-.53,.72-.8,1.05-.27,.33-.52,.56-.74,.7-.43,.31-.87,.4-1.33,.29-.46-.11-.82-.4-1.08-.88-.08-.15-.15-.31-.19-.46-.05-.15-.08-.31-.11-.48-.09-.52-.14-1.03-.15-1.54,0-.51,.03-1.02,.12-1.53,.05-.21,.09-.42,.13-.63,.04-.21,.08-.42,.11-.63,.15-.76,.4-1.46,.73-2.12,.33-.66,.74-1.29,1.22-1.89,.24-.31,.51-.57,.82-.78,.31-.21,.63-.4,.97-.57,.2-.08,.4-.11,.59-.09,.22,.02,.39,.11,.49,.27,.1,.15,.12,.33,.06,.53-.02,.12-.06,.23-.11,.35-.05,.11-.09,.22-.14,.31-.13,.25-.27,.49-.42,.73-.15,.24-.29,.47-.42,.71-.59,1.05-1.05,2.14-1.39,3.27-.34,1.13-.54,2.3-.59,3.52-.01,.07-.01,.14,0,.22,0,.08,0,.16,0,.24,.01,.3,.16,.4,.44,.32,.3-.11,.59-.32,.9-.64,.3-.32,.59-.67,.87-1.06,.28-.38,.54-.76,.79-1.13,.25-.37,.46-.66,.64-.87Z"/>
      <path class="cls-2" d="M83.84,16.22c.05,.18,.05,.32,0,.43-.04,.11-.09,.22-.15,.31-.13,.25-.31,.56-.53,.92-.22,.37-.47,.74-.73,1.11-.26,.37-.53,.72-.8,1.05-.27,.33-.52,.56-.74,.7-.43,.31-.87,.4-1.33,.29-.46-.11-.82-.4-1.08-.88-.08-.15-.15-.31-.19-.46-.05-.15-.08-.31-.11-.48-.09-.52-.14-1.03-.15-1.54,0-.51,.03-1.02,.12-1.53,.05-.21,.09-.42,.13-.63,.04-.21,.08-.42,.11-.63,.15-.76,.4-1.46,.73-2.12,.33-.66,.74-1.29,1.22-1.89,.24-.31,.51-.57,.82-.78,.31-.21,.63-.4,.97-.57,.2-.08,.4-.11,.59-.09,.22,.02,.39,.11,.49,.27,.1,.15,.12,.33,.06,.53-.02,.12-.06,.23-.11,.35-.05,.11-.09,.22-.14,.31-.13,.25-.27,.49-.42,.73-.15,.24-.29,.47-.42,.71-.59,1.05-1.05,2.14-1.39,3.27-.34,1.13-.54,2.3-.59,3.52-.01,.07-.01,.14,0,.22,0,.08,0,.16,0,.24,.01,.3,.16,.4,.44,.32,.3-.11,.59-.32,.9-.64,.3-.32,.59-.67,.87-1.06,.28-.38,.54-.76,.79-1.13,.25-.37,.46-.66,.64-.87Z"/>
      <path class="cls-2" d="M89.8,13.9c.15-.04,.3-.08,.44-.12,.14-.05,.29-.09,.44-.14,.06-.02,.13-.04,.21-.04h.23c.19,.01,.33,.12,.43,.32,.09,.24,.15,.46,.16,.67,.01,.21-.04,.43-.14,.66-.18,.35-.36,.72-.54,1.08-.18,.37-.36,.74-.52,1.12-.13,.27-.25,.55-.36,.82-.11,.28-.22,.56-.31,.86-.04,.08-.06,.17-.07,.27-.01,.09-.02,.19-.02,.28,.01,.15,.07,.27,.16,.34s.21,.09,.35,.07c.24-.07,.51-.26,.81-.57,.3-.31,.6-.65,.9-1.04,.3-.38,.57-.76,.82-1.13,.25-.37,.44-.64,.57-.82,.12-.15,.21-.21,.28-.18,.07,.04,.08,.14,.02,.3-.14,.31-.36,.69-.66,1.15s-.62,.92-.97,1.37c-.35,.45-.72,.85-1.09,1.21-.37,.35-.72,.57-1.04,.64-.58,.15-1.06-.03-1.45-.55-.11-.13-.19-.27-.26-.42-.07-.15-.13-.3-.2-.47-.05-.07-.09-.2-.12-.37-.04,.04-.07,.07-.1,.11-.03,.04-.05,.07-.06,.09-.2,.2-.4,.4-.59,.59-.19,.2-.38,.39-.58,.59-.09,.09-.2,.18-.31,.27-.11,.08-.23,.15-.36,.21-.41,.21-.8,.14-1.17-.23-.34-.28-.59-.66-.73-1.12-.41-1.19-.34-2.32,.23-3.39,.3-.65,.69-1.2,1.17-1.65,.48-.45,1.05-.83,1.68-1.13,.41-.2,.85-.29,1.31-.27s.95,.22,1.45,.61Zm-1.08,1.22c-.06-.01-.11-.02-.16-.02-.05,.01-.09,.02-.13,.03-.04,0-.09,.02-.13,.04-.46,.22-.9,.54-1.31,.93-.41,.4-.76,.84-1.05,1.32-.28,.48-.48,.99-.58,1.52-.1,.53-.06,1.04,.13,1.53,.51-.33,.92-.69,1.24-1.06,.32-.38,.65-.8,.99-1.26,.02-.02,.04-.08,.06-.17,.02-.09,.04-.19,.05-.29,.02-.11,.04-.21,.05-.3,.02-.09,.03-.16,.03-.2,.07-.38,.17-.74,.3-1.08,.13-.34,.3-.67,.5-.99Z"/>
      <path class="cls-2" d="M100.93,15.85c.37-.4,.8-.8,1.29-1.21,.5-.4,1.03-.7,1.6-.9,.22-.07,.43-.09,.62-.04,.19,.04,.35,.12,.49,.23,.14,.11,.24,.25,.3,.41,.07,.16,.1,.32,.1,.49-.01,.34-.08,.69-.21,1.03-.11,.26-.23,.51-.37,.76s-.27,.51-.39,.78c-.13,.3-.25,.59-.35,.88-.11,.29-.21,.59-.32,.9-.04,.09-.06,.2-.06,.3,0,.11-.01,.21-.03,.3,0,.19,.08,.25,.25,.2,.37-.15,.72-.37,1.06-.65,.34-.28,.66-.59,.96-.92s.59-.69,.85-1.05c.27-.36,.51-.69,.72-1,.11,.09,.15,.18,.14,.25-.01,.07-.05,.14-.11,.2-.18,.41-.43,.86-.74,1.33-.32,.47-.68,.92-1.09,1.33-.41,.41-.84,.77-1.29,1.08-.46,.31-.9,.5-1.32,.59-.06,.01-.11,.02-.15,.03-.04,0-.08,0-.12,0-.38,.04-.67-.02-.87-.17-.2-.15-.32-.41-.35-.79-.04-.4,0-.84,.08-1.3,.09-.47,.21-.93,.37-1.39,.16-.46,.35-.9,.56-1.3,.21-.41,.43-.77,.64-1.07,.01,0,.05-.05,.11-.16-.25,.05-.51,.17-.78,.35-.27,.19-.54,.42-.8,.7-.26,.28-.51,.58-.76,.9-.25,.33-.47,.65-.67,.97-.2,.32-.38,.62-.52,.9-.15,.28-.26,.51-.33,.69-.06,.12-.12,.24-.19,.36-.07,.12-.13,.25-.19,.36-.06,.08-.12,.16-.17,.24-.05,.08-.1,.15-.15,.22-.22,.21-.47,.29-.74,.23-.27-.06-.46-.22-.57-.5-.07-.25-.1-.48-.09-.71,.01-.35,.06-.69,.13-1.02,.08-.32,.16-.64,.26-.95,.08-.21,.17-.45,.25-.73,.08-.27,.17-.54,.27-.8,.09-.26,.2-.51,.3-.74,.11-.24,.21-.43,.32-.57-.5,.4-.92,.8-1.27,1.18-.35,.38-.66,.78-.93,1.18-.27,.4-.52,.82-.75,1.25-.23,.43-.47,.9-.72,1.41-.04,.09-.07,.2-.11,.31-.04,.11-.08,.22-.14,.31-.06,.15-.14,.27-.25,.35-.11,.08-.25,.11-.43,.09-.33-.04-.54-.22-.64-.57-.07-.4-.09-.86-.04-1.37,.04-.51,.12-1.02,.24-1.53,.12-.51,.26-1.01,.43-1.48,.17-.47,.35-.88,.54-1.22,.15-.3,.32-.58,.5-.84s.38-.47,.62-.61c.27-.17,.53-.19,.78-.08,.25,.11,.4,.33,.44,.65,.02,.13,.04,.26,.04,.39s-.01,.26-.04,.39c-.04,.17-.08,.32-.12,.46-.05,.14-.09,.29-.12,.44-.01,.06-.03,.12-.04,.19-.02,.07-.02,.14,0,.22,.4-.57,.81-1.03,1.23-1.4,.42-.37,.9-.7,1.43-1.01,.19-.09,.37-.14,.54-.12,.17,.01,.32,.06,.45,.14,.13,.08,.24,.19,.32,.32,.08,.13,.14,.27,.16,.41,.02,.15,.04,.31,.04,.46,0,.15,0,.3,0,.44,0,.09,0,.19-.03,.27-.02,.09-.03,.2-.04,.33Z"/>
      <path class="cls-2" d="M109.57,19.82c.22-.02,.5-.16,.83-.41,.33-.25,.68-.55,1.04-.91s.72-.74,1.07-1.14c.35-.4,.67-.77,.96-1.12,.02-.02,.06-.04,.12-.04,.05,0,.09,0,.12,.03,.02,.02,.04,.06,.05,.11,.01,.05,0,.09-.02,.12-.18,.32-.44,.7-.78,1.14-.34,.44-.71,.87-1.11,1.3-.4,.43-.8,.83-1.21,1.19-.41,.36-.77,.62-1.07,.79-.32,.18-.64,.24-.95,.18s-.58-.22-.79-.5c-.15-.17-.27-.35-.35-.56-.08-.21-.14-.42-.18-.65-.07-.6-.04-1.19,.11-1.77,.08-.33,.17-.66,.26-.98,.09-.32,.19-.65,.31-.97,.27-.72,.7-1.33,1.28-1.83,.12-.09,.24-.18,.35-.25,.12-.07,.24-.13,.37-.18,.31-.11,.57-.08,.8,.09,.22,.17,.32,.41,.3,.73-.01,.18-.04,.35-.07,.53-.04,.18-.08,.35-.14,.51-.19,.66-.38,1.32-.58,1.96-.19,.64-.39,1.29-.59,1.94-.04,.12-.07,.23-.11,.35-.04,.11-.04,.23-.02,.35Z"/>
      <path class="cls-2" d="M119.11,16.22c.05,.18,.05,.32,0,.43-.04,.11-.09,.22-.15,.31-.13,.25-.31,.56-.53,.92-.22,.37-.47,.74-.73,1.11-.26,.37-.53,.72-.8,1.05-.27,.33-.52,.56-.74,.7-.43,.31-.87,.4-1.33,.29-.46-.11-.82-.4-1.08-.88-.08-.15-.15-.31-.2-.46-.05-.15-.08-.31-.11-.48-.09-.52-.14-1.03-.15-1.54,0-.51,.03-1.02,.12-1.53,.05-.21,.09-.42,.13-.63,.04-.21,.08-.42,.12-.63,.15-.76,.4-1.46,.73-2.12,.33-.66,.74-1.29,1.22-1.89,.24-.31,.51-.57,.82-.78,.31-.21,.63-.4,.98-.57,.2-.08,.4-.11,.58-.09,.22,.02,.39,.11,.49,.27,.1,.15,.12,.33,.06,.53-.02,.12-.06,.23-.11,.35-.05,.11-.09,.22-.14,.31-.13,.25-.27,.49-.42,.73-.15,.24-.29,.47-.42,.71-.59,1.05-1.05,2.14-1.39,3.27-.34,1.13-.54,2.3-.59,3.52-.01,.07-.02,.14,0,.22,0,.08,0,.16,0,.24,.01,.3,.16,.4,.44,.32,.3-.11,.59-.32,.9-.64,.3-.32,.59-.67,.87-1.06,.28-.38,.54-.76,.79-1.13,.25-.37,.46-.66,.64-.87Z"/>
    </g>
    <g>
      <path class="cls-1" d="M112.31,8.97s.05,.08,.07,.12c.02,.04,.02,.07,.04,.11,.02,.07,.06,.14,.12,.19,.2,.18,.33,.4,.41,.65,.09,.29,.11,.59,.07,.9-.02,.16-.06,.32-.12,.46-.18,.41-.45,.73-.87,.91-.17,.07-.34,.1-.52,.1-.06,0-.1,.03-.15,.05-.07,.04-.15,.08-.22,.1-.22,.05-.43-.08-.51-.3,0-.02-.02-.04-.02-.06-.02-.07-.06-.13-.12-.18-.3-.28-.44-.63-.46-1.04,0-.21,.02-.42,.1-.61,.04-.12,.1-.23,.16-.34,.07-.15,.17-.27,.28-.39,.23-.24,.49-.42,.81-.5,.11-.03,.22-.04,.33-.05,.07,0,.13-.02,.19-.06,.05-.03,.09-.06,.14-.08,.02-.01,.05-.02,.08-.02,.05,0,.06-.03,.09-.06,.13-.19,.28-.35,.48-.46,.09-.05,.19-.09,.29-.11,.03,0,.06,0,.07,.03,.04,.07,.04,.15,.04,.23,0,.03-.03,.04-.06,.04-.13,0-.26,.01-.37,.07-.14,.07-.25,.18-.33,.3Zm-.56,.24s-.02,0-.03,0c-.16,0-.31,.04-.44,.11-.48,.24-.79,.62-.96,1.13-.02,.07-.03,.14-.05,.21,0,0,.01,0,.01,0,.09-.23,.21-.45,.36-.65,.17-.22,.37-.42,.6-.57,.15-.1,.32-.18,.5-.23Z"/>
      <path class="cls-1" d="M112.16,8.73c-.18,.07-.36,.15-.54,.21-.19,.07-.39,.06-.58-.02-.07-.03-.13-.07-.19-.12-.08-.06-.16-.13-.24-.2,.06-.04,.11-.08,.17-.12,.14-.1,.28-.18,.45-.21,.2-.04,.4,0,.59,.08,.14,.07,.26,.16,.39,.26-.38-.02-.74-.06-1.11,0,.36,0,.71,.04,1.06,.12Z"/>
    </g>
    <g>
      <path class="cls-1" d="M70.97,8.99s.05,.08,.07,.12c.02,.04,.02,.07,.04,.11,.02,.07,.06,.14,.12,.19,.2,.18,.33,.4,.41,.65,.09,.29,.11,.59,.07,.9-.02,.16-.06,.32-.12,.46-.18,.41-.45,.73-.87,.91-.17,.07-.34,.1-.52,.1-.06,0-.1,.03-.15,.05-.07,.04-.15,.08-.22,.1-.22,.05-.43-.08-.51-.3,0-.02-.02-.04-.02-.06-.02-.07-.06-.13-.12-.18-.3-.28-.44-.63-.46-1.04,0-.21,.02-.42,.1-.61,.04-.12,.1-.23,.16-.34,.07-.15,.17-.27,.28-.39,.23-.24,.49-.42,.81-.5,.11-.03,.22-.04,.33-.05,.07,0,.13-.02,.19-.06,.05-.03,.09-.06,.14-.08,.02-.01,.05-.02,.08-.02,.05,0,.06-.03,.09-.06,.13-.19,.28-.35,.48-.46,.09-.05,.19-.09,.29-.11,.03,0,.06,0,.07,.03,.04,.07,.04,.15,.04,.23,0,.03-.03,.04-.06,.04-.13,0-.26,.01-.37,.07-.14,.07-.25,.18-.33,.3Zm-.56,.24s-.02,0-.03,0c-.16,0-.31,.04-.44,.11-.48,.24-.79,.62-.96,1.13-.02,.07-.03,.14-.05,.21,0,0,.01,0,.01,0,.09-.23,.21-.45,.36-.65,.17-.22,.37-.42,.6-.57,.15-.1,.32-.18,.5-.23Z"/>
      <path class="cls-1" d="M70.81,8.74c-.18,.07-.36,.15-.54,.21-.19,.07-.39,.06-.58-.02-.07-.03-.13-.07-.19-.12-.08-.06-.16-.13-.24-.2,.06-.04,.11-.08,.17-.12,.14-.1,.28-.18,.45-.21,.2-.04,.4,0,.59,.08,.14,.07,.26,.16,.39,.26-.38-.02-.74-.06-1.11,0,.36,0,.71,.04,1.06,.12Z"/>
    </g>
  </g>
</svg>