<?xml version="1.0" encoding="UTF-8"?>
<svg id="Capa_1" data-name="Capa 1" xmlns="http://www.w3.org/2000/svg" xmlns:xlink="http://www.w3.org/1999/xlink" viewBox="0 0 170.08 113.39">
  <defs>
    <style>
      .cls-1 {
        letter-spacing: .41em;
      }

      .cls-2 {
        letter-spacing: .45em;
      }

      .cls-3 {
        fill: url(#linear-gradient);
      }

      .cls-4 {
        letter-spacing: .45em;
      }

      .cls-5 {
        fill: #211915;
        font-family: Baskerville, Baskerville;
        font-size: 6.1px;
      }

      .cls-6 {
        fill: url(#linear-gradient-8);
      }

      .cls-7 {
        fill: url(#linear-gradient-9);
      }

      .cls-8 {
        fill: url(#linear-gradient-3);
      }

      .cls-9 {
        fill: url(#linear-gradient-4);
      }

      .cls-10 {
        fill: url(#linear-gradient-2);
      }

      .cls-11 {
        fill: url(#linear-gradient-6);
      }

      .cls-12 {
        fill: url(#linear-gradient-7);
      }

      .cls-13 {
        fill: url(#linear-gradient-5);
      }

      .cls-14 {
        letter-spacing: .46em;
      }

      .cls-15 {
        fill: url(#linear-gradient-10);
      }
    </style>
    <linearGradient id="linear-gradient" x1="10.47" y1="82.46" x2="157.42" y2="82.46" gradientUnits="userSpaceOnUse">
      <stop offset="0" stop-color="#a37f33"/>
      <stop offset=".06" stop-color="#a88537"/>
      <stop offset=".14" stop-color="#b69843"/>
      <stop offset=".23" stop-color="#ceb757"/>
      <stop offset=".33" stop-color="#eee172"/>
      <stop offset=".52" stop-color="#efe691"/>
      <stop offset=".66" stop-color="#eee172"/>
      <stop offset="1" stop-color="#a37f33"/>
    </linearGradient>
    <linearGradient id="linear-gradient-2" x1="63.88" y1="40.29" x2="157.53" y2="40.29" xlink:href="#linear-gradient"/>
    <linearGradient id="linear-gradient-3" x1="8.1" y1="40.29" x2="41.39" y2="40.29" xlink:href="#linear-gradient"/>
    <linearGradient id="linear-gradient-4" x1="461.32" y1="244.69" x2="461.32" y2="226.41" gradientTransform="translate(-159.28 -397.26) rotate(26.97)" xlink:href="#linear-gradient"/>
    <linearGradient id="linear-gradient-5" x1="326.15" y1="401.52" x2="327.69" y2="387.13" gradientTransform="translate(-3.86 -466.36) rotate(23.31)" xlink:href="#linear-gradient"/>
    <linearGradient id="linear-gradient-6" x1="167.84" y1="84.44" x2="167.84" y2="80.67" gradientTransform="translate(-12.52 -80.19) rotate(4)" xlink:href="#linear-gradient"/>
    <linearGradient id="linear-gradient-7" x1="158.51" y1="85.32" x2="158.51" y2="82.79" gradientTransform="translate(-12.52 -80.19) rotate(4)" xlink:href="#linear-gradient"/>
    <linearGradient id="linear-gradient-8" x1="173.2" y1="91.32" x2="173.2" y2="89.06" gradientTransform="translate(-12.52 -80.19) rotate(4)" xlink:href="#linear-gradient"/>
    <linearGradient id="linear-gradient-9" x1="180.55" y1="97.28" x2="180.55" y2="95.02" gradientTransform="translate(-12.52 -80.19) rotate(4)" xlink:href="#linear-gradient"/>
    <linearGradient id="linear-gradient-10" x1="149.23" y1="84.12" x2="149.23" y2="81.46" gradientTransform="translate(-12.52 -80.19) rotate(4)" xlink:href="#linear-gradient"/>
  </defs>
  <g>
    <path class="cls-3" d="M157.42,63.56c-2.7,.06-5.4,.14-8.09,.19-4.14,.08-8.28,.15-12.41,.24-.27,0-.56,.1-.79,.24-4.76,2.92-9.96,3.98-15.48,3.72-.3-.01-.61-.08-.91-.16-.41-.11-.74-.31-.75-.8-.01-.5,.27-.81,.72-.89,.67-.12,1.35-.21,2.03-.22,2.05-.03,3.87-.71,5.74-1.83h-12.85c-.01,.17-.04,.34-.04,.5,.03,7.77,.02,15.54,.13,23.31,.04,2.63,.32,5.27,.61,7.89,.14,1.33,.63,2.6,1.91,3.3,.57,.31,1.23,.53,1.86,.6,1.73,.19,3.46,.28,5.19,.42,.3,.02,.64,.04,.89,.17,.22,.11,.47,.39,.48,.61,.01,.23-.19,.61-.38,.67-.57,.19-1.19,.35-1.78,.35-4.84-.07-9.68-.26-14.52-.27-3.92-.01-7.83,.17-11.75,.26-.83,.02-1.67-.02-2.5-.06-.23-.01-.53-.07-.67-.22-.2-.22-.38-.55-.38-.83,0-.19,.33-.51,.54-.54,.93-.13,1.88-.17,2.82-.26,.48-.05,.96-.15,1.43-.21,1.36-.19,2.26-1,2.54-2.27,.42-1.9,.87-3.85,.91-5.78,.18-9.13,.22-18.27,.31-27.4,0-.06-.02-.13-.04-.3-.24,0-.5,0-.75,0-5.57,0-11.14,0-16.71,0-5.66,0-11.31,0-16.97-.01-.56,0-.83,.15-1.07,.69-4.75,10.93-9.52,21.85-14.31,32.77-.51,1.17-1.08,2.32-1.73,3.4-.88,1.45-2.24,1.46-3.02-.05-.87-1.69-1.57-3.48-2.3-5.24-3.84-9.23-7.67-18.47-11.5-27.71-.45-1.08-.91-2.15-1.32-3.24-.17-.46-.41-.61-.91-.62-6.93-.12-13.87-.26-20.8-.4-.11,0-.22-.02-.33-.02,0-.07,0-.13,0-.2,.97,0,1.94,0,2.91,0,10.19-.1,20.38-.21,30.57-.33,.54,0,.79,.15,.99,.67,2.33,6.22,4.7,12.42,7.06,18.62,.08,.2,.26,.35,.39,.53,.12-.16,.29-.31,.36-.5,2.44-6.13,4.89-12.25,7.3-18.39,.27-.68,.57-.95,1.35-.95,6.47,.04,12.94,.02,19.42,.02,19.59,0,39.18-.03,58.76,.02,5.85,.02,11.71,.27,17.56,.42,.09,0,.17,.01,.26,.02,0,.02,0,.04,0,.06Z"/>
    <path class="cls-10" d="M145.04,53.67c4.23,.11,8.36,.21,12.49,.31,0,.03,0,.06,0,.09-3.17,.09-6.33,.24-9.5,.25-17.1,.07-34.21,.12-51.31,.16-10.65,.02-21.3,.01-31.95,.02-.26,0-.52,0-.9,0,.13-.35,.23-.63,.34-.9,2.61-6.65,5.23-13.3,7.81-19.96,.38-.98,.6-2.02,.79-3.06,.21-1.17-.31-2.02-1.47-2.28-1.17-.25-2.39-.32-3.59-.46-.37-.04-.78,.03-1.11-.1-.27-.11-.62-.45-.62-.69,0-.26,.31-.67,.57-.75,.56-.17,1.17-.24,1.75-.23,2.9,.05,5.81,.2,8.71,.2,3.5,0,7-.14,10.49-.2,.66-.01,1.32,.04,1.97,.1,.47,.05,.86,.27,.83,.83-.03,.6-.46,.75-.96,.79-.66,.05-1.32,.06-1.98,.11-2.24,.17-4.02,1.15-5.3,3.03-1.71,2.51-2.83,5.31-4.03,8.07-2.01,4.59-4.04,9.17-6.06,13.76-.1,.24-.2,.47-.33,.78h30.54c0-.24,0-.45,0-.66,0-2.11,0-4.22,0-6.34-.01-3.17,0-6.34-.06-9.5-.03-1.63-.15-3.25-.33-4.87-.23-2.1-1.47-3.43-3.52-3.84-1.33-.27-2.7-.31-4.05-.45-.44-.04-.88-.05-1.31-.1-.46-.05-.8-.27-.82-.78-.02-.51,.3-.76,.76-.83,.48-.06,.96-.13,1.44-.12,4.95,.08,9.9,.26,14.85,.26,4.82,0,9.64-.21,14.46-.25,3.8-.03,7.55,.39,11.19,1.57,6.88,2.24,10.91,6.98,11.97,14.1,.56,3.76-.12,7.45-1.42,11.02-.1,.27-.2,.53-.34,.89Zm-30.46-.15c.16,.02,.24,.04,.33,.04,6.45,0,12.9,0,19.35,.01,.45,0,.54-.19,.61-.56,.42-2.16,.44-4.33,.24-6.51-.43-4.58-2.02-8.62-5.41-11.84-3.84-3.66-8.43-4.8-13.58-4.05-1.07,.16-1.41,.56-1.51,1.66-.02,.24-.02,.48-.02,.73,0,6.19,0,12.37,0,18.56v1.97Z"/>
    <path class="cls-8" d="M27.93,53.54c-.52-1.27-1-2.44-1.49-3.62-2.05-4.96-4.07-9.93-6.15-14.88-.71-1.68-1.52-3.33-2.87-4.62-1.71-1.64-3.87-2.2-6.12-2.49-.74-.1-1.49-.07-2.24-.1-.51-.02-.92-.18-.96-.78-.04-.57,.35-.78,.81-.85,.54-.08,1.09-.14,1.64-.13,5.11,.08,10.21,.24,15.32,.25,3.72,0,7.44-.18,11.16-.24,.58-.01,1.18,.1,1.74,.28,.23,.07,.52,.49,.49,.71-.03,.25-.34,.56-.61,.66-.36,.13-.78,.08-1.17,.12-.72,.06-1.46,.06-2.17,.19-1.79,.32-2.68,1.52-2.22,3.29,.56,2.16,1.25,4.3,2.02,6.4,2.03,5.51,4.14,10.99,6.22,16.48,.02,.06,.03,.13,.05,.27-10.38,.12-20.73-.03-31.07-.49,5.83-.15,11.65-.29,17.62-.44Z"/>
  </g>
  <text class="cls-5" transform="translate(29.82 60.87) scale(1.04 1)"><tspan class="cls-1" x="0" y="0">V</tspan><tspan class="cls-2" x="6.97" y="0">illamil</tspan></text>
  <text class="cls-5" transform="translate(101.89 60.87) scale(1.04 1)"><tspan class="cls-2" x="0" y="0">Planne</tspan><tspan class="cls-14" x="33.39" y="0">r</tspan><tspan class="cls-4" x="38.42" y="0">s</tspan></text>
  <g>
    <g>
      <path class="cls-9" d="M161.2,28.53c-.36,.29-.73,.58-1.09,.87-1.26,1.01-2.5,2.03-3.72,3.07h0c-.27,.22-.53,.45-.8,.68-.31,.25-.65,.49-1.01,.69-.67,.4-1.42,.68-2.18,.84-.11,.03-.22,.05-.33,.07-.73-.57-1.7-.56-2.6-.76-5.04-1.08-2.87-3.54-13.16-7.73-1.68-.69-4.4-1.33-6.81-1.99,.06-.67,.18-2.21,.24-2.88,.2-2.43,.35-4.87,.46-7.32,.02-.49,.04-.97,.06-1.46,.22,.05,.44,.11,.67,.16,0,0-.05,.52-.08,1.3-.11,2.35-.07,7.13,2.18,7.84,2.63,.88,4.92-3.77,5.91-6.17,.33-.8,.51-1.36,.51-1.36,.29,.11,.58,.22,.87,.34,0,0-.2,.51-.45,1.29-.81,2.47-2.23,7.7-.06,8.51,2.78,1.1,6.53-5.7,8.17-9.09,.53-1.09,.84-1.83,.83-1.84l.75,.38s-.43,.69-.99,1.76c-1.76,3.34-5,10.39-2.48,12.02,1.94,1.32,5.37-3.05,6.84-5.13,.44-.62,.71-1.04,.71-1.05,.26,.17,.52,.34,.78,.52-.01,0-.35,.4-.81,1.05-1.42,2.02-4.05,6.4-1.93,8.27,2.07,1.92,6.19-1.01,8.06-2.51,.59-.47,.96-.8,.97-.8,.17,.15,.35,.3,.52,.45Z"/>
      <path class="cls-13" d="M154.91,33.65c-.14,.12-.28,.25-.43,.36-.17,.14-.35,.26-.54,.37-.36,.22-.76,.36-1.17,.45-.06,.01-.12,.02-.18,.04-.15,.03-.29,.04-.44,.05-.21,.01-.41,.01-.61,0-.4-.02-.8-.08-1.18-.17-.77-.18-1.49-.47-2.19-.8-.69-.34-1.36-.73-1.99-1.15-.32-.21-.63-.43-.93-.65l-.91-.67c-.6-.45-1.2-.89-1.8-1.32-1.21-.85-2.46-1.62-3.77-2.3-1.3-.68-2.66-1.26-4.05-1.79-.35-.13-.69-.26-1.04-.38-.35-.13-.7-.24-1.05-.36-.71-.22-1.42-.43-2.13-.62-1.44-.36-2.9-.63-4.38-.77-.74-.07-1.49-.11-2.24-.12-.75,0-1.5,.01-2.26,.06,.37-.05,.75-.11,1.13-.15,.19-.02,.38-.04,.57-.06l.57-.04c.76-.04,1.51-.07,2.27-.04,.76,.03,1.51,.07,2.26,.16,.75,.09,1.5,.21,2.24,.36,.74,.15,1.47,.33,2.2,.53,.36,.1,.73,.2,1.08,.32,.36,.11,.72,.22,1.08,.34,.36,.12,.71,.24,1.07,.37,.35,.13,.71,.26,1.06,.41,.7,.28,1.39,.58,2.07,.91,.46,.22,.91,.45,1.35,.7,.22,.12,.44,.24,.65,.37,.65,.38,1.29,.79,1.92,1.21,.39,.26,.77,.53,1.15,.8,.85,.6,1.68,1.21,2.52,1.78,4.42,2.99,6.91,2.37,8.11,1.82h0Z"/>
    </g>
    <path class="cls-11" d="M150.1,12.1s.04,.09,.06,.13c.01,.04,.02,.08,.03,.12,.02,.08,.05,.14,.11,.2,.19,.2,.31,.43,.37,.7,.08,.31,.08,.62,0,.93-.04,.16-.08,.32-.16,.47-.21,.41-.52,.72-.96,.87-.18,.06-.36,.08-.54,.07-.06,0-.11,.02-.16,.04-.08,.03-.16,.07-.24,.09-.23,.03-.44-.11-.5-.35,0-.02-.01-.04-.02-.07-.02-.08-.05-.14-.11-.2-.29-.31-.41-.68-.39-1.1,0-.22,.05-.43,.14-.62,.05-.12,.12-.23,.19-.34,.08-.15,.2-.27,.32-.38,.25-.23,.53-.4,.87-.46,.11-.02,.23-.02,.34-.03,.07,0,.14-.01,.2-.05,.05-.03,.1-.05,.15-.07,.03-.01,.06-.02,.08-.02m-.38,.28s-.02,0-.03,0c-.16,0-.32,.02-.46,.08-.51,.21-.86,.58-1.07,1.09-.03,.07-.04,.14-.07,.22,0,0,.01,0,.01,0,.11-.23,.25-.45,.42-.64,.19-.22,.41-.4,.66-.54,.17-.09,.34-.16,.53-.2Z"/>
    <path class="cls-12" d="M140.37,13.52s.03,.06,.04,.09c0,.03,.01,.05,.02,.08,.01,.05,.03,.1,.07,.14,.13,.13,.21,.29,.25,.47,.05,.21,.05,.41,0,.62-.02,.11-.06,.22-.11,.32-.14,.28-.35,.48-.65,.59-.12,.04-.24,.06-.37,.05-.04,0-.07,.01-.11,.03-.05,.02-.1,.05-.16,.06-.16,.02-.29-.08-.34-.23,0-.02,0-.03-.01-.05-.01-.05-.04-.09-.07-.13-.2-.21-.27-.46-.26-.74,0-.15,.04-.29,.1-.42,.04-.08,.08-.15,.13-.23,.06-.1,.13-.18,.22-.26,.17-.15,.36-.27,.59-.31,.08-.01,.15-.02,.23-.02,.05,0,.09,0,.14-.03,.03-.02,.07-.03,.1-.05,.02,0,.04-.01,.05-.01m-.26,.19s-.01,0-.02,0c-.11,0-.21,.01-.31,.05-.35,.14-.58,.39-.72,.73-.02,.05-.03,.1-.05,.14,0,0,0,0,0,0,.07-.16,.17-.3,.28-.43,.13-.15,.28-.27,.45-.36,.11-.06,.23-.11,.35-.13Z"/>
    <path class="cls-6" d="M154.9,20.86s.01,.07,.01,.1c0,.03,0,.05,0,.08,0,.05,0,.1,.03,.15,.09,.16,.12,.34,.12,.52,0,.21-.06,.41-.16,.6-.05,.1-.11,.19-.19,.28-.21,.23-.46,.37-.78,.39-.13,0-.25-.01-.36-.05-.04-.01-.07,0-.11,0-.06,0-.11,.02-.17,.01-.16-.02-.26-.15-.26-.31,0-.02,0-.03,0-.05,0-.05,0-.1-.03-.15-.14-.25-.14-.51-.06-.78,.04-.14,.11-.27,.2-.38,.06-.07,.12-.13,.18-.19,.08-.08,.18-.14,.28-.19,.2-.1,.42-.16,.65-.14,.08,0,.15,.03,.23,.04,.05,.01,.09,.02,.14,0,.04,0,.07-.02,.11-.02,.02,0,.04,0,.06,0m-.3,.11s-.01,0-.02,0c-.1-.03-.21-.04-.32-.03-.37,.04-.66,.22-.89,.52-.03,.04-.05,.08-.08,.13,0,0,0,0,0,0,.11-.13,.24-.24,.39-.34,.16-.11,.34-.19,.53-.23,.12-.03,.25-.04,.38-.03Z"/>
    <path class="cls-7" d="M161.81,27.32s.01,.07,.01,.1c0,.03,0,.05,0,.08,0,.05,0,.1,.03,.15,.09,.16,.12,.34,.12,.52,0,.21-.06,.41-.16,.6-.05,.1-.11,.19-.19,.28-.21,.23-.46,.37-.78,.39-.13,0-.25-.01-.36-.05-.04-.01-.07,0-.11,0-.06,0-.11,.02-.17,.01-.16-.02-.26-.15-.26-.31,0-.02,0-.03,0-.05,0-.05,0-.1-.03-.15-.14-.25-.14-.51-.06-.78,.04-.14,.11-.27,.2-.38,.06-.07,.12-.13,.18-.19,.08-.08,.18-.14,.28-.19,.2-.1,.42-.16,.65-.14,.08,0,.15,.03,.23,.04,.05,.01,.09,.02,.14,0,.04,0,.07-.02,.11-.02,.02,0,.04,0,.06,0m-.3,.11s-.01,0-.02,0c-.1-.03-.21-.04-.32-.03-.37,.04-.66,.22-.89,.52-.03,.04-.05,.08-.08,.13,0,0,0,0,0,0,.11-.13,.24-.24,.39-.34,.16-.11,.34-.19,.53-.23,.12-.03,.25-.04,.38-.03Z"/>
    <path class="cls-15" d="M130.77,11.48s.05,.05,.07,.07c.02,.02,.03,.05,.04,.07,.03,.04,.06,.08,.11,.1,.16,.08,.29,.21,.39,.36,.12,.18,.18,.38,.21,.59,.01,.11,.02,.22,0,.33-.04,.31-.17,.57-.42,.76-.1,.08-.21,.13-.33,.16-.04,0-.06,.04-.09,.06-.04,.04-.08,.08-.13,.11-.14,.07-.3,.02-.4-.11,0-.01-.02-.03-.03-.04-.03-.04-.06-.08-.11-.1-.25-.13-.41-.34-.49-.61-.04-.14-.06-.28-.04-.43,0-.09,.03-.17,.05-.26,.02-.11,.07-.21,.12-.31,.11-.2,.25-.37,.45-.48,.07-.04,.14-.07,.21-.09,.05-.02,.08-.04,.12-.07,.03-.03,.05-.05,.08-.08,.01-.01,.03-.03,.05-.03m-.19,.26s-.01,0-.02,0c-.1,.03-.2,.08-.28,.15-.28,.24-.42,.56-.44,.93,0,.05,0,.1,0,.15,0,0,0,0,0,0,.02-.17,.06-.34,.13-.5,.07-.18,.17-.34,.3-.49,.09-.09,.18-.17,.29-.24Z"/>
  </g>
</svg>