<?xml version="1.0" encoding="UTF-8"?>
<svg id="Capa_1" data-name="Capa 1" xmlns="http://www.w3.org/2000/svg" viewBox="0 0 170.08 113.39">
  <defs>
    <style>
      .cls-1 {
        fill: #5a2b64;
      }

      .cls-2 {
        fill: #979696;
        stroke: #979696;
        stroke-miterlimit: 10;
        stroke-width: .38px;
      }
    </style>
  </defs>
  <g>
    <path class="cls-1" d="M21.47,26.51h.32c1.22,0,2.08,.7,2.59,2.11v.16c-.11,2.89-.14,4.53-.08,4.92,.05,.39,.07,.76,.04,1.11s-.08,1.92-.16,4.7c-.08,2.78-.12,4.23-.12,4.33v.32c.43,16.96,1.23,25.5,2.39,25.6,.41,.65,1.34,.97,2.8,.97,3.75,0,6.78-2.43,9.08-7.29,1.13-5.19,2.16-7.78,3.08-7.78,0-.13,.49-.3,1.46-.49,.51,.11,.96,.25,1.35,.44,.57,.27-.22,2.12-.09,3.55s1.19,2.52,.86,3.51c-.51,1.54-1.21,3.42-2.12,5.63-3.65,5.73-8.18,8.59-13.61,8.59h-.16c-5.81,0-9.21-3.67-10.21-11.02l-.97-20.09c.32-12.32,.92-18.47,1.78-18.47,.46-.54,1.05-.81,1.78-.81Z"/>
    <path class="cls-1" d="M35.64,37.49c-.99,2.26-3.4,5.35-3.4,5.35-3.62,4.54-7.51,6.81-11.67,6.81-3.65,0-7.05-1.73-10.21-5.19-3.57-3.81-5.35-12.02-5.35-24.63,0-6.16,.38-9.72,1.13-10.7,.84-.65,1.54-.97,2.11-.97,1.84,.41,2.75,1.22,2.75,2.43v3.4c0,14.1,1.08,22.53,3.24,25.28,1.89,2.81,4.05,4.21,6.48,4.21,3,0,6.08-2.92,9.24-8.75,1.73-3.86,3.08-8.13,4.05-12.8,.97-5.56,1.46-8.59,1.46-9.07,.81-1.19,1.73-1.78,2.76-1.78h.32c1.94,.35,2.92,1.27,2.92,2.75-.11,2.08-.65,5.73-1.03,7.49,0,0-2.93,11.91-4.8,16.17Z"/>
    <g>
      <path class="cls-1" d="M49.93,43.2c2.51,0,4.62,1.46,6.32,4.38,.54,1.16,.81,2.35,.81,3.57,0,5-3.46,9.59-10.37,13.77-.11,0-.27,.05-.49,.16,1.51,3.78,3.46,5.67,5.83,5.67h.32c4.02,0,8.24-3.08,12.64-9.24,1.75-4.1,3-6.16,3.73-6.16l.97-.16h.49c1.84,.38,2.75,1.24,2.75,2.59v.65c-.59,3.05-2.7,6.72-6.32,11.02-4.78,4.97-9.53,7.45-14.26,7.45-6.32,0-10.64-4.38-12.96-13.13-.22-1.08-.32-2.16-.32-3.24v-1.78c0-7.24,2.54-12.21,7.62-14.91,1.3-.43,2.38-.65,3.24-.65Zm-4.7,15.4v.32c3.78-2.89,5.67-5.59,5.67-8.1-.19-.73-.57-1.21-1.13-1.46-1.35,0-2.65,1.51-3.89,4.54-.43,1.65-.65,3.21-.65,4.7Z"/>
      <path class="cls-1" d="M70.99,44.66c1.84,0,2.75,1.94,2.75,5.83,.22,3.51,.32,7.51,.32,11.99v1.13c0,4.75,1.08,7.13,3.24,7.13,2.27-.49,4.59-2.27,6.97-5.35,1.08-1.59,2.21-3.92,3.4-6.97,.78-.76,1.43-1.13,1.94-1.13h.81c1.59,0,2.51,1.03,2.75,3.08-.78,3.75-2.78,7.48-6,11.18-3.59,3.57-6.89,5.35-9.89,5.35h-.16c-4.16,0-7.08-2.59-8.75-7.78-.32-2.11-.49-3.78-.49-5.02v-6.16c0-2.21,.05-5.24,.16-9.08-.11-.19-.16-.46-.16-.81,0-2,.92-3.13,2.75-3.4h.32Zm.32-14.26c2.16,.38,3.24,1.46,3.24,3.24-.46,1.95-1.43,2.92-2.92,2.92h-.32c-1.94-.3-2.92-1.27-2.92-2.92v-.16c0-1.38,.76-2.35,2.27-2.92,.24,0,.46-.05,.65-.16Z"/>
      <path class="cls-1" d="M102.43,43.53c2.27,0,4.27,1.08,6,3.24,.86,1.57,1.3,2.75,1.3,3.56h.16c3.29-4.54,6.54-6.81,9.72-6.81,2.7,0,4.64,.84,5.81,2.51s1.83,8.18,1.96,19.53v1.78c.13,2.27,.62,3.4,1.46,3.4,2.21,0,4.59-1.67,7.13-5.02,.7-1.3,1.73-4.11,3.08-8.43,.89-.86,1.76-1.3,2.59-1.3,2.05,.32,3.08,1.35,3.08,3.08-1.27,5.02-2.51,8.48-3.73,10.37-3.97,4.97-7.97,7.45-11.99,7.45-3.56,0-6.05-2.11-7.45-6.32-.22-1.08-.32-2.16-.32-3.24v-.32c0-11.13-.53-16.84-1.58-17.14-1.97,.51-4.04,2.71-6.2,6.6-.57,1.08-1.16,5.08-1.78,11.99-.16,4.21-.72,6.56-1.66,7.05-.32,.16-1.01,.24-2.07,.24-1.94-.49-2.92-1.46-2.92-2.92-.11-.67-.16-1.43-.16-2.27v-11.34l-.16-.32h.16l-.16-.32c-.38-5.83-1.08-8.75-2.11-8.75-.22-.11-.38-.16-.49-.16-1.3,0-2.81,1.51-4.54,4.54-1.24,2.32-2.16,7.13-2.75,14.42-.22,4.43-.59,6.64-1.13,6.64-.59,.54-1.24,.81-1.94,.81-2.49,0-3.73-1.84-3.73-5.51-.54-4.56-.81-10.83-.81-18.8v-4.38c.27-1.95,1.24-2.92,2.92-2.92,1.46,0,2.32,1.03,2.59,3.08l.16,2.27c2.86-4.21,6.05-6.32,9.56-6.32Z"/>
      <path class="cls-1" d="M142.87,44.66c1.84,0,2.75,1.94,2.75,5.83,.22,3.51,.32,7.51,.32,11.99v1.13c0,4.75,1.08,7.13,3.24,7.13,2.27-.49,4.59-2.27,6.97-5.35,1.08-1.59,2.21-3.92,3.4-6.97,.78-.76,1.43-1.13,1.94-1.13h.81c1.59,0,2.51,1.03,2.75,3.08-.78,3.75-2.78,7.48-6,11.18-3.59,3.57-6.89,5.35-9.89,5.35h-.16c-4.16,0-7.08-2.59-8.75-7.78-.32-2.11-.49-3.78-.49-5.02v-6.16c0-2.21,.05-5.24,.16-9.08-.11-.19-.16-.46-.16-.81,0-2,.92-3.13,2.75-3.4h.32Zm.32-14.26c2.16,.38,3.24,1.46,3.24,3.24-.46,1.95-1.43,2.92-2.92,2.92h-.32c-1.94-.3-2.92-1.27-2.92-2.92v-.16c0-1.38,.76-2.35,2.27-2.92,.24,0,.46-.05,.65-.16Z"/>
    </g>
  </g>
  <g>
    <path class="cls-2" d="M56.9,83.24c.09,.09,.14,.21,.14,.36,0,.14-.05,.26-.14,.35-.09,.09-.21,.14-.36,.14h-3.33v9.38c0,.15-.05,.28-.15,.38-.1,.11-.23,.16-.39,.16-.15,0-.28-.05-.38-.16-.11-.11-.16-.24-.16-.38v-9.38h-3.31c-.15,0-.27-.05-.36-.14-.09-.09-.14-.21-.14-.35,0-.15,.05-.27,.14-.36,.09-.09,.21-.14,.36-.14h7.73c.15,0,.27,.05,.36,.14Z"/>
    <path class="cls-2" d="M61.58,86.79c.53,.32,.94,.77,1.24,1.33,.29,.57,.44,1.22,.44,1.94,0,.15-.05,.27-.14,.36-.09,.09-.21,.13-.36,.13h-5.65c.07,.76,.37,1.38,.9,1.86,.52,.48,1.17,.71,1.96,.71,.34,0,.67-.06,1.01-.17,.34-.12,.61-.26,.82-.44,.12-.09,.25-.14,.38-.14,.1,0,.21,.04,.31,.11,.12,.11,.18,.24,.18,.38,0,.12-.05,.23-.15,.32-.31,.26-.7,.48-1.17,.65-.48,.17-.93,.26-1.37,.26-.75,0-1.41-.17-2-.5-.59-.33-1.05-.79-1.38-1.38s-.5-1.26-.5-2.01,.16-1.43,.47-2.02c.31-.59,.75-1.05,1.3-1.38s1.19-.5,1.89-.5,1.3,.16,1.83,.48Zm-3.59,1.14c-.47,.44-.75,1.02-.85,1.73h5.12c-.07-.72-.34-1.3-.78-1.73-.45-.44-1.02-.66-1.72-.66s-1.3,.22-1.76,.66Z"/>
    <path class="cls-2" d="M69.46,86.45c.23,.1,.34,.25,.34,.43,0,.06,0,.1-.01,.13-.04,.13-.1,.22-.17,.27s-.19,.07-.33,.07c-.08,0-.23,0-.43-.03-.07,0-.19-.01-.34-.01-.7,0-1.27,.19-1.71,.56-.44,.37-.66,.86-.66,1.45v4.18c0,.17-.05,.3-.14,.39s-.22,.14-.39,.14-.3-.05-.39-.14-.14-.22-.14-.39v-6.59c0-.17,.05-.3,.14-.39,.09-.09,.22-.14,.39-.14s.3,.05,.39,.14c.09,.09,.14,.22,.14,.39v.62c.27-.39,.62-.69,1.03-.91,.42-.21,.87-.32,1.36-.32,.39,0,.7,.05,.93,.15Z"/>
    <path class="cls-2" d="M76.22,86.82c.59,.34,1.06,.81,1.4,1.41,.34,.6,.51,1.26,.51,1.99v3.29c0,.15-.05,.28-.15,.38-.1,.1-.23,.15-.39,.15s-.29-.05-.39-.15c-.1-.1-.15-.23-.15-.38v-.84c-.33,.45-.74,.8-1.24,1.06-.5,.26-1.06,.38-1.66,.38-.71,0-1.35-.17-1.92-.51-.57-.34-1.03-.81-1.36-1.4-.33-.59-.5-1.25-.5-1.98s.17-1.39,.51-1.99c.34-.6,.81-1.06,1.4-1.41,.59-.34,1.25-.51,1.98-.51s1.39,.17,1.98,.51Zm-.54,5.92c.43-.25,.77-.6,1.01-1.04,.25-.44,.37-.94,.37-1.49s-.12-1.05-.37-1.49c-.25-.44-.59-.79-1.01-1.05-.43-.26-.91-.38-1.44-.38s-1.01,.13-1.45,.38c-.43,.26-.77,.61-1.02,1.05-.25,.44-.37,.94-.37,1.49s.12,1.05,.37,1.49c.25,.44,.59,.79,1.02,1.04,.43,.25,.92,.38,1.45,.38s1.01-.12,1.44-.38Z"/>
    <path class="cls-2" d="M86.09,86.82c.59,.34,1.06,.81,1.4,1.41,.34,.6,.51,1.26,.51,1.99s-.17,1.39-.5,1.98c-.33,.59-.78,1.06-1.36,1.4-.57,.34-1.21,.51-1.92,.51-.61,0-1.16-.13-1.66-.38-.5-.26-.92-.61-1.24-1.06v4.1c0,.16-.05,.29-.15,.39-.1,.1-.23,.15-.39,.15s-.29-.05-.38-.15c-.1-.1-.15-.23-.15-.39v-3.13s-.01-.07-.01-.13v-3.29c0-.73,.17-1.39,.51-1.99,.34-.6,.81-1.06,1.4-1.41,.59-.34,1.25-.51,1.98-.51s1.39,.17,1.98,.51Zm-.53,5.92c.43-.25,.77-.6,1.02-1.04,.25-.44,.37-.94,.37-1.49s-.12-1.05-.37-1.49c-.25-.44-.59-.79-1.02-1.05-.43-.26-.92-.38-1.45-.38s-1.01,.13-1.44,.38c-.43,.26-.77,.61-1.01,1.05-.25,.44-.37,.94-.37,1.49,0,.16,0,.28,.01,.35,0,.02,.01,.04,.01,.07,.09,.73,.4,1.32,.92,1.79,.52,.47,1.14,.7,1.88,.7,.53,0,1.01-.12,1.45-.38Z"/>
    <path class="cls-2" d="M95.2,86.79c.53,.32,.94,.77,1.24,1.33,.29,.57,.44,1.22,.44,1.94,0,.15-.05,.27-.14,.36-.09,.09-.21,.13-.36,.13h-5.65c.07,.76,.37,1.38,.9,1.86,.52,.48,1.17,.71,1.96,.71,.34,0,.67-.06,1.01-.17,.34-.12,.61-.26,.82-.44,.12-.09,.25-.14,.38-.14,.1,0,.21,.04,.31,.11,.12,.11,.18,.24,.18,.38,0,.12-.05,.23-.15,.32-.31,.26-.7,.48-1.17,.65-.48,.17-.93,.26-1.37,.26-.75,0-1.41-.17-2-.5-.59-.33-1.05-.79-1.38-1.38s-.5-1.26-.5-2.01,.16-1.43,.47-2.02c.31-.59,.75-1.05,1.3-1.38s1.19-.5,1.89-.5,1.3,.16,1.83,.48Zm-3.59,1.14c-.47,.44-.75,1.02-.85,1.73h5.12c-.07-.72-.34-1.3-.78-1.73-.45-.44-1.02-.66-1.72-.66s-1.3,.22-1.76,.66Z"/>
    <path class="cls-2" d="M105.49,86.52c.1,.1,.15,.23,.15,.38v6.57c0,.16-.05,.29-.15,.39-.1,.1-.23,.15-.39,.15s-.29-.05-.38-.15c-.1-.1-.15-.23-.15-.39v-.48c-.31,.34-.68,.62-1.12,.81-.44,.2-.91,.29-1.43,.29-.66,0-1.26-.14-1.78-.42-.53-.28-.94-.69-1.24-1.22s-.45-1.18-.45-1.92v-3.64c0-.15,.05-.27,.15-.38,.1-.1,.23-.15,.38-.15,.16,0,.29,.05,.39,.15,.1,.1,.15,.23,.15,.38v3.64c0,.83,.23,1.46,.69,1.89s1.06,.65,1.81,.65c.46,0,.87-.09,1.24-.27,.37-.18,.66-.42,.87-.73s.32-.66,.32-1.04v-4.14c0-.16,.05-.29,.15-.38,.1-.1,.23-.15,.38-.15s.29,.05,.39,.15Z"/>
    <path class="cls-2" d="M111.89,93.1c.09,.1,.14,.23,.14,.39,0,.15-.06,.28-.17,.38s-.25,.15-.42,.15h-.29c-.49,0-.94-.12-1.33-.36-.39-.24-.7-.56-.92-.96-.22-.41-.33-.86-.33-1.38v-3.73h-.91c-.15,0-.27-.04-.36-.13-.09-.09-.13-.2-.13-.33,0-.14,.04-.25,.13-.34,.09-.09,.21-.13,.36-.13h.91v-2.17c0-.16,.05-.29,.15-.39,.1-.1,.23-.15,.38-.15s.29,.05,.39,.15,.15,.23,.15,.39v2.17h1.58c.15,0,.27,.04,.36,.13,.09,.09,.13,.2,.13,.34,0,.13-.04,.24-.13,.33-.09,.09-.21,.13-.36,.13h-1.58v3.73c0,.48,.14,.86,.42,1.17,.28,.3,.64,.46,1.08,.46h.38c.15,0,.27,.05,.36,.15Z"/>
    <path class="cls-2" d="M119.24,86.82c.59,.34,1.06,.81,1.4,1.41,.34,.6,.51,1.26,.51,1.99v3.29c0,.15-.05,.28-.15,.38-.1,.1-.23,.15-.39,.15s-.29-.05-.39-.15c-.1-.1-.15-.23-.15-.38v-.84c-.33,.45-.74,.8-1.24,1.06-.5,.26-1.06,.38-1.66,.38-.71,0-1.35-.17-1.92-.51-.57-.34-1.03-.81-1.36-1.4-.33-.59-.5-1.25-.5-1.98s.17-1.39,.51-1.99c.34-.6,.81-1.06,1.4-1.41,.59-.34,1.25-.51,1.98-.51s1.39,.17,1.98,.51Zm-.54,5.92c.43-.25,.77-.6,1.01-1.04,.25-.44,.37-.94,.37-1.49s-.12-1.05-.37-1.49c-.25-.44-.59-.79-1.01-1.05-.43-.26-.91-.38-1.44-.38s-1.01,.13-1.45,.38c-.43,.26-.77,.61-1.02,1.05-.25,.44-.37,.94-.37,1.49s.12,1.05,.37,1.49c.25,.44,.59,.79,1.02,1.04,.43,.25,.92,.38,1.45,.38s1.01-.12,1.44-.38Z"/>
  </g>
</svg>