<?xml version="1.0" encoding="utf-8"?>
<!-- Generator: Adobe Illustrator 27.0.0, SVG Export Plug-In . SVG Version: 6.00 Build 0)  -->
<svg version="1.1" id="Capa_1" xmlns="http://www.w3.org/2000/svg" xmlns:xlink="http://www.w3.org/1999/xlink" x="0px" y="0px"
	 viewBox="0 0 303.35 81.27" style="enable-background:new 0 0 303.35 81.27;" xml:space="preserve">
<style type="text/css">
	.st0{fill:#003B4D;}
</style>
<g>
	<g>
		<g>
			<path class="st0" d="M46.14,14.76c10.52-1.91,19.4-2.74,26.63-2.49c7.23,0.25,12.69,1.38,16.38,3.42
				c3.57,2.03,5.75,4.65,6.55,7.85c0.8,3.2,0.42,6.54-1.15,10.01c-1.57,3.48-4.2,6.89-7.89,10.25c-3.69,3.35-8.21,6.17-13.57,8.45
				c-6.28,2.71-12.57,4.48-18.88,5.31c-6.31,0.83-12.91,0.97-19.8,0.42c-0.43-0.06-0.92-0.26-1.48-0.6
				c-0.55-0.34-1.01-0.69-1.38-1.06s-0.57-0.69-0.6-0.97c-0.03-0.28,0.32-0.42,1.06-0.42c2.22,0,4.77-0.15,7.66-0.46
				c2.89-0.31,5.94-0.8,9.14-1.48c3.2-0.68,6.45-1.54,9.74-2.58c3.29-1.05,6.45-2.28,9.46-3.69c1.97-0.92,4-2.12,6.09-3.6
				c2.09-1.48,4.06-3.11,5.91-4.89c1.85-1.78,3.52-3.63,5.03-5.54c1.51-1.91,2.66-3.78,3.46-5.63c0.8-1.85,1.17-3.57,1.11-5.17
				c-0.06-1.6-0.71-2.95-1.94-4.06c-1.54-1.42-3.75-2.37-6.65-2.86c-2.89-0.49-6.18-0.65-9.88-0.46c-3.69,0.18-7.68,0.69-11.95,1.52
				c-4.28,0.83-8.54,1.89-12.78,3.18c-4.25,1.29-8.37,2.79-12.37,4.48c-4,1.69-7.58,3.48-10.75,5.35c-3.17,1.88-5.81,3.83-7.94,5.86
				s-3.43,4.06-3.92,6.09c-0.06,0.25-0.29,0.37-0.69,0.37c-0.4,0-0.86-0.09-1.38-0.28c-0.52-0.19-1.06-0.45-1.62-0.78
				c-0.55-0.34-0.98-0.72-1.29-1.15c-1.35-1.78-1.75-3.54-1.2-5.26c0.55-1.72,1.75-3.4,3.6-5.03c1.85-1.63,4.23-3.17,7.15-4.61
				c2.92-1.45,6.08-2.77,9.46-3.97c3.38-1.2,6.86-2.26,10.43-3.18C39.46,16.14,42.88,15.38,46.14,14.76z M9.5,63.77
				c-0.12-1.66,0.31-3.55,1.29-5.68c0.98-2.12,2.29-4.32,3.92-6.6c1.63-2.28,3.48-4.54,5.54-6.78c2.06-2.25,4.08-4.37,6.05-6.37
				c1.97-2,3.77-3.77,5.4-5.31c1.63-1.54,2.88-2.71,3.74-3.51c0.92-0.86,2.03-1.44,3.32-1.75c1.29-0.31,2.48-0.43,3.55-0.37
				c1.08,0.06,1.95,0.23,2.63,0.51c0.68,0.28,0.89,0.54,0.65,0.78c-1.17,1.29-2.68,2.91-4.52,4.85c-1.85,1.94-3.83,4.06-5.95,6.37
				c-2.12,2.31-4.28,4.72-6.46,7.25c-2.18,2.52-4.2,5.05-6.05,7.57c-1.85,2.52-3.42,4.97-4.71,7.34c-1.29,2.37-2.12,4.57-2.49,6.6
				c-0.06,0.43-0.38,0.49-0.97,0.18c-0.59-0.31-1.23-0.78-1.94-1.43c-0.71-0.65-1.35-1.32-1.94-2.03
				C9.97,64.68,9.62,64.14,9.5,63.77z"/>
			<path class="st0" d="M105.31,46.6c1.23-1.11,2.15-1.45,2.77-1.02c0.61,0.43,0.37,1.32-0.74,2.68c-0.74,0.92-1.63,1.89-2.68,2.91
				c-1.05,1.02-2.11,1.97-3.18,2.86c-1.08,0.89-2.08,1.66-3,2.31c-0.92,0.65-1.63,1.03-2.12,1.15c-0.68,0.06-1.46-0.06-2.35-0.37
				c-0.89-0.31-1.75-0.77-2.58-1.38c-0.83-0.61-1.51-1.37-2.03-2.26c-0.52-0.89-0.72-1.89-0.6-3c0.12-1.05,0.42-2.2,0.88-3.46
				c0.46-1.26,1-2.41,1.62-3.46c0.61-1.05,1.23-1.91,1.85-2.58c0.61-0.68,1.17-0.98,1.66-0.92c0.43,0.12,0.89,0.29,1.38,0.51
				c0.49,0.22,0.94,0.46,1.34,0.74s0.72,0.6,0.97,0.97c0.25,0.37,0.34,0.8,0.28,1.29c-0.06,0.49-0.34,1.22-0.83,2.17
				c-0.49,0.95-0.99,1.92-1.48,2.91c-0.49,0.99-0.92,1.88-1.29,2.68c-0.37,0.8-0.43,1.29-0.18,1.48c0.18,0.12,0.63,0.05,1.34-0.23
				c0.71-0.28,1.54-0.69,2.49-1.25c0.95-0.55,2-1.23,3.14-2.03C103.07,48.48,104.2,47.59,105.31,46.6z M101.8,37.56
				c-0.37,0-0.83-0.09-1.38-0.28s-1.06-0.43-1.52-0.74c-0.46-0.31-0.83-0.66-1.11-1.06c-0.28-0.4-0.38-0.81-0.32-1.25
				c0.06-0.37,0.23-0.86,0.51-1.48c0.28-0.61,0.6-1.21,0.97-1.8c0.37-0.58,0.79-1.09,1.25-1.52c0.46-0.43,0.91-0.71,1.34-0.83
				c0.43-0.06,0.95,0.02,1.57,0.23c0.61,0.22,1.2,0.52,1.75,0.92c0.55,0.4,1,0.83,1.34,1.29c0.34,0.46,0.48,0.85,0.42,1.15
				c0,0.37-0.18,0.85-0.55,1.43c-0.37,0.59-0.8,1.15-1.29,1.71c-0.49,0.55-1.02,1.05-1.57,1.48
				C102.63,37.25,102.17,37.5,101.8,37.56z"/>
			<path class="st0" d="M108.63,42.45c0.43-0.25,1-0.37,1.71-0.37c0.71,0,1.4,0.09,2.08,0.28c0.68,0.18,1.26,0.45,1.75,0.78
				c0.49,0.34,0.71,0.72,0.65,1.15c0,0.55-0.36,1.26-1.06,2.12c-0.71,0.86-1.46,1.71-2.26,2.54c-0.8,0.83-1.51,1.55-2.12,2.17
				c-0.62,0.62-0.83,0.92-0.65,0.92s0.58-0.25,1.2-0.74c0.61-0.49,1.34-1.11,2.17-1.85c0.83-0.74,1.72-1.55,2.68-2.45
				c0.95-0.89,1.86-1.74,2.72-2.54c0.86-0.8,1.63-1.48,2.31-2.03c0.68-0.55,1.14-0.89,1.38-1.02c0.55-0.18,1.14-0.2,1.75-0.05
				c0.61,0.15,1.2,0.37,1.75,0.65s1.02,0.62,1.38,1.02c0.37,0.4,0.58,0.78,0.65,1.15c0.06,0.8-0.43,1.89-1.48,3.28
				c-1.05,1.38-2.31,3.06-3.78,5.03c1.78-1.85,3.48-3.54,5.08-5.08c1.35-1.29,2.63-2.54,3.83-3.74c1.2-1.2,2.04-1.95,2.54-2.26
				c0.43-0.31,1-0.4,1.71-0.28c0.71,0.12,1.38,0.38,2.03,0.78c0.65,0.4,1.18,0.91,1.62,1.52c0.43,0.62,0.61,1.23,0.55,1.85
				c-0.06,0.31-0.34,0.8-0.83,1.48c-0.49,0.68-1.09,1.4-1.8,2.17c-0.71,0.77-1.43,1.57-2.17,2.4s-1.38,1.58-1.94,2.26
				c-0.55,0.68-0.94,1.22-1.15,1.62c-0.22,0.4-0.14,0.57,0.23,0.51c0.25-0.06,0.95-0.51,2.12-1.34c1.17-0.83,2.45-1.75,3.83-2.77
				c1.38-1.02,2.72-1.97,4.02-2.86c1.29-0.89,2.18-1.49,2.68-1.8c1.05-0.55,1.8-0.77,2.26-0.65c0.46,0.12,0.26,0.71-0.6,1.75
				c-0.49,0.55-1.22,1.38-2.17,2.49c-0.96,1.11-2.02,2.26-3.18,3.46c-1.17,1.2-2.34,2.29-3.51,3.28c-1.17,0.98-2.22,1.6-3.14,1.85
				c-0.92,0.31-1.89,0.37-2.91,0.18c-1.02-0.18-1.94-0.49-2.77-0.92c-0.83-0.43-1.54-0.95-2.12-1.57c-0.58-0.61-0.91-1.23-0.97-1.85
				c0-0.31,0.11-0.72,0.32-1.25c0.21-0.52,0.49-1.06,0.83-1.62c0.34-0.55,0.66-1.06,0.97-1.52c0.31-0.46,0.52-0.75,0.65-0.88
				c-0.62,0.62-1.35,1.37-2.21,2.26c-0.86,0.89-1.74,1.75-2.63,2.58c-0.89,0.83-1.75,1.55-2.58,2.17c-0.83,0.62-1.49,0.96-1.98,1.02
				c-0.8,0.18-1.63-0.01-2.49-0.6c-0.86-0.58-1.29-1.21-1.29-1.89c0-0.25,0.15-0.71,0.46-1.38c0.31-0.68,0.66-1.38,1.06-2.12
				c0.4-0.74,0.78-1.45,1.15-2.12c0.37-0.68,0.58-1.17,0.65-1.48c-1.97,1.79-3.75,3.35-5.35,4.71c-1.42,1.23-2.75,2.32-4.01,3.28
				c-1.26,0.95-2.08,1.49-2.45,1.62c-0.31,0.12-0.72,0.12-1.25,0c-0.52-0.12-1.03-0.32-1.52-0.6c-0.49-0.28-0.94-0.61-1.34-1.02
				c-0.4-0.4-0.63-0.81-0.69-1.25c-0.12-0.43,0.14-1.29,0.78-2.58c0.65-1.29,1.42-2.63,2.31-4.02c0.89-1.38,1.78-2.66,2.68-3.83
				C107.63,43.31,108.26,42.63,108.63,42.45z"/>
			<path class="st0" d="M159.39,46.6c1.23-1.11,2.15-1.45,2.77-1.02c0.61,0.43,0.37,1.32-0.74,2.68c-0.74,0.92-1.63,1.89-2.68,2.91
				c-1.05,1.02-2.11,1.97-3.18,2.86c-1.08,0.89-2.08,1.66-3,2.31c-0.92,0.65-1.63,1.03-2.12,1.15c-0.68,0.06-1.46-0.06-2.35-0.37
				c-0.89-0.31-1.75-0.77-2.58-1.38c-0.83-0.61-1.51-1.37-2.03-2.26c-0.52-0.89-0.72-1.89-0.6-3c0.12-1.05,0.42-2.2,0.88-3.46
				c0.46-1.26,1-2.41,1.62-3.46c0.61-1.05,1.23-1.91,1.85-2.58c0.61-0.68,1.17-0.98,1.66-0.92c0.43,0.12,0.89,0.29,1.38,0.51
				c0.49,0.22,0.94,0.46,1.34,0.74c0.4,0.28,0.72,0.6,0.97,0.97c0.25,0.37,0.34,0.8,0.28,1.29c-0.06,0.49-0.34,1.22-0.83,2.17
				c-0.49,0.95-0.98,1.92-1.48,2.91c-0.49,0.99-0.92,1.88-1.29,2.68c-0.37,0.8-0.43,1.29-0.18,1.48c0.18,0.12,0.63,0.05,1.34-0.23
				c0.71-0.28,1.54-0.69,2.49-1.25c0.95-0.55,2-1.23,3.14-2.03C157.16,48.48,158.29,47.59,159.39,46.6z M155.89,37.56
				c-0.37,0-0.83-0.09-1.38-0.28s-1.06-0.43-1.52-0.74c-0.46-0.31-0.83-0.66-1.11-1.06c-0.28-0.4-0.38-0.81-0.32-1.25
				c0.06-0.37,0.23-0.86,0.51-1.48c0.28-0.61,0.6-1.21,0.97-1.8c0.37-0.58,0.78-1.09,1.25-1.52c0.46-0.43,0.91-0.71,1.34-0.83
				c0.43-0.06,0.95,0.02,1.57,0.23c0.61,0.22,1.2,0.52,1.75,0.92c0.55,0.4,1,0.83,1.34,1.29c0.34,0.46,0.48,0.85,0.42,1.15
				c0,0.37-0.18,0.85-0.55,1.43c-0.37,0.59-0.8,1.15-1.29,1.71c-0.49,0.55-1.02,1.05-1.57,1.48
				C156.72,37.25,156.26,37.5,155.89,37.56z"/>
			<path class="st0" d="M181.91,46.7c1.17-0.86,1.81-1.14,1.94-0.83c0.12,0.31-0.09,0.89-0.65,1.75c-0.55,0.92-1.34,2-2.35,3.23
				c-1.02,1.23-2.14,2.4-3.37,3.51c-1.23,1.11-2.52,2.09-3.88,2.95c-1.35,0.86-2.62,1.38-3.78,1.57c-0.8,0.12-1.85-0.08-3.14-0.6
				c-1.29-0.52-2.54-1.28-3.74-2.26c-1.2-0.98-2.2-2.12-3-3.42c-0.8-1.29-1.08-2.61-0.83-3.97c0.18-1.11,0.65-2.17,1.38-3.18
				c0.74-1.02,1.57-1.91,2.49-2.68c0.92-0.77,1.86-1.38,2.82-1.85c0.95-0.46,1.77-0.69,2.45-0.69c0.55,0,1.18,0.15,1.89,0.46
				c0.71,0.31,1.35,0.71,1.94,1.2c0.58,0.49,1.05,1.06,1.38,1.71c0.34,0.65,0.48,1.31,0.42,1.98c-0.12,0.68-0.59,1.46-1.38,2.35
				c-0.8,0.89-1.69,1.77-2.68,2.63c-1.11,0.98-2.4,2-3.88,3.05c1.35,0.37,3.52-0.06,6.51-1.29C175.44,51.1,178.59,49.22,181.91,46.7
				z M171.02,44.94c-0.25-0.18-0.82-0.05-1.71,0.42c-0.89,0.46-1.77,1.06-2.63,1.8c-0.86,0.74-1.58,1.55-2.17,2.45
				c-0.58,0.89-0.72,1.65-0.42,2.26c0.37-0.19,0.97-0.61,1.8-1.29c0.83-0.68,1.66-1.41,2.49-2.22c0.83-0.8,1.52-1.52,2.08-2.17
				S171.21,45.13,171.02,44.94z"/>
			<path class="st0" d="M184.13,42.54c0.37-0.37,0.82-0.51,1.34-0.42c0.52,0.09,1.01,0.31,1.48,0.65c0.46,0.34,0.88,0.77,1.25,1.29
				c0.37,0.52,0.58,1,0.65,1.43c0.12,0.43,0.11,0.97-0.05,1.62c-0.15,0.65-0.37,1.29-0.65,1.94c-0.28,0.65-0.54,1.23-0.79,1.75
				c-0.25,0.52-0.4,0.91-0.46,1.15c0.31-0.18,1.01-0.81,2.12-1.89c1.11-1.08,2.27-2.23,3.51-3.46c1.23-1.23,2.38-2.34,3.46-3.32
				c1.08-0.98,1.77-1.54,2.08-1.66c0.24-0.12,0.68-0.14,1.29-0.05s1.23,0.28,1.85,0.55c0.62,0.28,1.17,0.62,1.66,1.02
				c0.49,0.4,0.8,0.85,0.92,1.34c0.12,0.49-0.11,1.29-0.69,2.4c-0.59,1.11-1.21,2.26-1.89,3.46c-0.68,1.2-1.28,2.28-1.8,3.23
				c-0.52,0.95-0.63,1.52-0.32,1.71s0.98-0.06,2.03-0.74c1.04-0.68,2.2-1.51,3.46-2.49c1.26-0.98,2.45-1.98,3.55-3
				s1.91-1.74,2.4-2.17c0.49-0.43,0.91-0.66,1.25-0.69c0.34-0.03,0.6,0.08,0.79,0.32c0.19,0.25,0.26,0.55,0.23,0.92
				s-0.17,0.77-0.41,1.2c-0.31,0.43-0.96,1.19-1.94,2.26c-0.98,1.08-2.08,2.22-3.28,3.42c-1.2,1.2-2.36,2.29-3.46,3.28
				c-1.11,0.98-1.97,1.57-2.58,1.75c-0.92,0.37-1.95,0.48-3.09,0.32c-1.14-0.15-2.23-0.43-3.28-0.83c-1.05-0.4-1.92-0.92-2.63-1.57
				s-1.09-1.31-1.15-1.98c-0.06-0.25,0.04-0.74,0.32-1.48c0.28-0.74,0.6-1.48,0.97-2.22c0.37-0.74,0.72-1.41,1.06-2.03
				c0.34-0.61,0.51-0.95,0.51-1.02c-1.79,1.91-3.25,3.42-4.38,4.52c-1.14,1.11-2.28,2.12-3.42,3.05c-1.14,0.92-1.95,1.38-2.45,1.38
				c-0.8,0-1.63-0.26-2.49-0.78c-0.86-0.52-1.38-1.31-1.57-2.35c-0.06-0.43,0.02-1.18,0.23-2.26c0.22-1.08,0.52-2.22,0.92-3.42
				c0.4-1.2,0.89-2.37,1.48-3.51C182.73,44.03,183.39,43.16,184.13,42.54z"/>
			<path class="st0" d="M212.56,36.17c0.31-0.31,2.25-0.52,5.81-0.65c0.98-0.86,1.91-1.57,2.77-2.12c0.86-0.55,1.69-0.83,2.49-0.83
				c0.74,0,1.54,0.29,2.4,0.88c0.86,0.59,1.54,1.25,2.03,1.98c3.14,0,6.49-0.03,10.06-0.09c3.57-0.06,7.2-0.15,10.89-0.28
				c4.68-0.12,9.26-0.31,13.75-0.55c4.49-0.25,8.55-0.49,12.18-0.74c3.63-0.25,6.65-0.46,9.05-0.65c2.4-0.18,3.88-0.28,4.43-0.28
				c1.05,0,2.2,0.17,3.46,0.51c1.26,0.34,2.42,0.74,3.46,1.2c1.04,0.46,1.86,0.95,2.45,1.48c0.58,0.52,0.69,1,0.32,1.43
				c-0.25,0.25-1.45,0.39-3.6,0.42c-2.15,0.03-5,0.03-8.54,0c-3.54-0.03-7.63-0.08-12.28-0.14c-4.65-0.06-9.57-0.11-14.77-0.14
				c-5.2-0.03-10.51-0.03-15.92,0c-5.42,0.03-10.68,0.17-15.78,0.42c-0.68,0.49-1.54,1.23-2.58,2.22c-1.05,0.99-2.12,2.06-3.23,3.23
				c-1.11,1.17-2.2,2.4-3.28,3.69c-1.08,1.29-1.98,2.49-2.72,3.6c-0.74,1.11-1.25,2.08-1.52,2.91c-0.28,0.83-0.2,1.4,0.23,1.71
				c0.37,0.25,1.23-0.03,2.58-0.83c1.35-0.8,2.82-1.75,4.38-2.86c1.57-1.11,3.08-2.2,4.52-3.28c1.45-1.08,2.45-1.77,3-2.08
				c1.11-0.74,1.91-0.89,2.4-0.46c0.49,0.43,0.46,1.02-0.09,1.75c-0.31,0.37-1.05,1.15-2.22,2.35c-1.17,1.2-2.54,2.43-4.11,3.69
				c-1.57,1.26-3.2,2.39-4.89,3.37c-1.69,0.99-3.15,1.48-4.38,1.48c-2.52,0-4.17-0.69-4.94-2.08c-0.77-1.38-1-3.11-0.69-5.17
				c0.31-2.06,1.05-4.28,2.21-6.65c1.17-2.37,2.49-4.51,3.97-6.42C212.99,37.59,211.88,36.91,212.56,36.17z"/>
			<path class="st0" d="M255.02,46.42c0.86-0.8,1.55-1,2.08-0.6c0.52,0.4,0.35,1.12-0.51,2.17c-0.49,0.55-1.17,1.37-2.03,2.45
				c-0.86,1.08-1.75,2.17-2.68,3.28c-0.92,1.11-1.85,2.09-2.77,2.95c-0.92,0.86-1.69,1.35-2.31,1.48c-0.8,0.18-1.92,0.06-3.37-0.37
				c-1.45-0.43-2.69-1.08-3.74-1.94c-0.8,0.55-1.57,1.09-2.31,1.62c-0.74,0.52-1.48,0.91-2.22,1.15c-0.68,0.12-1.51,0.09-2.49-0.09
				s-1.95-0.54-2.91-1.06c-0.96-0.52-1.8-1.15-2.54-1.89s-1.23-1.6-1.48-2.58c-0.25-1.05,0.02-2.29,0.78-3.74
				c0.77-1.45,1.71-2.81,2.82-4.11c1.11-1.29,2.26-2.41,3.46-3.37c1.2-0.95,2.14-1.46,2.82-1.52c0.43-0.06,0.97-0.03,1.62,0.09
				c0.65,0.12,1.29,0.34,1.94,0.65c0.65,0.31,1.23,0.68,1.75,1.11c0.52,0.43,0.88,0.92,1.06,1.48c0.86-0.74,1.6-1.08,2.21-1.02
				c0.49,0.12,1.02,0.28,1.57,0.46s1.06,0.4,1.52,0.65c0.46,0.25,0.85,0.55,1.15,0.92c0.31,0.37,0.43,0.77,0.37,1.2
				c0,0.49-0.25,1.15-0.74,1.98c-0.49,0.83-1.02,1.68-1.57,2.54c-0.55,0.86-1.02,1.63-1.38,2.31c-0.37,0.68-0.43,1.11-0.18,1.29
				c0.18,0.12,0.6-0.01,1.25-0.42c0.65-0.4,1.43-0.95,2.35-1.66c0.92-0.71,1.95-1.52,3.09-2.45
				C252.78,48.45,253.91,47.47,255.02,46.42z M231.85,55.28c0.68,0.37,1.52,0.17,2.54-0.6c1.02-0.77,1.98-1.74,2.91-2.91
				c0.92-1.17,1.71-2.37,2.35-3.6c0.65-1.23,0.97-2.15,0.97-2.77c-0.25-0.55-0.68-0.71-1.29-0.46c-0.62,0.25-1.29,0.71-2.03,1.38
				c-0.74,0.68-1.49,1.51-2.26,2.49c-0.77,0.99-1.43,1.92-1.99,2.82c-0.55,0.89-0.97,1.69-1.25,2.4
				C231.52,54.74,231.54,55.16,231.85,55.28z"/>
		</g>
		<g>
			<path class="st0" d="M213.87,24.48c0.02,2.38,0.95,2.9,1.85,2.9c0.53,0,0.98-0.13,1.29-0.31l0.19,0.92
				c-0.44,0.24-1.09,0.37-1.71,0.37c-1.87,0-2.83-1.53-2.83-3.91c0-2.53,1.06-4.1,2.62-4.1c1.59,0,2.22,1.67,2.22,3.45
				c0,0.29,0,0.5-0.02,0.69H213.87z M216.32,23.57c0.03-1.56-0.56-2.25-1.16-2.25c-0.8,0-1.22,1.19-1.27,2.25H216.32z"/>
			<path class="st0" d="M218.63,26.98c0.27,0.18,0.76,0.4,1.26,0.4c0.71,0,1.14-0.43,1.14-1.13c0-0.6-0.21-1-1-1.53
				c-1.01-0.66-1.56-1.32-1.56-2.22c0-1.26,0.93-2.16,2.14-2.16c0.61,0,1.08,0.21,1.4,0.4l-0.34,0.93
				c-0.29-0.19-0.63-0.34-1.03-0.34c-0.68,0-1.01,0.48-1.01,0.98c0,0.53,0.19,0.82,0.97,1.35c0.9,0.58,1.61,1.29,1.61,2.37
				c0,1.56-1.06,2.32-2.33,2.32c-0.58,0-1.21-0.18-1.54-0.45L218.63,26.98z"/>
			<path class="st0" d="M225.01,18.66v1.82h1.5v0.95h-1.5v4.62c0,1.01,0.37,1.29,0.82,1.29c0.19,0,0.35-0.02,0.5-0.05l0.05,0.95
				c-0.23,0.08-0.52,0.13-0.92,0.13c-0.48,0-0.92-0.13-1.22-0.47c-0.31-0.35-0.47-0.89-0.47-1.96v-4.51h-0.95v-0.95h0.95v-1.32
				L225.01,18.66z"/>
			<path class="st0" d="M232.27,26.14c0,0.87,0.05,1.55,0.06,2.12h-1.08l-0.08-0.82h-0.03c-0.24,0.39-0.84,0.95-1.67,0.95
				c-1.37,0-1.9-1.06-1.9-2.99v-4.93h1.24v4.75c0,1.22,0.19,2.12,1.05,2.12c0.72,0,1.05-0.68,1.11-1.03
				c0.05-0.21,0.06-0.45,0.06-0.71v-5.14h1.24V26.14z"/>
			<path class="st0" d="M238.69,17.13v9.27c0,0.53,0.05,1.42,0.06,1.87h-1.06l-0.08-0.98h-0.05c-0.26,0.56-0.8,1.11-1.63,1.11
				c-1.32,0-2.27-1.43-2.27-3.99c0-2.77,1.14-4.06,2.35-4.06c0.56,0,1.11,0.27,1.42,0.93h0.03v-4.15H238.69z M237.46,23.44
				c0-0.16,0-0.34-0.02-0.52c-0.08-0.8-0.56-1.51-1.16-1.51c-1.03,0-1.38,1.43-1.38,2.99c0,1.64,0.42,2.96,1.32,2.96
				c0.39,0,0.92-0.21,1.19-1.34c0.03-0.14,0.05-0.32,0.05-0.52V23.44z"/>
			<path class="st0" d="M241.76,18.46c0.02,0.48-0.29,0.8-0.76,0.8c-0.4,0-0.71-0.32-0.71-0.8s0.32-0.8,0.72-0.8
				C241.47,17.66,241.76,17.98,241.76,18.46z M240.42,28.27v-7.79h1.24v7.79H240.42z"/>
			<path class="st0" d="M248.16,24.37c0,3.01-1.4,4.02-2.59,4.02c-1.4,0-2.53-1.27-2.53-4.01c0-2.85,1.27-4.04,2.61-4.04
				C247.04,20.35,248.16,21.65,248.16,24.37z M244.28,24.37c0,1.29,0.23,3.04,1.35,3.04c1.06,0,1.27-1.84,1.27-3.04
				c0-1.19-0.21-3.03-1.3-3.03C244.49,21.35,244.28,23.18,244.28,24.37z"/>
			<path class="st0" d="M256.76,17.13v9.27c0,0.53,0.05,1.42,0.06,1.87h-1.06l-0.08-0.98h-0.05c-0.26,0.56-0.8,1.11-1.63,1.11
				c-1.32,0-2.27-1.43-2.27-3.99c0-2.77,1.14-4.06,2.35-4.06c0.56,0,1.11,0.27,1.42,0.93h0.03v-4.15H256.76z M255.53,23.44
				c0-0.16,0-0.34-0.02-0.52c-0.08-0.8-0.56-1.51-1.16-1.51c-1.03,0-1.38,1.43-1.38,2.99c0,1.64,0.42,2.96,1.32,2.96
				c0.39,0,0.92-0.21,1.19-1.34c0.03-0.14,0.05-0.32,0.05-0.52V23.44z"/>
			<path class="st0" d="M259.36,24.48c0.02,2.38,0.95,2.9,1.85,2.9c0.53,0,0.98-0.13,1.29-0.31l0.19,0.92
				c-0.43,0.24-1.09,0.37-1.71,0.37c-1.87,0-2.83-1.53-2.83-3.91c0-2.53,1.06-4.1,2.62-4.1c1.59,0,2.22,1.67,2.22,3.45
				c0,0.29,0,0.5-0.02,0.69H259.36z M261.81,23.57c0.03-1.56-0.56-2.25-1.16-2.25c-0.8,0-1.22,1.19-1.27,2.25H261.81z"/>
			<path class="st0" d="M271.55,17.13v9.27c0,0.53,0.05,1.42,0.06,1.87h-1.06l-0.08-0.98h-0.05c-0.26,0.56-0.8,1.11-1.63,1.11
				c-1.32,0-2.27-1.43-2.27-3.99c0-2.77,1.14-4.06,2.35-4.06c0.56,0,1.11,0.27,1.42,0.93h0.03v-4.15H271.55z M270.32,23.44
				c0-0.16,0-0.34-0.02-0.52c-0.08-0.8-0.56-1.51-1.16-1.51c-1.03,0-1.38,1.43-1.38,2.99c0,1.64,0.42,2.96,1.32,2.96
				c0.39,0,0.92-0.21,1.19-1.34c0.03-0.14,0.05-0.32,0.05-0.52V23.44z"/>
			<path class="st0" d="M274.62,18.46c0.02,0.48-0.29,0.8-0.76,0.8c-0.4,0-0.71-0.32-0.71-0.8s0.32-0.8,0.72-0.8
				C274.33,17.66,274.62,17.98,274.62,18.46z M273.28,28.27v-7.79h1.24v7.79H273.28z"/>
			<path class="st0" d="M276.03,26.98c0.27,0.18,0.76,0.4,1.26,0.4c0.71,0,1.14-0.43,1.14-1.13c0-0.6-0.21-1-1-1.53
				c-1.01-0.66-1.56-1.32-1.56-2.22c0-1.26,0.93-2.16,2.14-2.16c0.61,0,1.08,0.21,1.4,0.4l-0.34,0.93
				c-0.29-0.19-0.63-0.34-1.03-0.34c-0.68,0-1.01,0.48-1.01,0.98c0,0.53,0.19,0.82,0.97,1.35c0.9,0.58,1.61,1.29,1.61,2.37
				c0,1.56-1.06,2.32-2.33,2.32c-0.58,0-1.21-0.18-1.54-0.45L276.03,26.98z"/>
			<path class="st0" d="M281.76,24.48c0.02,2.38,0.95,2.9,1.85,2.9c0.53,0,0.98-0.13,1.29-0.31l0.19,0.92
				c-0.44,0.24-1.09,0.37-1.71,0.37c-1.87,0-2.83-1.53-2.83-3.91c0-2.53,1.06-4.1,2.62-4.1c1.59,0,2.22,1.67,2.22,3.45
				c0,0.29,0,0.5-0.02,0.69H281.76z M284.21,23.57c0.03-1.56-0.56-2.25-1.16-2.25c-0.8,0-1.22,1.19-1.27,2.25H284.21z"/>
			<path class="st0" d="M286.73,22.49c0-0.92-0.05-1.38-0.06-2.01h1.08l0.06,0.93h0.03c0.34-0.63,0.97-1.06,1.79-1.06
				c1.08,0,1.88,0.81,1.88,2.69v5.23h-1.24v-5.02c0-0.92-0.18-1.85-1.08-1.85c-0.51,0-1.01,0.43-1.17,1.27
				c-0.03,0.19-0.05,0.43-0.05,0.69v4.91h-1.24V22.49z M287.41,19.24c-0.02-0.85,0.32-1.51,0.98-1.51c0.34,0,0.56,0.15,0.79,0.27
				c0.24,0.15,0.42,0.27,0.64,0.27c0.24,0,0.37-0.11,0.4-0.58h0.66c0,0.89-0.32,1.45-1.01,1.45c-0.29,0-0.56-0.15-0.79-0.27
				s-0.4-0.27-0.6-0.27c-0.24,0-0.37,0.23-0.4,0.64H287.41z"/>
			<path class="st0" d="M298.03,24.37c0,3.01-1.4,4.02-2.59,4.02c-1.4,0-2.53-1.27-2.53-4.01c0-2.85,1.27-4.04,2.61-4.04
				C296.91,20.35,298.03,21.65,298.03,24.37z M294.15,24.37c0,1.29,0.23,3.04,1.35,3.04c1.06,0,1.27-1.84,1.27-3.04
				c0-1.19-0.21-3.03-1.3-3.03C294.36,21.35,294.15,23.18,294.15,24.37z"/>
		</g>
		<g>
			<g>
				<path class="st0" d="M261.63,52.41c1.66,0,2.97,1.31,2.97,2.97c0,1.66-1.32,2.99-2.99,2.99c-1.66,0-2.99-1.33-2.99-2.99
					c0-1.66,1.33-2.97,2.99-2.97H261.63z M261.59,53.02c-1.28,0-2.25,1.05-2.25,2.36c0,1.31,0.97,2.36,2.27,2.36
					c1.3,0.02,2.25-1.05,2.25-2.36c0-1.32-0.95-2.36-2.25-2.36H261.59z M261.13,56.93h-0.63v-2.97c0.25-0.04,0.59-0.1,1.07-0.1
					c0.53,0,0.78,0.1,0.99,0.25c0.17,0.11,0.3,0.34,0.3,0.63c0,0.34-0.29,0.59-0.63,0.69v0.04c0.3,0.1,0.44,0.34,0.53,0.74
					c0.1,0.44,0.15,0.61,0.21,0.72h-0.67c-0.1-0.11-0.15-0.36-0.23-0.72c-0.06-0.32-0.25-0.46-0.63-0.46h-0.32V56.93z M261.15,55.25
					h0.32c0.38,0,0.69-0.13,0.69-0.44c0-0.27-0.19-0.44-0.63-0.44c-0.19,0-0.3,0.02-0.38,0.02V55.25z"/>
			</g>
		</g>
	</g>
</g>
</svg>
