<?xml version="1.0" encoding="utf-8"?>
<!-- Generator: Adobe Illustrator 27.0.0, SVG Export Plug-In . SVG Version: 6.00 Build 0)  -->
<svg version="1.1" id="Capa_1" xmlns="http://www.w3.org/2000/svg" xmlns:xlink="http://www.w3.org/1999/xlink" x="0px" y="0px"
	 viewBox="0 0 200 200" style="enable-background:new 0 0 200 200;" xml:space="preserve">
<style type="text/css">
	.st0{fill:#0C3E4D;}
	.st1{fill:#FFFFFF;}
</style>
<g>
	<circle class="st0" cx="100" cy="100" r="100"/>
	<g>
		<path class="st1" d="M57.55,28.05c1.97,0.82,4.08,1.41,5.86,2.52c3.21,2,5.01,5.13,5.85,8.87c0.54,0,1.06,0,1.57,0
			c22.3,0,44.59,0.06,66.89-0.05c4.76-0.02,8.42,3.75,8.38,8.33c-0.14,14.45-0.05,28.9-0.05,43.34c0,0.34,0.02,0.69-0.01,1.03
			c-0.14,1.35-1.28,2.32-2.67,2.28c-1.33-0.04-2.4-1.01-2.47-2.33c-0.06-0.99-0.02-1.98-0.02-2.98c0-13.63,0-27.26,0-40.89
			c0-2.7-0.86-3.56-3.56-3.56c-22.12,0-44.25,0-66.37,0c-0.43,0-0.86,0-1.49,0c0,0.54,0,1.04,0,1.53c0,21.65,0,43.3,0,64.95
			c0,0.43,0.03,0.87-0.02,1.29c-0.13,1.25-1.31,2.3-2.56,2.3c-1.25,0.01-2.44-1.03-2.58-2.28c-0.05-0.43-0.02-0.86-0.02-1.29
			c0-22.81,0-45.63,0-68.44c0-4.27-2.18-7.58-5.82-8.89c-5.59-2.02-11.43,1.95-11.76,7.98c-0.02,0.39-0.02,0.78-0.02,1.16
			c0,30.41,0,60.81,0,91.22c0,0.42,0,0.85,0,1.49c4.3-3.09,8.85-3.95,13.67-2.16c4.84,1.81,7.72,5.44,8.92,10.47
			c22.99,0,45.97,0,69.15,0c-0.31-0.37-0.53-0.65-0.78-0.9c-2.8-2.81-5.63-5.59-8.4-8.44c-0.68-0.7-1.37-0.99-2.36-0.99
			c-16.39,0.03-32.78,0.02-49.17,0.02c-1.95,0-3.05-0.91-3.09-2.52c-0.03-1.45,0.98-2.56,2.43-2.65c0.39-0.02,0.78-0.01,1.16-0.01
			c14.36,0,28.72,0,43.08,0c0.47,0,0.93,0,1.76,0c-1.32-1.32-2.58-2.31-3.5-3.56c-2.29-3.1-5.2-3.88-9.01-3.79
			c-10.99,0.27-21.99,0.1-32.99,0.09c-1.7,0-2.79-0.86-2.93-2.28c-0.17-1.7,0.97-2.89,2.83-2.89c5.3-0.01,10.61,0,15.91,0
			c5.22,0,10.44,0,15.66,0c0.42,0,0.84,0,1.7,0c-1.09-1.05-2-1.77-2.7-2.65c-0.86-1.09-1.68-2.26-2.27-3.51
			c-0.39-0.83-0.77-1.11-1.68-1.11c-8.75,0.03-17.51,0.02-26.26,0.02c-2.34,0-3.19-0.86-3.19-3.19c0-7.89,0-15.78,0-23.68
			c0-2.26,0.87-3.15,3.1-3.15c4.79,0,9.57,0,14.36,0c1.89,0,3,0.98,2.98,2.62c-0.02,1.57-1.12,2.54-2.93,2.55
			c-4.05,0.01-8.1,0-12.25,0c0,6.55,0,13.03,0,19.59c7.74,0,15.48,0,23.34,0c-0.17-0.5-0.3-0.98-0.48-1.45
			c-1.84-4.82-3.68-9.64-5.54-14.45c-0.49-1.27-0.75-2.51,0.38-3.59c1.07-1.03,2.27-0.76,3.49-0.29c7.67,2.93,15.34,5.84,23,8.8
			c0.78,0.3,1.54,0.8,2.13,1.39c15.12,15.08,30.22,30.16,45.27,45.3c1.08,1.08,1.69,2.63,2.52,3.96c0,1.04,0,2.07,0,3.11
			c-0.72,2.14-2.2,3.72-3.79,5.25c-2.24,2.15-4.39,4.39-6.6,6.57c-3.32,3.29-7.54,3.29-10.88-0.01c-2.52-2.49-5.06-4.95-7.48-7.52
			c-1.03-1.1-2.1-1.53-3.59-1.48c-3.18,0.11-6.36,0.03-9.48,0.03c-0.09,0.21-0.15,0.28-0.15,0.36c-0.02,0.99-0.01,1.98-0.04,2.97
			c-0.13,4.85-3.4,8.05-8.22,8.05c-22.86,0-45.71,0.02-68.57-0.01c-7.44-0.01-13.69-6.25-13.7-13.68
			c-0.02-35.02-0.02-70.03,0-105.05c0-4.46,1.94-8.03,5.38-10.83c1.92-1.56,4.2-2.27,6.51-2.93C54.79,28.05,56.17,28.05,57.55,28.05
			z M112.81,110.38c11.47,11.47,23.01,23.01,34.38,34.37c3.66-3.65,7.44-7.4,11.07-11.02c-11.44-11.44-22.98-22.96-34.41-34.39
			C120.17,103.01,116.4,106.78,112.81,110.38z M126.66,149.16c-0.6,0-1.1,0-1.61,0c-18.8,0-37.61,0-56.41,0
			c-3.76,0-3.84-0.07-4.48-3.7c-0.03-0.17-0.07-0.34-0.1-0.51c-0.9-4.96-5.83-8.11-10.77-6.88c-4.76,1.19-7.63,6.27-6.2,10.98
			c1.2,3.95,4.56,6.31,9.04,6.31c22.38,0,44.77,0,67.15,0c0.39,0,0.79,0.03,1.16-0.05c1.15-0.23,2.06-0.84,2.18-2.06
			C126.76,151.95,126.66,150.62,126.66,149.16z M162.46,137.62c-3.81,3.8-7.58,7.56-11.4,11.36c1.88,1.9,3.79,3.89,5.76,5.8
			c0.87,0.84,1.92,0.81,2.78-0.04c2.89-2.84,5.75-5.7,8.59-8.59c0.85-0.86,0.88-1.91,0.04-2.78
			C166.33,141.39,164.34,139.48,162.46,137.62z M103.93,90.46c2.02,5.28,3.89,10.18,5.68,14.87c3.09-3.1,6.14-6.17,9.17-9.21
			C114.07,94.33,109.19,92.47,103.93,90.46z"/>
		<path class="st1" d="M105.19,49.79c9.1,0,18.2,0,27.29,0c2.34,0,3.22,0.86,3.22,3.16c0,5.17,0,10.35,0,15.52
			c0,2.14-0.92,3.05-3.07,3.05c-18.33,0-36.65,0-54.98,0c-2.08,0-3.02-0.92-3.02-2.97c-0.01-5.26-0.01-10.52,0-15.78
			c0-2.06,0.93-2.98,3.01-2.98C86.83,49.78,96.01,49.79,105.19,49.79z M79.86,66.26c16.94,0,33.77,0,50.56,0c0-3.81,0-7.54,0-11.23
			c-16.91,0-33.71,0-50.56,0C79.86,58.79,79.86,62.48,79.86,66.26z"/>
		<path class="st1" d="M126.72,83.94c-2.02,0-4.05,0.01-6.07,0c-1.69-0.01-2.77-1.01-2.79-2.55c-0.02-1.59,1.07-2.61,2.85-2.62
			c4.05-0.01,8.1-0.01,12.15,0c1.78,0,2.87,1.02,2.86,2.61c-0.01,1.57-1.12,2.55-2.91,2.56C130.77,83.95,128.74,83.94,126.72,83.94z
			"/>
		<path class="st1" d="M140.89,100.92c0.05-1.46,1.23-2.54,2.72-2.48c1.41,0.06,2.47,1.19,2.45,2.62c-0.02,1.47-1.17,2.58-2.66,2.55
			C141.93,103.58,140.84,102.41,140.89,100.92z"/>
		<path class="st1" d="M69.45,123.34c-0.03,1.47-1.19,2.57-2.68,2.53c-1.46-0.04-2.55-1.22-2.49-2.71c0.05-1.41,1.18-2.47,2.61-2.46
			C68.37,120.71,69.48,121.86,69.45,123.34z"/>
	</g>
</g>
</svg>
