<?xml version="1.0" encoding="utf-8"?>
<!-- Generator: Adobe Illustrator 27.0.0, SVG Export Plug-In . SVG Version: 6.00 Build 0)  -->
<svg version="1.1" id="Capa_1" xmlns="http://www.w3.org/2000/svg" xmlns:xlink="http://www.w3.org/1999/xlink" x="0px" y="0px"
	 viewBox="0 0 200 200" style="enable-background:new 0 0 200 200;" xml:space="preserve">
<style type="text/css">
	.st0{fill:#0C3E4D;}
	.st1{fill:#FFFFFF;}
</style>
<g>
	<circle class="st0" cx="100" cy="100" r="100"/>
	<g>
		<path class="st1" d="M146.68,113.88c3.07,0,5.9,0,8.76,0c-2.82-20.1-21.04-40.07-41.9-43.93c0,3.64,0,7.24,0,11.03
			c-8.52,0-16.78,0-25.45,0c0-3.66,0-7.36,0-11.07c-17.87,1.25-40.51,20.17-44.04,44.01c3,0,5.98,0,9.26,0c0,8.49,0,16.84,0,25.46
			c-8.29,0-16.64,0-25.41,0c0-7.7-0.1-15.32,0.13-22.93c0.03-0.87,1.8-2.23,2.92-2.41c2.77-0.45,6.37,0.63,8.24-0.77
			c1.8-1.35,1.79-5.06,2.68-7.7c5.92-17.51,17.84-29.53,35.23-37.63c-11.65,0-22.38-0.05-33.1,0.08c-0.97,0.01-2.16,1.03-2.84,1.9
			c-2.11,2.72-4.73,3.52-7.82,2.24c-2.78-1.15-4.9-3.26-4.57-6.43c0.34-3.32,1.91-6.45,5.79-6.39c2.2,0.03,4.43,1.37,6.55,2.35
			c1.17,0.54,2.12,2.24,3.18,2.25c14.39,0.15,28.78,0.1,43.59,0.1c0-2.9,0-5.55,0-8.38c8.68,0,16.94,0,25.63,0c0,2.63,0,5.28,0,8.38
			c1.8,0,3.18,0,4.56,0c12.08,0,24.16,0.08,36.23-0.1c1.52-0.02,3.43-0.98,4.44-2.13c2.66-3.02,6.95-3.81,10.04-1.4
			c3.25,2.54,3.39,6.93,0.32,10.15c-2.88,3.03-7.05,3.2-9.59-0.21c-1.68-2.25-3.47-2.48-5.86-2.46c-9.95,0.08-19.89,0.03-30.02,0.33
			c19.41,9.45,31.66,24.45,36.41,45.7c3.12,0,6.24-0.19,9.31,0.11c0.98,0.1,2.61,1.48,2.63,2.31c0.2,7.62,0.12,15.25,0.12,23.08
			c-8.6,0-16.86,0-25.41,0C146.68,131.1,146.68,122.75,146.68,113.88z M92.01,77.07c6.05,0,11.69,0,17.35,0c0-5.85,0-11.45,0-17.13
			c-5.94,0-11.58,0-17.35,0C92.01,65.74,92.01,71.27,92.01,77.07z M49.53,135.67c0-6.01,0-11.62,0-17.16c-5.82,0-11.32,0-16.81,0
			c0,5.9,0,11.5,0,17.16C38.46,135.67,43.87,135.67,49.53,135.67z M150.38,135.47c5.89,0,11.49,0,16.98,0c0-5.85,0-11.37,0-17.03
			c-5.76,0-11.26,0-16.98,0C150.38,124.18,150.38,129.7,150.38,135.47z M164.15,62.02c-1.34,1.92-2.74,3.05-2.72,4.16
			c0.01,0.85,1.9,2.43,2.79,2.32c1.16-0.15,2.85-1.55,2.99-2.58C167.32,65,165.65,63.83,164.15,62.02z M40.21,66.23
			c-2.15-1.44-3.28-2.78-4.44-2.81c-1.03-0.03-2.1,1.39-3.15,2.17c0.93,1.03,1.74,2.71,2.82,2.91
			C36.52,68.71,37.88,67.43,40.21,66.23z"/>
		<path class="st1" d="M115.98,127.33c0,4.55-0.1,9.09,0.04,13.63c0.08,2.57-0.94,3.4-3.44,3.37c-7.53-0.11-15.07-0.16-22.6,0.02
			c-3.07,0.07-3.72-1.22-3.66-3.95c0.14-6.75,0.35-13.52-0.04-20.25c-0.36-6.07,0.33-11.55,3.96-16.71
			c3.22-4.56,5.81-9.57,8.57-14.44c1.42-2.51,3.05-1.91,4.12-0.11c4.31,7.2,8.44,14.51,12.53,21.85c0.52,0.93,0.49,2.22,0.5,3.35
			C116.01,118.5,115.98,122.91,115.98,127.33z M100.91,93.39c-3.17,5.47-6.06,10.46-9.01,15.55c6.24,0,11.96,0,18.15,0
			C106.94,103.63,104.07,98.76,100.91,93.39z M111.82,140.26c0-8.98,0-17.6,0-26.18c-1.53,0-2.79,0-4.2,0c0,8.8,0,17.42,0,26.18
			C109.08,140.26,110.34,140.26,111.82,140.26z M103.26,140.24c0-8.94,0-17.56,0-26.18c-1.52,0-2.78,0-4.23,0c0,8.78,0,17.4,0,26.18
			C100.48,140.24,101.74,140.24,103.26,140.24z M94.74,140.25c0-8.77,0-17.39,0-26.11c-1.52,0-2.86,0-4.23,0c0,8.85,0,17.47,0,26.11
			C92.02,140.25,93.28,140.25,94.74,140.25z"/>
	</g>
</g>
</svg>
