<?xml version="1.0" encoding="utf-8"?>
<!-- Generator: Adobe Illustrator 27.0.0, SVG Export Plug-In . SVG Version: 6.00 Build 0)  -->
<svg version="1.1" id="Capa_1" xmlns="http://www.w3.org/2000/svg" xmlns:xlink="http://www.w3.org/1999/xlink" x="0px" y="0px"
	 viewBox="0 0 200 200" style="enable-background:new 0 0 200 200;" xml:space="preserve">
<style type="text/css">
	.st0{fill:#0C3E4D;}
	.st1{fill:#FFFFFF;}
</style>
<g>
	<circle class="st0" cx="100" cy="100" r="100"/>
	<g>
		<path class="st1" d="M65.66,117.38c0,0.89,0.01,1.66,0,2.43c-0.06,4.45-3.56,7.98-8.01,8.07c-1.58,0.03-3.16,0.01-4.82,0.01
			c0,3.49,0,6.92,0,10.48c0.86,0,1.71,0,2.56,0c3.96,0,6.53,2.56,6.55,6.52c0,0.81,0.02,1.61,0,2.42c-0.05,2.02-1.37,3.33-3.4,3.33
			c-6.7,0.01-13.4,0.01-20.1,0c-2.23,0-3.53-1.3-3.53-3.54c0-10.64,0-21.28,0-31.92c0-0.37,0-0.73,0-1.19c-0.89,0-1.66,0-2.43,0
			c-6.75-0.01-11.98-5.22-11.99-11.97c-0.01-3.05-0.14-6.11,0.11-9.14c0.5-6.08,5.49-10.62,11.62-10.69
			c5.66-0.06,11.33,0.1,16.99-0.06c2.45-0.07,4.9-0.55,7.31-1.06c17.15-3.66,33.14-10.16,47.99-19.51c0.65-0.41,0.84-0.86,0.84-1.59
			c0-4.21,3.36-7.59,7.52-7.64c4.17-0.05,7.6,3.23,7.76,7.43c0.02,0.46,0.01,0.92,0.01,1.38c0,24.87,0,49.74,0,74.61
			c0,1.56-0.28,3.03-1.1,4.37c-1.82,3-5.28,4.38-8.64,3.45c-3.27-0.9-5.56-3.9-5.55-7.37c0-0.74-0.2-1.18-0.85-1.59
			c-11.88-7.48-24.56-13.15-38.03-17.04C66.25,117.51,66.03,117.47,65.66,117.38z M105.27,130.98c0-21.97,0-43.83,0-65.81
			c-1.55,0.92-3,1.79-4.46,2.63c-14.74,8.45-30.48,14.21-47.17,17.38c-0.74,0.14-0.9,0.42-0.89,1.12c0.02,7.85,0.03,15.7,0,23.55
			c0,0.75,0.21,1.02,0.96,1.16c16.05,3.06,31.24,8.5,45.51,16.48C101.21,128.6,103.18,129.77,105.27,130.98z M108.78,98.07
			c0,11.7,0,23.4,0,35.1c0,1.09-0.04,2.19,0.02,3.28c0.12,2.5,2.43,4.32,4.89,3.89c2.18-0.38,3.5-2.11,3.5-4.63
			c0-25.12,0-50.25,0-75.37c0-0.2,0.01-0.4-0.01-0.6c-0.21-2.74-2.82-4.56-5.41-3.78c-1.87,0.56-2.98,2.18-2.99,4.35
			C108.78,72.89,108.78,85.48,108.78,98.07z M58.5,147.15c0-0.87,0.01-1.69,0-2.52c-0.04-1.71-1.12-2.79-2.82-2.82
			c-1.35-0.02-2.7,0-4.05,0c-1.74,0-2.31-0.58-2.31-2.34c0-8.17,0-16.33,0-24.5c0-0.3,0-0.61,0-0.93c-3.7,0-7.28,0-10.87,0
			c0,11.06,0,22.06,0,33.09C45.12,147.15,51.75,147.15,58.5,147.15z M40.65,110.48c0-8.3,0-16.53,0-24.76
			c-0.14-0.04-0.21-0.09-0.29-0.09c-2.82,0-5.64-0.09-8.45,0.03c-4.17,0.18-7.51,3.28-7.85,7.44c-0.24,2.91-0.11,5.86-0.11,8.79
			c0,4.92,3.59,8.58,8.5,8.64c2.47,0.03,4.94,0.01,7.42,0.01C40.12,110.54,40.37,110.51,40.65,110.48z M44.16,85.68
			c0,0.43,0,0.77,0,1.11c0,7.59,0.01,15.18-0.02,22.77c0,0.76,0.15,1.08,0.98,1.03c1.12-0.08,2.24-0.01,3.36-0.02
			c0.26,0,0.53-0.06,0.76-0.09c0-8.33,0-16.54,0-24.79C47.56,85.68,45.93,85.68,44.16,85.68z M52.83,114.36c0,3.45,0,6.74,0,10.08
			c1.64,0,3.22,0.03,4.79-0.01c2.52-0.06,4.51-2.04,4.59-4.56c0.03-0.92-0.03-1.84,0.02-2.75c0.03-0.54-0.17-0.75-0.69-0.87
			c-1.85-0.4-3.69-0.86-5.53-1.27C54.98,114.75,53.94,114.57,52.83,114.36z"/>
		<path class="st1" d="M172.42,98.09c0,13.94,0,27.88,0,41.83c0,2.88-1.27,5.06-3.9,6.27c-0.88,0.41-1.94,0.61-2.91,0.62
			c-8.45,0.05-16.9,0.03-25.36,0.02c-4.03,0-6.88-2.87-6.89-6.92c-0.01-9.69-0.01-19.38,0.01-29.06c0-0.74-0.2-1.28-0.74-1.81
			c-2.2-2.14-4.37-4.33-6.53-6.51c-2.54-2.56-2.57-6.22-0.06-8.79c2.21-2.26,4.45-4.49,6.71-6.7c0.45-0.44,0.62-0.89,0.62-1.51
			c-0.02-9.63-0.01-19.26-0.01-28.89c0-4.52,2.74-7.26,7.24-7.26c8.31,0,16.62-0.01,24.92,0c4.05,0,6.9,2.85,6.9,6.9
			C172.42,70.21,172.42,84.15,172.42,98.09z M168.98,98.19C168.98,98.19,168.98,98.19,168.98,98.19c0-13.86,0-27.72-0.01-41.58
			c0-2.58-1.24-3.81-3.81-3.81c-8.22,0-16.45,0-24.67,0c-2.45,0-3.71,1.26-3.71,3.72c0,10.01-0.01,20.01,0.01,30.02
			c0,0.91-0.28,1.58-0.92,2.21c-2.46,2.42-4.9,4.86-7.32,7.32c-1.29,1.3-1.25,2.78,0.05,4.09c2.39,2.41,4.77,4.82,7.2,7.19
			c0.69,0.67,0.99,1.38,0.99,2.35c-0.03,9.83-0.02,19.67-0.02,29.5c0,3.07,1.09,4.18,4.13,4.18c8.05,0,16.1,0,24.15,0
			c2.69,0,3.91-1.22,3.91-3.88C168.98,125.74,168.98,111.97,168.98,98.19z"/>
		<path class="st1" d="M142.94,98.08c0-3.13,0-6.27,0-9.4c0-1.54,0.61-2.17,2.12-2.17c2.59-0.01,5.17-0.03,7.76,0
			c5.7,0.07,9.99,4.42,10,10.13c0,1.06,0.01,2.13,0,3.19c-0.08,5.29-4.14,9.58-9.42,9.8c-2.9,0.12-5.8,0.04-8.71,0.02
			c-1.11-0.01-1.75-0.72-1.75-1.91C142.93,104.52,142.94,101.3,142.94,98.08z M146.45,90.08c0,5.37,0,10.73,0,16.07
			c2.48,0,4.9,0.13,7.3-0.03c2.91-0.2,5.38-2.8,5.57-5.69c0.1-1.52,0.1-3.05,0-4.57c-0.19-2.87-2.47-5.47-5.32-5.73
			C151.53,89.9,149.02,90.08,146.45,90.08z"/>
		<path class="st1" d="M159.38,76.43c-4.39,0-8.63,0-12.99,0c0,1.68,0,3.31,0,4.94c0,0.31-0.01,0.64-0.09,0.94
			c-0.22,0.81-0.93,1.3-1.75,1.24c-0.85-0.06-1.49-0.67-1.59-1.53c-0.02-0.14-0.02-0.29-0.02-0.43c0-3.77-0.03-7.53,0.01-11.3
			c0.04-4.71,3.27-8.64,7.86-9.65c4.44-0.98,9.08,1.25,11.01,5.46c0.57,1.25,0.91,2.69,0.96,4.06c0.13,3.82,0.05,7.65,0.04,11.47
			c0,1.2-0.68,1.93-1.73,1.92c-1-0.01-1.69-0.75-1.7-1.88C159.36,79.94,159.38,78.22,159.38,76.43z M146.22,72.87
			c4.56,0,8.82,0,13.14,0c0-1.01,0.04-1.95-0.01-2.89c-0.14-3.08-2.49-5.6-5.61-6.05c-3.01-0.44-6.09,1.35-6.94,4.28
			C146.38,69.66,146.41,71.25,146.22,72.87z"/>
		<path class="st1" d="M152.92,112.64c3.49,0.04,6.38,2.74,6.59,6.16c0.08,1.26-0.51,2.09-1.55,2.18c-1.05,0.1-1.77-0.61-1.89-1.87
			c-0.18-1.84-1.57-3.09-3.34-3.02c-1.67,0.07-3.03,1.47-3.04,3.15c-0.01,1.78,1.35,3.16,3.24,3.24c2.83,0.11,4.9,1.43,6.03,4.01
			c1.09,2.48,0.69,4.85-1.04,6.94c-1.68,2.04-4.52,2.87-7.03,2.02c-2.67-0.9-4.21-2.81-4.61-5.6c-0.06-0.42-0.05-0.88,0.07-1.28
			c0.23-0.77,0.83-1.16,1.62-1.18c0.75-0.02,1.45,0.55,1.64,1.29c0.06,0.22,0.06,0.45,0.08,0.68c0.19,1.76,1.63,3.03,3.34,2.94
			c1.68-0.09,3.02-1.48,3.04-3.16c0.02-1.72-1.29-3.09-3.07-3.21c-3.51-0.24-5.93-2.16-6.62-5.26
			C145.47,116.55,148.68,112.6,152.92,112.64z"/>
	</g>
</g>
</svg>
