<?xml version="1.0" encoding="utf-8"?>
<!-- Generator: Adobe Illustrator 27.0.0, SVG Export Plug-In . SVG Version: 6.00 Build 0)  -->
<svg version="1.1" id="Capa_1" xmlns="http://www.w3.org/2000/svg" xmlns:xlink="http://www.w3.org/1999/xlink" x="0px" y="0px"
	 viewBox="0 0 200 200" style="enable-background:new 0 0 200 200;" xml:space="preserve">
<style type="text/css">
	.st0{fill:#0C3E4D;}
	.st1{fill:#FFFFFF;}
</style>
<g>
	<circle class="st0" cx="100" cy="100" r="100"/>
	<g>
		<path class="st1" d="M161.96,102.5c7.79,5.38,9.6,13.45,7.62,20.18c-2.34,7.93-8.24,11.78-19.26,12.58c0,5.77,0,11.54,0,17.53
			c0.54,0,1.1,0,1.65,0c4.29,0,8.59-0.01,12.88,0c2.07,0.01,2.95,0.92,2.94,2.97c-0.05,6.45-5.66,12.06-12.25,12.07
			c-17.59,0.04-35.18,0.02-52.77,0.02c-4.35,0-8.69,0.03-13.04-0.01c-6.85-0.06-12.36-5.57-12.39-12.41
			c-0.03-6.13-0.01-12.25-0.01-18.38c0-0.57,0-1.13,0-1.89c-0.67,0-1.23,0-1.79,0c-9.32,0-18.64,0.02-27.96,0
			c-10.74-0.02-18.65-8.3-17.96-18.99c0.33-5.04,2.63-9.19,6.58-12.37c0.52-0.42,1.06-0.81,1.71-1.3c-5.32-3.7-8.33-8.6-8.34-15.06
			c0-6.46,2.96-11.39,8.32-15.08c-0.85-0.68-1.63-1.26-2.36-1.9c-5.48-4.78-7.44-12.5-4.91-19.29c2.57-6.91,9.08-11.48,16.41-11.5
			c5.02-0.01,10.04,0,15.09,0c0.41-3.8,2.23-6.36,5.91-7.34c0.74-0.2,1.55-0.2,2.33-0.2c24.66-0.01,49.32,0,73.98-0.01
			c4.97,0,7.79,2.45,8.46,7.41c8.25,0.62,14.13,4.61,16.74,12.6c2.39,7.31,0.14,13.06-7.48,20.26c5.23,3.63,8.22,8.54,8.23,15
			C170.29,93.87,167.31,98.78,161.96,102.5z M59.67,100.01c0.81,0,1.38,0,1.94,0c18.64,0,37.27,0,55.91,0
			c11.67,0,23.35,0.06,35.02-0.03c5.26-0.04,9.27-2.46,11.52-7.28c2.16-4.63,1.54-9.1-1.59-13.11c-2.59-3.32-6.15-4.73-10.31-4.73
			c-30.36,0-60.72,0-91.09,0c-0.4,0-0.79,0-1.29,0C66.51,85.45,66.5,90.82,59.67,100.01z M59.58,69.84c0.66,0,1.01,0,1.35,0
			c30.51,0,61.03,0.02,91.54-0.05c1.73,0,3.57-0.39,5.17-1.05c5.71-2.34,8.75-8.63,7.24-14.56c-1.53-5.98-7.31-10.08-13.44-9.48
			c-0.47,0.05-0.97,0.34-1.34,0.66c-1.51,1.26-3.22,1.84-5.2,1.84c-25.02-0.02-50.04,0.01-75.05-0.07c-1.47,0-3.24-0.49-4.35-1.39
			c-1.87-1.53-3.74-0.89-5.91-1.06C66.47,52.2,66.34,62.49,59.58,69.84z M79.76,105.01c2.83,3.5,2.6,7.34,2.59,11.17
			c-0.03,12.93-0.03,25.87,0,38.8c0.01,4.3,3.09,7.61,7.19,7.85c3.91,0.22,7.33-2.75,7.86-6.82c0.36-2.79,0.85-3.21,3.69-3.21
			c14.09,0,28.17,0,42.26,0c0.6,0,1.2,0,1.85,0c0-1.15,0-2.04,0-2.93c0-12.1,0-24.19,0-36.29c0-5.51-3.04-8.56-8.54-8.56
			c-18.27,0-36.55,0-54.82,0C81.28,105.01,80.72,105.01,79.76,105.01z M59.73,57.3c0.03-6.87-5.69-12.61-12.57-12.61
			c-6.82,0-12.5,5.63-12.57,12.45C34.51,64,40.2,69.78,47.07,69.83C53.93,69.89,59.7,64.17,59.73,57.3z M47.2,105.02
			c-6.89-0.02-12.6,5.67-12.61,12.56c-0.01,6.81,5.62,12.51,12.44,12.58c6.88,0.07,12.63-5.59,12.69-12.48
			C59.78,110.8,54.08,105.05,47.2,105.02z M59.73,87.41c-0.03-6.9-5.77-12.6-12.62-12.56c-6.9,0.05-12.57,5.78-12.52,12.66
			c0.05,6.87,5.83,12.55,12.7,12.48C54.09,99.93,59.75,94.19,59.73,87.41z M77.18,42.18c0.39,0,0.9,0,1.41,0c21.83,0,43.66,0,65.5,0
			c0.47,0,0.96,0.05,1.41-0.05c1.32-0.29,2.19-1.12,2.17-2.5c-0.01-1.38-0.89-2.19-2.21-2.46c-0.4-0.08-0.83-0.04-1.25-0.04
			c-21.83,0-43.66,0-65.5,0c-0.55,0-1.09,0-1.52,0C77.18,38.91,77.18,40.46,77.18,42.18z M77.29,130.17c0-6.2,0.12-12.22-0.05-18.23
			c-0.09-3.18-2.43-6.2-5.43-6.5c-3.94-0.4-7.96-0.1-11.99-0.1c3.17,3.45,4.91,7.53,4.91,12.3c0,4.76-1.81,8.8-5.1,12.46
			c0.44,0.04,0.63,0.07,0.82,0.07C66.01,130.17,71.56,130.17,77.29,130.17z M147.81,105.21c2.34,3.03,2.47,6.49,2.41,10.03
			c-0.07,4.44-0.02,8.89-0.02,13.33c0,0.5,0.04,1.01,0.07,1.56c1.17,0,2.21,0.08,3.24-0.01c6.57-0.56,11.48-5.63,11.76-12.1
			c0.28-6.28-4.28-11.8-10.77-12.76C152.43,104.95,150.25,105.21,147.81,105.21z M162.08,157.9c-19.97,0-39.92,0-59.7,0
			c-0.74,1.71-1.43,3.26-2.14,4.89c0.45,0.02,0.85,0.05,1.26,0.05c10.57,0,21.14,0,31.72,0c7.22,0,14.44,0.02,21.67-0.01
			C158.45,162.83,161.3,160.85,162.08,157.9z M69.83,42.17c1.3-0.03,2.49-1.27,2.46-2.56c-0.03-1.3-1.27-2.49-2.56-2.46
			c-1.31,0.03-2.49,1.26-2.46,2.56C67.3,41.02,68.54,42.2,69.83,42.17z"/>
		<path class="st1" d="M132.6,128.95c-0.01,10.42-8.44,18.81-18.89,18.8c-10.42-0.01-18.8-8.45-18.79-18.89
			c0.01-10.42,8.44-18.8,18.89-18.79C124.24,110.07,132.62,118.49,132.6,128.95z M113.77,115.07c-7.55,0.01-13.79,6.22-13.83,13.78
			c-0.04,7.57,6.31,13.92,13.9,13.87c7.54-0.04,13.77-6.33,13.75-13.86C127.57,121.32,121.29,115.06,113.77,115.07z"/>
		<path class="st1" d="M52.17,57.24c0.01,2.85-2.21,5.06-5.07,5.04c-2.76-0.02-4.95-2.22-4.96-4.99c-0.01-2.85,2.21-5.06,5.07-5.04
			C49.97,52.26,52.17,54.48,52.17,57.24z"/>
		<path class="st1" d="M47.11,112.58c2.84-0.01,5.07,2.21,5.06,5.06c-0.01,2.76-2.21,4.97-4.98,4.98c-2.85,0.01-5.06-2.21-5.06-5.06
			C42.15,114.79,44.35,112.58,47.11,112.58z"/>
		<path class="st1" d="M52.18,87.34c0.03,2.85-2.18,5.1-5.02,5.1c-2.76,0-4.99-2.19-5.02-4.94c-0.03-2.86,2.16-5.09,5.01-5.1
			C49.91,82.41,52.15,84.6,52.18,87.34z"/>
		<path class="st1" d="M113.76,139.63c-3.83,0.01-7.04-1.99-8.38-5.22c-0.57-1.38-0.23-2.55,0.95-3.01
			c1.35-0.53,2.17,0.11,2.73,1.31c0.91,1.96,2.47,2.84,4.62,2.86c2.21,0.02,3.83-0.84,4.78-2.87c0.56-1.2,1.39-1.84,2.74-1.31
			c1.17,0.46,1.51,1.64,0.94,3.02C120.79,137.66,117.64,139.62,113.76,139.63z"/>
		<path class="st1" d="M109.82,125.98c0.03,1.42-1.1,2.59-2.53,2.62c-1.48,0.03-2.59-1.03-2.62-2.49c-0.03-1.47,1.04-2.59,2.5-2.63
			C108.61,123.44,109.78,124.55,109.82,125.98z"/>
		<path class="st1" d="M122.86,126.04c0,1.47-1.09,2.55-2.56,2.55c-1.45,0-2.58-1.12-2.59-2.55c0-1.43,1.14-2.57,2.58-2.56
			C121.76,123.48,122.86,124.58,122.86,126.04z"/>
	</g>
</g>
</svg>
