<?xml version="1.0" encoding="utf-8"?>
<!-- Generator: Adobe Illustrator 27.0.0, SVG Export Plug-In . SVG Version: 6.00 Build 0)  -->
<svg version="1.1" id="Capa_1" xmlns="http://www.w3.org/2000/svg" xmlns:xlink="http://www.w3.org/1999/xlink" x="0px" y="0px"
	 viewBox="0 0 200 200" style="enable-background:new 0 0 200 200;" xml:space="preserve">
<style type="text/css">
	.st0{fill:#0C3E4D;}
	.st1{fill:#FFFFFF;}
</style>
<g>
	<circle class="st0" cx="100" cy="100" r="100"/>
	<g>
		<path class="st1" d="M155.11,100.89c-2.44,0-4.67,0-6.91,0c-4.74,0-9.49,0-14.23,0c-2.55,0-3.59-1.04-3.6-3.62
			c-0.02-6.83-0.78-13.57-2.29-20.23c-0.14-0.62-0.25-1.01-1.02-1c-7.89,0.03-15.78,0.02-23.68,0.02c-0.12,0-0.24,0.06-0.43,0.1
			c0,6.32,0,12.64,0,19.09c2.07,0,4.08-0.03,6.09,0.01c2.14,0.04,3.45,1.69,2.92,3.6c-0.34,1.23-1.44,2-2.97,2.02
			c-1.98,0.02-3.95,0.01-6.02,0.01c0,6.4,0,12.72,0,19.21c1.27,0,2.55-0.01,3.83,0c1.94,0.02,3.23,1.12,3.27,2.76
			c0.04,1.67-1.31,2.85-3.29,2.88c-1.24,0.01-2.49,0-3.81,0c0,9.09,0,18.08,0,27.18c2.13-0.26,4.04-1.07,5.88-2.08
			c2.64-1.45,3.6-1.18,4.99,1.45c0.08,0.15,0.22,0.26,0.32,0.4c1.68,2.07,0.94,4.35-1.66,4.86c-18.38,3.56-35.11-0.24-49.88-11.72
			c-12.38-9.63-19.96-22.37-22.48-37.85C37.3,90.49,41.44,74.6,52.31,60.61c8.42-10.83,19.35-18.22,32.7-21.34
			C109,33.66,129.48,40.19,146,58.45c8.07,8.91,12.62,19.62,14.29,31.52c0.94,6.71,0.72,13.4-0.69,20.04
			c-0.39,1.84-1.66,2.8-3.28,2.53c-1.54-0.26-2.41-1.59-2.18-3.4c0.17-1.37,0.41-2.72,0.58-4.09
			C154.87,103.73,154.97,102.4,155.11,100.89z M97.2,76.05c-8.15,0-16.16-0.01-24.17,0.04c-0.32,0-0.85,0.53-0.91,0.88
			c-0.73,4.41-1.44,8.82-2.04,13.25c-0.23,1.64-0.18,3.31-0.26,4.95c9.23,0,18.3,0,27.39,0C97.2,88.77,97.2,82.5,97.2,76.05z
			 M97.2,100.98c-9.21,0-18.27,0-27.4,0c0.24,6.08,0.89,12,2.17,17.86c0.22,1.01,0.6,1.28,1.6,1.28c7.46-0.04,14.91-0.02,22.37-0.03
			c0.41,0,0.83-0.04,1.26-0.06C97.2,113.62,97.2,107.34,97.2,100.98z M97.17,70.36c0-9.12,0-18.11,0-27.1
			c-3.08,0.33-6.86,2.18-9.89,4.82c-5.42,4.73-8.92,10.76-11.59,17.33c-0.65,1.6-1.21,3.24-1.84,4.96
			C81.75,70.36,89.41,70.36,97.17,70.36z M126.23,70.36c-1.8-5.59-4.12-10.78-7.4-15.52c-2.63-3.79-5.72-7.12-9.77-9.43
			c-1.89-1.08-3.88-1.9-6.09-2.18c0,9.11,0,18.09,0,27.13C110.71,70.36,118.37,70.36,126.23,70.36z M73.85,125.77
			c0.59,1.63,1.08,3.1,1.65,4.53c2.71,6.69,6.19,12.88,11.72,17.7c2.86,2.49,6.09,4.28,9.92,4.95c0-9.11,0-18.13,0-27.17
			C89.37,125.77,81.71,125.77,73.85,125.77z M45.08,95.2c6.44,0,12.72,0,18.85,0c0.76-6.4,1.5-12.73,2.26-19.15
			c-5.29,0-10.72-0.01-16.14,0.03c-0.29,0-0.71,0.42-0.85,0.74C46.75,82.66,45.36,88.74,45.08,95.2z M66.2,120.09
			c-0.76-6.44-1.51-12.75-2.27-19.13c-6.15,0-12.46,0-18.89,0c0.14,1.53,0.23,2.98,0.42,4.42c0.62,4.84,1.86,9.53,3.8,14.01
			c0.13,0.3,0.59,0.67,0.9,0.67C55.53,120.1,60.91,120.09,66.2,120.09z M155.05,95.18c-0.29-6.44-1.7-12.51-4.09-18.37
			c-0.3-0.73-0.76-0.78-1.4-0.78c-4.95,0.01-9.91,0.01-14.86,0.01c-0.33,0-0.65,0.06-0.78,0.07c0.78,6.38,1.55,12.68,2.33,19.07
			C142.36,95.18,148.63,95.18,155.05,95.18z M119.52,46.71c0.72,0.86,1.45,1.7,2.15,2.58c4.62,5.86,7.76,12.48,9.94,19.56
			c0.39,1.27,0.94,1.62,2.23,1.59c4.14-0.09,8.28-0.03,12.42-0.03c0.41,0,0.82,0,1.48,0C140.96,59.15,131.67,51.28,119.52,46.71z
			 M52.65,70.29c0.07,0.04,0.14,0.1,0.21,0.1c4.79,0.01,9.57,0.03,14.36-0.03c0.36,0,0.87-0.55,1.03-0.96
			c1.11-2.79,2.04-5.66,3.23-8.42c2.27-5.24,5.28-10.04,9.24-14.34C71.73,48.61,55.74,62.12,52.65,70.29z M80.63,149.43
			c-0.72-0.86-1.45-1.7-2.15-2.57c-4.75-5.98-7.88-12.8-10.14-20.04c-0.27-0.88-0.65-1.12-1.52-1.11c-3.15,0.05-6.3,0.02-9.44,0.02
			c-1.58,0-3.15,0-4.99,0C59.17,136.99,68.47,144.85,80.63,149.43z"/>
		<path class="st1" d="M132.47,145.03c-1.63,1.78-3.19,3.5-4.77,5.2c-1.61,1.72-3.56,2.38-5.86,1.67c-2.24-0.69-3.6-2.27-3.86-4.55
			c-0.61-5.39-1.08-10.8-1.61-16.2c-0.56-5.66-1.13-11.31-1.69-16.97c-0.21-2.06-0.48-4.11-0.6-6.17c-0.3-4.85,3.9-7.68,8.3-5.58
			c11.64,5.56,23.26,11.16,34.9,16.73c2.28,1.09,3.61,2.84,3.53,5.38c-0.08,2.52-1.49,4.21-3.86,5.14
			c-2.08,0.81-4.12,1.71-6.29,2.62c2.01,2.88,3.95,5.66,5.9,8.44c3.35,4.77,2.53,9.52-2.24,12.85c-1.34,0.94-2.66,1.91-4.04,2.79
			c-3.75,2.42-8.51,1.58-11.16-2.01c-2-2.7-3.88-5.49-5.82-8.23C133.06,145.8,132.8,145.47,132.47,145.03z M123.5,146.55
			c2.44-2.66,4.61-5.05,6.81-7.41c1.86-2.01,3.59-1.87,5.18,0.39c2.58,3.66,5.14,7.34,7.72,11c1.35,1.91,2.67,2.14,4.6,0.82
			c1.03-0.71,2.04-1.43,3.07-2.15c2.58-1.81,2.76-2.9,0.92-5.53c-2.5-3.56-5-7.12-7.47-10.7c-1.38-2-0.86-3.71,1.38-4.65
			c2.06-0.87,4.13-1.71,6.19-2.57c1.03-0.43,2.06-0.88,3.27-1.4c-11.93-5.73-23.62-11.34-35.54-17.06
			C120.92,120.39,122.19,133.26,123.5,146.55z"/>
	</g>
</g>
</svg>
